<svg width="120" height="102" viewBox="0 0 120 102" fill="none" xmlns="http://www.w3.org/2000/svg">
<g clip-path="url(#clip0_206_17130)">
<path style="mix-blend-mode:lighten" d="M64.1303 7.50996C89.0086 11.1675 106.216 34.3478 102.57 59.283C98.9212 84.2208 75.7962 101.472 50.9179 97.8146C26.0397 94.1571 8.82949 70.9768 12.4783 46.0416C16.1297 21.1038 39.2521 3.85515 64.1303 7.50996Z" fill="url(#paint0_radial_206_17130)"/>
<path d="M63.6738 10.6395C86.8257 14.044 102.846 35.6177 99.4527 58.8249C96.0563 82.0349 74.5315 98.0914 51.3797 94.6868C32.282 91.8798 18.0413 76.7115 15.5443 58.4616C15.096 55.2186 15.0235 51.8786 15.3591 48.493C15.4235 47.8282 15.5041 47.1634 15.6034 46.496C16.4357 40.8092 18.3554 35.5531 21.1235 30.9105C23.8675 26.2976 27.4438 22.2875 31.6161 19.0553C40.4011 12.2516 51.8227 8.89551 63.6738 10.6395Z" fill="url(#paint1_radial_206_17130)"/>
<path style="mix-blend-mode:multiply" opacity="0.27" d="M99.45 58.8685C96.0536 82.0812 74.5315 98.1349 51.3796 94.7304C32.2793 91.9234 18.0386 76.7551 15.5416 58.5052C15.0959 55.2622 15.0235 51.9249 15.3564 48.5365C15.4181 47.8745 15.5041 47.207 15.6007 46.5396C16.0652 43.3611 16.868 40.3172 17.9715 37.4429C18.887 36.4983 19.5824 35.3356 20.3476 34.2537C21.98 31.9365 23.9239 29.8588 26.1309 28.0798C28.6547 26.0478 31.498 24.4115 34.5265 23.2704C39.3701 21.4538 44.6244 20.8374 49.3445 18.7274C53.9652 16.6578 58.0811 13.1591 63.0992 12.4836C66.5788 12.018 70.1122 12.9815 73.6052 13.3986C75.0819 14.0015 76.513 14.6878 77.893 15.4494C70.1014 17.2122 61.1124 15.7562 55.2164 21.0554C54.4538 21.7417 53.7719 22.5222 52.91 23.0739C51.8388 23.7602 50.5688 24.0455 49.323 24.2931C43.4968 25.4665 37.3484 26.2981 32.4699 29.6973C28.7218 32.3079 26.0718 36.2103 23.8031 40.1854C20.4792 46.0121 17.7701 52.1914 15.743 58.5859C16.7015 59.0273 17.5285 57.7866 17.9017 56.7989C21.8404 46.3942 31.0416 38.148 41.7972 35.3948C41.118 36.727 40.436 38.0619 39.7567 39.3941C48.0208 33.0614 57.1817 26.4219 67.583 26.7072C60.1512 32.5797 52.7167 38.4548 45.2849 44.3273C41.2549 47.5138 36.9027 51.2521 36.355 56.3656C37.4665 55.795 38.5754 55.2245 39.6842 54.6593C38.8009 55.0711 39.3728 56.5997 40.334 56.7478C41.2952 56.8958 42.1731 56.2283 42.9195 55.6013C47.2556 51.9464 51.5971 48.2863 55.9386 44.6314C59.0907 41.9724 62.6938 39.1627 66.8044 39.4479C61.6091 42.0558 57.1575 46.1251 54.0914 51.0691C52.0831 54.3121 50.6332 58.1392 51.2347 61.9124C54.9103 58.4675 58.5832 55.028 62.2589 51.5858C63.016 50.8753 64.0389 50.1164 64.9867 50.5308C58.9242 58.9923 51.7904 66.6788 43.8109 73.3505C42.796 70.7911 46.1709 67.5723 44.4311 65.4354C43.5451 64.3508 41.765 64.4477 40.6266 65.2631C39.4882 66.0732 38.8385 67.392 38.229 68.6542C36.4033 72.4463 34.5319 76.5425 35.1736 80.7032C36.4221 80.278 37.5981 79.6375 38.6344 78.8193C38.4196 81.1312 39.115 83.5157 40.538 85.3458C41.118 86.0913 41.953 86.7991 42.8873 86.6834C43.7492 86.5757 44.364 85.8195 44.8822 85.1197C48.4719 80.2807 52.0616 75.4444 55.6513 70.6027C58.3013 67.0286 61.3164 63.2123 65.6445 62.2219C67.0997 61.8882 68.6221 61.9043 70.0638 61.5141C74.4053 60.3515 76.9452 55.9673 79.026 51.9707C79.4207 51.2117 79.7644 50.1406 79.0931 49.605C78.8596 49.4193 78.5508 49.3574 78.2555 49.3359C75.4041 49.1475 73.5193 52.0837 71.5862 54.1883C71.2828 54.5194 70.9552 54.8396 70.5337 54.9796C69.2745 55.4021 68.0878 53.8546 68.2569 52.5332C68.4234 51.2117 69.3899 50.1594 70.2088 49.1071C71.9809 46.8302 73.2669 43.964 72.8427 41.1058C70.7995 41.8432 68.7536 42.5753 66.7104 43.3127C69.4812 40.8905 71.6211 37.7551 72.8696 34.2914C67.0219 34.3048 61.2091 36.7459 57.0985 40.9174C56.4192 38.6998 58.6826 36.7701 60.656 35.5509C63.7006 33.6697 66.7453 31.7884 69.7873 29.9045C71.0841 29.1052 72.5662 27.6088 71.7446 26.3224C71.4036 25.7868 70.7592 25.5419 70.1498 25.375C67.8407 24.756 65.3518 24.8529 63.0965 25.6441C62.3689 25.8998 61.3003 26.0774 61.0614 25.3454C60.962 25.0413 61.0829 24.7156 61.201 24.4196C61.695 23.1762 62.3582 21.7794 63.6469 21.4349C64.541 21.1981 65.5425 21.5426 66.3855 21.1685C66.9359 20.9236 67.3172 20.4176 67.779 20.03C68.7993 19.1742 70.1766 18.9239 71.4841 18.6978C74.5503 18.1784 77.6165 17.6563 80.6826 17.1315C82.5271 18.3399 84.2616 19.6829 85.8832 21.1496C85.749 21.2223 85.6148 21.2896 85.4725 21.3407C83.7139 22.0028 81.727 21.6852 79.9201 22.2073C78.1158 22.7267 76.4727 24.8744 77.5681 26.4058C82.3231 26.8203 87.07 27.2724 91.8142 27.7568C98.0915 36.4175 101.123 47.4466 99.4554 58.8739L99.45 58.8685Z" fill="url(#paint2_radial_206_17130)"/>
<path d="M63.6739 10.6397C86.8258 14.0442 102.847 35.6179 99.4528 58.8252C96.0564 82.0352 74.5316 98.0916 51.3798 94.6871C32.2821 91.88 18.0414 76.7117 15.5444 58.4619C15.5659 58.4645 15.5901 58.4753 15.6116 58.4834C16.1781 58.7014 18.6106 65.3355 19.5181 66.4147C21.2445 68.4682 23.4917 69.6604 24.7563 72.0046C27.7553 77.5406 31.7209 80.4984 38.1352 81.5803C41.8994 82.2155 45.8596 82.2209 49.4332 80.8752C53.0068 79.5268 56.1401 76.674 57.1791 72.9896C58.97 76.3188 59.6197 80.2508 58.9914 83.9837C66.5521 83.5019 73.2751 76.9835 74.0027 69.4263C77.6246 71.2322 82.154 71.0519 85.6202 68.9715C89.0918 66.8911 91.3901 62.9752 91.5136 58.9248C91.5485 57.789 91.4062 56.5914 90.7591 55.6629C90.2598 54.9443 89.5107 54.4464 88.7482 54.0266C85.435 52.1965 81.5204 51.4886 77.7777 52.0404C79.4316 49.4432 80.9109 46.6173 81.174 43.5465C81.4399 40.4784 80.237 37.1143 77.5736 35.5721C78.2153 31.8204 77.3346 27.6031 74.4725 25.1002C71.6131 22.6027 66.6031 22.5946 64.3559 25.6681C61.5797 20.3769 56.124 16.7302 50.2655 15.6025C44.4071 14.4749 38.2291 15.7317 32.9506 18.5226C32.5291 18.746 32.078 18.9828 31.6189 19.0582C40.4039 12.2545 51.8254 8.89844 63.6766 10.6424L63.6739 10.6397Z" fill="url(#paint3_radial_206_17130)"/>
<path style="mix-blend-mode:screen" opacity="0.29" d="M34.5723 26.1552C40.8576 23.5607 48.6841 25.3343 53.2457 30.3859C51.6267 29.6054 49.6587 31.0937 49.2425 32.8431C48.8264 34.5925 49.4681 36.4064 50.0936 38.0912C51.1032 40.8148 52.0966 43.5465 53.0712 46.2836C50.1796 44.8895 46.8852 44.335 43.6982 44.7038C45.285 47.7907 46.1012 51.2706 46.0529 54.7397C43.76 50.1133 39.6843 46.4047 34.8676 44.5665C30.0509 42.7283 24.5442 42.7795 19.7624 44.7091C18.3421 45.2797 16.9405 46.0494 16.0384 47.282C15.7592 47.6615 15.539 48.0679 15.3564 48.4958C15.4209 47.8311 15.5014 47.1663 15.6008 46.4989C16.4331 40.8121 18.3528 35.556 21.1209 30.9134C22.0311 29.6216 23.0299 28.3997 24.171 27.3043C28.1553 23.4988 33.8527 21.5691 39.3245 22.1666C37.48 23.1355 35.8503 24.5027 34.5696 26.1525L34.5723 26.1552Z" fill="url(#paint4_radial_206_17130)"/>
<path style="mix-blend-mode:overlay" d="M63.945 10.6801C87.0969 14.0846 103.118 35.6582 99.7239 58.8655C96.3275 82.0755 74.8027 98.1319 51.6508 94.7274C32.5532 91.9203 18.3125 76.7521 15.8155 58.5022C15.3672 55.2591 15.2973 51.9192 15.6303 48.5335C15.6947 47.8688 15.7753 47.204 15.8746 46.5366C16.7069 40.8498 18.6266 35.5936 21.3947 30.9511C24.1387 26.3382 27.715 22.3281 31.89 19.0958C40.675 12.2922 52.0965 8.93608 63.9477 10.6774L63.945 10.6801Z" fill="url(#paint5_radial_206_17130)"/>
<path style="mix-blend-mode:lighten" d="M99.45 58.8681C96.0536 82.0808 74.5315 98.1345 51.3796 94.73C32.2793 91.923 18.0386 76.7547 15.5416 58.5048C15.0959 55.2618 15.0235 51.9245 15.3564 48.5361C15.4181 47.8741 15.5041 47.2066 15.6007 46.5392C16.0652 43.3607 16.868 40.3168 17.9715 37.4425C18.8387 35.1683 19.8992 32.9991 21.1235 30.951C23.8648 26.3408 27.4438 22.3307 31.6161 19.0984C40.4011 12.2921 51.8253 8.93868 63.6765 10.6827C67.1642 11.194 70.4881 12.1198 73.6079 13.4009C75.0846 14.0038 76.5156 14.69 77.8957 15.4517C78.8488 15.9711 79.7751 16.5309 80.6799 17.123C82.5244 18.3314 84.2589 19.6744 85.8806 21.1411C88.0849 23.1327 90.0744 25.3504 91.8088 27.751C98.0861 36.4117 101.117 47.4408 99.45 58.8681Z" fill="url(#paint6_radial_206_17130)"/>
<g style="mix-blend-mode:overlay">
<path d="M116.217 64.8511C115.608 64.9077 115.057 64.5066 114.486 64.2752C113.543 63.8984 112.488 63.9684 111.489 63.7881C110.488 63.6051 109.414 63.0076 109.266 61.9956C109.1 60.8599 110.187 59.8776 110.211 58.7176C110.249 57.0302 108.206 56.2254 107.064 54.9874C105.287 53.0766 105.717 50.0704 106.259 47.519C107.22 47.6482 108.176 47.772 109.135 47.9039C108.082 49.7044 109.61 52.3876 111.696 52.4038C111.049 51.8951 110.383 51.2788 110.302 50.4606C110.23 49.6452 111.175 48.7866 111.852 49.2522C111.967 47.1665 109.765 45.6997 107.736 45.2045C106.428 44.8896 106.114 44.4886 104.841 44.0903C104.796 43.8131 103.974 42.0933 103.92 41.8134C103.491 39.6011 102.425 37.8033 102.052 35.9948C101.746 35.3273 101.523 34.6249 101.394 33.9063C101.327 33.5591 101.442 31.0024 101.375 30.962C99.2998 29.4845 97.7184 27.4229 96.2444 25.3398C94.1206 22.3363 91.9512 19.0663 88.5763 17.6292C88.0876 17.4219 87.5829 17.2524 87.0808 17.0801C86.3693 16.8433 85.6632 16.5876 85.0268 16.1866C83.9395 15.5138 83.0722 14.2193 83.432 12.992C79.6946 13.0378 76.3707 9.51483 76.3895 5.82503C76.3278 5.67431 76.2714 5.5236 76.2204 5.36212C75.7908 6.63512 73.9892 6.60013 72.7005 6.23142C69.4679 5.29753 66.3937 3.81461 63.6497 1.86878C63.0805 1.45701 62.42 1.01025 61.7434 1.17442C60.8574 1.38973 60.1701 2.58468 59.3431 2.21596C59.1955 1.7396 59.174 1.26054 59.2357 0.78418C59.1525 0.870302 59.0773 0.959116 58.9941 1.04255C58.3094 1.78266 57.6114 2.53892 56.7442 3.05566C56.1803 3.39207 55.5547 3.61814 54.9292 3.84152C52.5289 4.70006 50.1125 5.51822 47.6853 6.29332C46.5765 6.64588 45.191 6.92578 44.4715 5.7712C44.4312 5.7093 44.3909 5.64471 44.3453 5.57474C43.6794 7.35908 40.5838 6.67818 39.8105 5.37558C39.0077 8.37102 37.7297 9.79473 36.2315 9.81357C34.9159 9.83241 33.4312 8.75319 31.9652 6.69164C31.8659 8.76934 31.8149 11.248 30.1073 12.7283C28.9555 13.7294 27.0519 14.3727 27.0787 15.8987C25.7712 15.2662 24.6892 14.187 24.0233 12.9005C24.3374 15.9471 22.1385 19.5104 22.6084 22.6243C22.5574 22.6862 22.501 22.7508 22.45 22.8154C21.572 20.926 20.8175 18.9829 20.192 17.0021C19.6389 16.1516 19.0294 15.3254 18.377 14.5395C18.1998 14.3296 18.0226 14.1197 17.84 13.9125C18.1702 15.4223 17.9689 16.9644 17.7782 18.5119C17.7917 19.8334 17.7299 21.1521 17.5903 22.4709C17.6467 23.3967 17.7353 24.3225 17.6708 25.2483C17.542 27.0354 16.8385 28.7309 16.1485 30.3914C15.241 32.5687 14.312 34.7837 12.9159 36.7026C12.7924 36.8694 12.6796 37.0067 12.5695 37.1251C12.1292 37.841 11.6647 38.5327 11.1707 39.2055C10.2686 38.4519 9.85243 37.1574 10.137 36.0217C7.5998 41.9426 7.71256 48.9562 10.4485 54.7964C9.17046 54.4546 7.89245 54.1101 6.61713 53.771C8.89929 55.1193 11.117 57.2266 12.4138 59.6434C12.6098 60.868 12.8461 62.0737 13.1307 63.2659L13.477 62.5958C13.5388 62.8919 13.5925 63.1933 13.6462 63.492C13.1468 64.7031 12.6796 65.925 12.2339 67.163C12.7629 67.3406 13.3321 67.3756 13.869 67.2599C13.5173 68.4952 13.0931 69.7197 12.591 70.9147C13.2998 70.9416 14.014 70.9631 14.7228 70.9847C14.0946 71.9105 13.9979 73.1835 14.4839 74.1873C13.4207 74.6314 12.3521 75.0728 11.2888 75.5195C12.7011 75.7268 14.108 75.9448 15.5149 76.1682C16.272 76.2839 17.2144 76.5826 17.2896 77.3497C17.3191 77.6861 17.2305 78.1705 17.5581 78.2728C17.1178 78.951 16.6855 79.6292 16.2479 80.3128C18.1998 79.893 20.0577 81.2063 21.6176 82.447C21.4324 83.2275 21.5102 84.0645 21.8405 84.7939C20.6618 84.549 19.5127 84.1964 18.3931 83.7496C20.5383 85.612 22.901 87.2214 25.4087 88.5429C25.4409 88.9197 25.2637 89.3018 24.963 89.5171C25.5107 90.0688 26.0558 90.6206 26.6035 91.1696C26.4478 92.3296 25.0248 93.1127 23.9642 92.6256C24.0824 92.7225 24.2032 92.8113 24.3294 92.884C25.3416 93.4438 26.7109 93.1504 27.8144 92.666C28.346 92.4291 28.883 92.1439 29.428 91.9097C30.3248 92.7494 31.2806 93.5433 32.1827 94.375C33.7722 95.8444 35.3348 98.0782 34.3333 99.9891C35.2301 99.004 36.6208 98.4954 37.9391 98.6757C38.5459 98.7564 39.1339 98.9691 39.7407 98.9771C40.4871 98.9906 41.1959 98.6918 41.9181 98.4954C46.0663 97.4054 50.2413 99.8949 54.4862 100.487C59.2304 101.146 64.2565 99.432 68.7537 101.076L69.4491 101.76L69.4786 101.79C69.4786 101.79 78.9348 95.9628 81.958 95.4596H81.9634C82.1701 95.3923 82.3822 95.3492 82.6024 95.3196C83.8428 95.1608 85.2873 95.6103 86.2377 94.8002C86.6781 94.4288 86.8982 93.8609 87.2714 93.4195C87.6473 92.9836 88.3347 92.6794 88.783 93.0428C88.0823 93.982 87.7708 95.2093 87.8997 96.3746C88.1172 95.6157 89.1858 94.8379 89.6986 94.0386C90.2409 93.1881 90.1094 92.0954 90.249 91.0916C90.5819 88.6774 92.7835 86.6616 95.2107 86.5486C95.2321 87.2187 95.2563 87.8943 95.2778 88.5644C96.4994 88.1096 97.9224 89.1834 98.0808 90.4322C98.2177 89.7943 98.6205 89.2157 99.1789 88.89C98.4218 88.4379 97.6673 87.9804 96.9102 87.5148C97.6942 87.0976 96.8216 85.9646 96.7518 85.0711C96.7115 84.5974 96.9505 84.1372 97.1814 83.7146C98.1184 81.9922 99.0581 80.2751 99.9978 78.5554C100.688 77.2878 101.375 76.0228 102.071 74.7606C102.702 73.5899 104.221 72.29 105.088 73.2911C104.841 71.714 105.279 70.04 106.267 68.7885C106.611 69.6901 107.988 69.5906 108.694 68.9393C109.4 68.296 109.757 67.3352 110.45 66.6732C111.492 65.672 113.269 65.5724 114.413 66.4498C114.684 66.6489 114.923 66.91 115.24 67.0096C116.991 67.5748 117.409 63.5835 119.222 63.85C118.346 63.1529 117.342 64.7354 116.228 64.8538L116.217 64.8511Z" fill="url(#paint7_radial_206_17130)"/>
</g>
<path style="mix-blend-mode:lighten" d="M119.211 63.8475C117.396 63.5811 116.98 67.5723 115.229 67.0071C114.912 66.9075 114.671 66.6492 114.402 66.4473C113.259 65.57 111.481 65.6695 110.439 66.6707C109.749 67.3328 109.39 68.2936 108.683 68.9368C107.977 69.5881 106.6 69.6877 106.256 68.7861C105.268 70.0375 104.831 71.7116 105.078 73.2887C104.208 72.2902 102.691 73.5901 102.06 74.7581C101.367 76.0204 100.677 77.288 99.9871 78.5529C99.05 80.2727 98.1103 81.9897 97.1706 83.7122C96.9424 84.1347 96.7008 84.5949 96.741 85.0686C96.8108 85.9621 97.6834 87.0952 96.8994 87.5123C97.6566 87.9752 98.411 88.4354 99.1682 88.8876C98.6097 89.2132 98.207 89.7919 98.0701 90.4297C97.9116 89.1809 96.4886 88.1071 95.267 88.5619C95.2455 87.8918 95.2214 87.2163 95.1999 86.5461C92.7728 86.6618 90.5711 88.675 90.2382 91.0891C90.0986 92.0929 90.2302 93.1856 89.6878 94.0361C89.175 94.8354 88.1064 95.6132 87.8889 96.3721C87.76 95.2041 88.0688 93.9796 88.7723 93.0403C88.3266 92.677 87.6365 92.9811 87.2607 93.4171C86.8875 93.8585 86.6646 94.429 86.227 94.7977C85.2765 95.6078 83.832 95.1557 82.5916 95.3172C82.3688 95.3468 82.1594 95.3898 81.9526 95.4544H81.9472C78.924 95.9631 69.4678 101.787 69.4678 101.787L69.4383 101.757C72.2279 99.739 74.4913 96.9831 75.8767 93.8262C73.3851 95.3871 69.7847 94.8435 67.8784 92.6043C69.1295 93.8073 71.213 93.4009 72.7407 92.5666C74.2658 91.7377 75.6753 90.54 77.399 90.314C78.4005 90.1848 79.4342 90.4028 80.4222 90.1767C82.1835 89.7757 83.3219 88.1098 84.2831 86.5704C84.5462 86.1505 84.8174 85.6634 84.6832 85.1924C84.4791 84.4657 83.4776 84.315 82.7876 84.6003C82.0976 84.8937 81.5418 85.4508 80.8491 85.7199C78.4596 86.6349 76.2633 83.7956 73.7261 83.4861C72.1152 83.2896 70.5901 84.1455 69.0946 84.7779C64.0175 86.9337 57.9738 86.6511 53.1168 84.0378C57.7026 86.4196 63.5879 86.0159 67.8086 83.042C69.1322 82.1081 70.2975 80.9455 71.707 80.1515C73.1112 79.3442 74.8833 78.9378 76.3439 79.6429C77.1869 80.0547 77.9467 80.8217 78.8811 80.7436C80.543 80.5983 80.7068 78.2649 81.4237 76.7524C82.2211 75.0488 84.0683 74.1714 85.5531 73.0222C87.0351 71.8623 88.2917 69.7953 87.3278 68.1805C86.4337 66.6815 84.3314 66.6465 82.5916 66.7111C80.8545 66.773 78.6905 66.4715 78.1078 64.8298C79.461 64.5096 80.8088 64.2108 82.1647 63.9309C80.8357 63.0509 79.5013 62.1681 78.1642 61.28C79.2113 61.7994 80.4706 61.3365 81.6304 61.4711C82.7876 61.6164 83.8428 63.2446 82.8413 63.8475C85.5531 64.5149 88.587 63.6914 90.5872 61.7375C92.5875 59.7863 93.4923 56.7747 92.9016 54.0349C93.393 53.241 94.7408 53.6931 95.114 54.5517C95.4845 55.4075 95.259 56.3845 95.2026 57.3264C95.1516 58.2549 95.3986 59.3665 96.2551 59.719C97.3961 60.1846 98.5131 58.9789 99.0071 57.8512C100.406 54.6782 100.256 50.8699 98.6151 47.8153C98.0459 46.7603 97.0659 45.6865 95.8819 45.8587C95.31 45.9448 94.8213 46.3135 94.3005 46.5854C92.1713 47.6565 89.2421 46.5854 88.3051 44.3865C88.0393 43.7541 87.8809 43.0086 87.309 42.6345C86.6351 42.1904 85.7437 42.4784 84.9946 42.7933C83.2333 43.5199 81.0397 44.2035 79.5765 42.979C79.0341 42.5188 78.6958 41.8648 78.2152 41.3346C76.121 39.0416 72.3863 40.0051 69.5001 41.1354C68.9013 41.3723 68.2489 41.6495 67.9643 42.2362C67.677 42.8148 68.0932 43.711 68.7241 43.5899C67.771 44.7822 65.9023 45.1078 64.5974 44.3058C65.07 42.5026 66.4259 40.9497 68.1549 40.2473C67.6072 39.6929 67.8918 38.6836 68.5174 38.2207C69.1457 37.7605 69.9699 37.6986 70.7405 37.6528C73.8254 37.4537 76.9131 37.2653 79.998 37.0742C80.339 37.0527 80.7149 37.05 80.9673 37.2788C81.2143 37.5129 81.2357 37.8897 81.3136 38.2207C81.668 39.7682 83.8401 40.5272 85.0805 39.5395C85.8189 38.9555 86.1384 37.992 86.7183 37.2438C87.2956 36.4983 88.4689 35.995 89.1455 36.6517C89.3576 34.6439 87.4754 32.6847 85.4698 32.8138C84.3824 32.8838 83.2709 33.4463 82.2641 33.048C81.0746 32.5636 80.7713 31.0672 80.2799 29.8776C79.4181 27.7757 77.45 26.1744 75.2269 25.7572C73.0039 25.332 70.5901 26.1098 69.0248 27.7488C69.1215 25.8702 70.6438 24.1639 72.491 23.8598C73.1649 23.1412 72.1554 22.0082 71.1862 21.8386C70.2223 21.6637 69.0732 21.801 68.4127 21.0716C70.8076 19.7798 73.8952 19.9063 76.1774 21.3865C77.4151 22.1858 78.4139 23.3431 79.7429 23.9755C81.0693 24.6134 82.9756 24.4761 83.6414 23.1681C82.9621 22.7537 82.3661 22.1804 81.9392 21.5049C84.1677 21.0043 86.619 21.6153 88.3534 23.1089C89.3898 24.0025 90.1791 25.1786 91.3122 25.9456C92.4479 26.7099 94.1716 26.9064 95.0549 25.8595C93.8762 25.8783 92.9446 24.8556 92.4398 23.7925C91.9324 22.7322 91.6666 21.5453 90.9658 20.6006C89.3925 18.5041 86.286 18.383 84.1784 16.8301C85.0993 16.8516 86.0927 16.9297 87.0861 17.0831C87.5882 17.2526 88.0957 17.4249 88.5816 17.6321C91.9592 19.0693 94.1259 22.3392 96.2497 25.3427C97.7237 27.4231 99.3051 29.4874 101.381 30.9649C101.448 31.0053 101.332 33.5593 101.399 33.9092C101.528 34.6278 101.751 35.3302 102.057 35.9977C102.43 37.8036 103.499 39.6041 103.926 41.8163C103.977 42.0962 104.801 43.816 104.847 44.0932C106.117 44.4942 106.431 44.8925 107.741 45.2074C109.768 45.7026 111.97 47.1694 111.857 49.2551C111.18 48.7869 110.235 49.6481 110.308 50.4636C110.388 51.2817 111.054 51.9007 111.701 52.4067C109.618 52.3932 108.087 49.7073 109.14 47.9068C108.181 47.7722 107.226 47.6511 106.264 47.5219C105.722 50.0733 105.292 53.0795 107.07 54.9904C108.211 56.2284 110.254 57.0304 110.217 58.7205C110.192 59.8805 109.105 60.8601 109.271 61.9986C109.419 63.0105 110.493 63.608 111.495 63.791C112.493 63.9713 113.548 63.9013 114.491 64.2781C115.063 64.5069 115.613 64.9079 116.223 64.8541C117.334 64.7356 118.338 63.1531 119.216 63.8502L119.211 63.8475Z" fill="url(#paint8_radial_206_17130)"/>
<path style="mix-blend-mode:multiply" opacity="0.27" d="M57.6919 31.8634C56.6529 34.5332 53.0658 34.7512 50.2145 35.0176C43.4915 35.6474 37.088 39.1461 32.9211 44.4749C30.6416 47.3896 28.9823 51.1306 29.7663 54.7477C31.2376 53.9699 32.7116 53.1921 34.1776 52.417C31.5169 54.3279 29.7529 57.4444 29.479 60.7198C32.1908 57.6274 36.3497 55.7489 40.428 56.2575C35.6811 56.9331 31.4632 60.4937 30.0026 65.0689C28.5393 69.6469 29.9059 75.0053 33.3829 78.3102C32.4781 78.3802 31.5544 78.033 30.9235 77.3817C31.1222 79.9439 33.654 81.7874 36.1805 82.1965C39.8723 82.7859 43.8325 80.8697 45.6636 77.6105C44.9601 81.2626 41.9208 84.3469 38.2855 85.0951C34.6501 85.8406 30.6416 84.2016 28.5662 81.1173C29.5247 84.4976 32.0055 87.4096 35.1791 88.8818C31.3746 87.6707 28.1044 84.8636 26.3108 81.2868C26.1363 82.9985 26.8183 84.6537 27.3472 86.2846C27.8681 87.921 28.2252 89.7645 27.46 91.2986C26.8962 92.4289 25.4812 93.1421 24.3187 92.9214C24.1925 92.8488 24.0716 92.7627 23.9535 92.6631C25.014 93.1529 26.437 92.3697 26.5928 91.2125C26.045 90.6634 25.5 90.1117 24.9523 89.56C25.2557 89.3447 25.4329 88.9598 25.398 88.5857C22.8903 87.2643 20.5276 85.6549 18.3823 83.7925C19.5019 84.2365 20.6511 84.5891 21.8298 84.8367C21.4995 84.1074 21.4243 83.265 21.6069 82.4899C20.0443 81.2492 18.1863 79.9385 16.2371 80.353C16.6774 79.6721 17.1097 78.9938 17.5473 78.3129C17.2198 78.216 17.3084 77.7316 17.2789 77.3898C17.2037 76.6228 16.264 76.3241 15.5041 76.2083C14.0972 75.9903 12.6877 75.7723 11.2781 75.5597C12.3413 75.1156 13.4099 74.6743 14.4731 74.2302C13.9899 73.2237 14.0865 71.9533 14.7121 71.0275C14.0033 71.0006 13.2891 70.9791 12.5803 70.9549C13.0824 69.7626 13.5066 68.5407 13.8583 67.3C13.3186 67.4158 12.7494 67.3862 12.2232 67.2032C12.6662 65.9705 13.1361 64.7487 13.6354 63.5376C13.5791 63.2361 13.528 62.9374 13.4663 62.6414L13.1199 63.3115C12.8353 62.1166 12.5991 60.9162 12.4031 59.6863C11.1063 57.2722 8.89123 55.1649 6.60638 53.8165C7.88171 54.1529 9.15972 54.4974 10.4377 54.8419C7.70451 49.0017 7.58906 41.9881 10.1263 36.0672C9.84169 37.203 10.2605 38.5002 11.16 39.2484C11.654 38.5729 12.1212 37.8812 12.5588 37.1707C12.6689 37.0523 12.7843 36.9123 12.9052 36.7454C14.3013 34.8319 15.2276 32.617 16.1378 30.4397C16.8278 28.7818 17.5312 27.0836 17.6601 25.2912C17.7219 24.3654 17.6333 23.4395 17.5796 22.5137C17.7192 21.2004 17.7809 19.8762 17.7675 18.5548C17.9581 17.0073 18.1595 15.4705 17.8293 13.958C18.0091 14.1652 18.1863 14.3725 18.3662 14.5851C19.5879 19.1253 19.6335 24.1474 19.5556 28.9056C20.0765 28.7845 20.4255 28.1763 20.2698 27.6622C21.7358 28.2113 22.2916 30.0575 22.1251 31.6212C21.9506 33.1848 21.2713 34.6543 21.1048 36.2206C20.9384 37.7843 21.5049 39.6305 22.9789 40.1634C22.2137 37.3079 23.8032 34.3798 25.5215 31.971C27.2398 29.5677 29.2293 27.0971 29.4146 24.1447C30.8107 25.275 30.7141 27.4227 30.3087 29.1801C29.8979 30.9322 29.326 32.8565 30.1502 34.4578C32.2847 30.9726 35.4744 28.144 39.1876 26.4484C36.1215 30.0225 33.9977 34.3959 33.0768 39.0142C37.0451 35.9892 42.0121 34.299 47.0007 34.2802C50.8052 34.264 55.3802 34.883 57.6919 31.858V31.8634Z" fill="url(#paint9_radial_206_17130)"/>
<path style="mix-blend-mode:lighten" d="M0.210938 55.3588C1.48626 55.2538 1.07547 52.3042 2.36154 52.4253C2.59513 52.4441 2.80186 52.5921 3.01934 52.6917C3.94831 53.1358 5.13504 52.7724 5.66933 51.8789C6.02105 51.2868 6.09892 50.536 6.46406 49.9546C6.82921 49.3679 7.74476 49.0692 8.13675 49.664C8.58782 48.5982 8.59319 47.3171 8.15286 46.2191C8.91537 46.7977 9.71816 45.6108 9.94369 44.6608C10.1934 43.6354 10.4404 42.6073 10.6874 41.5792C11.0257 40.1851 11.3613 38.791 11.6969 37.3942C11.7802 37.0524 11.8607 36.681 11.7506 36.3446C11.5466 35.7121 10.7599 35.0366 11.2163 34.606C10.623 34.3961 10.0323 34.1889 9.43893 33.987C9.76112 33.6614 9.93295 33.1769 9.91416 32.6952C10.239 33.5699 11.3908 34.1108 12.1399 33.5806C12.2715 34.0597 12.4031 34.5441 12.5346 35.0232C14.159 34.5414 15.3027 32.7248 15.1067 30.927C15.0262 30.1788 14.747 29.4118 14.9671 28.7093C15.1739 28.0473 15.7645 27.3098 15.7807 26.7285C16.0706 27.5494 16.0733 28.4859 15.7619 29.2799C16.127 29.4683 16.5405 29.1372 16.7204 28.7605C16.8976 28.381 16.9486 27.9342 17.1822 27.5924C17.6842 26.8523 18.7421 26.9411 19.5556 26.6209C19.7006 26.5643 19.8348 26.4971 19.9637 26.4163C21.9237 25.5524 27.3203 19.793 27.3203 19.793L27.3445 19.8091C25.8061 21.7253 24.7509 24.0856 24.3616 26.5939C25.7765 25.0572 28.3138 24.858 29.9972 26.1606C28.9393 25.4959 27.5969 26.1337 26.7082 26.9869C25.8195 27.8373 25.0731 28.9327 23.9427 29.3768C23.2849 29.6351 22.5466 29.6486 21.9183 29.9716C20.7934 30.5502 20.3128 31.9389 19.9288 33.2092C19.8241 33.5537 19.7221 33.952 19.8993 34.2696C20.1624 34.7594 20.8685 34.7056 21.2874 34.3853C21.7062 34.0597 21.9828 33.5672 22.407 33.2577C23.8676 32.2054 25.8517 33.8955 27.6237 33.699C28.7487 33.5752 29.6347 32.7086 30.5395 32.0035C33.6057 29.6136 37.7512 28.8251 41.4993 29.9123C37.9767 28.9462 34.0567 30.2057 31.7128 33.045C30.9799 33.9359 30.3892 34.9667 29.5757 35.774C28.7648 36.5868 27.6345 37.1708 26.5202 36.9017C25.8786 36.7429 25.2288 36.315 24.6086 36.5249C23.5078 36.9017 23.8031 38.6134 23.5803 39.8245C23.336 41.1836 22.2378 42.1229 21.4297 43.194C20.6269 44.2733 20.1356 45.9715 21.0699 46.978C21.9371 47.9146 23.3682 47.5917 24.5361 47.2606C25.7013 46.9296 27.221 46.795 27.903 47.8823C27.0411 48.3345 26.1793 48.7731 25.3094 49.1984C26.3645 49.6155 27.4224 50.0327 28.4829 50.4552C27.6828 50.2534 26.9096 50.7943 26.1014 50.8858C25.2932 50.972 24.2918 49.9681 24.8663 49.3679C22.9117 49.3329 21.0001 50.4229 19.9825 52.1642C18.9676 53.9028 18.879 56.2227 19.757 58.104C19.561 58.7553 18.5703 58.653 18.1675 58.0932C17.7675 57.5361 17.7514 56.7933 17.6252 56.1043C17.499 55.4261 17.1365 54.6644 16.4948 54.5514C15.641 54.4007 15.0933 55.4557 14.9537 56.3492C14.5563 58.871 15.3215 61.5919 16.9674 63.5297C17.5366 64.1971 18.3877 64.8134 19.1609 64.4932C19.5341 64.3371 19.7999 63.9899 20.106 63.71C21.3626 62.5877 23.5346 62.8784 24.5522 64.3128C24.8422 64.7273 25.0811 65.2387 25.5322 65.4136C26.0665 65.6235 26.6223 65.2683 27.0733 64.9184C28.1419 64.1056 29.5112 63.2498 30.7167 63.893C31.1651 64.1352 31.5061 64.5524 31.9249 64.8565C33.7426 66.1672 36.108 64.8565 37.8693 63.5673C38.2344 63.2982 38.6291 62.9887 38.7204 62.5204C38.8144 62.0548 38.3767 61.4789 37.9686 61.6673C38.4063 60.65 39.6172 60.109 40.6401 60.4723C40.6347 61.853 39.985 63.1933 38.9352 63.9872C39.4024 64.2994 39.3863 65.0718 39.0426 65.5078C38.6963 65.9438 38.1485 66.1241 37.633 66.2829C35.5764 66.9342 33.5171 67.5774 31.4578 68.2206C31.2322 68.2933 30.9772 68.3552 30.7651 68.2314C30.5556 68.1049 30.4751 67.8358 30.3677 67.6097C29.8576 66.552 28.252 66.3582 27.5835 67.276C27.1834 67.8196 27.1378 68.5678 26.8746 69.203C26.6142 69.8354 25.9054 70.3925 25.3335 70.0292C25.5403 71.5121 27.1566 72.6183 28.4936 72.193C29.2186 71.9643 29.8737 71.3749 30.6254 71.4987C31.5168 71.6521 31.9813 72.6829 32.521 73.4607C33.4714 74.8386 35.0851 75.6675 36.6638 75.6056C38.2452 75.5464 39.746 74.5883 40.522 73.1485C40.7824 74.5183 40.0494 76.0013 38.8493 76.5234C38.519 77.1532 39.3997 77.8045 40.087 77.7668C40.7717 77.7345 41.5261 77.4465 42.1007 77.8637C40.7019 79.1905 38.5862 79.6076 36.7819 78.9133C35.8046 78.5392 34.9267 77.869 33.9144 77.6295C32.9049 77.3873 31.635 77.7991 31.4121 78.8514C31.9437 79.0398 32.4485 79.3573 32.8566 79.7718C31.4336 80.4985 29.6643 80.4608 28.2305 79.6695C27.374 79.1959 26.633 78.4746 25.7309 78.1086C24.8288 77.7452 23.6259 77.8852 23.2098 78.7841C24.0045 78.5769 24.8153 79.1636 25.3416 79.8472C25.8678 80.5281 26.2571 81.3435 26.8961 81.9087C28.3272 83.1629 30.4563 82.7403 32.1532 83.5154C31.5249 83.65 30.8376 83.7577 30.1395 83.8115C29.769 83.7711 29.3958 83.7307 29.0306 83.6608C26.4907 83.179 24.4529 81.174 22.4902 79.3547C21.129 78.0951 19.6979 76.8652 18.0333 76.1412C17.9823 76.1224 17.6144 74.26 17.507 74.0204C17.2949 73.5226 17.0211 73.0516 16.6989 72.621C16.1324 71.3776 15.0933 70.2553 14.4194 68.7293C14.3362 68.5355 13.477 67.4294 13.3992 67.2356C12.4675 67.1549 12.1856 66.918 11.2432 66.9073C9.78259 66.8831 8.03473 66.186 7.74744 64.6627C8.28711 64.8888 8.77844 64.1137 8.58782 63.5377C8.39182 62.9618 7.83068 62.6227 7.30444 62.3643C8.71938 62.0333 10.2229 63.7181 9.82287 65.1902C10.4941 65.1283 11.1653 65.061 11.8392 64.9964C11.764 63.0668 11.5305 60.8249 9.99202 59.7376C9.00129 59.0325 7.47895 58.7876 7.20778 57.563C7.02252 56.7233 7.58903 55.8352 7.27759 55.0412C7.00104 54.3361 6.16872 54.0804 5.45723 54.1127C4.74841 54.145 4.04497 54.3711 3.34153 54.2527C2.91194 54.18 2.46894 53.9835 2.0662 54.1235C1.33322 54.3926 0.927805 55.6979 0.213622 55.34L0.210938 55.3588Z" fill="url(#paint10_radial_206_17130)"/>
</g>
<defs>
<radialGradient id="paint0_radial_206_17130" cx="0" cy="0" r="1" gradientUnits="userSpaceOnUse" gradientTransform="translate(57.4569 52.3366) rotate(-81.6697) scale(50.2391 50.1242)">
<stop stop-color="#FAA54A"/>
<stop offset="0.39" stop-color="#DB8224"/>
<stop offset="0.73" stop-color="#C66A09"/>
<stop offset="0.93" stop-color="#BF6200"/>
</radialGradient>
<radialGradient id="paint1_radial_206_17130" cx="0" cy="0" r="1" gradientUnits="userSpaceOnUse" gradientTransform="translate(52.0596 32.2994) rotate(-81.6697) scale(74.7205 74.5496)">
<stop stop-color="#FAA54A"/>
<stop offset="0.39" stop-color="#DB8224"/>
<stop offset="0.73" stop-color="#C66A09"/>
<stop offset="0.93" stop-color="#BF6200"/>
</radialGradient>
<radialGradient id="paint2_radial_206_17130" cx="0" cy="0" r="1" gradientUnits="userSpaceOnUse" gradientTransform="translate(57.5077 53.7568) scale(41.8369 41.9371)">
<stop stop-color="#FAA54A"/>
<stop offset="0.39" stop-color="#DB8224"/>
<stop offset="0.73" stop-color="#C66A09"/>
<stop offset="0.93" stop-color="#BF6200"/>
</radialGradient>
<radialGradient id="paint3_radial_206_17130" cx="0" cy="0" r="1" gradientUnits="userSpaceOnUse" gradientTransform="translate(58.3285 52.8409) rotate(-81.6697) scale(42.0413 41.9451)">
<stop stop-color="#FAA54A"/>
<stop offset="0.39" stop-color="#DB8224"/>
<stop offset="0.73" stop-color="#C66A09"/>
<stop offset="0.93" stop-color="#BF6200"/>
</radialGradient>
<radialGradient id="paint4_radial_206_17130" cx="0" cy="0" r="1" gradientUnits="userSpaceOnUse" gradientTransform="translate(-3.89259 40.4077) rotate(-81.6697) scale(61.5884 61.4475)">
<stop stop-color="#FAA54A"/>
<stop offset="0.39" stop-color="#DB8224"/>
<stop offset="0.73" stop-color="#C66A09"/>
<stop offset="0.93" stop-color="#BF6200"/>
</radialGradient>
<radialGradient id="paint5_radial_206_17130" cx="0" cy="0" r="1" gradientUnits="userSpaceOnUse" gradientTransform="translate(56.0492 52.7177) rotate(-81.6697) scale(49.3575 49.2446)">
<stop stop-color="#FAC920"/>
<stop offset="0.17" stop-color="#FAB018"/>
<stop offset="0.5" stop-color="#FA860B"/>
<stop offset="0.76" stop-color="#FA6B03"/>
<stop offset="0.92" stop-color="#FA6200"/>
</radialGradient>
<radialGradient id="paint6_radial_206_17130" cx="0" cy="0" r="1" gradientUnits="userSpaceOnUse" gradientTransform="translate(57.2982 50.9771) scale(49.2477 49.3656)">
<stop offset="0.58"/>
<stop offset="0.62" stop-color="#231E00"/>
<stop offset="0.71" stop-color="#6E6000"/>
<stop offset="0.79" stop-color="#AA9300"/>
<stop offset="0.86" stop-color="#D5B900"/>
<stop offset="0.91" stop-color="#F0D000"/>
<stop offset="0.94" stop-color="#FAD900"/>
</radialGradient>
<radialGradient id="paint7_radial_206_17130" cx="0" cy="0" r="1" gradientUnits="userSpaceOnUse" gradientTransform="translate(61.2801 45.5864) scale(148.988 149.345)">
<stop stop-color="#FAA54A"/>
<stop offset="0.39" stop-color="#DB8224"/>
<stop offset="0.73" stop-color="#C66A09"/>
<stop offset="0.93" stop-color="#BF6200"/>
</radialGradient>
<radialGradient id="paint8_radial_206_17130" cx="0" cy="0" r="1" gradientUnits="userSpaceOnUse" gradientTransform="translate(78.9916 37.6907) scale(105.161 105.412)">
<stop stop-color="#FAD12F"/>
<stop offset="0.15" stop-color="#F6CE2E"/>
<stop offset="0.28" stop-color="#ECC52C"/>
<stop offset="0.4" stop-color="#DAB629"/>
<stop offset="0.52" stop-color="#C1A224"/>
<stop offset="0.63" stop-color="#A2871E"/>
<stop offset="0.74" stop-color="#7A6617"/>
<stop offset="0.85" stop-color="#4C3F0E"/>
<stop offset="0.95" stop-color="#171404"/>
<stop offset="0.99"/>
</radialGradient>
<radialGradient id="paint9_radial_206_17130" cx="0" cy="0" r="1" gradientUnits="userSpaceOnUse" gradientTransform="translate(32.1398 53.4486) scale(33.1976 33.277)">
<stop stop-color="#FAA54A"/>
<stop offset="0.39" stop-color="#DB8224"/>
<stop offset="0.73" stop-color="#C66A09"/>
<stop offset="0.93" stop-color="#BF6200"/>
</radialGradient>
<radialGradient id="paint10_radial_206_17130" cx="0" cy="0" r="1" gradientUnits="userSpaceOnUse" gradientTransform="translate(33.3514 67.074) rotate(166.379) scale(73.8244 78.0353)">
<stop stop-color="#FAD12F"/>
<stop offset="0.15" stop-color="#F6CE2E"/>
<stop offset="0.28" stop-color="#ECC52C"/>
<stop offset="0.4" stop-color="#DAB629"/>
<stop offset="0.52" stop-color="#C1A224"/>
<stop offset="0.63" stop-color="#A2871E"/>
<stop offset="0.74" stop-color="#7A6617"/>
<stop offset="0.85" stop-color="#4C3F0E"/>
<stop offset="0.95" stop-color="#171404"/>
<stop offset="0.99"/>
</radialGradient>
<clipPath id="clip0_206_17130">
<rect width="119" height="101" fill="white" transform="translate(0.210938 0.787109)"/>
</clipPath>
</defs>
</svg>
