<svg width="139" height="79" viewBox="0 0 139 79" fill="none" xmlns="http://www.w3.org/2000/svg">
<path d="M104.821 27.1027C105.257 28.3857 105.622 29.6824 105.922 30.9723C106.348 32.839 106.634 34.708 106.787 36.5701C106.805 36.8124 106.824 37.05 106.835 37.29C107.214 43.3539 106.155 49.3255 103.873 54.7756C99.703 64.7552 91.424 72.9673 80.3737 76.7238C79.0631 77.1691 77.7456 77.5406 76.4281 77.8383C67.1499 79.9542 57.7379 78.549 49.7427 74.3887C48.0606 73.5165 46.45 72.5266 44.9133 71.4191C41.5583 69.0032 38.5702 66.0474 36.0943 62.6301C34.966 61.0657 33.9438 59.4066 33.0416 57.6599C32.1579 55.9478 31.3918 54.1503 30.7527 52.2744C29.8712 49.6808 29.2736 47.055 28.9598 44.4361C28.6529 41.9948 28.5883 39.5582 28.7475 37.1562C28.909 34.6849 29.3059 32.246 29.922 29.8809C33.1201 17.5685 42.2552 7.05357 55.2021 2.65332C63.7534 -0.254033 72.6139 -0.0279057 80.5376 2.711C86.1054 4.62847 91.214 7.79886 95.4227 11.9984C95.8265 12.3999 96.2211 12.8106 96.6018 13.2328C98.0786 14.8296 99.4261 16.5648 100.626 18.4222C102.34 21.0758 103.762 23.9785 104.823 27.1027H104.821Z" fill="#D0C381"/>
<path d="M96.5994 13.2329C96.5555 13.3067 96.514 13.3736 96.4679 13.4452C89.9702 24.0316 78.2069 30.3309 66.2868 33.8312C63.5317 34.6457 60.7167 35.3426 58.1001 36.5263C52.7653 38.9491 48.2105 43.407 42.4004 44.1408C38.7524 44.5976 35.0536 43.5062 31.4009 43.9169C30.9787 43.9677 30.0926 44.1754 28.9574 44.4361C28.6505 41.9949 28.5859 39.5582 28.7451 37.1562C30.1018 36.4917 31.3963 35.6933 32.5985 34.7796C34.1237 33.6189 35.5889 32.2322 37.4556 31.8238C39.32 31.4107 41.6943 32.5414 41.7059 34.4565C40.2083 34.3504 38.6024 34.265 37.301 35.0241C36.0065 35.7879 35.3235 37.7492 36.3688 38.8314C37.2225 39.7082 38.6485 39.5536 39.853 39.3298C44.8439 38.4045 50.1302 37.3408 53.806 33.8451C56.1826 31.5884 57.837 28.3695 60.8805 27.172C62.9295 26.3598 65.2185 26.6436 67.4267 26.6413C72.2538 26.6298 77.0694 25.1438 81.0635 22.4302C81.9727 21.8142 82.8472 21.1266 83.8394 20.6512C84.7323 20.2267 85.6991 19.9798 86.6198 19.636C90.3832 18.2354 93.2029 15.3995 95.418 11.9961C95.8218 12.3976 96.2164 12.8083 96.5971 13.2306L96.5994 13.2329Z" fill="#8A8606"/>
<path d="M104.821 27.1024C105.257 28.3853 105.621 29.6821 105.921 30.9719C103.519 33.7478 98.067 34.2739 97.6586 37.9842C97.5893 38.6164 97.7001 39.251 97.6309 39.8832C97.4486 41.6022 96.0387 42.9059 94.6658 43.9696C89.8087 47.7307 84.2732 50.6196 78.41 52.4563C75.4012 53.3978 72.2815 54.0761 69.4734 55.5044C65.3547 57.5996 61.9558 61.2776 57.4241 62.1913C53.7922 62.9205 50.0842 61.7345 46.3992 61.3814C42.9242 61.0538 39.3847 61.4876 36.092 62.6297C34.9636 61.0653 33.9414 59.4063 33.0392 57.6596C33.833 57.535 34.5737 57.4473 35.1944 57.3619C41.316 56.522 47.9983 57.1612 53.5222 53.8985C56.2219 52.3087 58.4416 49.8443 61.4136 48.8498C63.6218 48.1115 66.01 48.2661 68.3428 48.2176C72.8284 48.1253 77.2956 47.2162 81.4697 45.5548C85.4062 43.9835 89.3242 41.4545 90.7986 37.4858C91.0363 36.8535 91.2093 36.1867 91.6223 35.6583C92.0146 35.1576 92.5753 34.8299 93.0414 34.41C95.3996 32.2733 94.855 28.4684 96.0318 25.5149C97.0563 22.9329 99.4514 20.8216 100.626 18.4219C102.34 21.0754 103.762 23.9781 104.823 27.1024H104.821Z" fill="#725E1D"/>
<path d="M106.784 36.5697C106.803 36.812 106.821 37.0496 106.833 37.2896C103.778 40.67 102.114 45.3817 99.749 49.4082C96.221 55.419 90.7316 60.26 84.3239 62.9989C79.566 65.0386 74.169 66.0493 70.3617 69.552C68.345 71.414 66.7275 73.9937 64.0763 74.7206C61.6812 75.3851 59.1984 74.3029 56.7549 73.8691C54.4221 73.4515 51.9924 73.643 49.7403 74.386C48.0582 73.5138 46.4476 72.5239 44.9109 71.4164C47.6636 70.528 50.6517 70.1196 52.5854 70.2857C55.1466 70.5003 57.694 71.4971 60.216 71.0172C63.1833 70.4542 65.3639 68.0152 67.7797 66.197C74.5266 61.1391 83.8924 60.6176 90.547 55.4444C97.1117 50.3311 100.236 41.2976 106.784 36.5674V36.5697Z" fill="#8A8606"/>
<path d="M103.87 54.7754C99.7006 64.755 91.4216 72.9671 80.3713 76.7236C79.0607 77.1689 77.7432 77.5404 76.4257 77.8381C76.1372 76.5321 76.4349 75.203 77.674 74.04C79.4876 72.3464 82.5311 72.0718 84.5385 70.542C86.4929 69.0606 87.5982 66.5917 89.8202 65.438C90.8816 64.8911 92.093 64.7227 93.2098 64.3073C95.3903 63.4905 97.084 61.7692 98.7015 60.0986C100.423 58.3242 102.146 56.5498 103.868 54.7754H103.87Z" fill="#725E1D"/>
<path d="M80.5351 2.71082C80.2098 4.60291 79.3307 6.51807 78.26 8.09865C76.121 11.2714 73.2321 14.0795 69.628 15.3693C66.4114 16.5207 62.9041 16.3846 59.5238 16.8784C56.148 17.3699 52.5484 18.7543 50.9886 21.7909C52.8392 24.7975 51.6785 29.2462 48.5912 30.9606C49.1081 28.0486 46.5422 25.2728 43.6579 24.629C40.7714 23.9852 37.7671 24.9728 35.1159 26.2811C33.8237 26.9157 31.897 28.6162 29.9196 29.8784C30.1964 28.817 30.5172 27.7671 30.8864 26.7311C34.7259 15.7962 43.3718 6.67036 55.202 2.65083C57.2671 1.94937 59.3461 1.43251 61.4251 1.0864H61.4297C67.9712 -0.00270271 74.5243 0.62953 80.5351 2.70852V2.71082Z" fill="#8A8606"/>
<path d="M61.4229 1.08887C60.6268 1.76494 59.5008 2.02106 58.4694 2.30719C53.5569 3.68702 49.2166 7.00509 46.5954 11.3869C46.2054 12.033 45.8547 12.7044 45.384 13.2997C44.5718 14.3242 43.4527 15.0511 42.3359 15.7271C41.8421 16.0294 41.2052 16.3248 40.723 16.0156C41.1522 16.4771 41.2214 17.19 41.0437 17.7969C40.873 18.4014 40.4876 18.9252 40.0977 19.4167C38.8078 21.0319 37.3265 22.4925 35.6997 23.757C34.4353 24.7307 32.5501 26.3297 30.8842 26.7335C34.7237 15.7987 43.3696 6.67282 55.1998 2.6533C57.2649 1.95184 59.3439 1.43498 61.4229 1.08887Z" fill="#B2A455"/>
<path style="mix-blend-mode:multiply" opacity="0.3" d="M104.821 27.102C105.257 28.3849 105.622 29.6817 105.922 30.9715C106.349 32.8383 106.635 34.7073 106.787 36.5694C106.805 36.8116 106.824 37.0493 106.835 37.2893C107.214 43.3532 106.155 49.3248 103.873 54.7749C99.7031 64.7545 91.4241 72.9666 80.3739 76.7231C79.0633 77.1684 77.7457 77.5399 76.4282 77.8376C68.1515 79.7227 59.7686 78.809 52.3826 75.6363C55.4491 75.6847 58.5549 75.3709 61.6446 74.6695C62.9644 74.3718 64.2819 74.0003 65.5902 73.555C76.6405 69.7985 84.9195 61.5864 89.089 51.6068C91.3711 46.1567 92.4325 40.1851 92.0541 34.1212C92.0425 33.8812 92.0241 33.6435 92.0056 33.4013C91.8533 31.5392 91.5672 29.6702 91.1426 27.8035C90.8427 26.5136 90.4781 25.2168 90.042 23.9339C88.9806 20.8097 87.5592 17.9069 85.8448 15.2534C84.6449 13.3936 83.2974 11.6608 81.8206 10.064C81.4399 9.64176 81.0453 9.23104 80.6416 8.82955C77.1089 5.31073 72.9509 2.50952 68.4122 0.571289C72.5817 0.638204 76.6682 1.37196 80.54 2.71257C86.1078 4.63004 91.2165 7.80044 95.4252 11.9999C95.829 12.4014 96.2236 12.8122 96.6043 13.2344C98.081 14.8311 99.4286 16.5663 100.628 18.4238C102.343 21.0773 103.764 23.9801 104.826 27.1043L104.821 27.102Z" fill="url(#paint0_radial_206_17148)"/>
<path d="M138.553 18.6898C136.961 14.0034 122.025 14.5041 101.053 19.1328C101.129 19.2574 101.205 19.3843 101.281 19.5112C121.144 15.2217 135.212 14.8271 136.735 19.3081C138.311 23.9461 126.206 32.9819 106.817 42.2485C97.331 46.7803 86.1031 51.3674 73.8784 55.5231C61.0952 59.868 48.8867 63.1722 38.2702 65.3619C17.9834 69.543 3.51357 69.6445 1.97221 65.1081C0.483924 60.7287 11.3219 52.7473 28.9436 44.2698C28.9252 44.1198 28.916 43.9699 28.8975 43.8222C10.1774 52.7127 -1.40816 61.1417 0.149348 65.7242C1.76223 70.4683 17.1481 70.2629 38.5933 65.7242C49.2189 63.4745 61.3283 60.1633 73.9914 55.86C86.1008 51.7459 97.2548 47.2187 106.775 42.7285C127.3 33.0465 140.203 23.5353 138.555 18.6898H138.553Z" fill="#E9E8CC"/>
<path d="M135.193 19.8294C133.728 15.5191 120.396 15.8214 101.473 19.8294C102.188 21.0477 102.841 22.3144 103.432 23.6274C111.155 22.3583 116.123 22.4367 116.713 24.1719C117.309 25.9279 113.326 29.066 106.291 32.8178C97.9909 37.2435 85.4455 42.5205 71.1118 47.3915C56.0512 52.5093 42.2782 56.072 32.954 57.4911C25.8817 58.5686 21.3661 58.414 20.8031 56.7642C20.2493 55.1329 23.6458 52.3086 29.7766 48.9052C29.4305 47.4861 29.1629 46.0647 28.9829 44.6434C12.2864 52.7678 2.07836 60.373 3.50896 64.5818C4.9834 68.922 18.4634 68.5898 37.5619 64.5195C48.1737 62.2582 60.5184 58.8409 73.5046 54.4268C85.9277 50.2042 97.331 45.6171 106.868 41.1384C125.246 32.5063 136.702 24.2758 135.193 19.8294Z" fill="#E9E8CC"/>
<g style="mix-blend-mode:multiply" opacity="0.2">
<path d="M138.553 18.6898C136.961 14.0034 122.025 14.5041 101.053 19.1328C101.129 19.2574 101.205 19.3843 101.281 19.5112C121.144 15.2217 135.212 14.8271 136.735 19.3081C138.311 23.9461 126.206 32.9819 106.817 42.2485C97.331 46.7803 86.1031 51.3674 73.8784 55.5231C61.0952 59.868 48.8867 63.1722 38.2702 65.3619C17.9834 69.543 3.51357 69.6445 1.97221 65.1081C0.483924 60.7287 11.3219 52.7473 28.9436 44.2698C28.9252 44.1198 28.916 43.9699 28.8975 43.8222C10.1774 52.7127 -1.40816 61.1417 0.149348 65.7242C1.76223 70.4683 17.1481 70.2629 38.5933 65.7242C49.2189 63.4745 61.3283 60.1633 73.9914 55.86C86.1008 51.7459 97.2548 47.2187 106.775 42.7285C127.3 33.0465 140.203 23.5353 138.555 18.6898H138.553Z" fill="url(#paint1_linear_206_17148)"/>
<path d="M135.193 19.8294C133.728 15.5191 120.396 15.8214 101.473 19.8294C102.188 21.0477 102.841 22.3144 103.432 23.6274C111.155 22.3583 116.123 22.4367 116.713 24.1719C117.309 25.9279 113.326 29.066 106.291 32.8178C97.9909 37.2435 85.4455 42.5205 71.1118 47.3915C56.0512 52.5093 42.2782 56.072 32.954 57.4911C25.8817 58.5686 21.3661 58.414 20.8031 56.7642C20.2493 55.1329 23.6458 52.3086 29.7766 48.9052C29.4305 47.4861 29.1629 46.0647 28.9829 44.6434C12.2864 52.7678 2.07836 60.373 3.50896 64.5818C4.9834 68.922 18.4634 68.5898 37.5619 64.5195C48.1737 62.2582 60.5184 58.8409 73.5046 54.4268C85.9277 50.2042 97.331 45.6171 106.868 41.1384C125.246 32.5063 136.702 24.2758 135.193 19.8294Z" fill="url(#paint2_linear_206_17148)"/>
</g>
<g style="mix-blend-mode:lighten" opacity="0.11">
<path d="M38.614 23.2676C37.8848 24.7328 37.3564 28.0462 37.038 29.3961C36.205 32.9218 36.122 37.6359 40.483 37.3751C46.1639 37.0382 50.2111 33.8102 51.9186 31.5535C53.9099 28.9184 56.485 25.0004 57.3618 19.2319C57.8394 16.0799 57.2603 13.4356 55.8435 11.8043C53.2269 8.79541 49.8904 10.4014 46.2954 13.2003C42.4305 16.2068 40.3538 19.7695 38.6186 23.2652L38.614 23.2676Z" fill="#F6F6F6"/>
</g>
<g style="mix-blend-mode:lighten" opacity="0.11">
<path d="M41.8006 20.8355C40.1393 25.3765 41.6829 28.66 44.7287 29.2068C47.7768 29.7537 51.3395 27.497 53.31 23.1775C55.2806 18.858 54.7452 13.9548 51.3879 13.1841C48.033 12.4134 43.4596 16.2945 41.7983 20.8355H41.8006Z" fill="#F6F6F6"/>
</g>
<g style="mix-blend-mode:lighten" opacity="0.21">
<path d="M43.6923 19.3036C42.594 22.1302 43.4385 24.3684 45.3675 24.6891C47.2942 25.0098 49.6547 23.3508 50.8777 20.6096C52.1006 17.8707 51.6391 15.021 49.5878 14.6126C47.5365 14.2065 44.7907 16.477 43.6923 19.3036Z" fill="#F6F6F6"/>
</g>
<defs>
<radialGradient id="paint0_radial_206_17148" cx="0" cy="0" r="1" gradientUnits="userSpaceOnUse" gradientTransform="translate(51.8907 22.8065) rotate(-18.77) scale(88.4416 88.4416)">
<stop offset="0.07" stop-color="#FAFAFA"/>
<stop offset="0.86" stop-color="#0C0000"/>
</radialGradient>
<linearGradient id="paint1_linear_206_17148" x1="69.8058" y1="68.2001" x2="68.9012" y2="16.4331" gradientUnits="userSpaceOnUse">
<stop stop-color="#2D1010"/>
<stop offset="0.04" stop-color="#574040"/>
<stop offset="0.06" stop-color="#7E6C6C"/>
<stop offset="0.09" stop-color="#9F9292"/>
<stop offset="0.13" stop-color="#BBB2B2"/>
<stop offset="0.16" stop-color="#D2CDCD"/>
<stop offset="0.2" stop-color="#E4E1E1"/>
<stop offset="0.24" stop-color="#F0EFEF"/>
<stop offset="0.3" stop-color="#F7F7F7"/>
<stop offset="0.39" stop-color="#FAFAFA"/>
<stop offset="1" stop-color="#0C0000"/>
</linearGradient>
<linearGradient id="paint2_linear_206_17148" x1="69.7781" y1="66.7323" x2="68.922" y2="17.6835" gradientUnits="userSpaceOnUse">
<stop stop-color="#2D1010"/>
<stop offset="0.04" stop-color="#574040"/>
<stop offset="0.06" stop-color="#7E6C6C"/>
<stop offset="0.09" stop-color="#9F9292"/>
<stop offset="0.13" stop-color="#BBB2B2"/>
<stop offset="0.16" stop-color="#D2CDCD"/>
<stop offset="0.2" stop-color="#E4E1E1"/>
<stop offset="0.24" stop-color="#F0EFEF"/>
<stop offset="0.3" stop-color="#F7F7F7"/>
<stop offset="0.39" stop-color="#FAFAFA"/>
<stop offset="1" stop-color="#0C0000"/>
</linearGradient>
</defs>
</svg>
