<svg width="83" height="89" viewBox="0 0 83 89" fill="none" xmlns="http://www.w3.org/2000/svg">
<path d="M82.4205 47.4321C82.4205 70.1768 63.9832 88.6141 41.2386 88.6141C32.7102 88.6141 24.7857 86.019 18.2152 81.5723C16.3768 80.3179 14.6379 78.9308 13.0251 77.411C5.04759 69.9046 0.0699158 59.2591 0.0699158 47.4321C0.0699158 24.6941 18.5072 6.25684 41.2452 6.25684C51.4063 6.25684 60.6913 9.92704 67.8724 16.0263C68.9144 16.9091 69.9232 17.8515 70.8723 18.8404C71.4165 19.4045 71.9475 19.9753 72.4585 20.566L72.5315 20.6456C73.1687 21.3956 73.7859 22.1655 74.3633 22.9553C79.4339 29.7979 82.4338 38.2666 82.4338 47.4255L82.4205 47.4321Z" fill="url(#paint0_linear_206_16567)"/>
<path opacity="0.5" d="M82.4204 47.4321C82.4204 70.1768 63.9831 88.6141 41.2385 88.6141C32.7101 88.6141 24.7856 86.019 18.2151 81.5723H18.2217C18.2217 81.5723 19.3035 76.8535 25.0378 73.8403C30.7787 70.8272 24.2082 65.677 22.6021 63.062C20.9959 60.4471 24.2746 57.414 28.9669 60.9183C33.6525 64.4226 28.5886 52.7417 34.502 46.2176C40.4155 39.6869 44.0326 53.6974 46.5082 56.3057C48.9837 58.9073 55.2091 63.9315 60.3726 58.5689C65.5295 53.2195 62.1978 31.3775 65.7419 25.2185C68.6621 20.128 70.3612 19.0594 70.8589 18.847C70.9651 18.8006 71.0182 18.7939 71.0182 18.7939L72.4385 20.5793L72.5115 20.6589L74.3433 22.9685C79.4139 29.8112 82.4138 38.2799 82.4138 47.4388L82.4204 47.4321Z" fill="#C60000"/>
<path opacity="0.58" d="M15.4209 70.5956C16.9474 72.7924 17.5182 75.0357 16.6819 75.6197C15.8523 76.1971 13.9409 74.8896 12.4078 72.6928C10.8813 70.496 10.3105 68.2461 11.1467 67.6687C11.9764 67.0913 13.8878 68.3988 15.4209 70.5956Z" fill="url(#paint1_linear_206_16567)"/>
<path opacity="0.58" d="M77.2172 58.4498C75.5779 62.8766 72.6112 65.8566 70.5936 65.1133C68.5759 64.3633 68.2706 60.1688 69.91 55.742C71.5493 51.3152 74.516 48.3352 76.5336 49.0785C78.5512 49.8285 78.8565 54.023 77.2172 58.4498Z" fill="url(#paint2_linear_206_16567)"/>
<path opacity="0.58" d="M29.7635 51.1562C30.2347 54.5941 28.7746 57.6338 26.4915 57.9458C24.2084 58.2577 21.9784 55.7291 21.5072 52.2911C21.036 48.8532 22.4961 45.8135 24.7792 45.5016C27.0623 45.1897 29.2923 47.7183 29.7635 51.1562Z" fill="url(#paint3_linear_206_16567)"/>
<path opacity="0.58" d="M56.5365 54.8322C59.7401 54.8322 62.3372 50.0958 62.3372 44.253C62.3372 38.4103 59.7401 33.6738 56.5365 33.6738C53.3329 33.6738 50.7359 38.4103 50.7359 44.253C50.7359 50.0958 53.3329 54.8322 56.5365 54.8322Z" fill="url(#paint4_linear_206_16567)"/>
<path style="mix-blend-mode:color-dodge" d="M67.1888 15.4688C74.9207 22.9552 79.7391 33.4348 79.7391 45.0494C79.7391 67.7874 61.3018 86.2247 38.5638 86.2247C28.728 86.2247 19.7018 82.7669 12.6136 77.0127C20.027 84.1872 30.1151 88.6073 41.2385 88.6073C63.9765 88.6073 82.4138 70.17 82.4138 47.432C82.4138 34.5299 76.4738 23.0149 67.1821 15.4688H67.1888Z" fill="url(#paint5_radial_206_16567)"/>
<path d="M74.7343 49.5031C75.0861 49.377 75.4312 49.3505 75.7498 49.4566C77.4488 49.9743 77.8006 53.6976 76.5595 57.7727C75.3051 61.8411 72.9225 64.7281 71.2367 64.2171C70.8849 64.1109 70.5863 63.8587 70.3606 63.487C69.4646 62.1265 69.4447 59.1133 70.4336 55.8944C71.4358 52.5893 73.2145 50.0606 74.741 49.5097L74.7343 49.5031Z" fill="#670000"/>
<path d="M74.7347 49.5029C75.6307 50.8635 75.6439 53.8634 74.6617 57.0955C73.6462 60.4073 71.8808 62.9294 70.3543 63.4802C69.4584 62.1197 69.4384 59.1065 70.4273 55.8876C71.4295 52.5825 73.2082 50.0538 74.7347 49.5029Z" fill="#8C0000"/>
<path d="M71.4628 27.6348C71.7814 27.2897 72.1398 27.0707 72.5513 26.9977C74.7216 26.5928 77.2502 30.4821 78.2258 35.6788C79.1882 40.8754 78.2258 45.4217 76.0689 45.8332C75.6175 45.9195 75.1463 45.8199 74.6817 45.5345C72.9097 44.5523 71.1575 41.2471 70.3943 37.1389C69.5979 32.9244 70.0956 29.1281 71.4628 27.6348Z" fill="#670000"/>
<path d="M71.4628 27.6348C73.2348 28.617 74.9671 31.9089 75.7502 36.0304C76.5334 40.2581 76.0489 44.0412 74.6817 45.5345C72.9096 44.5522 71.1575 41.247 70.3942 37.1388C69.5978 32.9244 70.0956 29.1281 71.4628 27.6348Z" fill="#8C0000"/>
<path d="M63.8769 69.0486C64.1291 69.0354 64.3481 69.0885 64.5339 69.2146C65.5162 69.8782 65.0184 72.314 63.4322 74.6701C61.846 77.0195 59.762 78.3934 58.7864 77.7363C58.5806 77.6036 58.4413 77.3846 58.3683 77.0992C58.063 76.0572 58.6404 74.1325 59.8881 72.2742C61.169 70.3627 62.7951 69.1017 63.8769 69.042V69.0486Z" fill="#670000"/>
<path d="M63.877 69.0488C64.1823 70.0908 63.6049 72.0022 62.3572 73.8738C61.063 75.7853 59.4502 77.0463 58.3684 77.106C58.0631 76.064 58.6405 74.1393 59.8883 72.281C61.1692 70.3696 62.7952 69.1086 63.877 69.0488Z" fill="#8C0000"/>
<path d="M70.6731 44.3259C70.8258 44.2396 70.9784 44.2064 71.1311 44.2263C71.9408 44.3391 72.3722 45.9984 72.1067 47.943C71.8346 49.8809 70.9651 51.3676 70.1621 51.2548C69.9962 51.2349 69.8435 51.1419 69.7108 50.9893C69.1997 50.4384 68.9741 49.0712 69.1865 47.5381C69.3988 45.9652 70.0227 44.6909 70.6731 44.3259Z" fill="#670000"/>
<path d="M70.6729 44.3252C71.184 44.8761 71.403 46.2366 71.1972 47.7764C70.9782 49.356 70.361 50.6236 69.7106 50.9886C69.1995 50.4378 68.9739 49.0706 69.1862 47.5375C69.3986 45.9645 70.0225 44.6902 70.6729 44.3252Z" fill="#8C0000"/>
<path d="M16.4565 74.2651C16.3967 74.4509 16.2972 74.6036 16.1512 74.7031C15.3879 75.2407 13.7287 74.1788 12.4478 72.347C11.1669 70.5086 10.7421 68.5905 11.4987 68.053C11.658 67.9401 11.8571 67.9003 12.0828 67.9269C12.9389 67.9932 14.1933 68.9622 15.2021 70.4157C16.2441 71.9024 16.722 73.4554 16.4498 74.2651H16.4565Z" fill="#D23C00"/>
<path d="M16.4565 74.265C15.6003 74.1986 14.3526 73.2296 13.3371 71.7762C12.2951 70.2829 11.8173 68.7365 12.0894 67.9268C12.9455 67.9931 14.1999 68.9621 15.2087 70.4156C16.2507 71.9023 16.7286 73.4553 16.4565 74.265Z" fill="#8C0000"/>
<path d="M5.08077 43.1519C4.97458 43.1984 4.86839 43.2117 4.76884 43.1851C4.23125 43.059 4.05205 41.9042 4.36399 40.6233C4.67592 39.3357 5.36616 38.3999 5.89711 38.526C6.00994 38.5526 6.10285 38.6256 6.1825 38.7384C6.48779 39.1433 6.54753 40.0791 6.30196 41.0945C6.04976 42.1365 5.54535 42.9528 5.08077 43.1519Z" fill="#D23C00"/>
<path d="M5.08103 43.1518C4.77574 42.747 4.71601 41.8178 4.96157 40.7957C5.21377 39.7471 5.71818 38.9374 6.18276 38.7383C6.48806 39.1431 6.54779 40.0789 6.30222 41.0944C6.05002 42.1364 5.54562 42.9527 5.08103 43.1518Z" fill="#8C0000"/>
<path d="M17.9763 66.9775C17.8768 67.1501 17.7507 67.2696 17.5847 67.3359C16.7286 67.6943 15.3415 66.3205 14.4787 64.2763C13.6159 62.2255 13.6092 60.2676 14.4588 59.9092C14.638 59.8362 14.8371 59.8362 15.0561 59.9092C15.8724 60.1548 16.8879 61.3561 17.5715 62.9755C18.275 64.6347 18.4077 66.2475 17.983 66.9775H17.9763Z" fill="#D23C00"/>
<path d="M17.9764 66.9775C17.1601 66.7319 16.1513 65.5306 15.4611 63.9112C14.7642 62.2454 14.6248 60.6392 15.0496 59.9092C15.8659 60.1547 16.8814 61.356 17.565 62.9754C18.2685 64.6347 18.4012 66.2474 17.9764 66.9775Z" fill="#8C0000"/>
<path d="M61.6538 45.189C61.6538 50.0339 59.3309 53.963 56.4704 53.963C56.3177 53.963 56.1651 53.9564 56.019 53.9232C53.3577 53.5449 51.2803 49.7751 51.2803 45.189C51.2803 40.6029 53.3643 36.8332 56.019 36.4549C56.1651 36.4217 56.3177 36.415 56.4704 36.415C59.3309 36.415 61.6538 40.3441 61.6538 45.189Z" fill="#670000"/>
<path d="M60.7575 45.1892C60.7575 49.7687 58.6735 53.5384 56.0254 53.9234C53.364 53.5451 51.2866 49.7753 51.2866 45.1892C51.2866 40.6031 53.3706 36.8334 56.0254 36.4551C58.6801 36.84 60.7575 40.6098 60.7575 45.1892Z" fill="#8C0000"/>
<path d="M49.0701 76.6082C49.0701 78.5594 47.6763 80.1456 45.9574 80.1456C45.8644 80.1456 45.7715 80.1456 45.6852 80.1324C44.0924 79.9797 42.838 78.4599 42.838 76.6148C42.838 74.7698 44.0857 73.2499 45.6852 73.0973C45.7715 73.084 45.8644 73.084 45.9574 73.084C47.6763 73.084 49.0701 74.6636 49.0701 76.6214V76.6082Z" fill="#670000"/>
<path d="M48.5321 76.6084C48.5321 78.4534 47.2843 79.9733 45.6915 80.1259C44.0986 79.9733 42.8442 78.4534 42.8442 76.6084C42.8442 74.7633 44.092 73.2435 45.6915 73.0908C47.2843 73.2435 48.5321 74.7633 48.5321 76.6084Z" fill="#8C0000"/>
<path d="M21.0492 66.7136C21.0492 67.3905 21.5337 67.9414 22.1243 67.9414C22.1575 67.9414 22.1907 67.9414 22.2173 67.9414C22.7681 67.8883 23.2062 67.364 23.2062 66.7202C23.2062 66.0764 22.7748 65.5521 22.2173 65.499C22.1841 65.499 22.1575 65.499 22.1243 65.499C21.527 65.499 21.0492 66.0499 21.0492 66.7269V66.7136Z" fill="#670000"/>
<path d="M21.2349 66.7134C21.2349 67.3505 21.6663 67.8815 22.2171 67.9346C22.768 67.8815 23.206 67.3572 23.206 66.7134C23.206 66.0696 22.7746 65.5453 22.2171 65.4922C21.6663 65.5453 21.2349 66.0696 21.2349 66.7134Z" fill="#8C0000"/>
<path d="M54.3398 68.3181C54.3398 68.995 53.8553 69.5459 53.2646 69.5459C53.2314 69.5459 53.1982 69.5459 53.1717 69.5459C52.6208 69.4928 52.1828 68.9685 52.1828 68.3247C52.1828 67.6809 52.6142 67.1566 53.1717 67.1035C53.2048 67.1035 53.2314 67.1035 53.2646 67.1035C53.8619 67.1035 54.3398 67.6544 54.3398 68.3313V68.3181Z" fill="#670000"/>
<path d="M54.154 68.3188C54.154 68.956 53.7226 69.4869 53.1717 69.54C52.6209 69.4869 52.1828 68.9626 52.1828 68.3188C52.1828 67.6751 52.6142 67.1508 53.1717 67.0977C53.7226 67.1508 54.154 67.6751 54.154 68.3188Z" fill="#8C0000"/>
<path d="M50.8289 51.5674C50.8289 52.6625 50.0457 53.5519 49.0834 53.5519C49.0303 53.5519 48.9838 53.5519 48.9307 53.5452C48.0347 53.459 47.3312 52.6094 47.3312 51.5674C47.3312 50.5254 48.0347 49.6759 48.9307 49.5896C48.9772 49.583 49.0303 49.583 49.0834 49.583C50.0457 49.583 50.8289 50.4724 50.8289 51.5674Z" fill="#670000"/>
<path d="M50.5236 51.5676C50.5236 52.603 49.8201 53.4525 48.9308 53.5454C48.0348 53.4592 47.3313 52.6096 47.3313 51.5676C47.3313 50.5256 48.0348 49.6761 48.9308 49.5898C49.8267 49.6761 50.5236 50.5256 50.5236 51.5676Z" fill="#8C0000"/>
<path d="M55.8331 56.8307C55.8331 57.3816 55.4416 57.8196 54.9637 57.8196C54.9372 57.8196 54.9106 57.8196 54.8907 57.8196C54.446 57.7798 54.0943 57.3484 54.0943 56.8307C54.0943 56.313 54.446 55.8883 54.8907 55.8418C54.9172 55.8418 54.9438 55.8418 54.9637 55.8418C55.4482 55.8418 55.8331 56.2865 55.8331 56.8307Z" fill="#670000"/>
<path d="M55.6805 56.8307C55.6805 57.3484 55.3288 57.7731 54.8841 57.8196C54.4394 57.7798 54.0877 57.3484 54.0877 56.8307C54.0877 56.313 54.4394 55.8883 54.8841 55.8418C55.3288 55.8883 55.6805 56.313 55.6805 56.8307Z" fill="#8C0000"/>
<path d="M67.4877 50.9899C67.4877 51.5407 67.0961 51.9788 66.6183 51.9788C66.5917 51.9788 66.5652 51.9788 66.5453 51.9788C66.1006 51.939 65.7488 51.5076 65.7488 50.9899C65.7488 50.4722 66.1006 50.0474 66.5453 50.001C66.5718 50.001 66.5984 50.001 66.6183 50.001C67.1028 50.001 67.4877 50.4456 67.4877 50.9899Z" fill="#670000"/>
<path d="M67.335 50.9899C67.335 51.5076 66.9832 51.9323 66.5386 51.9788C66.0939 51.939 65.7421 51.5076 65.7421 50.9899C65.7421 50.4722 66.0939 50.0474 66.5386 50.001C66.9832 50.0474 67.335 50.4722 67.335 50.9899Z" fill="#8C0000"/>
<path d="M62.9078 33.8405C62.9078 34.3913 62.5163 34.8294 62.0384 34.8294C62.0119 34.8294 61.9853 34.8294 61.9654 34.8294C61.5207 34.7895 61.169 34.3581 61.169 33.8405C61.169 33.3228 61.5207 32.898 61.9654 32.8516C61.9919 32.8516 62.0185 32.8516 62.0384 32.8516C62.5229 32.8516 62.9078 33.2962 62.9078 33.8405Z" fill="#670000"/>
<path d="M62.7552 33.8405C62.7552 34.3581 62.4035 34.7829 61.9588 34.8294C61.5141 34.7895 61.1624 34.3581 61.1624 33.8405C61.1624 33.3228 61.5141 32.898 61.9588 32.8516C62.4035 32.898 62.7552 33.3228 62.7552 33.8405Z" fill="#8C0000"/>
<path d="M51.2802 35.2805C51.2802 36.4552 50.4439 37.4043 49.4086 37.4043C49.3555 37.4043 49.2958 37.4043 49.2493 37.3976C48.2936 37.3047 47.537 36.3955 47.537 35.2871C47.537 34.1787 48.287 33.2628 49.2493 33.1766C49.3024 33.1699 49.3555 33.1699 49.4086 33.1699C50.4373 33.1699 51.2802 34.119 51.2802 35.2937V35.2805Z" fill="#670000"/>
<path d="M50.955 35.2805C50.955 36.3888 50.205 37.2981 49.2493 37.391C48.2936 37.2981 47.537 36.3888 47.537 35.2805C47.537 34.1721 48.287 33.2562 49.2493 33.1699C50.205 33.2628 50.955 34.1721 50.955 35.2805Z" fill="#8C0000"/>
<path d="M57.8572 64.8407C57.8572 65.1526 57.6381 65.3982 57.366 65.3982C57.3528 65.3982 57.3395 65.3982 57.3262 65.3982C57.074 65.3717 56.8749 65.1327 56.8749 64.8407C56.8749 64.5487 57.074 64.3098 57.3262 64.2832C57.3395 64.2832 57.3528 64.2832 57.366 64.2832C57.6381 64.2832 57.8572 64.5354 57.8572 64.8407Z" fill="#670000"/>
<path d="M57.7711 64.8407C57.7711 65.1327 57.572 65.3717 57.3198 65.3982C57.0676 65.3717 56.8685 65.1327 56.8685 64.8407C56.8685 64.5487 57.0676 64.3098 57.3198 64.2832C57.572 64.3098 57.7711 64.5487 57.7711 64.8407Z" fill="#8C0000"/>
<path d="M54.1737 74.9491C54.1737 75.261 53.9546 75.5066 53.6825 75.5066C53.6693 75.5066 53.656 75.5066 53.6427 75.5066C53.3905 75.48 53.1914 75.2411 53.1914 74.9491C53.1914 74.6571 53.3905 74.4181 53.6427 74.3916C53.656 74.3916 53.6693 74.3916 53.6825 74.3916C53.9546 74.3916 54.1737 74.6438 54.1737 74.9491Z" fill="#670000"/>
<path d="M54.0875 74.9491C54.0875 75.2411 53.8884 75.48 53.6362 75.5066C53.384 75.48 53.1848 75.2411 53.1848 74.9491C53.1848 74.6571 53.384 74.4181 53.6362 74.3916C53.8884 74.4181 54.0875 74.6571 54.0875 74.9491Z" fill="#8C0000"/>
<path d="M48.4992 72.6591C48.4992 72.971 48.2801 73.2166 48.008 73.2166C47.9948 73.2166 47.9815 73.2166 47.9682 73.2166C47.716 73.19 47.5169 72.9511 47.5169 72.6591C47.5169 72.367 47.716 72.1281 47.9682 72.1016C47.9815 72.1016 47.9948 72.1016 48.008 72.1016C48.2801 72.1016 48.4992 72.3538 48.4992 72.6591Z" fill="#670000"/>
<path d="M48.4131 72.6591C48.4131 72.9511 48.2139 73.19 47.9617 73.2166C47.7095 73.19 47.5104 72.9511 47.5104 72.6591C47.5104 72.367 47.7095 72.1281 47.9617 72.1016C48.2139 72.1281 48.4131 72.367 48.4131 72.6591Z" fill="#8C0000"/>
<path d="M39.9908 74.1132C39.9908 74.4251 39.7718 74.6707 39.4996 74.6707C39.4864 74.6707 39.4731 74.6707 39.4598 74.6707C39.2076 74.6441 39.0085 74.4052 39.0085 74.1132C39.0085 73.8211 39.2076 73.5822 39.4598 73.5557C39.4731 73.5557 39.4864 73.5557 39.4996 73.5557C39.7718 73.5557 39.9908 73.8079 39.9908 74.1132Z" fill="#670000"/>
<path d="M39.9111 74.1132C39.9111 74.4052 39.712 74.6441 39.4598 74.6707C39.2076 74.6441 39.0085 74.4052 39.0085 74.1132C39.0085 73.8211 39.2076 73.5822 39.4598 73.5557C39.712 73.5822 39.9111 73.8211 39.9111 74.1132Z" fill="#8C0000"/>
<path d="M34.502 79.0175C34.502 79.6348 34.0573 80.1392 33.5131 80.1392C33.4865 80.1392 33.4533 80.1392 33.4268 80.1392C32.9224 80.0927 32.5242 79.6082 32.5242 79.0242C32.5242 78.4401 32.9224 77.9556 33.4268 77.9092C33.4533 77.9092 33.4865 77.9092 33.5131 77.9092C34.0573 77.9092 34.502 78.4136 34.502 79.0308V79.0175Z" fill="#670000"/>
<path d="M34.3295 79.0173C34.3295 79.6014 33.9313 80.0859 33.4269 80.1323C32.9225 80.0859 32.5243 79.6014 32.5243 79.0173C32.5243 78.4333 32.9225 77.9488 33.4269 77.9023C33.9313 77.9488 34.3295 78.4333 34.3295 79.0173Z" fill="#8C0000"/>
<path d="M24.0491 79.2685C24.0491 79.8857 24.4937 80.3902 25.038 80.3902C25.0645 80.3902 25.0977 80.3902 25.1243 80.3902C25.6287 80.3437 26.0269 79.8592 26.0269 79.2751C26.0269 78.6911 25.6287 78.2066 25.1243 78.1602C25.0977 78.1602 25.0645 78.1602 25.038 78.1602C24.4937 78.1602 24.0491 78.6646 24.0491 79.2818V79.2685Z" fill="#670000"/>
<path d="M24.2213 79.2693C24.2213 79.8533 24.6195 80.3378 25.1239 80.3843C25.6283 80.3378 26.0265 79.8533 26.0265 79.2693C26.0265 78.6852 25.6283 78.2008 25.1239 78.1543C24.6195 78.2008 24.2213 78.6852 24.2213 79.2693Z" fill="#8C0000"/>
<path d="M19.9673 71.3785C19.9673 72.3939 20.6907 73.2169 21.5867 73.2169C21.6332 73.2169 21.6796 73.2169 21.7261 73.2102C22.5557 73.1306 23.2061 72.3408 23.2061 71.3785C23.2061 70.4161 22.5557 69.6263 21.7261 69.5467C21.6796 69.54 21.6332 69.54 21.5867 69.54C20.6907 69.54 19.9673 70.363 19.9673 71.3785Z" fill="#670000"/>
<path d="M20.2527 71.3787C20.2527 72.341 20.9031 73.1308 21.7327 73.2104C22.5623 73.1308 23.2127 72.341 23.2127 71.3787C23.2127 70.4163 22.5623 69.6265 21.7327 69.5469C20.9031 69.6265 20.2527 70.4163 20.2527 71.3787Z" fill="#8C0000"/>
<path d="M22.3765 51.7332C22.715 54.534 24.5733 56.6047 26.5113 56.3724C26.6175 56.3591 26.717 56.3392 26.8166 56.3127C28.5953 55.8747 29.7435 53.5252 29.4182 50.8771C29.093 48.229 27.4139 46.2246 25.5821 46.2246C25.4826 46.2246 25.3764 46.2246 25.2768 46.2379C23.3322 46.4768 22.0314 48.9391 22.3765 51.7332Z" fill="#D23C00"/>
<path d="M22.987 51.6602C23.3122 54.3017 24.9914 56.3061 26.8165 56.3127C28.5952 55.8747 29.7434 53.5252 29.4182 50.8771C29.093 48.229 27.4138 46.2246 25.5821 46.2246C23.81 46.6693 22.6618 49.0121 22.9804 51.6602H22.987Z" fill="#8C0000"/>
<path d="M13.4034 51.7663C13.4764 52.3637 13.8878 52.8017 14.3192 52.7486C14.3392 52.7486 14.3657 52.742 14.3856 52.7353C14.7838 52.6424 15.036 52.138 14.9697 51.5739C14.9033 51.0097 14.5316 50.585 14.1268 50.585C14.1069 50.585 14.0803 50.585 14.0604 50.585C13.629 50.6381 13.337 51.1624 13.41 51.7597L13.4034 51.7663Z" fill="#D23C00"/>
<path d="M13.5429 51.7533C13.6092 52.3174 13.9809 52.7421 14.3858 52.7421C14.784 52.6492 15.0362 52.1448 14.9698 51.5807C14.9034 51.0166 14.5318 50.5918 14.1269 50.5918C13.7353 50.6847 13.4765 51.1891 13.5429 51.7533Z" fill="#8C0000"/>
<path d="M7.45023 44.4187C7.52324 45.016 7.93472 45.454 8.36612 45.4009C8.38603 45.4009 8.41258 45.3943 8.43249 45.3877C8.8307 45.2947 9.08291 44.7903 9.01654 44.2262C8.95017 43.6621 8.5785 43.2373 8.17365 43.2373C8.15374 43.2373 8.12719 43.2373 8.10728 43.2373C7.67588 43.2904 7.38386 43.8147 7.45687 44.412L7.45023 44.4187Z" fill="#D23C00"/>
<path d="M7.58328 44.3988C7.64965 44.9629 8.02131 45.3877 8.42617 45.3877C8.82438 45.2947 9.07658 44.7903 9.01021 44.2262C8.94384 43.6621 8.57218 43.2373 8.16733 43.2373C7.77575 43.3302 7.51691 43.8346 7.58328 44.3988Z" fill="#8C0000"/>
<path d="M9.72622 44.4199C9.79923 45.0173 10.297 45.442 10.8346 45.3823C10.8611 45.3823 10.8943 45.3756 10.9209 45.369C11.4186 45.2628 11.7571 44.7518 11.6841 44.1876C11.6111 43.6235 11.1664 43.2054 10.6554 43.2253C10.6288 43.2253 10.5957 43.2253 10.5691 43.2253C10.0315 43.2917 9.64658 43.8292 9.71958 44.4266L9.72622 44.4199Z" fill="#D23C00"/>
<path d="M9.89203 44.3998C9.95839 44.964 10.4097 45.3754 10.9141 45.3622C11.4119 45.256 11.7504 44.7449 11.6773 44.1808C11.6043 43.6167 11.1597 43.1985 10.6486 43.2185C10.1509 43.3246 9.81902 43.8357 9.88539 44.3998H9.89203Z" fill="#8C0000"/>
<path d="M5.26665 33.2299C5.37948 34.1657 6.02326 34.8559 6.70022 34.7696C6.7334 34.7696 6.77323 34.7564 6.80641 34.7497C7.42364 34.5971 7.82849 33.8139 7.7223 32.9312C7.61611 32.0485 7.03207 31.3782 6.39492 31.3848C6.36174 31.3848 6.32192 31.3848 6.28873 31.3848C5.61177 31.4645 5.15382 32.2941 5.27329 33.2232L5.26665 33.2299Z" fill="#D23C00"/>
<path d="M5.48536 33.2033C5.59155 34.086 6.1756 34.7497 6.8061 34.7497C7.42333 34.5971 7.82818 33.8139 7.72199 32.9312C7.6158 32.0485 7.03176 31.3782 6.39461 31.3848C5.77738 31.5375 5.37253 32.3206 5.47872 33.2033H5.48536Z" fill="#8C0000"/>
<path opacity="0.58" d="M37.2634 37.2373C49.568 30.9 56.6844 20.2125 53.1583 13.366C49.6321 6.5196 36.7987 6.10688 24.4941 12.4442C12.1894 18.7815 5.07298 29.4691 8.59912 36.3155C12.1253 43.1619 24.9587 43.5746 37.2634 37.2373Z" fill="url(#paint6_linear_206_16567)"/>
<path opacity="0.8" d="M39.5927 11.3677C40.3493 12.8345 36.4336 16.3587 30.8453 19.2324C25.257 22.1062 20.1201 23.2544 19.3635 21.7876C18.6069 20.3209 22.5226 16.7967 28.1109 13.9229C33.6992 11.0491 38.8361 9.90095 39.5927 11.3677Z" fill="white"/>
<path opacity="0.8" d="M17.7903 23.6987C18.3212 24.7275 17.9164 25.9885 16.8877 26.5194C15.859 27.0504 14.5979 26.6455 14.067 25.6168C13.536 24.5881 13.9409 23.3271 14.9696 22.7961C15.9983 22.2652 17.2593 22.67 17.7903 23.6987Z" fill="white"/>
<path opacity="0.58" d="M11.6647 55.8348C12.4146 61.2505 11.3594 65.8698 9.30856 66.1485C7.25776 66.4339 4.99458 62.2726 4.24461 56.8569C3.49464 51.4412 4.5499 46.8219 6.6007 46.5431C8.6515 46.2578 10.9147 50.4191 11.6647 55.8348Z" fill="url(#paint7_linear_206_16567)"/>
<path d="M10.1447 63.6196C9.846 63.9183 9.50088 64.1107 9.12921 64.1572C7.13151 64.4492 4.96788 60.7856 4.27764 56.0004C3.60068 51.2086 4.65595 47.0871 6.64038 46.8017C7.05187 46.742 7.48326 46.8548 7.89475 47.1269C9.48097 48.0959 10.9477 51.1887 11.4919 54.9717C12.0561 58.8543 11.4521 62.3121 10.1447 63.6196Z" fill="#D23C00"/>
<path d="M10.1444 63.6196C8.55819 62.6506 7.10471 59.5711 6.54721 55.7748C5.99634 51.879 6.58703 48.4344 7.8945 47.127C9.48071 48.0959 10.9475 51.1887 11.4917 54.9718C12.0558 58.8543 11.4519 62.3122 10.1444 63.6196Z" fill="#8C0000"/>
<defs>
<linearGradient id="paint0_linear_206_16567" x1="5.94357" y1="26.2272" x2="76.5402" y2="68.6503" gradientUnits="userSpaceOnUse">
<stop stop-color="#FFBD00"/>
<stop offset="1" stop-color="#E30046"/>
</linearGradient>
<linearGradient id="paint1_linear_206_16567" x1="11.4516" y1="72.6598" x2="14.8886" y2="70.941" gradientUnits="userSpaceOnUse">
<stop stop-color="white"/>
<stop offset="1" stop-color="white"/>
</linearGradient>
<linearGradient id="paint2_linear_206_16567" x1="73.0916" y1="57.1348" x2="80.329" y2="60.8592" gradientUnits="userSpaceOnUse">
<stop stop-color="white"/>
<stop offset="1" stop-color="white"/>
</linearGradient>
<linearGradient id="paint3_linear_206_16567" x1="33.2842" y1="50.8679" x2="41.9864" y2="50.3951" gradientUnits="userSpaceOnUse">
<stop stop-color="white"/>
<stop offset="1" stop-color="white"/>
</linearGradient>
<linearGradient id="paint4_linear_206_16567" x1="62.6874" y1="44.3116" x2="75.0728" y2="45.3408" gradientUnits="userSpaceOnUse">
<stop stop-color="white"/>
<stop offset="1" stop-color="white"/>
</linearGradient>
<radialGradient id="paint5_radial_206_16567" cx="0" cy="0" r="1" gradientUnits="userSpaceOnUse" gradientTransform="translate(66.399 66.3737) scale(66.2362 66.2362)">
<stop stop-color="white"/>
<stop offset="1"/>
</radialGradient>
<linearGradient id="paint6_linear_206_16567" x1="22.9035" y1="13.0406" x2="39.8611" y2="36.0594" gradientUnits="userSpaceOnUse">
<stop stop-color="white"/>
<stop offset="1" stop-color="white"/>
</linearGradient>
<linearGradient id="paint7_linear_206_16567" x1="2.91007" y1="56.0273" x2="10.7613" y2="56.0863" gradientUnits="userSpaceOnUse">
<stop stop-color="white"/>
<stop offset="1" stop-color="white"/>
</linearGradient>
</defs>
</svg>
