<svg width="93" height="106" viewBox="0 0 93 106" fill="none" xmlns="http://www.w3.org/2000/svg">
<path d="M83.3554 11.3483C83.1943 12.585 82.5629 13.6891 81.9394 14.7648C81.5705 15.4169 81.1834 16.0768 80.6092 16.56C79.2582 17.685 77.2758 17.5135 75.5741 17.0978C73.8464 16.6717 72.1082 16.0118 70.7676 14.8505C70.5702 14.6816 70.3701 14.492 70.1909 14.2945C68.632 12.5954 68.0267 10.1402 68.3878 7.86425C68.897 4.66341 70.9755 2.00037 73.7502 0.849422C75.3091 0.197303 77.0732 0.0284279 78.9048 0.501279C82.1057 1.33267 83.7399 8.41504 83.3527 11.3509L83.3554 11.3483Z" fill="url(#paint0_linear_206_17253)"/>
<path style="mix-blend-mode:multiply" opacity="0.25" d="M70.601 4.25488C70.3802 4.44194 70.2711 4.75112 70.323 5.03691C70.5075 5.07328 70.7101 4.98235 70.8063 4.81867C70.9024 4.65499 70.8816 4.43415 70.7569 4.29126L70.601 4.25488Z" fill="url(#paint1_linear_206_17253)"/>
<path style="mix-blend-mode:multiply" opacity="0.25" d="M69.9464 6.27556C70.014 6.46782 69.9179 6.67826 69.8841 6.88091C69.8503 7.08356 69.949 7.35376 70.1543 7.34597C70.2582 7.34077 70.3413 7.26283 70.3985 7.17709C70.5154 6.99782 70.544 6.77959 70.57 6.56654C70.5882 6.41066 70.6011 6.23918 70.5102 6.10928C70.4193 5.98197 70.1803 5.96119 70.1283 6.10928L69.9464 6.27556Z" fill="url(#paint2_linear_206_17253)"/>
<path style="mix-blend-mode:multiply" opacity="0.25" d="M69.601 9.10295C69.6321 9.36795 69.6685 9.63815 69.801 9.86938C69.9335 10.098 70.1933 10.2799 70.4557 10.2357C70.6921 10.1967 70.8714 9.99149 70.9675 9.77066C71.1234 9.41212 71.0948 8.94706 70.8013 8.69245C70.5103 8.43524 69.9491 8.53916 69.853 8.91589L69.601 9.10295Z" fill="url(#paint3_linear_206_17253)"/>
<path style="mix-blend-mode:multiply" opacity="0.25" d="M74.1501 2.5537C73.9214 2.52252 73.6954 2.64463 73.5447 2.81611C73.394 2.98758 73.3057 3.20582 73.2303 3.42406C73.1394 3.67607 73.077 3.99564 73.2745 4.1749C73.4044 4.29182 73.5993 4.29701 73.7759 4.27883C74.4644 4.20868 75.1269 3.89691 75.6206 3.41366C75.6803 3.35391 75.7427 3.28636 75.7557 3.20322C75.7817 3.05513 75.6517 2.92782 75.527 2.84468C75.0412 2.51992 74.3189 2.43419 73.9162 2.85768L74.1475 2.5589L74.1501 2.5537Z" fill="url(#paint4_linear_206_17253)"/>
<path style="mix-blend-mode:multiply" opacity="0.25" d="M83.3551 11.3479C83.194 12.5846 82.5626 13.6888 81.9391 14.7644C81.5702 15.4165 81.1831 16.0765 80.6089 16.5597C79.2579 17.6847 77.2755 17.5132 75.5738 17.0975C73.8461 16.6714 72.1079 16.0115 70.7673 14.8502C71.6247 14.832 72.6276 14.9931 73.3161 14.8969C74.5709 14.7177 75.7894 14.2552 76.8391 13.5381C78.2264 12.5742 79.3774 10.9323 78.9903 9.28767C78.9617 9.17335 78.9253 9.06163 78.9513 8.94732C78.9903 8.80702 79.1228 8.7031 79.2345 8.60697C79.7905 8.10554 80.0555 7.29494 79.8866 6.55708C79.8398 6.33884 79.7541 6.10501 79.8294 5.89717C79.8866 5.73609 80.0191 5.62437 80.0945 5.48147C80.4062 4.86833 79.6034 4.27336 79.4813 3.59267C79.4527 3.38482 79.4813 3.15879 79.4345 2.96133C79.406 2.83922 79.3384 2.72491 79.2735 2.62098C78.2056 0.8361 75.7245 0.155402 73.8071 0.968602C73.7785 0.932229 73.7603 0.893258 73.7499 0.846493C75.3088 0.194374 77.0729 0.0254982 78.9045 0.498349C82.1054 1.32974 83.7396 8.41211 83.3525 11.3479H83.3551Z" fill="url(#paint5_linear_206_17253)"/>
<path d="M90.3072 61.6307C90.3072 62.8544 90.2527 64.0599 90.1513 65.2524C90.1046 65.8916 90.0344 66.5229 89.9487 67.1516C89.0524 74.0522 86.5166 80.4305 82.7364 85.8838C80.2682 89.451 77.2778 92.6129 73.8562 95.2681C67.0102 100.602 58.4911 103.899 49.2159 104.219C48.7093 104.242 48.2027 104.25 47.6961 104.25C47.5636 104.25 47.4233 104.25 47.2908 104.242C43.5677 104.211 39.9538 103.696 36.5113 102.764C33.9106 102.062 31.4009 101.111 29.0262 99.9524C26.4723 98.7054 24.0561 97.2089 21.8218 95.4967C18.4261 92.9038 15.4357 89.8017 12.9597 86.3229C12.7181 85.9877 12.4842 85.6448 12.2582 85.3044C10.863 83.2338 9.64973 81.0202 8.64427 78.7079C7.28028 75.6084 6.29301 72.3218 5.70065 68.895C5.48241 67.6323 5.32652 66.3566 5.2252 65.0628C5.13167 63.9326 5.0849 62.7895 5.0849 61.6359C5.0849 57.3751 5.70844 53.2467 6.88537 49.3704C7.33744 47.8427 7.88304 46.3566 8.49878 44.9069C12.7986 34.8523 20.8501 26.7826 30.8969 22.4698C32.7363 21.6826 34.6433 21.0123 36.6152 20.4849C40.1512 19.534 43.8665 19.0273 47.6987 19.0273C49.1562 19.0273 50.5981 19.1053 52.0141 19.2534C52.7078 19.3157 53.3937 19.4015 54.0692 19.5028C60.6579 20.4927 66.7478 22.9842 71.9829 26.6215C72.3415 26.871 72.6844 27.1204 73.0352 27.3776C83.5184 35.1355 90.3098 47.5959 90.3098 61.6385L90.3072 61.6307Z" fill="url(#paint6_radial_206_17253)"/>
<path style="mix-blend-mode:multiply" opacity="0.25" d="M73.0327 27.3672C72.6819 27.1099 72.339 26.8605 71.9804 26.6111C66.7479 22.9738 60.6554 20.4822 54.0667 19.4924C53.9653 20.8875 53.2405 22.2022 52.274 23.231C51.2062 24.382 49.8604 25.2315 48.5301 26.0655C48.2573 26.237 47.9845 26.4085 47.7117 26.5799C47.322 27.2347 46.8856 27.8504 46.3581 28.409C44.6434 30.2173 42.2376 31.15 40.1046 32.4282C37.9637 33.6987 35.8905 35.6213 35.7268 38.105C35.68 38.8923 35.8047 39.7496 35.376 40.4017C34.8304 41.2201 33.4587 41.7268 33.7418 42.6673C33.8354 43.0024 34.1316 43.2285 34.4277 43.4155C35.6436 44.2105 37.0674 44.6834 38.5171 44.7925C37.9637 45.7824 36.6231 45.8837 35.5034 46.0162C34.3732 46.1487 33.0118 46.7333 33.0274 47.8634C34.6927 47.2867 36.4932 47.9336 38.2287 48.2531C39.9591 48.5727 42.1233 48.3467 42.9183 46.7748C43.3548 48.791 46.7582 49.5782 46.3374 51.5943C46.1269 52.6231 44.9032 53.1531 43.8614 53.0284C42.817 52.9115 41.8894 52.3347 40.9333 51.9138C37.6234 50.4433 33.573 50.7759 30.5436 52.7712C29.6317 53.3714 28.7821 54.143 28.3716 55.1563C28.052 55.9487 28.0209 56.8476 27.6545 57.6244C26.992 59.0664 25.4046 59.7653 24.1341 60.7162C23.0196 61.5423 21.8063 63.2545 22.4688 64.6964C22.6091 64.9926 22.8195 65.2576 23.0767 65.4888C23.0767 65.7149 23.1469 65.9565 23.2638 66.1513C23.5054 66.5462 23.9029 66.8294 24.1679 67.2114C25.0409 68.4273 24.4485 70.1004 23.7938 71.441C23.3339 72.3841 22.6013 73.452 21.5672 73.348C21.1619 73.3091 20.8034 73.083 20.4604 72.8648C19.1068 71.9996 17.7273 71.1137 16.753 69.8354C16.2074 69.1106 15.8099 68.2922 15.4513 67.4686C14.8434 66.0968 14.3134 64.6964 13.8613 63.2779C13.6431 62.579 13.4404 61.7995 13.7522 61.1266C14.0094 60.5681 14.5628 60.2225 15.0305 59.8198C16.3087 58.7286 17.0258 57.1334 17.6935 55.5901C18.3794 54.0027 19.0731 52.4205 19.7642 50.8382C19.5849 50.7993 19.4056 50.7603 19.2342 50.7213C19.3043 50.1056 19.5849 49.521 20.0214 49.0767C19.125 49.03 18.2599 49.4976 17.6389 50.1446C17.0076 50.7837 16.5711 51.5865 16.145 52.3789C15.3266 53.891 14.5082 55.4031 13.7002 56.9126C13.8951 53.9455 13.9029 50.9604 13.708 47.9881C13.5911 46.237 13.1468 44.1248 11.4893 43.5402C11.349 43.4935 11.1853 43.4545 11.0372 43.4545C11.2009 43.3064 11.349 43.1817 11.4659 43.0726C12.3934 42.2386 13.204 41.2747 13.8405 40.2069C14.3783 39.3028 14.7992 38.1882 14.3705 37.2321C15.3604 36.6241 16.2775 35.9071 17.1037 35.0991C16.9167 35.668 17.244 36.3072 17.7351 36.6475C18.2339 36.9905 18.8496 37.0918 19.4498 37.1385C22.5415 37.3724 25.5865 36.3903 28.5301 35.416C29.2394 35.1822 29.9383 34.9484 30.6397 34.7145C31.1074 34.5664 31.5673 34.4106 32.0271 34.2547C35.6956 33.0076 39.2628 31.4747 42.6507 29.6041C44.3784 28.6532 46.0542 27.627 47.7195 26.5747C48.7951 24.7743 49.5044 22.7192 50.6554 20.9499C51.0529 20.3341 51.5101 19.7678 52.0194 19.2352C52.7131 19.2975 53.3989 19.3832 54.0745 19.4846C54.09 19.3209 54.0978 19.165 54.09 19.0013C49.5174 18.0972 44.7681 18.4713 40.2267 19.508C39.0108 19.7885 37.813 20.1081 36.6205 20.4666C34.6876 21.0512 32.7884 21.7293 30.9021 22.4516C20.8554 26.767 12.8013 34.834 8.50407 44.8886C8.91716 44.9198 9.42379 44.6704 9.92262 44.3352C9.05746 45.7226 8.53524 47.2867 7.56356 48.6039C7.36871 48.8689 7.13488 49.1105 6.89326 49.3521C6.37104 49.8666 5.80986 50.3576 5.4825 50.9863C4.81219 52.2724 5.03043 54.1326 4.98366 55.5356C4.87455 59.2275 4.96028 62.9271 5.25646 66.6086C5.45911 69.2093 5.77088 71.8204 6.58149 74.2963C7.08811 75.837 7.7896 77.3101 8.65476 78.6897C10.237 81.2358 12.37 83.4702 14.807 85.2395C16.6049 86.5567 18.5846 87.6323 20.6787 88.4013C20.7099 88.4091 20.7332 88.4247 20.7644 88.4325C20.8735 90.1317 21.2165 91.8048 21.5049 93.4806C21.614 94.1353 21.7075 94.8056 21.8322 95.4837C22.0427 96.6918 22.3389 97.9051 22.9624 98.934C23.6093 100.015 24.6745 100.888 25.9216 101.059C27.0752 101.215 28.1794 100.74 29.0367 99.9394C29.6525 99.3626 30.1357 98.6066 30.3903 97.8038C30.7489 96.6892 30.7722 95.4993 30.7956 94.3302C30.819 93.0519 30.8502 91.784 30.8736 90.5058C31.2399 90.4512 31.5439 90.7864 31.7465 91.0981C32.6039 92.392 33.2352 93.8261 33.6016 95.3278C34.0848 97.2738 34.2173 99.4951 35.6878 100.844C35.9372 101.077 36.2412 101.288 36.3737 101.607C36.5062 101.935 36.4439 102.298 36.4984 102.644C36.5062 102.683 36.514 102.722 36.5218 102.753C39.9643 103.686 43.5782 104.203 47.3012 104.231C47.4337 104.239 47.574 104.239 47.7066 104.239C48.2132 104.239 48.7198 104.231 49.2264 104.208C58.5016 103.889 67.0233 100.594 73.8666 95.2577C73.5471 94.5406 73.1106 93.8859 72.552 93.3247C71.0633 91.8308 68.9459 91.1449 66.857 90.8331C64.7708 90.5214 62.6455 90.5292 60.5645 90.1628C58.3041 89.7731 56.1243 88.9235 54.1862 87.7024C53.3756 87.188 52.5883 86.5879 52.0453 85.7954C51.8583 85.5227 51.7024 85.2265 51.5153 84.9459C52.1389 84.9381 52.7702 84.8601 53.3938 84.7978C60.7229 84.0106 68.1613 84.221 75.4515 85.3122C77.8651 85.6707 80.3489 86.1228 82.7495 85.8734C86.5271 80.42 89.0654 74.0417 89.9618 67.1412C90.0475 66.5125 90.1177 65.8811 90.1644 65.242C90.2657 64.0521 90.3203 62.844 90.3203 61.6203C90.3203 47.5776 83.5289 35.1172 73.0456 27.3594L73.0327 27.3672ZM65.2514 67.9856C61.6375 68.0064 59.3797 71.7008 56.9817 74.4029C54.9968 76.632 52.487 78.3987 49.7227 79.5133C48.8965 79.8484 47.9845 80.1758 47.5117 80.9318C47.1298 81.5398 47.1532 82.2698 47.4338 82.9246C47.3402 82.9324 47.2545 82.948 47.1687 82.9713C45.9528 83.2753 45.3475 84.6783 45.3007 85.9305C45.254 87.1854 45.5813 88.4377 45.4254 89.677C45.4098 89.8017 45.3787 89.9264 45.2851 90.0043C45.2072 90.0589 45.0981 90.0667 45.0045 90.0667C43.2456 90.0823 41.5153 89.0379 40.7047 87.4738C39.8941 85.9098 40.0422 83.8988 41.0788 82.4673C41.3984 82.0152 41.8193 81.4229 41.4763 80.9786C40.7281 81.2592 40.1591 81.8671 39.6707 82.4907C38.8523 83.5273 38.1586 84.6887 37.878 85.9721C37.5974 87.2582 37.7689 88.6897 38.5561 89.7419C38.9848 90.3343 39.6941 90.8799 39.9019 91.6126C39.4265 91.332 38.8367 91.3164 38.3353 91.0826C37.1272 90.5136 36.8414 88.9781 36.3659 87.7414C35.4618 85.359 33.4613 83.5897 31.5283 81.9243C30.9281 81.4099 30.3124 80.8799 29.5823 80.5837C29.0679 80.381 28.5145 80.2953 27.9689 80.2797C26.9401 80.2485 25.7579 80.5759 25.337 81.5112C25.1422 81.9243 25.1422 82.3997 25.0954 82.8596C24.9006 82.5868 24.7057 82.3062 24.5187 82.0334C23.9341 81.1942 23.3495 80.3525 22.6013 79.651C22.0557 79.1366 21.3646 78.4896 21.6036 77.7804C21.6971 77.4998 21.931 77.2893 22.1648 77.1101C23.443 76.0968 25.1474 75.4603 25.8645 73.9872C26.1762 73.3324 26.262 72.5764 26.4802 71.8983C26.9167 71.8593 27.0024 71.9217 27.2129 72.5842C27.6104 73.8001 28.2261 74.8731 29.2212 75.7019C31.2451 77.3673 34.1446 77.5777 36.301 79.0742C36.8388 79.4483 37.3298 79.9004 37.9118 80.181C38.4963 80.4694 39.229 80.5785 39.7902 80.2356C40.5229 79.7835 40.8736 78.6403 41.7362 78.6325C42.1181 79.1002 41.3776 79.7601 41.5023 80.3447C41.5959 80.7422 42.0869 80.9448 42.4844 80.8513C42.8819 80.7578 43.1937 80.4616 43.4665 80.1498C44.4174 79.0534 45.0539 77.6816 45.2799 76.2397C45.3579 75.7513 45.3891 75.242 45.6151 74.8082C45.8723 74.3015 46.3555 73.9508 46.8128 73.6182C48.9718 72.0672 51.1984 70.4875 53.7679 69.8328C54.7577 69.5756 55.784 69.4665 56.7505 69.1417C57.717 68.8222 58.6575 68.2376 59.1095 67.3205C59.4759 66.58 59.4759 65.7149 59.4759 64.8887C59.4603 63.3948 59.4525 61.8983 59.4447 60.4018C59.4447 60.2693 59.4447 60.129 59.5382 60.0432C59.6162 59.9653 59.7409 59.9497 59.8578 59.9419C60.5281 59.903 61.1958 59.864 61.8687 59.825C62.7469 60.2147 63.612 60.6434 64.4694 61.0643C64.7656 61.2046 65.0695 61.3683 65.2254 61.6567C65.3423 61.8827 65.3423 62.1555 65.3345 62.4127C65.3112 64.2729 65.28 66.1358 65.2488 67.9986L65.2514 67.9856Z" fill="url(#paint7_linear_206_17253)"/>
<path style="mix-blend-mode:multiply" opacity="0.25" d="M27.6572 67.324C27.1116 67.2383 26.5816 67.1058 26.0516 66.9421C25.1474 66.6615 23.8718 66.2276 23.069 65.4924C23.069 65.2586 23.1625 65.0325 23.3574 64.8922C23.5366 64.7675 23.7627 64.7441 23.9731 64.7441C25.5397 64.7675 26.7842 65.9678 27.6572 67.3214V67.324Z" fill="url(#paint8_linear_206_17253)"/>
<path style="mix-blend-mode:multiply" opacity="0.25" d="M54.0692 19.4952C53.9679 20.8903 53.243 22.205 52.2765 23.2338C51.2087 24.3848 49.8629 25.2343 48.5327 26.0683C48.2599 26.2398 47.9871 26.4113 47.7143 26.5827C48.7899 24.7823 49.4992 22.7272 50.6501 20.9579C51.0476 20.3422 51.5049 19.7758 52.0141 19.2432C52.7078 19.3055 53.3937 19.3913 54.0692 19.4926V19.4952Z" fill="url(#paint9_linear_206_17253)"/>
<path style="mix-blend-mode:multiply" opacity="0.25" d="M27.6572 67.324C27.1116 67.2383 26.5816 67.1058 26.0516 66.9421C25.1474 66.6615 23.8718 66.2276 23.069 65.4924C23.069 65.2586 23.1625 65.0325 23.3574 64.8922C23.5366 64.7675 23.7627 64.7441 23.9731 64.7441C25.5397 64.7675 26.7842 65.9678 27.6572 67.3214V67.324Z" fill="url(#paint10_linear_206_17253)"/>
<path style="mix-blend-mode:multiply" opacity="0.25" d="M54.0692 19.4952C53.9679 20.8903 53.243 22.205 52.2765 23.2338C51.2087 24.3848 49.8629 25.2343 48.5327 26.0683C48.2599 26.2398 47.9871 26.4113 47.7143 26.5827C48.7899 24.7823 49.4992 22.7272 50.6501 20.9579C51.0476 20.3422 51.5049 19.7758 52.0141 19.2432C52.7078 19.3055 53.3937 19.3913 54.0692 19.4926V19.4952Z" fill="url(#paint11_linear_206_17253)"/>
<path d="M90.0475 47.8329C90.2735 48.5214 90.4814 49.2203 90.671 49.9192C90.671 49.9556 90.671 49.9945 90.6606 50.0335C90.6502 50.2596 90.632 50.496 90.5853 50.6934C90.5281 51.0338 90.406 51.3274 90.141 51.5352C89.8682 51.7535 89.5279 51.808 89.1693 51.8184C89.0186 51.8262 88.8472 51.8184 88.6965 51.808C84.2018 51.6002 79.6785 52.1769 75.3735 53.5072C75.3164 53.5253 75.2592 53.5357 75.202 53.5643C74.8253 53.6682 74.4642 53.7904 74.0979 53.9125C73.2483 54.206 72.3519 54.5464 71.466 54.4425C71.3621 54.4321 71.2581 54.4139 71.1542 54.3853C69.3408 53.9696 68.538 51.7976 67.0648 50.7116C66.8388 50.5427 66.5738 50.3895 66.2906 50.2777C65.8385 50.1089 65.3735 50.0595 64.8928 50.0595H64.8824C64.381 50.0699 63.8718 50.1452 63.36 50.2024C62.5779 50.2959 61.7933 50.3713 61.0581 50.1556C59.8474 49.8257 58.9328 48.7864 57.7351 48.4175C55.8281 47.8226 53.8926 49.0229 51.9466 49.5217C51.3802 49.6646 50.793 49.7477 50.2007 49.7685C49.6343 49.7867 49.0679 49.7503 48.5197 49.6542C48.0469 49.5685 47.5948 49.4567 47.1401 49.3061C45.6307 48.7864 44.2589 47.8615 43.2586 46.6066C42.7676 45.9753 42.3441 45.266 41.6634 44.8503C40.4735 44.1047 38.9354 44.4165 37.6779 43.8033C37.4051 43.6708 36.9608 43.2551 36.5166 42.8888C36.4802 42.8134 36.4516 42.7381 36.4308 42.6706C36.0151 41.4339 37.2051 41.1507 37.2986 40.3479C37.3376 40.0075 37.4025 39.6776 37.5064 39.3658C37.5168 39.319 37.5246 39.2697 37.5428 39.2229C37.6078 38.9865 37.7039 38.75 37.8078 38.524C38.6106 36.682 40.2526 35.1829 41.9803 34.0761C43.6145 33.0369 45.3994 32.2263 47.0518 31.2234C47.1557 31.1585 47.2596 31.1013 47.3636 31.0337C47.9118 30.6856 48.4418 30.3271 48.9406 29.9192C50.4787 28.6825 51.7361 27.1158 52.9235 25.5388C53.8198 24.3385 54.7006 23.094 55.2176 21.6858C55.415 21.1091 55.5761 20.4492 55.6515 19.7685C55.7268 19.1163 56.5088 18.3889 57.1532 18.5967C63.2794 19.7113 68.8783 20.2595 72.4481 24.6295V24.6399C72.9391 24.962 72.9573 24.9334 73.4301 25.292C73.5912 23.9903 77.4156 28.4071 78.9926 29.9841C79.7201 30.088 80.4554 30.2491 80.9854 30.1452C82.5442 29.8516 83.412 30.0231 84.6591 31.1091C86.5375 32.7329 88.1535 34.6607 89.7487 36.5677C90.3619 37.3055 91.014 38.0979 91.1179 39.0618C91.2322 40.0153 90.7957 40.8753 90.3437 41.7534C90.3151 41.8002 90.2969 41.8574 90.2683 41.9041C89.9566 42.5095 89.6552 43.1226 89.5227 43.7643C89.4655 44.0579 89.4369 44.3593 89.4473 44.6529C89.4473 44.7386 89.4473 44.8218 89.4577 44.9075C89.5149 45.7103 89.7409 46.5235 89.9591 47.3055C90.0059 47.477 90.0553 47.6563 90.0449 47.8355L90.0475 47.8329Z" fill="url(#paint12_linear_206_17253)"/>
<path d="M56.969 60.8252C56.4598 62.6672 57.6393 64.6963 56.969 66.4812C56.4676 67.7828 55.2413 68.4635 53.8799 68.9364C53.1732 69.2014 52.4353 69.3988 51.7468 69.6171C48.3485 70.6849 45.3166 72.8179 43.1628 75.6602C43.0407 75.8317 42.9082 76.0006 42.7757 76.1694C42.1053 77.0008 41.3129 77.84 40.4348 78.0868C40.0581 78.2011 39.6709 78.2011 39.263 78.0479C38.8577 77.8894 38.5278 77.5958 38.1874 77.3412C35.6179 75.4342 31.8325 75.642 29.4917 73.4596C28.7538 72.7789 28.216 71.893 27.6964 71.0408C27.6496 70.9551 27.5821 70.8616 27.4989 70.7576C26.4805 69.3313 23.2874 66.1512 22.4482 65.0834C22.3443 64.9587 22.2508 64.8262 22.1754 64.6859C22.0533 64.4703 21.9572 64.2416 21.939 63.987C21.9104 63.4492 22.2326 62.9478 22.6171 62.5711C23.2225 61.9839 23.9681 61.6254 24.732 61.2954C25.5815 60.9265 26.4701 60.5887 27.2053 60.0301C28.772 58.8506 29.6138 57.3022 29.897 55.6394C30.2555 55.2705 30.6608 54.9405 31.0869 54.6391C32.0404 53.9402 33.1186 53.3843 34.1656 52.8361C34.997 52.41 35.8544 51.9761 36.7819 51.9111C36.8182 51.9111 36.8572 51.9033 36.8962 51.9111H36.904C38.5668 51.8358 40.0477 52.9114 41.5597 53.6103C43.3342 54.4417 45.327 54.7898 47.2833 54.6105C49.0786 54.4599 54.6203 50.5419 57.4912 51.6072C57.5484 51.6357 57.6237 51.6643 57.6887 51.6903C58.4707 52.927 58.8396 54.4209 58.7643 55.8836C58.7175 56.8553 58.4811 57.8374 58.0394 58.6973C57.6705 59.404 57.1898 60.0457 56.9716 60.8122V60.8226L56.969 60.8252Z" fill="url(#paint13_linear_206_17253)"/>
<path d="M26.0255 92.0883C26.0618 94.0914 25.9034 96.0816 25.5448 98.0457C25.5448 98.0457 25.4981 98.3107 24.8278 98.5913H24.82C24.1782 98.8563 21.7049 97.7521 21.4191 97.6196C21.4009 97.6196 21.4009 97.6092 21.4009 97.6092C20.7955 97.1935 20.1824 96.7597 19.5796 96.3154C18.013 95.1644 16.4827 93.9459 15.2356 92.8028C13.3105 91.0543 12.0426 89.4876 12.2998 88.6303C12.027 88.2717 11.7516 87.8924 11.4866 87.5261C11.0319 87.9132 10.702 87.7157 10.5799 87.5261C10.2395 87.035 9.88099 86.4764 9.51206 85.8659C9.16132 85.2995 8.81317 84.6942 8.46503 84.0524C8.27537 83.7121 8.08831 83.3639 7.89865 83.0132C5.63052 78.7082 3.58323 73.5718 4.35746 72.0493C4.02751 70.8698 4.15741 71.5115 3.94177 70.293C3.28186 70.1605 3.03504 69.142 2.97788 67.791C2.88435 65.8632 3.17533 63.2678 3.17533 61.6232V61.5374C3.28965 61.1036 3.3546 60.6593 3.40137 60.215C3.69495 57.6949 3.64559 55.0864 4.63026 52.7559C4.7056 52.5766 4.8459 52.3402 5.04595 52.057C5.44086 51.4907 6.04622 50.745 6.72691 49.9058V49.8954C7.99218 48.308 9.53284 46.3828 10.4759 44.7019C10.4941 44.6837 10.5123 44.6733 10.5331 44.6551C10.6007 44.5901 10.6656 44.533 10.7332 44.4576C10.7695 44.4291 10.8085 44.4005 10.8371 44.3641H10.8475C11.2814 44.3459 11.7542 44.6291 12.0088 45.0058C12.3388 45.5073 12.4141 46.1204 12.4713 46.7154C12.7077 48.812 12.9337 50.9061 13.1702 53.0027C13.0558 54.0238 13.0455 55.0526 13.0273 56.0711C13.0169 56.9414 12.9987 57.8274 12.9987 58.6951C12.9883 59.2797 12.9805 59.8565 12.9701 60.4333C12.9597 61.4153 12.9519 62.387 12.9311 63.3587C12.8376 64.4083 12.8662 65.4657 13.0169 66.5024C13.4611 69.4018 14.8485 72.1792 16.953 74.2161C17.67 74.9046 18.4547 75.5099 19.1899 76.1517C19.2575 76.1984 19.3224 76.266 19.39 76.3231C19.7381 76.6245 20.0681 76.9467 20.3798 77.2766C20.398 77.2948 20.4188 77.3052 20.4266 77.3234C20.5123 77.4169 20.5955 77.5208 20.6812 77.6144C21.5776 78.69 22.2115 80.0228 22.0686 81.3998C22.04 81.6752 21.9829 81.9688 22.0504 82.2312C22.1258 82.4858 22.2946 82.6936 22.4947 82.8833C22.5882 82.969 22.6843 83.0548 22.7779 83.1379C25.2409 85.2917 25.9683 88.8147 26.0255 92.0805V92.0883Z" fill="url(#paint14_linear_206_17253)"/>
<path d="M42.9077 103.959C42.8531 104.247 42.7128 104.731 41.9645 105.056C41.949 105.056 41.9256 105.048 41.91 105.048C36.1786 104.315 30.8188 103.203 25.9811 100.491C26.0201 100.389 26.0591 100.28 26.0825 100.179C27.275 95.3802 28.4727 90.3971 27.5244 85.5439C27.3763 84.8034 27.275 83.8785 27.5322 83.2316C27.6569 82.8887 27.8907 82.6159 28.2649 82.4833C28.6702 82.3353 29.1144 82.4366 29.5275 82.5691C32.5647 83.52 35.0095 86.183 35.7032 89.2903C35.9292 90.3114 36.0383 91.4779 36.8645 92.117C37.34 92.4834 37.9479 92.5925 38.5091 92.7951C40.6655 93.5668 42.0685 95.7699 42.4894 98.0225C42.918 100.28 43.3623 101.707 42.9102 103.957L42.9077 103.959Z" fill="url(#paint15_linear_206_17253)"/>
<path d="M65.4853 100.837C61.2088 102.861 56.5686 104.225 51.6765 104.794C51.6531 104.723 51.1698 104.918 50.8918 104.123C50.4164 102.798 50.2839 102.089 49.2862 101.094C48.6315 100.447 47.8443 99.678 47.5871 98.8674C47.4624 98.4699 47.4624 98.0724 47.6572 97.6749C47.93 97.1215 48.499 96.8409 49.1225 96.7344C50.5567 97.3709 52.035 97.9243 53.5081 98.4309C54.8565 98.8986 56.2491 99.3428 57.6754 99.2961C58.9615 99.2571 60.2293 98.8284 61.4998 99.0233C61.9519 99.0934 62.4039 99.2337 62.8534 99.4052C63.7575 99.7404 64.6513 100.174 65.5476 100.338C65.9373 100.408 65.3995 100.798 65.4853 100.837Z" fill="url(#paint16_radial_206_17253)"/>
<path d="M86.7894 82.2031C86.7245 82.3252 86.6673 82.4577 86.592 82.5798C85.9398 83.8841 85.241 85.1208 84.4849 86.3107C80.6995 92.3538 75.7424 96.9992 69.255 100.598C68.6314 100.325 67.8494 100.231 67.0934 100.07C66.4231 99.9194 65.7891 99.7194 65.3085 99.3063C64.9759 99.0231 64.7525 98.6542 64.4017 98.3996C63.8172 97.9839 63.0403 98.0124 62.3337 97.9943C59.3978 97.9293 56.5555 96.9836 53.7782 96.0119C53.6457 95.9652 53.5236 95.9184 53.3911 95.8716C52.9832 95.7313 52.5779 95.5781 52.1726 95.4274C51.4451 95.1442 50.7384 94.822 50.0759 94.4089C47.5454 92.7929 46.2048 89.9038 45.628 86.9108C45.4955 86.212 45.402 85.5131 45.3448 84.8324C45.3084 84.4167 45.2876 83.9828 45.3084 83.5593C45.3448 82.6916 45.5449 81.8498 46.1112 81.1977C47.1868 79.9714 49.0575 79.9792 50.6527 79.631C51.8894 79.3582 53.0325 78.8178 54.1185 78.1579C54.9967 77.6383 55.8385 77.0251 56.6776 76.4302C58.8678 74.8635 61.058 73.2865 63.2508 71.7199C63.6483 71.4289 64.0432 71.1431 64.4407 70.8599C64.9785 70.6806 65.5267 70.5403 66.0827 70.4442C69.151 69.9246 72.3441 70.6988 75.111 72.1433C75.5813 72.3902 76.0464 72.6526 76.4906 72.9461C78.6808 74.2972 80.6242 76.0249 82.4948 77.8098C83.7497 79.0283 85.0071 80.3039 86.566 81.1145C86.8881 81.2756 87.0388 81.7381 86.792 82.2083L86.7894 82.2031Z" fill="url(#paint17_linear_206_17253)"/>
<path d="M92.2274 61.6286C92.2274 63.4421 92.1157 65.2269 91.8975 66.9936C91.8689 67.3236 91.8221 67.6458 91.765 67.9757C91.7546 68.0303 91.7468 68.0978 91.7364 68.155C91.1414 72.2807 90.2633 74.7177 88.6109 78.3447C88.5823 78.3914 88.5642 78.4486 88.5356 78.5057C88.0913 79.0617 86.9377 79.8282 86.4207 79.4307C83.7473 77.3626 81.8039 74.0682 78.9798 72.1586C75.5633 69.8645 71.3415 68.9786 67.9977 66.5676C67.291 66.0583 66.5636 65.3776 66.496 64.4891C66.4103 63.4031 67.3742 62.3742 67.091 61.3168C67.0338 61.1194 66.9403 60.9401 66.8364 60.7712C66.7325 60.6101 66.6285 60.4517 66.5246 60.2906C66.4493 60.1867 66.3843 60.0749 66.3272 59.9606C66.2232 59.7242 66.1661 59.4878 66.1479 59.2332V59.2228C66.1089 58.3732 66.5922 57.5054 67.3274 57.0897C67.5353 56.9676 67.7613 56.8923 68.0055 56.8637C68.9226 56.7416 70.0372 57.1287 70.8011 56.8637C70.9725 56.9105 71.1518 56.9494 71.3389 56.9676C71.991 57.0144 72.6041 56.7598 73.1991 56.5156C75.2672 55.7024 77.3924 55.0814 79.5644 54.6449H79.5748C82.8795 53.985 86.27 53.7668 89.6294 54.0214C90.2919 54.0604 90.9414 54.1175 91.6013 54.2007C91.6403 54.4371 91.6767 54.6631 91.7156 54.8996C92.0482 57.1001 92.2248 59.3475 92.2248 61.6312L92.2274 61.6286Z" fill="url(#paint18_linear_206_17253)"/>
<path style="mix-blend-mode:multiply" opacity="0.25" d="M26.0307 92.0887C26.0618 94.0919 25.906 96.0846 25.5474 98.0461C25.5474 98.0461 25.5007 98.3111 24.8226 98.5917C24.7914 96.3184 24.8927 94.0425 24.6901 91.777C24.4562 89.1997 23.7703 86.5834 22.1829 84.5439C21.84 84.0996 21.4269 83.671 20.8891 83.5229C20.4604 83.3982 19.9382 83.5307 19.6654 83.8658C20.4214 82.2784 20.4214 80.3376 19.6342 78.7554C19.0262 77.5265 18.0078 76.5522 17.0023 75.6091C16.2775 74.9232 15.5448 74.2373 14.8147 73.5462C14.3003 73.063 13.3053 72.6655 13.048 73.328C13.5235 71.7639 12.9155 70.1038 12.4947 68.5241C10.8579 62.3771 12.1517 55.8767 11.7386 49.5347C11.6685 48.4747 11.5516 47.4173 11.3333 46.3807C11.2476 45.9286 10.8657 45.118 10.7332 44.4633C10.7643 44.4321 10.8033 44.4009 10.8345 44.3697L10.8423 44.3619C11.2788 44.3464 11.7464 44.627 12.0036 45.0089C12.331 45.5077 12.4089 46.1208 12.4713 46.721C12.7051 48.8151 12.9311 50.9117 13.165 53.0058C13.0558 54.0268 13.0403 55.0531 13.0247 56.0741C13.0169 56.9445 13.0013 57.8252 12.9935 58.6982C12.9857 59.2827 12.9779 59.8595 12.9701 60.4363C12.9545 61.4184 12.9467 62.39 12.9311 63.3643C12.5648 67.3368 14.0899 71.4496 16.9582 74.2217C17.6674 74.9076 18.4547 75.5156 19.1925 76.1521C19.2549 76.2067 19.325 76.269 19.3874 76.3236C19.7381 76.6275 20.0733 76.9471 20.385 77.2823C20.4006 77.2978 20.4162 77.3134 20.424 77.329C20.5097 77.4226 20.5955 77.5239 20.6812 77.6252C21.5776 78.7008 22.2167 80.031 22.0686 81.4106C22.0452 81.6834 21.9829 81.9718 22.053 82.2368C22.1543 82.6187 22.4895 82.8837 22.7857 83.1487C25.246 85.2973 25.9709 88.8255 26.0333 92.0887H26.0307Z" fill="url(#paint19_linear_206_17253)"/>
<path d="M91.8975 66.9884C91.8689 67.2664 91.8039 68.7135 91.0947 68.5602C90.9024 68.5186 90.2295 67.4352 90.0762 67.2794C89.6371 66.8299 89.1565 66.4298 88.6473 66.0608C86.7922 64.7254 84.6228 63.7719 82.4872 62.9769C78.0549 61.3245 73.3419 60.4568 68.6342 60.0905C68.2835 60.0645 67.6729 59.8826 67.3612 60.0099C67.0936 60.1164 67.1533 60.2957 67.0208 60.5867C66.8519 60.953 67.0572 60.8543 66.7922 60.9764C66.5661 61.0829 65.9348 60.914 65.6984 60.8725C63.5264 60.5009 61.1517 59.5215 59.1772 58.5576C58.4913 58.2224 58.3432 58.1835 58.2341 57.4976C58.1613 57.0403 58.1328 56.2713 57.6677 56.0478C57.0026 55.7309 55.3502 56.1829 54.6513 56.2947C53.6121 56.4609 52.5807 56.6948 51.583 57.0221C51.0608 57.1936 50.3879 57.3729 50.0293 57.7574C49.6838 58.1315 49.5097 58.7369 49.1512 59.1396C48.3718 60.0177 47.2442 60.5347 46.153 60.9192C44.0849 61.6493 41.848 61.7818 39.702 62.1793C40.3749 63.7486 42.6352 63.6758 43.6614 65.0034C44.7371 66.396 44.6981 68.2562 44.1265 69.8437C43.7264 70.9504 41.835 73.1354 42.8119 74.2188C43.2925 74.7514 43.9628 74.8606 44.324 75.5594C44.75 76.3856 44.6227 77.3807 44.3629 78.2381C43.4146 81.3999 39.5227 83.4368 39.5383 86.9209C39.5461 88.7525 41.1361 89.4358 42.5417 90.1867C44.1837 91.0648 45.3658 92.1794 45.5295 94.1383C45.6802 95.97 45.4178 97.4769 46.1634 99.2202C46.9272 101.01 48.0262 102.673 49.211 104.209C48.8316 104.227 48.4523 104.234 48.0704 104.237C47.4287 104.242 47.3663 104.268 46.987 103.803C46.457 103.156 46.0387 102.364 45.6334 101.639C44.8903 100.317 44.1889 98.8643 44.0044 97.3392C43.8355 95.97 44.3551 94.3098 43.6588 93.0471C42.9548 91.7741 41.2348 91.3636 40.0891 90.6101C37.1714 88.6928 37.7326 85.2763 39.4993 82.7327C40.4346 81.3869 41.6791 80.2438 42.4507 78.7863C42.7703 78.1835 43.1158 77.3885 43.0379 76.687C42.9574 75.957 42.3364 75.8608 41.8324 75.4347C39.3876 73.3667 42.8145 70.2516 42.973 67.9601C43.0873 66.2921 42.1598 65.5438 40.7594 64.9567C40.0891 64.6761 39.4422 64.3747 38.9407 63.8317C38.7277 63.6005 38.5406 63.3355 38.3951 63.0575C38.3484 62.9691 38.2782 62.6781 38.2081 62.6236C37.9872 62.4469 37.7378 62.5638 37.4027 62.6418C34.2772 63.3536 30.9049 64.3955 28.2392 66.2479C26.0023 67.8016 26.8986 67.9549 26.6414 69.3942C26.3894 70.7998 25.875 72.1664 25.1579 73.4004C24.3499 74.7878 23.2665 76.0271 21.9259 76.9208C21.2712 77.3573 21.2504 77.3833 20.471 77.5054C19.7305 77.6197 18.5873 77.5548 17.7767 78.2848C16.5245 79.4124 15.3216 81.3791 14.5681 82.7951C13.5912 84.6293 12.6897 86.5701 12.2948 88.6226C12.0895 88.3576 11.5439 87.8614 11.4764 87.5314C11.414 87.217 11.783 86.5623 11.8947 86.2454C12.3649 84.9125 12.9443 83.6109 13.5185 82.3197C14.3317 80.4984 15.5294 77.2066 17.6728 76.5597C18.7069 76.2505 18.8679 76.4896 19.3642 76.2687C20.4813 75.7725 22.6118 74.3435 23.3392 73.3615C24.0147 72.4495 25.1293 69.6176 25.4489 68.529C25.4463 67.4015 25.0903 67.3807 25.5658 66.3466C26.6518 63.9798 29.967 63.3952 32.1909 62.4443C34.8903 61.2882 37.717 60.436 40.6035 59.906C42.7287 59.5137 45.4489 59.628 47.1922 58.2016C47.8729 57.6431 48.4601 56.6688 48.4133 55.7569C48.3978 55.4892 48.3302 55.045 48.1198 54.8527C47.9899 54.7332 47.7612 54.8034 47.6469 54.702C47.239 54.3539 47.1507 54.0213 47.187 53.3952C47.2624 52.1117 47.9301 50.4672 48.7069 49.4643C49.6214 48.2874 49.6942 47.0533 49.9202 45.575C50.4217 42.3066 51.2816 38.9291 52.934 36.0348C50.3541 37.5443 48.1431 39.5916 45.953 41.6025C44.9423 42.5326 43.7836 43.4082 42.8742 44.4344C42.3182 45.0605 42.6326 45.9335 42.0922 46.661C41.2894 47.747 39.889 48.0094 38.6264 47.8873C36.9168 47.7236 35.5061 47.4482 33.8069 47.9548C32.5962 48.3159 31.4609 48.8797 30.3151 49.4045C28.8913 50.0593 27.4234 50.6984 25.8568 50.9114C24.272 51.1271 22.8898 50.61 21.3387 50.4879C19.3616 50.3347 18.6705 52.2546 17.8443 53.707C16.7115 55.6971 14.5733 62.3742 11.3985 59.9631C11.1023 59.7397 10.167 58.833 9.88637 58.7758C9.63955 58.7239 9.27322 59.3058 9.17449 59.4435C8.44703 60.4724 7.75594 61.3739 7.31686 62.543C6.0542 65.905 4.87467 68.4875 4.34726 72.0416C4.03029 70.9037 3.85882 70.7712 3.97313 69.5968C4.09784 68.2926 4.65383 66.8922 5.03575 65.6426C5.72684 63.377 6.48548 61.0076 7.76114 58.9941C8.38468 58.0094 9.48366 56.6532 10.7619 57.4872C11.4322 57.9263 11.8895 58.9811 12.8534 58.7992C13.6562 58.6511 13.703 57.8249 14.0641 57.1988C15.1345 55.3438 16.1711 53.4705 17.2389 51.6129C18.1535 50.0229 19.2499 48.8096 21.2348 48.9083C22.3442 48.9629 23.4068 49.3734 24.5188 49.4227C25.8256 49.4799 27.1065 49.0694 28.3042 48.5835C30.2657 47.7885 32.1078 46.6947 34.1966 46.2349C35.4411 45.9595 36.6232 46.0062 37.8729 46.1985C38.7667 46.3362 40.1722 46.648 40.8139 45.7568C41.0608 45.4139 40.949 45.0709 41.001 44.6812C41.0686 44.1954 41.2556 43.8576 41.5856 43.5043C41.8506 43.2211 42.1624 42.9691 42.4481 42.7067C43.2665 41.9532 44.0797 41.1946 44.9059 40.4489C47.265 38.3185 50.0086 36.5856 52.6742 34.8709C53.4848 34.3486 54.2954 33.8264 55.1164 33.3224C56.9013 32.2286 58.8083 32.1974 60.8218 32.5871C63.2978 33.0652 65.727 34.1408 68.2341 34.3954C68.9824 34.4708 70.1853 34.5019 70.284 33.5147C70.3827 32.5456 69.4786 31.5271 69.4474 30.5191C69.4059 29.1759 70.2476 28.7939 71.0686 27.9418C71.9078 27.0662 72.4274 25.8373 72.4534 24.624C73.1601 25.0657 73.6225 25.1696 73.4433 26.0478C73.2458 27.0169 72.8067 27.9132 72.256 28.7316C71.8221 29.3707 70.9777 29.7526 71.0219 30.5684C71.066 31.3583 71.6168 32.0857 71.7701 32.8573C72.1858 34.9384 70.4763 36.0244 68.6082 35.9828C67.4963 35.9569 66.3999 35.5983 65.3295 35.3203C62.734 34.6448 59.1928 33.1276 56.6181 34.2603C54.4617 35.2086 53.4926 37.339 52.7963 39.4435C52.0351 41.7428 51.6557 44.1434 51.3492 46.5389C51.2349 47.4352 51.2401 48.7083 50.6477 49.4617C50.3801 49.802 50.1644 49.919 49.9462 50.3269C49.7488 50.6906 49.5591 51.0569 49.372 51.4258C49.1122 51.9403 48.3302 53.1692 48.7355 53.7667C49.0057 54.1642 48.9979 53.7797 49.4006 53.9564C49.8007 54.1305 50.2736 55.4217 50.3593 55.7854C51.9182 55.1489 53.5783 54.7566 55.2567 54.6163C56.0751 54.5487 57.8808 54.2967 58.5563 54.9826C58.8914 55.323 58.8109 55.8348 58.9408 56.2531C59.1824 57.0273 59.9956 57.217 60.7127 57.5106C61.4843 57.8301 62.2637 58.1263 63.0509 58.4069C63.7602 58.6589 65.0723 59.376 65.8205 59.3058C66.3765 59.2539 65.9556 59.1993 66.2544 58.7992C66.6207 58.3082 67.304 58.4459 67.8262 58.49C69.4188 58.6277 71.0089 58.7421 72.5937 58.9499C75.9608 59.3968 79.2942 60.1424 82.4924 61.2934C85.8413 62.4989 89.6345 64.0915 91.8949 66.9702L91.8975 66.9884Z" fill="url(#paint20_linear_206_17253)"/>
<g style="mix-blend-mode:multiply">
<path d="M91.8975 66.9884C91.8689 67.2664 91.8039 68.7135 91.0947 68.5602C90.9024 68.5186 90.2295 67.4352 90.0762 67.2794C89.6371 66.8299 89.1565 66.4298 88.6473 66.0608C86.7922 64.7254 84.6228 63.7719 82.4872 62.9769C78.0549 61.3245 73.3419 60.4568 68.6342 60.0905C68.2835 60.0645 67.6729 59.8826 67.3612 60.0099C67.0936 60.1164 67.1533 60.2957 67.0208 60.5867C66.8519 60.953 67.0572 60.8543 66.7922 60.9764C66.5661 61.0829 65.9348 60.914 65.6984 60.8725C63.5264 60.5009 61.1517 59.5215 59.1772 58.5576C58.4913 58.2224 58.3432 58.1835 58.2341 57.4976C58.1613 57.0403 58.1328 56.2713 57.6677 56.0478C57.0026 55.7309 55.3502 56.1829 54.6513 56.2947C53.6121 56.4609 52.5807 56.6948 51.583 57.0221C51.0608 57.1936 50.3879 57.3729 50.0293 57.7574C49.6838 58.1315 49.5097 58.7369 49.1512 59.1396C48.3718 60.0177 47.2442 60.5347 46.153 60.9192C44.0849 61.6493 41.848 61.7818 39.702 62.1793C40.3749 63.7486 42.6352 63.6758 43.6614 65.0034C44.7371 66.396 44.6981 68.2562 44.1265 69.8437C43.7264 70.9504 41.835 73.1354 42.8119 74.2188C43.2925 74.7514 43.9628 74.8606 44.324 75.5594C44.75 76.3856 44.6227 77.3807 44.3629 78.2381C43.4146 81.3999 39.5227 83.4368 39.5383 86.9209C39.5461 88.7525 41.1361 89.4358 42.5417 90.1867C44.1837 91.0648 45.3658 92.1794 45.5295 94.1383C45.6802 95.97 45.4178 97.4769 46.1634 99.2202C46.9272 101.01 48.0262 102.673 49.211 104.209C48.8316 104.227 48.4523 104.234 48.0704 104.237C47.4287 104.242 47.3663 104.268 46.987 103.803C46.457 103.156 46.0387 102.364 45.6334 101.639C44.8903 100.317 44.1889 98.8643 44.0044 97.3392C43.8355 95.97 44.3551 94.3098 43.6588 93.0471C42.9548 91.7741 41.2348 91.3636 40.0891 90.6101C37.1714 88.6928 37.7326 85.2763 39.4993 82.7327C40.4346 81.3869 41.6791 80.2438 42.4507 78.7863C42.7703 78.1835 43.1158 77.3885 43.0379 76.687C42.9574 75.957 42.3364 75.8608 41.8324 75.4347C39.3876 73.3667 42.8145 70.2516 42.973 67.9601C43.0873 66.2921 42.1598 65.5438 40.7594 64.9567C40.0891 64.6761 39.4422 64.3747 38.9407 63.8317C38.7277 63.6005 38.5406 63.3355 38.3951 63.0575C38.3484 62.9691 38.2782 62.6781 38.2081 62.6236C37.9872 62.4469 37.7378 62.5638 37.4027 62.6418C34.2772 63.3536 30.9049 64.3955 28.2392 66.2479C26.0023 67.8016 26.8986 67.9549 26.6414 69.3942C26.3894 70.7998 25.875 72.1664 25.1579 73.4004C24.3499 74.7878 23.2665 76.0271 21.9259 76.9208C21.2712 77.3573 21.2504 77.3833 20.471 77.5054C19.7305 77.6197 18.5873 77.5548 17.7767 78.2848C16.5245 79.4124 15.3216 81.3791 14.5681 82.7951C13.5912 84.6293 12.6897 86.5701 12.2948 88.6226C12.0895 88.3576 11.5439 87.8614 11.4764 87.5314C11.414 87.217 11.783 86.5623 11.8947 86.2454C12.3649 84.9125 12.9443 83.6109 13.5185 82.3197C14.3317 80.4984 15.5294 77.2066 17.6728 76.5597C18.7069 76.2505 18.8679 76.4896 19.3642 76.2687C20.4813 75.7725 22.6118 74.3435 23.3392 73.3615C24.0147 72.4495 25.1293 69.6176 25.4489 68.529C25.4463 67.4015 25.0903 67.3807 25.5658 66.3466C26.6518 63.9798 29.967 63.3952 32.1909 62.4443C34.8903 61.2882 37.717 60.436 40.6035 59.906C42.7287 59.5137 45.4489 59.628 47.1922 58.2016C47.8729 57.6431 48.4601 56.6688 48.4133 55.7569C48.3978 55.4892 48.3302 55.045 48.1198 54.8527C47.9899 54.7332 47.7612 54.8034 47.6469 54.702C47.239 54.3539 47.1507 54.0213 47.187 53.3952C47.2624 52.1117 47.9301 50.4672 48.7069 49.4643C49.6214 48.2874 49.6942 47.0533 49.9202 45.575C50.4217 42.3066 51.2816 38.9291 52.934 36.0348C50.3541 37.5443 48.1431 39.5916 45.953 41.6025C44.9423 42.5326 43.7836 43.4082 42.8742 44.4344C42.3182 45.0605 42.6326 45.9335 42.0922 46.661C41.2894 47.747 39.889 48.0094 38.6264 47.8873C36.9168 47.7236 35.5061 47.4482 33.8069 47.9548C32.5962 48.3159 31.4609 48.8797 30.3151 49.4045C28.8913 50.0593 27.4234 50.6984 25.8568 50.9114C24.272 51.1271 22.8898 50.61 21.3387 50.4879C19.3616 50.3347 18.6705 52.2546 17.8443 53.707C16.7115 55.6971 14.5733 62.3742 11.3985 59.9631C11.1023 59.7397 10.167 58.833 9.88637 58.7758C9.63955 58.7239 9.27322 59.3058 9.17449 59.4435C8.44703 60.4724 7.75594 61.3739 7.31686 62.543C6.0542 65.905 4.87467 68.4875 4.34726 72.0416C4.03029 70.9037 3.85882 70.7712 3.97313 69.5968C4.09784 68.2926 4.65383 66.8922 5.03575 65.6426C5.72684 63.377 6.48548 61.0076 7.76114 58.9941C8.38468 58.0094 9.48366 56.6532 10.7619 57.4872C11.4322 57.9263 11.8895 58.9811 12.8534 58.7992C13.6562 58.6511 13.703 57.8249 14.0641 57.1988C15.1345 55.3438 16.1711 53.4705 17.2389 51.6129C18.1535 50.0229 19.2499 48.8096 21.2348 48.9083C22.3442 48.9629 23.4068 49.3734 24.5188 49.4227C25.8256 49.4799 27.1065 49.0694 28.3042 48.5835C30.2657 47.7885 32.1078 46.6947 34.1966 46.2349C35.4411 45.9595 36.6232 46.0062 37.8729 46.1985C38.7667 46.3362 40.1722 46.648 40.8139 45.7568C41.0608 45.4139 40.949 45.0709 41.001 44.6812C41.0686 44.1954 41.2556 43.8576 41.5856 43.5043C41.8506 43.2211 42.1624 42.9691 42.4481 42.7067C43.2665 41.9532 44.0797 41.1946 44.9059 40.4489C47.265 38.3185 50.0086 36.5856 52.6742 34.8709C53.4848 34.3486 54.2954 33.8264 55.1164 33.3224C56.9013 32.2286 58.8083 32.1974 60.8218 32.5871C63.2978 33.0652 65.727 34.1408 68.2341 34.3954C68.9824 34.4708 70.1853 34.5019 70.284 33.5147C70.3827 32.5456 69.4786 31.5271 69.4474 30.5191C69.4059 29.1759 70.2476 28.7939 71.0686 27.9418C71.9078 27.0662 72.4274 25.8373 72.4534 24.624C73.1601 25.0657 73.6225 25.1696 73.4433 26.0478C73.2458 27.0169 72.8067 27.9132 72.256 28.7316C71.8221 29.3707 70.9777 29.7526 71.0219 30.5684C71.066 31.3583 71.6168 32.0857 71.7701 32.8573C72.1858 34.9384 70.4763 36.0244 68.6082 35.9828C67.4963 35.9569 66.3999 35.5983 65.3295 35.3203C62.734 34.6448 59.1928 33.1276 56.6181 34.2603C54.4617 35.2086 53.4926 37.339 52.7963 39.4435C52.0351 41.7428 51.6557 44.1434 51.3492 46.5389C51.2349 47.4352 51.2401 48.7083 50.6477 49.4617C50.3801 49.802 50.1644 49.919 49.9462 50.3269C49.7488 50.6906 49.5591 51.0569 49.372 51.4258C49.1122 51.9403 48.3302 53.1692 48.7355 53.7667C49.0057 54.1642 48.9979 53.7797 49.4006 53.9564C49.8007 54.1305 50.2736 55.4217 50.3593 55.7854C51.9182 55.1489 53.5783 54.7566 55.2567 54.6163C56.0751 54.5487 57.8808 54.2967 58.5563 54.9826C58.8914 55.323 58.8109 55.8348 58.9408 56.2531C59.1824 57.0273 59.9956 57.217 60.7127 57.5106C61.4843 57.8301 62.2637 58.1263 63.0509 58.4069C63.7602 58.6589 65.0723 59.376 65.8205 59.3058C66.3765 59.2539 65.9556 59.1993 66.2544 58.7992C66.6207 58.3082 67.304 58.4459 67.8262 58.49C69.4188 58.6277 71.0089 58.7421 72.5937 58.9499C75.9608 59.3968 79.2942 60.1424 82.4924 61.2934C85.8413 62.4989 89.6345 64.0915 91.8949 66.9702L91.8975 66.9884Z" fill="url(#paint21_radial_206_17253)"/>
</g>
<path style="mix-blend-mode:multiply" d="M90.2525 40.0642C90.1512 40.4695 89.9018 40.8826 89.5043 41.0203C89.3016 41.0904 89.0756 41.0904 88.8652 41.067C88.4754 41.0281 88.0935 40.9423 87.7194 40.8176H87.7116C87.1426 40.6306 86.597 40.3656 86.067 40.085C84.5965 39.3055 83.178 38.3702 82.1023 37.1024C81.3775 36.2294 80.3902 34.4315 80.3486 32.9117V32.9039C80.3331 32.1946 80.5279 31.5399 81.0501 31.0826C82.8194 29.516 85.3499 32.3531 86.3606 33.5352C87.1088 34.4082 87.8571 35.2733 88.6027 36.1359C89.5614 37.2583 90.5955 38.6274 90.2447 40.0616L90.2525 40.0642Z" fill="url(#paint22_radial_206_17253)"/>
<path style="mix-blend-mode:multiply" opacity="0.25" d="M42.9076 103.959C42.853 104.247 42.7127 104.73 41.9645 105.055C41.9489 105.055 41.9255 105.047 41.9099 105.047C41.7462 104.668 41.754 104.177 41.7774 103.741C41.9021 101.67 42.0035 99.5265 41.3098 97.5649C40.6083 95.6008 38.9195 93.8496 36.8463 93.7249C36.8696 94.8941 36.5267 96.0606 35.8798 97.0427C36.6514 95.0734 36.1214 92.8442 35.3264 90.8904C34.5703 89.051 33.5675 87.2843 32.1723 85.8683C30.9746 84.6524 29.5015 83.7587 27.8491 83.3144C27.7634 83.291 27.6542 83.2677 27.5295 83.2365C27.6542 82.8935 27.8881 82.6207 28.2622 82.4882C28.6675 82.3401 29.1118 82.4415 29.5249 82.574C32.562 83.5249 35.0068 86.1879 35.7005 89.2952C35.9265 90.3163 36.0357 91.4828 36.8619 92.1219C37.3373 92.4883 37.9453 92.5974 38.5064 92.8C40.6629 93.5717 42.0658 95.7748 42.4867 98.0274C42.9154 100.285 43.3597 101.711 42.9076 103.961V103.959Z" fill="url(#paint23_linear_206_17253)"/>
<path style="mix-blend-mode:multiply" opacity="0.25" d="M58.7643 55.8893C58.663 55.788 58.585 55.6399 58.5227 55.5074C58.2343 54.8994 58.0238 54.2551 57.8939 53.6004C57.7614 52.9768 57.6445 52.2546 57.0911 51.9428C56.7871 51.7791 56.4208 51.7791 56.0805 51.8103C53.472 52.0675 51.3052 53.9122 48.7902 54.6552C45.4959 55.6295 41.9443 54.6162 38.7668 53.299C38.2212 53.073 37.6678 52.8391 37.0833 52.8236C36.3662 52.8002 35.6985 53.1119 35.0516 53.4081C33.9084 53.9459 32.7627 54.4759 31.6169 55.0137C31.1493 55.232 30.6504 55.4814 30.4244 55.9465C30.2763 56.2504 30.2685 56.6012 30.2217 56.9363C30.0113 58.4302 28.8967 59.6773 27.6366 60.5113C26.374 61.3531 24.9268 61.8831 23.5862 62.5898C22.6665 63.0652 22.0975 63.6186 22.1781 64.6942C22.0534 64.476 21.9598 64.2421 21.9442 63.9927C21.9131 63.4549 22.2326 62.9561 22.6223 62.5768C23.2225 61.9922 23.9707 61.6337 24.732 61.2985C25.5894 60.9322 26.4701 60.5918 27.208 60.0384C28.7746 58.8537 29.6138 57.3053 29.8944 55.6451C31.0791 54.4526 32.6509 53.629 34.1708 52.8417C34.997 52.4209 35.8544 51.9844 36.7871 51.9142C38.4914 51.7895 40.0113 52.8963 41.5624 53.6186C43.3369 54.4448 45.3322 54.7955 47.2859 54.6162C49.076 54.4604 54.6229 50.5502 57.4886 51.618C57.551 51.6414 57.6211 51.6726 57.6835 51.696C58.4681 52.9353 58.8344 54.4292 58.7643 55.8945V55.8893Z" fill="url(#paint24_linear_206_17253)"/>
<path style="mix-blend-mode:multiply" opacity="0.25" d="M90.5879 50.696C90.5255 51.0312 90.4008 51.3274 90.1358 51.5378C89.863 51.7483 89.5278 51.8106 89.1693 51.8184C89.0134 51.8262 88.8497 51.8184 88.6938 51.8106C83.7575 51.5846 78.7796 52.3017 74.0978 53.9125C73.2404 54.2087 72.3441 54.5438 71.466 54.4425C71.3568 54.4347 71.2555 54.4191 71.1464 54.3879C69.3407 53.967 68.5379 51.8028 67.0648 50.7116C66.8336 50.5402 66.566 50.3921 66.288 50.283C65.8359 50.1115 65.3683 50.0569 64.8928 50.0647H64.885C64.3784 50.0725 63.8718 50.1427 63.3573 50.205C62.5779 50.2985 61.7933 50.3687 61.0502 50.1582C59.8421 49.8231 58.9328 48.7891 57.7325 48.4227C55.8255 47.8226 53.8847 49.0229 51.9466 49.5217C51.3776 49.6698 50.7852 49.7555 50.1954 49.7711C49.6343 49.7867 49.0653 49.7477 48.5119 49.6542C48.0442 49.5763 47.5844 49.4594 47.1323 49.3035C45.6202 48.7891 44.251 47.8641 43.2534 46.6093C42.7623 45.9779 42.3336 45.2686 41.6555 44.8504C40.4656 44.1021 38.9302 44.4139 37.6675 43.8059C37.3947 43.6734 36.9582 43.2525 36.5061 42.8862C36.4672 42.8083 36.4438 42.7381 36.4204 42.668C37.6363 43.463 39.2705 43.6345 40.6813 43.5955C41.2736 43.5799 41.879 43.5175 42.4324 43.7124C43.3209 44.0164 43.8509 44.8971 44.4719 45.596C45.9138 47.225 48.1715 48.0876 50.3279 47.8407C52.8273 47.5446 55.2825 45.8844 57.6649 46.6716C59.2212 47.186 60.4371 48.6877 62.0739 48.7189C62.978 48.7423 63.8484 48.2824 64.7525 48.2902C67.1583 48.3136 68.4366 51.3118 70.7177 52.0756C71.5205 52.3406 72.3857 52.3095 73.2275 52.2783C75.5242 52.177 77.8287 52.0834 80.0656 51.5456C81.3517 51.2338 82.6117 50.774 83.929 50.6675C86.1477 50.4804 88.4626 51.2598 90.5801 50.6986L90.5879 50.696Z" fill="url(#paint25_linear_206_17253)"/>
<path style="mix-blend-mode:multiply" opacity="0.25" d="M88.6106 78.3451C88.5872 78.3918 88.5638 78.4464 88.5404 78.501C88.0884 79.0621 86.9348 79.8234 86.423 79.4259C83.7522 77.3552 81.8036 74.0686 78.9769 72.159C75.5656 69.8623 71.3437 68.9738 68.0026 66.5654C67.2881 66.0509 66.5632 65.3754 66.5009 64.4869C66.4152 63.4061 67.3712 62.3695 67.0933 61.3172C67.0387 61.1146 66.9452 60.9353 66.836 60.7638C66.6724 60.491 66.4697 60.2338 66.3294 59.9532C66.2203 59.7194 66.1657 59.4778 66.1501 59.2284V59.2206C66.1112 58.371 66.5944 57.4981 67.3245 57.085C67.2699 57.1785 67.2232 57.2798 67.2076 57.3811C67.1296 57.854 67.2621 58.371 67.4024 58.8231C67.7298 59.8571 68.213 60.847 68.8262 61.7433C68.5845 61.7511 68.3455 61.7511 68.1013 61.7511C68.4209 62.476 67.6648 63.3567 68.0156 64.0556C68.1247 64.2661 68.3117 64.4219 68.491 64.57C70.3045 65.9938 72.3544 67.124 74.5264 67.8956C76.8542 68.7296 79.4549 69.2414 81.1541 71.0419C81.4892 71.4004 81.8166 71.8291 82.2998 71.9538C83.1494 72.172 83.8717 71.3614 84.3705 70.647C84.2458 71.5797 83.6768 72.4448 82.8584 72.9203C84.29 73.7751 85.5137 74.9598 86.4178 76.3627C86.9322 77.1474 87.4544 78.0983 88.3793 78.2931C88.4573 78.3087 88.5274 78.3165 88.6054 78.3399L88.6106 78.3451Z" fill="url(#paint26_linear_206_17253)"/>
<path style="mix-blend-mode:multiply" opacity="0.25" d="M76.4904 72.9384C74.6848 72.2759 72.8375 71.6914 70.9306 71.4731C68.5715 71.2003 66.0721 71.5199 64.0846 72.8111C63.4377 73.2398 62.8375 73.775 62.4946 74.4713C62.1594 75.1702 62.1282 76.0431 62.5491 76.6901C61.8944 76.4952 61.2397 76.3004 60.585 76.1055C58.5143 78.4879 55.3602 79.6103 52.3075 80.4287C50.9903 80.7795 49.6289 81.1068 48.4753 81.8395C46.7632 82.9229 45.7265 84.9 45.6252 86.9005C45.4927 86.2095 45.3992 85.508 45.3446 84.8221C45.3057 84.409 45.2901 83.9803 45.3057 83.5516C45.3446 82.6813 45.5473 81.8395 46.1085 81.1926C47.1841 79.9637 49.0521 79.9766 50.6499 79.6285C52.8921 79.1375 54.8172 77.7657 56.6775 76.4277C59.2626 74.5726 61.8477 72.7124 64.4353 70.8522C64.9731 70.6729 65.5265 70.5326 66.0851 70.4391C69.1535 69.9169 72.3387 70.6963 75.1057 72.1382C75.5811 72.3876 76.041 72.6527 76.4931 72.941L76.4904 72.9384Z" fill="url(#paint27_linear_206_17253)"/>
<path style="mix-blend-mode:multiply" opacity="0.25" d="M62.8535 99.4052C61.6922 99.3273 60.523 99.3117 59.4344 99.6936C58.7641 99.9274 58.1406 100.302 57.4495 100.442C56.5531 100.629 55.6256 100.395 54.7397 100.161C53.5576 99.8495 52.365 99.5377 51.2583 99.0233C50.549 98.7037 49.8553 98.2906 49.0837 98.2439C48.5251 98.2049 47.9093 98.4387 47.5898 98.8674C47.465 98.4699 47.4651 98.0724 47.6599 97.6749C47.9327 97.1215 48.5017 96.8409 49.1252 96.7344C50.5594 97.3709 52.0377 97.9243 53.5108 98.4309C54.8592 98.8986 56.2518 99.3428 57.6781 99.2961C58.9642 99.2571 60.232 98.8284 61.5025 99.0233C61.9546 99.0934 62.4066 99.2337 62.8561 99.4052H62.8535Z" fill="url(#paint28_linear_206_17253)"/>
<path style="mix-blend-mode:multiply" opacity="0.25" d="M72.8972 82.7983C72.879 83.1802 72.9518 83.5985 73.2376 83.8557C73.7026 84.2792 74.4431 84.0609 75.0172 83.8037C76.5319 83.1204 79.5327 81.4473 78.6494 79.3194C77.9505 77.6333 75.7265 78.9661 74.799 79.6936C73.8273 80.46 72.957 81.507 72.8972 82.7983Z" fill="url(#paint29_linear_206_17253)"/>
<path style="mix-blend-mode:multiply" opacity="0.25" d="M67.5555 85.1122C67.501 85.1563 67.4412 85.2135 67.4438 85.2836C67.4438 85.3278 67.4724 85.3694 67.501 85.4031C67.6646 85.5876 67.9348 85.6474 68.1791 85.6136C68.4233 85.5798 68.6467 85.4655 68.865 85.3512C69.4158 85.0602 69.9977 84.7017 70.2108 84.1171C70.5537 83.1896 69.7795 83.3922 69.3274 83.704C68.7117 84.1327 68.1271 84.6263 67.5529 85.1122H67.5555Z" fill="url(#paint30_linear_206_17253)"/>
<path style="mix-blend-mode:multiply" d="M81.921 46.4661C81.6794 46.6375 81.3598 46.6999 81.0714 46.6297C81.0247 46.6219 80.9701 46.6064 80.9233 46.5908C80.7051 46.4972 80.5258 46.3413 80.3544 46.1855C79.3099 45.2657 77.629 44.2551 78.3616 42.6651V42.6573C78.3772 42.6183 78.3928 42.5793 78.4162 42.5404C79.3281 40.8048 81.0403 42.9379 81.7184 43.8264C82.0145 44.2161 82.2951 44.6526 82.3809 45.1332C82.4666 45.6243 82.3185 46.1777 81.921 46.4661Z" fill="url(#paint31_radial_206_17253)"/>
<path d="M26.4908 34.2702C21.344 35.7433 18.7174 34.9483 18.7875 33.4518C18.7875 33.3973 18.7953 33.3427 18.8109 33.2804C18.8499 32.9842 18.9979 32.6646 19.2474 32.3373C19.7852 31.628 20.3697 30.9966 20.9205 30.4692C19.1201 31.9657 16.5739 34.091 15.2125 35.2679C13.5861 36.6709 10.9361 37.1749 11.2323 35.7667C11.2868 35.4939 11.4427 35.1588 11.7467 34.7379C11.7467 34.7379 22.0429 16.3564 44.5501 16.3564C46.2025 16.3564 47.5717 16.4344 48.7018 16.5747C63.0017 18.4037 37.9146 30.9992 26.4882 34.2702H26.4908Z" fill="url(#paint32_linear_206_17253)"/>
<path d="M10.406 42.5952C9.63437 43.0472 9.1901 43.0862 8.97186 42.8914C8.30155 42.3224 9.54084 39.6905 9.54084 39.6905C10.2111 38.3915 10.3203 38.0174 11.3231 37.968C11.4634 37.9524 11.6193 37.9524 11.7986 37.9602C13.2639 38.007 13.4899 40.8103 10.4034 42.5952H10.406Z" fill="url(#paint33_linear_206_17253)"/>
<path style="mix-blend-mode:multiply" opacity="0.5" d="M10.4059 42.5952C9.63431 43.0472 9.19004 43.0862 8.9718 42.8914C9.27578 42.7355 9.54078 42.4783 9.77461 42.2211C10.819 41.0675 11.6998 39.5268 11.3335 38.0148C11.3335 37.9992 11.3257 37.9836 11.3257 37.968C11.466 37.9524 11.6218 37.9524 11.8011 37.9602C13.2664 38.007 13.4925 40.8103 10.4059 42.5952Z" fill="url(#paint34_radial_206_17253)"/>
<path style="mix-blend-mode:multiply" opacity="0.5" d="M24.4877 26.5674C24.4721 26.6064 24.4409 26.6531 24.402 26.7077C23.794 27.5573 20.9205 30.4697 20.9205 30.4697C19.1201 31.9662 16.5739 34.0914 15.2125 35.2684C13.5861 36.6713 10.9361 37.1754 11.2323 35.7672C11.2401 35.775 11.2479 35.7828 11.2635 35.7906C11.3726 35.8685 11.5285 35.8763 11.661 35.8607C12.3079 35.7906 12.8535 35.3697 13.3601 34.9644C15.8828 32.9717 18.4056 30.9685 20.9309 28.9758C21.4298 28.5783 21.9286 28.1808 22.4716 27.8456C23.1497 27.4248 23.8979 27.1052 24.4903 26.5674H24.4877Z" fill="url(#paint35_radial_206_17253)"/>
<path style="mix-blend-mode:multiply" opacity="0.5" d="M26.4905 34.2707C21.3437 35.7439 18.717 34.9488 18.7872 33.4523C18.7872 33.3978 18.795 33.3432 18.8106 33.2809C19.0054 33.3822 19.1925 33.5459 19.3562 33.6316C19.9407 33.92 21.0579 33.7667 21.6425 33.5796C26.384 32.0702 30.6007 30.0333 34.4017 26.8246C33.217 28.6615 31.5126 30.158 29.5407 31.0933C33.6067 30.3528 37.1972 28.0405 40.6553 25.775C43.1468 24.1486 45.6488 22.5118 47.9819 20.6568C48.5508 20.1969 49.1276 19.7137 49.4394 19.0512C49.7589 18.3965 49.7356 17.5183 49.1978 17.0273C49.0419 16.887 48.8314 16.7389 48.6989 16.5752C62.9988 18.4042 37.9117 30.9998 26.4853 34.2707H26.4905Z" fill="url(#paint36_radial_206_17253)"/>
<path style="mix-blend-mode:multiply" d="M81.9208 46.4667C81.6792 46.6382 81.3596 46.7005 81.0712 46.6304L81.0635 46.6226C81.0635 46.6226 81.991 46.3238 81.9364 45.469C81.8481 44.0921 80.2373 42.502 79.8424 42.3409C78.8707 41.946 78.3615 42.6631 78.3615 42.6631V42.6553C78.377 42.6163 78.3926 42.5774 78.416 42.5384C79.3279 40.8029 81.0401 42.9359 81.7182 43.8245C82.0144 44.2142 82.2949 44.6506 82.3807 45.1313C82.4664 45.6223 82.3183 46.1757 81.9208 46.4641V46.4667Z" fill="url(#paint37_radial_206_17253)"/>
<path style="mix-blend-mode:multiply" d="M90.2526 40.0645C90.1513 40.4698 89.9019 40.8829 89.5044 41.0206C89.3017 41.0908 89.0757 41.0908 88.8652 41.0674C88.4755 41.0284 88.0936 40.9427 87.7195 40.818C88.8237 40.8725 89.0991 40.3815 89.0497 39.6722C89.0029 38.9707 88.2001 37.7678 87.2726 36.2921C86.9634 35.8011 84.3991 32.2755 82.7727 31.6909C81.2087 31.1297 80.4137 32.7743 80.3513 32.9068C80.3357 32.1975 80.5306 31.5428 81.0528 31.0855C82.8221 29.5189 85.3526 32.356 86.3633 33.5381C87.1115 34.4111 87.8598 35.2762 88.6054 36.1388C89.5641 37.2612 90.5982 38.6304 90.2474 40.0645H90.2526Z" fill="url(#paint38_radial_206_17253)"/>
<path opacity="0.38" d="M22.4946 82.8914C21.4554 83.3642 20.4161 83.6188 19.3301 83.2993C18.6312 83.0914 18.0077 82.6549 17.2906 82.5068C16.4021 82.3276 15.5057 82.6212 14.6094 82.7718C14.5237 82.79 14.4483 82.8004 14.3652 82.8108C14.0534 82.8576 13.7417 82.868 13.4299 82.8394C12.6167 82.7641 11.9282 82.3691 11.3332 81.8209C10.6343 81.1506 10.1069 80.2361 9.7458 79.3268C9.10407 77.6666 8.7923 75.835 7.75307 74.38C7.1685 73.5564 6.3553 72.8576 6.0825 71.8859C5.91103 71.2909 5.96819 70.6492 5.78892 70.0542C5.4122 68.7994 4.26904 68.2512 2.97519 67.7965C2.88166 65.8687 3.17265 63.2732 3.17265 61.6286V61.5429C3.28696 61.109 3.35192 60.6648 3.39868 60.2205C3.69227 57.7003 3.6429 55.0919 4.62758 52.7614C4.70292 52.5821 4.84322 52.3457 5.04327 52.0625C5.01469 52.8471 5.01469 53.546 5.15499 53.9695C5.74995 55.7934 7.78944 57.2743 9.56393 56.5754C8.95079 59.5684 9.76139 62.816 11.697 65.1854C12.0919 65.6661 12.5283 66.1103 13.009 66.5078C13.4533 69.4073 14.8406 72.1847 16.9451 74.2215C17.6622 74.91 18.4468 75.5154 19.182 76.1571C19.2496 76.2039 19.3145 76.2714 19.3821 76.3286C19.7302 76.63 20.0602 76.9521 20.372 77.2821C20.3901 77.3003 20.4109 77.3107 20.4187 77.3289C20.5045 77.4224 20.5876 77.5263 20.6733 77.6198C21.5697 78.6955 22.2036 80.0283 22.0607 81.4053C22.0321 81.6807 21.975 81.9742 22.0425 82.2366C22.1179 82.4913 22.2867 82.6991 22.4868 82.8888L22.4946 82.8914Z" fill="#E83614"/>
<path opacity="0.38" d="M35.1399 73.5541C37.395 75.0739 40.0581 75.9911 42.7783 76.1703C42.108 77.0017 41.3155 77.8409 40.4374 78.0877C40.0607 78.202 39.6735 78.202 39.2656 78.0487C38.8603 77.8903 38.5304 77.5967 38.19 77.3421C35.6205 75.4351 31.8351 75.6429 29.4943 73.4605C28.7564 72.7798 28.2186 71.8939 27.699 71.0417C27.6522 70.956 27.5847 70.8624 27.5015 70.7585C27.9276 70.6182 28.3615 70.5039 28.8136 70.4753C31.2038 70.3065 33.1576 72.2135 35.1399 73.5541Z" fill="#E83614"/>
<path opacity="0.38" d="M84.4849 86.3107C80.6995 92.3538 75.7424 96.9992 69.255 100.598C68.6314 100.325 67.8494 100.231 67.0934 100.07C66.6855 99.683 66.3087 99.2569 65.9684 98.823C64.6278 97.1135 63.6067 95.1311 62.0115 93.6502C60.4267 92.1667 57.9715 91.2886 56.0619 92.3174C54.5888 93.1098 53.6821 94.8843 52.1726 95.4247C51.4451 95.1415 50.7384 94.8194 50.0759 94.4063C47.5454 92.7903 46.2048 89.9012 45.628 86.9082C45.4955 86.2093 45.402 85.5104 45.3448 84.8297C45.3084 84.4141 45.2876 83.9802 45.3084 83.5567C45.3448 82.6889 45.5449 81.8472 46.1112 81.195C47.1868 79.9687 49.0575 79.9765 50.6527 79.6284C51.8894 79.3556 53.0325 78.8152 54.1185 78.1553C54.5264 78.241 54.9109 78.3527 55.2721 78.571C56.4802 79.288 56.9245 80.8365 57.9897 81.7432C60.3124 83.7256 64.316 81.9147 66.7062 83.8009C68.0858 84.8869 68.5483 86.9628 70.1227 87.7474C71.9544 88.6437 74.3238 87.2849 76.1555 88.1995C76.7426 88.493 77.2519 89.0127 77.9014 89.0386C78.5145 89.0776 79.0523 88.6619 79.5538 88.3112C80.9801 87.3187 82.6221 86.6406 84.3316 86.3366C84.3784 86.3262 84.4356 86.3185 84.4823 86.3081L84.4849 86.3107Z" fill="#E83614"/>
<path opacity="0.38" d="M56.969 66.4817C56.4676 67.7834 55.2413 68.4641 53.8799 68.9369C53.5318 68.7472 53.1628 68.5966 52.7679 68.5108C52.069 68.3497 51.3338 68.3965 50.6349 68.2562C47.6029 67.6249 46.3844 63.8265 43.685 62.3066C40.7024 60.636 36.2545 61.9195 34.1189 59.2461C32.9471 57.7729 32.7315 55.3463 31.0869 54.6397C32.0404 53.9408 33.1186 53.3848 34.1656 52.8366C34.997 52.4105 35.8544 51.9766 36.7819 51.9117C36.8183 51.9117 36.8573 51.9039 36.8962 51.9117H36.904C38.8786 53.9616 40.7102 56.2089 43.4018 56.8896C45.6777 57.4664 48.1719 56.7857 50.3803 57.5781C52.2691 58.2588 53.685 59.9371 55.6024 60.5607C56.0467 60.7036 56.5092 60.7867 56.9716 60.8179V60.8283C56.4624 62.6703 57.6419 64.6994 56.9716 66.4843L56.969 66.4817Z" fill="#E83614"/>
<path opacity="0.38" d="M86.7895 82.2021C86.7245 82.3242 86.6674 82.4567 86.592 82.5788C84.8643 83.1166 83.0223 83.1738 81.3023 82.5788C81.0295 82.4853 80.7463 82.3632 80.5775 82.1346C80.2085 81.6331 80.5125 80.955 80.6138 80.3497C80.8788 78.848 79.5278 77.2891 78.0184 77.3281C76.8934 77.3463 75.9321 78.0842 74.9318 78.583C73.9212 79.074 72.552 79.2819 71.8063 78.4427C71.2296 77.7906 71.2971 76.8189 71.1075 75.9693C70.5125 73.2777 67.3792 72.0046 64.62 71.776C64.168 71.737 63.7133 71.7189 63.2509 71.7111C63.6484 71.4201 64.0433 71.1343 64.4408 70.8511C64.9786 70.6718 65.5268 70.5315 66.0828 70.4354C69.1511 69.9158 72.3441 70.69 75.1111 72.1345C75.5814 72.3814 76.0464 72.6438 76.4907 72.9374C78.6809 74.2884 80.6242 76.0161 82.4949 77.801C83.7497 79.0195 85.0072 80.2951 86.5661 81.1057C86.8882 81.2668 87.0389 81.7293 86.7921 82.1995L86.7895 82.2021Z" fill="#E83614"/>
<path opacity="0.38" d="M91.7647 67.9732C91.7543 68.0278 91.7465 68.0953 91.7362 68.1525C91.1412 72.2782 90.263 74.7152 88.6107 78.3422C88.5821 78.3889 88.5639 78.4461 88.5353 78.5032C88.0911 79.0592 86.9375 79.8257 86.4205 79.4282C83.7471 77.3601 81.8037 74.0657 78.9796 72.1561C75.5631 69.862 71.3412 68.9761 67.9975 66.5651C67.2908 66.0558 66.5633 65.3751 66.4958 64.4866C66.41 63.4006 67.3739 62.3717 67.0907 61.3143C67.0336 61.1169 66.94 60.9376 66.8361 60.7687C66.7322 60.6077 66.6283 60.4492 66.5244 60.2881C67.2804 60.3349 68.0442 60.4024 68.8081 60.4674C74.3134 60.9584 80.1487 61.5534 84.5758 64.8685C85.7658 65.7648 86.8622 66.8612 88.2313 67.4458C89.3433 67.929 90.5436 68.0304 91.7621 67.9758L91.7647 67.9732Z" fill="#E83614"/>
<g style="mix-blend-mode:lighten" opacity="0.11">
<path d="M17.9637 41.0387C17.1427 42.6884 16.5477 46.4167 16.1892 47.9392C15.2513 51.909 15.1577 57.2143 20.0681 56.9233C26.4646 56.544 31.0242 52.9093 32.9442 50.3684C35.1864 47.4014 38.0858 42.9898 39.0731 36.4946C39.6135 32.9456 38.9588 29.9656 37.3636 28.1314C34.4199 24.7435 30.6605 26.5518 26.6127 29.7006C22.2609 33.0859 19.9226 37.1 17.9689 41.0361L17.9637 41.0387Z" fill="#F7F7F7"/>
</g>
<path style="mix-blend-mode:multiply" opacity="0.5" d="M91.8973 66.9908C92.1155 65.2241 92.2272 63.4392 92.2272 61.6258C92.2272 59.342 92.048 57.0947 91.718 54.8941C91.6816 54.6603 91.6427 54.4317 91.6037 54.1952C90.9438 54.1121 90.2916 54.0549 89.6317 54.016H89.6291C89.4966 53.2755 89.3356 52.5429 89.1667 51.8154H89.1719C89.5304 51.805 89.8708 51.7505 90.1436 51.5322C90.3436 51.3763 90.4631 51.1711 90.5333 50.9347C90.5592 50.8567 90.5774 50.7762 90.593 50.693C90.593 50.693 90.593 50.693 90.5878 50.693C90.6346 50.493 90.6528 50.2565 90.6632 50.0305C90.6736 49.9915 90.6736 49.9552 90.6736 49.9162C90.4839 49.2173 90.2761 48.5184 90.05 47.8299C90.0604 47.6507 90.0111 47.4714 89.9643 47.2999C89.7487 46.5179 89.52 45.7047 89.4629 44.9019C89.4525 44.8162 89.4525 44.7304 89.4525 44.6473C89.4421 44.3537 89.4706 44.0523 89.5278 43.7587C89.6603 43.117 89.9617 42.5039 90.2735 41.8985C90.302 41.8518 90.3202 41.7946 90.3488 41.7478C90.8035 40.8697 91.2374 40.0097 91.123 39.0562C91.0191 38.0923 90.367 37.2999 89.7538 36.5621C88.1586 34.6551 86.5426 32.7299 84.6642 31.1035C83.4171 30.0175 82.5494 29.8486 80.9905 30.1396C80.4631 30.2435 79.7252 30.0824 78.9978 29.9785C77.4207 28.4015 73.5964 23.9821 73.4353 25.2864C73.3391 25.2136 73.2664 25.1617 73.2041 25.1149C73.0222 24.959 72.765 24.8291 72.4558 24.6368V24.6265C68.886 20.2539 63.2872 19.7057 57.1609 18.5937C56.5166 18.3859 55.7345 19.1133 55.6592 19.7654C55.6592 19.768 55.6592 19.7732 55.6566 19.7758C55.1292 19.6771 54.6044 19.5706 54.0718 19.49C54.0874 19.3264 54.0952 19.1705 54.0874 19.0068C53.721 18.9341 53.3521 18.8821 52.9858 18.8275C52.8715 17.7467 51.5906 16.9387 48.7067 16.5698C47.5766 16.4295 46.2048 16.3516 44.555 16.3516C22.0478 16.3516 11.7516 34.733 11.7516 34.733C11.4476 35.1539 11.2917 35.489 11.2372 35.7618C11.0371 36.7101 12.1751 36.7881 13.4325 36.3126C13.0091 36.8842 12.6012 37.4688 12.2062 38.0611C12.0841 38.004 11.9516 37.9624 11.8035 37.9598C11.6243 37.952 11.4684 37.952 11.3281 37.9676C10.3226 38.0144 10.2135 38.3885 9.54581 39.6901C9.54581 39.6901 8.30653 42.322 8.97683 42.891C9.06777 42.9715 9.20546 42.9975 9.37954 42.9871C9.07296 43.6159 8.77938 44.255 8.50398 44.9019C7.88824 46.349 7.34264 47.8377 6.89057 49.3654C6.36836 49.8798 5.80717 50.3709 5.47981 50.9996C5.33692 51.2776 5.23819 51.5842 5.16544 51.9037C5.12647 51.9557 5.0823 52.0129 5.04853 52.0622C4.84848 52.3454 4.70818 52.5818 4.63284 52.7611C3.65076 55.0942 3.69753 57.7001 3.40394 60.2202C3.35718 60.6645 3.29223 61.1087 3.17791 61.5426V61.6284C3.17791 63.2729 2.88433 65.8684 2.98046 67.7962C3.03761 69.1446 3.28183 70.1657 3.94434 70.2982C3.94434 70.3086 3.94694 70.319 3.94954 70.3293C3.96513 70.9139 4.12101 71.2049 4.35744 72.0545V72.0493V72.0519C3.58321 73.5744 5.6305 78.7108 7.89863 83.0158C8.08829 83.3665 8.27535 83.7147 8.46501 84.055C8.81315 84.6967 9.16389 85.3021 9.51204 85.8685C9.88097 86.4816 10.2395 87.0376 10.5798 87.5286C10.702 87.7183 11.0319 87.9132 11.484 87.5286C11.484 87.5312 11.484 87.5364 11.484 87.539C11.5463 87.856 12.053 88.3289 12.2738 88.5991C12.2816 88.6095 12.2894 88.6224 12.2972 88.6328C12.0426 89.4902 13.3078 91.0594 15.233 92.8054C16.4801 93.9485 18.0104 95.167 19.577 96.318C20.1824 96.7622 20.7955 97.1961 21.3983 97.6118C21.3983 97.6118 21.3983 97.6222 21.4165 97.6222C21.5282 97.6742 21.9776 97.8768 22.5232 98.0873C22.6453 98.3834 22.7856 98.6718 22.9519 98.9446C23.5988 100.025 24.6641 100.898 25.9111 101.07C26.2879 101.119 26.6568 101.098 27.0179 101.026C31.5802 103.343 36.5815 104.369 41.9101 105.05C41.9257 105.05 41.9491 105.058 41.9647 105.058C42.7 104.736 42.848 104.266 42.9052 103.975C44.3471 104.136 45.8125 104.229 47.2934 104.24C47.4259 104.247 47.5662 104.247 47.6987 104.247C47.7195 104.247 47.7402 104.247 47.7584 104.247C47.8494 104.247 47.9481 104.247 48.078 104.247C48.4573 104.247 48.8366 104.234 49.2185 104.219C49.7797 104.198 50.3357 104.167 50.8917 104.125C51.1723 104.918 51.6556 104.723 51.6763 104.793C56.5685 104.224 61.2087 102.86 65.4851 100.836C65.3994 100.797 65.9372 100.407 65.5475 100.337C65.8541 100.194 66.1555 100.044 66.4594 99.8955C66.6647 99.9605 66.8777 100.02 67.0934 100.07C67.8494 100.231 68.6314 100.324 69.255 100.597C75.7424 96.9987 80.6995 92.3533 84.4849 86.3102C85.241 85.1202 85.9399 83.8835 86.592 82.5793C86.6673 82.4572 86.7245 82.3247 86.7894 82.2026C87.0363 81.7323 86.883 81.2673 86.5634 81.1088C86.3036 80.9737 86.0542 80.8204 85.81 80.6619C86.0152 80.2514 86.2282 79.8461 86.4205 79.4278C86.8284 79.737 87.6182 79.3343 88.156 78.8796C88.3067 78.7523 88.4418 78.6224 88.5379 78.5029C88.5613 78.4484 88.5847 78.3938 88.6081 78.347V78.3444C90.2605 74.7175 91.1386 72.2831 91.7336 68.1548C91.744 68.0976 91.7518 68.0326 91.7622 67.9755C91.7752 67.8949 91.7803 67.8196 91.7933 67.7442C91.8583 67.4325 91.8817 67.1311 91.8921 67.0064C91.8921 67.0012 91.8921 66.9986 91.8921 66.9934L91.8973 66.9908Z" fill="url(#paint39_linear_206_17253)"/>
<path d="M20.614 91.4651C20.614 96.6431 16.4155 100.849 11.2349 100.849C8.9174 100.849 6.58432 99.8232 4.7111 98.2279C2.38062 96.2482 0.749023 93.3799 0.749023 90.5116C0.749023 85.3336 4.39154 84.3853 9.24735 81.847C10.6789 81.0988 12.3131 81.2521 13.8979 81.9665C17.4001 83.5436 20.614 87.9006 20.614 91.4651Z" fill="url(#paint40_radial_206_17253)"/>
<path d="M2.89221 86.131C2.46092 86.2661 2.28425 86.7675 2.16734 87.2066C2.11278 87.4092 2.06861 87.6508 2.20891 87.8041C2.30764 87.9132 2.47132 87.9392 2.61941 87.9392C3.54692 87.9392 4.31855 87.2117 4.80699 86.4245C4.9369 86.2141 5.03562 85.8971 4.83038 85.7594C4.75243 85.7075 4.65371 85.7023 4.56018 85.7023C4.17046 85.6997 3.77815 85.7412 3.39883 85.8244L2.8948 86.131H2.89221Z" fill="#AB7942"/>
<path d="M10.3775 84.302C10.2944 84.6163 10.0631 84.8683 9.82671 85.0918C9.22915 85.6504 8.32501 86.2609 7.45725 86.118C6.74538 86.0011 6.33748 85.2269 6.69082 84.5696C7.17147 83.6706 10.8218 82.6522 10.3801 84.302H10.3775Z" fill="#AB7942"/>
<path style="mix-blend-mode:multiply" opacity="0.25" d="M20.614 91.4647C20.614 96.6427 16.4155 100.849 11.2349 100.849C8.91742 100.849 6.58434 99.8228 4.71112 98.2276C5.2749 97.9106 6.14786 98.1938 6.75841 98.1626C7.60538 98.1288 8.45496 97.9444 9.23438 97.6196C9.81116 97.3754 10.3542 97.0636 10.8972 96.7518C11.3466 96.4946 11.7987 96.2348 12.2482 95.9724C12.6665 95.7334 13.0899 95.4866 13.4329 95.1514C13.8044 94.7799 14.0616 94.3226 14.3214 93.8732C14.5345 93.4861 14.7527 93.1041 14.971 92.7196C15.2827 92.161 15.5997 91.605 15.8309 91.0153C16.1946 90.0878 16.3609 89.1031 16.4415 88.108C16.4804 87.5312 16.5012 86.9493 16.4337 86.3725C16.2492 84.7097 15.3685 83.1327 14.0408 82.1142C13.9811 82.0753 13.9291 82.0285 13.8953 81.9688C17.3976 83.5458 20.6114 87.9028 20.6114 91.4673L20.614 91.4647Z" fill="url(#paint41_linear_206_17253)"/>
<defs>
<linearGradient id="paint0_linear_206_17253" x1="68.2891" y1="8.82034" x2="83.4125" y2="8.82034" gradientUnits="userSpaceOnUse">
<stop stop-color="#D88000"/>
<stop offset="1" stop-color="#FAAD18"/>
</linearGradient>
<linearGradient id="paint1_linear_206_17253" x1="70.31" y1="4.64719" x2="70.866" y2="4.64719" gradientUnits="userSpaceOnUse">
<stop offset="0.08" stop-color="#994B00"/>
<stop offset="1" stop-color="#760F1B"/>
</linearGradient>
<linearGradient id="paint2_linear_206_17253" x1="69.8763" y1="6.67566" x2="70.583" y2="6.67566" gradientUnits="userSpaceOnUse">
<stop offset="0.08" stop-color="#994B00"/>
<stop offset="1" stop-color="#760F1B"/>
</linearGradient>
<linearGradient id="paint3_linear_206_17253" x1="69.601" y1="9.39653" x2="71.0585" y2="9.39653" gradientUnits="userSpaceOnUse">
<stop offset="0.08" stop-color="#994B00"/>
<stop offset="1" stop-color="#760F1B"/>
</linearGradient>
<linearGradient id="paint4_linear_206_17253" x1="73.1446" y1="3.41626" x2="75.7609" y2="3.41626" gradientUnits="userSpaceOnUse">
<stop offset="0.08" stop-color="#994B00"/>
<stop offset="1" stop-color="#760F1B"/>
</linearGradient>
<linearGradient id="paint5_linear_206_17253" x1="70.7699" y1="8.82001" x2="83.4122" y2="8.82001" gradientUnits="userSpaceOnUse">
<stop offset="0.08" stop-color="#994B00"/>
<stop offset="1" stop-color="#760F1B"/>
</linearGradient>
<radialGradient id="paint6_radial_206_17253" cx="0" cy="0" r="1" gradientUnits="userSpaceOnUse" gradientTransform="translate(27.2813 43.9626) scale(68.6229 68.6229)">
<stop offset="0.07" stop-color="#E82A06"/>
<stop offset="1" stop-color="#E11D00"/>
</radialGradient>
<linearGradient id="paint7_linear_206_17253" x1="4.9317" y1="61.3735" x2="90.3073" y2="61.3735" gradientUnits="userSpaceOnUse">
<stop offset="0.08" stop-color="#B40C00"/>
<stop offset="1" stop-color="#AA0B00"/>
</linearGradient>
<linearGradient id="paint8_linear_206_17253" x1="23.0716" y1="66.0354" x2="27.6572" y2="66.0354" gradientUnits="userSpaceOnUse">
<stop offset="0.08" stop-color="#B40C00"/>
<stop offset="1" stop-color="#AA0B00"/>
</linearGradient>
<linearGradient id="paint9_linear_206_17253" x1="47.7117" y1="22.9143" x2="54.0692" y2="22.9143" gradientUnits="userSpaceOnUse">
<stop offset="0.08" stop-color="#B40C00"/>
<stop offset="1" stop-color="#AA0B00"/>
</linearGradient>
<linearGradient id="paint10_linear_206_17253" x1="23.0716" y1="66.0354" x2="27.6572" y2="66.0354" gradientUnits="userSpaceOnUse">
<stop offset="0.08" stop-color="#B40C00"/>
<stop offset="1" stop-color="#AA0B00"/>
</linearGradient>
<linearGradient id="paint11_linear_206_17253" x1="47.7117" y1="22.9143" x2="54.0692" y2="22.9143" gradientUnits="userSpaceOnUse">
<stop offset="0.08" stop-color="#B40C00"/>
<stop offset="1" stop-color="#AA0B00"/>
</linearGradient>
<linearGradient id="paint12_linear_206_17253" x1="36.3451" y1="36.5131" x2="91.1413" y2="36.5131" gradientUnits="userSpaceOnUse">
<stop offset="0.08" stop-color="#E83614"/>
<stop offset="1" stop-color="#DE1D00"/>
</linearGradient>
<linearGradient id="paint13_linear_206_17253" x1="35.3607" y1="51.1239" x2="54.3137" y2="80.4589" gradientUnits="userSpaceOnUse">
<stop offset="0.08" stop-color="#E83614"/>
<stop offset="1" stop-color="#DE1D00"/>
</linearGradient>
<linearGradient id="paint14_linear_206_17253" x1="2.9571" y1="71.5011" x2="26.0307" y2="71.5011" gradientUnits="userSpaceOnUse">
<stop offset="0.08" stop-color="#E83614"/>
<stop offset="1" stop-color="#DE1D00"/>
</linearGradient>
<linearGradient id="paint15_linear_206_17253" x1="25.9837" y1="93.7356" x2="43.0973" y2="93.7356" gradientUnits="userSpaceOnUse">
<stop offset="0.08" stop-color="#E83614"/>
<stop offset="1" stop-color="#DE1D00"/>
</linearGradient>
<radialGradient id="paint16_radial_206_17253" cx="0" cy="0" r="1" gradientUnits="userSpaceOnUse" gradientTransform="translate(22.6637 56.1442) scale(87.1262 87.1262)">
<stop offset="0.08" stop-color="#CC1600"/>
<stop offset="1" stop-color="#DE1D00"/>
</radialGradient>
<linearGradient id="paint17_linear_206_17253" x1="45.3006" y1="85.4377" x2="86.9089" y2="85.4377" gradientUnits="userSpaceOnUse">
<stop offset="0.08" stop-color="#E83614"/>
<stop offset="1" stop-color="#DE1D00"/>
</linearGradient>
<linearGradient id="paint18_linear_206_17253" x1="66.1453" y1="66.726" x2="92.2274" y2="66.726" gradientUnits="userSpaceOnUse">
<stop offset="0.08" stop-color="#E83614"/>
<stop offset="1" stop-color="#DE1D00"/>
</linearGradient>
<linearGradient id="paint19_linear_206_17253" x1="17.1037" y1="74.3672" x2="16.9763" y2="74.7465" gradientUnits="userSpaceOnUse">
<stop offset="0.08" stop-color="#B40C00"/>
<stop offset="1" stop-color="#AA0B00"/>
</linearGradient>
<linearGradient id="paint20_linear_206_17253" x1="3.94455" y1="64.4448" x2="91.8975" y2="64.4448" gradientUnits="userSpaceOnUse">
<stop offset="0.08" stop-color="#E83614"/>
<stop offset="1" stop-color="#DE1D00"/>
</linearGradient>
<radialGradient id="paint21_radial_206_17253" cx="0" cy="0" r="1" gradientUnits="userSpaceOnUse" gradientTransform="translate(31.5668 52.2393) scale(109.583)">
<stop offset="0.07" stop-color="#E2E2E2"/>
<stop offset="0.69" stop-color="#560000"/>
</radialGradient>
<radialGradient id="paint22_radial_206_17253" cx="0" cy="0" r="1" gradientUnits="userSpaceOnUse" gradientTransform="translate(82.7695 42.1065) scale(9.93798)">
<stop offset="0.08" stop-color="#B40C00"/>
<stop offset="1" stop-color="#AA0B00"/>
</radialGradient>
<linearGradient id="paint23_linear_206_17253" x1="27.5321" y1="93.7353" x2="43.0973" y2="93.7353" gradientUnits="userSpaceOnUse">
<stop offset="0.08" stop-color="#B40C00"/>
<stop offset="1" stop-color="#AA0B00"/>
</linearGradient>
<linearGradient id="paint24_linear_206_17253" x1="21.939" y1="58.0613" x2="58.7721" y2="58.0613" gradientUnits="userSpaceOnUse">
<stop offset="0.08" stop-color="#B40C00"/>
<stop offset="1" stop-color="#AA0B00"/>
</linearGradient>
<linearGradient id="paint25_linear_206_17253" x1="36.4282" y1="48.563" x2="90.5879" y2="48.563" gradientUnits="userSpaceOnUse">
<stop offset="0.08" stop-color="#B40C00"/>
<stop offset="1" stop-color="#AA0B00"/>
</linearGradient>
<linearGradient id="paint26_linear_206_17253" x1="66.1449" y1="68.3139" x2="88.6106" y2="68.3139" gradientUnits="userSpaceOnUse">
<stop offset="0.08" stop-color="#B40C00"/>
<stop offset="1" stop-color="#AA0B00"/>
</linearGradient>
<linearGradient id="paint27_linear_206_17253" x1="45.3005" y1="78.5893" x2="76.4905" y2="78.5893" gradientUnits="userSpaceOnUse">
<stop offset="0.08" stop-color="#B40C00"/>
<stop offset="1" stop-color="#AA0B00"/>
</linearGradient>
<linearGradient id="paint28_linear_206_17253" x1="47.5014" y1="98.6206" x2="62.8535" y2="98.6206" gradientUnits="userSpaceOnUse">
<stop offset="0.08" stop-color="#B40C00"/>
<stop offset="1" stop-color="#AA0B00"/>
</linearGradient>
<linearGradient id="paint29_linear_206_17253" x1="72.8946" y1="81.2966" x2="78.8052" y2="81.2966" gradientUnits="userSpaceOnUse">
<stop offset="0.08" stop-color="#B40C00"/>
<stop offset="1" stop-color="#AA0B00"/>
</linearGradient>
<linearGradient id="paint30_linear_206_17253" x1="67.4438" y1="84.5302" x2="70.2965" y2="84.5302" gradientUnits="userSpaceOnUse">
<stop offset="0.08" stop-color="#B40C00"/>
<stop offset="1" stop-color="#AA0B00"/>
</linearGradient>
<radialGradient id="paint31_radial_206_17253" cx="0" cy="0" r="1" gradientUnits="userSpaceOnUse" gradientTransform="translate(80.268 44.2548) scale(2.25347)">
<stop offset="0.08" stop-color="#B40C00"/>
<stop offset="1" stop-color="#AA0B00"/>
</radialGradient>
<linearGradient id="paint32_linear_206_17253" x1="11.2089" y1="26.4786" x2="52.9913" y2="26.4786" gradientUnits="userSpaceOnUse">
<stop offset="0.08" stop-color="#E83614"/>
<stop offset="1" stop-color="#DE1D00"/>
</linearGradient>
<linearGradient id="paint33_linear_206_17253" x1="8.7744" y1="40.4803" x2="12.8378" y2="40.4803" gradientUnits="userSpaceOnUse">
<stop offset="0.08" stop-color="#E83614"/>
<stop offset="1" stop-color="#DE1D00"/>
</linearGradient>
<radialGradient id="paint34_radial_206_17253" cx="0" cy="0" r="1" gradientUnits="userSpaceOnUse" gradientTransform="translate(10.9019 40.4668) scale(2.24537 2.24537)">
<stop offset="0.08" stop-color="#B40C00"/>
<stop offset="1" stop-color="#AA0B00"/>
</radialGradient>
<radialGradient id="paint35_radial_206_17253" cx="0" cy="0" r="1" gradientUnits="userSpaceOnUse" gradientTransform="translate(17.8435 31.577) scale(5.88227)">
<stop offset="0.08" stop-color="#B40C00"/>
<stop offset="1" stop-color="#AA0B00"/>
</radialGradient>
<radialGradient id="paint36_radial_206_17253" cx="0" cy="0" r="1" gradientUnits="userSpaceOnUse" gradientTransform="translate(35.8791 25.8056) scale(13.7424 13.7424)">
<stop offset="0.08" stop-color="#B40C00"/>
<stop offset="1" stop-color="#AA0B00"/>
</radialGradient>
<radialGradient id="paint37_radial_206_17253" cx="0" cy="0" r="1" gradientUnits="userSpaceOnUse" gradientTransform="translate(80.357 44.2554) scale(2.21294)">
<stop offset="0.08" stop-color="#B40C00"/>
<stop offset="1" stop-color="#AA0B00"/>
</radialGradient>
<radialGradient id="paint38_radial_206_17253" cx="0" cy="0" r="1" gradientUnits="userSpaceOnUse" gradientTransform="translate(85.3122 35.8436) scale(5.10679)">
<stop offset="0.08" stop-color="#B40C00"/>
<stop offset="1" stop-color="#AA0B00"/>
</radialGradient>
<linearGradient id="paint39_linear_206_17253" x1="9.03659" y1="39.3784" x2="85.9762" y2="83.8004" gradientUnits="userSpaceOnUse">
<stop offset="0.43" stop-color="#FAFAFA"/>
<stop offset="0.48" stop-color="#D6CECE"/>
<stop offset="0.56" stop-color="#AA9898"/>
<stop offset="0.63" stop-color="#846969"/>
<stop offset="0.71" stop-color="#654343"/>
<stop offset="0.79" stop-color="#4D2525"/>
<stop offset="0.86" stop-color="#3C1010"/>
<stop offset="0.93" stop-color="#320404"/>
<stop offset="1" stop-color="#2F0000"/>
</linearGradient>
<radialGradient id="paint40_radial_206_17253" cx="0" cy="0" r="1" gradientUnits="userSpaceOnUse" gradientTransform="translate(7.29214 83.8908) scale(23.2319 23.2319)">
<stop offset="0.06" stop-color="#AF965D"/>
<stop offset="1" stop-color="#AD7D1B"/>
</radialGradient>
<linearGradient id="paint41_linear_206_17253" x1="4.71112" y1="91.4076" x2="20.614" y2="91.4076" gradientUnits="userSpaceOnUse">
<stop offset="0.08" stop-color="#994B00"/>
<stop offset="1" stop-color="#760F1B"/>
</linearGradient>
</defs>
</svg>
