<svg width="149" height="86" viewBox="0 0 149 86" fill="none" xmlns="http://www.w3.org/2000/svg">
<path d="M115.732 50.826L115.712 50.9307C114.007 59.9399 109.558 67.7448 103.392 73.6296V73.6346C100.282 76.6019 96.7263 79.0905 92.8713 80.993C92.8713 81.0005 92.8663 80.998 92.8663 80.998C84.9593 84.9004 75.763 86.3741 66.4197 84.6311C52.0368 81.9506 40.7335 72.288 35.34 59.8028C34.7066 58.3466 34.1555 56.8504 33.6942 55.3219V55.3144C33.2753 53.9404 32.9287 52.5416 32.6519 51.1227C31.6645 46.0458 31.5997 40.7096 32.6071 35.3186C32.6395 35.149 32.6694 34.977 32.7068 34.8149C32.9187 33.7402 33.1706 32.6929 33.4598 31.658C34.0882 29.3914 34.8961 27.2145 35.8736 25.1399C40.2623 15.7317 47.9474 8.40313 57.206 4.33614C63.9311 1.38626 71.4816 0.154448 79.2116 1.08953C80.1168 1.19675 81.0219 1.33639 81.9271 1.50595C101.033 5.06925 114.715 20.9582 116.303 39.418C116.625 43.1409 116.45 46.9735 115.732 50.826Z" fill="#166AB2"/>
<path style="mix-blend-mode:multiply" d="M115.732 50.826L115.712 50.9307C114.007 59.9399 109.558 67.7448 103.392 73.6296V73.6346C100.282 76.6019 96.7263 79.0905 92.8713 80.993C92.8713 81.0005 92.8663 80.998 92.8663 80.998C84.9593 84.9004 75.763 86.3741 66.4197 84.6311C52.0368 81.9506 40.7335 72.288 35.34 59.8028C34.7066 58.3466 34.1555 56.8504 33.6942 55.3219V55.3144C33.2753 53.9404 32.9287 52.5416 32.6519 51.1227C31.6645 46.0458 31.5997 40.7096 32.6071 35.3186C32.6395 35.149 32.6694 34.977 32.7068 34.8149C32.9187 33.7402 33.1706 32.6929 33.4598 31.658C34.0882 29.3914 34.8961 27.2145 35.8736 25.1399C40.2623 15.7317 47.9474 8.40313 57.206 4.33614C63.9311 1.38626 71.4816 0.154448 79.2116 1.08953C80.1168 1.19675 81.0219 1.33639 81.9271 1.50595C101.033 5.06925 114.715 20.9582 116.303 39.418C116.625 43.1409 116.45 46.9735 115.732 50.826Z" fill="url(#paint0_radial_206_17171)"/>
<path d="M109.962 31.2339C109.815 31.967 109.059 32.75 108.316 33.1465C101.938 36.5452 94.2402 35.8345 87.0537 35.0291C78.9771 34.119 70.8955 33.2138 62.8139 32.3086C55.3507 31.4758 47.7727 30.6105 40.8481 27.7105C39.1326 26.9949 37.4594 26.1346 35.876 25.1397C40.2646 15.7315 47.9498 8.40293 57.2083 4.33594C57.2083 4.33594 57.2133 4.33594 57.2183 4.34342C57.2308 4.35339 57.2408 4.35339 57.2458 4.36087C57.4477 4.48804 57.6422 4.61771 57.8367 4.74488C65.8336 10.0512 71.8156 18.2375 80.3835 22.5613C83.4306 24.0974 86.7196 25.0948 90.0086 25.9925C96.2624 27.7006 102.611 29.0795 109.012 30.1193C109.224 30.1592 109.436 30.1916 109.65 30.2265C109.957 30.5083 110.037 30.8649 109.962 31.2289V31.2339Z" fill="#2EA2DB"/>
<path style="mix-blend-mode:multiply" opacity="0.36" d="M115.732 50.8258L115.712 50.9305C114.006 59.9397 109.558 67.7446 103.391 73.6293V73.6343C100.282 76.6017 96.7261 79.0902 92.871 80.9928C92.871 81.0003 92.8661 80.9978 92.8661 80.9978C84.959 84.9002 75.7628 86.3739 66.4194 84.6309C52.0366 81.9503 40.7333 72.2878 35.3397 59.8026C37.3271 60.1118 41.9875 61.583 41.9875 61.583C41.9875 61.583 45.294 62.9669 46.6954 60.7451C46.6954 60.7451 50.8072 62.6801 62.3075 50.933C62.3075 50.933 67.751 48.8259 69.9602 44.0558C69.9602 44.0558 78.7575 37.7645 80.513 34.2935C82.2635 30.815 84.8817 30.1492 85.5699 24.6684C85.5699 24.6684 93.4894 9.08364 79.2088 1.0918C80.114 1.19902 81.0192 1.33866 81.9243 1.50822C101.03 5.07151 114.712 20.9604 116.3 39.4202C116.622 43.1431 116.448 46.9757 115.729 50.8283L115.732 50.8258Z" fill="url(#paint1_linear_206_17171)"/>
<path d="M115.732 50.8257L115.712 50.9305C114.288 51.3818 112.792 51.706 111.336 52.0052C106.748 52.9577 102.152 53.9128 97.5565 54.8628C97.4717 55.3515 97.3919 55.8403 97.3121 56.339C99.0302 57.5284 99.3544 60.1042 98.4367 61.9869C97.5141 63.8645 95.6464 65.1113 93.7015 65.8793C87.1359 68.4577 79.76 66.3706 73.0224 64.2685C73.1296 63.6301 73.2344 62.9943 73.3441 62.3509C73.3441 62.3509 73.4089 62.3684 73.5161 62.4008C78.0095 63.6651 82.7323 64.1014 87.3753 63.6775C89.3627 63.4955 91.9635 62.2038 91.2927 60.3262C91.0533 59.6479 90.4199 59.1966 89.799 58.8375C88.6495 58.1717 87.4352 57.683 86.1734 57.2965C85.964 57.2392 85.8493 57.2067 85.8493 57.2067C83.5078 56.521 81.0342 56.1744 78.6279 55.738C65.3123 53.3093 52.6226 47.4794 42.1023 38.9639C40.9129 38.0064 39.7135 36.9915 38.2647 36.5077C37.2623 36.1736 36.1976 36.1162 35.1727 35.8694C34.2925 35.6574 33.4596 35.2934 32.7041 34.8121C32.9161 33.7374 33.1679 32.6901 33.4572 31.6553C33.4572 31.6553 33.4746 31.6652 33.502 31.6827C36.2848 33.1988 39.2272 34.4605 42.1746 35.6425C60.4898 42.9835 80.3235 47.7537 99.9254 45.5194C103.132 45.1554 106.356 44.6018 109.391 43.4772C111.874 42.5596 113.972 40.5174 116.301 39.4152C116.321 39.6696 116.34 39.9214 116.353 40.1758C116.597 43.6593 116.4 47.23 115.73 50.8232L115.732 50.8257Z" fill="#2EA2DB"/>
<path d="M103.391 73.6342C102.606 74.3823 101.798 75.1029 100.965 75.7862H100.958C98.474 77.8159 95.7535 79.5714 92.8735 80.9927C92.8735 81.0002 92.8685 80.9977 92.8685 80.9977C91.4895 81.1722 90.1081 81.3044 88.7391 81.4141C79.3384 82.1697 68.8455 81.6585 62.0606 75.1104C61.2776 74.3574 60.5221 73.4672 60.3575 72.3949C60.1879 71.3177 60.8313 70.056 61.9085 69.9163C51.4804 67.5275 41.6758 62.4506 33.6964 55.3215V55.3141C33.2775 53.9401 32.9309 52.5487 32.6591 51.1299C42.8602 60.5705 56.4775 66.2508 70.3691 66.7919C71.6184 66.8418 73.1419 67.0338 73.5983 68.1983C73.9274 69.0386 73.4412 69.9562 72.6806 70.5073V70.5148C72.4263 70.6993 72.1495 70.8414 71.8652 70.9287C70.7032 71.2828 69.4615 71.0584 68.2471 71.0434C67.7858 71.0359 67.2846 71.0833 66.9579 71.405C66.6911 71.6643 66.6288 71.9635 66.7061 72.2653V72.2727C66.8906 73.0133 67.9005 73.7664 68.7682 74.0307C76.4185 76.3771 84.52 77.4992 92.462 76.5093C96.2048 76.038 99.9128 75.088 103.391 73.6317V73.6342Z" fill="#2EA2DB"/>
<path style="mix-blend-mode:multiply" d="M115.732 50.8256L115.712 50.9329C114.007 59.9421 109.558 67.7469 103.394 73.6292V73.6367C100.284 76.604 96.7287 79.0926 92.8736 80.9952C92.8736 81.0002 92.8686 81.0002 92.8686 81.0002C84.9591 84.9051 75.7653 86.3788 66.422 84.6358C50.3635 81.641 38.1376 69.9412 33.6966 55.324V55.319C33.2776 53.9451 32.931 52.5462 32.6543 51.1274C31.6668 46.0505 31.602 40.7168 32.6094 35.3232C32.6418 35.1512 32.6742 34.9816 32.7091 34.817C32.9211 33.7423 33.1704 32.695 33.4622 31.6602C34.093 29.3935 34.8985 27.2192 35.8759 25.1445C40.2671 15.7363 47.9497 8.40528 57.2058 4.34078C64.7139 1.0443 73.2593 -0.107724 81.9269 1.51059C101.03 5.07388 114.715 20.9653 116.303 39.4226C116.625 43.1455 116.453 46.9756 115.735 50.8281L115.732 50.8256Z" fill="url(#paint2_radial_206_17171)"/>
<path d="M143.874 8.6005C137.276 7.65295 123.704 10.3535 106.556 15.8767C106.7 16.0438 106.847 16.2208 106.987 16.3978C107.162 16.6148 107.336 16.8317 107.506 17.0586C123.118 11.8671 135.361 9.08924 141.306 9.53808C143.378 9.69018 144.687 10.2388 145.109 11.2088L145.119 11.2312C146.071 13.5153 142.027 17.7768 134.371 23.1529C132.441 24.5094 130.282 25.9332 127.91 27.4219C125.542 28.9105 122.961 30.444 120.205 32.03C120.21 32.0374 120.203 32.0424 120.203 32.0424C108.872 38.5431 94.432 45.7645 78.4059 52.7589C50.8696 64.7803 26.0014 72.9218 12.6534 74.762C11.3991 74.9366 10.2471 75.0488 9.20726 75.1111C5.48937 75.3231 3.16288 74.7919 2.57191 73.4429C2.55196 73.398 2.53201 73.3532 2.52453 73.3133C2.42977 73.034 2.40234 72.7273 2.44972 72.3857C2.54198 71.6625 2.95841 70.8047 3.69899 69.8323C6.9855 65.4386 16.5159 58.7484 29.9935 51.1855C30.794 50.7391 31.6094 50.2853 32.4297 49.829C32.4248 49.7965 32.4173 49.7641 32.4123 49.7292C32.335 49.2654 32.2751 48.8016 32.2153 48.3403C30.784 49.1333 29.4026 49.9337 28.0486 50.7192C14.2019 58.7983 4.48197 66.1169 1.27775 71.104C0.557113 72.2186 0.163131 73.2085 0.118247 74.0613C0.085831 74.4578 0.138196 74.8169 0.257886 75.156C0.265367 75.2159 0.287809 75.2682 0.310251 75.3206C1.0259 76.9613 3.53442 77.7418 7.4892 77.7293C8.58886 77.7293 9.80821 77.667 11.1373 77.5398C25.2134 76.2357 51.1713 68.2065 79.7076 55.7487C96.3072 48.5024 111.219 40.8696 122.854 33.9076L122.869 33.9001C125.699 32.202 128.339 30.5438 130.766 28.933C133.197 27.3196 135.406 25.7711 137.371 24.29C145.163 18.4176 149.193 13.63 148.036 10.8572L148.024 10.8272C147.51 9.64779 146.081 8.92217 143.872 8.59801L143.874 8.6005Z" fill="#C0FAFA"/>
<path style="mix-blend-mode:multiply" d="M134.321 8.94141C134.017 9.34038 133.721 9.73685 133.411 10.1283C126.863 11.2006 117.939 13.5894 107.508 17.0604C107.339 16.8335 107.164 16.6166 106.99 16.3996C106.85 16.2201 106.703 16.0455 106.558 15.8785C117.6 12.3202 127.153 9.93384 134.324 8.9439L134.321 8.94141Z" fill="url(#paint3_linear_206_17171)"/>
<path style="mix-blend-mode:multiply" d="M32.2178 48.3428C32.2776 48.8041 32.3375 49.2679 32.4148 49.7317C32.4197 49.7641 32.4247 49.7965 32.4322 49.8314C31.6093 50.2877 30.7964 50.7416 29.996 51.1879C17.8973 57.9804 8.97284 64.0696 4.90585 68.4234C4.08796 68.7451 3.28005 69.0966 2.49707 69.4757C6.56157 64.5833 15.6506 57.9579 28.0535 50.7216C29.4075 49.9362 30.789 49.1357 32.2203 48.3428H32.2178Z" fill="url(#paint4_linear_206_17171)"/>
<path opacity="0.18" d="M109.962 31.2337C109.668 30.2712 107.65 30.6378 101.596 29.6603C95.5417 28.6828 82.9068 24.6532 77.2016 21.8106C71.5836 19.0178 57.6496 4.78956 57.2157 4.3457C57.2282 4.35568 57.2381 4.35568 57.2431 4.36316C57.4451 4.49033 57.6396 4.61999 57.8341 4.74717C65.8309 10.0535 71.813 18.2398 80.3808 22.5636C83.428 24.0997 86.717 25.0971 90.006 25.9948C96.2598 27.7028 102.608 29.0818 109.009 30.1216C109.221 30.1615 109.433 30.1939 109.648 30.2288C109.954 30.5106 110.034 30.8672 109.959 31.2312L109.962 31.2337Z" fill="#65D1FA"/>
<path opacity="0.18" d="M116.356 40.1786C112.7 43.6895 104.374 47.8787 85.6299 46.7616C55.2883 44.9538 34.5494 32.3364 33.5046 31.6855C36.2874 33.2016 39.2298 34.4634 42.1772 35.6453C60.4924 42.9863 80.3261 47.7565 99.928 45.5223C103.135 45.1582 106.359 44.6047 109.394 43.4801C111.877 42.5624 113.974 40.5202 116.303 39.4181C116.323 39.6724 116.343 39.9243 116.356 40.1786Z" fill="#65D1FA"/>
<path opacity="0.18" d="M91.6044 63.2385C86.7395 66.1584 75.0871 62.8644 73.5187 62.4031C78.0121 63.6674 82.7349 64.1037 87.3779 63.6798C89.3652 63.4978 91.966 62.2061 91.2952 60.3285C91.0558 59.6503 90.4225 59.1989 89.8016 58.8398C88.6521 58.1741 87.4377 57.6853 86.176 57.2988C87.9589 57.815 96.2873 60.4332 91.6019 63.241L91.6044 63.2385Z" fill="#65D1FA"/>
<path opacity="0.18" d="M72.6806 70.5102C74.2067 68.0641 70.8603 68.0416 70.8603 68.0416C44.6655 66.1565 32.9832 51.5393 32.6591 51.1328C42.8602 60.5734 56.4775 66.2537 70.3691 66.7948C71.6184 66.8447 73.1419 67.0367 73.5983 68.2012C73.9274 69.0415 73.4412 69.9592 72.6806 70.5102Z" fill="#65D1FA"/>
<path opacity="0.18" d="M103.391 73.6344C102.606 74.3824 101.798 75.1031 100.965 75.7863H100.958C88.8239 79.1501 77.7575 77.2426 71.6658 75.9509C65.7785 74.6991 66.6412 72.4275 66.7061 72.2754C66.8906 73.016 67.9005 73.769 68.7682 74.0334C76.4185 76.3798 84.52 77.5019 92.462 76.5119C96.2048 76.0407 99.9128 75.0906 103.391 73.6344Z" fill="#65D1FA"/>
<path style="mix-blend-mode:multiply" opacity="0.37" d="M115.732 50.826L115.712 50.9332C114.007 59.9424 109.558 67.7472 103.394 73.6295V73.637C100.285 76.6044 96.7288 79.0929 92.8737 80.9955C92.8737 81.0005 92.8688 81.0005 92.8688 81.0005C84.9592 84.9054 75.7655 86.3791 66.4221 84.6361C58.8018 83.2148 52.0567 79.8385 46.5834 75.1182C49.8474 76.6767 53.3708 77.8437 57.0987 78.5394C66.4421 80.2799 75.6358 78.8087 83.5454 74.9037C83.5454 74.9037 83.5503 74.9038 83.5528 74.8988C87.4054 72.9962 90.9612 70.5076 94.0707 67.5378V67.5328C100.237 61.648 104.688 53.8457 106.394 44.834L106.414 44.7292C107.132 40.8767 107.306 37.0466 106.985 33.3237C106.03 22.2249 100.701 12.0537 92.4498 4.93457C105.918 11.3729 115.024 24.5638 116.306 39.418C116.627 43.1408 116.455 46.9709 115.737 50.8235L115.732 50.826Z" fill="url(#paint5_radial_206_17171)"/>
<g style="mix-blend-mode:lighten" opacity="0.11">
<path d="M53.9293 12.8512C52.7349 13.7563 50.6503 16.6164 49.6653 17.746C47.0995 20.6934 43.5985 26.1269 47.3613 28.4933C52.2611 31.5753 58.1883 29.2812 60.7666 27.6454C63.7739 25.7379 67.5117 22.8204 69.7759 18.0203C71.0127 15.3971 71.1473 12.9684 70.504 11.0583C69.317 7.53242 66.6739 7.50001 63.2652 8.13088C59.6021 8.80663 56.7769 10.6992 53.9318 12.8512H53.9293Z" fill="#C7FAFA"/>
</g>
<g style="mix-blend-mode:lighten" opacity="0.11">
<path d="M57.228 12.6015C54.111 15.8556 53.3705 20.2068 55.5723 22.3164C57.7766 24.4284 62.0904 23.5008 65.2074 20.2467C68.3243 16.9926 69.0649 12.6414 66.8631 10.5318C64.6588 8.41979 60.3449 9.34739 57.228 12.604V12.6015Z" fill="#C7FAFA"/>
</g>
<g style="mix-blend-mode:lighten" opacity="0.21">
<path d="M59.198 12.2801C57.2829 14.28 56.8266 16.953 58.1806 18.2497C59.5346 19.5463 62.1878 18.9778 64.1028 16.9755C66.0203 14.9757 66.4742 12.3001 65.1202 11.0059C63.7662 9.70926 61.1155 10.2778 59.198 12.2801Z" fill="#C7FAFA"/>
</g>
<defs>
<radialGradient id="paint0_radial_206_17171" cx="0" cy="0" r="1" gradientUnits="userSpaceOnUse" gradientTransform="translate(74.1433 43.0771) rotate(10.57) scale(42.2656 42.2656)">
<stop offset="0.13" stop-color="#2F8ADD"/>
<stop offset="0.93" stop-color="#FAFAFA"/>
</radialGradient>
<linearGradient id="paint1_linear_206_17171" x1="122.394" y1="81.1671" x2="-61.805" y2="-64.3586" gradientUnits="userSpaceOnUse">
<stop offset="0.07" stop-color="#FAFAFA"/>
<stop offset="0.86" stop-color="#2F0000"/>
</linearGradient>
<radialGradient id="paint2_radial_206_17171" cx="0" cy="0" r="1" gradientUnits="userSpaceOnUse" gradientTransform="translate(55.5433 7.96768) rotate(10.57) scale(125.197 125.197)">
<stop offset="0.07" stop-color="#FAFAFA"/>
<stop offset="0.86" stop-color="#2F0000"/>
</radialGradient>
<linearGradient id="paint3_linear_206_17171" x1="98.0246" y1="19.6861" x2="126.337" y2="11.0394" gradientUnits="userSpaceOnUse">
<stop offset="0.14" stop-color="#2F0000"/>
<stop offset="0.93" stop-color="#FAFAFA"/>
</linearGradient>
<linearGradient id="paint4_linear_206_17171" x1="14.9665" y1="60.0788" x2="49.7219" y2="43.7182" gradientUnits="userSpaceOnUse">
<stop offset="0.07" stop-color="#FAFAFA"/>
<stop offset="0.86" stop-color="#2F0000"/>
</linearGradient>
<radialGradient id="paint5_radial_206_17171" cx="0" cy="0" r="1" gradientUnits="userSpaceOnUse" gradientTransform="translate(73.2276 39.2472) rotate(10.57) scale(112.308 112.308)">
<stop offset="0.07" stop-color="#FAFAFA"/>
<stop offset="0.86" stop-color="#2F0000"/>
</radialGradient>
</defs>
</svg>
