<svg width="140" height="79" viewBox="0 0 140 79" fill="none" xmlns="http://www.w3.org/2000/svg">
<path fill-rule="evenodd" clip-rule="evenodd" d="M97.0093 16.8616L102.551 22.0992C108.613 22.0992 116.802 23.0831 120.796 28.0024L137.521 24.4431C134.309 21.1009 128.189 19.0319 123.038 18.0336C114.082 16.2829 105.517 16.1092 97.0093 16.8616ZM17.4323 49.9801C17.114 43.3969 26.5764 38.2606 31.8719 36.1482L33.3043 29.7386C21.6426 32.8494 7.7673 39.6496 2.05222 48.4899C0.865799 50.3274 0.315994 52.0491 0.287057 53.6262L17.4323 49.9801Z" fill="url(#paint0_linear_206_13059)"/>
<path fill-rule="evenodd" clip-rule="evenodd" d="M32.7977 29.9552C33.3619 28.9135 34.7798 28.0454 35.402 28.002L37.9629 49.2707C33.2896 45.5378 31.5823 41.5156 31.698 36.7554C31.7414 34.643 31.9006 31.9808 32.7977 29.9552Z" fill="#6C6C2E"/>
<path fill-rule="evenodd" clip-rule="evenodd" d="M34.7945 55.7093C33.9119 51.8752 35.8797 50.5875 39.844 49.6615C56.9748 45.6537 109.423 42.6876 101.509 59.9342C101.06 60.9036 100.366 61.7572 99.6426 62.553C98.5863 63.696 97.3276 64.6364 96.1846 65.6926C87.923 73.4767 80.1534 75.7049 68.4918 73.6503C60.4183 72.218 36.8491 64.6654 34.7945 55.7093Z" fill="#6C6C2E"/>
<path fill-rule="evenodd" clip-rule="evenodd" d="M107.224 35.8873C106.79 34.426 105.893 32.9358 104.547 31.5178C93.855 20.1166 59.7237 3.94078 48.1055 7.4277C39.3809 14.5607 38.4115 20.8111 41.2474 26.8734C53.155 52.367 107.846 63.2763 107.224 35.8873Z" fill="#6C6C2E"/>
<path fill-rule="evenodd" clip-rule="evenodd" d="M69.4034 2.27637C89.7606 2.27637 106.269 18.785 106.269 39.1422C106.269 59.4995 89.7606 76.0081 69.4034 76.0081C49.0461 76.0081 32.5375 59.4995 32.5375 39.1422C32.5375 18.785 49.0317 2.27637 69.4034 2.27637Z" fill="url(#paint1_radial_206_13059)"/>
<path fill-rule="evenodd" clip-rule="evenodd" d="M51.795 5.0836C51.2018 5.43085 50.7099 5.90831 50.2179 6.40024C50.0443 6.57386 49.8852 6.80536 49.8128 7.05132C49.7694 7.21048 49.8418 7.3841 49.9141 7.51432C50.0299 7.71688 50.2758 7.81816 50.3916 8.02072C50.4639 8.15093 50.5073 8.33902 50.4205 8.45477C50.0443 8.9467 49.5235 9.32288 49.0894 9.77141C48.3949 10.4804 47.6281 11.1459 47.0349 11.9417C46.4995 12.6651 45.4578 15.3129 45.8629 16.2244C46.0655 16.6729 46.3838 17.0925 46.7889 17.3674C47.6136 17.9172 49.5669 18.1921 50.7388 18.9155C51.4767 19.3785 52.1423 19.9717 52.7499 20.6084C53.2419 21.1292 53.4589 21.8816 53.9798 22.359C55.2385 23.5165 56.7288 24.7753 58.4216 25.1659C59.5791 25.4264 60.8234 25.4264 61.9085 25.9038C62.8924 26.3524 63.6448 27.1915 64.4695 27.8716C67.7394 30.5917 69.0271 32.8921 73.8162 32.1832C75.9575 31.8649 77.9976 30.1865 79.8929 29.1882C82.613 27.7558 82.9313 28.4937 85.4489 28.2333C86.0855 28.1609 86.7655 28.1175 87.3008 27.7703C89.0949 26.5983 89.6013 24.8476 90.8167 23.4297C91.3086 22.8654 91.9163 22.4025 92.5095 21.9539C93.3342 21.3462 94.376 20.9845 95.0994 20.2611C96.416 18.9445 94.593 15.5733 94.13 14.3001C94.0287 14.0252 93.9998 13.7069 94.0287 13.403C94.0432 13.1426 94.0721 12.8532 94.2313 12.6507C94.5351 12.2455 95.3164 12.1153 95.4611 11.9417C95.5624 11.8404 95.6058 11.6523 95.5479 11.5221C95.4322 11.2038 95.2441 10.8855 94.9981 10.654C94.0142 9.74247 92.9725 8.87436 91.8874 8.09306C90.238 6.90664 88.5307 5.77809 86.7655 4.76529C85.637 4.11421 84.4795 3.521 83.2496 3.10141C81.8607 2.62395 80.3849 2.40692 78.967 2.05967C77.4912 1.68349 76.0298 1.16262 74.5251 0.916659C73.7583 0.80091 72.977 0.989002 72.2101 0.974533C71.4433 0.960064 70.6909 0.916659 69.9241 0.815379C68.9403 0.699631 67.5802 0.280043 67.0015 0.323448C66.4951 0.352386 64.0065 1.07581 62.5017 1.40859C61.3587 1.65455 60.1723 1.69796 59.0438 2.03074C57.7127 2.42139 56.4539 3.00013 55.1951 3.53547C54.0521 4.0274 52.8802 4.47592 51.8095 5.09807L51.795 5.0836ZM100.062 16.2678C99.6425 15.7614 99.165 15.3129 98.6586 14.8788C98.485 14.7341 97.0816 13.9094 97.342 14.8065C97.7327 16.1231 98.514 17.5266 98.948 19.0313C99.2808 20.1598 99.2084 21.0135 98.1378 21.6212C97.0092 22.2578 96.0109 22.2722 95.49 23.6902C94.9258 25.2093 94.5641 26.8009 93.9853 28.3201C93.2185 30.3023 92.6108 30.6351 91.5257 32.053C91.3376 32.2989 91.1061 32.5449 91.0627 32.8487C90.9469 33.7313 92.3648 35.3663 93.1606 35.6267C94.7087 36.1186 96.5607 35.7135 98.0654 35.2216C99.4834 34.7586 100.033 33.7169 101.06 33.1815C102.146 32.6172 104.605 33.2105 105.285 32.2266C105.69 31.6334 105.763 30.8666 105.835 30.1576C106.009 28.6384 105.661 27.2349 105.647 25.7736C105.647 25.5132 104.924 24.5293 104.634 23.8638C104.345 23.1982 103.969 21.925 103.896 21.7948C103.607 21.3173 103.216 20.9122 102.941 20.4347C102.782 20.1598 102.753 19.8126 102.565 19.5377C101.798 18.4091 100.959 17.3095 100.077 16.2533L100.062 16.2678ZM48.1055 7.41304C46.7744 8.80202 45.5446 11.6813 44.9225 12.1008C43.5045 13.0847 42.5641 13.3885 41.8407 15.2984C41.667 15.7469 41.5368 16.2099 41.5368 16.6874C41.5368 16.8899 41.6815 17.078 41.8407 17.1938C43.0271 18.0908 43.273 18.1053 43.0126 19.1615C42.8969 19.61 42.8101 20.0875 42.8101 20.5505C42.8101 20.753 42.8535 20.9845 42.9981 21.1148C43.1718 21.2884 43.4467 21.3752 43.6926 21.3897C44.445 21.462 45.1974 21.3028 45.9497 21.3752C46.8034 21.4475 47.0204 21.9829 47.3966 22.6484C47.6715 23.1259 47.8306 23.6612 48.1345 24.1242C48.3515 24.457 48.7422 24.674 48.9302 25.0213C49.4945 26.0341 49.8273 27.1915 50.406 28.2043C50.5941 28.5226 50.869 28.812 51.2018 28.9712C51.6503 29.1737 52.1857 29.0869 52.6487 29.2461C53.1117 29.4052 53.5891 29.5644 53.9508 29.8972C54.544 30.447 54.8624 31.2572 55.4266 31.8359C56.2224 32.6462 57.076 33.413 58.0165 34.0207C58.4506 34.2956 58.9859 34.3679 59.4923 34.4837C60.2012 34.6428 60.9536 34.6284 61.6481 34.8165C62.14 34.9467 62.632 35.1348 63.0371 35.4386C63.8329 36.0174 64.5418 36.7118 65.1929 37.4497C66.2057 38.5638 66.8857 39.9817 68.0287 40.9656C68.8534 41.6746 69.9096 42.0941 70.9514 42.4125C72.2535 42.8176 73.6281 43.0346 74.9881 43.0925C75.8852 43.1359 76.7967 43.0201 77.6358 42.7163C79.3865 42.0941 80.9491 40.9801 82.6998 40.3434C83.7271 39.9673 84.8412 39.7936 85.9408 39.6924C87.1562 39.5911 88.4004 39.6056 89.6158 39.7502C90.6286 39.8805 91.6125 40.1988 92.5819 40.5171C94.4049 41.1392 96.1411 41.9784 97.9786 42.5861C99.0059 42.9188 100.048 43.295 101.118 43.324C101.697 43.3384 102.29 43.078 102.724 42.7018C104.128 41.5154 104.272 40.5605 104.895 39.0702C105.039 38.7374 105.198 38.4047 105.387 38.1008C105.502 37.9127 105.618 37.6957 105.806 37.58C106.009 37.4642 106.327 37.6234 106.602 37.5076C107.137 37.2617 107.253 36.5961 107.21 35.8582C107.6 36.8421 107.484 40.2132 107.571 41.1682C107.658 42.2244 108.049 43.7146 108.121 44.3078C108.15 44.5538 107.224 46.073 106.949 47.0279C106.558 48.3301 106.602 49.748 106.153 51.0357C105.821 52.0051 105.112 52.8009 104.605 53.6835C104.186 54.4358 103.867 55.2461 103.404 55.9695C101.393 59.0947 99.1216 59.4709 95.6926 58.8921C91.0482 58.1253 88.5596 57.8359 83.7271 57.9083C75.8273 58.024 73.9608 59.6156 67.5368 61.5109C66.0465 61.9595 64.4984 62.2199 62.9358 62.3067C59.4778 62.5093 56.2369 61.236 53.0972 59.876C50.4494 58.733 47.5123 56.8376 45.6604 54.6094C44.7054 53.452 44.1556 52.0196 43.3743 50.7608C42.5496 49.4297 41.7973 48.0552 40.8423 46.8109C39.9453 45.6389 38.8457 44.6261 37.8473 43.541C37.3554 43.0057 36.7911 42.5282 36.3715 41.935C35.9664 41.3707 35.5613 40.7775 35.3877 40.112C34.8089 37.8549 34.346 34.5271 34.346 32.1543C34.346 31.1415 34.6787 30.2589 34.4038 29.1882C34.2013 28.4069 33.5502 28.0886 33.7527 26.7285C33.8974 25.8026 34.3604 24.9489 34.5919 24.0519C34.78 23.285 34.6932 22.4603 34.997 21.7369C35.4456 20.6662 36.1979 19.7692 36.7911 18.7708C37.0226 18.3802 37.2831 18.0185 37.4712 17.5989C37.7461 16.9767 37.9197 16.5716 38.3537 16.0363C38.6142 15.7035 39.0338 15.5299 39.3521 15.255C40.0755 14.6039 40.5096 13.6924 41.1751 12.969C41.6092 12.4915 42.1734 12.1443 42.622 11.6668C42.9837 11.2906 43.2007 10.7842 43.5769 10.437C44.6186 9.48204 45.8484 8.74414 48.0766 7.3841L48.1055 7.41304ZM74.583 62.162C73.6425 61.9739 72.948 61.9305 72.0076 62.2488C70.7344 62.6829 69.1573 63.4208 67.9998 64.1731C67.0159 64.8242 66.4083 65.5911 67.4066 66.763C69.273 68.9478 74.4238 70.2644 78.2869 69.4831C80.1968 69.0925 82.3526 67.9784 84.1756 67.7035C85.1306 67.5588 86.0999 67.8482 87.0549 67.689C87.8217 67.5588 88.5451 67.1971 89.2541 66.8788C90.4694 66.329 93.2329 64.8532 93.7104 63.4352C93.8262 63.0591 93.7683 62.625 93.6091 62.2633C93.4934 62.0029 93.2329 61.8292 92.9725 61.7424C90.918 61.0045 87.9809 60.6428 85.8106 60.5415C85.0003 60.4981 84.1612 60.5415 83.3654 60.7441C82.9892 60.8309 81.4121 62.0463 80.573 62.3501C78.0265 63.2472 77.0426 62.6395 74.5975 62.1765L74.583 62.162ZM34.8089 55.3184C34.8089 55.3184 36.6609 57.8793 39.0338 59.0079C39.7861 59.3696 40.5674 59.6734 41.3632 59.9628C42.8101 60.4981 44.2569 61.0335 45.7472 61.4531C47.3676 61.9161 49.0605 62.0752 50.652 62.5961C51.4478 62.8565 52.0265 63.8114 52.8657 63.797C53.4589 63.797 55.9475 63.768 58.6386 64.8387C62.9937 66.5749 66.1768 68.6584 70.1701 70.5393C71.1973 71.0168 72.268 71.4074 73.3821 71.6534C74.3515 71.8704 75.3498 71.9572 76.3481 71.8994C77.3754 71.8415 78.3593 71.4942 79.3721 71.2772C80.6164 71.0168 81.8751 70.7997 83.105 70.4814C83.6114 70.3512 84.0454 69.975 84.5518 69.9316C85.1161 69.8738 85.6804 70.1197 86.2446 70.1487C87.0115 70.1921 87.8072 70.3078 88.5596 70.1487C89.2686 70.004 89.9341 69.6423 90.5273 69.2516C91.3231 68.7307 91.9742 68.0218 92.7121 67.4286C93.7827 66.5749 94.8679 65.7502 95.953 64.8966C96.8501 64.2021 97.7761 63.5365 98.6297 62.7986C99.7583 61.8292 100.38 60.8454 101.35 59.8326C101.697 59.4564 101.581 59.8326 101.538 59.9194C100.872 61.0913 100.019 62.7842 99.2519 63.8114C98.9046 64.26 98.4127 64.5638 98.022 64.9834C94.81 68.4124 90.5418 73.0858 85.9408 74.605C85.7382 74.6773 84.0309 74.822 83.105 75.0969C81.933 75.4441 80.8623 76.0374 79.7193 76.4569C77.8239 77.1514 75.972 78.0485 73.9898 78.4247C72.6876 78.6706 68.8679 77.8604 67.204 77.8025C65.6414 77.7446 62.7622 78.034 62.5162 77.9327C60.8089 77.2238 58.1467 76.0084 55.9186 75.1548C55.2241 74.8943 53.8062 74.5326 53.6759 74.4603C52.5908 73.8237 51.6648 73.1581 50.5507 72.5649C49.1328 71.7981 47.5123 71.4219 46.1668 70.5248C44.8935 69.6857 43.8373 68.5282 42.7811 67.443C40.9291 65.5477 38.9469 63.7391 37.4133 61.5833C36.3715 60.122 35.8217 58.3568 35.1417 56.6929C34.9536 56.2444 34.6932 55.2895 34.8379 55.2895L34.8089 55.3184ZM32.8123 29.955C31.814 31.6913 31.1629 34.1364 30.9024 35.6412C30.7867 36.3501 30.9892 37.0736 30.9603 37.797C30.9314 38.6072 30.6854 39.4175 30.7143 40.2277C30.7722 41.7469 30.9314 43.2661 31.2063 44.7564C31.5101 46.3913 31.8429 48.0407 32.4795 49.5599C32.6387 49.9361 33.2029 49.9361 33.4923 50.2255C34.071 50.7897 34.6209 51.3974 35.0694 52.0774C35.5902 52.8587 35.7928 53.8571 36.4005 54.5805C36.849 55.1014 37.5001 55.4052 38.1222 55.6946C38.5852 55.9116 39.1495 56.2878 39.598 56.0708C40.09 55.8248 40.3504 55.1448 40.3649 54.595C40.3793 53.7847 39.9019 53.0613 39.6848 52.28C39.3955 51.2527 39.3665 50.1242 38.8457 49.1982C38.2814 48.1854 37.2541 47.4909 36.5018 46.6083C36.1111 46.1453 35.6481 45.7113 35.3877 45.1615C34.8089 43.9606 34.4906 42.6439 33.9987 41.3997C33.6804 40.5749 33.0872 39.837 32.957 38.9689C32.7255 37.5944 33.2463 36.7552 33.2319 35.3663C33.2174 33.6734 31.9586 32.1398 32.7833 29.984L32.8123 29.955Z" fill="url(#paint2_radial_206_13059)"/>
<path style="mix-blend-mode:screen" fill-rule="evenodd" clip-rule="evenodd" d="M51.795 5.0836C51.2018 5.43085 50.7099 5.90831 50.2179 6.40024C50.0443 6.57386 49.8852 6.80536 49.8128 7.05132C49.7694 7.21048 49.8418 7.3841 49.9141 7.51432C50.0299 7.71688 50.2758 7.81816 50.3916 8.02072C50.4639 8.15093 50.5073 8.33902 50.4205 8.45477C50.0443 8.9467 49.5235 9.32288 49.0894 9.77141C48.3949 10.4804 47.6281 11.1459 47.0349 11.9417C46.4995 12.6651 45.4578 15.3129 45.8629 16.2244C46.0655 16.6729 46.3838 17.0925 46.7889 17.3674C47.6136 17.9172 49.5669 18.1921 50.7388 18.9155C51.4767 19.3785 52.1423 19.9717 52.7499 20.6084C53.2419 21.1292 53.4589 21.8816 53.9798 22.359C55.2385 23.5165 56.7288 24.7753 58.4216 25.1659C59.5791 25.4264 60.8234 25.4264 61.9085 25.9038C62.8924 26.3524 63.6448 27.1915 64.4695 27.8716C67.7394 30.5917 69.0271 32.8921 73.8162 32.1832C75.9575 31.8649 77.9976 30.1865 79.8929 29.1882C82.613 27.7558 82.9313 28.4937 85.4489 28.2333C86.0855 28.1609 86.7655 28.1175 87.3008 27.7703C89.0949 26.5983 89.6013 24.8476 90.8167 23.4297C91.3086 22.8654 91.9163 22.4025 92.5095 21.9539C93.3342 21.3462 94.376 20.9845 95.0994 20.2611C96.416 18.9445 94.593 15.5733 94.13 14.3001C94.0287 14.0252 93.9998 13.7069 94.0287 13.403C94.0432 13.1426 94.0721 12.8532 94.2313 12.6507C94.5351 12.2455 95.3164 12.1153 95.4611 11.9417C95.5624 11.8404 95.6058 11.6523 95.5479 11.5221C95.4322 11.2038 95.2441 10.8855 94.9981 10.654C94.0142 9.74247 92.9725 8.87436 91.8874 8.09306C90.238 6.90664 88.5307 5.77809 86.7655 4.76529C85.637 4.11421 84.4795 3.521 83.2496 3.10141C81.8607 2.62395 80.3849 2.40692 78.967 2.05967C77.4912 1.68349 76.0298 1.16262 74.5251 0.916659C73.7583 0.80091 72.977 0.989002 72.2101 0.974533C71.4433 0.960064 70.6909 0.916659 69.9241 0.815379C68.9403 0.699631 67.5802 0.280043 67.0015 0.323448C66.4951 0.352386 64.0065 1.07581 62.5017 1.40859C61.3587 1.65455 60.1723 1.69796 59.0438 2.03074C57.7127 2.42139 56.4539 3.00013 55.1951 3.53547C54.0521 4.0274 52.8802 4.47592 51.8095 5.09807L51.795 5.0836ZM100.062 16.2678C99.6425 15.7614 99.165 15.3129 98.6586 14.8788C98.485 14.7341 97.0816 13.9094 97.342 14.8065C97.7327 16.1231 98.514 17.5266 98.948 19.0313C99.2808 20.1598 99.2084 21.0135 98.1378 21.6212C97.0092 22.2578 96.0109 22.2722 95.49 23.6902C94.9258 25.2093 94.5641 26.8009 93.9853 28.3201C93.2185 30.3023 92.6108 30.6351 91.5257 32.053C91.3376 32.2989 91.1061 32.5449 91.0627 32.8487C90.9469 33.7313 92.3648 35.3663 93.1606 35.6267C94.7087 36.1186 96.5607 35.7135 98.0654 35.2216C99.4834 34.7586 100.033 33.7169 101.06 33.1815C102.146 32.6172 104.605 33.2105 105.285 32.2266C105.69 31.6334 105.763 30.8666 105.835 30.1576C106.009 28.6384 105.661 27.2349 105.647 25.7736C105.647 25.5132 104.924 24.5293 104.634 23.8638C104.345 23.1982 103.969 21.925 103.896 21.7948C103.607 21.3173 103.216 20.9122 102.941 20.4347C102.782 20.1598 102.753 19.8126 102.565 19.5377C101.798 18.4091 100.959 17.3095 100.077 16.2533L100.062 16.2678ZM48.1055 7.41304C46.7744 8.80202 45.5446 11.6813 44.9225 12.1008C43.5045 13.0847 42.5641 13.3885 41.8407 15.2984C41.667 15.7469 41.5368 16.2099 41.5368 16.6874C41.5368 16.8899 41.6815 17.078 41.8407 17.1938C43.0271 18.0908 43.273 18.1053 43.0126 19.1615C42.8969 19.61 42.8101 20.0875 42.8101 20.5505C42.8101 20.753 42.8535 20.9845 42.9981 21.1148C43.1718 21.2884 43.4467 21.3752 43.6926 21.3897C44.445 21.462 45.1974 21.3028 45.9497 21.3752C46.8034 21.4475 47.0204 21.9829 47.3966 22.6484C47.6715 23.1259 47.8306 23.6612 48.1345 24.1242C48.3515 24.457 48.7422 24.674 48.9302 25.0213C49.4945 26.0341 49.8273 27.1915 50.406 28.2043C50.5941 28.5226 50.869 28.812 51.2018 28.9712C51.6503 29.1737 52.1857 29.0869 52.6487 29.2461C53.1117 29.4052 53.5891 29.5644 53.9508 29.8972C54.544 30.447 54.8624 31.2572 55.4266 31.8359C56.2224 32.6462 57.076 33.413 58.0165 34.0207C58.4506 34.2956 58.9859 34.3679 59.4923 34.4837C60.2012 34.6428 60.9536 34.6284 61.6481 34.8165C62.14 34.9467 62.632 35.1348 63.0371 35.4386C63.8329 36.0174 64.5418 36.7118 65.1929 37.4497C66.2057 38.5638 66.8857 39.9817 68.0287 40.9656C68.8534 41.6746 69.9096 42.0941 70.9514 42.4125C72.2535 42.8176 73.6281 43.0346 74.9881 43.0925C75.8852 43.1359 76.7967 43.0201 77.6358 42.7163C79.3865 42.0941 80.9491 40.9801 82.6998 40.3434C83.7271 39.9673 84.8412 39.7936 85.9408 39.6924C87.1562 39.5911 88.4004 39.6056 89.6158 39.7502C90.6286 39.8805 91.6125 40.1988 92.5819 40.5171C94.4049 41.1392 96.1411 41.9784 97.9786 42.5861C99.0059 42.9188 100.048 43.295 101.118 43.324C101.697 43.3384 102.29 43.078 102.724 42.7018C104.128 41.5154 104.272 40.5605 104.895 39.0702C105.039 38.7374 105.198 38.4047 105.387 38.1008C105.502 37.9127 105.618 37.6957 105.806 37.58C106.009 37.4642 106.327 37.6234 106.602 37.5076C107.137 37.2617 107.253 36.5961 107.21 35.8582C107.6 36.8421 107.484 40.2132 107.571 41.1682C107.658 42.2244 108.049 43.7146 108.121 44.3078C108.15 44.5538 107.224 46.073 106.949 47.0279C106.558 48.3301 106.602 49.748 106.153 51.0357C105.821 52.0051 105.112 52.8009 104.605 53.6835C104.186 54.4358 103.867 55.2461 103.404 55.9695C101.393 59.0947 99.1216 59.4709 95.6926 58.8921C91.0482 58.1253 88.5596 57.8359 83.7271 57.9083C75.8273 58.024 73.9608 59.6156 67.5368 61.5109C66.0465 61.9595 64.4984 62.2199 62.9358 62.3067C59.4778 62.5093 56.2369 61.236 53.0972 59.876C50.4494 58.733 47.5123 56.8376 45.6604 54.6094C44.7054 53.452 44.1556 52.0196 43.3743 50.7608C42.5496 49.4297 41.7973 48.0552 40.8423 46.8109C39.9453 45.6389 38.8457 44.6261 37.8473 43.541C37.3554 43.0057 36.7911 42.5282 36.3715 41.935C35.9664 41.3707 35.5613 40.7775 35.3877 40.112C34.8089 37.8549 34.346 34.5271 34.346 32.1543C34.346 31.1415 34.6787 30.2589 34.4038 29.1882C34.2013 28.4069 33.5502 28.0886 33.7527 26.7285C33.8974 25.8026 34.3604 24.9489 34.5919 24.0519C34.78 23.285 34.6932 22.4603 34.997 21.7369C35.4456 20.6662 36.1979 19.7692 36.7911 18.7708C37.0226 18.3802 37.2831 18.0185 37.4712 17.5989C37.7461 16.9767 37.9197 16.5716 38.3537 16.0363C38.6142 15.7035 39.0338 15.5299 39.3521 15.255C40.0755 14.6039 40.5096 13.6924 41.1751 12.969C41.6092 12.4915 42.1734 12.1443 42.622 11.6668C42.9837 11.2906 43.2007 10.7842 43.5769 10.437C44.6186 9.48204 45.8484 8.74414 48.0766 7.3841L48.1055 7.41304ZM74.583 62.162C73.6425 61.9739 72.948 61.9305 72.0076 62.2488C70.7344 62.6829 69.1573 63.4208 67.9998 64.1731C67.0159 64.8242 66.4083 65.5911 67.4066 66.763C69.273 68.9478 74.4238 70.2644 78.2869 69.4831C80.1968 69.0925 82.3526 67.9784 84.1756 67.7035C85.1306 67.5588 86.0999 67.8482 87.0549 67.689C87.8217 67.5588 88.5451 67.1971 89.2541 66.8788C90.4694 66.329 93.2329 64.8532 93.7104 63.4352C93.8262 63.0591 93.7683 62.625 93.6091 62.2633C93.4934 62.0029 93.2329 61.8292 92.9725 61.7424C90.918 61.0045 87.9809 60.6428 85.8106 60.5415C85.0003 60.4981 84.1612 60.5415 83.3654 60.7441C82.9892 60.8309 81.4121 62.0463 80.573 62.3501C78.0265 63.2472 77.0426 62.6395 74.5975 62.1765L74.583 62.162ZM34.8089 55.3184C34.8089 55.3184 36.6609 57.8793 39.0338 59.0079C39.7861 59.3696 40.5674 59.6734 41.3632 59.9628C42.8101 60.4981 44.2569 61.0335 45.7472 61.4531C47.3676 61.9161 49.0605 62.0752 50.652 62.5961C51.4478 62.8565 52.0265 63.8114 52.8657 63.797C53.4589 63.797 55.9475 63.768 58.6386 64.8387C62.9937 66.5749 66.1768 68.6584 70.1701 70.5393C71.1973 71.0168 72.268 71.4074 73.3821 71.6534C74.3515 71.8704 75.3498 71.9572 76.3481 71.8994C77.3754 71.8415 78.3593 71.4942 79.3721 71.2772C80.6164 71.0168 81.8751 70.7997 83.105 70.4814C83.6114 70.3512 84.0454 69.975 84.5518 69.9316C85.1161 69.8738 85.6804 70.1197 86.2446 70.1487C87.0115 70.1921 87.8072 70.3078 88.5596 70.1487C89.2686 70.004 89.9341 69.6423 90.5273 69.2516C91.3231 68.7307 91.9742 68.0218 92.7121 67.4286C93.7827 66.5749 94.8679 65.7502 95.953 64.8966C96.8501 64.2021 97.7761 63.5365 98.6297 62.7986C99.7583 61.8292 100.38 60.8454 101.35 59.8326C101.697 59.4564 101.581 59.8326 101.538 59.9194C100.872 61.0913 100.019 62.7842 99.2519 63.8114C98.9046 64.26 98.4127 64.5638 98.022 64.9834C94.81 68.4124 90.5418 73.0858 85.9408 74.605C85.7382 74.6773 84.0309 74.822 83.105 75.0969C81.933 75.4441 80.8623 76.0374 79.7193 76.4569C77.8239 77.1514 75.972 78.0485 73.9898 78.4247C72.6876 78.6706 68.8679 77.8604 67.204 77.8025C65.6414 77.7446 62.7622 78.034 62.5162 77.9327C60.8089 77.2238 58.1467 76.0084 55.9186 75.1548C55.2241 74.8943 53.8062 74.5326 53.6759 74.4603C52.5908 73.8237 51.6648 73.1581 50.5507 72.5649C49.1328 71.7981 47.5123 71.4219 46.1668 70.5248C44.8935 69.6857 43.8373 68.5282 42.7811 67.443C40.9291 65.5477 38.9469 63.7391 37.4133 61.5833C36.3715 60.122 35.8217 58.3568 35.1417 56.6929C34.9536 56.2444 34.6932 55.2895 34.8379 55.2895L34.8089 55.3184ZM32.8123 29.955C31.814 31.6913 31.1629 34.1364 30.9024 35.6412C30.7867 36.3501 30.9892 37.0736 30.9603 37.797C30.9314 38.6072 30.6854 39.4175 30.7143 40.2277C30.7722 41.7469 30.9314 43.2661 31.2063 44.7564C31.5101 46.3913 31.8429 48.0407 32.4795 49.5599C32.6387 49.9361 33.2029 49.9361 33.4923 50.2255C34.071 50.7897 34.6209 51.3974 35.0694 52.0774C35.5902 52.8587 35.7928 53.8571 36.4005 54.5805C36.849 55.1014 37.5001 55.4052 38.1222 55.6946C38.5852 55.9116 39.1495 56.2878 39.598 56.0708C40.09 55.8248 40.3504 55.1448 40.3649 54.595C40.3793 53.7847 39.9019 53.0613 39.6848 52.28C39.3955 51.2527 39.3665 50.1242 38.8457 49.1982C38.2814 48.1854 37.2541 47.4909 36.5018 46.6083C36.1111 46.1453 35.6481 45.7113 35.3877 45.1615C34.8089 43.9606 34.4906 42.6439 33.9987 41.3997C33.6804 40.5749 33.0872 39.837 32.957 38.9689C32.7255 37.5944 33.2463 36.7552 33.2319 35.3663C33.2174 33.6734 31.9586 32.1398 32.7833 29.984L32.8123 29.955Z" fill="url(#paint3_radial_206_13059)"/>
<path style="mix-blend-mode:multiply" fill-rule="evenodd" clip-rule="evenodd" d="M77.9975 3.23163C79.9363 4.60614 82.0198 7.84709 83.973 8.84542C84.6675 9.19267 89.1672 8.83095 88.9068 10.1476C88.7477 10.9144 87.2574 11.0302 86.3748 11.3195C85.1739 11.7247 85.4778 12.5783 86.1289 12.9834C87.9374 14.1264 89.746 15.0235 91.3665 16.3112C92.524 17.2227 93.5223 18.3368 94.3904 19.5232C94.593 19.8126 94.7521 20.1309 94.8823 20.4492C94.9547 20.3913 95.027 20.319 95.0849 20.2611C96.4015 18.9445 94.5785 15.5733 94.1155 14.3001C94.0142 14.0252 93.9853 13.7069 94.0142 13.403C94.0287 13.1426 94.0576 12.8532 94.2168 12.6507C94.5206 12.2455 95.3019 12.1153 95.4466 11.9417C95.5479 11.8404 95.5913 11.6523 95.5334 11.5221C95.4177 11.2038 95.2296 10.8855 94.9836 10.654C93.9997 9.74247 92.958 8.87436 91.8729 8.09306C90.2235 6.90664 88.5162 5.77809 86.751 4.76529C85.6225 4.11421 84.465 3.521 83.2351 3.10141C81.8462 2.62395 80.3704 2.40692 78.9525 2.05967C77.4767 1.68349 76.0153 1.16262 74.5106 0.916659C73.7438 0.800911 72.9625 0.989002 72.1956 0.974533C71.4288 0.960065 70.6764 0.916659 69.9096 0.815379C68.9258 0.699631 67.5657 0.280043 66.987 0.323448C66.4806 0.352386 63.992 1.07581 62.4873 1.40859C61.3442 1.65455 60.1578 1.69796 59.0293 2.03074C57.6982 2.42139 56.4394 3.00013 55.1806 3.53547C54.0376 4.01293 52.8801 4.46145 51.8095 5.0836C54.2112 3.95505 55.0504 4.12868 56.9313 3.43419C61.0838 1.88605 59.7961 2.68182 63.4422 2.2333C64.2524 2.13202 64.9469 1.4954 65.7571 1.43753C66.4227 1.37965 67.0738 1.65455 67.6959 1.87158C70.1122 2.66735 69.4322 2.98566 72.4416 2.82651C73.5412 2.76863 74.6119 2.37798 75.7115 2.45033C76.5217 2.5082 77.332 2.7831 77.9975 3.2461V3.23163ZM98.948 19.0313C99.2808 20.1598 99.2084 21.0135 98.1377 21.6212C97.342 22.0697 96.6186 22.1999 96.0832 22.7352C97.1684 24.0519 98.9914 25.383 99.5846 26.4247C99.9318 27.0179 100.134 27.7703 100.019 28.4648C99.7293 30.2444 98.8756 31.8938 98.4126 33.6445C98.2824 34.1654 98.1378 34.6863 98.0654 35.2216C99.4689 34.7586 100.019 33.7169 101.046 33.196C102.131 32.6317 104.591 33.2249 105.271 32.2411C105.676 31.6479 105.748 30.881 105.821 30.1721C105.994 28.6529 105.647 27.2494 105.632 25.7881C105.632 25.5277 104.909 24.5438 104.62 23.8782C104.33 23.2127 103.954 21.9395 103.882 21.8092C103.592 21.3318 103.202 20.9267 102.927 20.4492C102.768 20.1743 102.739 19.8271 102.551 19.5521C101.784 18.4236 100.945 17.324 100.062 16.2678C99.6425 15.7614 99.165 15.3129 98.6586 14.8788C98.485 14.7341 97.0815 13.9094 97.342 14.8065C97.7326 16.1231 98.5139 17.5266 98.948 19.0313ZM102.739 42.7452C102.305 43.1214 101.711 43.3818 101.133 43.3674C100.323 43.3529 99.5267 43.1214 98.7599 42.8754C98.9191 44.93 98.6586 46.9556 97.0526 49.0535C96.1411 50.2544 94.7666 51.0068 93.667 52.0196C92.7265 52.8877 91.7571 53.7269 90.889 54.6673C89.9341 55.7091 89.1817 56.8521 88.4583 58.0095C90.7588 58.1398 92.8278 58.4436 95.7215 58.9211C99.1505 59.4853 101.422 59.1236 103.433 55.9984C103.896 55.275 104.215 54.4648 104.634 53.7124C105.126 52.8153 105.835 52.0196 106.182 51.0646C106.631 49.7769 106.602 48.359 106.978 47.0569C107.253 46.1164 108.179 44.5972 108.15 44.3368C108.078 43.7291 107.687 42.2533 107.6 41.1971C107.528 40.2566 107.629 36.8855 107.238 35.8871C107.282 36.625 107.181 37.2906 106.631 37.5366C106.356 37.6668 106.038 37.4931 105.835 37.6089C105.647 37.7246 105.531 37.9417 105.415 38.1298C105.227 38.4336 105.068 38.7664 104.923 39.0992C104.301 40.5894 104.157 41.5443 102.753 42.7308L102.739 42.7452ZM92.958 61.7424C91.1784 61.1058 88.7477 60.7441 86.7076 60.5994C86.6787 60.6428 86.6497 60.6718 86.6208 60.7152C85.2607 62.4803 83.6113 63.9706 81.4989 64.7808C80.1968 65.2872 78.7644 65.3596 77.4333 65.7647C75.3498 66.3868 72.4271 67.8482 69.9096 68.4992C72.2969 69.5555 75.5958 70.0184 78.2724 69.4831C80.1823 69.0925 82.3381 67.9784 84.1611 67.7035C85.1161 67.5588 86.0854 67.8482 87.0404 67.689C87.8072 67.5588 88.5306 67.1971 89.2396 66.8788C90.455 66.329 93.2184 64.8532 93.6959 63.4353C93.8117 63.0591 93.7538 62.625 93.5946 62.2633C93.4789 62.0029 93.2185 61.8292 92.958 61.7424ZM83.0615 70.4959C81.8317 70.8142 80.5729 71.0312 79.3286 71.2917C78.3158 71.5087 77.332 71.8415 76.3047 71.9138C75.3209 71.9717 74.3081 71.8849 73.3387 71.6679C72.2391 71.4219 71.1539 71.0457 70.1266 70.5538C68.7666 69.9027 67.4934 69.2371 66.2491 68.5716C63.4566 67.906 61.3298 66.6907 58.002 66.3724C56.9024 66.2711 55.7594 66.6183 54.6742 66.3724C52.8946 65.9673 51.1439 65.3451 49.5524 64.4625C47.0638 63.088 45.6748 62.2488 44.5028 61.0769C43.4466 60.7296 42.3904 60.339 41.3342 59.9483C40.5529 59.659 39.7716 59.3551 39.0048 58.9934C36.632 57.8793 34.8234 55.3039 34.78 55.3039C34.6353 55.3039 34.9102 56.2589 35.0838 56.7074C35.7638 58.3713 36.3136 60.1364 37.3554 61.5977C38.889 63.7536 40.8712 65.5621 42.7232 67.4575C43.7939 68.5427 44.8356 69.7001 46.1089 70.5393C47.4544 71.4219 49.0749 71.8125 50.4928 72.5794C51.6069 73.1726 52.5329 73.8381 53.618 74.4748C53.7482 74.5471 55.1662 74.9088 55.8607 75.1693C58.0888 76.0229 60.751 77.2383 62.4583 77.9472C62.7043 78.0485 65.5835 77.7736 67.1461 77.817C68.81 77.8749 72.6297 78.6851 73.9319 78.4391C75.9141 78.063 77.766 77.1514 79.6614 76.4714C80.8044 76.0518 81.8896 75.4586 83.0471 75.1114C83.973 74.8365 85.6803 74.6918 85.8829 74.6194C90.4984 73.1002 94.7521 68.4414 97.9641 64.9979C98.3548 64.5783 98.8612 64.2744 99.194 63.8259C99.9608 62.7986 100.814 61.1058 101.48 59.9339C101.523 59.8471 101.654 59.4709 101.292 59.8471C100.337 60.8599 99.7004 61.8292 98.5718 62.8131C97.7182 63.551 96.7777 64.2166 95.8951 64.911C94.81 65.7502 93.7248 66.5894 92.6542 67.443C91.9163 68.0363 91.2652 68.7452 90.4694 69.2661C89.8617 69.6567 89.1962 70.0184 88.5017 70.1631C87.7493 70.3223 86.9536 70.2065 86.1867 70.1631C85.6225 70.1342 85.0582 69.8882 84.4939 69.9461C83.973 70.004 83.539 70.3657 83.0471 70.4959H83.0615ZM38.7588 52.5694C38.0209 51.6 36.7622 51.0357 36.169 49.9795C33.6659 45.5521 33.174 43.4397 33.2897 39.9383C33.1306 39.62 33.0148 39.2873 32.9569 38.94C32.7254 37.5655 33.2463 36.7263 33.2318 35.3373C33.2174 33.6445 31.9586 32.1108 32.7833 29.955C31.785 31.6913 31.1339 34.1364 30.8735 35.6412C30.7577 36.3501 30.9603 37.0736 30.9313 37.797C30.9024 38.6072 30.6564 39.4175 30.6854 40.2277C30.7433 41.7469 30.9024 43.2661 31.1773 44.7564C31.4812 46.3913 31.8139 48.0407 32.4505 49.5599C32.6097 49.9361 33.174 49.9361 33.4633 50.2255C34.0421 50.7897 34.5919 51.3974 35.0404 52.0774C35.5613 52.8587 35.7638 53.8571 36.3715 54.5805C36.82 55.1014 37.4711 55.4052 38.0933 55.6946C38.5563 55.9116 39.1205 56.2878 39.5691 56.0708C39.9597 55.8827 40.2057 55.4197 40.2925 54.9712C39.815 54.1464 39.3086 53.3362 38.7299 52.5838L38.7588 52.5694Z" fill="url(#paint4_radial_206_13059)"/>
<path style="mix-blend-mode:multiply" opacity="0.5" fill-rule="evenodd" clip-rule="evenodd" d="M37.0516 27.3362C37.6303 25.9906 40.4662 28.1754 40.9002 28.8409C42.2892 30.9822 41.6671 33.2104 42.2313 35.4386C42.6654 37.1459 43.794 37.9127 44.3872 38.5782C44.5318 38.7374 44.5029 39.0991 44.3293 39.2293C44.0978 39.4029 43.7361 39.4029 43.4612 39.2872C41.8986 38.5782 39.844 37.305 39.0483 35.7135C38.2091 34.0206 38.8168 32.1397 38.3972 30.9099C38.2091 30.3312 37.6304 29.9695 37.2252 29.5209C36.632 28.8554 36.7478 28.0017 37.0371 27.3362H37.0516ZM60.5919 7.18149C60.2592 6.40019 57.6114 5.41633 59.2608 3.6801C59.637 3.28945 60.2447 2.85539 61.1417 2.36346C62.415 1.68344 63.804 1.23491 65.164 0.728516C64.2814 0.960012 63.2542 1.22045 62.4873 1.39407C62.3426 1.42301 62.2124 1.45194 62.0677 1.48088C61.2286 1.62557 60.5196 1.82813 59.7383 2.1609C56.5263 3.49201 53.9509 4.85205 53.4155 5.90826C53.3866 5.9806 53.3577 6.03847 53.3432 6.11082C53.2853 6.35678 53.5313 6.67509 53.7773 6.73296C55.3688 7.12361 56.9893 7.18149 58.6532 7.41298C59.1885 7.48533 59.3766 7.68789 59.3766 7.90491C59.3766 8.13641 59.1595 8.38238 58.8991 8.52706C56.9459 9.6122 51.0138 12.9544 52.0555 16.0507C52.5619 17.5554 56.9748 16.0941 60.0711 18.5104C61.1562 19.364 61.6771 20.7675 62.7188 21.65C65.4823 23.9939 68.3326 21.216 71.8485 22.1998C73.0349 22.5326 73.8451 23.7046 74.9881 24.1676C77.2886 25.108 80.3704 24.3701 82.1356 22.6194C82.9603 21.8092 82.4828 20.29 83.0616 19.2917C83.4378 18.655 84.002 18.1631 84.6242 17.7291C86.534 16.4414 89.095 15.8047 88.9792 13.9238C88.8924 12.4625 86.78 10.5527 86.7655 9.48199C86.7511 8.45472 87.1851 7.68789 87.2719 6.87765C87.3443 6.2121 87.1707 5.51761 86.2591 4.66396C85.9119 4.33118 85.5646 4.08522 85.1306 3.88266C84.5084 3.57882 83.8718 3.30392 83.2207 3.08689C81.9764 2.65283 80.6743 2.45027 79.3866 2.14643C79.6325 2.23324 79.8785 2.30559 80.1245 2.3924C81.4411 2.82646 84.5808 4.01288 85.1451 5.79251C85.2897 6.24103 85.2753 6.71849 85.0293 7.22489C84.6821 7.96279 81.6871 9.80029 83.1195 10.6829C88.2992 13.866 85.2174 13.5187 82.9892 16.3545C82.888 16.4848 82.8012 16.615 82.7143 16.7452C81.0794 19.2338 82.5552 21.2883 76.7678 20.7385C75.4077 20.6083 72.5719 19.7547 71.588 19.8125C69.5914 19.9138 67.6671 20.6806 65.6704 20.6806C64.8602 20.6806 64.0644 20.2755 63.3844 19.8125C62.1835 18.9878 62.1979 17.6423 59.8685 16.9188C52.8513 14.7485 58.5663 11.2327 60.1723 8.84537C60.317 8.62834 60.4762 8.41131 60.563 8.17982C60.6787 7.89045 60.7222 7.57214 60.563 7.18149H60.5919ZM68.3181 24.0952C65.2363 24.8621 69.4033 26.6706 70.445 27.4664C71.9063 28.5805 73.1796 29.3473 73.7149 28.6962C74.2937 28.0017 73.0349 25.6144 72.6153 25.0501C71.7617 23.9071 69.7071 23.7624 68.3037 24.1097L68.3181 24.0952ZM98.2825 23.9216C97.8485 24.0952 97.3854 24.2978 97.0527 24.6306C96.9369 24.7463 96.8357 24.8765 96.7344 25.0067C96.5318 25.2961 96.3727 25.6144 96.2858 25.9472C96.0254 27.0468 96.2714 28.2332 95.9097 29.3039C95.6782 30.0129 95.1428 30.6205 94.5786 31.1269C93.9853 31.6478 93.1751 32.024 92.5096 32.2989C91.2074 32.8198 93.0883 32.704 94.6075 32.3857C95.8807 32.1253 98.5429 31.1414 98.5285 29.492C98.5285 28.4647 97.9642 27.4953 97.9063 26.4681C97.9063 26.28 97.9063 26.0774 97.9642 25.8893C98.0221 25.6578 98.1234 25.4263 98.268 25.2382C98.5574 24.8621 99.0059 24.645 99.44 24.4714C100.149 24.182 100.974 24.2254 101.654 23.8927C101.958 23.7335 102.146 23.3863 102.276 23.0535C102.319 22.9377 102.363 22.822 102.392 22.7062C102.493 22.3445 102.536 21.9539 102.551 21.5777C102.551 21.2015 102.536 20.8109 102.478 20.4347C102.348 19.581 102.044 18.8721 101.538 18.1776C101.06 17.5265 100.554 16.8899 100.033 16.2677C99.9898 16.2243 99.9464 16.1665 99.903 16.1231C100.38 17.2661 100.916 18.3801 101.249 19.5666C101.379 20.0151 101.437 20.4926 101.451 20.97C101.451 21.3028 101.451 21.65 101.422 21.9828C101.393 22.3735 101.292 22.8509 100.959 23.068C100.149 23.5599 99.1217 23.5744 98.2391 23.9361L98.2825 23.9216ZM47.4979 28.0885C47.1217 27.2783 42.3471 24.7029 41.0883 23.2126C40.5385 22.5616 40.9292 21.4909 40.6543 20.6806C40.4951 20.2321 40.1913 19.8415 39.9164 19.4363C39.6849 19.0891 39.4679 18.7419 39.4244 18.3367C39.41 18.1486 39.4244 17.9027 39.4534 17.6278C39.6415 16.2533 40.4807 13.9962 41.4645 12.7229C41.3632 12.8098 41.2764 12.911 41.1896 12.9978C40.5385 13.7213 40.09 14.6328 39.3666 15.2839C38.8312 15.7469 38.4695 16.2533 38.2091 16.9188C38.1078 17.1793 38.021 17.4397 37.9921 17.6423C37.8908 18.221 38.1512 18.8142 38.1223 19.3929C38.1223 19.4798 38.1223 19.5666 38.0933 19.6534C37.9487 20.7964 37.312 21.9973 37.7172 23.0535C38.2091 24.3267 39.8585 25.5855 41.2041 26.743C41.8841 27.3217 42.4773 27.857 42.8246 28.3634C43.4322 29.246 43.6637 30.3601 43.9242 31.4018C43.9242 31.4163 43.9242 31.4308 43.9242 31.4452C44.3438 33.1091 43.7939 35.1492 44.8502 36.5092C46.3259 38.4191 48.8001 39.2727 50.898 40.4591C54.9637 42.7452 55.2241 42.8031 59.2174 45.6968C59.7672 46.1019 60.317 46.507 60.8668 46.9121C61.9664 47.7224 63.095 48.4892 64.3248 49.0245C67.45 50.3701 72.1668 50.9199 75.6826 50.5437C77.144 50.3846 78.4027 50.0663 79.2564 49.5743C80.2836 48.9811 80.5441 48.3011 78.7934 48.7062C76.9848 49.1258 70.6765 49.4152 67.233 46.6662C67.2041 46.6517 67.1896 46.6372 67.1607 46.6083C65.9453 45.61 65.0482 44.2788 63.8908 43.2082C63.5001 42.8465 63.0516 42.4847 62.5307 42.3401C58.0455 41.1102 54.6743 42.2098 51.6793 38.1442C47.8596 32.9789 49.2197 31.8214 47.4834 28.0307L47.4979 28.0885ZM74.7277 54.6673C67.4934 54.4792 66.9581 53.4519 60.7945 51.7736C60.2013 51.6144 59.5502 51.9182 58.9425 51.7736C57.1918 51.354 56.2658 49.6756 54.8769 48.3156C54.5296 47.9828 54.0377 47.6066 53.4879 47.2883C52.6342 46.7819 51.6214 46.3913 50.8401 46.3768C50.5218 46.3768 50.0444 46.4347 49.9576 46.7385C49.8707 47.0423 50.3337 47.3028 50.5652 47.3896C55.0649 49.2994 55.8463 54.4502 60.0277 54.4792C60.9392 54.4792 61.8073 54.0741 62.7043 54.0741C67.1896 54.0741 69.7361 55.7379 73.5558 56.2009C74.3949 56.3022 75.1907 55.7379 76.0154 55.6801C77.5201 55.5788 79.0538 55.926 80.5441 55.7379C82.2224 55.5354 83.814 54.8698 85.4778 54.5371C88.1835 53.9872 90.0788 54.9132 92.7555 54.5371C93.3487 54.4502 93.8262 53.9438 94.4194 53.886C96.5029 53.7123 97.6459 54.4792 100.279 53.7557C100.597 53.6689 100.887 53.4808 101.176 53.2928C101.552 53.0468 101.943 52.7864 102.377 52.7574C102.797 52.7285 103.245 52.714 103.679 52.6706C103.737 52.6706 103.809 52.6561 103.867 52.6417C105.097 52.4536 106.038 51.5999 106.327 50.3846C106.472 49.7769 106.544 49.1403 106.645 48.5037C106.313 49.4296 105.85 50.0807 104.403 50.6595C104.128 50.7752 103.809 50.8765 103.448 50.9923C102.507 51.2816 101.48 51.1514 100.554 51.4263C100.207 51.5276 99.903 51.6289 99.6136 51.7301C96.9803 52.6561 96.3582 53.4953 92.5385 53.5243C89.992 53.5532 87.5324 52.4536 85.2029 52.3523C84.1033 52.3089 83.0037 52.5549 81.933 52.8442C79.0104 53.6545 78.3593 54.7251 74.7132 54.6383L74.7277 54.6673Z" fill="url(#paint5_radial_206_13059)"/>
<path style="mix-blend-mode:screen" fill-rule="evenodd" clip-rule="evenodd" d="M48.134 24.1532C47.8301 23.6902 47.671 23.1549 47.3961 22.6774C47.0199 22.0119 46.8028 21.4765 45.9492 21.4042C45.1968 21.3318 44.4445 21.491 43.6921 21.4187C43.4461 21.3897 43.1712 21.3174 42.9976 21.1438C42.8529 20.9991 42.8095 20.7676 42.8095 20.5795C42.8095 20.1165 42.8963 19.639 43.0121 19.1905C43.2725 18.1343 43.0266 18.1054 41.8401 17.2228C41.7099 17.1215 41.5797 16.9768 41.5508 16.8177C41.5508 16.7887 41.5218 16.7598 41.4784 16.7453C41.3482 16.7164 40.8852 17.1504 40.509 17.6713C39.9882 18.3658 39.5396 19.2339 39.4384 19.4509C38.7294 20.8833 38.6281 22.5472 38.0204 24.0085C37.4128 25.4554 36.3421 26.6707 35.8068 28.1465C35.2569 29.6223 34.8518 31.1994 34.765 32.7765C34.6782 34.2089 34.9531 35.6412 35.2569 37.0302C35.6042 38.5928 36.2119 40.0831 36.7327 41.5878C36.863 41.9785 36.9932 42.3836 37.1089 42.7742C37.3694 43.0491 37.6443 43.3096 37.9047 43.5845C38.903 44.6696 40.0026 45.6824 40.8997 46.8544C41.8546 48.0987 42.607 49.4732 43.4317 50.8043C43.4461 50.8332 43.4606 50.8622 43.4896 50.8911C44.213 51.2962 44.9653 51.629 45.7466 51.8894C48.0037 52.6418 50.3476 53.2061 52.7205 53.4376C54.4567 53.6112 56.2508 53.4231 57.9581 53.0614C60.0126 52.6418 61.9225 51.7013 63.9336 51.1515C65.1924 50.8187 66.5814 50.9779 67.7533 50.4136C69.4606 49.5889 70.9653 48.3591 72.3832 47.0859C73.0343 46.4927 73.2948 45.5522 73.859 44.8722C74.3799 44.25 75.0021 43.7002 75.6097 43.1649C75.4216 43.1649 75.2191 43.1649 75.031 43.1649C73.6709 43.107 72.2964 42.89 70.9943 42.4849C69.9525 42.1666 68.8963 41.747 68.0716 41.038C66.9286 40.0541 66.2486 38.6362 65.2358 37.5222C64.5702 36.7987 63.8613 36.1042 63.08 35.511C62.6749 35.2072 62.1829 35.0191 61.691 34.8889C60.982 34.7008 60.2441 34.7008 59.5352 34.5561C59.0288 34.4404 58.4934 34.3825 58.0594 34.0931C57.1189 33.471 56.2653 32.7041 55.4695 31.9084C54.9052 31.3296 54.5869 30.5194 53.9937 29.9696C53.6465 29.6368 53.1545 29.4776 52.6916 29.3185C52.2286 29.1593 51.6932 29.2461 51.2447 29.0436C50.9119 28.8844 50.6225 28.5951 50.4489 28.2768C49.8702 27.264 49.5374 26.1209 48.9731 25.0937C48.7706 24.7464 48.3944 24.5294 48.1774 24.1966L48.134 24.1532ZM52.7639 20.594C53.2558 21.1148 53.4729 21.8672 53.9937 22.3446C55.2525 23.5021 56.7427 24.7609 58.4356 25.1515C59.593 25.412 60.8373 25.412 61.9225 25.8894C62.9063 26.338 63.6587 27.1771 64.4834 27.8572C67.7533 30.5773 69.041 32.8778 73.8301 32.1688C75.9714 31.8505 78.0115 30.1721 79.9069 29.1738C80.3265 28.9568 80.6882 28.7832 81.0065 28.6529C82.4244 28.0742 83.4228 27.0325 83.9291 25.5856C84.1172 25.0213 84.3198 24.4715 84.4645 23.8928C84.7394 22.8366 85.1879 21.7659 85.0866 20.6808C84.9275 19.1182 84.2909 17.6279 83.6687 16.181C83.3649 15.4866 82.7283 14.9657 82.3087 14.3291C81.2959 12.7809 80.5435 11.0447 79.3426 9.64126C78.3298 8.45484 77.1145 7.39864 75.7689 6.61733C74.5246 5.90837 73.0488 5.74922 71.7032 5.25729C71.1245 5.05473 70.5891 4.72195 70.0104 4.54833C69.0555 4.25896 68.1006 3.94065 67.1167 3.83937C66.1328 3.73809 65.1345 3.86831 64.1506 3.96959C63.0076 4.07087 61.8791 4.21555 60.765 4.43258C59.2747 4.72195 57.77 5.02579 56.3232 5.51772C55.5708 5.76369 54.9486 6.29903 54.2252 6.6318C53.4728 6.97905 52.6047 7.12373 51.9102 7.58673C51.2013 8.07866 50.7817 8.91783 50.0872 9.4387C49.9425 9.55445 49.7689 9.62679 49.6097 9.69913C49.0744 9.93063 48.6548 10.2055 48.2352 10.6251C47.8301 11.0302 47.425 11.4498 47.0778 11.9128C46.5424 12.6363 45.5007 15.284 45.9058 16.1955C46.1084 16.644 46.4267 17.0636 46.8318 17.3385C47.6565 17.8883 49.6098 18.1632 50.7817 18.8867C51.5196 19.3497 52.1852 19.9429 52.7928 20.5795L52.7639 20.594Z" fill="url(#paint6_radial_206_13059)"/>
<g style="mix-blend-mode:screen" opacity="0.5">
<path fill-rule="evenodd" clip-rule="evenodd" d="M70.4734 60.9618C69.1713 61.3813 67.927 62.0035 66.6248 62.4086C65.7422 62.6835 64.8307 62.8716 63.9047 62.9584C63.297 63.0308 62.6749 62.9584 62.0527 62.9005C61.1267 62.8137 60.2008 62.5967 59.2748 62.4954C58.8841 62.452 58.4645 62.3797 58.0884 62.4954C57.6688 62.6256 57.8424 62.8137 57.9581 62.8716C58.4211 63.0742 58.9565 63.2333 59.4195 63.4937C60.3744 64.0001 61.0833 64.5065 62.0817 64.8972C62.371 65.0129 62.834 64.767 63.1089 64.9117C64.1073 65.447 64.8162 66.4164 65.7567 67.0385C66.2631 67.3713 66.9286 67.6896 67.4206 67.7764C67.4784 67.7764 67.6665 67.7764 67.4784 67.6173C66.8997 67.1832 66.4222 66.5756 66.0895 65.9245C65.9014 65.5627 65.9014 65.1142 66.0026 64.7236C66.0895 64.3619 66.292 64.0146 66.5814 63.7976C67.3338 63.2188 68.2163 62.8427 69.041 62.3797C69.7211 62.0035 70.459 61.6996 71.11 61.2656C71.1969 61.2077 71.2692 61.0052 71.1679 60.9618C70.9364 60.8605 70.6615 60.8894 70.43 60.9618H70.4734ZM52.3154 60.3251C50.9698 59.7319 49.5808 59.24 48.3076 58.5021C47.2803 57.9234 46.282 57.2578 45.4718 56.4042C44.8062 55.7097 44.43 54.7981 43.996 53.9445C43.1713 52.324 42.4044 51.0363 41.6521 49.6329C41.3338 49.0541 41.3916 48.2873 41.001 47.752C40.6827 47.3034 40.1329 47.043 39.641 46.797C39.4239 46.6813 39.1201 46.5655 38.9031 46.6668C38.715 46.7536 38.6426 47.0575 38.715 47.2456C38.9175 47.8098 39.4818 48.186 39.6699 48.7503C39.9014 49.4303 39.8001 50.2116 39.9737 50.9061C40.1039 51.427 40.3788 51.9044 40.6248 52.3819C40.8997 52.9028 41.1312 53.3658 41.3048 53.93C41.4351 54.3352 41.3482 54.7692 41.4929 55.1599C41.8402 56.1003 42.6359 56.8527 42.9398 57.8076C43.3594 59.1242 41.6955 58.4876 41.1891 58.2127C40.2486 57.7063 39.4529 56.9974 38.5413 56.462C38.2809 56.3029 37.9771 56.0858 37.6732 56.1582C37.5141 56.1871 37.6009 56.5054 37.6732 56.6501C37.9192 57.1421 38.1362 57.7208 38.5992 58.0102C39.3805 58.5021 40.3788 58.5166 41.218 58.8783C41.6376 59.0519 41.9415 59.5004 42.39 59.6162C44.0249 60.0647 45.385 59.6885 47.6565 60.5132C48.0906 60.6724 48.4957 60.8894 48.9153 61.0341C49.3349 61.1788 49.7979 61.1932 50.1741 61.4103C50.8541 61.8009 51.3315 62.5388 52.055 62.8282C52.8941 63.1754 56.3811 63.2188 56.6849 62.5678C56.9887 61.9167 53.4729 60.846 52.3009 60.3251H52.3154ZM38.3677 46.3196C38.5847 46.2472 38.8452 46.0881 38.8596 45.8566C38.8886 45.4804 38.7439 45.0608 38.4835 44.7714C38.0928 44.3374 37.4273 44.2361 37.0366 43.8165C36.4868 43.2233 36.2698 42.0948 35.3438 41.1977C35.2714 41.1254 35.0689 41.0964 35.04 41.1977C34.9531 41.4003 34.9965 41.6607 35.0689 41.8777C35.4161 42.8471 35.7344 43.8455 36.2698 44.7136C36.4579 45.0029 36.9209 44.9885 37.1668 45.2344C37.4417 45.5238 37.4562 45.9868 37.7456 46.2472C37.9047 46.3919 38.1652 46.3775 38.3677 46.3051V46.3196ZM82.381 59.1387C81.7734 58.8927 81.1078 58.8927 80.4567 58.8638C80.0227 58.8493 79.5886 59.0085 79.1401 58.994C78.8073 58.994 78.5179 58.7915 78.1852 58.777C76.7962 58.7481 74.4667 59.5294 73.179 60.0213C72.962 60.1081 72.6726 60.2673 72.6871 60.4988C72.7016 60.6868 73.0488 60.6434 73.2225 60.6C73.7867 60.4843 74.3655 60.3107 75.1757 60.3541C75.5085 60.3685 75.8123 60.3975 76.1451 60.3975C76.4345 60.3975 76.7094 60.2383 76.9987 60.2962C77.4617 60.3975 77.78 60.8171 78.1996 61.0196C78.5758 61.2077 78.9665 61.4537 79.3861 61.4537C80.4133 61.4537 85.0143 60.2094 82.381 59.1387ZM44.6037 17.3391C44.8496 17.4548 44.8786 17.8455 44.8496 18.1059C44.8062 18.5978 44.4156 19.0319 44.3866 19.5238C44.3722 19.7698 44.5024 20.0881 44.7194 20.2038C45.4573 20.5945 46.3399 20.609 47.0923 20.9707C47.4829 21.1588 47.6855 21.6073 48.0472 21.8388C49.6677 22.8371 50.6226 22.6924 52.1852 24.5878C52.706 25.2244 53.0244 26.0202 53.6754 26.4977C54.3699 27.0041 55.0355 27.1053 55.8747 27.2934C56.9309 27.5394 58.0594 27.5394 59.0143 28.0313C59.4773 28.2628 59.8535 28.9429 60.3165 29.1888C61.474 29.811 62.4 30.0714 63.6443 30.5055C64.5847 30.8238 65.5975 31.0119 66.4222 31.5472C68.7661 33.0953 68.5925 34.9039 73.2369 35.4971C75.8702 35.8299 76.7383 34.0358 78.1707 32.777C78.9665 32.0825 79.8056 31.4314 80.7027 30.8672C81.1802 30.5633 81.7734 30.4765 82.2508 30.1582C82.4679 30.0135 82.8296 29.7531 82.7138 29.5071C82.5836 29.2467 82.1351 29.2467 81.8457 29.319C80.8618 29.5795 79.9503 30.0135 79.0388 30.462C77.9537 30.9974 76.9843 31.7498 75.8991 32.2851C73.2514 33.5728 70.6615 33.7319 68.1874 31.851C66.3065 30.4186 64.7149 28.6535 62.8774 27.1632C62.2842 26.6858 61.6765 26.2083 60.9676 25.9334C60.3599 25.7019 59.6654 25.8032 59.0288 25.6874C58.0305 25.4993 56.9887 25.427 56.0628 25.0074C53.4874 23.8065 52.055 22.4175 50.6081 20.1604C50.3477 19.7553 50.0728 19.3213 49.6532 19.0753C48.8864 18.6412 47.9893 18.4821 47.1501 18.1783C46.5569 17.9612 45.8624 17.9178 45.3994 17.4982C44.9798 17.122 44.7628 16.5433 44.6905 15.9935C44.5603 15.1109 44.9798 14.0113 45.4862 13.3024C45.7611 12.9117 46.1373 12.5934 46.4267 12.2027C46.4846 12.1159 46.6437 11.9712 46.5569 11.9134C46.4556 11.841 46.282 11.9568 46.1807 12.0436C45.7033 12.4487 45.3271 12.984 44.8352 13.3892C43.6632 14.3441 42.4623 14.9952 42.1585 16.0369C42.0861 16.2829 42.0572 16.688 42.2887 16.8037C42.9832 17.1799 43.8947 16.9774 44.6037 17.3246V17.3391ZM50.4779 25.6874C50.3911 25.6151 50.203 25.7164 50.1885 25.8176C50.1596 26.2228 50.2464 26.6279 50.3766 27.0185C50.5213 27.4237 50.7383 27.8288 51.0277 28.1616C51.4039 28.5811 52.3009 28.7403 52.8363 28.6245C53.169 28.5522 53.1546 27.8577 52.952 27.6552C52.6048 27.3079 52.055 27.2211 51.6788 26.9173C51.2881 26.5989 50.9554 26.107 50.4779 25.7019V25.6874ZM75.5664 41.9356C77.3605 41.6318 77.2302 40.156 77.9971 39.5338C78.4456 39.1721 79.3137 39.4325 79.661 38.9696C80.0082 38.5066 80.3844 37.8699 80.1674 37.3346C79.3426 35.3379 74.1484 38.087 73.3961 38.3474C72.6871 38.5934 71.9203 38.6802 71.1679 38.6078C68.8964 38.4197 68.7517 37.161 67.2469 36.1193C66.6827 35.7286 66.0461 35.4392 65.3805 35.2945C65.1635 35.2367 64.8018 35.309 64.7584 35.526C64.7149 35.772 65.0333 35.9601 65.2358 36.1193C67.218 37.6963 67.1457 38.0436 68.2597 39.5338C70.0683 41.9501 70.5747 40.6624 72.0071 40.8939C73.0633 41.0675 74.2787 42.1526 75.5664 41.9356ZM98.0071 36.018C96.5168 36.1627 95.041 36.5099 93.5363 36.6401C93.0444 36.6835 92.4801 36.7848 92.0605 36.5533C91.6988 36.3507 91.8001 35.7286 91.4818 35.4682C90.8451 34.9618 89.8468 34.9907 89.297 34.383C89.0221 34.0792 89.1957 33.5294 89.3549 33.1532C89.5864 32.5889 89.9915 32.1259 90.3966 31.6774C90.8017 31.2289 91.366 30.954 91.7567 30.5055C92.1618 30.028 92.4801 29.4782 92.7695 28.9284C93.1601 28.2339 93.4929 27.5105 93.7967 26.7726C93.8546 26.6279 93.9414 26.4398 93.8401 26.324C93.7533 26.2228 93.5508 26.324 93.4495 26.3964C93.0878 26.7436 92.8563 27.1777 92.538 27.5683C92.2775 27.8866 92.0605 28.2484 91.7567 28.5088C91.2503 28.9284 90.7005 29.319 90.1073 29.6084C89.1813 30.0425 88.0527 30.028 87.2425 30.6212C86.5335 31.1421 86.4033 32.1838 85.7956 32.806C84.696 33.9056 83.1768 34.5566 82.164 35.7286C81.8023 36.1482 81.5997 36.8861 81.8891 37.3635C82.1351 37.7687 82.8296 37.6529 83.307 37.5806C84.9854 37.2912 86.548 36.5099 88.2408 36.2784C88.7327 36.2205 89.2391 36.4665 89.6587 36.7414C90.1651 37.0742 90.3821 37.7831 90.9175 38.0291C91.5107 38.304 92.2197 38.3474 92.8563 38.2172C93.5797 38.058 94.1295 37.4069 94.824 37.1755C95.9091 36.7993 97.0811 36.6835 98.1807 36.3797C98.3254 36.3363 98.6147 36.2495 98.5569 36.1193C98.4701 35.9456 98.1807 35.989 97.9926 36.018H98.0071Z" fill="url(#paint7_radial_206_13059)"/>
</g>
<path fill-rule="evenodd" clip-rule="evenodd" d="M120.781 28.0015C124.919 33.0944 117.858 39.7065 108.483 44.5824C88.979 54.7393 58.2767 60.7293 36.3858 58.9642C27.3141 58.2263 17.7069 55.4772 17.432 49.9792C11.717 49.7332 6.00188 50.9052 0.286802 53.6253C0.214459 57.6765 3.54222 60.8306 8.09982 62.7839C24.6808 69.9169 55.0503 67.298 75.0169 63.3337C94.9835 59.3693 123.342 50.4277 135.756 37.3047C140.979 31.7778 140.516 27.5529 137.521 24.4277C131.328 24.9197 125.83 26.1784 120.795 27.987L120.781 28.0015Z" fill="url(#paint8_linear_206_13059)"/>
<path style="mix-blend-mode:multiply" fill-rule="evenodd" clip-rule="evenodd" d="M28.3848 34.657C25.4477 35.7422 21.0782 37.681 17.9964 39.6921C0.74986 50.9197 12.7443 59.08 27.6035 61.366C49.6391 64.7516 85.9262 57.7054 99.6713 53.09C70.17 63.2469 43.8951 66.0972 27.2996 64.3465C13.8294 62.9286 5.87173 58.5302 4.74318 52.7427C3.70144 47.4472 12.6864 38.4767 28.3703 34.6426L28.3848 34.657Z" fill="url(#paint9_radial_206_13059)"/>
<path style="mix-blend-mode:screen" fill-rule="evenodd" clip-rule="evenodd" d="M21.3822 40.7051C18.5753 42.6149 15.1607 45.9427 15.2186 49.7045C15.3633 59.3116 36.5163 60.5849 43.3455 60.744C37.4134 61.2215 19.5302 61.1781 13.6271 53.6544C11.9343 51.4986 12.1368 49.2849 13.2509 47.3027C15.0016 44.1775 18.9949 41.6166 21.3967 40.7051H21.3822Z" fill="url(#paint10_radial_206_13059)"/>
<path style="mix-blend-mode:multiply" fill-rule="evenodd" clip-rule="evenodd" d="M105.502 20.377C118.35 20.9702 124.051 25.1082 124.977 29.6369C126.395 36.5239 116.252 45.7982 104.026 51.658C122.083 45.4076 132.5 35.8294 130.475 28.9568C129.071 24.1967 120.39 19.1038 105.502 20.377Z" fill="url(#paint11_radial_206_13059)"/>
<path style="mix-blend-mode:screen" fill-rule="evenodd" clip-rule="evenodd" d="M123.255 19.5518C127.567 20.1016 136.132 22.1706 137.709 27.6107C142.079 42.6725 100.424 56.2874 86.0132 58.8339C98.8902 55.2312 137.145 43.6274 134.772 28.1027C134.005 23.0242 128.059 20.9263 123.255 19.5518Z" fill="url(#paint12_radial_206_13059)"/>
<defs>
<linearGradient id="paint0_linear_206_13059" x1="-1.42023" y1="45.5527" x2="135.799" y2="16.3841" gradientUnits="userSpaceOnUse">
<stop stop-color="#87E300"/>
<stop offset="1" stop-color="#13A300"/>
</linearGradient>
<radialGradient id="paint1_radial_206_13059" cx="0" cy="0" r="1" gradientUnits="userSpaceOnUse" gradientTransform="translate(53.8063 22.8506) scale(62.7646 62.7646)">
<stop stop-color="#23D1D1"/>
<stop offset="0.12" stop-color="#1CC4C4"/>
<stop offset="0.34" stop-color="#0DA4A4"/>
<stop offset="0.5" stop-color="#008A8A"/>
<stop offset="0.92" stop-color="#004242"/>
</radialGradient>
<radialGradient id="paint2_radial_206_13059" cx="0" cy="0" r="1" gradientUnits="userSpaceOnUse" gradientTransform="translate(55.962 24.891) scale(60.9849 60.9849)">
<stop stop-color="#DEDE00"/>
<stop offset="0.15" stop-color="#D1D100"/>
<stop offset="0.42" stop-color="#B1B100"/>
<stop offset="0.47" stop-color="#ABAB00"/>
<stop offset="0.51" stop-color="#A5A500"/>
<stop offset="0.77" stop-color="#7D7D00"/>
<stop offset="0.91" stop-color="#6E6E00"/>
</radialGradient>
<radialGradient id="paint3_radial_206_13059" cx="0" cy="0" r="1" gradientUnits="userSpaceOnUse" gradientTransform="translate(72.3114 43.324) scale(43.5793 43.5793)">
<stop offset="0.04"/>
<stop offset="0.84"/>
<stop offset="0.87" stop-color="#2E2E15"/>
<stop offset="0.92" stop-color="#6E6E33"/>
<stop offset="0.96" stop-color="#9D9D49"/>
<stop offset="0.98" stop-color="#BABA56"/>
<stop offset="1" stop-color="#C5C55C"/>
</radialGradient>
<radialGradient id="paint4_radial_206_13059" cx="0" cy="0" r="1" gradientUnits="userSpaceOnUse" gradientTransform="translate(63.2251 26.8298) scale(54.4741 54.4741)">
<stop offset="0.61" stop-color="white"/>
<stop offset="0.66" stop-color="#FCFCFA"/>
<stop offset="0.71" stop-color="#F5F5EE"/>
<stop offset="0.76" stop-color="#E9E9D9"/>
<stop offset="0.82" stop-color="#D8D8BC"/>
<stop offset="0.87" stop-color="#C2C297"/>
<stop offset="0.92" stop-color="#A7A769"/>
<stop offset="0.98" stop-color="#888833"/>
<stop offset="1" stop-color="#7A7A1B"/>
</radialGradient>
<radialGradient id="paint5_radial_206_13059" cx="0" cy="0" r="1" gradientUnits="userSpaceOnUse" gradientTransform="translate(33.8251 7.93385) scale(129.479 129.479)">
<stop stop-color="#848431"/>
<stop offset="1" stop-color="white"/>
</radialGradient>
<radialGradient id="paint6_radial_206_13059" cx="0" cy="0" r="1" gradientUnits="userSpaceOnUse" gradientTransform="translate(23.7689 4.20109) scale(69.4635 69.4635)">
<stop stop-color="#C5C55C"/>
<stop offset="1" stop-color="#000A00"/>
</radialGradient>
<radialGradient id="paint7_radial_206_13059" cx="0" cy="0" r="1" gradientUnits="userSpaceOnUse" gradientTransform="translate(52.2431 16.8037) scale(55.646 55.646)">
<stop stop-color="#72D6D3"/>
<stop offset="1"/>
</radialGradient>
<linearGradient id="paint8_linear_206_13059" x1="2.60177" y1="65.3882" x2="141.254" y2="35.9158" gradientUnits="userSpaceOnUse">
<stop stop-color="#87E300"/>
<stop offset="1" stop-color="#13A300"/>
</linearGradient>
<radialGradient id="paint9_radial_206_13059" cx="0" cy="0" r="1" gradientUnits="userSpaceOnUse" gradientTransform="translate(35.9518 103.961) scale(77.4067 77.4067)">
<stop stop-color="#009933"/>
<stop offset="1" stop-color="white"/>
</radialGradient>
<radialGradient id="paint10_radial_206_13059" cx="0" cy="0" r="1" gradientUnits="userSpaceOnUse" gradientTransform="translate(21.6571 68.5281) scale(57.3678 57.3678)">
<stop stop-color="#8FE561"/>
<stop offset="1"/>
</radialGradient>
<radialGradient id="paint11_radial_206_13059" cx="0" cy="0" r="1" gradientUnits="userSpaceOnUse" gradientTransform="translate(144.741 67.53) scale(58.0912 58.0912)">
<stop stop-color="#009933"/>
<stop offset="1" stop-color="white"/>
</radialGradient>
<radialGradient id="paint12_radial_206_13059" cx="0" cy="0" r="1" gradientUnits="userSpaceOnUse" gradientTransform="translate(119.103 60.8016) scale(60.3483 60.3483)">
<stop stop-color="#8FE561"/>
<stop offset="1"/>
</radialGradient>
</defs>
</svg>
