<svg width="83" height="82" viewBox="0 0 83 82" fill="none" xmlns="http://www.w3.org/2000/svg">
<g clip-path="url(#clip0_206_13699)">
<path fill-rule="evenodd" clip-rule="evenodd" d="M1.5752 35.1201L1.63955 38.1047L3.0296 43.2763L10.2373 55.6651L25.5149 70.6139L38.5402 77.8697L52.9555 78.8345L62.1453 74.4605L70.048 69.662L76.0329 62.9337L78.916 56.5785L82.301 47.393L82.8029 45.0774L82.9445 43.5336C82.7257 35.03 66.1352 28.9578 48.425 26.4235C27.0723 23.3488 3.28701 23.3874 1.5752 35.1201Z" fill="url(#paint0_linear_206_13699)"/>
<path fill-rule="evenodd" clip-rule="evenodd" d="M42.0153 1.68457C64.1016 1.68457 81.9921 19.5795 81.9921 41.6425C81.9921 63.7056 64.0887 81.6005 42.0153 81.6005C19.9418 81.6005 2.03851 63.7185 2.03851 41.6425C2.03851 19.5666 19.9418 1.68457 42.0153 1.68457Z" fill="url(#paint1_radial_206_13699)"/>
<path fill-rule="evenodd" clip-rule="evenodd" d="M16.2349 10.8448C15.9131 11.5137 15.6943 12.0798 15.0765 12.723C13.0043 14.91 8.46093 17.2514 8.3451 20.5963C8.33223 21.1237 8.67974 21.6254 8.64113 22.14C8.5639 23.1821 8.20352 24.1855 8.02333 25.2147C7.76591 26.707 8.44806 28.5981 10.2628 28.1479C11.2539 27.9034 13.2618 27.2087 13.5192 27.2731C14.4973 27.5175 15.6815 28.7268 16.8785 28.611C18.7962 28.418 20.4179 26.6813 22.0268 26.1796C25.5276 25.0989 29.1443 28.8426 30.3799 32.2389C32.1947 37.1789 34.0867 43.4569 35.7471 44.5633C36.751 45.2323 38.5658 45.6182 39.1192 46.0042C40.9211 47.252 42.028 51.2401 43.1864 52.6552C44.4735 54.2247 46.314 54.9194 48.5278 54.3148C50.3168 53.8259 53.8434 53.0669 54.9889 52.9254C58.1423 52.5395 64.2045 53.1312 65.6717 52.4494C67.937 51.3816 70.228 49.1303 71.1676 48.397C73.613 46.4802 75.6981 45.6954 76.8565 43.9458C77.3456 43.2125 77.2169 41.3214 77.2555 40.1764C77.307 38.4268 78.5683 37.8608 79.1732 36.6C80.7435 33.371 78.2465 27.0672 77.1396 23.8639C76.8179 22.9376 76.4189 22.05 76.1228 21.1108C75.9169 20.4805 75.7882 19.8887 75.6595 19.3098C75.3635 17.9976 73.6774 14.1896 71.721 12.4529C70.0736 10.9991 67.4994 10.343 65.6975 8.97937C58.9146 3.75628 48.6436 0.359981 42.1181 -0.000232766C40.1618 -0.103151 33.9838 1.98094 30.1354 3.17736C26.1197 4.42525 22.0397 5.6474 18.6546 8.00165C17.5735 8.76067 16.8141 9.64834 16.2349 10.8448ZM4.5482 39.9834C4.1106 40.215 3.46706 40.215 3.08093 39.8548C2.2572 39.07 1.66514 36.9216 1.57505 35.1206C1.2404 37.2433 1.18892 39.4303 1.06021 41.643C0.738442 47.2134 1.1117 51.7804 1.60079 53.4786C2.20572 55.5884 4.9472 60.2455 9.2718 66.2404C12.2836 70.4215 16.9943 75.7475 19.0279 76.7895C22.1684 78.3848 34.1768 82.0126 42.0152 82.0126C45.1943 82.0126 48.4892 81.8197 51.6683 81.3051C55.0147 80.7647 59.7769 79.7227 61.2184 78.9508C64.3975 77.2527 69.726 72.2869 73.1497 68.0544C75.7367 64.8639 80.1643 59.0748 80.5633 57.9813C81.1167 56.4632 82.7256 48.4742 82.9444 43.5341C82.5583 47.6251 81.2326 47.445 79.5207 50.6226C78.8 51.9605 78.2851 53.4014 77.7059 54.8165C76.3674 58.0713 75.0803 62.1494 73.1626 65.0697C72.4289 66.2018 71.5022 67.2182 70.4339 68.0544C69.7518 68.5947 68.8894 68.9292 68.0271 69.1221C67.4479 69.2508 66.843 68.8391 66.2638 68.9678C63.355 69.5724 61.7461 72.4155 59.5323 73.8821C58.2839 74.7054 56.8681 75.2972 55.4266 75.696C49.3901 77.3813 46.417 73.0202 45.8635 72.5442C44.1388 71.0904 38.4242 70.4601 35.9787 69.8168C30.174 68.2859 30.9849 63.8347 30.6888 62.664C30.3156 61.1846 29.5562 60.3998 28.6553 59.9367C27.7414 59.4607 22.0783 58.959 20.3793 58.1742C16.0676 56.1673 14.5102 51.9477 13.9182 45.7597C13.738 43.8686 13.1459 40.3694 12.7727 39.7262C11.9103 38.2596 10.1985 37.5649 8.66687 37.938C7.98471 38.1052 5.91251 39.263 4.53533 39.9963L4.5482 39.9834ZM50.6515 46.969C50.2911 47.2906 49.8921 49.2332 49.8921 49.7864C49.8921 50.1981 50.0852 50.8799 50.4069 50.8156C51.4752 50.6355 53.4058 50.2753 54.9632 50.0437C55.9543 49.9022 57.0612 49.9022 58.0522 49.6835C58.3482 49.6192 58.67 49.3361 58.7472 48.9759C58.8373 48.5257 57.6403 46.969 57.1512 46.7632C55.6711 46.1328 51.8742 45.8498 50.6515 46.9562V46.969ZM37.0599 25.0346C34.756 25.2018 34.6531 29.1899 34.9105 30.9138C35.2065 32.8564 35.7471 34.799 36.6995 36.51C37.3688 37.7192 40.0073 38.5941 41.3201 38.1567C41.8993 37.9637 42.4528 37.3462 42.5043 36.7287C42.633 35.2492 41.7964 33.8212 41.8221 32.3418C41.835 30.8366 42.929 27.5046 42.1825 26.8357C40.8568 25.6264 38.6688 24.9188 37.0728 25.0346H37.0599ZM29.0028 17.7145C28.3592 17.7403 27.6513 17.9332 27.2137 18.4607C26.8276 18.9367 26.5316 19.7986 26.8147 20.3776C27.6256 22.0371 28.9255 23.375 30.1997 24.5972C30.5859 24.9703 31.1908 25.2147 31.6542 25.0217C32.1432 24.8159 32.4264 24.1598 32.5809 23.5809C32.9155 22.2558 33.2115 20.8664 33.0828 19.477C33.0313 18.9367 32.5551 18.4478 32.1175 18.2549C31.1264 17.8303 30.0324 17.676 28.9899 17.7274L29.0028 17.7145ZM18.7833 19.8887C17.3547 20.1588 15.3082 22.6546 16.1706 23.7095C16.4537 24.0569 16.9814 24.327 17.419 24.1984C18.5774 23.8896 19.5556 23.0534 20.6496 22.5388C21.0615 22.3459 21.5248 22.3073 21.9109 22.05C22.5674 21.5997 22.2713 20.339 21.8337 20.1588C20.907 19.7729 19.8001 19.6957 18.7962 19.8887H18.7833Z" fill="url(#paint2_radial_206_13699)"/>
<path style="mix-blend-mode:screen" fill-rule="evenodd" clip-rule="evenodd" d="M13.9312 45.7473C13.751 43.8561 13.1589 40.3569 12.7857 39.7137C11.9233 38.2471 10.2115 37.5524 8.67986 37.9255C7.99771 38.0927 5.9255 39.2505 4.54833 39.9838C4.41962 40.061 4.26517 40.0996 4.11072 40.1254C4.11072 42.1451 4.54833 43.869 6.31163 45.8244C7.27694 46.8922 8.47393 46.7507 10.2115 49.1307C10.7263 49.8382 10.958 50.7259 11.5501 51.3692C12.4768 52.3855 13.4807 53.3889 14.7034 54.0322C15.2311 54.3152 15.8103 54.4953 16.4152 54.6368C14.9994 52.3983 14.3044 49.4137 13.9569 45.7344L13.9312 45.7473ZM37.06 25.035C34.7561 25.2022 34.6532 29.1903 34.9106 30.9142C35.2066 32.8568 35.7472 34.7993 36.6996 36.5104C37.3689 37.7196 40.0074 38.5944 41.3203 38.157C41.8994 37.9641 42.4529 37.3466 42.5044 36.7291C42.6331 35.2496 41.7965 33.8216 41.8222 32.3422C41.8351 30.837 42.9291 27.505 42.1826 26.8361C40.8569 25.6268 38.6689 24.9192 37.0729 25.035H37.06ZM29.0029 17.7149C28.3593 17.7407 27.6514 17.9336 27.2138 18.4611C26.8277 18.9371 26.5317 19.799 26.8148 20.3779C27.6257 22.0375 28.9257 23.3754 30.1999 24.5976C30.586 24.9707 31.1909 25.2151 31.6543 25.0221C32.1434 24.8163 32.4265 24.1602 32.581 23.5813C32.9156 22.2562 33.2116 20.8668 33.0829 19.4774C33.0315 18.9371 32.5552 18.4482 32.1176 18.2553C31.1266 17.8307 30.0326 17.6763 28.99 17.7278L29.0029 17.7149ZM18.7835 19.8891C17.3548 20.1592 15.3083 22.655 16.1707 23.7099C16.4538 24.0573 16.9815 24.3274 17.4191 24.1988C18.5775 23.89 19.5557 23.0538 20.6497 22.5392C21.0616 22.3463 21.5249 22.3077 21.9111 22.0504C22.5675 21.6001 22.2714 20.3393 21.8338 20.1592C20.9071 19.7733 19.8002 19.6961 18.7963 19.8891H18.7835ZM32.2849 2.50879C31.5256 2.75322 30.8048 2.98479 30.1484 3.19062C26.1327 4.4385 22.0526 5.66066 18.6676 8.01491C17.5865 8.77393 16.8271 9.6616 16.2479 10.858C16.1835 10.9995 16.1063 11.141 16.042 11.2826C15.8103 11.7714 15.5657 12.2345 15.0895 12.7363C14.2143 13.6497 12.9144 14.6017 11.6916 15.6308C10.1857 16.9045 8.78283 18.3196 8.44818 19.9791C8.40957 20.185 8.38383 20.3908 8.37096 20.6095C8.35809 21.137 8.7056 21.6387 8.66699 22.1533C8.58976 23.1953 8.22938 24.1988 8.04919 25.228C7.90761 25.9998 8.03632 26.8875 8.43531 27.505C8.80857 28.0582 9.4135 28.3798 10.2887 28.174C11.2798 27.9296 13.2876 27.2349 13.545 27.2992C14.5232 27.5436 15.7073 28.7529 16.9043 28.6371C18.8221 28.4441 20.4438 26.7074 22.0526 26.2057C25.5535 25.125 29.1702 28.8687 30.4058 32.265C32.2206 37.2051 34.1126 43.4831 35.7729 44.5894C36.7769 45.2584 38.5916 45.6443 39.1451 46.0303C40.3292 46.8408 41.2173 48.8348 42.0024 50.5072C42.9034 49.7096 43.5855 48.6676 44.3192 47.7156C45.1686 46.6221 45.6449 45.2327 46.6102 44.2421C48.219 42.6211 50.51 42.6983 51.8486 39.5979C52.402 38.3243 52.003 36.7548 52.5951 35.494C53.303 33.976 54.9247 33.0111 55.6326 31.4931C56.1603 30.3739 56.5464 29.1517 56.7138 27.9038C56.7781 27.4407 56.8039 26.9776 56.8039 26.5273C56.7781 23.7485 55.8772 21.0598 55.5168 18.3067C55.2722 16.4285 55.5554 14.473 55.0406 12.6462C54.1525 9.55868 52.3248 9.19847 50.2912 7.62896C49.0814 6.68984 48.1804 5.33904 46.8161 4.64434C45.0271 3.73094 43.0321 3.24208 41.05 2.88187C39.1322 2.53452 37.755 2.57311 35.8116 2.6889C34.9106 2.74035 34.1898 2.67603 33.4691 2.61171C33.0701 2.57311 32.6711 2.54738 32.2592 2.53452L32.2849 2.50879ZM48.9012 11.8486C48.9398 11.4884 49.3903 11.2182 49.7506 11.1539C51.5912 10.858 53.4317 13.238 53.805 14.9233C54.0624 16.0682 53.8564 17.2904 54.0752 18.4482C54.2812 19.5417 54.8732 20.5581 55.092 21.6516C55.8643 25.4981 56.0316 28.4056 53.7535 31.6346C52.2991 33.693 50.5229 33.2556 50.4457 30.6183C50.4199 29.6148 50.7288 28.6114 51.0892 27.6851C52.2862 24.5976 53.7535 23.9543 53.702 20.2107C53.702 19.6189 53.6119 18.9886 53.2772 18.4997C52.8783 17.9336 51.6813 17.4834 51.6169 17.2132C51.5268 16.8273 51.411 15.7595 51.0249 15.1806C50.5872 14.5116 49.9823 14.5759 49.4804 13.9584C49.017 13.3924 48.8239 12.5819 48.8883 11.8486H48.9012ZM13.1074 18.4482C12.4896 18.1523 13.0817 16.1712 13.4807 15.7466C14.0084 15.1934 14.845 15.1034 15.5143 14.7303C16.0291 14.4344 16.6212 14.2157 17.0073 13.7655C17.239 13.4953 18.0627 10.6265 18.6934 9.73879C19.1438 9.08268 20.7012 8.10496 21.1646 8.55523C21.4091 8.78679 21.2289 10.0347 21.0745 10.3306C20.7527 10.9352 19.929 11.3597 19.8002 12.479C19.7488 12.8907 20.0963 14.5631 19.9032 15.5794C19.7745 16.2869 19.4913 17.0974 18.8864 17.4962C18.23 17.9465 17.2904 17.6378 16.5311 17.8693C16.042 18.0237 15.6945 18.5383 15.1925 18.6155C14.5103 18.7313 13.7381 18.7313 13.1074 18.4225V18.4482Z" fill="url(#paint3_radial_206_13699)"/>
<path style="mix-blend-mode:multiply" opacity="0.7" fill-rule="evenodd" clip-rule="evenodd" d="M35.9661 71.4373C34.473 70.9484 25.5664 69.3274 23.2626 66.7416C22.1814 65.5323 21.3448 63.2038 20.3795 62.7921C20.0191 62.6378 18.5647 62.4834 16.9559 62.239C15.6816 62.046 14.3173 61.7887 13.3263 61.4027C11.7432 60.7981 10.3274 59.7432 9.15613 58.521C4.62561 53.7997 6.62058 52.8863 4.9345 47.4187C4.52264 46.0937 3.41575 45.0774 2.90092 43.7909C2.3346 42.3886 2.10292 41.1536 2.05144 40.0215C2.05144 39.9057 2.05144 39.7899 2.05144 39.687C2.05144 39.1467 2.07718 38.6192 2.12867 38.1175C1.81977 37.2041 1.61383 36.1106 1.56235 35.12C1.22771 37.2427 1.17623 39.4297 1.04752 41.6425C0.725747 47.2129 1.099 51.7799 1.58809 53.478C2.19302 55.5879 4.9345 60.2449 9.2591 66.2399C12.2709 70.4209 16.9816 75.7469 19.0152 76.789C22.1557 78.3842 34.1641 82.0121 42.0025 82.0121C45.1816 82.0121 48.4765 81.8191 51.6556 81.3045C55.002 80.7642 59.7642 79.7222 61.2057 78.9503C64.3848 77.2521 69.7133 72.2863 73.137 68.0538C75.724 64.8634 80.1516 59.0742 80.5506 57.9807C81.104 56.4627 82.7129 48.4737 82.9317 43.5336C82.7129 45.7721 82.2238 46.7369 81.5416 47.6632C80.9753 48.4351 80.2803 49.1812 79.508 50.6092C78.7873 51.9471 78.2724 53.388 77.6933 54.8031C76.3547 58.0579 75.0676 62.136 73.1499 65.0563C72.4162 66.1884 71.4895 67.2048 70.4212 68.041C69.7391 68.5813 68.8767 68.9158 68.0144 69.1087C67.4352 69.2374 66.8303 68.8257 66.2511 68.9544C63.3423 69.559 61.7334 72.4021 59.5197 73.8687C58.2712 74.692 56.8554 75.2838 55.4139 75.6826C50.8447 76.9562 48.026 74.7692 46.7003 73.4184C45.632 72.3378 43.4826 71.6174 42.9163 71.5144C42.2599 71.3987 41.5777 71.4501 40.8827 71.5659C39.7758 71.746 37.0086 71.7975 35.9532 71.463L35.9661 71.4373ZM70.1381 24.8925C70.4599 26.9123 71.8628 28.7134 71.9529 30.7589C71.9786 31.4407 71.8628 31.9682 71.6568 32.457C70.8975 34.2195 69.0698 35.4288 69.9322 41.8612C70.0866 43.0319 70.2539 44.2154 70.151 45.3861C70.0094 46.9685 69.649 48.5251 69.2243 50.0432C70.0737 49.3356 70.7816 48.6924 71.2064 48.3579C73.6518 46.441 75.7369 45.6563 76.8953 43.9067C77.3844 43.1734 77.2557 41.2822 77.2943 40.1373C77.3329 38.5163 78.4398 37.9117 79.0833 36.8182C79.1348 36.741 79.1734 36.6509 79.2249 36.5609C80.7951 33.3318 78.2982 27.0281 77.1913 23.8248C76.8695 22.8985 76.4705 22.0108 76.1745 21.0717C76.123 20.9173 76.0715 20.763 76.0329 20.6086C75.9042 20.1454 75.8012 19.708 75.7112 19.2706C75.4151 17.9584 73.729 14.1505 71.7727 12.4137C70.1252 10.96 67.551 10.3039 65.7491 8.94024C58.9147 3.75574 48.6438 0.359441 42.1183 -0.000772527C41.3203 -0.0393668 39.8144 0.282252 38.0511 0.758248C40.5095 1.05414 43.3024 1.38862 45.9796 1.86462C48.721 2.35348 51.3209 2.98385 53.2773 3.85866C54.1654 4.25746 54.6287 5.27378 55.4139 5.83983C56.7396 6.77896 58.2712 7.3836 59.584 8.34846C60.678 9.15894 61.4889 10.3039 62.57 11.1272C63.4453 11.7833 64.3848 12.3237 65.0798 13.1599C65.9165 14.1505 66.2897 15.244 66.9461 16.3632C67.9887 18.1514 69.0441 19.2835 69.7777 21.2261C70.1767 22.2939 69.9708 23.7862 70.151 24.9054L70.1381 24.8925Z" fill="url(#paint4_radial_206_13699)"/>
<path style="mix-blend-mode:screen" fill-rule="evenodd" clip-rule="evenodd" d="M8.03631 21.7797C5.88688 25.8449 4.12358 30.4248 3.60875 35.0175C3.46717 36.2525 2.90085 40.0862 5.20473 38.7483C8.10066 37.0759 13.7767 32.972 14.3945 39.8161C14.6648 42.9165 14.9994 51.137 16.6855 53.427C18.7963 56.2958 23.5971 58.8945 30.5731 57.6981C32.8641 57.3121 35.2581 54.855 35.168 53.9673C35.0393 52.6165 28.5267 52.7837 39.2738 50.7897C39.6985 50.7125 40.1361 50.3137 40.1876 49.8763C40.252 49.2588 39.7758 48.0495 39.1966 47.7922C38.7461 47.5864 38.1154 47.4706 37.4461 47.3677C34.2799 46.8402 33.5849 46.4285 32.9027 43.9585C31.7186 39.6231 31.384 35.159 29.1316 30.9008C27.6257 28.0577 24.6139 27.0413 21.9754 27.9676C20.019 28.6494 16.3895 31.1709 14.3945 31.068C13.1718 31.0037 13.0688 30.2704 13.1332 29.6272C13.1846 29.0225 13.2361 28.6366 12.9787 28.4436C12.5025 28.0963 10.958 28.7138 10.3788 28.8939C9.10459 29.3184 7.70167 29.5628 7.30267 27.5431C7.14822 26.7841 7.26406 25.9864 7.3799 25.2274C7.48286 24.5585 7.76602 23.9281 7.97195 23.2848C8.11353 22.8474 8.3066 22.4229 8.39669 21.9598C8.42243 21.8183 8.46105 21.6124 8.33234 21.5481C8.2165 21.4966 8.11353 21.6767 8.04918 21.7925L8.03631 21.7797Z" fill="url(#paint5_radial_206_13699)"/>
<path style="mix-blend-mode:multiply" fill-rule="evenodd" clip-rule="evenodd" d="M69.2242 50.0565C68.4906 51.2529 67.5381 52.3335 67.0104 53.6329C66.4055 55.1123 67.2421 57.0292 65.2986 59.3963C64.7323 60.091 63.8184 60.4769 62.9432 60.6828C58.683 61.6605 53.3673 61.1845 49.4803 64.5293C47.1893 66.5105 47.4081 69.6624 43.2637 71.3605C44.3706 71.6821 45.3102 72.0552 45.8508 72.5183C46.4042 72.9815 49.3645 77.3555 55.4138 75.6702C56.8553 75.2714 58.2711 74.6796 59.5196 73.8563C61.7334 72.3897 63.3422 69.5466 66.251 68.9419C66.8302 68.8262 67.4351 69.225 68.0143 69.0963C68.8767 68.9034 69.7262 68.5689 70.4212 68.0285C71.4766 67.1923 72.4033 66.1632 73.1498 65.0439C75.0675 62.1236 76.3418 58.0455 77.6932 54.7907C78.2724 53.3885 78.7872 51.9347 79.508 50.5968C80.2802 49.1688 80.9753 48.4098 81.5416 47.6508C81.8376 45.6953 81.992 43.6884 81.992 41.6429C81.992 33.9369 79.804 26.7327 76.0329 20.6348C76.0715 20.7891 76.1229 20.9435 76.1744 21.0979C76.4705 22.0242 76.8695 22.9247 77.1912 23.851C78.2981 27.0543 80.7822 33.358 79.2248 36.5871C78.6199 37.8478 77.3457 38.4139 77.3071 40.1635C77.2813 41.3084 77.3972 43.2124 76.9081 43.9329C75.7497 45.6696 73.6518 46.4672 71.2192 48.3841C70.7944 48.7185 70.0865 49.3618 69.2371 50.0693L69.2242 50.0565ZM45.9409 66.2403C46.1082 66.8965 45.8636 67.6812 45.4132 68.1829C44.8211 68.8262 43.9202 69.1349 43.0836 69.3408C42.3757 69.5209 39.8787 69.5209 39.2995 69.0449C38.5144 68.4016 38.4629 65.8673 40.3678 65.5585C41.1658 65.4299 41.9895 65.7129 42.8004 65.6614C43.4439 65.6228 44.0617 65.1597 44.6924 65.2755C45.2201 65.3655 45.825 65.7258 45.9537 66.2403H45.9409ZM63.1363 55.7427C63.4581 55.6655 63.8442 55.7684 64.1016 55.9871C64.6679 56.476 64.8996 58.1355 64.6293 58.5215C64.1402 59.2419 62.3254 59.7179 61.2958 59.5378C61.0512 59.4992 60.8453 59.2033 60.8195 58.946C60.7037 57.8268 61.6561 56.1158 63.1363 55.7427Z" fill="url(#paint6_radial_206_13699)"/>
<path style="mix-blend-mode:screen" opacity="0.6" fill-rule="evenodd" clip-rule="evenodd" d="M12.9401 43.727C13.1203 48.4998 12.348 52.5908 14.4331 57.3379C15.5915 59.9623 18.9894 60.7599 21.5893 60.7599C22.709 60.7599 23.7773 60.4898 24.8971 60.4383C26.2099 60.374 29.286 60.7599 29.5434 62.3552C29.8137 64.0147 29.2474 65.8286 29.9167 67.3724C30.187 68.0157 30.6246 68.5688 31.1266 69.0706C33.0057 70.8974 33.7651 70.6401 36.3006 71.026C38.0382 71.2833 43.2509 71.8622 44.7568 72.7113C46.9062 73.9334 48.2061 76.3392 51.3724 77.4069C53.2 78.0244 59.2107 75.9532 60.7681 74.4223C62.6987 72.5183 63.5353 70.9102 65.3629 70.1512C66.354 69.7395 66.8946 71.2447 69.4687 69.881C70.2667 69.4565 71.1033 68.8905 71.7083 68.2215C76.7922 62.7668 77.4229 55.524 80.8079 48.5641C80.4089 49.0916 79.9584 49.7091 79.4822 50.5839C78.7615 51.9218 78.2466 53.3627 77.6674 54.7778C76.3289 58.0326 75.0418 62.1107 73.124 65.031C72.3904 66.1631 71.4637 67.1794 70.3954 68.0157C69.7133 68.556 68.8509 68.8905 67.9886 69.0834C67.4094 69.2121 66.8045 68.8004 66.2253 68.9291C63.3165 69.5337 61.7076 72.3768 59.4938 73.8434C58.2454 74.6667 56.8296 75.2585 55.3881 75.6573C49.3516 77.3426 46.3785 72.9815 45.825 72.5055C44.1003 71.0517 38.3857 70.4214 35.9402 69.7781C30.1355 68.2472 30.9464 63.796 30.6503 62.6253C30.2771 61.1459 29.5177 60.3611 28.6167 59.898C27.7029 59.422 22.0398 58.9203 20.3408 58.1355C16.0291 56.1286 14.4717 51.909 13.8797 45.721C13.6995 43.8299 13.1074 40.3307 12.7342 39.6874C11.8718 38.2209 10.16 37.5262 8.62836 37.8992C7.94621 38.0665 5.874 39.2243 4.49683 39.9576C4.05922 40.1892 3.41568 40.1892 3.02955 39.829C2.20582 39.0442 1.61376 36.8958 1.52367 35.0947C1.47218 35.4163 1.43357 35.7251 1.39496 36.0467C1.44644 37.4104 1.5108 39.0699 1.87118 40.1892C2.21869 41.2955 3.75032 42.2089 4.7285 41.5014C5.86113 40.678 6.74922 39.2758 7.98482 38.5168C8.31946 38.3109 8.69271 38.1951 9.07884 38.1437C12.1292 37.7835 12.8114 41.63 12.9015 43.727H12.9401Z" fill="url(#paint7_radial_206_13699)"/>
<path style="mix-blend-mode:screen" fill-rule="evenodd" clip-rule="evenodd" d="M50.407 50.8151C50.0724 50.8666 49.8793 50.1847 49.8922 49.7859C49.8922 49.5158 49.9952 48.9111 50.1368 48.3193C49.7764 49.2971 49.3001 50.7508 49.5318 51.5484C49.6477 51.9729 50.6258 52.2302 51.2179 52.063C52.299 51.78 53.3287 51.2911 54.397 50.9566C55.2851 50.6736 57.4216 50.2748 58.0652 49.9789C58.2969 49.876 58.477 49.683 58.6315 49.49C58.683 49.4257 58.7087 49.2713 58.7216 49.1298C58.6058 49.4128 58.3226 49.6315 58.078 49.6959C57.087 49.9146 55.9801 49.9017 54.9891 50.0561C53.4317 50.2876 51.5011 50.6479 50.4328 50.828L50.407 50.8151Z" fill="url(#paint8_radial_206_13699)"/>
<path style="mix-blend-mode:screen" fill-rule="evenodd" clip-rule="evenodd" d="M15.0895 23.8385C15.4113 24.8934 17.0974 25.5109 17.8954 24.8677C19.0666 23.9286 20.2379 23.0023 21.5378 22.2433C21.2547 22.3462 20.9458 22.4105 20.6626 22.552C19.5686 23.0795 18.5904 23.9157 17.432 24.2116C16.9816 24.3274 16.4539 24.0701 16.1836 23.7227C15.6044 23.0152 16.338 21.6515 17.3162 20.751C16.3251 21.5229 14.8193 22.938 15.1024 23.8514L15.0895 23.8385Z" fill="url(#paint9_radial_206_13699)"/>
<path style="mix-blend-mode:screen" fill-rule="evenodd" clip-rule="evenodd" d="M28.6425 24.7126C29.3375 25.8062 30.0712 26.771 30.6117 27.157C30.7919 27.2856 31.1137 27.2985 31.281 27.157C31.5899 26.8868 31.5899 26.3851 31.8473 26.0635C32.0018 25.8705 32.3622 25.8576 32.4651 25.6389C32.5681 25.4073 32.6582 25.1372 32.7354 24.8542C33.0186 23.7349 33.0829 22.3069 33.0958 21.0719C33.0057 21.9339 32.8255 22.7701 32.6067 23.5934C32.4909 24.0308 32.2978 24.5325 31.9889 24.8284C31.8988 24.9185 31.7959 24.9957 31.68 25.0343C31.2939 25.2015 30.7919 25.0343 30.4187 24.7641C30.3543 24.7127 30.29 24.6612 30.2256 24.6097C28.9514 23.3876 27.6515 22.0625 26.8406 20.3901C26.7119 20.1328 26.699 19.8369 26.7505 19.541C26.6733 19.8369 26.5832 20.1585 26.6089 20.3772C26.699 21.2134 27.6386 23.1174 28.6554 24.7255L28.6425 24.7126Z" fill="url(#paint10_radial_206_13699)"/>
<path style="mix-blend-mode:screen" fill-rule="evenodd" clip-rule="evenodd" d="M34.8977 28.0059C34.2542 29.8584 33.868 31.8396 34.0225 33.2418C34.0869 33.8593 34.4215 34.4125 34.5888 35.0043C34.8205 35.8662 34.8205 36.7925 35.2066 37.5901C36.1848 39.6227 39.5055 40.0215 41.3975 39.1853C42.2598 38.8123 42.44 37.7573 42.4786 36.8568C42.3628 37.4229 41.8608 37.9632 41.3203 38.1433C40.0074 38.5807 37.3818 37.7059 36.6996 36.4966C35.7472 34.7856 35.2066 32.8301 34.9106 30.9004C34.8076 30.18 34.7561 29.0736 34.9106 28.0059H34.8977Z" fill="url(#paint11_radial_206_13699)"/>
<path style="mix-blend-mode:screen" fill-rule="evenodd" clip-rule="evenodd" d="M16.2349 10.8448C15.9131 11.5137 15.6943 12.0798 15.0765 12.723C13.0043 14.91 8.46093 17.2514 8.3451 20.5963C8.33223 21.1237 8.67974 21.6254 8.64113 22.14C8.5639 23.1821 8.20352 24.1855 8.02333 25.2147C7.76591 26.707 8.44806 28.5981 10.2628 28.1479C11.2539 27.9034 13.2618 27.2087 13.5192 27.2731C14.4973 27.5175 15.6815 28.7268 16.8785 28.611C18.7962 28.418 20.4179 26.6813 22.0268 26.1796C25.5276 25.0989 29.1443 28.8426 30.3799 32.2389C32.1947 37.1789 34.0867 43.4569 35.7471 44.5633C36.751 45.2323 38.5658 45.6182 39.1192 46.0042C40.9211 47.252 42.028 51.2401 43.1864 52.6552C44.4735 54.2247 46.314 54.9194 48.5278 54.3148C50.3168 53.8259 53.8434 53.0669 54.9889 52.9254C58.1423 52.5395 64.2045 53.1312 65.6717 52.4494C67.937 51.3816 70.228 49.1303 71.1676 48.397C73.613 46.4802 75.6981 45.6954 76.8565 43.9458C77.3456 43.2125 77.2169 41.3214 77.2555 40.1764C77.307 38.4268 78.5683 37.8608 79.1732 36.6C80.7435 33.371 78.2465 27.0672 77.1396 23.8639C76.8179 22.9376 76.4189 22.05 76.1228 21.1108C75.9169 20.4805 75.7882 19.8887 75.6595 19.3098C75.3635 17.9976 73.6774 14.1896 71.721 12.4529C70.0736 10.9991 67.4994 10.343 65.6975 8.97937C58.9146 3.75628 48.6436 0.359981 42.1181 -0.000232766C40.1618 -0.103151 33.9838 1.98094 30.1354 3.17736C26.1197 4.42525 22.0397 5.6474 18.6546 8.00165C17.5735 8.76067 16.8141 9.64834 16.2349 10.8448ZM4.5482 39.9834C4.1106 40.215 3.46706 40.215 3.08093 39.8548C2.2572 39.07 1.66514 36.9216 1.57505 35.1206C1.2404 37.2433 1.18892 39.4303 1.06021 41.643C0.738442 47.2134 1.1117 51.7804 1.60079 53.4786C2.20572 55.5884 4.9472 60.2455 9.2718 66.2404C12.2836 70.4215 16.9943 75.7475 19.0279 76.7895C22.1684 78.3848 34.1768 82.0126 42.0152 82.0126C45.1943 82.0126 48.4892 81.8197 51.6683 81.3051C55.0147 80.7647 59.7769 79.7227 61.2184 78.9508C64.3975 77.2527 69.726 72.2869 73.1497 68.0544C75.7367 64.8639 80.1643 59.0748 80.5633 57.9813C81.1167 56.4632 82.7256 48.4742 82.9444 43.5341C82.5583 47.6251 81.2326 47.445 79.5207 50.6226C78.8 51.9605 78.2851 53.4014 77.7059 54.8165C76.3674 58.0713 75.0803 62.1494 73.1626 65.0697C72.4289 66.2018 71.5022 67.2182 70.4339 68.0544C69.7518 68.5947 68.8894 68.9292 68.0271 69.1221C67.4479 69.2508 66.843 68.8391 66.2638 68.9678C63.355 69.5724 61.7461 72.4155 59.5323 73.8821C58.2839 74.7054 56.8681 75.2972 55.4266 75.696C49.3901 77.3813 46.417 73.0202 45.8635 72.5442C44.1388 71.0904 38.4242 70.4601 35.9787 69.8168C30.174 68.2859 30.9849 63.8347 30.6888 62.664C30.3156 61.1846 29.5562 60.3998 28.6553 59.9367C27.7414 59.4607 22.0783 58.959 20.3793 58.1742C16.0676 56.1673 14.5102 51.9477 13.9182 45.7597C13.738 43.8686 13.1459 40.3694 12.7727 39.7262C11.9103 38.2596 10.1985 37.5649 8.66687 37.938C7.98471 38.1052 5.91251 39.263 4.53533 39.9963L4.5482 39.9834ZM50.6515 46.969C50.2911 47.2906 49.8921 49.2332 49.8921 49.7864C49.8921 50.1981 50.0852 50.8799 50.4069 50.8156C51.4752 50.6355 53.4058 50.2753 54.9632 50.0437C55.9543 49.9022 57.0612 49.9022 58.0522 49.6835C58.3482 49.6192 58.67 49.3361 58.7472 48.9759C58.8373 48.5257 57.6403 46.969 57.1512 46.7632C55.6711 46.1328 51.8742 45.8498 50.6515 46.9562V46.969ZM37.0599 25.0346C34.756 25.2018 34.6531 29.1899 34.9105 30.9138C35.2065 32.8564 35.7471 34.799 36.6995 36.51C37.3688 37.7192 40.0073 38.5941 41.3201 38.1567C41.8993 37.9637 42.4528 37.3462 42.5043 36.7287C42.633 35.2492 41.7964 33.8212 41.8221 32.3418C41.835 30.8366 42.929 27.5046 42.1825 26.8357C40.8568 25.6264 38.6688 24.9188 37.0728 25.0346H37.0599ZM29.0028 17.7145C28.3592 17.7403 27.6513 17.9332 27.2137 18.4607C26.8276 18.9367 26.5316 19.7986 26.8147 20.3776C27.6256 22.0371 28.9255 23.375 30.1997 24.5972C30.5859 24.9703 31.1908 25.2147 31.6542 25.0217C32.1432 24.8159 32.4264 24.1598 32.5809 23.5809C32.9155 22.2558 33.2115 20.8664 33.0828 19.477C33.0313 18.9367 32.5551 18.4478 32.1175 18.2549C31.1264 17.8303 30.0324 17.676 28.9899 17.7274L29.0028 17.7145ZM18.7833 19.8887C17.3547 20.1588 15.3082 22.6546 16.1706 23.7095C16.4537 24.0569 16.9814 24.327 17.419 24.1984C18.5774 23.8896 19.5556 23.0534 20.6496 22.5388C21.0615 22.3459 21.5248 22.3073 21.9109 22.05C22.5674 21.5997 22.2713 20.339 21.8337 20.1588C20.907 19.7729 19.8001 19.6957 18.7962 19.8887H18.7833Z" fill="url(#paint12_radial_206_13699)"/>
</g>
<defs>
<linearGradient id="paint0_linear_206_13699" x1="1.5752" y1="51.7671" x2="82.9317" y2="51.7671" gradientUnits="userSpaceOnUse">
<stop stop-color="#4F309E"/>
<stop offset="0.33" stop-color="#47298F"/>
<stop offset="1" stop-color="#391D77"/>
</linearGradient>
<radialGradient id="paint1_radial_206_13699" cx="0" cy="0" r="1" gradientUnits="userSpaceOnUse" gradientTransform="translate(27.5227 23.6833) scale(65.2808 65.2501)">
<stop stop-color="#71F5FF"/>
<stop offset="0.13" stop-color="#69E8FF"/>
<stop offset="0.36" stop-color="#56C8FF"/>
<stop offset="0.38" stop-color="#54C5FF"/>
<stop offset="0.92" stop-color="#1483FF"/>
</radialGradient>
<radialGradient id="paint2_radial_206_13699" cx="0" cy="0" r="1" gradientUnits="userSpaceOnUse" gradientTransform="translate(29.9552 22.4102) scale(64.5343 64.5039)">
<stop stop-color="#7A369E"/>
<stop offset="0.23" stop-color="#6D349E"/>
<stop offset="0.63" stop-color="#4F309E"/>
<stop offset="1" stop-color="#33128A"/>
</radialGradient>
<radialGradient id="paint3_radial_206_13699" cx="0" cy="0" r="1" gradientUnits="userSpaceOnUse" gradientTransform="translate(14.0727 5.89222) scale(57.2623 57.2353)">
<stop stop-color="#8D6EFF"/>
<stop offset="1"/>
</radialGradient>
<radialGradient id="paint4_radial_206_13699" cx="0" cy="0" r="1" gradientUnits="userSpaceOnUse" gradientTransform="translate(31.8474 29.9741) scale(67.6104 67.5786)">
<stop offset="0.45" stop-color="white"/>
<stop offset="0.5" stop-color="#F8F3F8"/>
<stop offset="0.58" stop-color="#E6D6E8"/>
<stop offset="0.69" stop-color="#C9A6CD"/>
<stop offset="0.83" stop-color="#A263A7"/>
<stop offset="0.97" stop-color="#700F78"/>
<stop offset="1" stop-color="#670070"/>
</radialGradient>
<radialGradient id="paint5_radial_206_13699" cx="0" cy="0" r="1" gradientUnits="userSpaceOnUse" gradientTransform="translate(19.0666 18.5763) scale(51.3674 51.3433)">
<stop stop-color="#91FBFF"/>
<stop offset="1"/>
</radialGradient>
<radialGradient id="paint6_radial_206_13699" cx="0" cy="0" r="1" gradientUnits="userSpaceOnUse" gradientTransform="translate(36.3521 30.9266) scale(64.1224 64.0922)">
<stop offset="0.33" stop-color="white"/>
<stop offset="0.4" stop-color="#F3FAFA"/>
<stop offset="0.52" stop-color="#D6EDEC"/>
<stop offset="0.68" stop-color="#A6D9D6"/>
<stop offset="0.87" stop-color="#64BDB9"/>
<stop offset="1" stop-color="#35AAA4"/>
</radialGradient>
<radialGradient id="paint7_radial_206_13699" cx="0" cy="0" r="1" gradientUnits="userSpaceOnUse" gradientTransform="translate(25.0644 43.3282) scale(75.6676 75.6319)">
<stop stop-color="#00E1FF"/>
<stop offset="1"/>
</radialGradient>
<radialGradient id="paint8_radial_206_13699" cx="0" cy="0" r="1" gradientUnits="userSpaceOnUse" gradientTransform="translate(51.411 48.165) scale(7.91556 7.91183)">
<stop stop-color="#00E1FF"/>
<stop offset="1"/>
</radialGradient>
<radialGradient id="paint9_radial_206_13699" cx="0" cy="0" r="1" gradientUnits="userSpaceOnUse" gradientTransform="translate(13.3777 24.1344) scale(9.15115 9.14685)">
<stop stop-color="#00E1FF"/>
<stop offset="1"/>
</radialGradient>
<radialGradient id="paint10_radial_206_13699" cx="0" cy="0" r="1" gradientUnits="userSpaceOnUse" gradientTransform="translate(30.0712 21.5865) scale(8.49474 8.49074)">
<stop stop-color="#00E1FF"/>
<stop offset="1"/>
</radialGradient>
<radialGradient id="paint11_radial_206_13699" cx="0" cy="0" r="1" gradientUnits="userSpaceOnUse" gradientTransform="translate(40.2777 33.0231) scale(9.03532 9.03106)">
<stop stop-color="#00E1FF"/>
<stop offset="1"/>
</radialGradient>
<radialGradient id="paint12_radial_206_13699" cx="0" cy="0" r="1" gradientUnits="userSpaceOnUse" gradientTransform="translate(57.2413 51.7676) scale(61.0978 61.069)">
<stop offset="0.04"/>
<stop offset="0.84"/>
<stop offset="0.85" stop-color="#0E0915"/>
<stop offset="0.9" stop-color="#442E67"/>
<stop offset="0.93" stop-color="#6F4CA8"/>
<stop offset="0.96" stop-color="#8E61D7"/>
<stop offset="0.99" stop-color="#A16EF4"/>
<stop offset="1" stop-color="#A973FF"/>
</radialGradient>
<clipPath id="clip0_206_13699">
<rect width="82" height="82" fill="white" transform="translate(0.931641)"/>
</clipPath>
</defs>
</svg>
