<svg width="85" height="83" viewBox="0 0 85 83" fill="none" xmlns="http://www.w3.org/2000/svg">
<path fill-rule="evenodd" clip-rule="evenodd" d="M41.7472 0.756836C64.286 0.756836 82.548 19.0189 82.548 41.5577C82.548 64.0965 64.286 82.3586 41.7472 82.3586C19.2083 82.3586 0.946289 64.0838 0.946289 41.5577C0.946289 19.0316 19.2083 0.756836 41.7472 0.756836Z" fill="url(#paint0_radial_206_13678)"/>
<path style="mix-blend-mode:screen" fill-rule="evenodd" clip-rule="evenodd" d="M41.7472 0.756836C64.286 0.756836 82.548 19.0189 82.548 41.5577C82.548 64.0965 64.286 82.3586 41.7472 82.3586C19.2083 82.3586 0.946289 64.0838 0.946289 41.5577C0.946289 19.0316 19.2083 0.756836 41.7472 0.756836Z" fill="url(#paint1_radial_206_13678)"/>
<path style="mix-blend-mode:screen" fill-rule="evenodd" clip-rule="evenodd" d="M11.3526 27.1282C10.6038 26.6079 10.6165 25.7957 9.08093 25.7576C7.62149 25.7323 6.59354 27.1917 6.06053 28.7527C4.37265 33.664 4.5884 40.3394 6.63161 45.0857C7.40575 46.8878 8.56061 48.4995 9.72816 50.0732C11.3272 52.2306 14.5887 55.2256 17.5964 54.1977C18.8782 53.7535 19.8681 52.7002 21.1118 52.1545C21.9748 51.7738 22.9393 51.6088 23.8657 51.4692C25.1728 51.2788 26.5181 51.2915 27.8379 51.1646C31.569 50.8346 30.5284 49.9336 33.0919 48.9691C33.9422 48.6518 34.9067 48.7153 35.7823 48.4361C36.4676 48.2203 37.1403 47.9158 37.7494 47.5223C39.8688 46.1517 36.7595 46.0629 35.8966 46.1644C35.4397 46.2152 35.0336 46.4436 34.6148 46.6213C33.7772 46.9639 32.9904 47.4716 32.1147 47.7127C31.3659 47.9158 30.5791 48.03 29.805 47.9411C28.739 47.8269 27.7491 47.3193 26.7084 47.1035C26.0993 46.9766 25.7693 47.0528 25.1602 46.9132C24.6144 46.7863 24.0307 46.6847 23.5738 46.3421C21.1245 44.54 23.6626 41.6719 26.8988 41.913C28.0283 42.0018 29.1197 42.0399 29.6527 41.6846C29.7923 41.5957 29.8177 41.3419 29.7288 41.1896C29.64 41.0247 29.5131 40.8851 29.3735 40.7455C28.6755 40.0348 27.9902 39.2226 28.3709 38.1185C28.4978 37.7631 28.7516 37.4712 29.1958 37.2936C29.9192 37.0144 30.7441 37.2936 31.5055 37.1413C31.899 37.0651 32.3431 36.9509 32.597 36.6463C33.0411 36.1514 33.1046 35.4026 33.5107 34.8696C35.0843 32.801 39.2596 33.4609 41.7216 32.9787C42.775 32.7756 43.8917 32.4964 44.742 31.8492C45.5289 31.2528 45.8081 28.575 46.7091 27.7628C47.5721 26.976 48.7523 26.6587 49.8056 26.1764C52.3184 25.0343 54.184 25.2373 55.6307 22.4707C56.113 21.5316 56.0495 20.3768 56.5445 19.4503C56.9125 18.7523 58.5496 18.0543 58.8542 17.331C60.9228 12.445 53.4225 3.6503 47.7371 4.43713C44.4374 4.894 45.6431 5.59199 47.4071 6.51842C51.3539 8.57433 53.689 10.4018 53.3718 15.2116C53.2322 17.4198 50.7702 17.0137 50.1991 17.2929C49.996 17.3944 49.9452 17.6736 49.9326 17.9021C49.8945 18.8919 50.2879 19.9199 50.0468 20.8844C49.8056 21.8489 49.2726 22.7626 48.5746 23.4606C47.9782 24.0571 47.1152 24.3744 46.303 24.5901C45.4527 24.8312 44.539 24.8693 43.6506 24.8185C42.5973 24.7551 41.4932 24.6789 40.5541 24.2094C38.3966 23.1687 37.7621 20.6686 38.5109 18.4604C38.7393 17.7751 39.3358 17.2802 39.6784 16.6457C40.0591 15.9731 39.285 15.4273 40.8713 14.3994C42.1404 13.5745 43.5745 12.2039 39.3358 13.473C37.6352 13.9806 35.7823 14.2217 36.4676 16.0111C36.6326 16.4299 36.8357 16.8487 36.8864 17.2929C37.4068 22.4834 33.9422 21.4174 29.7415 22.2042C28.942 22.3565 28.1298 22.3946 27.3557 22.6611C26.6577 22.9022 26.0993 23.4733 25.3886 23.6764C23.9418 24.0952 21.8352 23.7144 20.4011 24.1713C20.0711 24.2728 19.7539 24.6155 19.7158 24.9708C19.6777 25.4404 20.9595 26.3287 19.7412 27.4328C18.8909 28.207 17.165 28.2577 16.0228 28.2704C14.3603 28.2958 12.5836 27.9405 11.3526 27.0902V27.1282ZM16.1878 44.0324C26.7084 43.6516 22.4063 51.0884 17.2792 49.2102C16.467 48.9183 15.6801 48.5122 15.0075 47.9665C13.2816 46.5578 14.4364 44.0958 16.1751 44.0324H16.1878Z" fill="url(#paint2_radial_206_13678)"/>
<path fill-rule="evenodd" clip-rule="evenodd" d="M2.27858 51.9514C2.06284 53.0428 1.66942 54.1089 1.64404 55.213C1.64404 55.581 1.98669 55.8729 2.21513 56.1521C2.65931 56.7105 3.0781 57.3196 3.67457 57.7257C4.49947 58.2968 5.89545 58.043 6.77112 58.2714C7.16453 58.373 7.45642 58.7283 7.84983 58.8552C8.38285 59.0456 8.96662 59.0329 9.49964 59.2106C9.74076 59.2867 11.1748 59.8959 10.2738 60.302C9.99458 60.4289 9.66462 60.2639 9.36004 60.34C9.14429 60.3908 8.91586 60.4923 8.75088 60.6573C8.40823 61.0253 8.24325 61.533 7.9006 61.901C7.58333 62.2437 6.84726 61.9137 6.58076 61.6472C6.03505 61.0888 5.59088 60.4542 5.19746 59.7309C4.99441 60.2258 4.93096 60.7208 4.85481 61.2284C4.76598 61.8629 4.70252 62.4975 4.7279 63.132C4.7279 63.2843 4.81674 63.4366 4.93096 63.5254C5.84469 64.2361 9.16968 66.0509 10.0961 66.3428C10.8702 66.5839 11.6444 66.7743 12.4439 66.9266C14.5759 67.3453 14.1825 66.7743 16.0988 66.0763C17.1522 65.6955 18.2309 65.3402 19.335 65.0991C21.6447 64.5914 24.0306 64.4138 26.3276 63.8173C28.0155 63.3731 29.6018 62.599 31.2389 62.0025C32.4446 61.571 33.6248 61.0126 34.8939 60.7334C35.4142 60.6192 35.9853 60.67 36.4802 60.8477C36.861 60.9873 37.1909 61.2792 37.4067 61.6218C37.5843 61.9137 37.6478 62.2817 37.6097 62.6244C37.5716 62.9416 37.4194 63.2589 37.1909 63.4747C36.7341 63.8935 36.0995 64.0838 35.6173 64.4772C35.1858 64.8326 34.8051 65.2641 34.4878 65.7209C34.234 66.089 34.2086 66.6093 33.9167 66.9519C33.6375 67.2819 33.2314 67.4849 32.838 67.6499C31.772 68.1068 30.6298 68.3987 29.5511 68.8175C29.1703 68.9698 28.815 69.1474 28.4724 69.3632C27.5332 69.9723 26.721 70.8099 25.7185 71.2922C24.9443 71.6602 24.0687 71.7617 23.2184 71.8633C21.6193 72.0536 19.9949 72.0155 18.3832 72.1425C17.2156 72.244 16.01 72.7262 14.8551 72.2186C14.4871 73.2339 14.3094 75.0613 14.6775 76.4193C14.8932 77.1934 15.7562 77.6629 16.4542 78.0691C17.1268 78.4498 17.939 78.5513 18.7005 78.6909C20.0964 78.9447 21.5432 78.9447 22.9392 79.2239C23.5737 79.3508 24.1829 79.6046 24.7793 79.8711C25.452 80.1757 26.0738 80.5945 26.721 80.9245C27.3556 81.2544 27.9774 81.6098 28.65 81.8509C29.2338 82.054 29.8303 82.2062 30.4521 82.2443C31.3278 82.2951 32.2034 82.1809 33.0791 82.1174C33.9675 82.0413 34.8558 81.9397 35.7442 81.8001C36.1249 81.7367 36.4929 81.5971 36.8737 81.521C38.2569 81.2291 39.6656 81.0387 41.0362 80.7087C42.0642 80.4549 43.0668 80.1123 44.0566 79.7696C45.6176 79.2239 47.1532 78.6148 48.6888 78.0056C50.9097 77.1299 53.1305 76.267 55.326 75.3152C56.0494 75.0106 56.7474 74.6425 57.42 74.2618C59.6282 72.9927 61.8237 71.711 63.9558 70.3277C65.5802 69.2743 67.1539 68.1449 68.6768 66.9646C70.0727 65.8859 71.418 64.7437 72.7251 63.5635C73.8546 62.5482 74.9206 61.4695 75.9993 60.3908C76.3547 60.0355 76.6212 59.5913 77.0019 59.274C77.0654 59.2232 77.1669 59.3375 77.1923 59.4009C77.4715 60.5812 73.22 65.5179 72.2175 66.3555C71.4433 67.0027 70.6184 67.5992 69.8316 68.2464C68.7529 69.1347 67.7376 70.0865 66.6589 70.9749C65.8721 71.6221 65.0853 72.2821 64.235 72.8405C62.7755 73.8303 61.24 74.6933 59.7171 75.7339C58.6257 76.47 57.4581 77.3838 56.4048 78.0564C55.5418 78.6148 54.8057 78.8178 53.892 79.1731C52.5848 79.6808 51.3158 80.2646 49.9959 80.7214C49.2472 80.9752 48.4476 81.0895 47.6862 81.3052C46.4552 81.6479 45.5034 82.0032 44.2343 82.2443C46.6582 82.4981 48.0669 83.2215 49.5264 82.5616C50.1228 82.2824 50.6178 81.7875 51.2269 81.5463C52.1787 81.1656 53.1813 80.9118 54.1712 80.696C56.684 80.1503 60.4404 79.5412 61.773 78.6909C62.5725 78.1833 63.0294 77.3838 63.7781 76.8C64.3238 76.3685 64.9837 76.102 65.5548 75.7086C67.5346 74.3126 69.6286 72.9927 71.2657 71.2033C73.1439 69.1474 74.3368 66.5585 75.9866 64.3249C77.3572 62.4594 79.3751 60.9111 80.3015 58.6522C80.7584 57.5354 80.7203 56.2663 81.0249 55.0987C81.2914 54.0962 81.5833 53.0936 82.0021 52.1545C83.728 48.3092 84.2991 48.5376 84.794 43.6517C84.9083 42.5222 84.8829 41.3546 84.6417 40.2505C84.4514 39.3622 83.8168 38.6134 83.5123 37.7504C83.1823 36.824 83.0173 35.8468 82.7128 34.9204C82.5097 34.2859 82.2813 33.664 82.0275 33.0549C81.7609 32.4203 81.4564 31.8238 81.1645 31.202C81.3929 32.4076 81.6848 33.6006 81.8625 34.8189C82.1797 37.1032 82.294 39.6794 82.1671 41.9892C81.7609 49.261 78.969 54.6165 73.9054 59.7943C72.7124 61.0126 71.5322 62.269 70.1996 63.3477C69.6032 63.8427 68.8671 64.1346 68.1564 64.4645C67.1919 64.9087 66.1894 65.2514 65.2122 65.6702C64.2223 66.1016 63.207 66.4697 62.2679 66.99C61.6587 67.3326 61.1638 67.8276 60.6054 68.2591C60.0089 68.716 59.4379 69.2236 58.8033 69.6424C58.0419 70.1246 57.255 70.5688 56.4428 70.9495C54.8184 71.6983 53.1686 72.3709 51.5061 73.0054C50.4528 73.4115 48.9299 74.1984 46.874 74.4776C46.6836 74.5029 46.4298 74.5029 46.3283 74.3507C46.2521 74.2364 46.3917 74.0334 46.5186 73.9699C47.9527 73.2466 49.0949 72.5866 50.3005 71.7617C51.3919 71.013 52.3056 70.0104 53.3971 69.249C54.26 68.6398 55.288 68.2971 56.1383 67.6753C56.7728 67.2057 57.3312 66.6093 57.8261 65.9874C58.7399 64.8326 59.4379 63.5254 60.3643 62.3706C60.9354 61.6599 61.5699 60.9746 62.2933 60.4035C62.9659 59.8705 63.74 59.439 64.5269 59.0836C65.5548 58.6268 66.7351 58.5506 67.6996 57.9922C68.3722 57.6115 68.9179 56.9897 69.324 56.3297C69.9839 55.2764 70.2377 53.9946 70.8723 52.9286C71.8368 51.3042 73.0043 49.794 74.1211 48.2838C75.0095 47.0909 75.9232 45.9106 76.9004 44.7811C77.1796 44.4512 77.5349 44.172 77.9029 43.9435C78.0552 43.8547 78.2456 43.8166 78.4106 43.8674C78.7279 43.9562 78.7659 44.4004 79.4639 44.3243C80.568 44.21 80.9741 42.6364 81.266 41.71C81.5579 40.7708 81.8625 38.1565 81.8371 37.1159C81.8371 36.9255 81.799 36.6717 81.6087 36.5829C81.5198 36.5448 81.3929 36.6844 81.2406 36.621C81.1137 36.5829 81.0503 36.4179 81.0249 36.291C80.7838 34.8569 80.6949 33.3848 80.5173 31.9381C80.4284 31.202 80.3776 30.4532 80.2127 29.7299C80.1111 29.2857 79.9208 28.8669 79.7177 28.4608C79.6543 28.3339 79.5527 28.1816 79.4132 28.1435C79.3243 28.1181 79.2736 28.2704 79.2101 28.3339C79.1213 28.3973 79.0451 28.4862 78.9436 28.4989C78.7913 28.5242 78.5502 28.5623 78.4867 28.4227C78.4106 28.207 78.3471 27.9912 78.3091 27.7755C78.0299 26.443 77.8395 25.1485 77.5349 23.7906C77.4842 23.5875 77.3953 23.3845 77.3699 23.1814C77.3699 23.1434 77.3953 23.0672 77.4461 23.0672C77.5095 23.0672 77.5603 23.1434 77.5857 23.1941C77.776 23.5368 77.9283 23.8921 78.106 24.2348C78.2583 24.5393 78.4233 24.882 78.5756 25.1612C78.7152 25.415 78.804 25.1993 78.804 25.1231C78.804 24.6536 78.7405 24.184 78.6136 23.7271C78.3598 22.8261 78.0679 21.9504 77.6872 21.1001C77.1923 19.9833 76.6973 17.9401 76.3674 17.6229C74.8952 16.2142 72.6109 14.2852 71.088 12.3689C69.4255 10.2749 67.2681 6.1377 65.3771 4.91939C64.7553 4.51328 63.7654 5.09706 61.4049 3.90413C59.9582 3.16806 58.7399 2.40661 57.42 1.4675C56.2779 0.655286 43.4094 0.23649 39.4372 0.820266C39.5006 1.40404 40.4398 1.58171 41.0616 1.5944C41.8611 1.60709 42.648 1.41673 43.4475 1.36597C43.5744 1.36597 43.7901 1.30252 43.8282 1.41673C43.8536 1.54364 43.6378 1.60709 43.5236 1.68324C43.0414 2.02589 42.5972 2.21625 42.1784 2.6985C41.8104 3.14268 42.7114 3.07923 42.9145 3.10461C43.9932 3.18075 45.846 3.24421 46.2902 3.26959C47.077 3.30766 47.8766 3.14268 48.6507 3.23151C49.501 3.33304 50.364 3.53609 51.1635 3.84067C51.7219 4.04372 52.166 4.4879 52.6991 4.75441C53.6001 5.19859 54.5011 5.68084 55.453 5.98541C55.9987 6.16308 56.6078 6.04887 57.1789 6.15039C57.4708 6.20116 57.7373 6.37883 58.0292 6.46766C58.448 6.60726 58.9302 6.60726 59.311 6.82301C59.8059 7.11489 60.2881 7.49562 60.6181 7.97787C61.0115 8.54895 61.1638 9.24695 61.3922 9.90687C61.6587 10.6937 61.7603 11.544 62.0902 12.3054C62.2679 12.7115 62.5852 13.0288 62.8898 13.3461C63.4482 13.9298 64.0192 14.5517 64.6918 15.0086C65.301 15.4274 65.4787 14.6278 65.6056 14.5136C65.6563 14.4629 65.7579 14.4755 65.834 14.5136C65.9863 14.5898 66.164 14.6659 66.2528 14.8182C66.4305 15.1482 66.5574 15.5162 66.6843 15.8715C66.9254 16.5315 66.8747 16.5315 67.3823 16.9502C67.7249 17.2421 68.093 17.5086 68.4229 17.8259C68.6514 18.0543 68.8925 18.2828 69.0448 18.562C69.2478 18.9427 69.3747 19.3488 69.4636 19.7676C69.5524 20.1864 69.489 20.6179 69.5524 21.0367C69.5778 21.2144 69.6666 21.3793 69.7555 21.5316C69.9839 21.8743 70.3139 22.1535 70.5169 22.5088C70.7327 22.9022 70.7961 23.3591 70.9865 23.7525C71.2149 24.2094 71.6845 24.5774 71.7987 25.0723C72.0525 26.113 71.5068 27.9658 70.9865 28.8669C70.6438 29.4634 70.0981 29.9202 69.6413 30.4406C69.0829 31.0878 68.461 31.6716 67.9788 32.3695C67.6615 32.8391 67.4965 33.3975 67.2554 33.9178C66.7858 34.9585 66.4305 36.0626 65.8594 37.0524C65.4152 37.8266 64.8314 38.5119 64.235 39.1718C63.537 39.9459 62.8009 40.6693 62.0014 41.3419C61.0369 42.1541 59.9582 42.8394 58.981 43.6263C58.0546 44.375 57.2043 45.2126 56.2525 45.936C55.2118 46.7228 54.1585 47.4843 53.0417 48.1442C52.1407 48.6645 51.1762 49.0579 50.2244 49.464C49.5517 49.7559 48.8411 49.959 48.1684 50.2635C47.6227 50.5047 47.1024 50.8219 46.5821 51.1138C45.6937 51.5961 44.8308 52.1164 43.9297 52.586C43.0414 53.0555 42.1784 53.5632 41.2393 53.9312C40.6936 54.1469 40.1098 54.2738 39.5133 54.35C39.2849 54.3754 39.0311 54.35 38.8534 54.2231C38.7392 54.1469 38.7011 53.9439 38.7773 53.8297C38.9422 53.5632 39.2214 53.3728 39.5006 53.2205C40.5286 52.6367 41.5946 52.1545 42.6606 51.6342C43.8028 51.0758 44.9958 50.5808 46.1252 49.9717C46.9628 49.5148 47.7877 49.0325 48.5619 48.4615C49.5644 47.7254 50.5543 46.9386 51.43 46.0629C52.7117 44.7811 53.8285 43.3344 55.0595 42.0145C55.6433 41.3927 56.2525 40.8216 56.8743 40.2378C57.5089 39.6541 58.1942 39.1337 58.8033 38.5119C59.5902 37.7251 60.3389 36.9128 61.0369 36.0499C61.6587 35.2757 62.2425 34.4635 62.7755 33.6259C63.2578 32.8772 63.8416 32.1538 64.0954 31.3035C64.5776 29.6537 64.7045 27.9151 64.9457 26.2145C65.0599 25.3896 65.1995 24.552 65.1868 23.7144C65.1868 22.9276 64.8949 22.1535 64.9076 21.3666C64.9076 20.9732 65.1106 20.5925 65.2249 20.2118C65.3137 19.9326 65.4787 19.6661 65.5041 19.3742C65.5421 19.0569 65.3771 17.2421 65.2756 16.9756C64.8822 15.9223 64.0192 15.6558 63.042 16.138C62.6867 16.3157 62.306 17.0645 62.1918 17.4198C62.0395 17.9274 62.0268 18.4605 61.8872 18.9681C61.5953 20.0468 61.2273 20.0214 60.1612 20.3641C59.3363 20.6306 58.4607 20.7194 57.6485 21.0113C57.382 21.1001 57.1154 21.2524 56.9632 21.4809C56.7855 21.7601 56.7728 22.1027 56.7347 22.42C56.6967 22.8007 56.8109 23.1941 56.722 23.5495C56.4682 24.5647 55.2626 25.3262 54.5265 26.0115C54.2093 26.316 53.9681 26.7222 53.5874 26.9379C53.029 27.2425 52.3945 27.3567 51.7726 27.509C51.0366 27.6867 50.2624 27.712 49.5264 27.9024C49.0441 28.0293 48.5619 28.2197 48.1304 28.4735C47.8258 28.6511 47.5466 28.8796 47.3309 29.1588C47.2293 29.2857 47.242 29.4887 47.242 29.6537C47.242 29.7552 47.2801 29.8568 47.3562 29.9329C47.4451 30.0218 47.5974 29.9964 47.6735 30.0852C47.8893 30.3136 47.6735 30.9355 47.3562 31.2147C47.1659 31.3924 46.8359 31.3543 46.6456 31.532C46.3537 31.8112 46.2395 32.23 45.9856 32.5345C45.0338 33.6386 43.4602 34.7427 41.9627 34.8569C41.2012 34.9204 40.4398 34.7808 39.6783 34.7808C38.7138 34.7808 37.762 34.7935 36.8102 34.8569C35.3508 34.9458 34.3482 34.8696 33.536 36.2402C33.3329 36.5956 33.2314 37.0144 32.9903 37.3316C32.8507 37.522 32.6222 37.6489 32.4065 37.7251C32.1146 37.8393 31.7973 37.8773 31.4801 37.9154C31.0486 37.9662 30.5917 37.8647 30.1729 37.9916C29.9572 38.055 29.8049 38.2581 29.678 38.4484C29.5511 38.6515 29.3988 38.9053 29.4369 39.1464C29.4749 39.4002 29.7922 39.5398 29.8683 39.7937C29.9318 39.984 29.7668 40.1998 29.8303 40.4028C29.8937 40.6059 30.0206 40.8216 30.211 40.9358C30.3887 41.05 30.6171 41.0247 30.8202 41.0247C31.3785 41.0627 31.9623 40.9612 32.508 41.0627C33.1806 41.1896 33.1679 42.1034 32.6222 42.2176C31.8481 42.3826 31.0359 42.3953 30.2364 42.4587C30.046 42.4714 29.843 42.3826 29.6526 42.4206C29.183 42.5349 28.7516 42.8521 28.2693 42.9156C27.6982 42.979 27.1144 42.6872 26.5434 42.7887C25.9723 42.8902 25.5027 43.2963 24.957 43.4867C24.5763 43.6136 24.1321 43.5628 23.7641 43.7278C22.5458 44.2989 22.5965 45.5807 23.7133 45.8218C24.6524 46.0248 25.655 45.8599 26.6068 45.9868C28.4089 46.2406 28.7642 46.634 31.0359 46.4944C32.0258 46.4309 33.0283 46.3421 33.9802 46.0756C34.399 45.9614 34.6655 45.5299 35.0716 45.3903C35.5665 45.2253 36.163 45.3903 36.6452 45.1619C37.064 44.9715 37.229 44.4385 37.6224 44.2227C38.0412 43.9943 38.5488 43.9943 39.0184 43.8801C39.7545 43.7151 40.4778 43.5374 41.2139 43.3852C41.7215 43.2836 42.7749 43.1313 42.686 44.007C42.648 44.3877 42.521 44.7684 42.3053 45.0857C41.9753 45.568 41.5566 45.9995 41.0743 46.3294C40.5286 46.7228 39.8306 46.8751 39.2595 47.2305C38.8788 47.4589 38.6377 47.9031 38.2443 48.0807C37.2036 48.5503 36.0741 48.8041 34.9954 49.1721C34.2847 49.4133 33.5487 49.6163 32.8634 49.9082C32.6349 50.0097 32.4446 50.1747 32.2415 50.327C31.772 50.657 31.3278 51.0377 30.8455 51.3423C30.4394 51.5961 30.0206 51.8626 29.5638 52.0022C28.5231 52.3321 27.4444 52.5479 26.3657 52.7763C25.7058 52.9159 25.0332 52.9667 24.3859 53.0936C23.5737 53.2586 22.7742 53.4489 21.9874 53.6647C21.3655 53.8297 20.7437 54.0327 20.1345 54.2358C19.6776 54.3881 19.2462 54.6165 18.7766 54.7434C18.3959 54.8449 18.0152 54.883 17.6217 54.9084C16.5684 54.9972 15.5024 55.048 14.449 55.0987C13.6749 55.1368 12.9008 55.1749 12.1266 55.1876C11.5936 55.1876 11.0479 55.251 10.5149 55.1749C9.51233 55.0226 8.53514 54.718 7.54526 54.4769C6.91072 54.3246 6.28887 54.1469 5.65433 53.9819C5.24822 53.8804 4.82943 53.8297 4.44871 53.7028C4.09336 53.5758 3.71264 53.4489 3.43344 53.2078C2.96388 52.8144 2.63392 52.2941 2.24051 51.8372L2.27858 51.9514ZM13.3703 44.6542C13.1038 44.9334 12.8881 45.3141 12.8373 45.6949C12.6216 47.3827 15.3374 48.5376 17.0507 48.9691C17.9009 49.1848 18.3959 49.1087 19.7284 48.4107C19.9315 48.3092 20.236 48.3092 20.3503 48.1061C20.6041 47.7 20.566 47.1797 20.7691 46.7482C20.934 46.3929 21.2894 46.1264 21.4544 45.771C21.5305 45.606 21.5432 45.3776 21.4544 45.2253C21.3021 44.9334 21.0863 44.6288 20.7691 44.5019C19.6396 44.0704 14.3475 43.6263 13.3576 44.6542H13.3703Z" fill="url(#paint3_radial_206_13678)"/>
<path style="mix-blend-mode:multiply" fill-rule="evenodd" clip-rule="evenodd" d="M2.27858 51.9514C2.06284 53.0428 1.66942 54.1089 1.64404 55.213C1.64404 55.581 1.98669 55.8729 2.21513 56.1521C2.65931 56.7105 3.0781 57.3196 3.67457 57.7257C4.49947 58.2968 5.89545 58.043 6.77112 58.2714C7.16453 58.373 7.45642 58.7283 7.84983 58.8552C8.38285 59.0456 8.96662 59.0329 9.49964 59.2106C9.74076 59.2867 11.1748 59.8959 10.2738 60.302C9.99458 60.4289 9.66462 60.2639 9.36004 60.34C9.14429 60.3908 8.91586 60.4923 8.75088 60.6573C8.40823 61.0253 8.24325 61.533 7.9006 61.901C7.58333 62.2437 6.84726 61.9137 6.58076 61.6472C6.03505 61.0888 5.59088 60.4542 5.19746 59.7309C4.99441 60.2258 4.93096 60.7208 4.85481 61.2284C4.76598 61.8629 4.70252 62.4975 4.7279 63.132C4.7279 63.2843 4.81674 63.4366 4.93096 63.5254C5.84469 64.2361 9.16968 66.0509 10.0961 66.3428C10.8702 66.5839 11.6444 66.7743 12.4439 66.9266C14.5759 67.3453 14.1825 66.7743 16.0988 66.0763C17.1522 65.6955 18.2309 65.3402 19.335 65.0991C21.6447 64.5914 24.0306 64.4138 26.3276 63.8173C28.0155 63.3731 29.6018 62.599 31.2389 62.0025C32.4446 61.571 33.6248 61.0126 34.8939 60.7334C35.4142 60.6192 35.9853 60.67 36.4802 60.8477C36.861 60.9873 37.1909 61.2792 37.4067 61.6218C37.5843 61.9137 37.6478 62.2817 37.6097 62.6244C37.5716 62.9416 37.4194 63.2589 37.1909 63.4747C36.7341 63.8935 36.0995 64.0838 35.6173 64.4772C35.1858 64.8326 34.8051 65.2641 34.4878 65.7209C34.234 66.089 34.2086 66.6093 33.9167 66.9519C33.6375 67.2819 33.2314 67.4849 32.838 67.6499C31.772 68.1068 30.6298 68.3987 29.5511 68.8175C29.1703 68.9698 28.815 69.1474 28.4724 69.3632C27.5332 69.9723 26.721 70.8099 25.7185 71.2922C24.9443 71.6602 24.0687 71.7617 23.2184 71.8633C21.6193 72.0536 19.9949 72.0155 18.3832 72.1425C17.2156 72.244 16.01 72.7262 14.8551 72.2186C14.4871 73.2339 14.3094 75.0613 14.6775 76.4193C14.8932 77.1934 15.7562 77.6629 16.4542 78.0691C17.1268 78.4498 17.939 78.5513 18.7005 78.6909C20.0964 78.9447 21.5432 78.9447 22.9392 79.2239C23.5737 79.3508 24.1829 79.6046 24.7793 79.8711C25.452 80.1757 26.0738 80.5945 26.721 80.9245C27.3556 81.2544 27.9774 81.6098 28.65 81.8509C29.2338 82.054 29.8303 82.2062 30.4521 82.2443C31.3278 82.2951 32.2034 82.1809 33.0791 82.1174C33.9675 82.0413 34.8558 81.9397 35.7442 81.8001C36.1249 81.7367 36.4929 81.5971 36.8737 81.521C38.2569 81.2291 39.6656 81.0387 41.0362 80.7087C42.0642 80.4549 43.0668 80.1123 44.0566 79.7696C45.6176 79.2239 47.1532 78.6148 48.6888 78.0056C50.9097 77.1299 53.1305 76.267 55.326 75.3152C56.0494 75.0106 56.7474 74.6425 57.42 74.2618C59.6282 72.9927 61.8237 71.711 63.9558 70.3277C65.5802 69.2743 67.1539 68.1449 68.6768 66.9646C70.0727 65.8859 71.418 64.7437 72.7251 63.5635C73.8546 62.5482 74.9206 61.4695 75.9993 60.3908C76.3547 60.0355 76.6212 59.5913 77.0019 59.274C77.0654 59.2232 77.1669 59.3375 77.1923 59.4009C77.4715 60.5812 73.22 65.5179 72.2175 66.3555C71.4433 67.0027 70.6184 67.5992 69.8316 68.2464C68.7529 69.1347 67.7376 70.0865 66.6589 70.9749C65.8721 71.6221 65.0853 72.2821 64.235 72.8405C62.7755 73.8303 61.24 74.6933 59.7171 75.7339C58.6257 76.47 57.4581 77.3838 56.4048 78.0564C55.5418 78.6148 54.8057 78.8178 53.892 79.1731C52.5848 79.6808 51.3158 80.2646 49.9959 80.7214C49.2472 80.9752 48.4476 81.0895 47.6862 81.3052C46.4552 81.6479 45.5034 82.0032 44.2343 82.2443C46.6582 82.4981 48.0669 83.2215 49.5264 82.5616C50.1228 82.2824 50.6178 81.7875 51.2269 81.5463C52.1787 81.1656 53.1813 80.9118 54.1712 80.696C56.684 80.1503 60.4404 79.5412 61.773 78.6909C62.5725 78.1833 63.0294 77.3838 63.7781 76.8C64.3238 76.3685 64.9837 76.102 65.5548 75.7086C67.5346 74.3126 69.6286 72.9927 71.2657 71.2033C73.1439 69.1474 74.3368 66.5585 75.9866 64.3249C77.3572 62.4594 79.3751 60.9111 80.3015 58.6522C80.7584 57.5354 80.7203 56.2663 81.0249 55.0987C81.2914 54.0962 81.5833 53.0936 82.0021 52.1545C83.728 48.3092 84.2991 48.5376 84.794 43.6517C84.9083 42.5222 84.8829 41.3546 84.6417 40.2505C84.4514 39.3622 83.8168 38.6134 83.5123 37.7504C83.1823 36.824 83.0173 35.8468 82.7128 34.9204C82.5097 34.2859 82.2813 33.664 82.0275 33.0549C81.7609 32.4203 81.4564 31.8238 81.1645 31.202C81.3929 32.4076 81.6848 33.6006 81.8625 34.8189C82.1797 37.1032 82.294 39.6794 82.1671 41.9892C81.7609 49.261 78.969 54.6165 73.9054 59.7943C72.7124 61.0126 71.5322 62.269 70.1996 63.3477C69.6032 63.8427 68.8671 64.1346 68.1564 64.4645C67.1919 64.9087 66.1894 65.2514 65.2122 65.6702C64.2223 66.1016 63.207 66.4697 62.2679 66.99C61.6587 67.3326 61.1638 67.8276 60.6054 68.2591C60.0089 68.716 59.4379 69.2236 58.8033 69.6424C58.0419 70.1246 57.255 70.5688 56.4428 70.9495C54.8184 71.6983 53.1686 72.3709 51.5061 73.0054C50.4528 73.4115 48.9299 74.1984 46.874 74.4776C46.6836 74.5029 46.4298 74.5029 46.3283 74.3507C46.2521 74.2364 46.3917 74.0334 46.5186 73.9699C47.9527 73.2466 49.0949 72.5866 50.3005 71.7617C51.3919 71.013 52.3056 70.0104 53.3971 69.249C54.26 68.6398 55.288 68.2971 56.1383 67.6753C56.7728 67.2057 57.3312 66.6093 57.8261 65.9874C58.7399 64.8326 59.4379 63.5254 60.3643 62.3706C60.9354 61.6599 61.5699 60.9746 62.2933 60.4035C62.9659 59.8705 63.74 59.439 64.5269 59.0836C65.5548 58.6268 66.7351 58.5506 67.6996 57.9922C68.3722 57.6115 68.9179 56.9897 69.324 56.3297C69.9839 55.2764 70.2377 53.9946 70.8723 52.9286C71.8368 51.3042 73.0043 49.794 74.1211 48.2838C75.0095 47.0909 75.9232 45.9106 76.9004 44.7811C77.1796 44.4512 77.5349 44.172 77.9029 43.9435C78.0552 43.8547 78.2456 43.8166 78.4106 43.8674C78.7279 43.9562 78.7659 44.4004 79.4639 44.3243C80.568 44.21 80.9741 42.6364 81.266 41.71C81.5579 40.7708 81.8625 38.1565 81.8371 37.1159C81.8371 36.9255 81.799 36.6717 81.6087 36.5829C81.5198 36.5448 81.3929 36.6844 81.2406 36.621C81.1137 36.5829 81.0503 36.4179 81.0249 36.291C80.7838 34.8569 80.6949 33.3848 80.5173 31.9381C80.4284 31.202 80.3776 30.4532 80.2127 29.7299C80.1111 29.2857 79.9208 28.8669 79.7177 28.4608C79.6543 28.3339 79.5527 28.1816 79.4132 28.1435C79.3243 28.1181 79.2736 28.2704 79.2101 28.3339C79.1213 28.3973 79.0451 28.4862 78.9436 28.4989C78.7913 28.5242 78.5502 28.5623 78.4867 28.4227C78.4106 28.207 78.3471 27.9912 78.3091 27.7755C78.0299 26.443 77.8395 25.1485 77.5349 23.7906C77.4842 23.5875 77.3953 23.3845 77.3699 23.1814C77.3699 23.1434 77.3953 23.0672 77.4461 23.0672C77.5095 23.0672 77.5603 23.1434 77.5857 23.1941C77.776 23.5368 77.9283 23.8921 78.106 24.2348C78.2583 24.5393 78.4233 24.882 78.5756 25.1612C78.7152 25.415 78.804 25.1993 78.804 25.1231C78.804 24.6536 78.7405 24.184 78.6136 23.7271C78.3598 22.8261 78.0679 21.9504 77.6872 21.1001C77.1923 19.9833 76.6973 17.9401 76.3674 17.6229C74.8952 16.2142 72.6109 14.2852 71.088 12.3689C69.4255 10.2749 67.2681 6.1377 65.3771 4.91939C64.7553 4.51328 63.7654 5.09706 61.4049 3.90413C59.9582 3.16806 58.7399 2.40661 57.42 1.4675C56.2779 0.655286 43.4094 0.23649 39.4372 0.820266C39.5006 1.40404 40.4398 1.58171 41.0616 1.5944C41.8611 1.60709 42.648 1.41673 43.4475 1.36597C43.5744 1.36597 43.7901 1.30252 43.8282 1.41673C43.8536 1.54364 43.6378 1.60709 43.5236 1.68324C43.0414 2.02589 42.5972 2.21625 42.1784 2.6985C41.8104 3.14268 42.7114 3.07923 42.9145 3.10461C43.9932 3.18075 45.846 3.24421 46.2902 3.26959C47.077 3.30766 47.8766 3.14268 48.6507 3.23151C49.501 3.33304 50.364 3.53609 51.1635 3.84067C51.7219 4.04372 52.166 4.4879 52.6991 4.75441C53.6001 5.19859 54.5011 5.68084 55.453 5.98541C55.9987 6.16308 56.6078 6.04887 57.1789 6.15039C57.4708 6.20116 57.7373 6.37883 58.0292 6.46766C58.448 6.60726 58.9302 6.60726 59.311 6.82301C59.8059 7.11489 60.2881 7.49562 60.6181 7.97787C61.0115 8.54895 61.1638 9.24695 61.3922 9.90687C61.6587 10.6937 61.7603 11.544 62.0902 12.3054C62.2679 12.7115 62.5852 13.0288 62.8898 13.3461C63.4482 13.9298 64.0192 14.5517 64.6918 15.0086C65.301 15.4274 65.4787 14.6278 65.6056 14.5136C65.6563 14.4629 65.7579 14.4755 65.834 14.5136C65.9863 14.5898 66.164 14.6659 66.2528 14.8182C66.4305 15.1482 66.5574 15.5162 66.6843 15.8715C66.9254 16.5315 66.8747 16.5315 67.3823 16.9502C67.7249 17.2421 68.093 17.5086 68.4229 17.8259C68.6514 18.0543 68.8925 18.2828 69.0448 18.562C69.2478 18.9427 69.3747 19.3488 69.4636 19.7676C69.5524 20.1864 69.489 20.6179 69.5524 21.0367C69.5778 21.2144 69.6666 21.3793 69.7555 21.5316C69.9839 21.8743 70.3139 22.1535 70.5169 22.5088C70.7327 22.9022 70.7961 23.3591 70.9865 23.7525C71.2149 24.2094 71.6845 24.5774 71.7987 25.0723C72.0525 26.113 71.5068 27.9658 70.9865 28.8669C70.6438 29.4634 70.0981 29.9202 69.6413 30.4406C69.0829 31.0878 68.461 31.6716 67.9788 32.3695C67.6615 32.8391 67.4965 33.3975 67.2554 33.9178C66.7858 34.9585 66.4305 36.0626 65.8594 37.0524C65.4152 37.8266 64.8314 38.5119 64.235 39.1718C63.537 39.9459 62.8009 40.6693 62.0014 41.3419C61.0369 42.1541 59.9582 42.8394 58.981 43.6263C58.0546 44.375 57.2043 45.2126 56.2525 45.936C55.2118 46.7228 54.1585 47.4843 53.0417 48.1442C52.1407 48.6645 51.1762 49.0579 50.2244 49.464C49.5517 49.7559 48.8411 49.959 48.1684 50.2635C47.6227 50.5047 47.1024 50.8219 46.5821 51.1138C45.6937 51.5961 44.8308 52.1164 43.9297 52.586C43.0414 53.0555 42.1784 53.5632 41.2393 53.9312C40.6936 54.1469 40.1098 54.2738 39.5133 54.35C39.2849 54.3754 39.0311 54.35 38.8534 54.2231C38.7392 54.1469 38.7011 53.9439 38.7773 53.8297C38.9422 53.5632 39.2214 53.3728 39.5006 53.2205C40.5286 52.6367 41.5946 52.1545 42.6606 51.6342C43.8028 51.0758 44.9958 50.5808 46.1252 49.9717C46.9628 49.5148 47.7877 49.0325 48.5619 48.4615C49.5644 47.7254 50.5543 46.9386 51.43 46.0629C52.7117 44.7811 53.8285 43.3344 55.0595 42.0145C55.6433 41.3927 56.2525 40.8216 56.8743 40.2378C57.5089 39.6541 58.1942 39.1337 58.8033 38.5119C59.5902 37.7251 60.3389 36.9128 61.0369 36.0499C61.6587 35.2757 62.2425 34.4635 62.7755 33.6259C63.2578 32.8772 63.8416 32.1538 64.0954 31.3035C64.5776 29.6537 64.7045 27.9151 64.9457 26.2145C65.0599 25.3896 65.1995 24.552 65.1868 23.7144C65.1868 22.9276 64.8949 22.1535 64.9076 21.3666C64.9076 20.9732 65.1106 20.5925 65.2249 20.2118C65.3137 19.9326 65.4787 19.6661 65.5041 19.3742C65.5421 19.0569 65.3771 17.2421 65.2756 16.9756C64.8822 15.9223 64.0192 15.6558 63.042 16.138C62.6867 16.3157 62.306 17.0645 62.1918 17.4198C62.0395 17.9274 62.0268 18.4605 61.8872 18.9681C61.5953 20.0468 61.2273 20.0214 60.1612 20.3641C59.3363 20.6306 58.4607 20.7194 57.6485 21.0113C57.382 21.1001 57.1154 21.2524 56.9632 21.4809C56.7855 21.7601 56.7728 22.1027 56.7347 22.42C56.6967 22.8007 56.8109 23.1941 56.722 23.5495C56.4682 24.5647 55.2626 25.3262 54.5265 26.0115C54.2093 26.316 53.9681 26.7222 53.5874 26.9379C53.029 27.2425 52.3945 27.3567 51.7726 27.509C51.0366 27.6867 50.2624 27.712 49.5264 27.9024C49.0441 28.0293 48.5619 28.2197 48.1304 28.4735C47.8258 28.6511 47.5466 28.8796 47.3309 29.1588C47.2293 29.2857 47.242 29.4887 47.242 29.6537C47.242 29.7552 47.2801 29.8568 47.3562 29.9329C47.4451 30.0218 47.5974 29.9964 47.6735 30.0852C47.8893 30.3136 47.6735 30.9355 47.3562 31.2147C47.1659 31.3924 46.8359 31.3543 46.6456 31.532C46.3537 31.8112 46.2395 32.23 45.9856 32.5345C45.0338 33.6386 43.4602 34.7427 41.9627 34.8569C41.2012 34.9204 40.4398 34.7808 39.6783 34.7808C38.7138 34.7808 37.762 34.7935 36.8102 34.8569C35.3508 34.9458 34.3482 34.8696 33.536 36.2402C33.3329 36.5956 33.2314 37.0144 32.9903 37.3316C32.8507 37.522 32.6222 37.6489 32.4065 37.7251C32.1146 37.8393 31.7973 37.8773 31.4801 37.9154C31.0486 37.9662 30.5917 37.8647 30.1729 37.9916C29.9572 38.055 29.8049 38.2581 29.678 38.4484C29.5511 38.6515 29.3988 38.9053 29.4369 39.1464C29.4749 39.4002 29.7922 39.5398 29.8683 39.7937C29.9318 39.984 29.7668 40.1998 29.8303 40.4028C29.8937 40.6059 30.0206 40.8216 30.211 40.9358C30.3887 41.05 30.6171 41.0247 30.8202 41.0247C31.3785 41.0627 31.9623 40.9612 32.508 41.0627C33.1806 41.1896 33.1679 42.1034 32.6222 42.2176C31.8481 42.3826 31.0359 42.3953 30.2364 42.4587C30.046 42.4714 29.843 42.3826 29.6526 42.4206C29.183 42.5349 28.7516 42.8521 28.2693 42.9156C27.6982 42.979 27.1144 42.6872 26.5434 42.7887C25.9723 42.8902 25.5027 43.2963 24.957 43.4867C24.5763 43.6136 24.1321 43.5628 23.7641 43.7278C22.5458 44.2989 22.5965 45.5807 23.7133 45.8218C24.6524 46.0248 25.655 45.8599 26.6068 45.9868C28.4089 46.2406 28.7642 46.634 31.0359 46.4944C32.0258 46.4309 33.0283 46.3421 33.9802 46.0756C34.399 45.9614 34.6655 45.5299 35.0716 45.3903C35.5665 45.2253 36.163 45.3903 36.6452 45.1619C37.064 44.9715 37.229 44.4385 37.6224 44.2227C38.0412 43.9943 38.5488 43.9943 39.0184 43.8801C39.7545 43.7151 40.4778 43.5374 41.2139 43.3852C41.7215 43.2836 42.7749 43.1313 42.686 44.007C42.648 44.3877 42.521 44.7684 42.3053 45.0857C41.9753 45.568 41.5566 45.9995 41.0743 46.3294C40.5286 46.7228 39.8306 46.8751 39.2595 47.2305C38.8788 47.4589 38.6377 47.9031 38.2443 48.0807C37.2036 48.5503 36.0741 48.8041 34.9954 49.1721C34.2847 49.4133 33.5487 49.6163 32.8634 49.9082C32.6349 50.0097 32.4446 50.1747 32.2415 50.327C31.772 50.657 31.3278 51.0377 30.8455 51.3423C30.4394 51.5961 30.0206 51.8626 29.5638 52.0022C28.5231 52.3321 27.4444 52.5479 26.3657 52.7763C25.7058 52.9159 25.0332 52.9667 24.3859 53.0936C23.5737 53.2586 22.7742 53.4489 21.9874 53.6647C21.3655 53.8297 20.7437 54.0327 20.1345 54.2358C19.6776 54.3881 19.2462 54.6165 18.7766 54.7434C18.3959 54.8449 18.0152 54.883 17.6217 54.9084C16.5684 54.9972 15.5024 55.048 14.449 55.0987C13.6749 55.1368 12.9008 55.1749 12.1266 55.1876C11.5936 55.1876 11.0479 55.251 10.5149 55.1749C9.51233 55.0226 8.53514 54.718 7.54526 54.4769C6.91072 54.3246 6.28887 54.1469 5.65433 53.9819C5.24822 53.8804 4.82943 53.8297 4.44871 53.7028C4.09336 53.5758 3.71264 53.4489 3.43344 53.2078C2.96388 52.8144 2.63392 52.2941 2.24051 51.8372L2.27858 51.9514ZM13.3703 44.6542C13.1038 44.9334 12.8881 45.3141 12.8373 45.6949C12.6216 47.3827 15.3374 48.5376 17.0507 48.9691C17.9009 49.1848 18.3959 49.1087 19.7284 48.4107C19.9315 48.3092 20.236 48.3092 20.3503 48.1061C20.6041 47.7 20.566 47.1797 20.7691 46.7482C20.934 46.3929 21.2894 46.1264 21.4544 45.771C21.5305 45.606 21.5432 45.3776 21.4544 45.2253C21.3021 44.9334 21.0863 44.6288 20.7691 44.5019C19.6396 44.0704 14.3475 43.6263 13.3576 44.6542H13.3703Z" fill="url(#paint4_radial_206_13678)"/>
<path style="mix-blend-mode:multiply" fill-rule="evenodd" clip-rule="evenodd" d="M13.8018 59.8203C16.0862 58.9827 19.9188 58.437 22.4189 58.272C23.9925 58.1578 26.9875 58.3862 28.3201 58.0816C31.442 57.3583 33.3583 55.9369 36.1503 54.6805C37.1782 54.211 38.4981 53.6526 39.691 53.1957C40.6809 52.65 41.7088 52.1804 42.7241 51.6855C43.8663 51.1271 45.0592 50.6322 46.1887 50.023C47.0263 49.5661 47.8512 49.0839 48.6253 48.5128C49.6279 47.7767 50.6178 46.9899 51.4934 46.1142C52.7752 44.8325 53.892 43.3857 55.123 42.0659C55.7068 41.444 56.3159 40.8729 56.9378 40.2892C57.5723 39.7054 58.2576 39.1851 58.8668 38.5632C59.6536 37.7764 60.4024 36.9642 61.1004 36.1012C61.7222 35.3271 62.306 34.5149 62.839 33.6773C63.3212 32.9285 63.905 32.2051 64.1588 31.3549C64.6411 29.7051 64.768 27.9664 65.0091 26.2659C65.1233 25.441 65.2629 24.6034 65.2502 23.7658C65.2502 22.9789 64.9584 22.2048 64.971 21.418C64.971 21.0246 65.1741 20.6438 65.2883 20.2631C65.3771 19.9839 65.5421 19.7174 65.5675 19.4255C65.6056 19.1083 65.4406 17.2935 65.3391 17.027C65.1106 16.4051 64.7045 16.0498 64.2096 15.9736C64.3365 16.0878 64.4507 16.2148 64.5396 16.367C64.6538 16.5701 64.6918 16.8239 64.6918 17.065C64.6918 17.395 64.6792 17.725 64.5649 18.0295C64.4127 18.423 64.1588 18.7656 63.905 19.0829C63.5497 19.5397 62.9786 19.8443 62.7375 20.3646C62.5471 20.7581 62.5725 21.2403 62.6613 21.6718C62.7628 22.154 63.1563 22.5348 63.3085 22.9916C63.4735 23.4993 63.6512 24.045 63.6131 24.578C63.5497 25.3014 63.2832 25.9867 63.004 26.6593C62.7755 27.2177 62.306 27.6492 62.0902 28.2075C61.7476 29.1594 61.7603 30.2254 61.3669 31.1518C60.8846 32.294 60.2501 33.3854 59.4759 34.3626C58.5749 35.5047 57.5089 36.5327 56.3794 37.4591C54.7296 38.8043 52.7117 39.6927 51.1635 41.1648C50.0086 42.2562 49.4883 43.8934 48.3969 45.0609C47.5847 45.9366 46.5948 46.6346 45.5668 47.2183C44.9069 47.5864 44.0693 47.5356 43.4094 47.9036C41.8357 48.7666 40.4398 49.9469 38.9042 50.886C37.6097 51.6855 36.3026 52.4596 34.932 53.1195C33.6121 53.7668 32.2542 54.3886 30.8455 54.8074C29.4495 55.2262 27.9774 55.3531 26.5307 55.6196C24.9316 55.9115 23.3199 56.1019 21.7462 56.4953C20.4391 56.8126 19.2081 57.371 17.9136 57.7263C17.3298 57.8913 16.7334 58.0436 16.1369 58.0436C15.3501 58.0436 14.5886 57.8278 13.8145 57.739C13.4338 57.7009 13.0404 57.5994 12.6596 57.6629C12.1774 57.7517 11.7586 58.0436 11.3017 58.1959C11.0606 58.272 10.8068 58.3735 10.5403 58.3482C9.81691 58.2847 9.08084 58.1959 8.38285 57.9547C7.9006 57.7898 6.13658 56.6349 6.02236 56.6349C5.56549 56.6349 5.13401 56.9522 4.67714 56.9522C4.42332 56.9522 4.16951 56.9268 3.91569 56.876C3.68726 56.8253 3.47152 56.7491 3.28115 56.6349C2.74814 56.343 2.07553 55.2135 1.974 54.9724C1.85979 54.7059 1.88517 54.0206 1.93593 53.348C1.78364 53.9571 1.64404 54.579 1.64404 55.2008C1.64404 55.5689 1.98669 55.8608 2.21513 56.14C2.65931 56.6984 3.0781 57.3075 3.67457 57.7136C3.89031 57.8532 4.13144 57.9547 4.39794 58.0055C5.17208 58.1832 6.1112 58.0816 6.77112 58.2593C7.16453 58.3608 7.45642 58.7162 7.84983 58.8431C8.38285 59.0335 8.96662 59.0208 9.49964 59.1984C9.74076 59.2746 11.1748 59.8837 10.2738 60.2898C9.99458 60.4168 9.66462 60.2518 9.36004 60.3279C9.14429 60.3787 8.91586 60.4802 8.75088 60.6452C8.68743 60.7086 8.63666 60.7848 8.5859 60.8609C8.85241 60.6833 9.14429 60.569 9.56309 60.569C10.1215 60.569 10.8575 60.8102 11.3398 60.7721C12.4058 60.6959 12.8754 60.1249 13.7891 59.7949L13.8018 59.8203Z" fill="url(#paint5_radial_206_13678)"/>
<path style="mix-blend-mode:multiply" fill-rule="evenodd" clip-rule="evenodd" d="M16.6954 47.8523C14.9695 47.8015 13.472 47.2558 12.8755 46.1771C13.1674 47.6112 15.5279 48.5757 17.0761 48.9818C17.9264 49.1975 18.4214 49.1214 19.7539 48.4234C19.9569 48.3219 20.2615 48.3219 20.3757 48.1188C20.6296 47.7127 20.5915 47.1924 20.7945 46.7609C20.9595 46.4056 21.3149 46.1391 21.4798 45.7837C21.556 45.6187 21.5687 45.3903 21.4798 45.238C21.3275 44.9461 21.1118 44.6415 20.7945 44.5146C20.7692 44.5146 20.7311 44.4893 20.693 44.4766C20.7438 44.54 20.7818 44.6162 20.8199 44.6923C20.9088 44.9334 20.7311 45.3395 20.5153 45.4664C20.0585 45.7456 19.0178 45.771 18.6498 46.266C18.4594 46.5198 18.6498 47.3701 18.1929 47.5477C17.7234 47.7508 17.203 47.865 16.6954 47.8523Z" fill="url(#paint6_radial_206_13678)"/>
<path style="mix-blend-mode:multiply" fill-rule="evenodd" clip-rule="evenodd" d="M32.2798 44.9337C32.229 45.1748 32.4955 45.4033 32.4701 45.6571C32.4574 45.784 32.2925 45.8728 32.1656 45.9236C31.3914 46.1901 29.234 46.3678 28.5106 46.1901C27.9649 46.0505 27.47 45.784 26.9243 45.6571C26.7212 45.6063 26.5182 45.6571 26.3151 45.6825C25.5156 45.8094 25.0714 45.9236 24.3734 45.987C25.1349 46.0505 25.9217 45.9617 26.6704 46.0759C28.4725 46.3297 28.8279 46.7231 31.0995 46.5835C32.0894 46.5201 33.092 46.4312 34.0438 46.1647C34.4626 46.0505 34.7291 45.619 35.1352 45.4794C35.6301 45.3144 36.2266 45.4794 36.7089 45.251C37.1276 45.0606 37.2926 44.5276 37.686 44.3119C38.1048 44.0834 38.6125 44.0834 39.082 43.9692C39.8181 43.8042 40.5415 43.6266 41.2775 43.4743C41.5567 43.4235 41.9882 43.3474 42.3182 43.4362C41.1633 43.0301 39.044 43.3727 37.8764 43.5123C37.1657 43.6012 36.6454 43.4996 36.4804 44.185C36.4423 44.3626 36.3662 44.553 36.2012 44.6418C35.9982 44.756 35.7317 44.7941 35.5032 44.7687C34.8052 44.7053 34.1326 44.4388 33.4473 44.3753C33.0793 44.3372 32.3686 44.4895 32.2798 44.921V44.9337Z" fill="url(#paint7_radial_206_13678)"/>
<path style="mix-blend-mode:multiply" fill-rule="evenodd" clip-rule="evenodd" d="M32.8636 67.6877C31.7976 68.1446 30.6554 68.4365 29.5767 68.8553C29.196 69.0076 28.8407 69.1852 28.498 69.401C27.5589 70.0101 26.7467 70.8477 25.7441 71.33C24.97 71.698 24.0943 71.7995 23.244 71.9011C21.645 72.0914 20.0206 72.0533 18.4088 72.1803C17.2413 72.2818 16.0357 72.764 14.8808 72.2564C14.5128 73.2717 14.3351 75.0991 14.7031 76.457C14.9189 77.2312 15.7818 77.7007 16.4798 78.1068C17.1524 78.4876 17.9647 78.5891 18.7261 78.7287C20.1221 78.9825 21.5688 78.9825 22.9648 79.2617C23.5994 79.3886 24.2085 79.6424 24.805 79.9089C25.4776 80.2135 26.0995 80.6323 26.7467 80.9623C27.3812 81.2922 28.0031 81.6476 28.6757 81.8887C29.2595 82.0918 29.8559 82.244 30.4778 82.2821C31.3534 82.3329 32.2291 82.2187 33.1048 82.1552C33.9043 82.0918 34.6911 81.9902 35.4906 81.876C35.5795 81.8633 35.681 81.8506 35.7698 81.8379C36.1506 81.7745 36.5186 81.6349 36.8993 81.5587C38.2826 81.2668 39.6913 81.0765 41.0619 80.7465C42.0898 80.4927 43.0924 80.1501 44.0823 79.8074C45.6433 79.2617 47.1788 78.6525 48.7144 78.0434C50.9353 77.1677 53.1562 76.3048 55.3517 75.3529C56.0751 75.0484 56.7731 74.6803 57.4457 74.2996C59.6539 73.0305 61.8494 71.7488 63.9814 70.3655C65.6059 69.3121 67.1795 68.1827 68.7024 67.0024C70.0984 65.9237 71.4436 64.7815 72.7508 63.6013C73.8802 62.586 74.9463 61.5073 76.025 60.4286C76.3803 60.0732 76.6468 59.6291 77.0276 59.3118C77.091 59.261 77.1925 59.3753 77.2179 59.4387C77.4971 60.6189 73.2457 65.5557 72.2431 66.3932C71.469 67.0405 70.6441 67.637 69.8573 68.2842C68.7785 69.1725 67.7633 70.1243 66.6846 71.0127C65.8977 71.6599 65.1109 72.3198 64.2606 72.8782C62.8012 73.8681 61.2656 74.7311 59.7427 75.7717C58.6513 76.5078 57.4838 77.4215 56.4304 78.0942C55.5674 78.6525 54.8314 78.8556 53.9176 79.2109C52.6105 79.7186 51.3414 80.3023 50.0216 80.7592C49.2728 81.013 48.4733 81.1273 47.7118 81.343C46.4808 81.6856 45.529 82.041 44.26 82.2821C46.6839 82.5359 48.0926 83.2593 49.552 82.5994C50.1485 82.3202 50.6434 81.8252 51.2526 81.5841C52.2044 81.2034 53.207 80.9496 54.1968 80.7338C56.7096 80.1881 60.4661 79.579 61.7986 78.7287C62.5981 78.2211 63.055 77.4215 63.8038 76.8378C64.3495 76.4063 65.0094 76.1398 65.5805 75.7464C67.5602 74.3504 69.6542 73.0305 71.2913 71.2411C73.1696 69.1852 74.3625 66.5963 76.0123 64.3627C77.3829 62.4972 79.4007 60.9489 80.3272 58.6899C80.784 57.5732 80.746 56.3041 81.0505 55.1365C81.317 54.134 81.6089 53.1314 82.0277 52.1923C83.7537 48.347 84.3248 48.5754 84.8197 43.6894C84.9339 42.56 84.9085 41.3924 84.6674 40.2883C84.477 39.4 83.8425 38.6512 83.5379 37.7882C83.208 36.8618 83.043 35.8846 82.7384 34.9582C82.5354 34.3237 82.3069 33.7018 82.0531 33.0926C81.7866 32.4581 81.482 31.8616 81.1901 31.2398C81.4186 32.4454 81.7104 33.6383 81.8881 34.8567C82.2054 37.141 82.3196 39.7172 82.1927 42.027C81.7866 49.2988 78.9946 54.6543 73.931 59.8321C72.7381 61.0504 71.5578 62.3068 70.2253 63.3855C69.6288 63.8805 68.8928 64.1724 68.1821 64.5023C67.2176 64.9465 66.215 65.2892 65.2378 65.708C64.2479 66.1394 63.2327 66.5075 62.2936 67.0278C61.6844 67.3704 61.1895 67.8654 60.6311 68.2969C60.0346 68.7537 59.4635 69.2614 58.829 69.6802C58.0675 70.1624 57.2807 70.6066 56.4685 70.9873C54.8441 71.7361 53.1943 72.4087 51.5318 73.0432C50.4784 73.4493 48.9555 74.2362 46.8996 74.5154C46.7093 74.5407 46.4555 74.5407 46.3539 74.3884C46.2778 74.2742 46.4174 74.0712 46.5443 74.0077C47.9784 73.2843 49.1205 72.6244 50.3262 71.7995C51.4176 71.0508 52.3313 70.0482 53.4227 69.2868C54.2857 68.6776 55.3136 68.3349 56.1639 67.7131C56.7984 67.2435 57.3568 66.6471 57.8518 66.0252C58.7655 64.8704 59.4635 63.5632 60.3899 62.4083C60.961 61.6977 61.5956 61.0124 62.3189 60.4413C62.9916 59.9083 63.7657 59.4768 64.5525 59.1214C65.5805 58.6646 66.7607 58.5884 67.7252 58.03C68.3978 57.6493 68.9435 57.0275 69.3496 56.3675C70.0096 55.3142 70.2634 54.0324 70.8979 52.9664C71.8624 51.342 73.03 49.8318 74.1468 48.3216C75.0351 47.1287 75.9488 45.9484 76.926 44.8189C77.2052 44.489 77.5606 44.2098 77.9286 43.9813C78.0809 43.8925 78.2713 43.8544 78.4362 43.9052C78.7535 43.994 78.7916 44.4382 79.4896 44.3621C80.5937 44.2478 80.9998 42.6742 81.2917 41.7478C81.5835 40.8086 81.8881 38.1943 81.8627 37.1537C81.8627 36.9633 81.8247 36.7095 81.6343 36.6207C81.5455 36.5826 81.4186 36.7222 81.2663 36.6588C81.1394 36.6207 81.0759 36.4557 81.0505 36.3288C80.8094 34.8947 80.7206 33.4226 80.5429 31.9759C80.4541 31.2398 80.4033 30.491 80.2383 29.7677C80.1368 29.3235 79.9464 28.9047 79.7434 28.4986C79.6799 28.3717 79.5784 28.2194 79.4388 28.1813C79.35 28.1559 79.2992 28.3082 79.2357 28.3717C79.1469 28.4351 79.0708 28.524 78.9692 28.5367C78.817 28.562 78.5758 28.6001 78.5124 28.4605C78.4362 28.2448 78.3728 28.029 78.3347 27.8133C78.0555 26.4807 77.8651 25.1863 77.5606 23.8284C77.5098 23.6253 77.421 23.4223 77.3956 23.2192C77.3956 23.1811 77.421 23.105 77.4717 23.105C77.5352 23.105 77.586 23.1811 77.6113 23.2319C77.8017 23.5746 77.954 23.9299 78.1317 24.2726C78.2839 24.5771 78.4489 24.9198 78.6012 25.199C78.7408 25.4528 78.8296 25.2371 78.8296 25.1609C78.8296 24.9325 78.8297 24.6913 78.7916 24.4629C78.7535 24.2218 78.7027 23.9934 78.6393 23.7649C78.3855 22.8639 78.0936 21.9882 77.7129 21.1379C77.2179 20.0211 76.723 17.9779 76.393 17.6607C75.9742 17.2546 75.4793 16.8104 74.959 16.3281C75.6316 17.5845 76.1646 18.714 76.4945 20.1861C76.6088 20.7064 76.6976 21.2775 76.7611 21.9121C76.9895 24.1837 76.7737 27.8387 76.0758 29.9326C75.5427 31.5317 74.299 32.8008 73.5757 34.3237C72.9284 35.7069 72.8777 37.3948 71.9893 38.6385C70.3014 40.9863 63.3342 47.3698 60.8722 49.1465C57.2299 51.7735 49.5647 56.6087 45.2245 57.6874C42.0137 58.4869 38.6253 58.2838 35.3891 58.9691C33.1428 59.4514 31.0996 60.6189 28.8914 61.2027C25.503 62.0784 22.9648 62.3449 19.3606 63.4363C17.6728 63.9439 17.3047 63.817 15.6042 63.614C14.462 63.4744 13.2818 63.4109 12.8122 63.982C12.6091 64.2358 12.901 64.7688 12.6218 64.9211C12.2157 65.1622 11.6446 65.0988 11.1878 64.9338C10.0964 64.5658 9.16995 63.8043 8.10392 63.3855C7.7232 63.2332 7.444 63.2459 7.20288 63.3221C6.87292 63.4236 6.64448 63.652 6.35259 63.6647C6.14954 63.6774 5.90842 63.5886 5.76882 63.4363C5.18504 62.8398 5.04544 61.7738 4.94392 60.6316C4.90584 60.8347 4.88046 61.0377 4.85508 61.2408C4.76625 61.8753 4.70279 62.5099 4.72817 63.1444C4.72817 63.2967 4.81701 63.449 4.93123 63.5378C5.60384 64.0581 7.60898 65.2003 8.9669 65.8602C9.44914 66.1014 9.85525 66.279 10.0837 66.3552C10.8578 66.5963 11.632 66.7867 12.4315 66.939C14.5635 67.3577 14.1701 66.7867 16.0864 66.0887C17.1398 65.708 18.2185 65.3526 19.3226 65.1115C21.6323 64.6039 24.0182 64.4262 26.3152 63.8297C28.0031 63.3855 29.5894 62.6114 31.2265 62.0149C32.4322 61.5834 33.6124 61.0251 34.8815 60.7459C35.4018 60.6316 35.9729 60.6824 36.4678 60.8601C36.8485 60.9997 37.1785 61.2916 37.3942 61.6342C37.5719 61.9261 37.6354 62.2941 37.5973 62.6368C37.5592 62.954 37.4069 63.2713 37.1785 63.4871C36.7216 63.9059 36.0871 64.0962 35.6048 64.4896C35.1734 64.845 34.7926 65.2765 34.4754 65.7333C34.2215 66.1014 34.1962 66.6217 33.9043 66.9643C33.6251 67.2943 33.219 67.4973 32.8256 67.6623L32.8636 67.6877Z" fill="url(#paint8_radial_206_13678)"/>
<path style="mix-blend-mode:multiply" fill-rule="evenodd" clip-rule="evenodd" d="M24.5255 63.1448C22.6219 63.6524 20.4391 63.2463 18.4466 63.6651C17.4694 63.8682 16.9491 63.7666 15.6166 63.6017C14.4744 63.4621 13.2942 63.3986 12.8246 63.9697C12.6215 64.2235 12.9134 64.7565 12.6342 64.9088C12.2281 65.1499 11.657 65.0865 11.2002 64.9215C10.1088 64.5535 9.18234 63.792 8.11631 63.3732C7.73559 63.2209 7.45639 63.2336 7.21527 63.3098C6.88531 63.4113 6.65687 63.6397 6.36498 63.6524C6.16193 63.6651 5.92081 63.5763 5.78121 63.424C5.19743 62.8275 5.05783 61.7615 4.95631 60.6193C4.91824 60.8224 4.89285 61.0254 4.86747 61.2285C4.77864 61.863 4.71518 62.4976 4.74056 63.1321C4.74056 63.2844 4.8294 63.4367 4.94362 63.5255C5.61623 64.0458 7.62137 65.188 8.97928 65.8479C9.46153 66.089 9.86764 66.2667 10.0961 66.3429C10.8702 66.584 11.6443 66.7744 12.4439 66.9266C14.5759 67.3454 14.1825 66.7743 16.0988 66.0764C17.1521 65.6956 18.2309 65.3403 19.335 65.0992C21.6447 64.5915 24.0306 64.4139 26.3276 63.8174C28.0155 63.3732 29.6018 62.5991 31.2389 62.0026C32.4445 61.5711 33.6248 61.0127 34.8939 60.7335C35.4142 60.6193 35.9853 60.6701 36.4802 60.8478C36.8609 60.9874 37.1909 61.2792 37.4066 61.6219C37.5843 61.9138 37.6478 62.2818 37.6097 62.6245C37.5716 62.9417 37.4193 63.259 37.1909 63.4747C37.0386 63.6143 36.8609 63.7413 36.6706 63.8428C36.9498 63.7159 37.229 63.5763 37.4828 63.3986C38.625 62.5864 38.5869 61.5711 41.1504 60.3528C43.2063 59.3756 39.2214 59.4137 38.828 59.4264C36.9625 59.4772 35.7695 59.1345 33.8025 59.6675C31.2008 60.3782 27.6982 62.2437 24.5001 63.094L24.5255 63.1448Z" fill="url(#paint9_radial_206_13678)"/>
<path style="mix-blend-mode:multiply" fill-rule="evenodd" clip-rule="evenodd" d="M54.933 55.9999C51.8745 57.0406 47.9657 58.0178 44.7423 58.8807C44.4377 58.9569 42.9529 59.2615 42.8386 59.5914C42.7879 59.731 43.9554 59.8072 45.1103 59.7183C48.3464 59.4645 51.4557 58.3731 54.5268 57.7513C57.1665 57.2182 61.5702 56.2157 63.9053 54.8831C65.0983 54.1978 66.3166 53.4491 67.1922 52.3831C68.0425 51.3551 68.2075 49.9083 68.9309 48.7916C69.5654 47.8017 70.403 46.9387 71.2406 46.1011C72.662 44.6924 74.2737 43.4868 75.7078 42.0908C76.3931 41.4182 77.1799 40.771 77.5987 39.8953C78.2459 38.5374 78.6013 37.0399 78.8043 35.5424C79.0327 33.8672 78.8678 32.1666 78.8931 30.4788C78.9058 29.6792 78.8931 28.8036 79.0962 28.4736C79.0581 28.499 79.0327 28.5117 78.9947 28.5117C78.8424 28.5371 78.6013 28.5751 78.5378 28.4355C78.4617 28.2198 78.3982 28.0041 78.3601 27.7883C78.0809 26.4558 77.8906 25.1613 77.586 23.8034C77.5352 23.6004 77.4464 23.3973 77.421 23.1943C77.421 23.1562 77.4464 23.08 77.4972 23.08C77.5606 23.08 77.6114 23.1562 77.6368 23.2069C77.8271 23.5496 77.9794 23.9049 78.1571 24.2476C78.3094 24.5522 78.4743 24.8948 78.6266 25.174C78.7662 25.4278 78.8551 25.2121 78.8551 25.1359C78.8551 24.9075 78.8551 24.6664 78.817 24.438C78.7789 24.1968 78.7282 23.9684 78.6647 23.74C78.4109 22.8389 78.119 21.9632 77.7383 21.113C77.2433 19.9962 76.7484 17.953 76.4184 17.6357C76.3677 17.5849 76.3169 17.5469 76.2662 17.4961C76.6088 17.8134 77.2814 20.3896 77.2814 21.4683C77.2814 21.6333 77.2814 21.7729 77.2433 21.8998C77.2307 21.9886 77.0657 21.9886 77.053 22.0648C76.9895 22.3567 77.1164 23.41 77.1418 23.7526C77.2687 25.3644 77.4718 26.9634 77.4337 28.5751C77.3829 30.6437 77.3703 32.7504 76.7865 34.7429C76.3423 36.2658 75.2763 37.5475 74.4387 38.9054C73.3346 40.7075 72.3955 42.6492 70.9614 44.1975C69.8573 45.3904 68.1314 45.8727 66.9511 46.9895C62.3063 51.3932 62.8647 53.2841 54.933 55.9872V55.9999Z" fill="url(#paint10_radial_206_13678)"/>
<path style="mix-blend-mode:multiply" fill-rule="evenodd" clip-rule="evenodd" d="M25.3886 76.9271C24.2972 77.0921 23.5865 77.4728 22.8124 77.7013C21.7971 78.0185 20.6423 78.0947 18.3198 77.219C15.6548 76.2165 14.9822 74.7189 15.1852 72.5234C15.1852 72.4727 15.1852 72.4219 15.1979 72.3838C15.0964 72.3585 14.9822 72.3077 14.8806 72.2696C14.5126 73.2849 14.3349 75.1124 14.703 76.4703C14.9187 77.2444 15.7817 77.714 16.4797 78.1201C17.1523 78.5008 17.9645 78.6023 18.7259 78.7419C20.1219 78.9957 21.5687 78.9957 22.9647 79.2749C23.5992 79.4018 24.2084 79.6557 24.8048 79.9222C25.4774 80.2267 26.0993 80.6455 26.7465 80.9755C27.3811 81.3055 28.0029 81.6608 28.6755 81.9019C29.2593 82.105 29.8558 82.2573 30.4776 82.2953C31.3533 82.3461 32.2289 82.2319 33.1046 82.1684C33.9041 82.105 34.691 82.0035 35.4905 81.8892C35.5793 81.8765 35.6808 81.8639 35.7697 81.8512C36.1504 81.7877 36.5184 81.6481 36.8991 81.572C38.2824 81.2801 39.6911 81.0897 41.0617 80.7598C42.0897 80.5059 43.0923 80.1633 44.0821 79.8206C45.6431 79.2749 47.1787 78.6658 48.7143 78.0566C50.9352 77.181 53.156 76.318 55.3515 75.3662C56.0749 75.0616 56.7729 74.6936 57.4455 74.3128C59.6537 73.0438 61.8492 71.762 63.9813 70.3787C65.6057 69.3254 67.1793 68.1959 68.7022 67.0156C70.0982 65.9369 71.4435 64.7948 72.7506 63.6145C73.8801 62.5992 74.9461 61.5205 76.0248 60.4418C76.3802 60.0865 76.6467 59.6423 77.0274 59.325C77.0909 59.2743 77.1924 59.3885 77.2178 59.4519C77.497 60.6322 73.2455 65.5689 72.243 66.4065C72.1414 66.4953 72.0399 66.5715 71.9384 66.6603C74.8827 64.5536 76.2152 62.8784 78.4995 58.9824C78.7787 58.5128 79.0325 58.0433 79.2864 57.561C79.9209 56.3681 80.4793 55.1498 80.9362 53.8934C81.0631 53.5634 81.4565 52.2943 81.3676 52.1547C81.3423 52.104 81.2027 52.2943 81.0504 52.5355C80.8092 52.9162 80.5174 53.4492 80.4285 53.6015C79.4133 55.3401 78.6264 56.66 77.3066 58.2844C76.6847 59.0458 75.9994 59.7565 75.3014 60.4418C74.2227 61.5078 73.144 62.5739 71.9765 63.5384C71.0373 64.3125 69.984 64.947 68.9941 65.6577C67.6743 66.6095 66.3418 67.5233 65.06 68.5258C64.1843 69.2111 63.4736 70.0868 62.5599 70.7213C61.6208 71.3686 60.5548 71.8254 59.5395 72.3458C58.2197 73.0184 56.8617 73.6529 55.5292 74.3128C54.6662 74.7316 53.854 75.252 52.953 75.5946C51.3032 76.2291 49.5772 76.5972 47.9274 77.219C47.0518 77.549 46.2776 78.1201 45.3893 78.4247C43.6253 79.0338 41.5059 79.0465 39.7165 79.5541C36.6453 80.4425 35.6555 81.3181 33.0031 81.3943C32.4193 81.407 31.7594 81.3943 30.9726 81.3182C30.0842 81.242 29.64 80.8994 29.5512 80.4806C29.4116 79.7953 30.1984 78.8815 31.5183 78.4881C33.1173 78.0059 34.7798 77.7647 36.3915 77.3586C39.7165 76.5083 44.6405 75.5565 47.699 74.5667C49.1331 74.0971 50.5164 73.4626 51.8997 72.8534C51.7854 72.9042 51.6585 72.9422 51.5443 72.993C50.491 73.3991 48.9681 74.1859 46.9122 74.4651C46.7218 74.4905 46.468 74.4905 46.3665 74.3382C46.2903 74.224 46.4299 74.021 46.5568 73.9575C47.9909 73.2341 49.1331 72.5742 50.3387 71.7493C51.4301 71.0005 52.3438 69.998 53.4352 69.2365C54.2982 68.6274 55.3262 68.2847 56.1764 67.6629C56.7729 67.2314 57.2805 66.6857 57.7501 66.1146C56.8871 66.8507 56.1891 67.1933 54.2094 67.8025C53.3464 68.069 52.0139 68.272 51.5951 68.5639C50.6686 69.1985 48.8919 72.46 45.3893 73.6656C41.2394 75.1124 36.7088 75.8992 32.3432 76.3941C30.0334 76.6606 27.6856 76.5718 25.3886 76.9271Z" fill="url(#paint11_radial_206_13678)"/>
<path fill-rule="evenodd" clip-rule="evenodd" d="M28.4978 69.4141C27.5586 70.0233 26.7464 70.8609 25.7439 71.3431C24.9697 71.7112 24.0941 71.8127 23.2438 71.9142C21.6447 72.1046 20.0203 72.0665 18.4086 72.1934C17.4822 72.2696 16.543 72.5868 15.6293 72.4726C16.2892 72.6757 16.8476 72.5615 18.1294 72.5234C21.1752 72.4346 25.9469 72.7518 27.2287 72.5868C28.1424 72.4599 29.0308 72.0411 29.8049 71.5335C30.9978 70.7467 28.65 70.7213 30.1856 70.0995C32.2796 69.2365 37.7493 69.5157 39.0692 67.2694C39.2215 67.0029 39.3484 66.6222 39.1834 66.3557C39.0057 66.0892 38.4093 66.343 38.2697 66.0511C38.1554 65.7973 38.46 65.4927 38.6885 65.3277C40.4271 64.0967 43.2698 62.5865 45.2623 61.8124C46.4552 61.3555 47.5974 60.9621 48.9299 60.6829C52.6737 59.8707 45.4907 60.0864 43.1048 60.721C41.0236 61.2667 40.4779 61.9393 38.9423 63.221C38.5235 63.5637 38.1935 64.0333 37.6986 64.2363C36.6833 64.6678 35.2493 64.6932 34.5132 65.7719C34.2594 66.1399 34.234 66.6602 33.9421 67.0029C33.6629 67.3329 33.2568 67.5359 32.8634 67.7009C31.7974 68.1578 30.6552 68.4496 29.5765 68.8684C29.1957 69.0207 28.8404 69.1984 28.4978 69.4141Z" fill="url(#paint12_radial_206_13678)"/>
<path opacity="0.65" fill-rule="evenodd" clip-rule="evenodd" d="M49.5266 74.3379C48.2829 74.7821 46.9885 75.0994 45.7067 75.4293C44.2473 75.8101 42.7497 76.1019 41.2776 76.4446C40.2243 76.6984 39.1583 76.8761 38.143 77.2441C38.0034 77.2949 37.813 77.5994 37.9526 77.6629C38.511 77.9167 39.1583 77.9167 39.7674 77.9675C41.0619 78.069 42.369 78.1705 43.6635 78.1198C44.095 78.1071 44.5265 77.9802 44.9072 77.7771C45.859 77.2695 46.6458 76.47 47.6357 76.0004C48.4606 75.607 49.387 75.4293 50.2881 75.2009C51.3795 74.9344 52.5343 74.9598 53.575 74.5537C55.2375 73.9064 59.3112 70.9622 60.2249 69.5281C60.2884 69.4139 60.263 69.1982 60.1488 69.1474C60.0092 69.0839 59.8315 69.1982 59.6919 69.2743C58.4863 69.9342 57.3315 70.683 56.1131 71.3302C55.0725 71.8886 53.9938 72.3962 52.9151 72.8785C51.7983 73.3861 50.6688 73.9064 49.5139 74.3125L49.5266 74.3379Z" fill="url(#paint13_radial_206_13678)"/>
<path fill-rule="evenodd" clip-rule="evenodd" d="M23.4726 4.19624C23.8533 4.04395 24.1579 3.73938 24.5259 3.54901C27.026 2.26725 31.2774 1.89921 34.6405 2.86371C35.5669 3.13022 36.5822 3.00331 37.5086 3.28251C38.3081 3.52363 38.9934 4.08203 39.7803 4.37391C40.5417 4.6658 41.4174 4.61504 42.128 5.02114C42.6103 5.30034 42.6864 6.06179 43.1814 6.30291C44.0317 6.70902 45.0723 6.51866 45.9353 6.874C48.0927 7.74966 51.037 10.1863 51.3415 12.661C51.4431 13.4605 51.3923 14.3362 51.075 15.0849C50.707 15.9733 49.1714 15.5545 48.7273 15.7702C48.4734 15.8971 48.4227 16.2525 48.3846 16.5317C48.245 17.6739 48.4481 18.8414 48.2323 19.9709C47.8389 21.9506 45.6561 22.7121 43.8794 23.1817C41.4935 23.8162 38.7142 22.8644 39.1965 19.8947C39.3361 19.0571 40.1102 18.4607 40.4021 17.6612C40.6305 17.0266 40.364 16.2144 40.7447 15.656C41.6077 14.3742 43.9809 13.7651 44.2982 13.3082C44.6408 12.8006 44.6154 12.1026 44.6027 11.4934C44.5901 10.935 44.5012 10.3259 44.2093 9.84364C44.0824 9.64059 43.7017 9.56444 43.5113 9.69135C42.7499 10.2117 42.4707 11.5823 40.8209 12.2676C39.2726 12.9148 36.2903 12.9148 34.907 14.6534C34.7547 14.8438 34.6405 15.1357 34.7166 15.3768C34.8943 15.9352 35.4908 16.3286 35.605 16.9124C35.6811 17.2931 35.4654 17.7119 35.2243 18.0038C34.7674 18.5876 34.2344 19.1714 33.5618 19.4759C31.9881 20.1993 30.2495 20.5039 28.6124 21.0623C27.8001 21.3415 27.026 21.6968 26.2265 22.0014C22.4066 23.5243 18.8532 23.1563 18.3963 23.6258C17.9013 24.1462 18.0409 25.0599 17.5968 25.631C16.0612 27.598 14.4621 28.3214 12.3047 26.8747C11.5052 26.3417 11.0483 25.3645 10.1853 24.9457C9.60157 24.6538 8.8782 24.9203 8.21828 24.8695C7.10149 24.7807 5.8451 24.2857 4.81715 25.1741C4.24606 25.669 3.87803 26.8747 3.56076 27.0523C3.33232 27.1919 3.73843 25.4279 4.09377 24.7172C4.67755 23.5497 3.0912 22.5979 7.06341 19.2348C7.64719 18.7399 8.85281 17.2804 9.50004 15.8718C9.77924 15.2626 10.1727 14.5773 10.6295 14.0951C11.1625 13.5367 11.7082 13.2321 12.3174 12.7498C13.2565 12.0011 14.5129 10.4274 15.7058 9.42485C16.1881 9.00605 16.8353 8.79031 17.3176 8.37151C18.4217 7.39432 19.2593 6.37906 20.1349 5.57954C21.239 4.56428 22.2543 4.67849 23.4472 4.19624H23.4726Z" fill="url(#paint14_radial_206_13678)"/>
<path style="mix-blend-mode:multiply" fill-rule="evenodd" clip-rule="evenodd" d="M31.8358 13.7902C28.2824 16.9755 30.4906 17.1913 32.2546 17.4324C33.0668 17.5466 34.1075 17.9654 32.9019 18.4731C31.8485 18.9172 30.6683 18.9934 29.6149 19.4122C29.0185 19.6533 28.5743 20.1736 27.9905 20.4274C24.1452 22.1661 19.0435 21.1127 16.1373 21.5442C14.8556 21.7346 14.3479 22.8895 15.414 23.9301C16.1754 24.6662 16.9622 24.6662 16.9876 25.2119C17.0384 26.3287 15.452 27.3439 14.4495 27.6231C15.6297 27.6358 16.645 26.887 17.6475 25.618C18.0917 25.0469 17.9394 24.1331 18.4471 23.6128C18.9039 23.1306 22.4447 23.5113 26.2773 21.9884C27.0768 21.6711 27.8509 21.3158 28.6631 21.0493C30.3002 20.4782 32.0389 20.1863 33.6125 19.4629C34.2852 19.1457 34.8182 18.5746 35.275 17.9908C35.5162 17.6862 35.7319 17.2674 35.6558 16.8994C35.5415 16.3156 34.9451 15.9349 34.7674 15.3638C34.6913 15.1227 34.8055 14.8435 34.9578 14.6404C36.3538 12.9018 39.3234 12.9018 40.8717 12.2546C42.5215 11.5693 42.788 10.1987 43.5621 9.67835C43.7652 9.53875 44.1332 9.62759 44.2601 9.83064C44.552 10.3129 44.6408 10.9094 44.6535 11.4804C44.6662 12.0896 44.7043 12.7876 44.3489 13.2952C44.0571 13.714 42.0646 14.2597 41.0493 15.3131C43.8286 13.346 45.8211 14.1709 45.8591 11.8485C45.8718 11.0363 45.7576 9.37377 45.2373 8.75192C44.9708 8.43465 44.2728 8.05393 43.7271 8.59963C42.6611 9.67835 42.1788 10.9855 40.6305 11.4297C39.6026 11.7343 38.5493 11.9246 37.4959 12.115C35.4146 12.483 33.5999 12.2165 31.8612 13.7775L31.8358 13.7902Z" fill="url(#paint15_radial_206_13678)"/>
<path style="mix-blend-mode:multiply" fill-rule="evenodd" clip-rule="evenodd" d="M42.0393 5.37574C42.1662 5.79453 42.0901 6.86056 42.7246 7.00016C44.0572 7.30474 45.2882 6.65751 46.7857 7.64739C48.8162 8.99261 50.9229 10.6932 50.5421 13.409C50.4025 14.4116 49.5142 14.1831 48.5116 13.8659C47.839 13.6501 47.1156 13.5613 46.976 14.1831C46.6461 15.6806 47.1791 17.2289 47.1664 18.7645C47.1283 22.0641 44.5648 23.0921 42.1916 23.3586C42.75 23.3966 43.3465 23.3332 43.9176 23.1809C45.6943 22.7113 47.8771 21.9499 48.2705 19.9701C48.4862 18.8407 48.2832 17.6731 48.4228 16.5309C48.4609 16.2517 48.5116 15.8964 48.7654 15.7695C49.2096 15.5537 50.7452 15.9852 51.1132 15.0842C51.4178 14.3354 51.4813 13.4725 51.3797 12.6602C51.0752 10.1982 48.1309 7.74891 45.9735 6.87325C45.0978 6.51791 44.0572 6.72096 43.2196 6.30216C42.7246 6.06104 42.6485 5.2869 42.1662 5.02039C41.8743 4.85541 41.5571 4.76658 41.2271 4.70312C41.4302 4.77927 41.6459 4.86811 41.8363 4.98232C41.9759 5.05847 42.0393 5.23614 42.0774 5.37574H42.0393Z" fill="url(#paint16_radial_206_13678)"/>
<defs>
<radialGradient id="paint0_radial_206_13678" cx="0" cy="0" r="1" gradientUnits="userSpaceOnUse" gradientTransform="translate(25.2745 19.1838) scale(71.2714 71.2714)">
<stop stop-color="#71F5FF"/>
<stop offset="0.17" stop-color="#69E8FF"/>
<stop offset="0.47" stop-color="#56C8FF"/>
<stop offset="0.5" stop-color="#54C5FF"/>
<stop offset="0.92" stop-color="#1483FF"/>
</radialGradient>
<radialGradient id="paint1_radial_206_13678" cx="0" cy="0" r="1" gradientUnits="userSpaceOnUse" gradientTransform="translate(44.2345 44.0451) scale(44.8492 44.8492)">
<stop offset="0.04"/>
<stop offset="0.84"/>
<stop offset="0.85" stop-color="#0D1415"/>
<stop offset="0.9" stop-color="#3E6167"/>
<stop offset="0.93" stop-color="#659EA8"/>
<stop offset="0.96" stop-color="#81CAD7"/>
<stop offset="0.99" stop-color="#92E5F4"/>
<stop offset="1" stop-color="#99F0FF"/>
</radialGradient>
<radialGradient id="paint2_radial_206_13678" cx="0" cy="0" r="1" gradientUnits="userSpaceOnUse" gradientTransform="translate(12.647 7.96517) scale(49.1641)">
<stop stop-color="#86FFFF"/>
<stop offset="1"/>
</radialGradient>
<radialGradient id="paint3_radial_206_13678" cx="0" cy="0" r="1" gradientUnits="userSpaceOnUse" gradientTransform="translate(23.9291 34.1716) scale(63.9488 63.9488)">
<stop stop-color="#F2F6FF"/>
<stop offset="1" stop-color="#D6F3FF"/>
</radialGradient>
<radialGradient id="paint4_radial_206_13678" cx="0" cy="0" r="1" gradientUnits="userSpaceOnUse" gradientTransform="translate(37.9143 34.4889) scale(53.4282 53.4282)">
<stop offset="0.62" stop-color="white"/>
<stop offset="0.65" stop-color="#F5FAFF"/>
<stop offset="0.75" stop-color="#CFE7FF"/>
<stop offset="0.85" stop-color="#B4DAFF"/>
<stop offset="0.94" stop-color="#A3D1FF"/>
<stop offset="1" stop-color="#9ECFFF"/>
</radialGradient>
<radialGradient id="paint5_radial_206_13678" cx="0" cy="0" r="1" gradientUnits="userSpaceOnUse" gradientTransform="translate(10.223 11.3288) scale(65.5479 65.5479)">
<stop offset="0.7" stop-color="white"/>
<stop offset="1" stop-color="#AAC2E6"/>
</radialGradient>
<radialGradient id="paint6_radial_206_13678" cx="0" cy="0" r="1" gradientUnits="userSpaceOnUse" gradientTransform="translate(17.4315 43.0552) scale(9.67038 9.67038)">
<stop stop-color="white"/>
<stop offset="1" stop-color="#AAC2E6"/>
</radialGradient>
<radialGradient id="paint7_radial_206_13678" cx="0" cy="0" r="1" gradientUnits="userSpaceOnUse" gradientTransform="translate(28.1172 38.5122) scale(21.4093 21.4093)">
<stop stop-color="white"/>
<stop offset="1" stop-color="#AAC2E6"/>
</radialGradient>
<radialGradient id="paint8_radial_206_13678" cx="0" cy="0" r="1" gradientUnits="userSpaceOnUse" gradientTransform="translate(26.1756 45.2377) scale(58.8598 58.8598)">
<stop stop-color="white"/>
<stop offset="1" stop-color="#CFE2FF"/>
</radialGradient>
<radialGradient id="paint9_radial_206_13678" cx="0" cy="0" r="1" gradientUnits="userSpaceOnUse" gradientTransform="translate(43.2952 63.6143) scale(37.9201 37.9201)">
<stop stop-color="#AAC2E6"/>
<stop offset="1" stop-color="white"/>
</radialGradient>
<radialGradient id="paint10_radial_206_13678" cx="0" cy="0" r="1" gradientUnits="userSpaceOnUse" gradientTransform="translate(47.75 47.0148) scale(39.6333 39.6333)">
<stop stop-color="white"/>
<stop offset="1" stop-color="#AAC2E6"/>
</radialGradient>
<radialGradient id="paint11_radial_206_13678" cx="0" cy="0" r="1" gradientUnits="userSpaceOnUse" gradientTransform="translate(39.3231 20.8339) scale(70.1039 70.1039)">
<stop stop-color="white"/>
<stop offset="1" stop-color="#AAC2E6"/>
</radialGradient>
<radialGradient id="paint12_radial_206_13678" cx="0" cy="0" r="1" gradientUnits="userSpaceOnUse" gradientTransform="translate(41.5439 58.1067) scale(30.4198 30.4198)">
<stop stop-color="#F2F6FF"/>
<stop offset="1" stop-color="#D6F3FF"/>
</radialGradient>
<radialGradient id="paint13_radial_206_13678" cx="0" cy="0" r="1" gradientUnits="userSpaceOnUse" gradientTransform="translate(51.1764 64.0838) scale(27.4882 27.4882)">
<stop stop-color="#F2F6FF"/>
<stop offset="1" stop-color="#D6F3FF"/>
</radialGradient>
<radialGradient id="paint14_radial_206_13678" cx="0" cy="0" r="1" gradientUnits="userSpaceOnUse" gradientTransform="translate(6.72076 14.9834) scale(63.7585 63.7585)">
<stop stop-color="#F2F6FF"/>
<stop offset="1" stop-color="#D6F3FF"/>
</radialGradient>
<radialGradient id="paint15_radial_206_13678" cx="0" cy="0" r="1" gradientUnits="userSpaceOnUse" gradientTransform="translate(19.6527 10.4144) scale(27.4375 27.4375)">
<stop stop-color="white"/>
<stop offset="1" stop-color="#AAC2E6"/>
</radialGradient>
<radialGradient id="paint16_radial_206_13678" cx="0" cy="0" r="1" gradientUnits="userSpaceOnUse" gradientTransform="translate(35.3386 10.1855) scale(17.8686 17.8686)">
<stop stop-color="white"/>
<stop offset="1" stop-color="#AAC2E6"/>
</radialGradient>
</defs>
</svg>
