<svg width="90" height="88" viewBox="0 0 90 88" fill="none" xmlns="http://www.w3.org/2000/svg">
<path fill-rule="evenodd" clip-rule="evenodd" d="M46.5258 0.400391C70.4513 0.400391 89.8378 19.8006 89.8378 43.7124C89.8378 67.6242 70.4376 87.0244 46.5258 87.0244C22.614 87.0244 3.20015 67.6379 3.20015 43.7124C3.20015 19.7869 22.6003 0.400391 46.5258 0.400391Z" fill="url(#paint0_radial_206_13645)"/>
<g style="mix-blend-mode:multiply" opacity="0.4">
<path fill-rule="evenodd" clip-rule="evenodd" d="M60.594 66.052C57.9007 75.253 50.3129 75.212 42.3833 75.7862C34.7545 76.3468 29.067 71.4933 23.1882 67.5012C18.909 64.5891 14.8621 63.427 11.827 59.4485C7.98525 54.39 5.68841 46.1596 5.68841 39.0913C5.68841 21.7693 17.6785 7.24992 33.8248 3.3945C36.5728 2.73825 40.6333 1.64452 43.5727 1.54881C55.9046 1.12499 63.2873 4.07808 69.4396 10.2167C73.9923 14.7694 71.422 23.0818 73.3087 29.5758C74.2657 32.8434 77.0547 36.9586 76.3028 43.1518C75.1954 52.2299 63.7932 55.1146 60.594 66.052ZM89.8378 43.7124C89.8378 19.8006 70.4513 0.400391 46.5258 0.400391C22.6003 0.400391 3.20015 19.8006 3.20015 43.7124C3.20015 67.6242 22.6003 87.0244 46.5121 87.0244C70.424 87.0244 89.8241 67.6242 89.8241 43.7124H89.8378Z" fill="url(#paint1_radial_206_13645)"/>
</g>
<path style="mix-blend-mode:screen" fill-rule="evenodd" clip-rule="evenodd" d="M46.5258 0.400391C70.4513 0.400391 89.8378 19.8006 89.8378 43.7124C89.8378 67.6242 70.4376 87.0244 46.5258 87.0244C22.614 87.0244 3.20015 67.6379 3.20015 43.7124C3.20015 19.7869 22.6003 0.400391 46.5258 0.400391Z" fill="url(#paint2_radial_206_13645)"/>
<g style="mix-blend-mode:multiply" opacity="0.65">
<path fill-rule="evenodd" clip-rule="evenodd" d="M3.20015 43.7125C3.20015 50.5757 4.79974 57.0698 7.64346 62.8393C7.65713 62.8393 7.68447 62.8119 7.69815 62.7982C9.88562 61.0346 11.6219 60.9389 14.493 60.6791C21.9441 60.0092 30.1608 63.0307 37.1744 61.103C49.684 57.6714 54.9066 42.6598 65.967 35.3181C71.1486 31.8728 77.5469 28.9471 83.2754 26.3084C84.3554 25.8163 85.0527 25.2694 85.4628 24.6952C83.5215 20.7304 80.9922 17.0937 77.9844 13.9219C77.752 13.9219 77.5333 13.9766 77.3145 14.0723C79.0371 15.3984 79.0235 18.2832 77.4102 19.4589C72.6251 22.9452 65.7482 21.0585 60.4163 20.3749C56.178 19.8281 51.2015 18.8163 46.9906 18.83C44.4067 18.83 42.0688 19.0488 40.1958 20.9491C37.6802 23.5057 36.8599 27.5936 35.8619 30.9158C34.8092 34.4021 34.1666 37.3825 31.4459 40.1442C28.2057 43.4528 22.1902 44.7242 18.0066 42.2633C16.3523 41.2926 14.7254 39.8981 13.0848 38.3122C11.0067 36.3298 8.86024 33.9783 6.2216 37.2868C4.84076 39.0231 3.84272 41.238 3.20015 43.6579V43.7125ZM22.9148 29.3026C21.2331 32.5017 20.5769 37.1911 24.7604 36.1658C32.0475 34.3884 35.2877 24.121 29.6959 19.705C28.6432 18.871 27.8913 20.1152 27.0026 20.9765C25.8405 22.0976 26.0593 23.6288 25.5944 25.3788C25.1979 26.91 23.6667 27.867 22.9148 29.3026ZM36.2447 77.8371C37.2154 71.7259 33.5514 69.6478 28.2604 68.7728C26.319 68.4447 24.364 68.1986 22.3952 68.0072C19.4558 67.7337 14.5067 67.9115 16.6121 72.4095C18.1844 75.7864 23.3523 79.1906 26.6882 80.6809C30.3932 82.3351 35.3287 83.5929 36.2447 77.8508V77.8371ZM43.477 75.1711C41.8774 76.675 41.6587 80.1066 43.518 81.5285C46.4301 83.757 51.3109 83.2101 54.5784 82.2668C57.6409 81.3918 60.7854 78.6028 56.3148 76.4563C53.43 75.0755 49.0961 73.7903 45.8832 74.0637C45.0083 74.1321 44.1333 74.5696 43.4907 75.1711H43.477ZM65.7346 60.0776C70.1232 62.1557 77.3419 62.7299 81.3887 59.5991C85.6269 56.3179 86.666 47.2398 85.0254 42.2086C83.1933 36.6169 79.8438 35.031 74.3614 36.863C70.3419 38.2028 63.8479 43.6715 61.9885 47.3766C59.678 51.9976 60.8674 57.7807 65.7346 60.0776Z" fill="url(#paint3_radial_206_13645)"/>
</g>
<path style="mix-blend-mode:screen" opacity="0.65" fill-rule="evenodd" clip-rule="evenodd" d="M59.8427 10.3393C70.5476 21.0442 68.825 40.1026 56.0146 52.913C43.2042 65.7234 24.1458 67.4323 13.4409 56.7411C2.73594 46.0361 4.45858 26.9777 17.269 14.1674C30.0794 1.35696 49.1377 -0.365676 59.8427 10.3393Z" fill="url(#paint4_radial_206_13645)"/>
<path fill-rule="evenodd" clip-rule="evenodd" d="M34.6316 59.2981C39.4578 57.9719 43.5456 55.306 48.0026 50.972C54.8795 44.2866 56.7661 40.2807 65.4887 34.4703C70.7523 30.9703 76.3167 27.8532 81.7034 24.5446C85.3947 22.2614 85.2853 20.5251 83.3166 17.5857C82.8518 16.8884 78.9417 11.078 76.303 12.2674C78.053 13.6209 78.0393 16.5466 76.3987 17.7361C71.5316 21.2634 64.559 19.363 59.1587 18.6658C54.8521 18.1052 49.8072 17.0935 45.528 17.0935C42.903 17.0935 40.5242 17.3259 38.6375 19.2536C36.0808 21.8513 35.2469 26.0075 34.2352 29.3707C33.1688 32.9117 32.5125 35.9331 29.7508 38.7358C26.4696 42.0991 20.3447 43.3842 16.1065 40.8823C14.4249 39.8979 12.7842 38.4761 11.1026 36.8765C8.99718 34.8667 6.80971 32.4742 4.14372 35.8374C-0.573019 41.7573 0.493374 53.4329 4.14372 60.05C4.5402 60.761 5.01871 61.4719 5.7023 61.9094C6.09878 62.1692 6.75502 62.2375 7.12416 61.9504C9.33897 60.1594 9.7628 60.4192 12.6749 60.1594C20.249 59.4758 27.5224 61.2668 34.6316 59.3118V59.2981ZM24.3232 35.7554C26.1825 35.0581 28.1102 32.6383 29.1083 30.9976C31.2137 27.566 32.5262 21.4274 28.7665 18.6794C27.6727 17.8728 26.1552 18.3787 25.2528 19.2536C24.0634 20.4021 24.2958 21.947 23.8173 23.7243C23.4072 25.2829 22.0673 27.32 21.3017 28.7828C20.5088 30.3004 19.8799 31.9 20.2763 33.5132C20.8232 35.7964 22.5595 36.4253 24.3232 35.7554ZM26.5106 67.7882C24.5419 67.4601 22.5459 67.2003 20.5498 67.0089C17.5693 66.7355 12.9756 66.5578 15.1084 71.1241C16.708 74.5557 21.9443 78.001 25.3349 79.5186C29.0946 81.2002 33.6746 82.8408 34.618 77.003C35.616 70.8097 31.8836 68.6906 26.5106 67.7882ZM55.0025 75.5948C52.0768 74.1866 47.6745 72.8878 44.4069 73.1612C43.5183 73.2432 42.6296 73.6671 41.9734 74.2823C40.3464 75.8135 40.1277 79.2861 42.0144 80.7353C44.9675 82.9912 49.7799 82.0068 53.1021 81.0635C56.2056 80.1748 59.5415 77.7686 55.0025 75.5948ZM84.1369 40.8139C82.2776 35.1265 78.887 33.5269 73.3089 35.3863C69.2211 36.7398 62.6313 42.2905 60.7583 46.0639C58.4068 50.7669 59.6235 56.6321 64.559 58.97C69.016 61.0754 76.344 61.6633 80.4456 58.4915C84.7385 55.1556 85.8049 45.9545 84.1369 40.8276V40.8139Z" fill="url(#paint5_radial_206_13645)"/>
<path fill-rule="evenodd" clip-rule="evenodd" d="M60.7583 46.0638C58.4067 50.7668 59.6235 56.632 64.559 58.9699C69.016 61.0753 76.344 61.6632 80.4455 58.4913C84.7385 55.1554 85.8049 45.9544 84.1369 40.8275C82.2776 35.1537 78.8733 33.5405 73.3089 35.3998C69.2211 36.7533 62.6313 42.304 60.7583 46.0774V46.0638Z" fill="url(#paint6_radial_206_13645)"/>
<g style="mix-blend-mode:screen" opacity="0.2">
<path fill-rule="evenodd" clip-rule="evenodd" d="M34.6316 59.2981C39.4578 57.9719 43.5456 55.306 48.0026 50.972C54.8795 44.2866 56.7661 40.2807 65.4887 34.4703C70.7523 30.9703 76.3167 27.8532 81.7034 24.5446C85.3947 22.2614 85.2853 20.5251 83.3166 17.5857C82.8518 16.8884 78.9417 11.078 76.303 12.2674C78.053 13.6209 78.0393 16.5466 76.3987 17.7361C71.5316 21.2634 64.559 19.363 59.1587 18.6658C54.8521 18.1052 49.8072 17.0935 45.528 17.0935C42.903 17.0935 40.5242 17.3259 38.6375 19.2536C36.0808 21.8513 35.2469 26.0075 34.2352 29.3707C33.1688 32.9117 32.5125 35.9331 29.7508 38.7358C26.4696 42.0991 20.3447 43.3842 16.1065 40.8823C14.4249 39.8979 12.7842 38.4761 11.1026 36.8765C8.99718 34.8667 6.80971 32.4742 4.14372 35.8374C-0.573019 41.7573 0.493374 53.4329 4.14372 60.05C4.5402 60.761 5.01871 61.4719 5.7023 61.9094C6.09878 62.1692 6.75502 62.2375 7.12416 61.9504C9.33897 60.1594 9.7628 60.4192 12.6749 60.1594C20.249 59.4758 27.5224 61.2668 34.6316 59.3118V59.2981ZM24.3232 35.7554C26.1825 35.0581 28.1102 32.6383 29.1083 30.9976C31.2137 27.566 32.5262 21.4274 28.7665 18.6794C27.6727 17.8728 26.1552 18.3787 25.2528 19.2536C24.0634 20.4021 24.2958 21.947 23.8173 23.7243C23.4072 25.2829 22.0673 27.32 21.3017 28.7828C20.5088 30.3004 19.8799 31.9 20.2763 33.5132C20.8232 35.7964 22.5595 36.4253 24.3232 35.7554ZM26.5106 67.7882C24.5419 67.4601 22.5459 67.2003 20.5498 67.0089C17.5693 66.7355 12.9756 66.5578 15.1084 71.1241C16.708 74.5557 21.9443 78.001 25.3349 79.5186C29.0946 81.2002 33.6746 82.8408 34.618 77.003C35.616 70.8097 31.8836 68.6906 26.5106 67.7882ZM55.0025 75.5948C52.0768 74.1866 47.6745 72.8878 44.4069 73.1612C43.5183 73.2432 42.6296 73.6671 41.9734 74.2823C40.3464 75.8135 40.1277 79.2861 42.0144 80.7353C44.9675 82.9912 49.7799 82.0068 53.1021 81.0635C56.2056 80.1748 59.5415 77.7686 55.0025 75.5948ZM84.1369 40.8139C82.2776 35.1265 78.887 33.5269 73.3089 35.3863C69.2211 36.7398 62.6313 42.2905 60.7583 46.0639C58.4068 50.7669 59.6235 56.6321 64.559 58.97C69.016 61.0754 76.344 61.6633 80.4456 58.4915C84.7385 55.1556 85.8049 45.9545 84.1369 40.8276V40.8139Z" fill="url(#paint7_radial_206_13645)"/>
</g>
<path style="mix-blend-mode:multiply" opacity="0.55" fill-rule="evenodd" clip-rule="evenodd" d="M27.5085 40.4588C24.1179 42.4412 19.5105 42.8786 16.1063 40.8689C14.4246 39.8845 12.784 38.4627 11.1024 36.8631C9.40711 35.2498 7.67081 33.3905 5.66106 34.4569C8.03994 34.033 9.54383 36.74 12.0868 39.1873C17.8289 44.7243 22.5456 43.781 27.4948 40.4451L27.5085 40.4588Z" fill="url(#paint8_radial_206_13645)"/>
<path style="mix-blend-mode:screen" opacity="0.75" fill-rule="evenodd" clip-rule="evenodd" d="M15.0123 42.3862C12.5514 40.9234 10.2956 37.6558 8.1491 35.6187C6.93232 34.4703 6.31709 34.6891 5.70186 35.5914C5.60616 35.7281 5.55148 35.8785 5.52413 36.0426C4.10227 44.1636 5.36007 52.0795 8.66863 58.4095C9.16081 59.3392 10.1178 59.845 11.1569 59.7356C12.0182 59.6399 13.8502 58.7786 15.6412 58.8606C20.8638 59.1067 24.4868 59.886 29.3129 59.5442C36.3128 59.052 41.7952 55.7982 46.9904 51.0951C49.7111 48.6342 48.9592 45.476 53.0197 42.0855C54.4962 40.8413 57.6544 39.2144 58.7618 37.8746C60.0196 36.357 60.5391 34.5934 60.3204 32.6246C59.9512 29.3981 59.1583 26.322 57.9962 23.4919C57.5313 22.3845 56.8888 21.5369 55.9454 20.7986C54.0177 19.2947 51.2697 18.4197 47.3596 17.9549C40.1546 17.0936 37.762 20.5662 35.7796 27.0739C34.4261 31.5172 34.3441 34.5934 32.6625 37.3961C29.0121 43.4936 21.3013 46.1049 15.0396 42.3726L15.0123 42.3862Z" fill="url(#paint9_radial_206_13645)"/>
<path style="mix-blend-mode:screen" fill-rule="evenodd" clip-rule="evenodd" d="M16.8583 67.9521C19.0731 69.5106 21.5477 70.6864 24.2411 71.411C26.6199 72.0536 29.0262 72.286 31.405 72.1766C31.6238 72.1766 31.8152 72.0399 31.9109 71.8485C32.0066 71.6434 31.9792 71.4247 31.8562 71.2469C30.3797 69.2782 27.8367 68.3896 24.4871 67.7607C22.327 67.3642 19.3192 66.831 17.1728 67.4052C17.0771 67.4325 16.995 67.4599 16.913 67.4872C16.8173 67.5282 16.7626 67.6103 16.7626 67.706C16.7626 67.8017 16.79 67.8974 16.872 67.9521H16.8583Z" fill="url(#paint10_radial_206_13645)"/>
<g style="mix-blend-mode:multiply" opacity="0.5">
<path fill-rule="evenodd" clip-rule="evenodd" d="M15.1217 71.1241C16.7213 74.5557 21.9576 78.001 25.3482 79.5186C28.2603 80.8174 31.6645 82.0888 33.4829 79.8877C26.4009 78.2608 19.7838 74.6378 14.5749 69.2374C14.6022 69.757 14.7663 70.3722 15.1217 71.1241ZM53.1018 81.0635C55.2072 80.4619 57.422 79.1494 57.2169 77.7002C52.3498 79.8193 47.2366 80.831 42.1781 80.8447C45.1448 82.9638 49.8479 81.9931 53.1018 81.0498V81.0635ZM84.1502 40.8139C83.1112 37.6421 81.5936 35.7281 79.4745 35.0035C81.2518 43.6987 79.8983 52.6947 75.8515 60.4192C77.5741 60.0911 79.1737 59.4622 80.4589 58.4778C84.7518 55.1419 85.8182 45.9408 84.1502 40.8139ZM81.7167 24.5446C82.9198 23.8063 83.7127 23.1227 84.1776 22.4392C85.1346 21.0173 84.6561 19.5681 83.3299 17.5857C82.8651 16.8884 78.955 11.078 76.3163 12.2674C76.5077 12.4178 76.6855 12.5818 76.8359 12.7596C78.039 14.2361 77.8749 16.6697 76.4257 17.7224C75.2089 18.6111 73.8554 19.1579 72.4199 19.4587C73.3906 20.7439 74.3066 22.0974 75.1269 23.5329C75.8515 24.7907 76.4941 26.0622 77.0683 27.361C78.6269 26.4313 80.1854 25.4879 81.7303 24.5446H81.7167Z" fill="url(#paint11_radial_206_13645)"/>
</g>
<path style="mix-blend-mode:multiply" opacity="0.55" fill-rule="evenodd" clip-rule="evenodd" d="M62.0294 20.3737C66.4864 21.1666 73.0215 22.6842 77.3144 19.8131C78.8457 18.7877 79.6113 17.2975 79.6933 15.8893C79.789 14.2487 78.9687 12.7312 77.3965 12.1706C77.1914 12.1023 77 12.0749 76.7949 12.116C76.6308 12.1433 76.4668 12.1843 76.3164 12.2527C76.5078 12.4031 76.6855 12.5671 76.8359 12.7448C78.039 14.2214 77.875 16.655 76.4258 17.7077C71.5586 21.235 64.5861 19.3346 59.1857 18.6374C54.8791 18.0768 49.8343 17.0651 45.555 17.0651C44.5023 17.0651 43.5043 17.1061 42.5473 17.2702C49.137 17.1882 55.5627 19.2116 62.0568 20.36L62.0294 20.3737Z" fill="url(#paint12_radial_206_13645)"/>
<path style="mix-blend-mode:multiply" opacity="0.4" fill-rule="evenodd" clip-rule="evenodd" d="M26.428 67.7607C30.4611 68.9639 33.6467 70.5088 33.674 75.704C33.674 76.497 33.5646 77.3036 33.2775 78.0419C32.3752 80.4207 30.5022 80.8309 28.5061 80.7215C31.3361 81.5282 33.9474 81.2411 34.631 76.9891C35.6291 70.7959 31.8967 68.6767 26.5237 67.7744C26.4964 67.7744 26.469 67.7744 26.4417 67.7607H26.428Z" fill="url(#paint13_radial_206_13645)"/>
<path style="mix-blend-mode:multiply" opacity="0.4" fill-rule="evenodd" clip-rule="evenodd" d="M54.8522 79.1494C52.0495 81.1454 47.4694 81.9794 44.5847 81.8974C47.3327 82.4989 50.6276 81.7743 53.0885 81.0634C56.192 80.1747 59.5279 77.7685 54.9889 75.5947C54.6334 75.4307 54.2643 75.2666 53.8815 75.1025C55.44 75.9775 57.2174 77.4677 54.8522 79.1494Z" fill="url(#paint14_radial_206_13645)"/>
<path style="mix-blend-mode:multiply" opacity="0.4" fill-rule="evenodd" clip-rule="evenodd" d="M79.9126 56.8914C76.9732 59.5984 73.3502 60.4734 70.4108 60.5554C74.0201 60.9792 77.8755 60.4597 80.4458 58.4636C84.7387 55.1277 85.8051 45.9266 84.1372 40.7998C83.5493 38.9951 82.7973 37.6006 81.8813 36.6025C85.5864 42.4677 84.9848 52.2156 79.9126 56.8777V56.8914Z" fill="url(#paint15_radial_206_13645)"/>
<path style="mix-blend-mode:multiply" fill-rule="evenodd" clip-rule="evenodd" d="M24.8149 33.9237C22.5181 35.3182 21.0415 34.3749 20.1529 32.6249C20.1529 32.9257 20.1939 33.2264 20.2759 33.5272C20.8228 35.8104 22.5591 36.4393 24.3227 35.7694C26.1821 35.0721 28.1098 32.6522 29.1078 31.0116C30.5297 28.6874 31.5961 25.1191 30.9672 22.207C31.391 26.3496 28.7661 31.5311 24.8149 33.9237Z" fill="url(#paint16_radial_206_13645)"/>
<path style="mix-blend-mode:screen" fill-rule="evenodd" clip-rule="evenodd" d="M8.20365 36.1512C7.58842 35.3993 6.68609 36.9305 7.21929 38.0926C9.89894 43.9168 14.438 48.0593 21.0824 47.5124C26.5101 47.0613 33.0178 42.0984 35.1096 36.5204C35.4514 35.618 35.6701 34.702 35.7522 33.786C35.7932 33.3349 35.3693 32.9247 34.8498 34.3602C33.0452 39.3914 28.7112 43.4793 23.4476 44.6414C20.0707 45.3933 16.5844 44.6824 13.3442 42.0984C11.3071 40.4715 9.50246 37.7235 8.20365 36.1512Z" fill="url(#paint17_radial_206_13645)"/>
<path style="mix-blend-mode:screen" fill-rule="evenodd" clip-rule="evenodd" d="M38.9791 21.6871C37.3658 23.1636 35.9987 27.9077 35.7526 30.0678C35.5612 31.6948 36.1354 33.3627 36.8326 30.1909C36.9694 29.5756 37.1198 28.9604 37.2701 28.3589C37.9264 25.898 38.774 23.8335 39.5943 22.2339C40.1412 21.1675 40.3736 20.4019 38.9791 21.6734V21.6871Z" fill="url(#paint18_radial_206_13645)"/>
<path style="mix-blend-mode:screen" fill-rule="evenodd" clip-rule="evenodd" d="M24.665 21.5506C24.542 23.656 24.1729 24.8728 23.1475 26.4587C22.2588 27.8259 21.8487 28.9333 22.0674 29.2067C22.2588 29.4528 22.9971 28.9743 24.2276 27.5388C25.7725 25.7478 26.5244 24.0388 26.7568 21.4686C26.8389 20.6072 26.5107 19.7186 25.9912 19.5955C25.1299 19.4041 24.6924 20.9354 24.665 21.5506Z" fill="url(#paint19_radial_206_13645)"/>
<path style="mix-blend-mode:screen" fill-rule="evenodd" clip-rule="evenodd" d="M23.3386 69.1686C27.4812 69.5377 27.8503 68.6627 23.5847 67.7604C19.8934 66.9811 17.8153 67.2545 17.7879 67.651C17.7743 67.9245 19.4695 68.8268 23.3386 69.1686Z" fill="url(#paint20_radial_206_13645)"/>
<path style="mix-blend-mode:screen" fill-rule="evenodd" clip-rule="evenodd" d="M42.4654 74.2553C41.2213 75.3217 41.9049 75.9233 43.3678 76.101C44.8853 76.2924 46.4302 76.3471 47.9478 76.3197C53.0063 76.1967 54.4692 74.8569 48.4263 73.6538C46.772 73.3256 43.5318 73.3393 42.4654 74.269V74.2553Z" fill="url(#paint21_radial_206_13645)"/>
<path style="mix-blend-mode:screen" opacity="0.75" fill-rule="evenodd" clip-rule="evenodd" d="M60.8947 54.1577C60.1017 52.9819 59.7736 51.4233 59.924 50.0151C60.1974 47.4038 61.4142 45.1754 63.0685 43.2476C64.6818 41.3473 68.0723 38.2301 70.4922 37.4918C71.1895 37.2731 71.627 37.3141 71.6953 37.4918C72.0235 38.3668 69.2754 41.0192 67.1973 44.2457C66.4317 45.4351 65.6798 46.6519 65.1192 47.9507C64.2306 50.0151 64.3946 52.2163 63.7931 53.8569C63.3419 55.0873 61.7287 55.4018 60.8947 54.1577Z" fill="url(#paint22_radial_206_13645)"/>
<g style="mix-blend-mode:screen" opacity="0.5">
<path fill-rule="evenodd" clip-rule="evenodd" d="M34.6316 59.2981C39.4578 57.9719 43.5456 55.306 48.0026 50.972C54.8795 44.2866 56.7661 40.2807 65.4887 34.4703C70.7523 30.9703 76.3167 27.8532 81.7034 24.5446C85.3947 22.2614 85.2853 20.5251 83.3166 17.5857C82.8518 16.8884 78.9417 11.078 76.303 12.2674C78.053 13.6209 78.0393 16.5466 76.3987 17.7361C71.5316 21.2634 64.559 19.363 59.1587 18.6658C54.8521 18.1052 49.8072 17.0935 45.528 17.0935C42.903 17.0935 40.5242 17.3259 38.6375 19.2536C36.0808 21.8513 35.2469 26.0075 34.2352 29.3707C33.1688 32.9117 32.5125 35.9331 29.7508 38.7358C26.4696 42.0991 20.3447 43.3842 16.1065 40.8823C14.4249 39.8979 12.7842 38.4761 11.1026 36.8765C8.99718 34.8667 6.80971 32.4742 4.14372 35.8374C-0.573019 41.7573 0.493374 53.4329 4.14372 60.05C4.5402 60.761 5.01871 61.4719 5.7023 61.9094C6.09878 62.1692 6.75502 62.2375 7.12416 61.9504C9.33897 60.1594 9.7628 60.4192 12.6749 60.1594C20.249 59.4758 27.5224 61.2668 34.6316 59.3118V59.2981ZM24.3232 35.7554C26.1825 35.0581 28.1102 32.6383 29.1083 30.9976C31.2137 27.566 32.5262 21.4274 28.7665 18.6794C27.6727 17.8728 26.1552 18.3787 25.2528 19.2536C24.0634 20.4021 24.2958 21.947 23.8173 23.7243C23.4072 25.2829 22.0673 27.32 21.3017 28.7828C20.5088 30.3004 19.8799 31.9 20.2763 33.5132C20.8232 35.7964 22.5595 36.4253 24.3232 35.7554ZM26.5106 67.7882C24.5419 67.4601 22.5459 67.2003 20.5498 67.0089C17.5693 66.7355 12.9756 66.5578 15.1084 71.1241C16.708 74.5557 21.9443 78.001 25.3349 79.5186C29.0946 81.2002 33.6746 82.8408 34.618 77.003C35.616 70.8097 31.8836 68.6906 26.5106 67.7882ZM55.0025 75.5948C52.0768 74.1866 47.6745 72.8878 44.4069 73.1612C43.5183 73.2432 42.6296 73.6671 41.9734 74.2823C40.3464 75.8135 40.1277 79.2861 42.0144 80.7353C44.9675 82.9912 49.7799 82.0068 53.1021 81.0635C56.2056 80.1748 59.5415 77.7686 55.0025 75.5948ZM84.1369 40.8139C82.2776 35.1265 78.887 33.5269 73.3089 35.3863C69.2211 36.7398 62.6313 42.2905 60.7583 46.0639C58.4068 50.7669 59.6235 56.6321 64.559 58.97C69.016 61.0754 76.344 61.6633 80.4456 58.4915C84.7385 55.1556 85.8049 45.9545 84.1369 40.8276V40.8139Z" fill="url(#paint23_radial_206_13645)"/>
</g>
<defs>
<radialGradient id="paint0_radial_206_13645" cx="0" cy="0" r="1" gradientUnits="userSpaceOnUse" gradientTransform="translate(29.4225 17.4764) scale(81.1416 81.1416)">
<stop stop-color="#FFADDB"/>
<stop offset="0.07" stop-color="#FCA0D4"/>
<stop offset="0.2" stop-color="#F780C2"/>
<stop offset="0.37" stop-color="#EF4CA5"/>
<stop offset="0.5" stop-color="#E8218D"/>
<stop offset="0.96" stop-color="#63004E"/>
</radialGradient>
<radialGradient id="paint1_radial_206_13645" cx="0" cy="0" r="1" gradientUnits="userSpaceOnUse" gradientTransform="translate(42.6841 33.4039) scale(57.3255 57.3255)">
<stop offset="0.45" stop-color="white"/>
<stop offset="0.5" stop-color="#F8F3F8"/>
<stop offset="0.58" stop-color="#E6D6E8"/>
<stop offset="0.69" stop-color="#C9A6CD"/>
<stop offset="0.83" stop-color="#A263A7"/>
<stop offset="0.97" stop-color="#700F78"/>
<stop offset="1" stop-color="#670070"/>
</radialGradient>
<radialGradient id="paint2_radial_206_13645" cx="0" cy="0" r="1" gradientUnits="userSpaceOnUse" gradientTransform="translate(49.1781 47.2534) scale(49.5736 49.5736)">
<stop offset="0.04"/>
<stop offset="0.84"/>
<stop offset="0.85" stop-color="#150B11"/>
<stop offset="0.9" stop-color="#673652"/>
<stop offset="0.93" stop-color="#A85785"/>
<stop offset="0.96" stop-color="#D770AA"/>
<stop offset="0.99" stop-color="#F47FC1"/>
<stop offset="1" stop-color="#FF85CA"/>
</radialGradient>
<radialGradient id="paint3_radial_206_13645" cx="0" cy="0" r="1" gradientUnits="userSpaceOnUse" gradientTransform="translate(24.8015 17.7773) scale(81.7842)">
<stop stop-color="#843E8C"/>
<stop offset="1" stop-color="#340E47"/>
</radialGradient>
<radialGradient id="paint4_radial_206_13645" cx="0" cy="0" r="1" gradientUnits="userSpaceOnUse" gradientTransform="translate(36.6418 33.5402) scale(30.2282 30.2282)">
<stop stop-color="#FF8FCD"/>
<stop offset="1"/>
</radialGradient>
<radialGradient id="paint5_radial_206_13645" cx="0" cy="0" r="1" gradientUnits="userSpaceOnUse" gradientTransform="translate(25.5536 19.1033) scale(80.0069 80.0069)">
<stop stop-color="#F242F5"/>
<stop offset="1" stop-color="#66005E"/>
</radialGradient>
<radialGradient id="paint6_radial_206_13645" cx="0" cy="0" r="1" gradientUnits="userSpaceOnUse" gradientTransform="translate(57.5044 35.8783) scale(35.6422)">
<stop stop-color="#F242F5"/>
<stop offset="1" stop-color="#66005E"/>
</radialGradient>
<radialGradient id="paint7_radial_206_13645" cx="0" cy="0" r="1" gradientUnits="userSpaceOnUse" gradientTransform="translate(25.3349 24.777) scale(58.1868 58.1868)">
<stop stop-color="#F946DE"/>
<stop offset="0.12" stop-color="#CC39B6"/>
<stop offset="0.39" stop-color="#5C1A52"/>
<stop offset="0.6"/>
</radialGradient>
<radialGradient id="paint8_radial_206_13645" cx="0" cy="0" r="1" gradientUnits="userSpaceOnUse" gradientTransform="translate(22.9284 34.2381) scale(15.6815 15.6815)">
<stop stop-color="white"/>
<stop offset="0.1" stop-color="#FBF9FB"/>
<stop offset="0.22" stop-color="#F1E8F2"/>
<stop offset="0.36" stop-color="#E1CDE3"/>
<stop offset="0.51" stop-color="#CAA7CE"/>
<stop offset="0.68" stop-color="#AD77B2"/>
<stop offset="0.84" stop-color="#8B3C92"/>
<stop offset="1" stop-color="#670070"/>
</radialGradient>
<radialGradient id="paint9_radial_206_13645" cx="0" cy="0" r="1" gradientUnits="userSpaceOnUse" gradientTransform="translate(20.2622 19.3494) scale(53.224)">
<stop stop-color="#FF8FCD"/>
<stop offset="1"/>
</radialGradient>
<radialGradient id="paint10_radial_206_13645" cx="0" cy="0" r="1" gradientUnits="userSpaceOnUse" gradientTransform="translate(20.4813 57.1787) scale(21.7517 21.7517)">
<stop stop-color="#FF8FCD"/>
<stop offset="1"/>
</radialGradient>
<radialGradient id="paint11_radial_206_13645" cx="0" cy="0" r="1" gradientUnits="userSpaceOnUse" gradientTransform="translate(41.18 39.146) scale(54.0853 54.0853)">
<stop offset="0.49" stop-color="white"/>
<stop offset="0.54" stop-color="#FBF9FB"/>
<stop offset="0.61" stop-color="#F1E8F2"/>
<stop offset="0.68" stop-color="#E1CDE3"/>
<stop offset="0.75" stop-color="#CAA7CE"/>
<stop offset="0.84" stop-color="#AD77B2"/>
<stop offset="0.92" stop-color="#8B3C92"/>
<stop offset="1" stop-color="#670070"/>
</radialGradient>
<radialGradient id="paint12_radial_206_13645" cx="0" cy="0" r="1" gradientUnits="userSpaceOnUse" gradientTransform="translate(79.3789 0.590693) scale(38.896 38.896)">
<stop stop-color="white"/>
<stop offset="0.1" stop-color="#FBF9FB"/>
<stop offset="0.22" stop-color="#F1E8F2"/>
<stop offset="0.36" stop-color="#E1CDE3"/>
<stop offset="0.51" stop-color="#CAA7CE"/>
<stop offset="0.68" stop-color="#AD77B2"/>
<stop offset="0.84" stop-color="#8B3C92"/>
<stop offset="1" stop-color="#670070"/>
</radialGradient>
<radialGradient id="paint13_radial_206_13645" cx="0" cy="0" r="1" gradientUnits="userSpaceOnUse" gradientTransform="translate(26.6331 72.874) scale(14.3553 14.3553)">
<stop stop-color="white"/>
<stop offset="0.1" stop-color="#FBF9FB"/>
<stop offset="0.22" stop-color="#F1E8F2"/>
<stop offset="0.36" stop-color="#E1CDE3"/>
<stop offset="0.51" stop-color="#CAA7CE"/>
<stop offset="0.68" stop-color="#AD77B2"/>
<stop offset="0.84" stop-color="#8B3C92"/>
<stop offset="1" stop-color="#670070"/>
</radialGradient>
<radialGradient id="paint14_radial_206_13645" cx="0" cy="0" r="1" gradientUnits="userSpaceOnUse" gradientTransform="translate(48.8093 76.0596) scale(14.1229 14.1229)">
<stop stop-color="white"/>
<stop offset="0.1" stop-color="#FBF9FB"/>
<stop offset="0.22" stop-color="#F1E8F2"/>
<stop offset="0.36" stop-color="#E1CDE3"/>
<stop offset="0.51" stop-color="#CAA7CE"/>
<stop offset="0.68" stop-color="#AD77B2"/>
<stop offset="0.84" stop-color="#8B3C92"/>
<stop offset="1" stop-color="#670070"/>
</radialGradient>
<radialGradient id="paint15_radial_206_13645" cx="0" cy="0" r="1" gradientUnits="userSpaceOnUse" gradientTransform="translate(74.2252 46.2274) scale(27.6169 27.6169)">
<stop stop-color="white"/>
<stop offset="0.1" stop-color="#FBF9FB"/>
<stop offset="0.22" stop-color="#F1E8F2"/>
<stop offset="0.36" stop-color="#E1CDE3"/>
<stop offset="0.51" stop-color="#CAA7CE"/>
<stop offset="0.68" stop-color="#AD77B2"/>
<stop offset="0.84" stop-color="#8B3C92"/>
<stop offset="1" stop-color="#670070"/>
</radialGradient>
<radialGradient id="paint16_radial_206_13645" cx="0" cy="0" r="1" gradientUnits="userSpaceOnUse" gradientTransform="translate(21.3423 23.5742) scale(20.6306 20.6306)">
<stop stop-color="white"/>
<stop offset="0.1" stop-color="#FBF9FB"/>
<stop offset="0.22" stop-color="#F1E8F2"/>
<stop offset="0.36" stop-color="#E1CDE3"/>
<stop offset="0.51" stop-color="#CAA7CE"/>
<stop offset="0.68" stop-color="#AD77B2"/>
<stop offset="0.84" stop-color="#8B3C92"/>
<stop offset="1" stop-color="#670070"/>
</radialGradient>
<radialGradient id="paint17_radial_206_13645" cx="0" cy="0" r="1" gradientUnits="userSpaceOnUse" gradientTransform="translate(16.6938 31.6122) scale(28.068 28.068)">
<stop stop-color="#F7C7FF"/>
<stop offset="1"/>
</radialGradient>
<radialGradient id="paint18_radial_206_13645" cx="0" cy="0" r="1" gradientUnits="userSpaceOnUse" gradientTransform="translate(33.4421 25.3237) scale(14.4237)">
<stop stop-color="#F7C7FF"/>
<stop offset="1"/>
</radialGradient>
<radialGradient id="paint19_radial_206_13645" cx="0" cy="0" r="1" gradientUnits="userSpaceOnUse" gradientTransform="translate(20.7003 18.5155) scale(15.0662 15.0662)">
<stop stop-color="#F7C7FF"/>
<stop offset="1"/>
</radialGradient>
<radialGradient id="paint20_radial_206_13645" cx="0" cy="0" r="1" gradientUnits="userSpaceOnUse" gradientTransform="translate(12.9208 71.3561) scale(17.5408 17.5408)">
<stop stop-color="#F7C7FF"/>
<stop offset="1"/>
</radialGradient>
<radialGradient id="paint21_radial_206_13645" cx="0" cy="0" r="1" gradientUnits="userSpaceOnUse" gradientTransform="translate(44.4478 65.15) scale(15.1756 15.1756)">
<stop stop-color="#FF8FCD"/>
<stop offset="1"/>
</radialGradient>
<radialGradient id="paint22_radial_206_13645" cx="0" cy="0" r="1" gradientUnits="userSpaceOnUse" gradientTransform="translate(58.5021 36.4118) scale(25.9489)">
<stop stop-color="#FF8FCD"/>
<stop offset="1"/>
</radialGradient>
<radialGradient id="paint23_radial_206_13645" cx="0" cy="0" r="1" gradientUnits="userSpaceOnUse" gradientTransform="translate(59.5278 51.0951) scale(58.1868 58.1868)">
<stop offset="0.04"/>
<stop offset="0.92"/>
<stop offset="0.93" stop-color="#150B11"/>
<stop offset="0.95" stop-color="#673652"/>
<stop offset="0.97" stop-color="#A85785"/>
<stop offset="0.98" stop-color="#D770AA"/>
<stop offset="0.99" stop-color="#F47FC1"/>
<stop offset="1" stop-color="#FF85CA"/>
</radialGradient>
</defs>
</svg>
