<svg width="126" height="68" viewBox="0 0 126 68" fill="none" xmlns="http://www.w3.org/2000/svg">
<g clip-path="url(#clip0_206_17036)">
<path d="M109.015 59.3642C109.015 59.8622 109.006 60.3576 108.984 60.8501C108.976 61.018 108.976 61.1831 108.962 61.351C108.665 68.4589 106.711 75.1403 103.483 81.0236C102.534 82.7545 101.467 84.4221 100.299 86.0071C100.299 86.0071 100.283 86.0236 100.252 86.0594C99.213 87.4848 98.0775 88.8525 96.8732 90.1403C88.658 98.9378 76.9592 104.428 63.9848 104.428C57.5732 104.428 51.475 103.088 45.9486 100.66C44.6537 100.099 43.3862 99.4689 42.16 98.7782C41.5468 98.437 40.9392 98.0793 40.3426 97.716C39.8285 97.4051 39.3116 97.0721 38.8112 96.7226C37.7884 96.0319 36.7959 95.3055 35.8418 94.5322C35.6383 94.3726 35.4404 94.213 35.2507 94.0534C34.9702 93.8278 34.6981 93.5911 34.4314 93.3572C34.1894 93.1453 33.9392 92.9224 33.6973 92.6967C33.667 92.6802 33.645 92.6582 33.623 92.628C33.3866 92.4243 33.1611 92.2042 32.9329 91.9923C32.9164 91.9758 32.9027 91.962 32.8889 91.9455C32.592 91.6648 32.3061 91.3841 32.0174 91.087C31.6902 90.7677 31.3795 90.4348 31.0633 90.1018C30.9424 89.967 30.8131 89.8376 30.6922 89.7C30.0625 89.0011 29.4494 88.2884 28.8583 87.5536C28.5696 87.1959 28.2892 86.8327 28.017 86.4694C27.9345 86.3704 27.8575 86.2658 27.7888 86.1667C27.5083 85.787 27.2362 85.399 26.964 85.0137C26.667 84.5817 26.3728 84.1414 26.0841 83.6929C24.9404 81.9097 23.9176 80.0385 23.0296 78.0957C21.8693 75.5613 20.9372 72.9085 20.2636 70.154L20.2554 70.1457C20.2169 70.0026 20.1867 69.865 20.1564 69.722C19.8375 68.3873 19.5818 67.0224 19.3893 65.6328C19.3288 65.2007 19.2766 64.7605 19.2299 64.3202C19.1914 64.0395 19.1694 63.7588 19.1446 63.4781C19.1309 63.3873 19.1226 63.2965 19.1226 63.1974C19.0924 62.8727 19.0622 62.5453 19.0457 62.2205C19.0237 61.9178 19.0072 61.6124 18.9989 61.3097C18.9687 60.6658 18.9549 60.0136 18.9549 59.3614C18.9549 55.0906 19.5076 51.0014 20.5468 47.1489C20.8053 46.1775 21.0995 45.2309 21.4184 44.298C21.6768 43.5468 21.949 42.8038 22.2432 42.0746C23.123 39.9062 24.1596 37.8286 25.3583 35.8638C26.0924 34.6502 26.8897 33.4835 27.7393 32.3525C28.072 31.9039 28.4211 31.4636 28.7786 31.0399C28.9435 30.828 29.125 30.6161 29.3092 30.4097C29.4907 30.1978 29.6721 29.9859 29.8618 29.7795C29.9911 29.6199 30.1285 29.4686 30.2715 29.3172C30.2797 29.309 30.2797 29.3007 30.288 29.2952C38.1458 20.7096 49.5201 15.4619 62.5853 15.4619C67.4573 15.4619 72.2083 16.1911 76.6871 17.556C76.6953 17.556 76.7008 17.5643 76.709 17.5643C82.0896 19.2016 87.0908 21.7443 91.4706 25.0272C91.4844 25.0437 91.5009 25.0575 91.5229 25.0712C91.7731 25.2528 92.015 25.4427 92.257 25.6326C92.3559 25.7096 92.4604 25.7839 92.5594 25.861C93.068 26.2793 93.5684 26.6865 94.0523 27.1268C94.5912 27.5809 95.1136 28.0597 95.6277 28.5522C95.6277 28.5605 95.636 28.5605 95.636 28.5687C95.8779 28.7971 96.1144 29.0228 96.3481 29.2595V29.2677C102.85 35.7455 107.313 44.1247 108.616 53.5991C108.814 55.0466 108.943 56.5271 108.987 58.0268V58.035C109.001 58.4753 109.009 58.9211 109.009 59.3614L109.015 59.3642Z" fill="url(#paint0_radial_206_17036)"/>
<path opacity="0.26" d="M109.015 59.3643C109.015 59.8624 109.006 60.3577 108.984 60.8503C108.976 61.0182 108.976 61.1833 108.962 61.3511C108.665 68.459 106.711 75.1404 103.483 81.0238C102.534 82.7546 101.467 84.4222 100.299 86.0073C100.299 86.0073 100.283 86.0238 100.252 86.0596C99.213 87.485 98.0775 88.8526 96.8732 90.1405C88.658 98.938 76.9592 104.428 63.9848 104.428C57.5732 104.428 51.475 103.088 45.9486 100.661C44.6537 100.099 43.3862 99.4691 42.16 98.7784C41.5468 98.4372 40.9392 98.0794 40.3426 97.7162C39.8285 97.4052 39.3116 97.0723 38.8112 96.7228C37.7884 96.0321 36.7959 95.3056 35.8418 94.5324C35.6383 94.3727 35.4404 94.2132 35.2507 94.0535C34.9702 93.8279 34.6981 93.5912 34.4314 93.3573C34.1894 93.1454 33.9392 92.9225 33.6973 92.6969C33.667 92.6804 33.645 92.6584 33.623 92.6281C33.3866 92.4245 33.1611 92.2043 32.9329 91.9924C32.9164 91.9759 32.9027 91.9622 32.8889 91.9457C32.592 91.665 32.3061 91.3843 32.0174 91.0871C31.6902 90.7679 31.3795 90.4349 31.0633 90.102C30.9424 89.9671 30.8131 89.8378 30.6922 89.7002C30.0625 89.0012 29.4494 88.2885 28.8583 87.5538C28.5696 87.1961 28.2892 86.8328 28.017 86.4696C27.9345 86.3705 27.8575 86.2659 27.7888 86.1669C27.5083 85.7871 27.2362 85.3991 26.964 85.0139C26.667 84.5818 26.3728 84.1416 26.0841 83.693C24.9404 81.9098 23.9176 80.0386 23.0296 78.0958C21.8693 75.5614 20.9372 72.9087 20.2636 70.1541L20.2554 70.1459C20.2169 70.0028 20.1867 69.8652 20.1564 69.7221C19.8375 68.3875 19.5818 67.0226 19.3893 65.6329C19.3288 65.2009 19.2766 64.7606 19.2299 64.3203C19.1914 64.0396 19.1694 63.7589 19.1446 63.4783C19.1309 63.3875 19.1226 63.2966 19.1226 63.1976C19.0924 62.8729 19.0622 62.5454 19.0457 62.2207C19.0237 61.918 19.0072 61.6125 18.9989 61.3098C18.9687 60.6659 18.9549 60.0137 18.9549 59.3616C18.9549 55.0908 19.5076 51.0016 20.5468 47.1491C20.8053 46.1777 21.0995 45.2311 21.4184 44.2982C21.6768 43.547 21.949 42.804 22.2432 42.0747C23.123 39.9063 24.1596 37.8287 25.3583 35.8639L27.5331 35.6823C27.5331 35.6823 33.2244 67.606 70.0665 64.4799C106.909 61.3539 100.764 39.9669 99.5512 37.7214C98.4761 35.7263 99.059 31.7307 94.0496 27.127C94.5885 27.581 95.1109 28.0598 95.625 28.5524C95.625 28.5606 95.6332 28.5606 95.6332 28.5689C95.8752 28.7973 96.1116 29.0229 96.3453 29.2596V29.2679C102.848 35.7456 107.31 44.1248 108.613 53.5993C108.811 55.0467 108.94 56.5272 108.984 58.0269V58.0352C108.998 58.4755 109.006 58.9213 109.006 59.3616L109.015 59.3643Z" fill="#166AB2"/>
<path d="M60.0064 54.0613C59.9734 54.0558 59.9404 54.0558 59.9074 54.0558C59.9212 54.0475 59.9404 54.042 59.9596 54.042L60.0064 54.0613Z" fill="#328A2E"/>
<path opacity="0.5" d="M108.962 61.3515C108.665 68.4594 106.711 75.1408 103.483 81.0241C102.534 82.755 101.467 84.4226 100.299 86.0076C100.299 86.0076 100.283 86.0241 100.252 86.0599C99.213 87.4853 98.0775 88.853 96.8732 90.1408C88.658 98.9383 76.9592 104.428 63.9848 104.428C57.5732 104.428 51.475 103.088 45.9486 100.661C44.6537 100.1 43.3862 99.4694 42.16 98.7787C41.5468 98.4375 40.9392 98.0798 40.3426 97.7165C39.8285 97.4056 39.3116 97.0726 38.8112 96.7231C37.7884 96.0324 36.7959 95.306 35.8418 94.5327C35.6383 94.3731 35.4404 94.2135 35.2507 94.0539C34.9702 93.8282 34.6981 93.5916 34.4314 93.3577C34.1894 93.1458 33.9392 92.9229 33.6973 92.6972C33.667 92.6807 33.645 92.6587 33.623 92.6285C33.3866 92.4248 33.1611 92.2047 32.9329 91.9928C32.9164 91.9763 32.9027 91.9625 32.8889 91.946C32.592 91.6653 32.3061 91.3846 32.0174 91.0874C31.6902 90.7682 31.3795 90.4353 31.0633 90.1023C30.9424 89.9675 30.8131 89.8381 30.6922 89.7005C30.0625 89.0016 29.4494 88.2889 28.8583 87.5541C28.5696 87.1964 28.2892 86.8332 28.017 86.4699C27.9345 86.3709 27.8575 86.2663 27.7888 86.1672C27.5083 85.7875 27.2362 85.3995 26.964 85.0142C26.667 84.5822 26.3728 84.1419 26.0841 83.6934C24.9404 81.9102 23.9176 80.039 23.0296 78.0962C21.8693 75.5618 20.9372 72.909 20.2636 70.1545L20.2554 70.1462C20.2169 70.0031 20.1867 69.8655 20.1564 69.7225C19.8375 68.3878 19.5818 67.0229 19.3893 65.6333C19.3288 65.2012 19.2766 64.761 19.2299 64.3207C19.1914 64.04 19.1694 63.7593 19.1446 63.4786C19.1309 63.3878 19.1226 63.297 19.1226 63.1979C19.0924 62.8732 19.0622 62.5458 19.0457 62.221C19.0237 61.9183 19.0072 61.6129 18.9989 61.3102C18.9687 60.6663 18.9549 60.0141 18.9549 59.3619C18.9549 55.0911 19.5076 51.0019 20.5468 47.1494L23.5025 47.9172C23.5025 47.9172 26.4058 84.4886 70.0692 79.9371C101.69 76.6377 107.929 66.6184 108.96 61.3487L108.962 61.3515Z" fill="#166AB2"/>
<g style="mix-blend-mode:screen">
<path d="M34.4066 32.4046C34.2939 29.6859 35.5614 27.1047 37.7774 25.5279C42.7813 21.9671 52.9651 16.7496 67.4518 19.2455C88.669 22.8999 93.4887 29.6281 92.5952 31.835C91.7016 34.042 84.2095 56.7911 61.4553 51.0399C38.7012 45.2886 34.7008 39.5401 34.4726 34.0117L34.4066 32.4074V32.4046Z" fill="#166AB2"/>
</g>
<path opacity="0.35" d="M100.255 86.0595C99.2157 87.4849 98.0802 88.8525 96.876 90.1404C88.6608 98.9379 76.962 104.428 63.9875 104.428C57.5759 104.428 51.4777 103.088 45.9514 100.661C44.6564 100.099 43.389 99.469 42.1627 98.7783C41.5496 98.4371 40.942 98.0793 40.3454 97.7161C39.8312 97.4051 39.3143 97.0722 38.8139 96.7227C37.7911 96.032 36.7986 95.3055 35.8446 94.5323C35.6411 94.3727 35.4432 94.2131 35.2534 94.0534C34.973 93.8278 34.7008 93.5911 34.4341 93.3572C34.1922 93.1454 33.942 92.9224 33.7 92.6968C33.6698 92.6803 33.6478 92.6583 33.6258 92.628C33.3893 92.4244 33.1639 92.2042 32.9357 91.9923C32.9192 91.9758 32.9054 91.9621 32.8917 91.9456C32.5948 91.6649 32.3088 91.3842 32.0201 91.087C31.693 90.7678 31.3823 90.4348 31.0661 90.1019C30.9451 89.967 30.8159 89.8377 30.6949 89.7001C30.0653 89.0011 29.4522 88.2884 28.8611 87.5537C28.5724 87.196 28.2919 86.8327 28.0197 86.4695C27.9373 86.3704 27.8603 86.2658 27.7915 86.1668C27.5111 85.787 27.2389 85.399 26.9667 85.0138C26.6698 84.5817 26.3756 84.1415 26.0869 83.6929C24.9432 81.9097 23.9204 80.0385 23.0323 78.0957C21.8721 75.5613 20.94 72.9086 20.2664 70.154L20.2582 70.1458C20.2197 70.0027 20.1894 69.8651 20.1592 69.722C19.8402 68.3874 19.5846 67.0225 19.3921 65.6328H19.4003C19.3399 65.2008 19.2794 64.7605 19.2354 64.3202C19.1969 64.0395 19.1749 63.7588 19.1501 63.4782C19.1364 63.3874 19.1281 63.2965 19.1281 63.1975C19.0979 62.8728 19.0677 62.5453 19.0512 62.2206C19.0292 61.9179 19.0127 61.6124 19.0044 61.3097C18.9742 60.6658 18.9604 60.0136 18.9604 59.3615C18.9604 54.0202 19.8237 48.9624 21.4239 44.2981C21.6824 43.5469 21.9545 42.8039 22.2487 42.0746C23.6647 38.5633 25.515 35.3025 27.7421 32.3525C28.0747 31.904 28.4239 31.4637 28.7813 31.0399C28.9463 30.828 29.1278 30.6161 29.312 30.4098C29.4934 30.1979 29.6749 29.986 29.8646 29.7796C29.9938 29.62 30.1313 29.4686 30.2743 29.3173C29.5017 30.2419 28.9628 38.5551 28.9628 38.5551C27.2059 40.5034 27.5386 46.6564 27.5386 46.6564C32.2758 48.7945 32.889 56.0758 32.889 56.0758C31.1843 56.2492 26.0237 60.6851 26.0237 60.6851C26.0237 60.6851 25.2648 66.8519 23.7499 69.3698C23.6757 69.4991 23.5987 69.6147 23.5162 69.7193C25.6305 71.0236 33.1859 75.5586 38.0881 76.984C43.8316 78.6681 43.1717 84.235 44.5135 87.6473C45.8552 91.0595 44.1203 90.9301 47.5763 93.8361C51.0323 96.7475 56.5861 99.136 56.5861 99.136L62.8135 100.237L65.0653 99.5708C64.3752 98.6462 63.9518 97.5455 63.7236 96.6209C63.094 94.0947 66.5665 84.8019 64.5429 83.3462C62.5276 81.8905 62.0794 78.8552 61.5791 77.8481C61.0704 76.8409 60.6333 78.4782 55.5771 76.984C50.5237 75.4898 50.0233 66.3428 50.8399 64.0065C51.6592 61.6702 54.1501 62.2233 53.6195 60.7814C53.3171 59.9476 53.2098 58.9542 53.1796 58.2718C52.7177 58.5387 52.2091 58.7643 51.6564 58.9322C49.5724 59.5458 45.2008 57.5673 42.927 55.6796C40.645 53.7918 41.6156 51.2437 40.1694 49.2789C38.715 47.3223 34.6156 47.5782 33.645 45.1759C32.6745 42.7653 33.7138 39.4879 35.2892 37.0829C36.1223 35.817 35.3799 34.3668 35.1297 32.281C34.8795 30.1951 37.5987 27.8368 40.2134 27.691C42.3882 27.5699 45.3438 34.7466 45.3438 34.7466L77.7456 44.2953L87.0798 43.6734L90.3764 48.0185L99.6749 50.7566C99.6749 50.7566 100.909 52.8507 101.047 54.7384C101.184 56.6344 101.775 58.9322 101.775 58.9322C101.775 58.9322 100.283 59.8953 99.147 59.9394C98.0087 59.9861 94.2805 58.8249 92.5154 55.9795C92.2817 55.5942 92.037 55.275 91.8033 54.9944H91.7951C91.1957 54.9944 91.4239 56.3978 92.1965 57.4297C93.1423 58.6955 92.8921 59.6449 92.7051 61.7913C92.5154 63.946 94.3493 69.4441 91.949 72.5398C89.5461 75.6329 87.4015 80.754 87.4015 80.754C87.9102 81.0126 89.3179 82.4821 89.3179 82.4821L88.3473 84.8322L88.0449 90.4156C89.4223 89.8542 90.8493 89.6203 91.9463 90.278C94.8552 92.0226 99.7299 86.6456 100.252 86.054L100.255 86.0595Z" fill="#262740"/>
<path opacity="0.35" d="M108.621 53.5991C108.621 53.5991 103.538 51.1197 103.4 50.1703C103.301 49.4411 101.968 49.3723 101.355 49.3806C101.709 50.1538 98.5971 50.1016 99.1882 50.9188C100.629 52.9359 99.9086 55.9409 100.469 58.2689C100.5 58.3817 101.017 58.3294 101.052 58.434C97.6816 60.8528 93.9066 55.8391 91.8528 53.6101C90.0052 51.6068 88.7762 52.2837 86.3127 52.5424C85.2817 52.6415 83.5991 52.2012 82.645 52.5864C81.9109 52.8836 81.3803 54.0724 80.5005 54.6283C78.4384 55.9409 73.8469 55.7813 71.4907 55.5694C68.1419 55.2804 65.6014 53.2854 62.2389 53.1726C60.9824 53.134 56.9655 52.8396 56.1077 54.1825C54.546 55.6987 53.6745 56.8985 50.6061 57.3746C48.7338 57.6635 44.3155 55.3657 43.1937 53.9843C42.3387 52.9139 42.5421 50.7235 41.6925 49.4274C40.8292 48.0845 39.4188 47.2507 38.1073 46.6976C36.8508 46.1665 35.0307 46.2188 34.3324 45.1125C33.6505 44.0283 34.0437 41.6095 34.4396 40.539C35.1297 38.6513 36.1607 37.7707 35.971 35.539C35.7813 33.4229 35.0225 32.1956 36.2432 30.162C36.4494 29.8208 36.6666 29.5318 36.8948 29.2732C37.2578 28.8714 37.6454 28.5687 38.0606 28.3403C43.3642 25.4812 53.0256 35.7124 58.7636 31.9892C60.5975 30.7977 61.2409 29.1768 63.6658 29.0007C65.3182 28.8879 66.462 29.7052 68.1446 29.6997C72.387 29.6914 72.464 26.8846 75.1474 24.7464C77.9738 22.4927 81.9137 25.3683 84.3084 26.9094C85.8233 27.8725 85.18 28.0926 86.354 29.2759C87.528 30.4812 89.4828 29.3502 92.0838 33.5082C93.0928 35.3739 91.3497 35.6326 92.0672 37.6111C92.2872 38.233 92.6584 38.4367 93.0378 38.7339C93.0378 38.7339 93.1753 38.134 94.0523 37.8918C94.9321 37.6579 96.3481 36.9452 96.3481 36.9452C96.3481 36.9452 97.4836 31.5599 95.636 28.5714C95.8779 28.7998 96.1144 29.0255 96.3481 29.2621V29.2704C102.85 35.7482 107.313 44.1274 108.616 53.6018L108.621 53.5991Z" fill="#262740"/>
<path d="M109.446 48.987C109.196 49.9281 109.49 51.1774 109.287 52.0663C108.492 51.6563 107.338 50.8665 106.339 50.0354C105.718 49.5126 105.157 48.9732 104.786 48.4889C103.634 47.0112 102.65 45.6215 101.058 44.4988C100.687 44.2401 100.376 43.9622 100.104 43.6568C99.2102 42.6716 98.7181 41.4416 98.1022 39.9776C97.4671 38.4531 98.4212 37.3909 98.3442 35.4812C98.2232 32.5697 97.3434 31.7277 96.3509 29.2703C96.4718 29.2923 97.3654 29.84 97.4424 28.5576C99.4797 28.9814 100.929 29.4162 102.02 30.1812C103.323 31.092 104.118 32.4789 104.833 34.8758C104.97 35.3381 106.977 36.8185 107.288 37.1818C107.56 37.501 107.805 37.8477 108.03 38.2219C109.886 41.2324 110.343 45.6766 109.446 48.9925V48.987Z" fill="url(#paint1_linear_206_17036)"/>
<path d="M101.05 58.4372C98.8748 59.7415 96.7908 58.2941 95.0339 56.4889C94.0111 55.4432 93.101 54.2737 92.345 53.4564C91.6329 52.6832 90.9648 52.2952 90.2692 52.1301H90.2609C89.1611 51.8714 88.0091 52.1603 86.4942 52.3117C85.4632 52.419 83.5908 52.0392 82.6368 52.4245C81.9027 52.7217 81.3721 53.9105 80.4922 54.4636C78.5072 55.7294 74.6278 55.6304 72.2385 55.435C72.1478 55.4267 72.0653 55.4212 71.9828 55.413C71.5814 55.3827 71.1937 55.3221 70.8226 55.2451C70.7923 55.2451 70.7703 55.2368 70.7456 55.2286C70.7236 55.2203 70.7071 55.2203 70.6851 55.2148C70.6631 55.2066 70.6411 55.1983 70.6164 55.1983C69.2307 54.8956 67.9494 54.348 66.6462 53.8857C66.517 53.8389 66.3878 53.7866 66.253 53.7426C65.178 53.3794 64.0783 53.0822 62.874 53.0216H62.8658C62.8218 53.0134 62.775 53.0134 62.7283 53.0134C61.4718 52.9749 56.6659 52.7107 55.8108 54.0591C54.2491 55.5753 53.6195 56.3348 50.5594 56.8054C49.7868 56.9264 48.6651 56.6678 47.5351 56.2302C45.9432 55.6166 44.3457 54.6315 43.6859 53.8252C42.8281 52.7547 43.0343 50.5643 42.1847 49.2682C41.3214 47.9253 39.9109 47.0915 38.5995 46.5384C37.3402 46.0073 35.5229 46.0596 34.8245 44.9534C34.6513 44.6809 34.5523 44.3232 34.5001 43.9214C34.4919 43.8829 34.4919 43.8389 34.4836 43.7921C34.3626 42.6253 34.6513 41.1531 34.9318 40.3799C35.1902 39.6809 35.4926 39.1195 35.7566 38.5747C35.7566 38.5664 35.7648 38.5664 35.7648 38.5609C36.1827 37.7106 36.5292 36.9153 36.4769 35.6935V35.6853C36.4769 35.5862 36.4687 35.4872 36.4604 35.3826C36.2707 33.2747 35.5229 32.0474 36.7271 30.0221L36.7354 30.0083C36.9388 29.6671 37.1588 29.3782 37.387 29.1195C37.7499 28.7177 38.1376 28.415 38.5527 28.1866C40.1969 27.3005 42.2644 27.672 44.508 28.5141C46.5535 29.2571 48.7366 30.3881 50.8728 31.2741C53.9412 32.5565 56.9188 33.3435 59.253 31.8355C61.0869 30.644 61.7303 29.0204 64.1552 28.8471C64.4742 28.825 64.7684 28.8388 65.0571 28.8773C66.2613 29.0149 67.2786 29.5515 68.634 29.5433C72.8764 29.535 72.9534 26.7282 75.6368 24.59C76.6761 23.7645 77.8638 23.6269 79.0763 23.8773C80.4098 24.136 81.7597 24.8487 82.964 25.5834C83.6321 25.9934 84.2534 26.409 84.7896 26.7584C86.1835 27.6445 85.1992 28.2609 85.9498 29.2763C85.9801 29.3231 86.0268 29.3754 86.0708 29.4277C86.101 29.4662 86.1395 29.5047 86.1835 29.5488C86.5382 29.9203 87.0606 29.8817 87.6847 30.3826C88.4738 30.8366 89.3893 31.2934 90.0025 32.2015C91.3744 34.2406 91.8968 34.0507 91.1847 35.7128C90.4726 37.3749 91.0417 38.8361 91.7538 39.3149C92.3587 39.7167 93.7307 40.6881 94.33 41.9099V41.9181C94.4125 42.0915 94.4812 42.2759 94.528 42.4575C94.5362 42.4877 94.5445 42.518 94.55 42.5483V42.562C94.6957 43.2142 94.8304 43.9132 95.0504 44.747C95.3171 45.7321 95.8752 47.1438 96.5131 48.1455C96.6505 48.3573 96.7853 48.5472 96.931 48.7151C97.6816 49.6177 99.0535 49.9066 99.6749 50.7624C100.478 51.8851 100.607 53.3106 100.667 54.7525V54.769C100.706 55.922 100.706 57.0806 100.956 58.1152C100.986 58.2281 101.008 58.3354 101.047 58.4399L101.05 58.4372Z" fill="url(#paint2_linear_206_17036)"/>
<path opacity="0.35" d="M31.0771 54.7825C29.6831 54.8816 24.8552 60.1513 24.8552 60.1513C24.2558 60.9025 23.4612 67.5839 23.0516 68.2223C22.6419 68.8608 22.6721 69.0039 22.0123 69.7248C21.3442 70.4458 20.1564 69.7248 20.1564 69.7248C19.3673 66.4034 18.9577 62.9279 18.9577 59.3643C18.9577 54.023 19.821 48.9652 21.4212 44.3009C21.6796 43.5497 21.9518 42.8067 22.246 42.0775C23.6619 38.5662 25.5123 35.3053 27.7393 32.3553C28.4047 31.4665 29.1113 30.6107 29.8619 29.7852C29.2927 30.7703 27.8245 38.0075 27.8245 38.0075C26.9365 39.2073 25.6113 47.2976 25.6113 47.2976C29.9691 50.1127 31.0743 54.7825 31.0743 54.7825H31.0771Z" fill="#262740"/>
<path d="M30.3815 54.4942C27.7283 56.0654 24.5087 59.9482 24.5087 59.9482C24.0908 60.6307 23.8269 62.2157 23.5382 63.8998C22.3395 67.7909 21.0362 69.0044 20.4231 69.3759C20.2637 69.3759 20.0904 69.3704 19.9007 69.3704H19.8787C19.1364 69.3621 18.6745 68.0358 18.4848 67.3753C18.4243 67.1469 18.3941 67.0038 18.3941 67.0038C18.0531 65.5702 17.5995 63.82 17.1376 62.5377C16.9176 61.9295 16.6977 61.4287 16.4942 61.1122C14.5009 58.0935 14.2424 56.1287 14.2727 54.6648C14.2892 53.6934 14.4322 52.9421 14.2809 52.2597C14.1737 51.7754 13.962 51.0984 13.7585 50.3417C13.2362 48.4292 12.7275 45.9938 13.8493 44.7665C15.3725 43.1209 21.5779 34.5051 21.9738 33.9657C21.982 33.9492 21.9875 33.9437 21.9875 33.9437C22.2075 33.6547 22.3285 33.4896 22.3285 33.4896C23.9204 32.1935 26.7165 29.7885 28.3002 29.2354C28.5806 29.9783 29.0563 30.1379 29.3312 30.16C29.4522 30.1765 29.5347 30.16 29.5347 30.16C28.5889 31.7615 27.5413 37.8512 27.5413 37.8512C27.019 38.5805 26.5186 40.4297 26.1254 42.3119V42.3202C25.5865 44.8463 25.2318 47.4248 25.2318 47.4248C25.9357 47.8568 26.5571 48.3356 27.0877 48.8502C29.7409 51.3764 30.3842 54.4997 30.3842 54.4997L30.3815 54.4942Z" fill="url(#paint3_linear_206_17036)"/>
<path d="M27.0849 48.8447C29.7381 51.3709 30.3815 54.4942 30.3815 54.4942C27.7283 56.0655 24.5087 59.9483 24.5087 59.9483C24.0908 60.6307 23.8269 62.2157 23.5382 63.8998C22.3395 67.7909 21.0362 69.0044 20.4231 69.3759C20.2637 69.3759 20.0904 69.3704 19.9007 69.3704H19.8787C19.1364 69.3622 18.6745 68.0358 18.4848 67.3754C18.4243 67.147 18.3941 67.0039 18.3941 67.0039C18.0531 65.5702 17.5995 63.82 17.1376 62.5377C18.6223 61.2856 20.1922 59.5492 20.4341 57.6615C20.9125 53.9658 19.0182 54.0649 20.4341 52.0698C21.8143 50.1436 22.7464 51.1975 27.0877 48.8475L27.0849 48.8447Z" fill="url(#paint4_linear_206_17036)"/>
<path d="M34.4947 43.8396C34.4947 43.8396 34.4864 43.8312 34.4864 43.8256V43.7949C34.4864 43.8117 34.4947 43.8256 34.4947 43.8424V43.8396Z" fill="#AF640E"/>
<path d="M65.7169 53.5688C65.6784 53.5605 65.6427 53.5468 65.6042 53.5385V53.5303C65.6427 53.5385 65.6812 53.5523 65.7169 53.5688Z" fill="#AF640E"/>
<path d="M101.05 58.4367C97.6101 60.5005 94.396 55.6849 92.3422 53.4532C91.7208 52.779 91.1297 52.3992 90.5303 52.2094C89.3563 51.8214 88.1274 52.1406 86.4915 52.3084C86.3925 52.3167 86.288 52.3222 86.1808 52.3222H86.1643C85.2157 52.347 83.8383 52.1268 82.9365 52.3304L82.9282 52.3387C82.821 52.3552 82.722 52.3855 82.6313 52.424C81.8972 52.7212 81.3666 53.91 80.4867 54.4631C80.3053 54.5759 80.1073 54.6832 79.9039 54.774C77.7208 55.7454 74.1301 55.6078 71.9773 55.4125C71.5979 55.3822 71.2267 55.3299 70.8776 55.2529C70.8556 55.2529 70.8308 55.2446 70.8171 55.2446C70.8088 55.2363 70.8006 55.2363 70.7951 55.2363C70.7566 55.2281 70.7428 55.2281 70.7428 55.2281C70.7208 55.2198 70.7043 55.2198 70.6823 55.2143C70.6823 55.2143 70.7043 55.2143 70.7428 55.2226C70.7813 55.2226 70.8336 55.2308 70.9023 55.2308C71.9636 55.3134 76.6981 55.5886 79.3897 54.1301C79.7774 53.9265 80.1183 53.6816 80.407 53.3954C81.3308 52.4708 82.1116 52.069 82.832 51.9094C83.907 51.681 84.8776 51.992 86.0983 51.9562C86.3045 51.9562 86.5162 51.9397 86.7334 51.9094C88.2731 51.7113 89.5158 51.3481 90.6431 51.615C91.3029 51.7663 91.9243 52.1323 92.5457 52.8588C94.2201 54.8538 97.0547 57.9854 98.8281 58.3266C100.61 58.6678 100.753 58.3569 100.753 58.3569C100.753 58.3569 100.64 57.325 100.61 56.293V56.2765C100.601 55.8693 100.601 55.4675 100.632 55.1263V55.096C100.64 54.9584 100.648 54.8456 100.67 54.7713C100.709 55.9243 100.709 57.0828 100.959 58.1175C100.989 58.2303 101.011 58.3376 101.05 58.4422V58.4367Z" fill="#AF640E"/>
<path d="M99.1937 58.5309C97.3819 58.4098 95.1466 55.9882 95.1466 55.9882C91.5696 51.7724 91.4569 52.0669 90.6596 51.7724C90.6513 51.7724 90.6458 51.7642 90.6376 51.7642C89.8182 51.4532 86.9176 51.9926 86.1808 52.0586C86.1588 52.0586 86.1423 52.0669 86.1203 52.0586C85.3999 52.1274 84.6576 51.921 83.4616 51.9375C83.2499 51.9375 83.0464 51.9596 82.8567 51.9981C81.9852 52.188 81.4463 52.697 81.4463 52.697C80.6875 53.4785 80.0441 53.9546 79.5602 54.2435H79.5519C78.9223 54.615 78.5677 54.6756 78.5677 54.6756C75.5076 55.7598 71.6584 55.3498 70.8831 55.2507C70.8611 55.2507 70.8363 55.2425 70.8226 55.2425C70.8143 55.2342 70.8061 55.2342 70.8006 55.2342C70.7621 55.2259 70.7483 55.2259 70.7483 55.2259V55.2177C70.7868 55.2177 70.8391 55.2259 70.9078 55.2259C71.9608 55.2865 76.4864 55.3938 79.2055 54.0289C79.6894 53.7867 80.1211 53.4978 80.4648 53.1566C81.3501 52.2678 82.0924 51.8742 82.7908 51.7229C83.8823 51.4807 84.8528 51.8357 86.079 51.8302H86.0955C86.3073 51.8302 86.5354 51.8137 86.7691 51.7834C88.2621 51.5936 89.4966 51.2001 90.6101 51.3817C91.3139 51.5028 91.9738 51.844 92.6171 52.6117C94.2915 54.6068 96.832 57.7466 98.6026 58.0878C100.384 58.429 100.467 58.2722 100.467 58.2722C100.467 58.2722 100.324 55.7295 100.673 54.7664C100.651 54.8434 100.643 54.9563 100.634 55.0911V55.1214C100.596 56.1313 100.802 58.3602 100.802 58.3602C100.802 58.3602 101.006 58.6409 99.1965 58.5254L99.1937 58.5309Z" fill="#D38F00"/>
<path d="M58.8461 54.4912C58.8461 54.4912 54.0127 56.9981 54.9145 60.5067C54.9145 60.5067 55.1784 61.7395 53.625 62.5925C52.0716 63.4456 51.387 72.3889 55.2581 74.2216C59.1293 76.0543 63.9875 67.3311 63.9875 67.3311L58.8434 54.4912H58.8461Z" fill="#AF640E"/>
<path d="M90.4809 61.0569C90.3516 62.84 90.4726 64.6287 90.4369 66.4036C90.4066 67.8813 90.2691 69.3535 89.7853 70.8092C88.9824 73.1978 88.0339 74.0701 86.7554 75.9909C85.7024 77.5759 85.4439 79.2903 85.3395 81.0349C85.202 83.1428 85.279 85.281 84.4294 87.2237C84.2919 87.5264 84.1407 87.8374 83.9593 88.1483C82.777 90.2645 80.7617 92.4577 79.4722 94.428C78.9498 95.226 78.3422 95.9745 77.6604 96.6432C76.1454 98.1512 74.2648 99.2739 72.189 99.7362C72.0681 99.7665 71.9388 99.7967 71.8096 99.8187C70.7951 100 69.6486 100.259 68.7028 100.243C68.0512 100.234 67.4903 100.099 67.1411 99.7197C65.7691 98.264 66.7479 95.5342 67.1494 93.9712C67.9907 90.7323 69.2252 87.1302 68.4306 83.9904C68.1584 82.8814 67.6278 81.8357 66.7424 80.8808C66.2503 80.3415 65.53 79.8352 65.09 79.2215C65.0516 79.1747 65.0213 79.1307 64.9911 79.0839C64.4467 78.2336 64.5072 76.6403 63.6659 76.0267C62.1592 74.9122 58.8626 75.9881 57.0123 75.2369C56.6191 75.0773 56.2699 74.9122 55.9675 74.7196C53.7845 73.4152 53.6552 71.4669 53.625 68.7371C53.5948 65.9771 54.2629 64.9974 56.0967 62.1851C56.5586 61.4724 56.5146 60.5918 56.1352 59.8268C55.8685 59.2957 55.9318 58.583 56.1655 57.8483C56.5284 56.7255 57.3175 55.5725 57.9993 55.0414C58.2715 54.8295 58.5602 54.6479 58.8489 54.4966C59.1898 54.3149 59.5527 54.1718 59.9184 54.0563C59.9349 54.048 59.9486 54.0398 59.9734 54.0398C60.724 53.8196 61.5103 53.7288 62.3076 53.7426C63.1325 53.7508 63.9683 53.8636 64.7766 54.0535C66.5802 54.4635 68.3536 55.7294 70.0802 56.5026C70.7098 56.7916 71.3367 57.0034 71.9581 57.0943C74.4298 57.4575 78.0425 55.9275 80.4675 55.4487C81.5123 55.2423 82.6863 55.2148 83.7173 54.9781C84.3552 54.8323 85.9993 53.7178 86.5052 53.7866C87.6352 53.9297 89.1281 55.8422 89.7853 56.775C90.1344 57.2759 90.3599 57.6776 90.4973 58.0271C90.8603 58.9682 90.5963 59.5901 90.4809 61.0541V61.0569Z" fill="url(#paint5_linear_206_17036)"/>
<path d="M86.0763 29.4275C85.9471 29.3808 85.8701 29.3587 85.8701 29.3587C85.8701 29.3587 85.9003 29.3285 85.9526 29.2734C85.9828 29.3202 86.0295 29.3725 86.0735 29.4248L86.0763 29.4275Z" fill="#8DBB18"/>
<path d="M36.2487 23.9298L34.9263 22.3943C34.9263 22.3943 44.1863 16.3266 52.3905 15.0938C52.3905 15.0938 48.5826 19.2655 49.3332 21.6348C50.0838 24.0041 41.7475 22.5842 40.1364 23.0575C38.5252 23.5308 36.2487 23.9298 36.2487 23.9298Z" fill="#DDFAFA"/>
<path d="M65.6592 14.3123C65.6592 14.3123 75.3811 14.8021 78.8399 17.3448L77.7016 18.8528L71.3477 18.4813L68.8265 17.6282L65.6564 15.724V14.3096L65.6592 14.3123Z" fill="#DDFAFA"/>
<path d="M34.9263 22.3943L40.4636 21.954L48.5661 22.3943C48.5661 22.3943 48.2032 18.7371 49.3332 17.8153C50.4632 16.8962 52.3905 15.0938 52.3905 15.0938L52.8304 16.5632C52.8304 16.5632 50.9361 17.9199 50.6034 18.594C50.2707 19.2655 50.048 23.7619 50.048 23.7619H40.7523L36.2487 23.9298L34.9263 22.3943Z" fill="#ADD3FA"/>
<path d="M53.3418 16.1612C53.3418 16.1612 53.0284 17.1766 53.7047 18.1535L54.2079 19.1882C54.2079 19.1882 58.3017 18.06 58.8159 17.7022C59.3328 17.3445 61.8925 16.8794 62.6266 16.5327C63.3607 16.186 63.0362 15.3494 63.0362 15.3494L62.7778 14.5459L56.9298 14.6257L53.3391 16.1585L53.3418 16.1612Z" fill="#ADD3FA"/>
<path d="M53.8092 17.7072C53.8092 17.7072 59.9486 16.0176 61.5433 15.858C63.138 15.6984 62.7805 14.5481 62.7805 14.5481L57.2377 13.9785L53.9769 14.3225C53.9769 14.3225 52.6187 16.6478 53.8092 17.71V17.7072Z" fill="#DDFAFA"/>
<path d="M44.1148 25.4264L44.5877 26.7775C44.5877 26.7775 45.6957 27.5095 50.1992 27.4407C53.3473 27.3939 55.1949 27.5838 55.1949 27.5838L58.0378 25.8309L58.189 24.6807L52.5197 25.1925L44.1148 25.4292V25.4264Z" fill="#ADD3FA"/>
<path d="M44.1148 25.4267C44.1148 25.4267 51.6922 24.8956 54.2491 23.9297L58.189 24.6809C58.189 24.6809 55.2911 26.4724 54.6285 26.5659C53.9659 26.6622 51.1533 26.5659 51.1533 26.5659C51.1533 26.5659 45.253 27.1355 44.1148 25.4294V25.4267Z" fill="#DDFAFA"/>
<path d="M58.189 21.2575L58.0625 22.5123C58.0625 22.5123 58.2743 23.4039 61.5186 23.9295C64.7629 24.4551 64.7326 24.3367 64.7326 24.3367L69.7585 22.9856L71.29 20.5915V19.9229L63.9848 21.2079L58.1863 21.2547L58.189 21.2575Z" fill="#ADD3FA"/>
<path d="M58.189 21.2574C58.189 21.2574 66.1843 18.412 68.3618 18.6019C70.5394 18.7917 71.29 19.9255 71.29 19.9255L69.4974 22.1104L63.9848 23.2469C63.9848 23.2469 57.8646 23.057 58.1863 21.2574H58.189Z" fill="#DDFAFA"/>
<path d="M65.6592 14.3115L69.052 16.3974L71.7271 17.2725L78.8399 17.344L77.7043 18.852L71.3505 18.4833L68.8293 17.6302L65.6592 15.726V14.3115Z" fill="#ADD3FA"/>
<path d="M37.3677 24.8238L37.9204 25.7346C37.6482 25.8557 37.3815 25.985 37.1395 26.1281C34.4864 27.6526 32.8889 27.2289 32.8889 27.2289C32.2758 26.8188 31.7754 25.985 31.7149 25.8777L31.7067 25.8695L38.3383 23.4424L37.3677 24.8238Z" fill="#ADD3FA"/>
<path d="M38.3355 23.4451L37.365 24.8266C36.9333 24.9944 36.6144 25.1595 36.4714 25.2971C35.6246 26.1254 32.6387 26.973 31.7122 25.8805L31.7039 25.8722C31.7039 25.8722 32.8862 24.3395 34.4561 23.0269L38.7974 22.793L38.3355 23.4451Z" fill="#DDFAFA"/>
<path d="M37.9204 25.7346L38.8827 23.9295L38.8002 22.793L37.3677 24.8238L37.9204 25.7346Z" fill="#AFDDFA"/>
<path d="M44.4585 22.8535L44.3072 24.3477C44.3072 24.3477 41.1179 24.5294 38.5252 25.4925L38.0853 24.6119L38.1321 24.5431L38.9651 23.3378L44.4585 22.8535Z" fill="#ADD3FA"/>
<path d="M44.4585 22.8532C44.4585 22.8532 44.4447 22.8532 44.4145 22.8615C43.9746 22.9688 40.3536 23.8026 38.1321 24.5456L38.9652 23.3403L39.3666 22.7652L40.9887 22.6826L44.4585 22.856V22.8532Z" fill="#DDFAFA"/>
<path d="M29.5319 30.1572C28.5861 31.7588 27.5386 37.8485 27.5386 37.8485C27.0162 38.5777 26.5158 40.427 26.1226 42.3092V42.3174C26.0457 42.3477 25.9797 42.3862 25.9247 42.4165C24.8854 43.0687 22.5292 43.919 21.1957 46.5717C19.8705 49.2272 18.3528 50.8343 17.3988 52.0698C16.7692 52.8954 15.3147 54.0099 14.2699 54.6648C14.2864 53.6934 14.4294 52.9422 14.2782 52.2597C14.171 51.7754 13.9593 51.0984 13.7558 50.3417C13.7558 50.3417 20.1509 43.9025 20.7201 40.6416C21.2892 37.3807 21.2369 36.9019 22.4934 36.0461C23.7499 35.1958 24.7892 33.1347 27.5413 31.2139C28.0252 30.881 28.6411 30.5232 29.3285 30.16C29.4494 30.1765 29.5319 30.16 29.5319 30.16V30.1572Z" fill="url(#paint6_linear_206_17036)"/>
<path d="M44.5135 28.5117C44.4832 28.5337 44.4667 28.5502 44.4612 28.5585C44.1203 28.9382 41.0904 31.4039 40.8018 32.7302C40.5131 34.0566 40.2106 35.1958 38.3383 35.2866C37.6564 35.3169 37.0268 35.4518 36.4824 35.6884C36.4824 35.5893 36.4742 35.4903 36.4659 35.3857C36.2762 33.2778 35.5284 32.0505 36.7326 30.0252L36.7409 30.0114C36.9443 29.6702 37.1643 29.3813 37.3925 29.1226C37.7554 28.7208 38.1431 28.4181 38.5582 28.1897C40.2024 27.3037 42.2699 27.6752 44.5135 28.5172V28.5117Z" fill="url(#paint7_linear_206_17036)"/>
<path d="M65.0626 28.8746C63.9793 30.3303 63.0912 31.5741 62.8108 32.0969C61.9255 33.7673 61.3481 35.1019 60.7872 38.5582C60.2126 42.0172 57.6941 43.0629 53.3171 45.8092C48.9455 48.5555 49.05 46.8934 49.3304 50.3386C49.5201 52.741 48.9813 55.0029 47.5351 56.2303C45.9432 55.6166 44.3457 54.6315 43.6859 53.8252C42.8281 52.7547 43.0343 50.5643 42.1847 49.2682C41.3214 47.9253 39.9109 47.0915 38.5995 46.5384C37.3402 46.0073 35.5229 46.0596 34.8245 44.9534C34.6513 44.6809 34.5523 44.3232 34.5001 43.9214C36.0013 42.8592 37.2275 42.0475 38.0826 41.8356C40.0374 41.3513 38.1431 44.1251 42.4019 42.0777C46.669 40.0304 47.3344 40.5009 47.5708 37.5565C47.8045 34.6203 47.3289 34.6203 48.9428 33.2032C49.4816 32.7244 50.1772 32.0116 50.8756 31.2687C53.9439 32.551 56.9216 33.338 59.2558 31.83C61.0897 30.6385 61.733 29.0149 64.158 28.8416C64.4769 28.8195 64.7711 28.8333 65.0598 28.8718L65.0626 28.8746Z" fill="url(#paint8_linear_206_17036)"/>
<path d="M64.7684 54.0562C66.572 54.4663 68.3454 55.7321 70.072 56.5054C68.942 57.0364 67.526 57.7492 65.6014 59.0838C60.1219 62.8758 62.3956 70.2699 56.5229 74.3425C56.3414 74.4719 56.1517 74.6012 55.962 74.7223C53.779 73.4179 53.6498 71.4697 53.6195 68.7399C53.5893 65.9798 54.2574 65.0002 56.0912 62.1878C56.5531 61.4751 56.5091 60.5945 56.1297 59.8295C55.863 59.2984 55.9263 58.5857 56.16 57.851C59.1678 56.5686 61.0704 55.1515 62.2994 53.748C63.1242 53.7563 63.96 53.8691 64.7684 54.059V54.0562Z" fill="url(#paint9_linear_206_17036)"/>
<path d="M84.6604 32.0964C84.2809 38.4145 77.6439 40.7288 75.6588 43.8384C73.6737 46.9479 77.1737 48.9044 74.8092 52.7129C73.9074 54.1686 73.1431 54.8896 72.2413 55.4344C72.1505 55.4262 72.0681 55.4207 71.9856 55.4124C71.5842 55.3822 71.1965 55.3216 70.8253 55.2446C70.7951 55.2446 70.7731 55.2363 70.7483 55.2281C70.7263 55.2198 70.7098 55.2198 70.6878 55.2143C70.6659 55.206 70.6439 55.1978 70.6191 55.1978C69.2334 54.8951 67.9522 54.3475 66.649 53.8852C66.5197 53.8384 66.3905 53.7861 66.2558 53.7421C65.1808 53.3789 64.081 53.0817 62.8768 53.0211C64.0425 51.4141 64.4219 49.8675 64.6804 48.5852C65.2413 45.8086 64.8921 45.4454 70.7511 41.835C76.6073 38.2247 82.0127 29.9885 80.7754 27.2808C80.2008 26.0067 79.5794 24.8014 79.0846 23.874C80.418 24.1327 81.768 24.8454 82.9722 25.5801C83.973 27.1046 84.8281 29.2676 84.6631 32.0937L84.6604 32.0964Z" fill="url(#paint10_linear_206_17036)"/>
<path d="M90.4809 61.0565C90.3516 62.8396 90.4726 64.6283 90.4369 66.4032C89.1776 67.4131 87.5033 68.4203 85.268 69.3752C77.8941 72.5315 71.8784 78.5001 68.4306 83.9927C68.1584 82.8838 67.6278 81.8381 66.7425 80.8832C66.2503 80.3438 65.53 79.8375 65.0901 79.2239C70.083 72.9222 75.5021 66.6949 81.2538 64.6696C87.473 62.4764 89.7413 60.0961 90.4974 58.0322C90.8603 58.9733 90.5963 59.5953 90.4809 61.0592V61.0565Z" fill="url(#paint11_linear_206_17036)"/>
<path d="M95.1713 51.3403C95.1713 53.129 95.2318 54.8434 95.0339 56.4889C94.0111 55.4433 93.101 54.2737 92.3449 53.4565C91.6328 52.6832 90.9647 52.2952 90.2691 52.1301H90.2609C89.722 50.9165 88.9962 49.8764 90.3819 48.0271C92.3285 45.4322 91.8665 45.1818 93.9424 42.4135C94.0798 42.2319 94.209 42.064 94.3355 41.9209C94.418 42.0943 94.4867 42.2786 94.5335 42.4603C94.5417 42.4905 94.55 42.5208 94.5555 42.5511V42.5648C94.7012 43.217 94.8359 43.916 95.0559 44.7498C95.3226 45.7349 95.8807 47.1466 96.5186 48.1482C95.7982 49.1334 95.1686 50.2946 95.1686 51.3403H95.1713Z" fill="url(#paint12_linear_206_17036)"/>
<path d="M101.511 35.1014C102.413 38.5357 101.215 41.6755 100.101 43.6568C99.2075 42.6716 98.7153 41.4416 98.0995 39.9776C97.4644 38.4531 98.4184 37.3909 98.3414 35.4812C98.2204 32.5697 97.3406 31.7277 96.3481 29.2703C96.4691 29.2923 97.3626 29.84 97.4396 28.5576C99.4769 28.9814 100.926 29.4162 102.017 30.1812C101.327 31.3782 100.956 32.988 101.509 35.1042L101.511 35.1014Z" fill="url(#paint13_linear_206_17036)"/>
<path d="M96.3564 29.2684L97.4451 28.5557C97.4451 28.5557 99.8124 31.4946 99.7189 35.1435C99.6227 38.7924 99.1992 39.4583 99.1992 39.4583L103.651 44.1501L109.287 52.0671L108.198 52.7137L102.419 46.7561C102.419 46.7561 98.1572 41.1121 97.0657 40.7847C97.0657 40.7847 97.4534 34.2767 97.4754 33.8969C97.6018 31.8276 96.3564 29.2684 96.3564 29.2684Z" fill="#AF640E"/>
<path d="M95.2181 38.0684C95.2181 38.0684 94.1926 38.4481 93.9726 38.638C93.7527 38.8279 94.9212 42.2731 95.5205 43.0299C96.1199 43.7894 96.5323 45.2753 96.3591 45.9688C96.1831 46.665 96.2876 48.2748 98.6191 48.8141C100.951 49.3508 101.993 49.2875 101.993 49.2875L102.529 48.517L97.951 43.8224L95.2181 38.0684Z" fill="#AF640E"/>
<path d="M102.529 48.5194C102.529 48.5194 101.261 48.5662 100.544 48.5882C99.8151 48.6184 98.0417 47.7296 97.7475 47.2673C97.6486 47.1242 97.6348 46.9563 97.6568 46.7747C97.6733 46.3867 97.808 45.9189 97.4891 45.3493C97.0107 44.5072 95.9659 42.5892 95.7157 41.7637C95.6333 41.4913 95.5095 41.128 95.3968 40.7703C95.1466 40.0658 94.8964 39.3751 94.8964 39.3751C94.2146 37.9112 95.5013 37.9882 96.0484 38.079C96.1859 38.101 96.2766 38.1258 96.2766 38.1258C96.2766 38.1258 97.1262 38.8165 97.5881 39.4687C98.0582 40.1126 98.4899 40.7345 98.7841 41.8875C99.081 43.0488 98.8281 43.2442 99.4742 44.4274C99.4962 44.466 99.5209 44.5127 99.5567 44.5568C100.277 45.8006 102.529 48.5249 102.529 48.5249V48.5194Z" fill="url(#paint14_linear_206_17036)"/>
<path d="M99.5567 44.5513C99.026 45.3549 98.6164 45.8117 98.6164 45.8117C98.6164 45.8117 98.2012 46.1832 97.6541 46.7748C97.6706 46.3868 97.8053 45.919 97.4863 45.3494C97.008 44.5073 95.9632 42.5893 95.713 41.7638C95.6305 41.4913 95.5068 41.1281 95.394 40.7704C96.1666 40.0054 96.3948 39.7549 96.0457 38.0791C96.1831 38.1011 96.2739 38.1259 96.2739 38.1259C96.2739 38.1259 97.1234 38.8166 97.5853 39.4688C98.0555 40.1127 98.4871 40.7346 98.7813 41.8876C99.0783 43.0489 98.8253 43.2442 99.4714 44.4275C99.4934 44.466 99.5182 44.5128 99.5539 44.5568L99.5567 44.5513Z" fill="url(#paint15_linear_206_17036)"/>
<path d="M35.7676 38.5603C36.224 37.644 36.5869 36.7772 36.4632 35.382C36.2735 33.2741 35.5256 32.0468 36.7299 30.0215C36.6914 30.104 36.2707 31.513 36.5209 32.8558C36.7931 34.3281 36.9691 37.0578 35.7676 38.5603Z" fill="#AF640E"/>
<path d="M65.6014 53.5309C65.1175 53.3878 64.6171 53.2585 64.1085 53.1677H64.1003C63.6604 53.0851 63.1985 53.0301 62.7283 53.0163C61.4718 52.9778 56.6659 52.7136 55.8108 54.062C54.2491 55.5782 53.6195 56.3377 50.5594 56.8083C50.3944 56.8303 50.2185 56.8386 50.0205 56.8303C48.0272 56.7698 44.7087 55.0857 43.6859 53.8281C42.9353 52.887 42.9958 51.09 42.4569 49.7857C42.3744 49.6041 42.2919 49.428 42.1847 49.2683C41.3214 47.9255 39.9109 47.0917 38.5995 46.5386C37.3402 46.0075 35.5229 46.0597 34.8245 44.9535C34.6568 44.6811 34.5523 44.3316 34.5056 43.9381C34.4974 43.9078 34.4919 43.8858 34.4919 43.8638V43.8418C34.4919 43.8418 34.5001 43.8556 34.5001 43.8638C34.6128 44.4169 35.0912 45.4929 37.0681 45.7213C40.1886 46.0845 42.1215 47.5953 42.8281 49.4912C42.9188 49.7334 42.9875 49.9838 43.0398 50.2342C43.4797 52.4797 44.4282 54.5656 47.8375 55.5425C48.6871 55.7846 49.4734 55.8837 50.1855 55.8617C52.33 55.8314 53.845 54.8297 54.755 54.0647C55.951 53.0493 58.5135 52.3201 62.4534 52.8292C62.5056 52.8374 62.5578 52.8429 62.6128 52.8595C62.7201 52.876 62.8163 52.8815 62.9098 52.898C62.94 52.9062 62.9703 52.9145 62.9922 52.9145C63.1682 52.9365 63.3332 52.9668 63.4926 52.997C63.7263 53.0411 63.9023 53.0796 64.015 53.1044C64.0838 53.1209 64.1195 53.1346 64.1442 53.1346C64.1607 53.1429 64.1662 53.1429 64.1662 53.1429C64.6804 53.2557 65.1588 53.3933 65.5987 53.5364L65.6014 53.5309Z" fill="#AF640E"/>
<path d="M64.1772 53.1289L64.169 53.1371C64.169 53.1371 64.1607 53.1371 64.147 53.1289C64.125 53.1289 64.0865 53.1151 64.0178 53.0986C63.905 53.0766 63.7291 53.0381 63.4954 52.9913C63.3359 52.961 63.171 52.9307 62.995 52.9087C62.973 52.9087 62.9428 52.9005 62.9125 52.8922C62.8218 52.8757 62.7228 52.8702 62.6156 52.8537C61.7688 52.7464 60.6003 52.6556 59.2365 52.6941C56.3029 52.7931 54.3866 54.4387 53.2731 55.1597C52.341 55.7651 51.5767 56.054 50.213 56.0705C49.9463 56.087 49.6521 56.0788 49.3332 56.0623C47.4003 55.9715 43.4522 53.8333 43.257 51.7392C43.18 50.9577 42.9463 50.223 42.6878 49.6011C42.5284 49.213 42.3552 48.8801 42.204 48.6076C41.9015 48.0766 41.5056 47.5977 41.008 47.2565C39.1054 45.9356 36.6117 45.8999 35.7098 45.4816C34.885 45.0963 34.5963 44.2598 34.5111 43.9351C34.5029 43.9048 34.4974 43.8828 34.4974 43.8608C34.4891 43.8443 34.4891 43.8305 34.4891 43.8223C34.4891 43.8223 34.4919 43.8269 34.4974 43.836C34.4974 43.836 34.5056 43.8498 34.5056 43.858C34.6183 44.0919 35.1187 44.8735 35.9765 45.2917C36.8316 45.7017 39.4765 45.7155 41.3626 47.0061C41.885 47.3556 42.2809 47.8564 42.5834 48.4095C42.7208 48.6654 42.8776 48.9791 43.0233 49.3341C43.279 49.9643 43.5072 50.721 43.5842 51.5191C43.7739 53.6132 47.5323 55.578 49.3882 55.6688C49.6686 55.6825 49.9325 55.6908 50.1607 55.6825C51.4805 55.6688 52.1376 55.4019 53.0559 54.7799C54.1254 54.059 56.1187 52.573 58.9286 52.4739C61.7385 52.3831 64.18 53.1261 64.18 53.1261L64.1772 53.1289Z" fill="#D38F00"/>
<path d="M28.2727 29.2987V29.3152L27.2801 34.5023L26.5296 37.3614L25.3556 41.8359L24.5087 47.4495L24.6297 47.6229L27.1839 51.2635L27.1537 53.5475L27.1152 56.0819L24.0991 59.175L23.8571 60.0693L22.9031 63.5118L22.3807 67.0011L21.4926 68.3137L20.764 69.3676V69.3732H20.4231C20.2636 69.3732 20.0904 69.3676 19.9007 69.3676L19.9172 69.3594L19.9475 69.3346C20.0464 69.2686 20.2499 69.1007 20.4864 68.7953C20.918 68.2504 21.4349 67.2543 21.5009 65.6472C21.6219 62.8486 21.2892 60.8068 21.6686 59.7143C21.6686 59.7143 21.7071 59.6153 21.7813 59.4502C21.8281 59.3126 21.8858 59.175 21.9628 59.0401C21.9848 58.9879 22.0095 58.9328 22.037 58.8723C22.0453 58.8585 22.0535 58.842 22.059 58.8282C22.5209 57.9779 23.2248 57.0368 24.0606 56.0764C25.1961 54.7638 25.9989 52.9889 25.9989 52.9889C25.9989 52.9889 25.4298 49.1529 23.2798 48.2503L22.9471 48.0164C22.9471 48.0164 23.0378 41.9267 24.1293 39.5299C24.7122 38.2393 25.0916 37.4522 25.3721 36.8138C25.6223 36.269 25.8037 35.8287 26.0017 35.2811C26.3948 34.1804 28.0555 29.8655 28.2754 29.2959L28.2727 29.2987Z" fill="#D38F00"/>
<path d="M30.3815 54.4938C27.7283 56.0651 24.5087 59.9479 24.5087 59.9479C24.4702 60.0084 24.4318 60.0772 24.4015 60.1515C24.0441 60.911 23.8021 62.3667 23.5382 63.8995C23.266 65.5313 22.9691 67.2677 22.4934 68.3519C22.334 68.7179 22.1442 68.982 21.9408 69.1774H21.9325C21.6384 69.315 21.2727 69.3618 20.7668 69.3673C20.6981 69.3728 20.6238 69.3728 20.5468 69.3728H20.4259C20.2664 69.3728 20.0932 69.3673 19.9035 69.3673L19.92 69.359C20.2994 69.1829 20.7228 68.8582 21.0637 68.2363C21.1765 68.0382 21.2754 67.8098 21.3662 67.5539C22.07 65.512 22.0095 61.4118 22.3504 59.824C22.3807 59.6809 22.4192 59.5571 22.4577 59.4608C22.4577 59.4608 22.9966 57.8978 23.7526 57.163C24.5115 56.4283 26.3151 53.3023 26.3151 53.3023C26.3151 53.3023 26.3151 49.3589 23.5107 47.917C23.497 47.9087 23.4805 47.9005 23.4667 47.895C23.4667 47.895 23.9451 41.0705 25.3611 37.9362C25.4985 37.6418 25.6332 37.3225 25.7625 36.9951C26.6038 34.923 27.4231 32.2785 27.8933 30.6687C28.0912 30.0027 28.2259 29.5074 28.2809 29.312V29.2955C28.2892 29.2735 28.2974 29.257 28.2974 29.2515L28.3057 29.2295L29.5402 30.1541C28.5944 31.7556 27.5468 37.8454 27.5468 37.8454C26.3178 39.5515 25.2346 47.4162 25.2346 47.4162C29.4549 49.9808 30.387 54.491 30.387 54.491L30.3815 54.4938Z" fill="#AF640E"/>
<path opacity="0.35" d="M30.3815 54.4939C27.7283 56.0652 24.5087 59.9479 24.5087 59.9479C24.4702 60.0085 24.4318 60.0773 24.4015 60.1516L23.8571 60.069L22.3504 59.8269L21.6686 59.7195C21.6686 59.7195 21.7071 59.6205 21.7813 59.4554C21.8336 59.3481 21.894 59.2132 21.9628 59.0454C21.9848 58.9931 22.0095 58.938 22.037 58.8775C22.0453 58.8637 22.0535 58.8472 22.059 58.8335C22.5209 57.9832 23.2248 57.042 24.0606 56.0817C25.1961 54.7691 25.9989 52.9941 25.9989 52.9941L26.3096 53.3051L27.1509 53.5473L30.3787 54.4939H30.3815Z" fill="#262740"/>
<path opacity="0.35" d="M27.5386 37.8454C26.3096 39.5515 25.2263 47.4162 25.2263 47.4162C25.2263 47.4162 24.9844 47.507 24.627 47.6198C24.3163 47.7189 23.9066 47.8317 23.5052 47.917C23.3155 47.961 23.1258 47.9913 22.9443 48.0161C22.9443 48.0161 23.0351 41.9263 24.1266 39.5295C24.7094 38.2389 25.0889 37.4519 25.3693 36.8135H25.3776L25.757 36.9951L26.5296 37.3583L27.5386 37.8427V37.8454Z" fill="#262740"/>
<path d="M91.8968 25.3632C91.7593 25.2641 91.6384 25.165 91.5256 25.0742C91.7758 25.2558 92.0178 25.4457 92.2597 25.6356C92.1387 25.5448 92.0178 25.454 91.8968 25.3632Z" fill="#166AB2"/>
<path d="M59.3658 38.6572C52.682 45.9908 45.3988 52.7712 37.6097 58.9077C36.246 59.9837 34.8658 61.0404 33.4883 62.0861C31.8057 63.3767 30.123 64.6645 28.4102 65.9083C24.341 68.8665 20.1124 71.6046 15.7766 74.1527C14.6109 74.8352 13.3984 75.5176 12.0649 75.6855C10.7232 75.8533 9.21652 75.3828 8.54016 74.2078C5.94747 75.292 3.09908 75.7543 0.29468 75.5479C0.264436 75.4956 0.234193 75.4488 0.217696 75.3965C-0.480654 74.0014 0.610862 72.7631 1.68863 72.8181C1.68863 72.8181 1.68588 72.8126 1.68038 72.8016C1.02052 70.9524 1.5814 68.85 2.80214 68.2061C2.96986 68.1153 3.15132 68.0547 3.34653 68.0245C3.14857 67.8428 2.9891 67.6447 2.86263 67.4411C2.34024 66.577 2.46946 65.6304 3.20356 65.4158C3.45375 65.3249 3.77268 65.3305 4.16585 65.4598H4.17135C4.27033 65.4901 4.36931 65.5286 4.47378 65.5754C3.66271 64.2325 3.43451 61.6926 4.33082 60.6001C4.71023 60.1295 5.16389 59.6205 5.71102 59.2792L5.71927 59.271C6.26365 58.9298 6.90701 58.7564 7.68235 58.9463C7.68235 58.4537 7.37166 58.0217 7.17371 57.5649C5.89248 54.6067 11.3501 52.3777 14.2754 52.2566C14.2754 52.2566 14.2974 52.4685 14.3277 52.8345C14.4019 53.6903 14.5339 55.3662 14.5394 57.0118C13.5991 57.6282 12.7495 59.1884 12.5928 60.3194C12.5845 60.3414 12.5763 60.3634 12.5763 60.3882C13.1894 60.38 13.8135 60.3717 14.4267 60.3634C14.8666 59.2627 16.5107 58.9077 17.3658 59.7278C18.548 57.7933 21.3057 57.741 23.541 58.129C25.768 58.5142 28.3057 59.0316 30.0955 57.6447C31.3218 56.6953 31.8689 55.036 33.1419 54.1416C34.1042 53.4592 35.3332 53.3161 36.4907 53.0712C39.6497 52.4107 42.7566 50.6523 44.2275 47.7767C44.5904 47.0722 44.8571 46.3045 45.4015 45.7349C46.2346 44.8791 47.5076 44.6644 48.6678 44.4085C52.1293 43.6435 55.4039 42.0337 58.134 39.7662C58.5574 39.4112 58.9671 39.0452 59.363 38.66L59.3658 38.6572Z" fill="#FAFAFA"/>
<path opacity="0.26" d="M59.3658 38.6572C52.682 45.9908 45.3988 52.7712 37.6097 58.9077C36.246 59.9837 34.8658 61.0404 33.4883 62.0861C31.8057 63.3767 30.123 64.6645 28.4102 65.9083C24.341 68.8665 20.1124 71.6046 15.7766 74.1527C14.6109 74.8352 13.3984 75.5176 12.0649 75.6855C10.7232 75.8533 9.21652 75.3828 8.54016 74.2078C5.94747 75.292 3.09908 75.7543 0.294681 75.5479C0.264437 75.4956 0.234194 75.4488 0.217697 75.3965C0.649355 75.2149 1.24873 75.1681 1.6199 75.0636C4.60576 74.2601 7.51463 73.1758 10.297 71.8109C9.59319 72.2127 9.79664 73.396 10.4867 73.8198C11.1768 74.2435 12.0622 74.1225 12.8512 73.9106C15.4494 73.2199 17.8387 71.7339 19.612 69.6921C22.8701 69.1747 25.8862 67.2567 27.7421 64.5187C32.7652 61.9622 37.123 58.2776 41.4204 54.6204C43.4742 52.8758 45.528 51.1312 47.5818 49.3948C51.211 46.3155 54.865 43.2142 58.1395 39.7635C58.563 39.4085 58.9726 39.0425 59.3685 38.6572H59.3658Z" fill="#166AB2"/>
<path d="M114.434 31.1639C113.493 34.2872 112.306 37.3445 110.692 40.1733C110.048 41.3181 109.336 42.4188 108.547 43.4645C104.28 49.1304 98.006 52.9059 93.0351 57.9582C92.6859 58.3242 92.3312 58.7012 92.1855 59.18C92.026 59.7194 92.147 60.289 92.125 60.8476C92.0783 62.0391 91.3744 63.0931 90.6788 64.0645C88.9742 66.4228 87.1403 68.6903 85.1992 70.8752C85.0315 71.0816 84.8501 71.2769 84.6686 71.4833C84.9875 71.0348 85.2982 70.589 85.5924 70.1239C87.4345 67.2125 88.6827 63.8141 88.4793 60.3716C88.4188 59.3561 88.2373 58.2994 88.5783 57.3391C88.7762 56.7997 89.1172 56.3209 89.4581 55.8669C90.8685 53.9626 92.2762 52.0584 93.6784 50.1624C94.1018 49.5872 94.5417 48.9873 94.671 48.2801C94.7782 47.727 94.6792 47.1574 94.7232 46.596C94.8442 45.1926 95.9659 43.935 97.3461 43.6544C95.6937 42.0611 95.3226 39.3093 96.4828 37.328C94.286 37.0253 95.801 31.9042 98.3772 32.504C98.2397 30.132 101.575 31.2465 103.167 30.6163C102.705 29.1524 103.076 27.4682 104.06 26.2932C104.198 26.1336 104.341 25.9823 104.5 25.8392C103.153 25.2173 102.312 23.6377 102.545 22.1683C101.135 21.5849 99.5759 22.3279 98.127 22.8287C97.3159 23.1094 94.2696 24.4055 91.6714 25.0879C90.9593 24.5266 90.2554 24.034 89.6478 23.6377C89.2849 23.4038 88.9494 23.1975 88.6855 23.0406C90.9813 20.8392 96.612 17.4049 97.7173 16.7692C98.3002 16.4418 98.982 16.1253 99.6199 16.329C100.074 16.4803 100.414 16.8683 100.863 17.0334C101.657 17.3224 102.507 16.8353 103.326 16.6399C105.069 16.2244 107.041 17.2701 107.662 18.9459C108.327 18.6185 108.913 18.1121 109.633 17.9057C110.384 17.6856 111.14 17.859 111.794 18.2607C112.589 18.7615 113.227 19.6119 113.491 20.5282C113.961 22.1958 113.543 23.9707 113.12 25.6466C114.12 25.9658 114.75 27.0114 114.885 28.0571C115.014 29.0973 114.733 30.1513 114.436 31.1584L114.434 31.1639Z" fill="#FAFAFA"/>
<path d="M75.6808 8.45053C74.702 11.7637 72.8709 14.8292 70.3992 17.2563C70.1875 17.4682 69.9373 17.6883 69.6348 17.6883C69.3324 17.6966 69.0272 17.3389 69.2114 17.0884C67.581 18.6432 65.9534 20.2062 64.323 21.7693C63.9298 22.149 63.4981 22.7104 63.7621 23.1947C63.9051 23.4451 64.202 23.5744 64.3367 23.8249C64.5952 24.2954 64.1855 24.8403 63.8061 25.2118C57.9251 31.0153 51.0516 35.8007 43.5732 39.2872C43.1635 39.4771 42.7538 39.667 42.3442 39.8486C44.8681 37.9058 47.3454 35.8888 49.7621 33.8111C51.0873 32.6719 52.4153 31.4969 53.4078 30.0632C54.5681 28.3956 55.2554 26.4088 56.6054 24.8843C57.1498 24.2624 57.8179 23.701 58.0983 22.9195C57.279 22.6773 57.1718 22.1463 57.18 21.2519C57.1965 20.3631 60.1191 18.8551 63.105 15.8446C65.0158 13.9266 65.9314 12.537 67.1219 10.5722C67.1219 10.5639 67.1219 10.5557 67.1301 10.5557C67.4106 10.0713 67.7212 9.554 68.0539 8.97887C68.6753 7.92493 69.2582 6.59031 68.6285 5.55013C65.8846 1.0069 59.9212 9.21278 59.2173 11.9811C59.2008 12.0196 59.1953 12.0499 59.1871 12.0857C59.1953 12.0416 59.2036 11.9949 59.2091 11.9426C59.2696 11.5793 59.352 11.1913 59.4675 10.7978C59.4675 10.7896 59.4758 10.7813 59.4758 10.7758C60.515 7.09664 63.6439 2.2287 66.5307 0.712458C68.1529 -0.137849 70.3799 -0.267184 72.0323 0.530839C73.7452 1.35638 74.8285 3.16982 73.9487 6.18029C73.6517 7.18195 74.6388 8.59362 75.6753 8.44778L75.6808 8.45053Z" fill="#FAFAFA"/>
<path opacity="0.26" d="M75.6808 8.45076C74.702 11.7639 72.8709 14.8294 70.3992 17.2565C70.1874 17.4684 69.9373 17.6886 69.6348 17.6886C69.3324 17.6968 69.0272 17.3391 69.2114 17.0887C67.581 18.6434 65.9534 20.2065 64.323 21.7695C63.9298 22.1492 63.4981 22.7106 63.7621 23.1949C63.905 23.4453 64.202 23.5747 64.3367 23.8251C64.5951 24.2956 64.1855 24.8405 63.8061 25.212C57.9251 31.0155 51.0515 35.8009 43.5732 39.2875C44.453 38.7123 45.3465 38.1647 46.2181 37.5896C48.4534 36.1036 50.6446 34.5406 52.7809 32.917C54.0099 31.9842 55.2197 31.0293 56.4184 30.0579C58.3897 28.4509 60.3198 26.775 62.0794 24.9368C62.3764 24.6341 62.6788 24.2846 62.7091 23.8664C62.731 23.4426 62.3159 22.9858 61.9227 23.1536C63.9655 21.0403 66.1596 18.5884 68.2959 16.2274C69.2581 15.1652 70.4267 14.3176 71.4109 13.2857C72.4035 12.262 73.2365 10.9714 73.2888 9.53772C72.7801 9.50745 72.266 9.67531 71.8728 10C72.2962 9.55974 72.7362 9.08092 72.8571 8.49204C72.9863 7.89214 72.6454 7.15741 72.0378 7.09687C72.6427 5.99065 73.1596 4.79086 73.1981 3.52503C73.2365 2.42431 72.8489 1.25755 72.0378 0.52832C73.7507 1.35386 74.834 3.1673 73.9541 6.17777C73.6572 7.17943 74.6442 8.5911 75.6808 8.44526V8.45076Z" fill="#166AB2"/>
<path opacity="0.26" d="M69.0712 7.57791C68.5323 8.57957 67.9109 9.53444 67.2236 10.437C67.1933 10.4756 67.1631 10.5196 67.1328 10.5581C67.4133 10.0738 67.724 9.55646 68.0566 8.98133C68.678 7.92739 69.2609 6.59277 68.6313 5.55259C65.8874 1.00936 59.9239 9.21523 59.22 11.9835C59.2118 11.967 59.2118 11.9615 59.2118 11.945C59.2035 11.5955 59.3245 11.1635 59.4702 10.8003C59.4702 10.792 59.4785 10.7838 59.4785 10.7783C59.5555 10.5746 59.638 10.3903 59.7067 10.2472C60.8504 7.75128 62.4121 5.45352 64.29 3.45846C64.6309 3.09523 64.9883 2.73749 65.3952 2.45681C66.0386 2.01652 66.8359 1.75785 67.6002 1.89544C68.3728 2.03028 69.0794 2.61641 69.2306 3.37316C69.2526 3.50249 69.2691 3.64008 69.3049 3.76116C69.3571 3.93728 69.4726 4.08037 69.5551 4.23998C70.1077 5.2719 69.6293 6.54599 69.0684 7.57791H69.0712Z" fill="#166AB2"/>
<path opacity="0.26" d="M104.06 26.2959C104.198 26.1363 104.341 25.9849 104.5 25.8418C103.153 25.2199 102.312 23.6404 102.545 22.1709C101.135 21.5875 99.5759 22.3305 98.127 22.8314C97.3159 23.112 94.2695 24.4081 91.6714 25.0906C90.9593 24.5292 90.2554 24.0366 89.6478 23.6404C89.6698 23.5661 89.7 23.4973 89.7385 23.4285C90.2829 22.3828 91.6768 21.8957 92.6776 21.4114C93.9204 20.8198 95.1933 20.2969 96.5048 19.8704C97.9895 19.3999 99.5209 19.0586 101.066 18.9293C102.006 18.8467 102.999 18.8467 103.832 19.2788C103.211 20.3492 102.581 21.6756 103.172 22.7681C103.461 23.3074 104.005 23.6624 104.552 23.9293C105.273 24.2788 106.054 24.5127 106.848 24.62C105.963 25.2337 105.036 25.8556 104.06 26.2959Z" fill="#166AB2"/>
<path opacity="0.26" d="M114.434 31.1641C113.493 34.2874 112.306 37.3447 110.692 40.1735C110.048 41.3183 109.336 42.419 108.547 43.4647C104.28 49.1306 98.006 52.9061 93.0351 57.9584C92.6859 58.3244 92.3312 58.7014 92.1855 59.1802C92.026 59.7196 92.147 60.2892 92.125 60.8478C92.0783 62.0394 91.3744 63.0933 90.6788 64.0647C88.9742 66.423 87.1403 68.6905 85.1992 70.8754C85.5622 70.1847 86.2688 69.5022 86.7142 68.8583C87.2668 68.0603 87.7837 67.243 88.2593 66.401C89.2079 64.7169 90.0025 62.9419 90.6238 61.1065C90.9043 60.2809 90.874 58.9959 90.0025 58.9381C90.7366 58.3905 91.2672 57.5732 91.4652 56.6706C91.6989 57.232 92.5484 56.8825 92.9801 56.4587C96.876 52.741 100.7 48.9435 104.445 45.0745C105.545 43.9518 106.642 42.7987 107.417 41.4339C107.72 40.8945 107.978 40.2891 107.887 39.6754C107.797 39.0673 107.222 38.5004 106.614 38.6133C109.85 37.4602 111.442 33.8059 112.025 30.4211C112.138 29.7772 112.223 29.0948 111.965 28.4949C111.706 27.895 110.98 27.4574 110.389 27.7299C112.482 25.1294 113.018 21.3732 111.792 18.2637C112.586 18.7645 113.224 19.6148 113.488 20.5312C113.958 22.1987 113.54 23.9737 113.117 25.6495C114.118 25.9687 114.747 27.0144 114.882 28.0601C115.011 29.1003 114.731 30.1542 114.434 31.1614V31.1641Z" fill="#166AB2"/>
<path d="M124.939 87.8424C125.173 88.1754 123.804 90.74 122.902 90.641C122.107 90.5584 120.524 91.6481 120.144 91.9151C120.1 91.9536 120.07 91.9756 120.07 91.9756C117.486 93.9762 114.25 95.1594 110.733 95.1594C108.619 95.1594 106.603 94.7274 104.778 93.9404C102.119 92.8232 99.8453 90.9657 98.2067 88.6212C96.4801 86.1418 95.4628 83.1231 95.4628 79.8759C95.4628 78.2524 95.7212 76.6838 96.1914 75.2116H96.1831C96.1831 75.2116 96.6313 72.2479 96.4416 71.3591C96.2519 70.4785 100.739 65.55 102.125 65.2914C102.125 65.2914 105.08 65.2611 107.48 64.9364H107.497C108.533 64.708 109.62 64.5869 110.733 64.5869C113.309 64.5869 115.734 65.2308 117.857 66.3618H117.865C119.479 67.0966 120.32 66.8544 120.32 66.8544C121.032 66.5957 124.299 70.3354 125.085 72.2452C125.228 72.6084 125.288 72.9056 125.222 73.0955C125.101 73.4202 125.503 75.8555 125.541 76.1225C125.55 76.139 125.55 76.1445 125.55 76.1445C125.844 77.3333 126.003 78.5853 126.003 79.8759C126.003 82.1434 125.662 84.3283 124.783 86.2629C124.714 86.406 124.684 86.5656 124.692 86.7252C124.714 87.0499 124.777 87.6057 124.942 87.8396L124.939 87.8424Z" fill="url(#paint16_radial_206_17036)"/>
<path d="M101.671 65.5801C101.671 65.5801 98.3882 67.809 96.7303 70.9819C96.7303 70.9819 97.1179 71.5598 100.346 67.9494C103.029 64.9472 101.671 65.5801 101.671 65.5801Z" fill="url(#paint17_radial_206_17036)"/>
<path style="mix-blend-mode:multiply" d="M113.887 67.8257C114.038 68.0239 113.936 68.3293 113.738 68.4807C113.089 68.965 110.802 68.8164 111.162 67.5863C111.473 66.5296 113.416 67.2093 113.887 67.8257Z" fill="url(#paint18_radial_206_17036)"/>
<path opacity="0.26" d="M14.5421 57.0112C13.6018 57.6276 12.7523 59.1879 12.5955 60.3189C12.5131 60.2941 12.4306 60.2583 12.3453 60.2281C11.1631 59.7795 9.72241 60.107 8.8371 61.0178C9.03505 60.8115 9.01856 59.5924 9.10379 59.2649C9.25501 58.6733 9.45846 58.0982 9.70866 57.5423C10.528 55.7757 12.2711 53.4229 14.2479 52.8477C14.2782 52.8395 14.3002 52.834 14.3304 52.834C14.4047 53.6898 14.5366 55.3656 14.5421 57.0112Z" fill="#166AB2"/>
<path opacity="0.26" d="M3.74519 67.988C3.51698 67.7761 3.19255 67.6165 2.86537 67.4404C2.34299 66.5763 2.47221 65.6297 3.2063 65.415C3.2063 65.4591 3.18431 65.5141 3.16781 65.5581C2.84063 66.3837 3.08533 67.3936 3.74244 67.9852L3.74519 67.988Z" fill="#166AB2"/>
<path opacity="0.26" d="M5.63954 59.3858C4.8972 60.4177 4.48754 61.6698 4.44355 62.9356C4.40505 63.9731 5.00443 64.9912 4.95769 65.9461C4.69924 65.9324 4.42705 65.7342 4.17685 65.4618C4.27583 65.4921 4.37481 65.5306 4.47929 65.5774C3.66821 64.2345 3.44001 61.6946 4.33632 60.6021C4.71574 60.1316 5.16939 59.6225 5.71652 59.2812C5.69453 59.3198 5.66429 59.3556 5.63954 59.3886V59.3858Z" fill="#166AB2"/>
</g>
<defs>
<radialGradient id="paint0_radial_206_17036" cx="0" cy="0" r="1" gradientUnits="userSpaceOnUse" gradientTransform="translate(47.6049 34.2343) scale(55.5179 55.5662)">
<stop stop-color="#7EFAFA"/>
<stop offset="1" stop-color="#00B3FA"/>
</radialGradient>
<linearGradient id="paint1_linear_206_17036" x1="106.911" y1="25.8829" x2="97.6116" y2="59.4369" gradientUnits="userSpaceOnUse">
<stop stop-color="#D8D600"/>
<stop offset="1" stop-color="#80B318"/>
</linearGradient>
<linearGradient id="paint2_linear_206_17036" x1="57.147" y1="30.5174" x2="88.4428" y2="77.705" gradientUnits="userSpaceOnUse">
<stop stop-color="#D8D600"/>
<stop offset="1" stop-color="#80B318"/>
</linearGradient>
<linearGradient id="paint3_linear_206_17036" x1="12.4993" y1="33.1181" x2="30.2643" y2="57.6881" gradientUnits="userSpaceOnUse">
<stop stop-color="#D8D600"/>
<stop offset="1" stop-color="#80B318"/>
</linearGradient>
<linearGradient id="paint4_linear_206_17036" x1="45.9459" y1="80.7519" x2="25.4678" y2="61.1741" gradientUnits="userSpaceOnUse">
<stop stop-color="#D88000"/>
<stop offset="1" stop-color="#FAAD18"/>
</linearGradient>
<linearGradient id="paint5_linear_206_17036" x1="49.9875" y1="35.267" x2="81.2806" y2="82.4546" gradientUnits="userSpaceOnUse">
<stop stop-color="#D8D600"/>
<stop offset="1" stop-color="#80B318"/>
</linearGradient>
<linearGradient id="paint6_linear_206_17036" x1="22.1992" y1="44.1722" x2="20.4917" y2="34.1231" gradientUnits="userSpaceOnUse">
<stop stop-color="#D88000"/>
<stop offset="1" stop-color="#FAAD18"/>
</linearGradient>
<linearGradient id="paint7_linear_206_17036" x1="41.973" y1="40.8095" x2="40.2655" y2="30.7604" gradientUnits="userSpaceOnUse">
<stop stop-color="#D88000"/>
<stop offset="1" stop-color="#FAAD18"/>
</linearGradient>
<linearGradient id="paint8_linear_206_17036" x1="69.6293" y1="55.9743" x2="49.1512" y2="36.3993" gradientUnits="userSpaceOnUse">
<stop stop-color="#D88000"/>
<stop offset="1" stop-color="#FAAD18"/>
</linearGradient>
<linearGradient id="paint9_linear_206_17036" x1="67.9137" y1="70.6249" x2="55.3985" y2="58.1233" gradientUnits="userSpaceOnUse">
<stop stop-color="#D88000"/>
<stop offset="1" stop-color="#FAAD18"/>
</linearGradient>
<linearGradient id="paint10_linear_206_17036" x1="86.0653" y1="52.457" x2="73.5501" y2="39.9554" gradientUnits="userSpaceOnUse">
<stop stop-color="#D88000"/>
<stop offset="1" stop-color="#FAAD18"/>
</linearGradient>
<linearGradient id="paint11_linear_206_17036" x1="80.594" y1="72.5067" x2="77.0543" y2="67.8344" gradientUnits="userSpaceOnUse">
<stop stop-color="#D88000"/>
<stop offset="1" stop-color="#FAAD18"/>
</linearGradient>
<linearGradient id="paint12_linear_206_17036" x1="100.288" y1="57.5924" x2="96.7483" y2="52.9173" gradientUnits="userSpaceOnUse">
<stop stop-color="#D88000"/>
<stop offset="1" stop-color="#FAAD18"/>
</linearGradient>
<linearGradient id="paint13_linear_206_17036" x1="110.711" y1="49.697" x2="107.169" y2="45.0219" gradientUnits="userSpaceOnUse">
<stop stop-color="#D88000"/>
<stop offset="1" stop-color="#FAAD18"/>
</linearGradient>
<linearGradient id="paint14_linear_206_17036" x1="103.741" y1="25.0135" x2="94.447" y2="58.5565" gradientUnits="userSpaceOnUse">
<stop stop-color="#D8D600"/>
<stop offset="1" stop-color="#80B318"/>
</linearGradient>
<linearGradient id="paint15_linear_206_17036" x1="105.553" y1="53.6048" x2="102.011" y2="48.9297" gradientUnits="userSpaceOnUse">
<stop stop-color="#D88000"/>
<stop offset="1" stop-color="#FAAD18"/>
</linearGradient>
<radialGradient id="paint16_radial_206_17036" cx="0" cy="0" r="1" gradientUnits="userSpaceOnUse" gradientTransform="translate(104.747 65.2768) scale(35.7023 35.7334)">
<stop offset="0.07" stop-color="#FAFAFA"/>
<stop offset="0.86" stop-color="#696968"/>
</radialGradient>
<radialGradient id="paint17_radial_206_17036" cx="0" cy="0" r="1" gradientUnits="userSpaceOnUse" gradientTransform="translate(98.3104 65.6315) scale(6.3364 6.34192)">
<stop offset="0.07" stop-color="#FAFAFA"/>
<stop offset="0.86" stop-color="#696968"/>
</radialGradient>
<radialGradient id="paint18_radial_206_17036" cx="0" cy="0" r="1" gradientUnits="userSpaceOnUse" gradientTransform="translate(117.194 75.8371) scale(15.232 15.2452)">
<stop offset="0.07" stop-color="#FAFAFA"/>
<stop offset="0.86" stop-color="#696968"/>
</radialGradient>
<clipPath id="clip0_206_17036">
<rect width="126" height="108" fill="white" transform="translate(0.000488281)"/>
</clipPath>
</defs>
</svg>
