<svg width="91" height="89" viewBox="0 0 91 89" fill="none" xmlns="http://www.w3.org/2000/svg">
<g clip-path="url(#clip0_206_16323)">
<path fill-rule="evenodd" clip-rule="evenodd" d="M88.3154 44.4122C88.5036 67.0767 70.2258 85.6024 47.4993 85.788C41.2383 85.839 35.3005 84.4927 29.9702 82.0429C28.9188 81.5615 27.892 81.0332 26.8877 80.4681C22.8726 78.1999 19.2768 75.2707 16.2516 71.8376C15.1451 70.5913 14.1183 69.2715 13.1733 67.8967C11.8929 66.0303 10.7556 64.0455 9.79427 61.9649C7.40932 56.8286 6.05935 51.1151 6.01026 45.0894C5.96117 39.0516 7.22114 33.3054 9.52632 28.1242C10.2627 26.4638 11.1095 24.8564 12.0606 23.3205C14.1101 19.9833 16.6218 16.9664 19.5181 14.3534C26.7425 7.80964 36.3048 3.79323 46.8202 3.70756C50.187 3.679 53.4596 4.05841 56.5952 4.79274C60.9622 5.81265 65.051 7.52406 68.7634 9.81275C69.4936 10.2595 70.1993 10.7245 70.8886 11.2141C71.4674 11.62 72.034 12.0443 72.5883 12.4808C75.3066 14.6084 77.7427 17.0704 79.8413 19.8058C84.2226 25.499 87.1373 32.3711 88.0229 39.8695C88.205 41.3586 88.3011 42.8742 88.3154 44.4143V44.4122Z" fill="url(#paint0_radial_206_16323)"/>
<g style="mix-blend-mode:multiply" opacity="0.58">
<path fill-rule="evenodd" clip-rule="evenodd" d="M20.5817 49.0442C20.3895 49.1482 20.0254 49.2951 20.0827 49.5215C20.1093 49.6276 20.189 49.7173 20.2279 49.8173C20.2647 49.9071 20.2852 50.0009 20.2954 50.0927C20.3077 50.2212 20.3915 50.417 20.5081 50.5149C20.5961 50.5884 20.6902 50.5108 20.7495 50.4394C20.8149 50.3619 20.8845 50.2803 20.8906 50.1865C20.8988 50.0641 20.907 49.9438 20.9479 49.8255C20.9642 49.7806 21.0092 49.7377 21.0236 49.6888C21.042 49.6256 21.0379 49.5562 21.0358 49.4909C21.0317 49.3502 20.9008 49.087 20.5817 49.0381V49.0442Z" fill="#9CBDFF"/>
<path fill-rule="evenodd" clip-rule="evenodd" d="M19.7881 50.95C19.7636 50.8867 19.78 50.8357 19.8331 50.7949C20.1154 50.799 20.2095 51.2396 19.9436 51.3253C19.6368 51.4232 19.604 51.0927 19.6981 50.9479H19.7881V50.95Z" fill="#9CBDFF"/>
<path fill-rule="evenodd" clip-rule="evenodd" d="M14.7114 53.7031C14.8505 53.65 14.9671 53.5766 15.1226 53.6072C15.2535 53.6337 15.3578 53.6969 15.4437 53.7785C15.5521 53.8805 15.595 54.009 15.64 54.1375C15.6625 54.2008 15.6994 54.2599 15.6769 54.3232C15.591 54.5782 15.2269 54.7515 14.9426 54.8188C14.7769 54.8576 14.6255 54.9045 14.4537 54.9106C14.3371 54.9168 14.2185 54.927 14.1039 54.9412C14.0058 54.9535 13.9178 54.9841 13.8176 54.9596C13.746 54.9433 13.6519 54.8902 13.5946 54.8515C13.4105 54.7311 13.296 54.5598 13.3062 54.3701C13.3246 54.0396 13.8074 53.7847 14.1387 53.6541C14.4108 53.548 14.8444 53.4155 14.7135 53.6969L14.7114 53.7031Z" fill="#9CBDFF"/>
<path fill-rule="evenodd" clip-rule="evenodd" d="M16.0041 53.2664C15.9632 53.3623 15.9284 53.3908 16.0225 53.4439C16.0921 53.4826 16.1882 53.4826 16.2618 53.4622C16.4071 53.4255 16.5932 53.2501 16.4848 53.1277C16.4316 53.0665 16.3028 52.9563 16.2128 52.9482C16.0348 52.9319 15.8098 53.1358 15.8303 53.2623H16.0041V53.2664Z" fill="#9CBDFF"/>
<path fill-rule="evenodd" clip-rule="evenodd" d="M21.7988 55.5187C21.8479 55.4555 21.9154 55.3392 22.0381 55.3637C22.1588 55.3861 22.1608 55.5228 22.1465 55.5962C22.1117 55.7716 21.8254 55.5799 21.8458 55.4657L21.7988 55.5187Z" fill="#9CBDFF"/>
<path fill-rule="evenodd" clip-rule="evenodd" d="M24.0139 56.6897C23.971 56.757 23.9321 56.8203 23.9505 56.8978C23.9771 57.0079 24.0855 57.0549 24.2246 57.0651C24.4373 57.0773 24.5826 57.0406 24.6276 56.8733C24.6562 56.7713 24.5662 56.6102 24.468 56.5367C24.421 56.5021 24.3596 56.4817 24.2942 56.4755C24.1633 56.4653 24.1019 56.5408 24.0385 56.6163L24.0139 56.6897Z" fill="#9CBDFF"/>
<path fill-rule="evenodd" clip-rule="evenodd" d="M31.0072 61.1119C30.954 61.1425 30.8865 61.167 30.8722 61.2139C30.8661 61.2323 30.8722 61.2731 30.8783 61.2935C30.9111 61.4077 31.1647 61.4281 31.2895 61.4363C31.6351 61.4567 32.0319 61.3996 32.2876 61.2282C32.4513 61.1181 32.6006 60.9182 32.5535 60.7427C32.4881 60.5 32.1404 60.349 31.8438 60.2838C31.5676 60.2246 31.177 60.194 30.9622 60.347C30.8865 60.4 30.819 60.4694 30.8088 60.551C30.8006 60.6142 30.8333 60.6754 30.8333 60.7387C30.8333 60.8223 30.7761 60.8937 30.8292 60.9793C30.8681 61.0405 30.9336 61.0813 31.0092 61.114L31.0072 61.1119Z" fill="#9CBDFF"/>
<path fill-rule="evenodd" clip-rule="evenodd" d="M33.0853 61.2402C33.0669 61.1668 33.0731 61.1607 33.1303 61.1076C33.1815 61.0607 33.2387 61.0424 33.3246 61.0607C33.4596 61.0913 33.5394 61.2117 33.4821 61.2994C33.4453 61.3545 33.3369 61.383 33.2531 61.383C33.1508 61.383 33.0649 61.3259 33.0342 61.2545L33.0874 61.2382L33.0853 61.2402Z" fill="#9CBDFF"/>
<path fill-rule="evenodd" clip-rule="evenodd" d="M35.8794 55.7127C35.73 55.7575 35.6789 55.7739 35.5991 55.8656C35.5603 55.9126 35.5419 55.9452 35.5725 56.0003C35.6503 56.1349 35.8814 56.2736 36.0634 56.3246C36.1964 56.3634 36.3743 56.3593 36.4991 56.3124C36.6096 56.2716 36.7016 56.1757 36.7855 56.1104C36.8632 56.0492 36.9327 55.984 37.0023 55.9166C37.1209 55.8004 37.215 55.6698 37.0943 55.5291C36.988 55.4046 36.763 55.3047 36.5605 55.3108C36.3968 55.3149 36.2987 55.3516 36.1596 55.4026C36.0287 55.4495 35.9121 55.4801 35.8794 55.7086V55.7127Z" fill="#9CBDFF"/>
<path fill-rule="evenodd" clip-rule="evenodd" d="M35.1471 56.2793C35.2555 56.2875 35.3578 56.3119 35.4539 56.3487C35.4498 56.3833 35.5112 56.4037 35.4907 56.4445C35.4621 56.5016 35.3271 56.4812 35.2657 56.4772C35.188 56.4731 35.1042 56.4445 35.051 56.4017C35.0305 56.3854 34.9426 56.3181 35.0142 56.314L35.1491 56.2793H35.1471Z" fill="#9CBDFF"/>
<path fill-rule="evenodd" clip-rule="evenodd" d="M25.8978 60.38C25.8364 60.4615 25.7669 60.5533 25.8732 60.6512C25.9714 60.743 26.1616 60.7328 26.2843 60.6982C26.3498 60.6798 26.4234 60.6574 26.4337 60.6023C26.4439 60.5452 26.4316 60.4799 26.4337 60.4228C26.4398 60.2841 26.6259 60.1923 26.4603 60.0495C26.3928 59.9904 26.2475 59.9394 26.1473 59.9495C25.9632 59.9679 25.8691 60.1107 25.8037 60.227L25.8998 60.38H25.8978Z" fill="#9CBDFF"/>
<path fill-rule="evenodd" clip-rule="evenodd" d="M12.2569 64.4475C12.0749 64.4679 11.9194 64.527 11.7906 64.6208C11.7906 64.6392 11.7947 64.6596 11.7947 64.678C11.7517 64.7759 11.7415 64.8758 11.8008 64.9778C11.9808 65.2858 12.351 65.2797 12.6865 65.3083C13.0465 65.3368 13.5087 65.4082 13.3471 64.9819C13.2735 64.7861 13.1712 64.4699 12.9606 64.3353C12.8481 64.2639 12.7908 64.2883 12.6824 64.3128C12.5453 64.3434 12.3633 64.372 12.2549 64.4475H12.2569Z" fill="#9CBDFF"/>
<path fill-rule="evenodd" clip-rule="evenodd" d="M16.4582 65.255C16.5175 65.1775 16.6034 65.0245 16.7527 65.0225C16.8734 65.0225 16.9143 65.0816 17.0023 65.1387C17.1925 65.2652 17.3745 65.4243 17.1823 65.6079C17.0964 65.6874 16.8918 65.7303 16.7507 65.6976C16.6259 65.6691 16.4173 65.5283 16.4582 65.4121V65.253V65.255Z" fill="#9CBDFF"/>
<path fill-rule="evenodd" clip-rule="evenodd" d="M36.9123 37.2275C36.7364 37.4967 36.72 37.5131 36.8182 37.766C36.8918 37.9557 36.943 38.1719 37.1455 38.3106C37.4155 38.4942 37.7877 38.4208 38.1313 38.4493C38.4013 38.4718 38.5568 38.4759 38.7941 38.329C39.0231 38.1882 39.2522 37.972 39.3975 37.7823C39.872 37.1581 39.8577 36.2973 39.4834 35.7241C39.2379 35.3488 38.8738 34.9286 38.2459 34.8572C37.7223 34.7981 37.125 34.9347 36.7548 35.2509C36.3825 35.5691 36.2864 35.9975 36.3927 36.3606C36.4275 36.4462 36.4602 36.5319 36.493 36.6176C36.5114 36.7298 36.5134 36.846 36.5012 36.9603C36.5134 37.0806 36.6096 37.1846 36.9082 37.2275H36.9123Z" fill="#9CBDFF"/>
<path fill-rule="evenodd" clip-rule="evenodd" d="M35.9284 38.292C36.2659 38.4633 36.2169 38.4327 36.2659 38.6775C36.2864 38.7856 36.3478 38.804 36.313 38.9101C36.2721 39.0386 36.0164 39.1793 35.8344 39.1793C35.6891 39.1793 35.4723 38.9978 35.4151 38.9223C35.3271 38.8081 35.3619 38.7408 35.4416 38.6163L35.9284 38.292Z" fill="#9CBDFF"/>
<path fill-rule="evenodd" clip-rule="evenodd" d="M7.07592 40.2487C7.02274 40.4323 6.9491 40.6505 7.18228 40.7566C7.33978 40.83 7.58727 40.728 7.7284 40.6281C7.9309 40.4833 8.1518 40.1385 8.18658 39.9223C8.22544 39.6898 7.90022 39.4674 7.65273 39.4593C7.14955 39.4429 6.87342 40.1406 6.8407 40.4629L7.07592 40.2487Z" fill="#9CBDFF"/>
<path fill-rule="evenodd" clip-rule="evenodd" d="M6.7057 42.2474C6.67707 42.1984 6.56048 42.0597 6.58093 41.9945C6.59116 41.9639 6.63207 41.9557 6.64843 41.9333C6.71184 41.8435 6.78138 41.7619 6.89797 41.7395C7.14546 41.6885 7.34387 41.7538 7.46659 41.9312C7.54636 42.0495 7.54636 42.174 7.42569 42.2821C7.29273 42.4004 7.01047 42.4677 6.87752 42.3371L6.7057 42.2474Z" fill="#9CBDFF"/>
<path fill-rule="evenodd" clip-rule="evenodd" d="M32.1628 67.4603C31.9317 67.7928 31.9563 68.1885 32.0524 68.5822C32.1138 68.8331 32.1588 69.1615 32.5126 69.3063C33.3512 69.6449 34.016 68.3721 34.1817 67.958C34.3187 67.6173 34.3739 67.1971 34.2901 66.8238C34.2389 66.5954 34.0037 66.1303 33.7071 65.9936C33.3267 65.8162 32.8951 65.963 32.6619 66.165C32.1281 66.6301 32.2569 67.293 32.0033 67.8499L32.1628 67.4603Z" fill="#9CBDFF"/>
<path fill-rule="evenodd" clip-rule="evenodd" d="M31.7354 67.3376C31.6495 67.3417 31.2711 67.3315 31.1422 67.3825C31.0501 67.4192 30.9049 67.4763 30.8783 67.5538C30.8415 67.662 30.9479 67.7864 31.0481 67.8659C31.1156 67.919 31.2445 67.9802 31.3406 67.9598C31.4163 67.9435 31.4776 67.8721 31.5267 67.8292C31.6126 67.7517 31.674 67.6599 31.7333 67.5661C31.7599 67.5233 31.8008 67.4825 31.8151 67.4315C31.8356 67.3519 31.764 67.3193 31.7374 67.252V67.3376H31.7354Z" fill="#9CBDFF"/>
<path fill-rule="evenodd" clip-rule="evenodd" d="M44.3371 29.75C44.0896 29.8928 43.6212 30.1049 43.6969 30.3538C43.7317 30.4701 43.8339 30.5619 43.8871 30.67C43.9342 30.7658 43.9628 30.8699 43.9751 30.9739C43.9914 31.1167 44.1019 31.3288 44.2492 31.4247C44.3617 31.4981 44.4823 31.3982 44.5601 31.3105C44.6439 31.2146 44.7319 31.1146 44.7401 31.0086C44.7523 30.8699 44.7605 30.7332 44.8117 30.5945C44.8321 30.5415 44.8894 30.4884 44.9078 30.4313C44.9323 30.3579 44.9241 30.2804 44.9221 30.2069C44.916 30.0499 44.7482 29.7684 44.3351 29.752L44.3371 29.75Z" fill="#9CBDFF"/>
<path fill-rule="evenodd" clip-rule="evenodd" d="M43.3267 31.9992C43.296 31.9319 43.3144 31.8707 43.384 31.8197C43.748 31.7891 43.8708 32.2746 43.5292 32.4052C43.1365 32.5541 43.0915 32.1849 43.2121 32.0115L43.3287 31.9992H43.3267Z" fill="#9CBDFF"/>
<path fill-rule="evenodd" clip-rule="evenodd" d="M45.9387 36.9196C46.0021 36.8421 46.088 36.7034 46.2475 36.7156C46.405 36.7278 46.4071 36.8808 46.3887 36.9665C46.3457 37.1684 45.9734 36.9869 45.998 36.8563L45.9387 36.9216V36.9196Z" fill="#9CBDFF"/>
<path fill-rule="evenodd" clip-rule="evenodd" d="M48.8104 37.9758C48.7552 38.0574 48.7041 38.1329 48.7307 38.2186C48.7675 38.341 48.9066 38.3818 49.0866 38.3736C49.3606 38.3634 49.5509 38.3043 49.6081 38.1084C49.6429 37.9881 49.5263 37.8188 49.3995 37.7453C49.3402 37.7107 49.2584 37.6964 49.1745 37.6984C49.0047 37.7025 48.925 37.7963 48.8432 37.8881L48.8125 37.9738L48.8104 37.9758Z" fill="#9CBDFF"/>
<path fill-rule="evenodd" clip-rule="evenodd" d="M57.9452 42.1717C57.8757 42.2125 57.7857 42.2472 57.7673 42.3043C57.7591 42.3267 57.7673 42.3716 57.7754 42.3941C57.8204 42.5205 58.1518 42.5144 58.3134 42.5083C58.7654 42.4899 59.287 42.3777 59.6204 42.1533C59.8352 42.0085 60.0295 41.7617 59.9681 41.5679C59.8822 41.2987 59.424 41.1681 59.0354 41.1294C58.6713 41.0947 58.162 41.1069 57.8798 41.3048C57.7795 41.3741 57.6916 41.4619 57.6793 41.5557C57.6691 41.6271 57.71 41.6944 57.712 41.7658C57.7141 41.8617 57.6364 41.9494 57.7079 42.0412C57.7591 42.1044 57.845 42.1452 57.9432 42.1737L57.9452 42.1717Z" fill="#9CBDFF"/>
<path fill-rule="evenodd" clip-rule="evenodd" d="M60.6717 42.0763C60.6472 41.9947 60.6554 41.9865 60.729 41.9192C60.7965 41.858 60.8702 41.8315 60.9847 41.8437C61.1606 41.8641 61.269 41.9906 61.1913 42.0987C61.1422 42.166 61.0011 42.2109 60.8906 42.2211C60.7577 42.2354 60.6431 42.1783 60.6022 42.1008L60.6717 42.0763Z" fill="#9CBDFF"/>
<path fill-rule="evenodd" clip-rule="evenodd" d="M39.2563 9.11277C39.1029 9.19436 39.0497 9.22496 38.9679 9.33715C38.927 9.39426 38.9086 9.43302 38.9413 9.47994C39.0211 9.5962 39.2584 9.67576 39.4465 9.68392C39.5836 9.688 39.7656 9.64108 39.8945 9.56357C40.009 9.49421 40.1031 9.3759 40.189 9.29023C40.2688 9.21068 40.3404 9.12705 40.4099 9.04341C40.5327 8.89655 40.6288 8.74356 40.504 8.63137C40.3956 8.53346 40.1624 8.48858 39.9538 8.5457C39.7861 8.59057 39.6838 8.65177 39.5427 8.73744C39.4077 8.81699 39.287 8.87819 39.2543 9.11481L39.2563 9.11277Z" fill="#9CBDFF"/>
<path fill-rule="evenodd" clip-rule="evenodd" d="M38.5036 9.86353C38.6161 9.84517 38.7204 9.84313 38.8207 9.85537C38.8166 9.89209 38.88 9.89821 38.8575 9.94308C38.8268 10.0084 38.6897 10.0206 38.6263 10.0328C38.5466 10.0471 38.4607 10.041 38.4054 10.0124C38.385 10.0022 38.295 9.95532 38.3666 9.93288L38.5057 9.86353H38.5036Z" fill="#9CBDFF"/>
<path fill-rule="evenodd" clip-rule="evenodd" d="M51.2711 41.9395C51.1913 42.0394 51.1013 42.1496 51.2404 42.2495C51.3692 42.3413 51.6167 42.3087 51.7742 42.2536C51.8581 42.2251 51.9542 42.1924 51.9685 42.1272C51.9808 42.0619 51.9644 41.9884 51.9685 41.9232C51.9747 41.7641 52.216 41.6396 52.0013 41.4968C51.9133 41.4377 51.7231 41.3969 51.5942 41.4193C51.3549 41.4622 51.2322 41.6356 51.1483 41.7763L51.2731 41.9395H51.2711Z" fill="#9CBDFF"/>
<path fill-rule="evenodd" clip-rule="evenodd" d="M39.1131 48.5302C39.1888 48.4363 39.2993 48.2548 39.4895 48.2364C39.6429 48.2221 39.6961 48.2854 39.8086 48.3405C40.054 48.4608 40.2872 48.6219 40.0418 48.8504C39.9334 48.9504 39.6715 49.0197 39.4895 48.9993C39.33 48.981 39.06 48.8463 39.1131 48.7097V48.5302Z" fill="#9CBDFF"/>
<path fill-rule="evenodd" clip-rule="evenodd" d="M59.4936 49.2784C59.1909 49.6844 59.2256 50.1311 59.3545 50.5697C59.4363 50.8491 59.4956 51.2204 59.964 51.3448C61.0665 51.6385 61.9358 50.1107 62.1506 49.6191C62.3285 49.2152 62.4001 48.7297 62.2856 48.3116C62.216 48.0566 61.9031 47.5528 61.5124 47.4283C61.0092 47.2692 60.4427 47.4854 60.1379 47.7445C59.4384 48.3361 59.6122 49.0785 59.2829 49.7415L59.4916 49.2784H59.4936Z" fill="#9CBDFF"/>
<path fill-rule="evenodd" clip-rule="evenodd" d="M58.9311 49.1847C58.8186 49.199 58.3216 49.2296 58.1538 49.303C58.0332 49.3561 57.8429 49.4356 57.8102 49.5295C57.7632 49.658 57.9023 49.7865 58.0352 49.866C58.1232 49.9191 58.2929 49.9741 58.4197 49.9395C58.5179 49.913 58.5998 49.8232 58.6611 49.7702C58.7736 49.6723 58.8534 49.5621 58.9311 49.4479C58.9659 49.3948 59.0191 49.3438 59.0375 49.2847C59.0641 49.1929 58.97 49.1623 58.9352 49.0889V49.1868L58.9311 49.1847Z" fill="#9CBDFF"/>
<path fill-rule="evenodd" clip-rule="evenodd" d="M36.8673 65.1429C36.9246 65.0776 37.0043 64.9552 37.1496 64.9879C37.2927 65.0205 37.2948 65.1674 37.2784 65.2469C37.2375 65.4366 36.9 65.2102 36.9225 65.0878L36.8673 65.1429Z" fill="#9CBDFF"/>
<path fill-rule="evenodd" clip-rule="evenodd" d="M39.4915 66.5525C39.4404 66.6239 39.3954 66.6891 39.4179 66.7768C39.4506 66.8992 39.5795 66.9563 39.7431 66.9747C39.9947 67.0012 40.1665 66.9706 40.2197 66.7911C40.2524 66.681 40.1461 66.5015 40.0295 66.4138C39.9743 66.373 39.9006 66.3464 39.8249 66.3362C39.6695 66.3158 39.5979 66.3954 39.5222 66.475L39.4936 66.5525H39.4915Z" fill="#9CBDFF"/>
<path fill-rule="evenodd" clip-rule="evenodd" d="M47.8164 71.819C47.7529 71.8476 47.6711 71.87 47.6548 71.9231C47.6486 71.9435 47.6548 71.9863 47.6609 72.0087C47.7018 72.1372 48.0025 72.174 48.1518 72.1903C48.5629 72.2331 49.0395 72.1964 49.3422 72.025C49.5365 71.9149 49.7165 71.7048 49.6593 71.509C49.5815 71.2397 49.1663 71.0521 48.8104 70.9623C48.4791 70.8787 48.0148 70.8216 47.7591 70.9745C47.6691 71.0276 47.5873 71.099 47.577 71.1887C47.5668 71.256 47.6057 71.3274 47.6077 71.3968C47.6077 71.4886 47.5382 71.562 47.6036 71.6599C47.6486 71.7272 47.7284 71.7782 47.8184 71.819H47.8164Z" fill="#9CBDFF"/>
<path fill-rule="evenodd" clip-rule="evenodd" d="M50.2954 72.0926C50.2729 72.011 50.2811 72.0029 50.3486 71.9498C50.4099 71.9009 50.4774 71.8846 50.5797 71.9111C50.7392 71.9539 50.8374 72.0906 50.7679 72.1824C50.7229 72.2415 50.5961 72.264 50.4938 72.2599C50.3731 72.2558 50.2688 72.1864 50.232 72.1049L50.2954 72.0906V72.0926Z" fill="#9CBDFF"/>
<path fill-rule="evenodd" clip-rule="evenodd" d="M41.7333 70.6954C41.6597 70.7811 41.5779 70.8749 41.7047 70.9891C41.8213 71.0952 42.0483 71.0972 42.1915 71.0646C42.2692 71.0483 42.3572 71.0299 42.3674 70.9687C42.3797 70.9075 42.3653 70.8361 42.3674 70.7729C42.3735 70.6199 42.5944 70.5342 42.3981 70.367C42.3183 70.2997 42.1444 70.2344 42.0279 70.2385C41.809 70.2466 41.6985 70.3976 41.6208 70.52L41.7354 70.6933L41.7333 70.6954Z" fill="#9CBDFF"/>
<path fill-rule="evenodd" clip-rule="evenodd" d="M49.2134 78.8478C48.9372 79.1966 48.9679 79.6311 49.0866 80.0696C49.1622 80.3491 49.2154 80.7122 49.6388 80.8937C50.6411 81.3221 51.4326 79.9717 51.629 79.5291C51.7906 79.1639 51.856 78.7091 51.7538 78.2929C51.6904 78.04 51.4081 77.5137 51.0522 77.3424C50.5961 77.1241 50.0806 77.2547 49.8024 77.4607C49.1643 77.936 49.3218 78.6703 49.0211 79.2618L49.2113 78.8457L49.2134 78.8478Z" fill="#9CBDFF"/>
<path fill-rule="evenodd" clip-rule="evenodd" d="M48.702 78.6827C48.5997 78.6827 48.1477 78.6439 47.9943 78.6929C47.8839 78.7276 47.712 78.7786 47.6814 78.8642C47.6384 78.9805 47.7652 79.1233 47.8859 79.2171C47.9657 79.2783 48.1211 79.3538 48.2357 79.3395C48.3257 79.3273 48.3993 79.2518 48.4566 79.209C48.5588 79.1294 48.6304 79.0335 48.702 78.9336C48.7347 78.8887 48.7818 78.8459 48.7982 78.7908C48.8227 78.7051 48.7368 78.6643 48.7041 78.5889V78.6827H48.702Z" fill="#9CBDFF"/>
<path fill-rule="evenodd" clip-rule="evenodd" d="M31.2404 70.5134C31.3324 70.5542 31.4265 70.597 31.5185 70.6378C31.4981 70.7174 31.539 70.8153 31.4326 70.8581C31.359 70.8867 31.1647 70.8683 31.0829 70.8357C30.9622 70.7887 30.8865 70.7112 30.8906 70.6194C30.8967 70.5113 31.0297 70.4807 31.1626 70.4746L31.2404 70.5113V70.5134Z" fill="#9CBDFF"/>
<path fill-rule="evenodd" clip-rule="evenodd" d="M19.197 73.3246C19.1581 73.4144 19.1438 73.4837 19.2379 73.5735C19.375 73.702 19.5775 73.753 19.735 73.6775C19.9497 73.5735 20.189 73.3063 20.1318 73.0717C20.0949 72.9228 19.8618 72.7269 19.6797 72.7922C19.5877 72.8249 19.4588 72.8677 19.3893 72.9187C19.2645 73.0084 19.2134 73.1614 19.1991 73.2981V73.3246H19.197Z" fill="#9CBDFF"/>
<path fill-rule="evenodd" clip-rule="evenodd" d="M29.1295 24.7312C29.0354 24.8108 28.9884 24.8393 28.9638 24.9332C28.9372 25.0393 28.9229 25.1412 29.0007 25.2228C29.152 25.384 29.5406 25.4513 29.8188 25.4595C30.0724 25.4676 30.2729 25.4146 30.4856 25.2698C30.7249 25.1086 30.8783 24.9271 30.9213 24.7027C30.9663 24.4681 30.907 24.3131 30.6452 24.2131C30.4365 24.1336 30.1502 24.052 29.8945 24.0601C29.6552 24.0683 29.4916 24.1417 29.3116 24.2804C29.15 24.4049 28.9393 24.617 29.1295 24.7292V24.7312Z" fill="#9CBDFF"/>
<path fill-rule="evenodd" clip-rule="evenodd" d="M31.2485 25.1298C31.2547 25.0706 31.2383 25.0033 31.3283 24.9748C31.4408 24.938 31.6454 24.987 31.719 25.0339C31.7783 25.0727 31.8438 25.1747 31.8294 25.244C31.8172 25.2991 31.7476 25.3542 31.6883 25.3929C31.5901 25.4602 31.4735 25.4847 31.3774 25.4541C31.3099 25.4337 31.1422 25.3909 31.1708 25.3113L31.2485 25.1298Z" fill="#9CBDFF"/>
<path fill-rule="evenodd" clip-rule="evenodd" d="M24.9855 18.7795C24.9814 18.8856 24.9855 18.9366 25.0551 19.0121C25.1573 19.1243 25.3128 19.2079 25.4805 19.2609C25.6973 19.3283 25.9734 19.3629 26.2393 19.2977C26.4296 19.2507 26.6116 19.0549 26.6423 18.9162C26.6771 18.7489 26.5973 18.5266 26.4705 18.4185C26.223 18.2104 25.7791 18.086 25.3496 18.1941C24.8587 18.3165 24.8362 18.8775 24.9876 18.7816L24.9855 18.7795Z" fill="#9CBDFF"/>
<path fill-rule="evenodd" clip-rule="evenodd" d="M27.1086 19.7159C27.0534 19.6874 27.0166 19.6486 26.9982 19.5996C27.0718 19.5629 27.0943 19.4956 27.1741 19.4609C27.2518 19.4263 27.348 19.4242 27.4155 19.4405C27.5177 19.463 27.5832 19.5201 27.5873 19.6058C27.5934 19.7016 27.5423 19.7322 27.438 19.7914C27.3623 19.8342 27.3459 19.8505 27.2621 19.8322C27.2191 19.822 27.1455 19.7934 27.1086 19.7751V19.72V19.7159Z" fill="#9CBDFF"/>
</g>
<path fill-rule="evenodd" clip-rule="evenodd" d="M6.86933 23.1578L7.51773 20.0042C7.51773 20.0042 13.791 9.26457 26.3723 3.70605L28.2316 5.66836L29.5181 7.84893C29.5181 7.84893 18.2377 17.736 11.5656 30.3053L12.2999 31.0968L18.1068 24.6754L26.9982 24.0635L27.0289 28.237C27.0289 28.237 17.7857 42.8095 8.44634 51.9438L4.07735 50.5241L3.27146 49.9794C0.747428 43.7151 0.258575 36.8185 1.8724 30.2645L6.17594 23.8146L6.86729 23.1578H6.86933Z" fill="url(#paint1_linear_206_16323)"/>
<path fill-rule="evenodd" clip-rule="evenodd" d="M88.3175 40.7817C84.0139 41.9301 77.4952 40.5512 77.4952 40.5512L80.0786 38.0932L83.5067 37.7016L84.8648 35.676C83.9608 26.9476 79.4343 21.1199 79.4343 21.1199L73.3574 19.8409L70.2443 18.205L77.8184 17.3768L78.1416 15.0596C74.3923 10.5964 68.0495 7.77739 68.0495 7.77739C63.0015 6.60449 56.5727 6.16797 56.5727 6.16797C56.5727 6.16797 47.6895 10.0192 37.8736 22.5987L34.3739 24.6814C34.3739 24.6814 52.3756 27.3026 59.5304 30.2868L58.2459 34.1788L65.3435 40.7307C65.3435 40.7307 61.5247 54.8259 53.6274 64.615L55.006 67.2484C55.006 67.2484 66.1964 65.8777 71.9706 61.49L73.7583 58.4405L76.4623 60.9005C80.952 60.311 88.3195 56.6046 88.3195 56.6046C90.0929 53.2002 90.9417 43.2662 90.9417 43.2662L88.3195 40.7838L88.3175 40.7817Z" fill="url(#paint2_linear_206_16323)"/>
<path fill-rule="evenodd" clip-rule="evenodd" d="M15.3128 70.7463L22.3183 68.5596L34.5396 75.1339L34.8873 76.2742L32.7192 80.3436L35.0632 82.8526C35.0632 82.8526 28.3993 86.5121 15.2514 75.9927L15.3128 70.7442V70.7463Z" fill="url(#paint3_linear_206_16323)"/>
<path fill-rule="evenodd" clip-rule="evenodd" d="M38.3666 82.0532L42.2733 79.7298L51.3713 77.7002L56.6955 81.3392L58.1048 86.3082C58.1048 86.3082 50.2279 88.9804 38.5834 87.2751L38.3645 82.0532H38.3666Z" fill="url(#paint4_linear_206_16323)"/>
<path fill-rule="evenodd" clip-rule="evenodd" d="M46.7139 0.454307C46.5073 0.495104 46.3825 0.527741 46.3825 0.527741C43.7071 4.77057 40.1768 16.1038 40.1768 16.1038C46.9736 8.74211 51.6985 7.46314 51.6985 7.46314C51.6985 7.46314 54.376 5.32132 59.5979 5.61914L59.9804 2.96737C59.9804 2.96737 54.1039 -1.36317 46.7118 0.454307H46.7139Z" fill="url(#paint5_linear_206_16323)"/>
<g style="mix-blend-mode:soft-light">
<path fill-rule="evenodd" clip-rule="evenodd" d="M26.3723 3.70605C26.3723 3.70605 14.4946 17.5972 8.82679 29.2222L6.12276 37.6365L18.1089 24.6734L27.0002 24.0614C27.0002 24.0614 13.3042 41.4142 6.7732 50.5404L4.07735 50.522L4.74211 31.2171L7.00842 22.295L7.51773 20.0042C7.51773 20.0042 13.7951 8.84845 26.3723 3.70605Z" fill="#A99AF4"/>
</g>
<path fill-rule="evenodd" clip-rule="evenodd" d="M38.5854 87.2756L48.3809 83.043L58.1068 86.3087C58.1068 86.3087 50.9192 89.3664 38.5854 87.2756Z" fill="#573DAE"/>
<path fill-rule="evenodd" clip-rule="evenodd" d="M55.9448 67.1115L70.0929 49.569L77.8164 45.3711L73.0976 60.7799C73.0976 60.7799 66.1718 66.8137 55.9448 67.1115Z" fill="#573DAE"/>
<path fill-rule="evenodd" clip-rule="evenodd" d="M48.5179 71.3075L56.8877 67.8867L59.5754 70.0653L55.8978 74.1041L48.342 74.2877L48.5179 71.3075Z" fill="url(#paint6_linear_206_16323)"/>
<path fill-rule="evenodd" clip-rule="evenodd" d="M59.5754 70.0654L50.8088 72.3276L48.342 74.2879L55.8978 74.1043L59.5754 70.0654Z" fill="#573DAE"/>
<g style="mix-blend-mode:multiply">
<path fill-rule="evenodd" clip-rule="evenodd" d="M11.5656 30.3033L6.12072 37.6365L8.82475 29.2222C8.82475 29.2222 17.53 13.0342 26.3723 3.70605L29.5181 7.8469L32.1547 8.59551C32.1547 8.59551 23.0301 15.5329 16.1023 25.3465C15.1778 26.6561 12.3019 28.9387 11.5656 30.3033Z" fill="#A972B0"/>
</g>
<g style="mix-blend-mode:multiply">
<path fill-rule="evenodd" clip-rule="evenodd" d="M26.9961 24.0615L27.0861 27.2763L29.6061 27.2416C29.6061 27.2416 18.4913 44.2354 9.16224 52.0622L7.05342 51.2728L16.1759 37.8976L26.9982 24.0615H26.9961Z" fill="#A972B0"/>
</g>
<g style="mix-blend-mode:multiply">
<path fill-rule="evenodd" clip-rule="evenodd" d="M40.1768 16.1012L43.3349 13.7228C47.4073 10.6549 51.856 8.11531 56.5727 6.16524L59.8454 6.46713L59.6 5.61857L59.9824 2.9668C59.9824 2.9668 47.1618 3.1769 40.1768 16.1033V16.1012Z" fill="#A972B0"/>
</g>
<g style="mix-blend-mode:multiply">
<path fill-rule="evenodd" clip-rule="evenodd" d="M59.5304 30.2842L66.3293 22.0801L51.222 25.1786L35.6585 24.8726L58.9843 31.6876L59.5304 30.2842Z" fill="#A972B0"/>
</g>
<path fill-rule="evenodd" clip-rule="evenodd" d="M24.3985 41.6488L37.3316 29.6689L52.2753 30.8072L52.2324 36.9368L39.1295 45.7897L24.3985 41.6488Z" fill="url(#paint7_linear_206_16323)"/>
<path fill-rule="evenodd" clip-rule="evenodd" d="M22.4942 47.9882L24.4864 46.542L29.7493 47.1213L29.1295 49.9097L25.6871 50.6788L22.4942 47.9882Z" fill="url(#paint8_linear_206_16323)"/>
<g style="mix-blend-mode:soft-light">
<path fill-rule="evenodd" clip-rule="evenodd" d="M24.3985 41.6488L32.394 41.9609L40.8661 30.2401L37.3316 29.6689L24.3985 41.6488Z" fill="#A99AF4"/>
</g>
<g style="mix-blend-mode:soft-light" opacity="0.88">
<path fill-rule="evenodd" clip-rule="evenodd" d="M22.4942 47.9882L24.9548 49.3753L27.0207 47.9005L29.7493 47.1213L24.4864 46.542L22.4942 47.9882Z" fill="#A99AF4"/>
</g>
<g style="mix-blend-mode:multiply">
<path fill-rule="evenodd" clip-rule="evenodd" d="M32.394 41.9606L39.1991 44.0535L52.2324 36.9365L41.7435 47.6946L24.3985 41.6485L32.394 41.9606Z" fill="#A972B0"/>
</g>
<g style="mix-blend-mode:multiply">
<path fill-rule="evenodd" clip-rule="evenodd" d="M25.6871 50.6785L24.9548 49.3751L27.0207 47.9003L29.7493 47.1211L30.8497 50.6561L25.6871 50.6785Z" fill="#A972B0"/>
</g>
<path fill-rule="evenodd" clip-rule="evenodd" d="M72.6762 37.293L67.5791 43.5002L63.4208 50.5212L72.6476 43.3186L72.6762 37.293Z" fill="#573DAE"/>
<path fill-rule="evenodd" clip-rule="evenodd" d="M33.7542 83.2748L29.6654 80.0743L33.5333 75.8335L22.2201 69.4346L15.4764 71.1297L15.2514 75.9967C15.2514 75.9967 18.6959 79.9315 23.6458 81.9897C28.8922 84.1723 33.7562 83.2768 33.7562 83.2768L33.7542 83.2748Z" fill="#5729AE"/>
<g style="mix-blend-mode:soft-light" opacity="0.88">
<path fill-rule="evenodd" clip-rule="evenodd" d="M22.3183 68.5615L22.2201 69.4346L15.4764 71.1297L15.3128 70.7462L22.3183 68.5615Z" fill="#A99AF4"/>
</g>
<g style="mix-blend-mode:multiply">
<path fill-rule="evenodd" clip-rule="evenodd" d="M58.2459 34.1787L69.6163 37.5097L65.3414 40.7306L58.2459 34.1787Z" fill="#A972B0"/>
</g>
<path d="M2.52898 48.8677L2.48193 48.7289C2.5842 48.6535 13.4903 40.6941 17.4584 36.5124C21.2506 32.5185 22.7192 29.3404 22.9483 28.8121L19.9374 26.9742L1.50423 41.6854L1.45514 41.5508L19.9415 26.7764L23.1344 28.7203L23.1037 28.7978C23.0894 28.8325 21.7108 32.2472 17.5361 36.641C13.5537 40.8307 2.63125 48.7901 2.52898 48.8656V48.8677Z" fill="#00E7F4"/>
<path d="M2.06467 47.5759L2.01558 47.4372L9.12337 42.0276L15.8957 33.0891L15.1901 32.5424L1.59423 42.6497L1.54923 42.5131L15.2023 32.3486L16.1023 33.0442L16.043 33.1238L9.18474 42.1643L2.06467 47.5759Z" fill="#00E7F4"/>
<path d="M1.38355 39.7205L1.30173 39.6267L11.9276 21.715L23.2306 5.16797L23.3267 5.26588L12.0156 21.8109L1.38355 39.7205Z" fill="#00E7F4"/>
<path d="M0.939697 38.056L6.14526 24.2362L6.25162 24.2647L1.25674 37.1503L7.02479 25.356L16.2046 9.71875L16.3007 9.80646L7.11478 25.4397L0.939697 38.056Z" fill="#00E7F4"/>
<path d="M71.2036 19.0065L54.5069 21.544L41.3938 20.9362L41.404 19.747L41.4449 19.7123L52.7008 10.527L66.0471 7.27344L66.0716 7.47538L52.7397 10.7167L41.5676 19.8306L41.5595 20.7505L54.5273 21.3401L71.2097 18.7882L71.2036 19.0065Z" fill="#00E7F4"/>
<path d="M55.1185 19.4675L47.2621 19.6388L47.2702 18.7515L47.3009 18.7189L53.5046 11.9915L68.9802 8.21582L68.9945 8.42184L53.5762 12.1731L47.4441 18.8147L47.438 19.4369L55.1287 19.2635L68.9925 16.6607L68.9966 16.8749L55.1185 19.4675Z" fill="#00E7F4"/>
<path d="M74.9671 35.3839L66.7384 34.1069L66.718 34.06L64.7871 29.5336L73.2776 19.7812L73.4453 19.8955L65.0264 29.5418L66.8918 33.9131L75.0244 35.1656L74.9671 35.3839Z" fill="#00E7F4"/>
<path d="M74.7155 34.2829L69.2706 33.059L69.2563 33.0101L68.3379 30.0993L68.3645 30.0544L73.611 23.1455L73.7951 23.2373L68.5711 30.1054L69.4465 32.8795L74.7973 34.0728L74.7155 34.2829Z" fill="#00E7F4"/>
<path d="M24.4128 41.732L24.3842 41.5647L35.5235 37.785L52.2508 30.7129L52.2999 30.9006L35.5603 37.9624L24.4128 41.732Z" fill="#00E7F4"/>
<path d="M39.1888 45.8524L39.0722 45.7259L42.1567 41.785L52.2038 33.8848L52.3019 34.0459L42.2528 41.9339L39.1888 45.8524Z" fill="#00E7F4"/>
<path d="M15.6932 71.9847L15.7321 71.8154L31.0461 78.041L31.0052 78.2286L15.6932 71.9847Z" fill="#00E7F4"/>
<path d="M32.8603 75.7889L23.4719 70.2854L23.5251 70.1182L32.9197 75.6094L32.8603 75.7889Z" fill="#00E7F4"/>
<path fill-rule="evenodd" clip-rule="evenodd" d="M8.45248 58.9171L6.86933 62.9376L6.18412 67.1253C6.18412 67.1253 11.2383 70.1769 15.0039 70.3401L13.1692 66.3339L13.9464 64.6102L13.4351 64.2941C11.3181 62.9845 9.59586 61.1242 8.45453 58.915L8.45248 58.9171Z" fill="url(#paint9_linear_206_16323)"/>
<path fill-rule="evenodd" clip-rule="evenodd" d="M5.92436 55.2153L7.59545 56.6228L10.4365 57.7529L11.4654 55.4091L6.87138 53.3203L5.92436 55.2153Z" fill="url(#paint10_linear_206_16323)"/>
<g style="mix-blend-mode:soft-light">
<path fill-rule="evenodd" clip-rule="evenodd" d="M5.92436 55.2153L8.1743 55.7987L10.5715 56.3576L11.4654 55.4091L6.87138 53.3203L5.92436 55.2153Z" fill="#A99AF4"/>
</g>
<g style="mix-blend-mode:soft-light">
<path fill-rule="evenodd" clip-rule="evenodd" d="M8.45248 58.918L7.3541 62.9058L7.05547 66.4082L11.3467 65.8371L13.9485 64.6132L13.4371 64.297C11.3201 62.9874 9.59791 61.1271 8.45657 58.918H8.45248Z" fill="#A99AF4"/>
</g>
<g style="mix-blend-mode:multiply">
<path fill-rule="evenodd" clip-rule="evenodd" d="M11.4654 55.4092L10.5715 56.3577L7.59546 56.6229L11.0624 58.4383L11.4654 55.4092Z" fill="#A972B0"/>
</g>
<g style="mix-blend-mode:multiply">
<path fill-rule="evenodd" clip-rule="evenodd" d="M13.1671 66.336L9.76359 67.6231L15.0019 70.3422L13.9239 66.4033L13.9444 64.6123L13.1671 66.336Z" fill="#A972B0"/>
</g>
<path fill-rule="evenodd" clip-rule="evenodd" d="M80.4018 45.3708L76.4582 60.8979C76.4582 60.8979 85.1103 58.8704 88.3154 56.6021C88.3154 56.6021 90.6145 53.2119 90.9377 43.2637C90.9377 43.2637 90.2258 43.5472 88.9679 43.9083C88.5343 44.0327 84.2553 54.4868 83.6989 54.6234C83.6989 54.6234 85.7219 44.7017 84.6746 44.8772C83.3942 45.0934 81.9563 45.2749 80.4018 45.3708Z" fill="#573DAE"/>
<g style="mix-blend-mode:multiply">
<path fill-rule="evenodd" clip-rule="evenodd" d="M70.2422 18.201L67.4093 14.8271L78.1395 15.0556L77.8164 17.3728L79.4813 19.3454L73.3553 19.839L70.2422 18.201Z" fill="#A972B0"/>
</g>
<g style="mix-blend-mode:multiply">
<path fill-rule="evenodd" clip-rule="evenodd" d="M77.4932 40.5512L75.2944 37.4527L74.5826 42.5115L72.6456 43.3193L72.6742 37.2936L75.0673 35.8148L73.3533 19.8389L77.0371 35.9535H78.5241L75.6789 23.7655L79.105 35.5088L80.9786 35.5741L84.8567 35.6781L84.5989 37.8995L85.8057 38.9846C85.8057 38.9846 80.3977 39.5068 77.487 40.5553L77.4932 40.5512Z" fill="#A972B0"/>
</g>
<g style="mix-blend-mode:multiply">
<path fill-rule="evenodd" clip-rule="evenodd" d="M77.8164 45.3713L76.4582 41.6445L80.4018 45.3713L76.4582 60.8984L73.7562 58.4384L77.8164 45.3713Z" fill="#A972B0"/>
</g>
<g style="mix-blend-mode:soft-light" opacity="0.88">
<path d="M37.8736 22.5968C37.8736 22.5968 41.3938 18.1541 44.9262 14.8271L57.6793 23.8534L51.222 25.1772L37.8736 22.5948V22.5968Z" fill="#A99AF4"/>
</g>
</g>
<defs>
<radialGradient id="paint0_radial_206_16323" cx="0" cy="0" r="1" gradientUnits="userSpaceOnUse" gradientTransform="translate(38.2597 31.4244) rotate(-0.468717) scale(56.5882 56.4337)">
<stop stop-color="#B840C7"/>
<stop offset="0.7" stop-color="#750088"/>
<stop offset="0.95" stop-color="#5E1377"/>
<stop offset="1" stop-color="#8160FF"/>
</radialGradient>
<linearGradient id="paint1_linear_206_16323" x1="15.4555" y1="51.9186" x2="15.0621" y2="3.8293" gradientUnits="userSpaceOnUse">
<stop stop-color="#4F0E6F"/>
<stop offset="1" stop-color="#450086"/>
</linearGradient>
<linearGradient id="paint2_linear_206_16323" x1="62.6558" y1="67.2464" x2="62.6558" y2="6.16593" gradientUnits="userSpaceOnUse">
<stop stop-color="#4F0E6F"/>
<stop offset="1" stop-color="#450086"/>
</linearGradient>
<linearGradient id="paint3_linear_206_16323" x1="-50.0005" y1="49.0294" x2="-45.4691" y2="38.7804" gradientUnits="userSpaceOnUse">
<stop stop-color="#4F0E6F"/>
<stop offset="1" stop-color="#450086"/>
</linearGradient>
<linearGradient id="paint4_linear_206_16323" x1="45.6261" y1="90.2376" x2="50.9538" y2="77.5351" gradientUnits="userSpaceOnUse">
<stop stop-color="#4F0E6F"/>
<stop offset="1" stop-color="#450086"/>
</linearGradient>
<linearGradient id="paint5_linear_206_16323" x1="50.0786" y1="16.1018" x2="50.0786" y2="0.00758611" gradientUnits="userSpaceOnUse">
<stop stop-color="#4F0E6F"/>
<stop offset="1" stop-color="#450086"/>
</linearGradient>
<linearGradient id="paint6_linear_206_16323" x1="53.9676" y1="74.2766" x2="53.9158" y2="67.9472" gradientUnits="userSpaceOnUse">
<stop stop-color="#4F0E6F"/>
<stop offset="1" stop-color="#450086"/>
</linearGradient>
<linearGradient id="paint7_linear_206_16323" x1="38.4068" y1="45.8294" x2="38.2748" y2="29.6929" gradientUnits="userSpaceOnUse">
<stop stop-color="#4F0E6F"/>
<stop offset="1" stop-color="#450086"/>
</linearGradient>
<linearGradient id="paint8_linear_206_16323" x1="26.1373" y1="50.7089" x2="26.1034" y2="46.5621" gradientUnits="userSpaceOnUse">
<stop stop-color="#4F0E6F"/>
<stop offset="1" stop-color="#450086"/>
</linearGradient>
<linearGradient id="paint9_linear_206_16323" x1="10.5962" y1="70.4124" x2="10.5024" y2="58.9347" gradientUnits="userSpaceOnUse">
<stop stop-color="#4F0E6F"/>
<stop offset="1" stop-color="#450086"/>
</linearGradient>
<linearGradient id="paint10_linear_206_16323" x1="8.70475" y1="57.7994" x2="8.66827" y2="53.3405" gradientUnits="userSpaceOnUse">
<stop stop-color="#4F0E6F"/>
<stop offset="1" stop-color="#450086"/>
</linearGradient>
<clipPath id="clip0_206_16323">
<rect width="90" height="88" fill="white" transform="translate(0.939697 0.0078125)"/>
</clipPath>
</defs>
</svg>
