<svg width="85" height="86" viewBox="0 0 85 86" fill="none" xmlns="http://www.w3.org/2000/svg">
<path fill-rule="evenodd" clip-rule="evenodd" d="M42.3464 3.63281C64.0977 3.63281 81.724 21.2591 81.724 43.0103C81.724 64.7616 64.0977 82.3879 42.3464 82.3879C20.5952 82.3879 2.96892 64.749 2.96892 42.9977C2.96892 21.2464 20.5952 3.63281 42.3464 3.63281Z" fill="url(#paint0_radial_206_13717)"/>
<g style="mix-blend-mode:multiply">
<path fill-rule="evenodd" clip-rule="evenodd" d="M72.1836 40.4164C72.1962 40.9352 72.9934 41.5172 73.6514 40.4923C74.1449 39.7078 74.3347 38.2147 73.8159 37.2783C73.5628 36.8228 72.0317 35.317 71.4876 36.0509C71.2093 36.4179 71.3611 37.1138 71.5382 37.5314C72.0697 38.8727 72.133 38.9359 72.1836 40.4164ZM30.9207 72.7839C31.3382 72.9231 34.5396 73.0117 34.6281 72.7586C34.7167 72.4929 34.6788 72.379 34.5522 72.1892C34.2232 71.7084 32.1101 70.9365 31.5534 71.1516C31.0852 71.3161 30.0096 72.4929 30.9207 72.7839ZM42.6504 73.6696C44.308 73.0117 46.2946 71.2655 43.9158 70.1267C42.777 69.5826 33.8183 68.4691 35.2229 71.6198C35.7669 72.8472 40.0312 74.7199 42.6504 73.6823V73.6696ZM42.3341 3.63281C38.6772 3.63281 35.1469 4.1263 31.7811 5.06265C33.0465 5.12592 34.3118 5.05 35.5771 5.03735C36.5768 5.03735 37.589 4.89816 38.5887 4.97408C39.9679 5.07531 41.3218 5.49287 42.701 5.55614C44.2195 5.63206 45.7505 5.30307 47.2816 5.4296C48.4457 5.53083 49.5972 5.7839 50.6854 6.21412C51.8874 6.69495 52.8997 7.58069 54.0891 8.11213C55.8733 8.9093 57.8219 9.35217 59.5807 10.2C60.4538 10.6175 61.1498 11.3388 61.9343 11.8955C63.1743 12.7939 64.6927 13.3886 65.6544 14.578C66.3124 15.3879 66.072 16.6659 66.5654 17.5896C67.6663 19.6141 69.2227 21.3729 70.4247 23.3469C71.1839 24.5996 72.0697 25.8523 72.4493 27.2695C73.0313 29.4332 72.8162 31.7488 73.2971 33.9378C73.6008 35.3297 74.6257 36.5191 74.8028 37.9237C75.0306 39.6825 74.8028 41.4793 74.4738 43.2128C73.9171 46.199 72.9301 49.084 72.1836 52.0322C71.9052 53.1584 71.8925 54.3731 71.3991 55.436C70.9941 56.3091 70.1843 56.9291 69.5643 57.663C68.3243 59.1308 66.8565 60.4215 65.8442 62.0411C65.0597 63.2938 65.0597 64.9514 64.2119 66.1535C63.3768 67.3429 62.238 68.3679 60.9473 69.0258C59.7958 69.6205 58.366 69.3675 57.1513 69.8103C55.6455 70.3544 54.2789 71.2528 52.8364 71.9614C50.7233 73.0117 48.7241 74.315 46.4971 75.0995C45.257 75.5297 43.8905 75.6436 42.5745 75.555C40.3222 75.4032 38.1458 74.6187 35.9061 74.3782C33.7424 74.1378 31.5534 74.2011 29.3643 74.1125C27.9977 74.0619 26.5426 74.4415 25.2519 73.986C23.2274 73.2774 21.2028 72.2398 19.6971 70.7214C18.6848 69.6965 18.9126 67.8997 18.0648 66.7356C17.1031 65.4196 15.5847 64.5971 14.4079 63.471C12.6491 61.7881 10.6119 60.3203 9.24532 58.3084C8.28366 56.9038 8.28366 55.0311 7.61303 53.4747C6.98035 51.9943 5.72766 50.7796 5.32275 49.2232C4.63947 46.6166 4.27252 43.8834 4.4117 41.1882C4.53824 38.5563 5.89216 36.1016 6.10727 33.4696C6.25911 31.6349 6.10727 29.7875 5.94277 27.9401C4.01945 32.5839 2.95656 37.6706 2.95656 43.0103C2.95656 64.7616 20.5828 82.3879 42.3341 82.3879C64.0854 82.3879 81.7116 64.7616 81.7116 43.0103C81.7116 21.2591 64.0854 3.63281 42.3467 3.63281H42.3341Z" fill="url(#paint1_radial_206_13717)"/>
</g>
<path fill-rule="evenodd" clip-rule="evenodd" d="M64.5916 22.5122C67.5272 21.0571 70.0832 19.2097 70.9563 16.5777C72.2976 12.5033 70.1718 12.9842 69.2734 11.2886C68.2991 9.45385 68.9571 8.88444 66.148 6.85989C65.7557 6.56886 65.3888 6.35375 64.9459 6.13864C60.1502 3.77245 54.5574 2.58303 50.1161 2.6716C46.2947 2.74752 42.7518 3.45611 39.8035 4.3039C48.2307 4.60758 55.304 5.59455 59.758 7.8089C61.9091 8.88444 63.1238 10.2384 63.921 11.9466C64.6928 13.6168 67.8056 14.1609 66.7047 16.6916C65.6925 19.0199 61.3397 21.2722 57.1514 22.9424C55.1142 23.7522 53.2288 24.9164 51.0018 25.3719C44.5106 26.6752 37.3867 26.7638 30.4906 27.7128C25.5051 28.3961 21.165 30.6737 16.7616 33.0272C14.4207 34.2799 11.7129 34.0901 8.97971 36.4816C6.52494 38.62 5.75308 41.7581 4.72815 44.6304C2.71626 50.2865 3.09586 56.8284 5.77839 63.56C6.25922 64.7747 6.84128 65.9641 7.48661 67.103C0.843546 51.9315 4.20936 40.303 16.3314 34.1534C18.6849 32.964 21.7597 32.8627 24.7839 32.0909C27.4411 31.4202 29.9718 29.4083 33.1351 29.6994C39.7402 30.3194 43.2326 29.5349 48.1421 27.7634C54.4056 25.5111 60.1882 24.6886 64.5916 22.4996V22.5122Z" fill="url(#paint2_radial_206_13717)"/>
<path fill-rule="evenodd" clip-rule="evenodd" d="M40.5751 17.4126C43.574 16.7673 46.9778 14.5909 49.7868 13.4774C52.5326 12.3892 55.3796 11.9716 56.7209 10.6683C56.7589 10.6304 56.8095 10.5924 56.8474 10.5418C57.7838 9.58013 58.2014 8.31478 58.0748 7.06209C58.0748 6.99883 58.0622 6.93556 58.0495 6.87229C57.9736 6.31554 57.7711 5.75879 57.4675 5.24C56.9993 4.46814 56.4931 3.74689 55.7719 3.2281C55.7213 3.19014 55.6707 3.15218 55.6074 3.11422C51.4191 0.203923 44.3458 0.317804 38.095 0.203923C33.6663 0.128003 28.6556 0.431686 24.8722 2.08929C21.0255 3.78485 18.4442 7.45435 15.2049 9.98504C14.3825 10.6304 13.4588 11.1998 12.5604 11.7818C11.4975 12.4778 9.90315 13.1357 9.09333 14.0468C7.03082 16.3497 5.85405 18.969 4.47482 21.7527C3.34867 24.0177 2.46293 26.4219 1.85556 28.9779C3.2854 25.2957 4.95565 25.5994 7.76472 24.1569C8.2329 23.9165 8.73904 23.6255 9.28313 23.2585C12.1934 21.2846 14.9898 19.6143 17.9634 18.8425C24.6065 17.1089 33.5904 18.9184 40.5878 17.4126H40.5751ZM48.1419 27.7631C43.2323 29.5346 39.7526 30.3065 33.1349 29.6991C29.9715 29.4081 27.4408 31.42 24.7836 32.0906C21.7721 32.8625 18.6973 32.951 16.3311 34.1531C8.44801 38.1516 4.25972 44.4657 4.13318 52.5639C4.05726 56.9167 5.15811 61.8009 7.47369 67.1027C7.96718 67.9631 8.49862 68.7983 9.06803 69.6081C10.3713 71.4555 12.4845 73.0498 14.0661 74.8719C15.458 76.4916 16.6474 77.8961 18.2038 79.288C21.0255 81.8313 25.353 82.7677 30.2119 83.4383C34.7419 84.071 39.373 85.5514 44.1181 84.9567C47.4459 84.5392 51.4318 83.7167 55.4429 82.3248C61.466 80.237 67.4763 76.6054 71.1838 70.9493C70.9307 71.2657 70.665 71.5567 70.3613 71.8604C66.5526 75.6311 60.9219 79.2753 55.5694 80.8064C52.8743 81.5782 50.1538 81.9958 47.5092 82.0464C44.6369 82.1097 41.8658 81.7301 39.3857 80.895C33.1602 78.8198 27.3649 77.972 22.9995 74.0874C17.9001 69.5575 16.1666 60.7127 17.685 55.6387C18.3683 53.3611 20.6206 51.7667 22.2909 49.8434C25.8591 45.7437 26.631 40.366 36.0072 40.6443C39.9424 40.7582 43.9156 37.0508 48.4456 36.4054C52.7098 35.7854 56.5691 35.6462 60.808 32.1412C63.1742 30.1799 65.4644 29.7624 67.7294 28.4591C70.9181 26.637 73.8031 24.2202 74.6508 20.4874C74.9545 19.1461 75.0051 17.6277 74.7015 15.9069C74.5623 15.464 74.3851 15.0211 74.1574 14.5529C72.4238 10.9467 68.9694 8.11233 64.9456 6.12574C65.3885 6.34085 65.7428 6.55595 66.1477 6.84698C68.9694 8.87154 68.2988 9.44094 69.2731 11.2757C70.1462 12.908 72.1328 12.5284 71.1079 16.0967C71.0699 16.2485 71.0193 16.4003 70.9687 16.5648C70.1083 19.1967 67.5396 21.0442 64.604 22.4993C60.2006 24.6883 54.418 25.4982 48.1545 27.7631H48.1419ZM78.3963 27.1431C84.8116 30.9265 84.6597 44.162 83.2425 50.8936C81.7115 58.1567 76.2578 66.7737 68.0584 67.9884C62.2252 68.8489 59.9475 69.1526 57.0879 67.5456C55.1519 66.4574 54.2029 61.6238 54.8862 60.2445C55.4429 59.1184 58.0495 58.2579 60.7827 56.9799C64.1232 55.4109 66.8943 54.8415 69.3237 51.0202C71.6773 47.338 75.5745 47.7429 77.8522 42.8334C79.6616 38.9235 80.8384 33.3307 78.371 27.1431H78.3963Z" fill="url(#paint3_radial_206_13717)"/>
<path fill-rule="evenodd" clip-rule="evenodd" d="M23.6576 69.5958C21.8988 66.2426 22.4303 61.8645 22.6833 58.3342C22.8478 56.0693 23.4805 53.9055 24.632 52.0328C27.6688 47.098 33.0845 43.6183 39.3479 41.2774C46.7502 38.5189 56.8603 37.9622 62.4404 35.5833C64.8699 34.5458 66.5149 32.0657 68.5141 29.9905C70.2982 28.1431 72.1077 28.4341 73.7526 24.5748C74.2588 23.3728 74.7016 22.158 74.9421 20.918C75.2584 19.3237 75.2584 17.6661 74.689 15.9072C74.9927 17.6281 74.9547 19.1465 74.6384 20.4878C73.7906 24.2205 70.8929 26.6374 67.7169 28.4594C65.452 29.7628 63.1617 30.1803 60.7955 32.1416C56.5566 35.6466 52.6973 35.7858 48.4331 36.4058C43.9032 37.0638 39.93 40.7586 35.9947 40.6447C26.6185 40.3663 25.8467 45.7441 22.2784 49.8438C20.5955 51.7671 18.3558 53.3614 17.6726 55.6391C16.1541 60.7004 17.8877 69.5578 22.987 74.0878C27.3524 77.9724 33.1477 78.8202 39.3732 80.8953C41.8659 81.7305 44.6244 82.0974 47.4967 82.0468C50.1286 81.9962 52.8618 81.5786 55.557 80.8068C60.8967 79.2757 66.5275 75.6315 70.3489 71.8608C71.3105 70.8991 71.9811 69.9248 72.5252 68.6721C72.6265 68.419 72.7404 68.1786 72.8416 67.9255C69.0582 72.3796 64.4523 75.2772 58.6824 76.8968C56.3288 77.5548 53.7475 77.5928 51.3307 78.3646C42.4354 81.1737 39.4744 80.0982 34.9319 78.5798C32.0469 77.6181 29.3137 76.0238 27.4157 74.3662C25.8467 72.9869 24.5813 71.342 23.6576 69.5958Z" fill="url(#paint4_radial_206_13717)"/>
<path fill-rule="evenodd" clip-rule="evenodd" d="M49.7742 13.4776C46.9651 14.5911 43.574 16.7675 40.5625 17.4129C33.5651 18.9186 24.5812 17.1092 17.9381 18.8427C14.9772 19.6145 12.1681 21.2848 9.25783 23.2587C5.49976 25.8147 3.51317 24.6759 1.83026 28.9781C0.881251 33.0778 0.602876 37.5318 1.18493 42.2895C1.57719 45.5288 2.27313 48.0848 3.46255 49.3122C2.55151 40.7205 3.28541 33.9762 6.67653 29.2691C7.68881 27.8646 9.28314 26.4221 10.8901 25.6376C12.8261 24.6886 14.9139 24.4988 17.5585 23.7902C19.9627 23.1575 22.3415 21.2215 25.4036 20.5256C29.1997 19.6652 33.2108 19.8929 37.2599 19.817C40.2588 19.7664 44.9532 19.9562 48.6733 19.2982C52.2669 18.6529 53.6335 17.1345 56.0882 14.4519C57.8977 12.4907 61.6305 12.0731 58.4924 7.04968C58.1254 6.46762 57.7965 5.83495 57.4422 5.24023C58.4671 6.97376 58.2267 9.09954 56.8221 10.542C56.7842 10.58 56.7462 10.6179 56.6956 10.6686C55.3543 11.9719 52.5073 12.3894 49.7615 13.4776H49.7742Z" fill="url(#paint5_radial_206_13717)"/>
<path style="mix-blend-mode:screen" opacity="0.5" fill-rule="evenodd" clip-rule="evenodd" d="M20.785 11.9594C17.571 14.4015 15.6856 14.7431 13.3701 18.5771C12.788 19.5261 12.3198 20.5384 11.8896 21.5634C13.8889 20.3486 15.8881 19.3743 17.9506 18.8302C24.5937 17.0967 33.5776 18.9061 40.575 17.4004C43.5738 16.755 46.9776 14.5786 49.7867 13.4651C51.5076 12.7819 53.279 12.3643 54.6836 11.8202C54.3419 11.1243 53.9876 10.441 53.4435 9.88422C49.5083 5.84777 47.2687 5.73389 42.511 5.7845C40.8027 5.79716 39.1198 5.53143 37.4116 5.51878C36.045 5.51878 34.6532 5.46817 33.3119 5.72124C31.3506 6.08819 29.402 6.61963 27.5546 7.37884C24.0622 8.79602 23.3916 9.97279 20.7976 11.9467L20.785 11.9594ZM33.1347 29.6995C29.9714 29.4085 27.4407 31.4204 24.7835 32.091C21.772 32.8629 18.6972 32.9515 16.331 34.1535C13.5092 35.5834 11.1684 37.3042 9.30831 39.3035C8.10623 40.5941 7.80255 42.3783 8.51114 43.9853C8.68829 44.3902 8.87809 44.8204 9.06789 45.2633C11.1177 50.0083 10.3079 50.2234 14.8252 53.6778C15.6097 54.2725 16.6726 54.7913 17.8114 55.2468C18.6212 53.1843 20.7091 51.6659 22.2781 49.8565C25.8464 45.7567 26.6182 40.379 35.9944 40.6574C39.9296 40.7713 43.9028 37.0638 48.4328 36.4185C50.9761 36.0515 53.3803 35.8491 55.8097 35.0013C56.9485 34.6091 57.7331 33.736 58.0241 32.5845C58.1886 31.9518 58.3657 31.3318 58.5935 30.7118C59.3527 28.7125 59.8588 26.5109 59.9727 24.2838C56.4424 25.372 52.3933 26.2451 48.1291 27.7762C43.2195 29.5477 39.7398 30.3195 33.1221 29.7122L33.1347 29.6995Z" fill="url(#paint6_radial_206_13717)"/>
<path style="mix-blend-mode:screen" fill-rule="evenodd" clip-rule="evenodd" d="M54.9752 38.9994C54.0135 38.9614 53.0392 38.8982 52.0902 39.0247C50.4959 39.2398 48.9774 39.8472 47.4084 40.1762C46.1431 40.4292 45.1308 40.3913 43.9034 40.7962C43.4099 40.9607 42.9291 41.644 42.4356 41.8338C41.4107 42.226 40.2466 42.0995 39.1837 42.4032C36.1848 43.2763 32.2749 45.2755 29.8075 47.1229C29.2381 47.5405 29.1368 48.3883 28.656 48.907C28.1499 49.4638 27.378 49.7548 26.8719 50.3116C25.8849 51.3871 23.7718 54.8542 24.3159 56.3726C24.4677 56.7901 24.6196 57.0938 24.9359 57.4102C28.1372 58.0049 30.7312 57.9543 34.3501 56.651C41.9674 53.9052 41.2462 51.6908 46.0798 47.4013C47.5856 46.0727 49.6228 45.4273 51.1159 44.0861C53.5074 41.9476 54.4817 40.4545 54.9625 39.012L54.9752 38.9994ZM14.3196 25.1439C12.1559 25.4349 10.764 26.2953 9.52399 27.8011C8.80275 29.3322 8.09415 30.8632 7.56271 32.4576C6.65166 35.1401 6.37328 37.0001 6.53778 38.6957C7.10718 37.6961 7.75251 36.5699 8.19538 36.0764C8.77744 35.4058 9.44807 34.7858 10.2326 34.3809C11.6245 33.6723 13.9147 33.609 15.8128 32.5588C17.1667 31.8122 18.2296 30.5722 19.6341 29.9395C20.8362 29.3954 22.2281 29.4967 23.4934 29.1044C24.4424 28.8134 25.2902 28.2313 26.2392 27.9276C29.7062 26.8015 30.8957 26.966 33.8566 26.4345C34.6917 26.2827 35.4383 25.7133 36.286 25.5994C37.7285 25.4222 39.1963 25.65 40.6515 25.5614C42.5368 25.4475 44.4095 25.1059 46.2949 24.992C47.6235 24.9035 48.9648 25.1312 50.2807 24.9541C52.7735 24.6377 57.0124 23.385 57.4679 20.5633C57.1895 19.6143 56.7973 18.6906 56.2911 17.8175C56.076 17.4632 55.785 17.1848 55.4687 16.9191C54.7474 16.704 54.6841 16.7293 53.7731 17.5518C51.4196 19.6523 51.5714 20.1837 48.1297 20.8037C47.206 20.9682 46.2443 20.7152 45.3206 20.867C44.1691 21.0568 43.1062 21.8034 41.9421 21.8287C40.1959 21.8666 38.5004 21.2972 36.7795 21.0695C33.4264 20.6139 27.4413 20.2343 24.2779 21.5123C22.4052 22.2715 20.7982 23.5875 18.9888 24.5112C18.4573 24.7769 17.8879 24.9794 17.2932 25.0553C16.3189 25.1818 15.3066 24.992 14.3323 25.1186L14.3196 25.1439ZM53.0012 46.4649C53.5833 48.3123 56.6328 45.2882 57.3414 45.2249C64.5538 44.6049 50.8628 39.6953 53.0012 46.4649ZM51.8371 47.1103C50.4326 46.0094 47.2439 47.3886 46.4214 48.9703C45.7382 50.2736 44.283 53.437 46.4341 54.2468C48.5978 55.0693 50.2808 50.7038 52.4065 50.0585C53.5453 49.7169 52.5078 47.6417 51.8371 47.1103ZM28.7572 62.3703C32.9582 62.9777 42.2711 63.4459 38.8041 59.4094C36.7163 56.9799 35.9317 58.4224 32.3508 59.3082C29.9087 59.9029 29.1875 58.9665 27.6943 59.0551C25.5939 59.1816 24.9359 61.8262 28.7699 62.3703H28.7572ZM40.4237 60.447C40.7654 61.105 42.0813 59.6372 42.1952 59.1943C42.6254 57.4608 41.7903 57.891 40.3604 58.1061C38.3992 58.3971 39.9429 59.498 40.4237 60.447Z" fill="url(#paint7_radial_206_13717)"/>
<path style="mix-blend-mode:multiply" fill-rule="evenodd" clip-rule="evenodd" d="M22.9871 74.0874C21.456 72.7335 20.2413 70.9873 19.305 69.0766C18.7609 68.5072 18.5964 67.6848 18.3939 66.8876C18.2547 66.4953 18.1282 66.0904 18.0143 65.6855C17.9384 65.521 17.8498 65.3565 17.7359 65.2047C15.8253 62.5981 11.3712 60.2825 9.13159 56.9799C8.19523 55.6007 8.19523 53.7913 7.53725 52.2602C7.27153 51.6275 6.85397 51.3745 6.44906 51.1467C4.75349 50.2357 4.69023 48.5654 4.99391 46.7939C4.44981 48.5907 4.17143 50.514 4.13347 52.5386C4.05755 56.8914 5.1584 61.7756 7.47398 67.0774C7.96747 67.9378 8.49891 68.773 9.06832 69.5828C10.3716 71.4302 12.4847 73.0245 14.0664 74.8466C15.4583 76.4663 16.6477 77.8708 18.2041 79.2627C21.0258 81.806 25.3533 82.7424 30.2122 83.413C34.7422 84.0457 39.3733 85.5261 44.1184 84.9314C47.4462 84.5138 51.4321 83.6914 55.4432 82.2995C61.4662 80.2117 67.4766 76.5801 71.1841 70.924C70.931 71.2404 70.6653 71.5314 70.3616 71.8351C66.5529 75.6058 60.9221 79.25 55.5697 80.7811C52.8746 81.5529 50.1541 81.9705 47.5095 82.0211C44.6372 82.0844 41.8661 81.7048 39.386 80.8697C33.1605 78.7945 27.3652 77.9467 22.9998 74.0621L22.9871 74.0874ZM6.44906 19.3612C6.72743 18.4882 6.80335 17.6277 7.13234 16.6914C6.14537 18.2857 5.34821 19.9939 4.46246 21.7527C3.33631 24.0177 2.45057 26.4219 1.8432 28.9779C2.89344 26.2953 4.05755 25.7259 5.7025 25.0553C5.7025 24.9794 5.7025 24.9161 5.68985 24.8402C5.61393 23.8532 5.46209 22.9548 5.58862 21.9679C5.71516 21.0315 6.15803 20.247 6.44906 19.3486V19.3612ZM15.0534 11.0732C16.0277 10.8075 17.1918 10.8834 17.989 10.2381C19.8617 8.73235 18.5078 7.23924 22.7087 5.39184C25.6443 4.10119 27.6436 4.20241 30.8069 4.43017C32.7176 4.56936 35.3369 3.82281 37.7031 3.88608C37.8549 3.88608 37.9941 3.88608 38.1459 3.91138C38.8039 3.962 39.4619 4.07588 40.1072 4.20241C40.3603 4.25303 40.6134 4.29099 40.8791 4.3416C41.3093 4.41752 41.7395 4.46814 42.1697 4.49344C42.7518 4.51875 43.2832 4.51875 43.7641 4.49344C45.8645 4.41752 47.3323 4.08853 49.939 5.12611C51.1157 5.59429 52.166 7.03679 53.3174 7.55558C54.8105 8.22621 56.0759 8.96011 57.4804 9.6687C57.9486 8.87154 58.1384 7.96049 58.0498 7.06209C58.0498 6.99883 58.0372 6.93556 58.0245 6.87229C57.9486 6.31554 57.7461 5.75879 57.4425 5.24C56.9743 4.46814 56.4681 3.74689 55.7469 3.2281C55.6963 3.19014 55.6457 3.15218 55.5824 3.11422C51.4194 0.203923 44.3461 0.317804 38.0953 0.203923C33.6666 0.128003 28.6559 0.431686 24.8725 2.08929C21.0258 3.78485 18.4445 7.45435 15.2052 9.98504C14.3954 10.6177 13.5097 11.1745 12.6366 11.7439C13.4464 11.5161 14.2562 11.2883 15.0661 11.0606L15.0534 11.0732ZM70.9437 16.5775C70.3743 18.2984 69.0836 19.6776 67.4387 20.8417C69.7922 21.1201 72.829 23.423 70.7159 26.4345C72.5886 24.9035 74.0817 22.9928 74.6511 20.4874C74.9548 19.1461 75.0054 17.6277 74.7018 15.9069C74.5626 15.464 74.3854 15.0211 74.1577 14.5529C72.4241 10.9467 68.9697 8.11233 64.9459 6.12574C65.3888 6.34085 65.7431 6.55595 66.148 6.84698C68.9697 8.87154 68.2991 9.44094 69.2734 11.2757C70.1465 12.908 72.1331 12.5284 71.1082 16.0967C71.0702 16.2485 71.0196 16.4003 70.969 16.5648L70.9437 16.5775ZM70.3363 57.0559C69.1342 58.4857 65.3382 59.0425 64.3386 60.6241C63.5667 61.8389 63.5667 63.4585 62.7442 64.6353C61.9344 65.7994 60.8083 66.7864 59.5556 67.4443C58.9988 67.7354 58.3661 67.824 57.7208 67.8872C58.9229 68.4566 60.0744 68.697 61.5169 68.697C63.1618 68.697 65.1737 68.4187 68.046 67.9884C70.7412 67.5962 73.1327 66.3941 75.1826 64.7112C79.3962 61.2695 82.1926 55.7652 83.2175 50.8936C84.5714 44.4783 84.7612 32.1792 79.257 27.7505C81.6358 30.433 83.2302 34.7352 81.484 38.8602C81.4334 38.9867 81.3701 39.1133 81.3069 39.2398C80.3325 41.2897 78.1308 43.9849 76.7643 46.6421C75.3344 49.4258 75.7014 49.8054 72.9935 51.6655C72.7152 51.8553 72.4115 52.0578 72.1204 52.2349C71.3233 52.7537 70.5261 53.2219 69.9947 53.5129C71.8294 54.7403 71.1841 56.0309 70.3237 57.0432L70.3363 57.0559Z" fill="url(#paint8_radial_206_13717)"/>
<path fill-rule="evenodd" clip-rule="evenodd" d="M79.269 27.7509C78.9907 27.5232 78.6996 27.3207 78.3833 27.1436C80.8381 33.3311 79.6739 38.9239 77.8645 42.8338C76.6751 45.3898 75.0554 46.5033 73.4484 47.503C71.9553 48.4267 70.4622 49.2491 69.3361 51.0206C66.9066 54.8293 64.1355 55.4114 60.795 56.9804C58.0745 58.2584 55.4552 59.1188 54.8985 60.245C54.3797 61.2952 54.7973 64.3067 55.8602 66.1921C55.5185 64.8635 55.5691 63.8639 56.0879 62.8895C57.0496 61.0928 60.8583 58.1951 62.5538 56.993C64.958 55.2848 67.2229 54.9052 69.6904 53.6778C70.1839 53.4374 71.1582 52.868 72.1325 52.2353C72.4235 52.0455 72.7145 51.8557 73.0056 51.6659C75.7261 49.8059 75.3465 49.4263 76.7763 46.6425C78.1429 43.9853 80.3319 41.3028 81.3189 39.2402C81.3822 39.1137 81.4328 38.9872 81.496 38.8606C83.2422 34.7356 81.6479 30.4208 79.269 27.7509Z" fill="url(#paint9_radial_206_13717)"/>
<path style="mix-blend-mode:screen" fill-rule="evenodd" clip-rule="evenodd" d="M40.5751 17.4126C43.574 16.7673 46.9778 14.5909 49.7868 13.4774C52.5326 12.3892 55.3796 11.9716 56.7209 10.6683C56.7589 10.6304 56.8095 10.5924 56.8474 10.5418C57.7838 9.58013 58.2014 8.31478 58.0748 7.06209C58.0748 6.99883 58.0622 6.93556 58.0495 6.87229C57.9736 6.31554 57.7711 5.75879 57.4675 5.24C56.9993 4.46814 56.4931 3.74689 55.7719 3.2281C55.7213 3.19014 55.6707 3.15218 55.6074 3.11422C51.4191 0.203923 44.3458 0.317804 38.095 0.203923C33.6663 0.128003 28.6556 0.431686 24.8722 2.08929C21.0255 3.78485 18.4442 7.45435 15.2049 9.98504C14.3825 10.6304 13.4588 11.1998 12.5604 11.7818C11.4975 12.4778 9.90315 13.1357 9.09333 14.0468C7.03082 16.3497 5.85405 18.969 4.47482 21.7527C3.34867 24.0177 2.46293 26.4219 1.85556 28.9779C3.2854 25.2957 4.95565 25.5994 7.76472 24.1569C8.2329 23.9165 8.73904 23.6255 9.28313 23.2585C12.1934 21.2846 14.9898 19.6143 17.9634 18.8425C24.6065 17.1089 33.5904 18.9184 40.5878 17.4126H40.5751Z" fill="url(#paint10_radial_206_13717)"/>
<path style="mix-blend-mode:screen" fill-rule="evenodd" clip-rule="evenodd" d="M48.1416 27.7634C43.2321 29.5349 39.7524 30.3067 33.1346 29.6993C29.9712 29.4083 27.4405 31.4202 24.7833 32.0909C21.7718 32.8627 18.697 32.9513 16.3308 34.1534C8.44772 38.1519 4.25943 44.4659 4.1329 52.5641C4.05698 56.9169 5.15783 61.8011 7.47341 67.1029C7.96689 67.9634 8.49834 68.7985 9.06774 69.6083C10.371 71.4557 12.4842 73.0501 14.0659 74.8722C15.4577 76.4918 16.6472 77.8963 18.2035 79.2882C21.0253 81.8316 25.3527 82.7679 30.2117 83.4385C34.7416 84.0712 39.3727 85.5517 44.1178 84.957C47.4456 84.5394 51.4315 83.7169 55.4426 82.325C61.4657 80.2372 67.4761 76.6057 71.1835 70.9496C70.9305 71.2659 70.6647 71.557 70.361 71.8606C66.5524 75.6314 60.9216 79.2756 55.5692 80.8066C52.874 81.5785 50.1535 81.996 47.5089 82.0467C44.6366 82.1099 41.8655 81.7303 39.3854 80.8952C33.1599 78.82 27.3646 77.9723 22.9992 74.0876C17.8998 69.5577 16.1663 60.713 17.6847 55.6389C18.368 53.3613 20.6203 51.767 22.2906 49.8436C25.8589 45.7439 26.6307 40.3662 36.0069 40.6446C39.9422 40.7585 43.9153 37.051 48.4453 36.4057C52.7095 35.7857 56.5688 35.6465 60.8077 32.1415C63.1739 30.1802 65.4642 29.7626 67.7291 28.4593C70.9178 26.6372 73.8028 24.2204 74.6506 20.4876C74.9542 19.1464 75.0049 17.628 74.7012 15.9071C74.562 15.4642 74.3848 15.0214 74.1571 14.5532C72.4236 10.9469 68.9692 8.11257 64.9454 6.12598C65.3882 6.34109 65.7425 6.55619 66.1474 6.84722C68.9692 8.87177 68.2985 9.44118 69.2729 11.2759C70.1459 12.9082 72.1325 12.5286 71.1076 16.0969C71.0696 16.2487 71.019 16.4006 70.9684 16.5651C70.108 19.197 67.5393 21.0444 64.6037 22.4995C60.2003 24.6886 54.4177 25.4984 48.1542 27.7634H48.1416Z" fill="url(#paint11_linear_206_13717)"/>
<defs>
<radialGradient id="paint0_radial_206_13717" cx="0" cy="0" r="1" gradientUnits="userSpaceOnUse" gradientTransform="translate(34.5393 22.7901) scale(68.4551)">
<stop stop-color="#71F5FF"/>
<stop offset="0.15" stop-color="#66E8FF"/>
<stop offset="0.43" stop-color="#4CC8FF"/>
<stop offset="0.5" stop-color="#44BFFF"/>
<stop offset="0.92" stop-color="#CE2FEB"/>
</radialGradient>
<radialGradient id="paint1_radial_206_13717" cx="0" cy="0" r="1" gradientUnits="userSpaceOnUse" gradientTransform="translate(35.9821 32.6092) scale(61.8501 61.85)">
<stop offset="0.33" stop-color="#F5F5FF"/>
<stop offset="0.46" stop-color="#EFE9FA"/>
<stop offset="0.68" stop-color="#E1CCED"/>
<stop offset="0.98" stop-color="#C99CD8"/>
<stop offset="1" stop-color="#C899D7"/>
</radialGradient>
<radialGradient id="paint2_radial_206_13717" cx="0" cy="0" r="1" gradientUnits="userSpaceOnUse" gradientTransform="translate(22.8985 31.4076) scale(53.5367 53.5367)">
<stop stop-color="#E87923"/>
<stop offset="1" stop-color="#AD4200"/>
</radialGradient>
<radialGradient id="paint3_radial_206_13717" cx="0" cy="0" r="1" gradientUnits="userSpaceOnUse" gradientTransform="translate(33.9953 22.7144) scale(67.2404 67.2404)">
<stop stop-color="#ED9600"/>
<stop offset="1" stop-color="#E94E1B"/>
</radialGradient>
<radialGradient id="paint4_radial_206_13717" cx="0" cy="0" r="1" gradientUnits="userSpaceOnUse" gradientTransform="translate(45.5734 71.2281) scale(63.1787)">
<stop stop-color="#F5812A"/>
<stop offset="1" stop-color="#B84706"/>
</radialGradient>
<radialGradient id="paint5_radial_206_13717" cx="0" cy="0" r="1" gradientUnits="userSpaceOnUse" gradientTransform="translate(21.557 22.7273) scale(51.702 51.702)">
<stop stop-color="#F5812A"/>
<stop offset="1" stop-color="#BD5519"/>
</radialGradient>
<radialGradient id="paint6_radial_206_13717" cx="0" cy="0" r="1" gradientUnits="userSpaceOnUse" gradientTransform="translate(31.7555 19.1212) scale(51.4236)">
<stop stop-color="#A48A7B"/>
<stop offset="1" stop-color="#000A00"/>
</radialGradient>
<radialGradient id="paint7_radial_206_13717" cx="0" cy="0" r="1" gradientUnits="userSpaceOnUse" gradientTransform="translate(30.0985 18.1465) scale(53.1318 53.1318)">
<stop stop-color="#C2F5F4"/>
<stop offset="1" stop-color="#000012"/>
</radialGradient>
<radialGradient id="paint8_radial_206_13717" cx="0" cy="0" r="1" gradientUnits="userSpaceOnUse" gradientTransform="translate(41.4991 26.4725) scale(66.3294 66.3294)">
<stop offset="0.33" stop-color="#E6F5F5"/>
<stop offset="0.46" stop-color="#E4F1F0"/>
<stop offset="0.61" stop-color="#E0E6E2"/>
<stop offset="0.76" stop-color="#DAD3CA"/>
<stop offset="0.92" stop-color="#D1BAAA"/>
<stop offset="1" stop-color="#CCAC99"/>
</radialGradient>
<radialGradient id="paint9_radial_206_13717" cx="0" cy="0" r="1" gradientUnits="userSpaceOnUse" gradientTransform="translate(57.5431 54.7534) scale(34.797 34.797)">
<stop stop-color="#D45C00"/>
<stop offset="1" stop-color="#8C3500"/>
</radialGradient>
<radialGradient id="paint10_radial_206_13717" cx="0" cy="0" r="1" gradientUnits="userSpaceOnUse" gradientTransform="translate(51.9632 38.759) scale(52.2461 52.2461)">
<stop offset="0.68"/>
<stop offset="0.72" stop-color="#030200"/>
<stop offset="0.76" stop-color="#0F0800"/>
<stop offset="0.8" stop-color="#231200"/>
<stop offset="0.84" stop-color="#3F2100"/>
<stop offset="0.88" stop-color="#633300"/>
<stop offset="0.92" stop-color="#8F4A00"/>
<stop offset="0.96" stop-color="#C36500"/>
<stop offset="1" stop-color="#F98100"/>
</radialGradient>
<linearGradient id="paint11_linear_206_13717" x1="13.0409" y1="10.4281" x2="52.0895" y2="53.1841" gradientUnits="userSpaceOnUse">
<stop stop-color="#F98100"/>
<stop offset="0.08" stop-color="#F57E00"/>
<stop offset="0.17" stop-color="#E97800"/>
<stop offset="0.25" stop-color="#D46E00"/>
<stop offset="0.33" stop-color="#B85F00"/>
<stop offset="0.41" stop-color="#944C00"/>
<stop offset="0.5" stop-color="#683500"/>
<stop offset="0.58" stop-color="#341B00"/>
<stop offset="0.65"/>
</linearGradient>
</defs>
</svg>
