<svg width="84" height="84" viewBox="0 0 84 84" fill="none" xmlns="http://www.w3.org/2000/svg">
<g clip-path="url(#clip0_206_16966)">
<path d="M83.9999 41.9988C83.9999 65.2004 65.1904 83.9975 41.9987 83.9975C30.265 83.9975 19.6685 79.1983 12.0464 71.4371H12.034C10.1967 69.5676 8.53573 67.5218 7.07337 65.3394C5.31804 62.725 3.84327 59.8897 2.71608 56.9054C2.35608 55.952 2.03084 54.9763 1.74035 53.9881C1.11221 51.8976 0.647926 49.7475 0.35744 47.5403C0.126541 45.7279 -0.00256348 43.8807 -0.00256348 41.9988C-0.00256348 35.8415 1.32076 30.0094 3.69182 24.7335C6.89957 17.6352 12.0216 11.5822 18.4122 7.24724L18.4247 7.23483C19.8076 6.29385 21.2476 5.43481 22.7472 4.65522C22.7472 4.65522 22.7596 4.65522 22.7819 4.6428C28.5445 1.6734 35.0742 0 41.9987 0C49.5985 0 56.7315 2.02099 62.8764 5.56392C62.9112 5.57633 62.9236 5.57633 62.9236 5.57633C70.1385 9.73499 76.0054 15.9742 79.6873 23.4697C79.7122 23.5169 79.7221 23.5269 79.7221 23.5269C81.604 27.3603 82.9174 31.5189 83.5555 35.8886C83.846 37.8873 83.9974 39.9306 83.9974 41.9988H83.9999Z" fill="url(#paint0_linear_206_16966)"/>
<path d="M44.0322 67.0478C56.6497 66.4544 62.0646 63.0158 64.1551 61.0519C60.0883 65.583 46.006 79.3153 28.9294 73.158C8.62022 65.8288 4.17108 54.5718 0.360004 47.5431C0.129105 45.7307 0 43.8835 0 42.0015C0 35.8442 1.32332 30.0122 3.69438 24.7362C6.90214 17.638 12.0241 11.5849 18.4148 7.25C17.9853 7.73663 8.41167 18.718 16.4757 24.6767C24.726 30.7769 13.9781 33.1479 13.9781 33.1479C13.9781 33.1479 25.5851 43.9306 42.0012 42.0015C58.4174 40.0724 56.5355 47.7765 53.1911 51.1108C49.8444 54.4452 40.8294 57.792 32.4872 56.0491C24.1451 54.3062 26.1785 67.8994 44.0346 67.0503L44.0322 67.0478Z" fill="url(#paint1_linear_206_16966)"/>
<path style="mix-blend-mode:multiply" d="M83.5581 35.8886C82.9175 31.5189 81.6066 27.3603 79.7247 23.5269C79.7247 23.5269 79.7122 23.5144 79.6899 23.4697C76.0079 15.9767 70.1386 9.73748 62.9261 5.57633C62.9261 5.57633 62.9162 5.57633 62.879 5.56392C56.7316 2.02099 49.5986 0 41.9988 0C35.0743 0 28.5446 1.6734 22.782 4.64777C23.862 4.48391 46.6912 -2.78072 54.9291 7.44338C63.3532 17.9009 52.3147 24.8849 47.667 23.6187C43.0192 22.3525 46.5621 31.9385 58.7402 32.81C70.9033 33.6814 70.9033 41.5245 68.5819 45.0079C66.258 48.4937 72.6835 54.8844 76.0055 53.432C76.0055 53.432 70.7544 83.5457 40.4073 81.5123C14.0575 79.747 6.21441 63.2613 1.74292 53.9906C2.03341 54.9788 2.35865 55.9545 2.71865 56.9079C3.84584 59.8947 5.32061 62.7275 7.07594 65.3419C8.54078 67.5267 10.2018 69.5701 12.0365 71.4396H12.049C19.6711 79.2008 30.2651 84 42.0012 84C65.1904 84 84.0025 65.2004 84.0025 42.0012C84.0025 39.9331 83.851 37.8898 83.5606 35.8911L83.5581 35.8886ZM67.0327 29.4706C65.8682 29.5178 64.6591 29.7239 63.45 29.4706C59.7234 28.6935 58.8668 23.8 62.2384 22.4568C63.4401 21.9776 64.7932 21.7914 66.1091 22.3525C69.8953 23.9564 70.5185 29.3167 67.0352 29.4682L67.0327 29.4706Z" fill="url(#paint2_linear_206_16966)"/>
<path d="M8.59289 38.4685C8.5631 38.4685 8.5333 38.466 8.49854 38.461C8.49854 38.461 8.49358 38.4585 8.48613 38.4585C7.55757 38.3394 6.93687 37.1402 7.0908 35.7275C7.2497 34.2602 8.18075 33.1081 9.17386 33.1578C9.33028 33.1628 9.47676 33.2 9.61828 33.272H9.62324C10.3532 33.6072 10.81 34.6723 10.6735 35.9013C10.5146 37.3686 9.58352 38.5206 8.59041 38.471L8.59289 38.4685Z" fill="#7F91A0"/>
<path style="mix-blend-mode:multiply" d="M8.59291 38.468C8.56312 38.468 8.53332 38.4655 8.49856 38.4605C8.49856 38.4605 8.4936 38.458 8.48615 38.458C7.75125 38.1154 7.30186 37.0602 7.43593 35.8312C7.59483 34.3614 8.53084 33.2144 9.51899 33.2591C9.55375 33.2616 9.58851 33.2665 9.6183 33.269H9.62326C10.3532 33.6042 10.81 34.6693 10.6735 35.8983C10.5146 37.3656 9.58354 38.5176 8.59043 38.468H8.59291Z" fill="url(#paint3_linear_206_16966)"/>
<path d="M32.4972 11.7043C32.4947 11.6745 32.4897 11.6447 32.4872 11.61V11.5975C32.4252 10.669 33.1774 9.76524 34.2053 9.55917C35.2729 9.34317 36.2387 9.95145 36.3653 10.9247C36.3852 11.0762 36.3827 11.2276 36.3554 11.384V11.3915C36.2362 12.181 35.551 12.8911 34.6572 13.0698C33.5896 13.2858 32.6238 12.6775 32.4996 11.7043H32.4972Z" fill="#7F91A0"/>
<path style="mix-blend-mode:multiply" d="M32.4971 11.7043C32.4946 11.6745 32.4897 11.6447 32.4872 11.6099V11.5975C32.6138 10.8006 33.2916 10.0979 34.1854 9.91917C35.2555 9.70317 36.2188 10.3189 36.3454 11.2847C36.3479 11.3195 36.3504 11.3542 36.3554 11.384V11.3915C36.2362 12.181 35.5509 12.8911 34.6571 13.0698C33.5895 13.2858 32.6237 12.6775 32.4996 11.7043H32.4971Z" fill="url(#paint4_linear_206_16966)"/>
<path d="M15.8278 60.8481C15.8029 60.8655 15.7781 60.8804 15.7508 60.9003C15.7508 60.9003 15.7458 60.9027 15.7409 60.9052C14.9513 61.3968 13.7869 61.1138 13.1041 60.2498C12.3916 59.351 12.4636 58.1642 13.263 57.5957C13.3872 57.5038 13.5237 57.4368 13.6727 57.3896H13.6777C14.4349 57.1314 15.3933 57.4393 15.9891 58.194C16.6992 59.0928 16.6297 60.2796 15.8302 60.8481H15.8278Z" fill="#7F91A0"/>
<path style="mix-blend-mode:multiply" d="M15.8277 60.8481C15.8029 60.8655 15.778 60.8804 15.7507 60.9003C15.7507 60.9003 15.7458 60.9027 15.7408 60.9052C14.9761 61.1585 14.0227 60.8531 13.4293 60.0983C12.7192 59.1996 12.7937 58.0103 13.5882 57.4442C13.618 57.4244 13.6478 57.407 13.6701 57.3896H13.6751C14.4324 57.1314 15.3907 57.4393 15.9866 58.194C16.6967 59.0928 16.6271 60.2796 15.8277 60.8481Z" fill="url(#paint5_linear_206_16966)"/>
<path d="M19.2167 65.0269C19.2018 65.0369 19.1869 65.0468 19.1671 65.0592C19.1671 65.0592 19.1646 65.0592 19.1596 65.0617C18.673 65.3646 17.9555 65.1908 17.5359 64.657C17.0989 64.1034 17.1411 63.3734 17.6327 63.0209C17.7097 62.9662 17.7916 62.924 17.886 62.8942H17.8884C18.3552 62.7353 18.9461 62.924 19.3111 63.3883C19.748 63.942 19.7058 64.6719 19.2142 65.0245L19.2167 65.0269Z" fill="#7F91A0"/>
<path style="mix-blend-mode:multiply" d="M19.2167 65.0269C19.2018 65.0369 19.1869 65.0468 19.167 65.0592C19.167 65.0592 19.1645 65.0592 19.1596 65.0617C18.6878 65.2181 18.1019 65.0294 17.7369 64.5651C17.3 64.0115 17.3446 63.2791 17.8338 62.929C17.8511 62.9166 17.871 62.9042 17.8859 62.8942H17.8884C18.3551 62.7353 18.946 62.924 19.311 63.3883C19.748 63.942 19.7058 64.6719 19.2142 65.0245L19.2167 65.0269Z" fill="url(#paint6_linear_206_16966)"/>
<path d="M16.1579 16.9648C16.1356 16.9499 16.1157 16.935 16.0909 16.9177C16.0909 16.9177 16.0884 16.9152 16.0835 16.9102C15.4354 16.4112 15.3138 15.3659 15.8178 14.5392C16.3392 13.6801 17.3373 13.3747 18.0498 13.8589C18.164 13.9334 18.2584 14.0252 18.3453 14.1345H18.3478C18.7897 14.6832 18.8294 15.567 18.39 16.2846C17.8686 17.1436 16.8705 17.449 16.1579 16.9648Z" fill="#7F91A0"/>
<path style="mix-blend-mode:multiply" d="M16.1579 16.9648C16.1356 16.9499 16.1157 16.935 16.0909 16.9176C16.0909 16.9176 16.0884 16.9151 16.0834 16.9102C15.6415 16.359 15.6018 15.4825 16.0412 14.7625C16.5626 13.9035 17.5632 13.6031 18.2732 14.0823C18.2981 14.0996 18.3229 14.1195 18.3452 14.1344H18.3477C18.7896 14.6831 18.8294 15.567 18.3899 16.2845C17.8685 17.1435 16.8705 17.4489 16.1579 16.9648Z" fill="url(#paint7_linear_206_16966)"/>
<path d="M10.2886 25.7617C10.2637 25.7443 10.2364 25.7244 10.2066 25.7021C10.2066 25.7021 10.2017 25.6971 10.1967 25.6922C9.41214 25.0839 9.26317 23.8152 9.87394 22.8121C10.507 21.7694 11.7186 21.3994 12.5851 21.9879C12.7217 22.0772 12.8409 22.189 12.9427 22.323L12.9476 22.328C13.4839 22.9909 13.5311 24.0635 12.9998 24.9349C12.3666 25.9777 11.1551 26.3476 10.2886 25.7617Z" fill="#7F91A0"/>
<path style="mix-blend-mode:multiply" d="M10.2886 25.7618C10.2637 25.7444 10.2364 25.7245 10.2066 25.7022C10.2066 25.7022 10.2017 25.6972 10.1967 25.6922C9.66041 25.0219 9.61324 23.9568 10.1446 23.0853C10.7777 22.0426 11.9942 21.6776 12.8558 22.261C12.8855 22.2834 12.9153 22.3057 12.9427 22.3231L12.9476 22.3281C13.4839 22.991 13.5311 24.0635 12.9998 24.935C12.3666 25.9778 11.155 26.3477 10.2886 25.7618Z" fill="url(#paint8_linear_206_16966)"/>
<path d="M39.4861 71.5436C39.4687 71.5709 39.4538 71.5983 39.4339 71.628C39.4339 71.628 39.429 71.633 39.4265 71.638C38.8704 72.4598 37.6165 72.6907 36.5738 72.1469C35.4913 71.5834 35.0444 70.3966 35.5732 69.4953C35.6551 69.3538 35.7569 69.2297 35.8836 69.118L35.8885 69.113C36.5142 68.5345 37.5818 68.4178 38.488 68.892C39.5705 69.4556 40.0174 70.6424 39.4886 71.5436H39.4861Z" fill="#7F91A0"/>
<path style="mix-blend-mode:multiply" d="M39.4861 71.5436C39.4687 71.5709 39.4538 71.5983 39.434 71.628C39.434 71.628 39.429 71.633 39.4265 71.638C38.7934 72.2165 37.7333 72.3332 36.8295 71.8589C35.747 71.2954 35.3026 70.1036 35.829 69.2073C35.8488 69.1751 35.8712 69.1453 35.8861 69.118L35.891 69.113C36.5167 68.5345 37.5843 68.4178 38.4905 68.892C39.573 69.4556 40.0199 70.6424 39.4911 71.5436H39.4861Z" fill="url(#paint9_linear_206_16966)"/>
<path d="M48.1237 72.0873C48.1237 72.1072 48.1237 72.1295 48.1237 72.1543C48.1237 72.1543 48.1237 72.1593 48.1237 72.1618C48.079 72.8197 47.436 73.3709 46.6589 73.4081C45.8495 73.4454 45.1965 72.9165 45.199 72.2214C45.199 72.1121 45.2164 72.0078 45.2511 71.9011V71.8961C45.4175 71.3549 45.9885 70.9303 46.6663 70.9005C47.4757 70.8608 48.1287 71.3921 48.1262 72.0848L48.1237 72.0873Z" fill="#7F91A0"/>
<path style="mix-blend-mode:multiply" d="M48.1237 72.0877C48.1237 72.1076 48.1237 72.13 48.1237 72.1548C48.1237 72.1548 48.1237 72.1597 48.1237 72.1622C47.9524 72.706 47.3863 73.128 46.7085 73.1578C45.8992 73.1976 45.2462 72.6638 45.2487 71.9735C45.2487 71.9487 45.2511 71.9239 45.2511 71.904V71.8991C45.4175 71.3578 45.9885 70.9333 46.6663 70.9035C47.4757 70.8637 48.1287 71.3951 48.1262 72.0877H48.1237Z" fill="url(#paint10_linear_206_16966)"/>
<path d="M52.0168 60.2968C52.0267 60.3167 52.0341 60.3341 52.0441 60.3564C52.0441 60.3564 52.0441 60.3614 52.0441 60.3639C52.2899 60.9746 51.9497 61.7518 51.2645 62.1217C50.5519 62.5065 49.7326 62.3129 49.4347 61.6847C49.3875 61.5879 49.3552 61.4836 49.3428 61.3744C49.2584 60.8108 49.5911 60.1802 50.187 59.8599C50.8995 59.475 51.7163 59.6687 52.0168 60.2944V60.2968Z" fill="#7F91A0"/>
<path style="mix-blend-mode:multiply" d="M52.0168 60.2968C52.0267 60.3167 52.0341 60.3341 52.0441 60.3564C52.0441 60.3564 52.0441 60.3614 52.0441 60.3639C52.1285 60.9275 51.7983 61.5531 51.1999 61.8759C50.4874 62.2607 49.6681 62.0621 49.3701 61.4389C49.3602 61.4166 49.3503 61.3917 49.3428 61.3744C49.2584 60.8108 49.5911 60.1802 50.187 59.8599C50.8995 59.475 51.7163 59.6687 52.0168 60.2944V60.2968Z" fill="url(#paint11_linear_206_16966)"/>
<path d="M60.4806 63.1346C60.5079 63.1495 60.5352 63.1644 60.5675 63.1843C60.5675 63.1843 60.5725 63.1893 60.5774 63.1917C61.4141 63.7255 61.6773 64.9744 61.1609 66.0296C60.6246 67.127 59.4527 67.6061 58.5366 67.0972C58.3926 67.0202 58.2635 66.9209 58.1493 66.7967L58.1443 66.7918C57.5509 66.181 57.4044 65.1184 57.8563 64.1997C58.3926 63.1024 59.5669 62.6232 60.4806 63.1322V63.1346Z" fill="#7F91A0"/>
<path style="mix-blend-mode:multiply" d="M60.4806 63.1351C60.5079 63.15 60.5352 63.1649 60.5675 63.1847C60.5675 63.1847 60.5725 63.1897 60.5774 63.1922C61.1733 63.8104 61.3173 64.8656 60.8654 65.7842C60.3316 66.8791 59.1523 67.3558 58.2411 66.8543C58.2088 66.8344 58.179 66.8146 58.1493 66.7997L58.1443 66.7947C57.5509 66.1839 57.4044 65.1213 57.8563 64.2027C58.3926 63.1053 59.5669 62.6261 60.4806 63.1351Z" fill="url(#paint12_linear_206_16966)"/>
<path d="M62.9733 50.4281C63.0254 50.443 63.0776 50.4579 63.1372 50.4802C63.1372 50.4802 63.1471 50.4852 63.157 50.4902C64.751 51.0587 65.6646 53.0375 65.2053 54.989C64.7311 57.0174 62.9609 58.2588 61.2428 57.7647C60.9722 57.6902 60.7239 57.5735 60.4856 57.4097L60.4756 57.4047C59.2541 56.6152 58.6086 54.8996 59.0083 53.2014C59.485 51.1729 61.2527 49.9291 62.9708 50.4256L62.9733 50.4281Z" fill="#7F91A0"/>
<path style="mix-blend-mode:multiply" d="M62.9733 50.4276C63.0254 50.4425 63.0775 50.4574 63.1371 50.4797C63.1371 50.4797 63.1471 50.4847 63.157 50.4896C64.3835 51.2941 65.024 52.9948 64.6218 54.693C64.1476 56.7214 62.3675 57.9603 60.6618 57.4687C60.5997 57.4489 60.5401 57.429 60.488 57.4116L60.4781 57.4067C59.2565 56.6171 58.611 54.9015 59.0107 53.2033C59.4874 51.1749 61.2552 49.931 62.9733 50.4276Z" fill="url(#paint13_linear_206_16966)"/>
<path opacity="0.44" d="M22.772 24.2296C22.7422 24.1849 22.7149 24.1402 22.6802 24.0856C22.6802 24.0856 22.6752 24.0756 22.6727 24.0657C21.8335 22.5959 22.4269 20.498 24.0457 19.3161C25.7265 18.0847 27.8791 18.2957 28.8598 19.7879C29.0162 20.0213 29.1304 20.272 29.2049 20.5476L29.2099 20.5575C29.622 21.9529 28.9964 23.6734 27.5861 24.7013C25.9053 25.9328 23.7527 25.7217 22.772 24.2296Z" fill="#7F91A0"/>
<path style="mix-blend-mode:multiply" d="M22.772 24.2299C22.7422 24.1853 22.7149 24.1406 22.6801 24.0859C22.6801 24.0859 22.6752 24.076 22.6727 24.0661C22.2655 22.6583 22.8862 20.9502 24.2964 19.9223C25.9773 18.6909 28.1348 18.9118 29.1106 20.394C29.1428 20.4487 29.1751 20.5033 29.2049 20.548L29.2099 20.5579C29.622 21.9532 28.9963 23.6738 27.5861 24.7017C25.9053 25.9331 23.7527 25.7221 22.772 24.2299Z" fill="url(#paint14_linear_206_16966)"/>
<path style="mix-blend-mode:multiply" d="M55.001 13.3247V13.3595C54.8372 15.2638 53.5486 17.0191 51.55 17.7292C48.876 18.6825 45.986 17.3816 45.0649 14.8367C44.9259 14.4419 44.8464 14.0571 44.8092 13.6624V13.6152C44.9706 11.6985 46.2616 9.94315 48.2603 9.23555C50.9317 8.28216 53.8242 9.58314 54.7304 12.128C54.8694 12.5228 54.9514 12.9175 54.9985 13.3247H55.001Z" fill="url(#paint15_linear_206_16966)"/>
<path style="mix-blend-mode:multiply" d="M55.0011 13.325V13.3597C54.8372 15.264 53.5486 17.0194 51.55 17.7294C48.876 18.6828 45.9861 17.3819 45.065 14.837C44.9259 14.4422 44.8465 14.0574 44.8092 13.6626V13.6155C44.6454 11.4306 46.0159 9.29294 48.2603 8.49101C50.9318 7.55003 53.8242 8.84108 54.7305 11.3834C54.9638 12.0215 55.0458 12.6844 54.9986 13.3225L55.0011 13.325Z" fill="url(#paint16_linear_206_16966)"/>
<path d="M23.7329 35.9677C23.7031 35.9354 23.6733 35.9007 23.6386 35.861C23.6386 35.861 23.6336 35.8535 23.6286 35.8461C22.7373 34.7785 22.8913 33.3136 23.9986 32.5291C25.1481 31.7122 26.891 31.9307 27.8965 33.0207C28.0579 33.1895 28.1845 33.3707 28.2863 33.5693L28.2913 33.5768C28.8326 34.5774 28.5942 35.7741 27.6309 36.4543C26.4814 37.2712 24.7384 37.0527 23.7329 35.9652V35.9677Z" fill="#7F91A0"/>
<path style="mix-blend-mode:multiply" d="M23.7329 35.968C23.7031 35.9357 23.6733 35.901 23.6386 35.8612C23.6386 35.8612 23.6336 35.8538 23.6286 35.8464C23.0899 34.8359 23.3257 33.6491 24.2891 32.9663C25.4386 32.1495 27.184 32.3754 28.187 33.4579C28.2218 33.4976 28.2565 33.5374 28.2863 33.5696L28.2913 33.5771C28.8325 34.5776 28.5942 35.7743 27.6309 36.4546C26.4814 37.2715 24.7384 37.053 23.7329 35.9655V35.968Z" fill="url(#paint17_linear_206_16966)"/>
<path d="M33.9173 41.7552C33.9148 41.7353 33.9123 41.713 33.9098 41.6881V41.6807C33.8503 41.0252 34.3965 40.3772 35.1587 40.2208C35.9507 40.0545 36.6806 40.4765 36.7874 41.1618C36.8048 41.2686 36.8048 41.3753 36.7874 41.487V41.492C36.7079 42.0531 36.2114 42.5621 35.546 42.6986C34.754 42.865 34.024 42.4429 33.9173 41.7577V41.7552Z" fill="#7F91A0"/>
<path style="mix-blend-mode:multiply" d="M33.9172 41.7557C33.9148 41.7358 33.9123 41.7135 33.9098 41.6887V41.6812C33.9917 41.1176 34.4858 40.6111 35.1512 40.4746C35.9432 40.3082 36.6731 40.7328 36.7799 41.4156C36.7824 41.4404 36.7849 41.4652 36.7873 41.4851V41.49C36.7079 42.0512 36.2113 42.5601 35.5459 42.6967C34.7539 42.863 34.024 42.4409 33.9172 41.7557Z" fill="url(#paint18_linear_206_16966)"/>
<path style="mix-blend-mode:multiply" opacity="0.5" d="M48.3298 46.7982C48.4564 46.1601 49.1665 45.6934 49.9436 45.7579C50.7555 45.8324 51.3339 46.4332 51.2421 47.1234C51.2247 47.2377 51.1949 47.3419 51.1477 47.4363L51.1403 47.4462C50.9019 47.9577 50.2862 48.3028 49.6034 48.2457C48.8015 48.1786 48.228 47.5654 48.3198 46.8752C48.3248 46.8503 48.3198 46.833 48.3223 46.8081L48.3273 46.7982H48.3298Z" fill="url(#paint19_linear_206_16966)"/>
<path style="mix-blend-mode:multiply" opacity="0.5" d="M46.7831 49.9362C46.8377 49.6631 47.1406 49.4645 47.4733 49.4918C47.8209 49.524 48.0667 49.7798 48.0294 50.0752C48.0195 50.1249 48.0096 50.1696 47.9897 50.2093V50.2143C47.8854 50.4327 47.6222 50.5817 47.3293 50.5569C46.9867 50.5271 46.7409 50.2664 46.7806 49.9709C46.7806 49.9585 46.7806 49.9536 46.7806 49.9412V49.9362H46.7831Z" fill="url(#paint20_linear_206_16966)"/>
<path style="mix-blend-mode:multiply" opacity="0.57" d="M83.9999 41.999C83.9999 65.2006 65.1904 83.9978 41.9987 83.9978C37.3634 83.9978 32.9018 83.2554 28.7307 81.8601C29.3688 81.8948 30.0218 81.9072 30.6698 81.9072C53.8614 81.9072 72.6685 63.1076 72.6685 39.906C72.6685 37.8378 72.5171 35.7945 72.2266 33.7959C71.5885 29.4262 70.2751 25.2675 68.3932 21.4341C68.3932 21.4341 68.3808 21.4217 68.3584 21.377C64.674 13.884 58.8071 7.64472 51.5922 3.48358C51.5922 3.48358 51.5798 3.48358 51.5475 3.47116C49.1417 2.08825 46.5993 0.938724 43.9253 0.0449219C50.8027 0.357753 57.2504 2.32163 62.8739 5.56415C62.9087 5.57656 62.9211 5.57656 62.9211 5.57656C70.1361 9.73522 76.0029 15.9745 79.6849 23.47C79.7097 23.5172 79.7196 23.5271 79.7196 23.5271C81.6016 27.3605 82.915 31.5192 83.553 35.8889C83.8435 37.8875 83.995 39.9308 83.995 41.999H83.9999Z" fill="url(#paint21_linear_206_16966)"/>
<g style="mix-blend-mode:lighten" opacity="0.11">
<path d="M13.1091 23.4521C12.3245 25.0312 11.756 28.594 11.4134 30.0489C10.5171 33.8426 10.4277 38.9124 15.1202 38.6343C21.2352 38.2719 25.59 34.7984 27.4248 32.3728C29.5675 29.5374 32.3383 25.3217 33.2792 19.1147C33.7956 15.7232 33.17 12.8755 31.6456 11.1226C28.8301 7.88507 25.24 9.61309 21.3718 12.6247C17.2131 15.8598 14.9786 19.6957 13.1091 23.4546V23.4521Z" fill="#F7F7F7"/>
</g>
<g style="mix-blend-mode:lighten" opacity="0.11">
<path d="M16.5378 20.8376C14.7502 25.7237 16.4112 29.2567 19.6885 29.8451C22.9682 30.4335 26.8017 28.0053 28.922 23.3576C31.0422 18.7098 30.4638 13.4339 26.8538 12.6046C23.2438 11.7754 18.323 15.9514 16.5353 20.8376H16.5378Z" fill="#F7F7F7"/>
</g>
<g style="mix-blend-mode:lighten" opacity="0.21">
<path d="M18.5737 19.1871C17.3919 22.2285 18.3006 24.6368 20.3762 24.9819C22.4494 25.3271 24.9892 23.5419 26.3051 20.5924C27.6185 17.6428 27.1244 14.5791 24.9172 14.1396C22.7101 13.7027 19.7555 16.1457 18.5737 19.1871Z" fill="#F7F7F7"/>
</g>
</g>
<defs>
<linearGradient id="paint0_linear_206_16966" x1="-0.888917" y1="13.1439" x2="77.2443" y2="65.7168" gradientUnits="userSpaceOnUse">
<stop offset="0.07" stop-color="#A7BDCC"/>
<stop offset="0.31" stop-color="#A2B7C6"/>
<stop offset="0.64" stop-color="#97A6B5"/>
<stop offset="0.75" stop-color="#92A0AE"/>
</linearGradient>
<linearGradient id="paint1_linear_206_16966" x1="-18.6606" y1="-4.29991" x2="60.925" y2="85.1597" gradientUnits="userSpaceOnUse">
<stop offset="0.07" stop-color="#DDDDF1"/>
<stop offset="0.2" stop-color="#D7D8EB"/>
<stop offset="0.39" stop-color="#C6CADC"/>
<stop offset="0.6" stop-color="#AAB3C3"/>
<stop offset="0.75" stop-color="#92A0AE"/>
</linearGradient>
<linearGradient id="paint2_linear_206_16966" x1="-26.8985" y1="-57.0345" x2="103.224" y2="130.018" gradientUnits="userSpaceOnUse">
<stop offset="0.07" stop-color="#DDDDF1"/>
<stop offset="0.2" stop-color="#D7D8EB"/>
<stop offset="0.39" stop-color="#C6CADC"/>
<stop offset="0.6" stop-color="#AAB3C3"/>
<stop offset="0.75" stop-color="#92A0AE"/>
</linearGradient>
<linearGradient id="paint3_linear_206_16966" x1="11.6601" y1="38.9008" x2="2.56709" y2="31.4321" gradientUnits="userSpaceOnUse">
<stop offset="0.07" stop-color="#DDDDF1"/>
<stop offset="0.2" stop-color="#D7D8EB"/>
<stop offset="0.39" stop-color="#C6CADC"/>
<stop offset="0.6" stop-color="#AAB3C3"/>
<stop offset="0.75" stop-color="#92A0AE"/>
</linearGradient>
<linearGradient id="paint4_linear_206_16966" x1="33.2304" y1="14.8119" x2="39.2281" y2="5.5319" gradientUnits="userSpaceOnUse">
<stop offset="0.07" stop-color="#DDDDF1"/>
<stop offset="0.2" stop-color="#D7D8EB"/>
<stop offset="0.39" stop-color="#C6CADC"/>
<stop offset="0.6" stop-color="#AAB3C3"/>
<stop offset="0.75" stop-color="#92A0AE"/>
</linearGradient>
<linearGradient id="paint5_linear_206_16966" x1="18.433" y1="59.1886" x2="7.2533" y2="58.4357" gradientUnits="userSpaceOnUse">
<stop offset="0.07" stop-color="#DDDDF1"/>
<stop offset="0.2" stop-color="#D7D8EB"/>
<stop offset="0.39" stop-color="#C6CADC"/>
<stop offset="0.6" stop-color="#AAB3C3"/>
<stop offset="0.75" stop-color="#92A0AE"/>
</linearGradient>
<linearGradient id="paint6_linear_206_16966" x1="20.8549" y1="64.0779" x2="13.9676" y2="63.6153" gradientUnits="userSpaceOnUse">
<stop offset="0.07" stop-color="#DDDDF1"/>
<stop offset="0.2" stop-color="#D7D8EB"/>
<stop offset="0.39" stop-color="#C6CADC"/>
<stop offset="0.6" stop-color="#AAB3C3"/>
<stop offset="0.75" stop-color="#92A0AE"/>
</linearGradient>
<linearGradient id="paint7_linear_206_16966" x1="18.194" y1="18.7477" x2="15.3979" y2="9.32087" gradientUnits="userSpaceOnUse">
<stop offset="0.07" stop-color="#DDDDF1"/>
<stop offset="0.2" stop-color="#D7D8EB"/>
<stop offset="0.39" stop-color="#C6CADC"/>
<stop offset="0.6" stop-color="#AAB3C3"/>
<stop offset="0.75" stop-color="#92A0AE"/>
</linearGradient>
<linearGradient id="paint8_linear_206_16966" x1="12.7784" y1="27.9044" x2="9.38284" y2="16.4585" gradientUnits="userSpaceOnUse">
<stop offset="0.07" stop-color="#DDDDF1"/>
<stop offset="0.2" stop-color="#D7D8EB"/>
<stop offset="0.39" stop-color="#C6CADC"/>
<stop offset="0.6" stop-color="#AAB3C3"/>
<stop offset="0.75" stop-color="#92A0AE"/>
</linearGradient>
<linearGradient id="paint9_linear_206_16966" x1="41.4856" y1="68.9733" x2="30.2834" y2="73.1024" gradientUnits="userSpaceOnUse">
<stop offset="0.07" stop-color="#DDDDF1"/>
<stop offset="0.2" stop-color="#D7D8EB"/>
<stop offset="0.39" stop-color="#C6CADC"/>
<stop offset="0.6" stop-color="#AAB3C3"/>
<stop offset="0.75" stop-color="#92A0AE"/>
</linearGradient>
<linearGradient id="paint10_linear_206_16966" x1="48.9097" y1="70.0165" x2="43.8712" y2="76.1307" gradientUnits="userSpaceOnUse">
<stop offset="0.07" stop-color="#DDDDF1"/>
<stop offset="0.2" stop-color="#D7D8EB"/>
<stop offset="0.39" stop-color="#C6CADC"/>
<stop offset="0.6" stop-color="#AAB3C3"/>
<stop offset="0.75" stop-color="#92A0AE"/>
</linearGradient>
<linearGradient id="paint11_linear_206_16966" x1="52.2412" y1="57.9963" x2="50.3461" y2="65.6899" gradientUnits="userSpaceOnUse">
<stop offset="0.07" stop-color="#DDDDF1"/>
<stop offset="0.2" stop-color="#D7D8EB"/>
<stop offset="0.39" stop-color="#C6CADC"/>
<stop offset="0.6" stop-color="#AAB3C3"/>
<stop offset="0.75" stop-color="#92A0AE"/>
</linearGradient>
<linearGradient id="paint12_linear_206_16966" x1="58.6308" y1="60.2617" x2="63.0518" y2="71.3528" gradientUnits="userSpaceOnUse">
<stop offset="0.07" stop-color="#DDDDF1"/>
<stop offset="0.2" stop-color="#D7D8EB"/>
<stop offset="0.39" stop-color="#C6CADC"/>
<stop offset="0.6" stop-color="#AAB3C3"/>
<stop offset="0.75" stop-color="#92A0AE"/>
</linearGradient>
<linearGradient id="paint13_linear_206_16966" x1="58.3933" y1="47.2535" x2="69.9649" y2="64.0281" gradientUnits="userSpaceOnUse">
<stop offset="0.07" stop-color="#DDDDF1"/>
<stop offset="0.2" stop-color="#D7D8EB"/>
<stop offset="0.39" stop-color="#C6CADC"/>
<stop offset="0.6" stop-color="#AAB3C3"/>
<stop offset="0.75" stop-color="#92A0AE"/>
</linearGradient>
<linearGradient id="paint14_linear_206_16966" x1="25.1916" y1="29.2638" x2="27.3292" y2="8.99756" gradientUnits="userSpaceOnUse">
<stop offset="0.07" stop-color="#DDDDF1"/>
<stop offset="0.2" stop-color="#D7D8EB"/>
<stop offset="0.39" stop-color="#C6CADC"/>
<stop offset="0.6" stop-color="#AAB3C3"/>
<stop offset="0.75" stop-color="#92A0AE"/>
</linearGradient>
<linearGradient id="paint15_linear_206_16966" x1="-5.8793" y1="-27.7579" x2="102.047" y2="52.0338" gradientUnits="userSpaceOnUse">
<stop offset="0.07" stop-color="#DDDDF1"/>
<stop offset="0.2" stop-color="#D7D8EB"/>
<stop offset="0.39" stop-color="#C6CADC"/>
<stop offset="0.6" stop-color="#AAB3C3"/>
<stop offset="0.75" stop-color="#92A0AE"/>
</linearGradient>
<linearGradient id="paint16_linear_206_16966" x1="-8.43902" y1="-30.0219" x2="104.443" y2="53.4344" gradientUnits="userSpaceOnUse">
<stop offset="0.07" stop-color="#DDDDF1"/>
<stop offset="0.2" stop-color="#D7D8EB"/>
<stop offset="0.39" stop-color="#C6CADC"/>
<stop offset="0.6" stop-color="#AAB3C3"/>
<stop offset="0.75" stop-color="#92A0AE"/>
</linearGradient>
<linearGradient id="paint17_linear_206_16966" x1="25.5824" y1="39.5719" x2="26.184" y2="25.6385" gradientUnits="userSpaceOnUse">
<stop offset="0.07" stop-color="#DDDDF1"/>
<stop offset="0.2" stop-color="#D7D8EB"/>
<stop offset="0.39" stop-color="#C6CADC"/>
<stop offset="0.6" stop-color="#AAB3C3"/>
<stop offset="0.75" stop-color="#92A0AE"/>
</linearGradient>
<linearGradient id="paint18_linear_206_16966" x1="33.1998" y1="43.889" x2="37.215" y2="37.059" gradientUnits="userSpaceOnUse">
<stop offset="0.07" stop-color="#DDDDF1"/>
<stop offset="0.2" stop-color="#D7D8EB"/>
<stop offset="0.39" stop-color="#C6CADC"/>
<stop offset="0.6" stop-color="#AAB3C3"/>
<stop offset="0.75" stop-color="#92A0AE"/>
</linearGradient>
<linearGradient id="paint19_linear_206_16966" x1="47.9864" y1="118.558" x2="50.2905" y2="26.7524" gradientUnits="userSpaceOnUse">
<stop offset="0.07" stop-color="#DDDDF1"/>
<stop offset="0.2" stop-color="#D7D8EB"/>
<stop offset="0.39" stop-color="#C6CADC"/>
<stop offset="0.6" stop-color="#AAB3C3"/>
<stop offset="0.75" stop-color="#92A0AE"/>
</linearGradient>
<linearGradient id="paint20_linear_206_16966" x1="46.6362" y1="80.6511" x2="47.6215" y2="41.3604" gradientUnits="userSpaceOnUse">
<stop offset="0.07" stop-color="#DDDDF1"/>
<stop offset="0.2" stop-color="#D7D8EB"/>
<stop offset="0.39" stop-color="#C6CADC"/>
<stop offset="0.6" stop-color="#AAB3C3"/>
<stop offset="0.75" stop-color="#92A0AE"/>
</linearGradient>
<linearGradient id="paint21_linear_206_16966" x1="45.5193" y1="10.2293" x2="69.0462" y2="117.409" gradientUnits="userSpaceOnUse">
<stop offset="0.07" stop-color="#FAFAFA"/>
<stop offset="0.23" stop-color="#D4D8D8"/>
<stop offset="0.49" stop-color="#A1ABAB"/>
<stop offset="0.71" stop-color="#7C8A8A"/>
<stop offset="0.89" stop-color="#657676"/>
<stop offset="1" stop-color="#5D6F6F"/>
</linearGradient>
<clipPath id="clip0_206_16966">
<rect width="84" height="84" fill="white"/>
</clipPath>
</defs>
</svg>
