<svg width="82" height="80" viewBox="0 0 82 80" fill="none" xmlns="http://www.w3.org/2000/svg">
<g clip-path="url(#clip0_206_13193)">
<path fill-rule="evenodd" clip-rule="evenodd" d="M41.6476 1.43945C62.7643 1.43945 79.8929 18.5287 79.8929 39.597C79.8929 60.6653 62.7643 77.7545 41.6476 77.7545C20.5308 77.7545 3.40228 60.6774 3.40228 39.597C3.40228 18.5166 20.5308 1.43945 41.6476 1.43945Z" fill="url(#paint0_radial_206_13193)"/>
<path style="mix-blend-mode:screen" fill-rule="evenodd" clip-rule="evenodd" d="M41.6476 1.43945C62.7643 1.43945 79.8929 18.5287 79.8929 39.597C79.8929 60.6653 62.7643 77.7545 41.6476 77.7545C20.5308 77.7545 3.40228 60.6774 3.40228 39.597C3.40228 18.5166 20.5308 1.43945 41.6476 1.43945Z" fill="url(#paint1_radial_206_13193)"/>
<path style="mix-blend-mode:multiply" fill-rule="evenodd" clip-rule="evenodd" d="M58.2427 61.7417C57.5882 61.8626 54.7152 61.3788 53.7091 61.3909C48.739 61.4393 41.0172 62.7939 36.3866 64.5838C35.0653 65.0918 33.6955 65.6481 32.6045 66.5673C31.5014 67.4986 31.865 69.228 29.5254 69.1434C27.9011 69.0829 25.9979 68.2968 26.1555 66.5068C26.301 64.9225 26.4464 62.7697 25.4767 61.8747C22.1431 58.8027 18.3973 56.2025 14.6395 53.6506C12.1423 51.9574 10.8453 52.9128 9.37849 52.417C7.54805 51.8001 6.65101 49.2361 6.21461 47.5308C5.30546 43.8905 6.90558 38.061 6.83284 35.8478C6.74799 33.3563 3.66897 36.8274 5.57214 26.9101C4.16598 30.877 3.40228 35.1463 3.40228 39.597C3.40228 60.6653 20.5308 77.7545 41.6476 77.7545C62.7643 77.7545 79.8929 60.6653 79.8929 39.597C79.8929 18.5287 62.7764 1.43945 41.6476 1.43945C33.4651 1.43945 25.8767 4.00345 19.658 8.36949C23.6705 6.03529 27.4526 4.46303 32.0347 3.77365C36.9806 3.0359 39.2353 3.30198 43.8902 4.01554C45.2236 4.22114 45.9024 3.99135 47.0783 4.01554C50.4604 4.07601 54.3516 6.6521 57.1881 8.90164C59.1155 10.4255 60.1096 12.9895 61.0187 13.8966C62.1582 15.0335 62.243 14.0659 63.5522 15.0093C66.2555 16.9685 71.8559 27.9623 71.5407 31.264C71.4316 32.3888 70.7649 32.3888 70.7043 33.5135C70.6558 34.5899 71.2983 36.5492 71.2255 37.6256C70.7528 45.0394 67.5404 44.6161 66.3888 50.6633C66.1949 51.6792 66.304 54.7995 66.013 56.4081C65.8797 57.1821 65.5281 57.9682 64.9584 58.5125C63.1765 60.2178 60.6066 61.2821 58.2064 61.7296L58.2427 61.7417Z" fill="url(#paint2_radial_206_13193)"/>
<path style="mix-blend-mode:screen" fill-rule="evenodd" clip-rule="evenodd" d="M7.20861 33.7676C7.64501 34.3724 8.54205 34.59 8.88147 35.2552C9.40272 36.2833 10.9786 41.7257 10.9907 42.923C10.9907 43.6245 10.3482 44.205 10.3119 44.9065C10.1907 46.8658 12.7848 49.8772 14.1546 49.0427C15.0153 48.5227 15.5123 47.5068 16.3851 46.9988C17.1609 46.5513 18.8458 47.1802 19.5489 46.9383C19.8156 46.8537 19.9368 46.4667 19.9247 46.2006C19.9005 45.8861 19.8035 45.5717 19.6702 45.2693C18.8822 43.3463 19.064 41.375 20.4823 39.718C22.5067 37.3475 25.0039 35.4608 27.6101 33.7193C30.0346 32.0986 33.5136 31.6511 35.4774 31.4455C36.7623 31.3125 37.3442 30.2966 36.0714 29.1355C34.2046 27.4423 31.6468 25.2411 29.9012 21.117C29.2951 19.6778 29.4891 15.602 30.4588 14.32C32.2893 11.8769 35.3077 9.86929 38.4473 9.86929C41.7809 9.86929 46.4237 11.5141 49.5633 12.7477C52.3635 13.8483 52.8484 13.5943 53.2121 13.0743C53.5515 12.5784 52.6787 10.7764 50.3634 8.7929C43.9144 3.2658 36.7745 3.32627 28.9072 5.85398C27.7677 6.21681 20.2035 9.48227 20.4217 11.2964C20.4338 11.4415 23.3553 14.84 23.7674 15.6262C24.0947 16.243 24.2523 16.9686 24.2038 17.6701C23.8523 22.0483 22.9068 25.8459 20.6763 29.6556C20.3854 30.1514 19.8035 30.478 19.2459 30.6473C17.0154 31.3246 11.6574 32.5219 9.34211 32.2558C8.68751 32.1833 8.17838 31.2036 7.54803 31.3851C7.08739 31.5181 7.05103 33.5257 7.23286 33.7918L7.20861 33.7676ZM52.9696 15.5536C53.1757 16.6663 54.6425 19.0851 55.3819 19.835C55.6486 20.1011 56.279 20.1615 56.5214 19.8713C57.5154 18.6498 56.0123 15.1182 55.2607 14.0781C54.594 13.1468 52.7999 14.5861 52.9817 15.5536H52.9696ZM57.2851 21.3105C57.5639 21.504 57.8306 21.8185 57.8548 22.1571C57.8912 22.6651 57.6972 23.173 57.4548 23.6205C57.2972 23.9229 57.0427 24.2494 56.7154 24.322C56.4365 24.3825 56.1092 24.1648 55.988 23.9108C55.6971 23.3302 55.5274 22.653 55.5759 21.9999C55.6001 21.6129 55.8183 21.1654 56.182 21.0202C56.5335 20.8751 56.9699 21.0928 57.2851 21.3105ZM45.2963 33.6104C45.1872 33.7434 45.2115 34.0095 45.3448 34.1184C46.7388 35.2673 48.4238 36.1744 50.2179 36.4889C51.9998 36.8033 52.0847 34.0095 51.4059 33.3443C50.9937 32.9452 50.3391 32.8848 49.7694 32.8606C48.8239 32.8243 45.963 32.8606 45.3084 33.5983L45.2963 33.6104Z" fill="url(#paint3_radial_206_13193)"/>
<path fill-rule="evenodd" clip-rule="evenodd" d="M72.9105 25.543C74.8137 23.8498 76.6562 22.1082 78.3048 20.1973C77.2623 18.3227 75.141 16.1941 73.4075 15.0209C72.5953 14.9605 71.8316 15.0572 71.0922 15.2386C71.1043 16.4118 72.3165 24.1279 72.9105 25.543Z" fill="url(#paint4_radial_206_13193)"/>
<path fill-rule="evenodd" clip-rule="evenodd" d="M78.3049 20.1973C76.6563 22.1203 74.8137 23.8618 72.9105 25.5429C73.3348 26.4863 77.5654 31.7836 79.3352 33.0414C80.0989 32.4125 81.1172 30.9249 81.4445 30.0662C81.6991 29.1712 81.8688 28.1432 81.9657 27.212C81.396 24.7447 80.1232 22.0961 78.317 20.1973H78.3049Z" fill="url(#paint5_radial_206_13193)"/>
<path fill-rule="evenodd" clip-rule="evenodd" d="M73.4075 15.0215C75.141 16.1946 77.2623 18.3111 78.3048 20.1978C80.111 22.0967 81.3839 24.7453 81.9536 27.2125C81.7718 25.858 81.5293 24.5276 81.0929 23.2698C79.808 20.6332 78.1594 18.2386 77.0441 17.1985C76.5229 16.7026 74.5349 15.3117 73.3954 15.0215H73.4075Z" fill="url(#paint6_radial_206_13193)"/>
<path fill-rule="evenodd" clip-rule="evenodd" d="M74.0985 51.8246C74.5955 49.3331 75.3592 46.9264 76.3411 44.5801C74.3167 46.3458 72.0862 48.7889 70.9831 50.5547C71.9407 51.0989 72.9469 51.5585 74.0985 51.8246Z" fill="url(#paint7_radial_206_13193)"/>
<path fill-rule="evenodd" clip-rule="evenodd" d="M74.0985 51.8246C72.9469 51.5585 71.9408 51.0989 70.9831 50.5547C70.2558 51.9576 69.5649 53.7597 69.2739 55.3803C70.9225 55.3198 72.5469 55.078 74.1591 54.5821C74.0743 53.675 74.05 52.7559 74.1106 51.8246H74.0985Z" fill="url(#paint8_radial_206_13193)"/>
<path fill-rule="evenodd" clip-rule="evenodd" d="M74.1591 54.5824C72.559 55.0783 70.9346 55.3323 69.2739 55.3806C69.1406 56.6263 69.1406 57.8962 69.2739 59.2145C71.0437 58.2107 72.8499 57.3157 74.7895 56.7231C74.4864 56.0337 74.2925 55.3081 74.147 54.5703L74.1591 54.5824Z" fill="url(#paint9_radial_206_13193)"/>
<path fill-rule="evenodd" clip-rule="evenodd" d="M74.8016 56.7344C72.862 57.3391 71.0558 58.2341 69.286 59.2258C70.1467 59.891 72.1226 60.8706 73.2257 61.1367C74.2803 60.8464 76.135 59.9394 77.1896 59.1774C76.2684 58.488 75.4804 57.6656 74.7895 56.7344H74.8016Z" fill="url(#paint10_radial_206_13193)"/>
<path fill-rule="evenodd" clip-rule="evenodd" d="M74.1591 54.5821C74.2925 55.3198 74.4985 56.0334 74.8016 56.7348C75.4926 57.6661 76.2805 58.4885 77.2018 59.1779C79.905 55.4287 81.5779 50.4458 81.893 48.2084C81.893 46.4668 80.6081 43.6851 79.7717 42.6934C78.5716 43.1892 77.4321 43.8181 76.3532 44.5922C75.3713 46.9385 74.6076 49.3452 74.1106 51.8367C74.05 52.7679 74.0743 53.6871 74.1591 54.5942V54.5821Z" fill="url(#paint11_radial_206_13193)"/>
<path fill-rule="evenodd" clip-rule="evenodd" d="M33.356 2.66082C33.0166 1.92307 32.1559 0.483848 31.6832 0.0605469C30.8952 0.157301 30.1558 0.483848 29.4527 0.858771C29.0284 2.00773 28.786 3.16878 28.6526 4.31774C30.3619 3.5558 31.562 3.16878 33.3682 2.66082H33.356Z" fill="url(#paint12_radial_206_13193)"/>
<path fill-rule="evenodd" clip-rule="evenodd" d="M31.671 0.0605469C32.1438 0.483848 33.0045 1.93516 33.3439 2.66082C34.8228 2.45522 36.2774 2.37056 37.72 2.34637C37.8654 2.34637 37.9988 2.34637 38.1079 2.34637C37.7563 1.66909 37.3563 1.06437 36.8714 0.556413C35.3561 0.217773 33.356 0.0847355 31.671 0.0605469Z" fill="url(#paint13_radial_206_13193)"/>
<path fill-rule="evenodd" clip-rule="evenodd" d="M37.7321 2.34668C36.2896 2.37087 34.8349 2.45553 33.356 2.66113C31.5498 3.18119 30.3497 3.55611 28.6405 4.31805C30.677 3.45936 35.635 2.43134 37.7321 2.34668Z" fill="url(#paint14_radial_206_13193)"/>
<path style="mix-blend-mode:multiply" fill-rule="evenodd" clip-rule="evenodd" d="M55.3456 54.183L62.5097 45.8379C63.5159 47.1078 65.1281 49.6113 65.3099 50.2402C65.5766 51.1594 65.7342 53.0098 65.5887 53.6024C65.5524 53.7597 64.522 55.344 64.1341 55.6101C62.8855 56.4446 61.5763 56.8195 60.0974 57.0735C59.5883 57.1582 58.8731 56.88 58.4367 56.5897C57.3336 55.8762 56.3759 54.9691 55.3334 54.1709L55.3456 54.183Z" fill="url(#paint15_radial_206_13193)"/>
<path style="mix-blend-mode:multiply" fill-rule="evenodd" clip-rule="evenodd" d="M56.0365 36.8276L59.9277 29.0752C61.0672 29.7283 62.6673 31.2159 62.934 31.6513C63.334 32.3044 63.8553 33.7073 63.8674 34.2032C63.8674 34.3362 63.4189 35.7754 63.1643 36.0657C62.3764 36.9849 61.4308 37.5533 60.3399 38.0613C59.9641 38.2427 59.3458 38.1701 58.9579 38.0371C57.9518 37.7226 57.0063 37.2268 56.0365 36.8156V36.8276Z" fill="url(#paint16_radial_206_13193)"/>
<path fill-rule="evenodd" clip-rule="evenodd" d="M54.9334 35.7388C56.5335 35.5816 58.0973 35.2429 59.5883 34.5898C60.0489 33.8521 60.4247 33.1022 60.7035 32.3161C60.1338 30.9615 59.4549 29.8368 58.7519 28.7725C58.0245 29.2441 56.9335 30.3447 56.6305 30.7922C56.0123 31.8928 54.9213 35.0978 54.9334 35.7388Z" fill="url(#paint17_radial_206_13193)"/>
<path fill-rule="evenodd" clip-rule="evenodd" d="M59.5883 34.5898C58.0973 35.2429 56.5335 35.5816 54.9334 35.7388C55.2001 36.1379 55.5516 36.537 56.1577 36.912C56.582 37.0208 58.8125 36.9966 59.3337 36.8757C59.5156 36.1258 59.6004 35.3639 59.6004 34.6019L59.5883 34.5898Z" fill="url(#paint18_radial_206_13193)"/>
<path fill-rule="evenodd" clip-rule="evenodd" d="M59.5883 34.5897C59.5883 35.3516 59.5034 36.1136 59.3216 36.8634C59.8065 36.682 61.6733 34.892 61.8551 34.3841C61.9763 33.5979 62.0248 32.7876 62.0127 31.9531C61.5642 31.9773 61.1278 32.0983 60.7035 32.316C60.4247 33.1021 60.061 33.8519 59.5883 34.5897Z" fill="url(#paint19_radial_206_13193)"/>
<path fill-rule="evenodd" clip-rule="evenodd" d="M58.7519 28.7723C59.455 29.8366 60.1338 30.9614 60.7035 32.316C61.1278 32.0983 61.5763 31.9894 62.0127 31.9531C61.6854 31.167 61.3096 30.4535 60.8732 29.8366C60.0974 29.0626 59.3822 28.7119 58.7397 28.7603L58.7519 28.7723Z" fill="url(#paint20_radial_206_13193)"/>
<path style="mix-blend-mode:multiply" fill-rule="evenodd" clip-rule="evenodd" d="M65.5888 69.3609C62.3643 66.7243 59.9884 65.0795 56.1214 62.8662L40.4475 77.7422C40.8475 77.7543 41.2476 77.7664 41.6476 77.7664C50.7149 77.7664 59.0428 74.6219 65.5888 69.3609Z" fill="url(#paint21_radial_206_13193)"/>
<path fill-rule="evenodd" clip-rule="evenodd" d="M36.8109 73.0982C37.1503 72.0822 37.4776 70.4132 37.6352 69.2038C37.1503 69.107 34.241 67.5832 33.9137 67.2324C34.2531 68.8772 35.4411 71.0542 36.823 73.0861L36.8109 73.0982Z" fill="url(#paint22_radial_206_13193)"/>
<path fill-rule="evenodd" clip-rule="evenodd" d="M37.6352 69.2156C38.5443 69.397 44.072 69.7114 45.3812 69.8445C48.9815 68.0787 52.012 66.325 54.2667 64.5834C53.903 63.882 53.7576 63.2168 53.5515 62.4307C47.2722 62.4549 38.1928 64.2448 33.9016 67.2563C34.2288 67.607 37.1382 69.1309 37.623 69.2277L37.6352 69.2156Z" fill="url(#paint23_radial_206_13193)"/>
<path fill-rule="evenodd" clip-rule="evenodd" d="M54.2667 64.5713C52.012 66.3129 48.9936 68.0665 45.3812 69.8323C50.1573 72.7712 55.2607 74.8273 59.2004 74.7668C59.8187 73.9807 60.4005 73.1703 60.9218 72.3116C59.6005 71.078 55.9517 66.9055 54.2667 64.5713Z" fill="url(#paint24_radial_206_13193)"/>
<path fill-rule="evenodd" clip-rule="evenodd" d="M54.2667 64.5714C55.9517 66.9056 59.6005 71.0781 60.9218 72.3117C61.1157 71.7191 61.2975 71.1265 61.4309 70.4976C61.2491 69.4091 60.9824 68.3327 60.5339 67.2563C59.2247 65.6478 57.3579 63.7852 56.1214 62.8661C55.4668 62.6967 54.4243 62.5153 53.5515 62.4307C53.7576 63.2168 53.9031 63.882 54.2667 64.5834V64.5714Z" fill="url(#paint25_radial_206_13193)"/>
<path fill-rule="evenodd" clip-rule="evenodd" d="M59.2126 74.7792C55.2729 74.8397 50.1573 72.7836 45.3933 69.8447C44.072 69.7117 38.5565 69.3972 37.6473 69.2158C37.5018 70.4253 37.1624 72.0943 36.823 73.1102C38.7019 75.8919 40.9082 78.3954 41.6961 78.8792C49.1997 79.883 56.5821 76.7385 59.2247 74.7913L59.2126 74.7792Z" fill="url(#paint26_radial_206_13193)"/>
<path style="mix-blend-mode:multiply" fill-rule="evenodd" clip-rule="evenodd" d="M37.2351 77.5001C35.8289 76.46 34.6046 75.2506 33.5742 73.8477C32.0589 74.4403 30.5316 75.0329 29.0163 75.6255C31.6347 76.5447 34.3864 77.1736 37.2351 77.5001Z" fill="url(#paint27_radial_206_13193)"/>
<path fill-rule="evenodd" clip-rule="evenodd" d="M21.8158 73.2192C22.9553 73.6184 24.119 73.9086 25.3191 74.09C25.8282 72.8201 26.2646 71.4535 26.604 70.1957C25.7312 70.0989 23.6462 70.5585 22.7371 70.9697C22.434 71.4051 21.937 72.5299 21.8158 73.2192Z" fill="url(#paint28_radial_206_13193)"/>
<path fill-rule="evenodd" clip-rule="evenodd" d="M25.3312 74.0778C24.1311 73.8964 22.9553 73.6061 21.8279 73.207C22.1431 74.0294 23.0523 75.5412 24.022 76.4241C24.6039 76.92 27.198 78.4439 27.8163 78.6495C26.6768 77.1135 25.8525 75.5896 25.3434 74.0778H25.3312Z" fill="url(#paint29_radial_206_13193)"/>
<path fill-rule="evenodd" clip-rule="evenodd" d="M25.3312 74.078C25.8404 75.5897 26.6647 77.1136 27.8041 78.6496C28.2284 78.6012 29.8164 78.2021 30.2528 77.9481C31.1862 77.4281 32.5681 76.3638 33.3682 75.5293C33.5015 75.1544 33.6106 74.211 33.5622 73.8482C31.3438 72.4815 29.0042 71.2842 26.6162 70.1836C26.2768 71.4414 25.8404 72.8081 25.3312 74.078Z" fill="url(#paint30_radial_206_13193)"/>
<path style="mix-blend-mode:multiply" fill-rule="evenodd" clip-rule="evenodd" d="M56.0971 9.91772C59.952 9.9661 62.9583 10.0387 66.5585 10.6434C63.1158 7.69237 59.1519 5.34607 54.8122 3.76172L56.0971 9.91772Z" fill="url(#paint31_radial_206_13193)"/>
<path fill-rule="evenodd" clip-rule="evenodd" d="M54.3758 9.10733C52.9696 8.3212 50.9452 6.88198 49.3815 5.11621C50.6422 6.77313 52.0241 8.29701 53.5151 9.72414C53.8424 9.55482 54.1333 9.36131 54.3879 9.10733H54.3758Z" fill="url(#paint32_radial_206_13193)"/>
<path fill-rule="evenodd" clip-rule="evenodd" d="M58.3518 8.30859C57.1033 8.69561 55.7941 8.98587 54.3758 9.10682C54.1212 9.3608 53.8303 9.55431 53.503 9.72363C55.2001 9.95342 56.9214 9.9897 58.6791 9.82038C58.5337 9.32451 58.4246 8.82865 58.3518 8.30859Z" fill="url(#paint33_radial_206_13193)"/>
<path fill-rule="evenodd" clip-rule="evenodd" d="M58.3519 8.30904C58.4246 8.82909 58.5337 9.33705 58.6792 9.82083C59.3822 9.04679 60.0005 8.21228 60.5096 7.30521C60.0368 7.23265 59.552 7.1238 59.0671 6.94238C58.8004 7.36568 58.5458 7.80108 58.3519 8.29694V8.30904Z" fill="url(#paint34_radial_206_13193)"/>
<path fill-rule="evenodd" clip-rule="evenodd" d="M57.7094 2.60043C58.1337 4.12431 58.4731 5.47887 59.0671 6.95438C59.5519 7.13579 60.0368 7.24464 60.5096 7.31721C60.2187 5.14023 59.6368 3.0842 58.7276 1.19749C58.4246 0.943508 58.0852 0.725811 57.673 0.592773C57.6245 1.22168 57.6245 1.97152 57.7094 2.61252V2.60043Z" fill="url(#paint35_radial_206_13193)"/>
<path fill-rule="evenodd" clip-rule="evenodd" d="M51.8544 1.82647C53.8303 1.82647 55.7577 2.33443 57.7093 2.58841C57.6366 1.94741 57.6366 1.19756 57.673 0.568657C56.1214 0.375148 54.1818 0.447714 52.4968 0.762166C51.321 1.14918 50.2058 1.65714 49.1269 2.27395C50.1088 1.98369 51.5634 1.82647 51.8422 1.81437L51.8544 1.82647Z" fill="url(#paint36_radial_206_13193)"/>
<path fill-rule="evenodd" clip-rule="evenodd" d="M57.7094 2.60004C55.7577 2.34606 53.8182 1.826 51.8544 1.8381C51.5756 1.8381 50.1088 2.00742 49.139 2.29768C49.1148 3.30151 49.1875 4.24486 49.3815 5.12775C50.9452 6.89352 52.9817 8.33274 54.3758 9.11887C55.7941 8.99793 57.1033 8.70766 58.3518 8.32064C58.5458 7.82478 58.8003 7.38938 59.067 6.96608C58.4852 5.49058 58.1336 4.13602 57.7094 2.61213V2.60004Z" fill="url(#paint37_radial_206_13193)"/>
<path style="mix-blend-mode:multiply" fill-rule="evenodd" clip-rule="evenodd" d="M27.9011 66.2767C29.1497 65.3213 30.8225 63.6281 31.9741 61.7051C33.3924 61.2455 34.7501 60.8947 35.3562 60.9431C37.4776 61.6809 40.7869 62.2977 42.7264 62.5517C45.0054 62.4186 50.4603 60.7859 54.9334 57.726C55.6607 57.2302 57.9397 53.9889 59.0186 51.9812C59.2853 49.3447 59.0549 46.9379 58.5822 44.6279C54.9455 41.4955 50.5331 39.633 46.8116 37.2383C39.7686 42.1728 32.956 46.9016 26.107 51.6547C30.774 60.9431 29.6588 61.3664 23.4644 53.493C19.3186 56.3836 15.1365 59.2862 10.8695 62.2735C12.8818 64.9947 15.2456 67.4257 17.9003 69.518C19.5126 69.264 25.513 67.4136 27.8768 66.2646L27.9011 66.2767Z" fill="url(#paint38_radial_206_13193)"/>
<path fill-rule="evenodd" clip-rule="evenodd" d="M37.2109 33.3682C35.0168 33.6584 32.9803 34.251 31.0407 35.0251C27.7799 36.7667 25.0766 38.9315 22.6643 41.302C22.2158 42.4752 21.9976 43.7088 21.8764 44.9666C23.0401 48.2442 25.8282 52.7191 28.6284 55.537C31.4286 56.8674 36.4957 58.4759 39.9869 58.9234C43.2598 57.9801 46.3873 56.5046 49.333 54.4727C51.2847 52.2111 52.7272 49.6592 53.6848 46.8291C53.8424 46.0672 53.9515 45.2931 54.0121 44.4828C51.915 41.7616 49.527 39.4032 46.9086 37.3109C43.975 35.7266 40.6899 34.4808 37.2351 33.3682H37.2109Z" fill="#7A369E"/>
<path fill-rule="evenodd" clip-rule="evenodd" d="M28.6163 55.5362C29.8164 54.7743 30.8953 53.8309 31.7802 52.5852C28.7012 49.5858 25.3555 47.1428 21.8764 44.9658C23.0401 48.2434 25.8282 52.7183 28.6284 55.5362H28.6163Z" fill="url(#paint39_radial_206_13193)"/>
<path fill-rule="evenodd" clip-rule="evenodd" d="M31.7681 52.5853C30.8953 53.8431 29.8043 54.7744 28.6042 55.5363C31.4044 56.8667 36.4714 58.4753 39.9626 58.9228C39.8656 57.0481 39.4899 55.4638 38.8231 54.1697C36.4714 53.9399 34.1198 53.4198 31.7681 52.5732V52.5853Z" fill="url(#paint40_radial_206_13193)"/>
<path fill-rule="evenodd" clip-rule="evenodd" d="M42.5204 49.7673C41.5142 51.3395 40.2657 52.8029 38.8231 54.1817C39.4898 55.4758 39.8656 57.0601 39.9626 58.9347C43.2356 57.9914 46.3631 56.5159 49.3088 54.484C51.2604 52.2224 52.7029 49.6705 53.6606 46.8404C53.8182 46.0785 53.9273 45.3045 53.9879 44.4941C52.6302 44.7602 51.1756 44.8086 49.6361 44.6635C47.5389 46.6832 45.163 48.3764 42.5325 49.7673H42.5204Z" fill="url(#paint41_radial_206_13193)"/>
<path fill-rule="evenodd" clip-rule="evenodd" d="M40.7384 41.4346C41.0536 44.2646 41.6597 47.0342 42.5204 49.7675C45.1509 48.3767 47.5268 46.6835 49.624 44.6638C46.6055 43.7325 43.6356 42.6561 40.7263 41.4346H40.7384Z" fill="url(#paint42_radial_206_13193)"/>
<path fill-rule="evenodd" clip-rule="evenodd" d="M40.7384 41.4347C43.6477 42.6562 46.6176 43.7326 49.636 44.6639C51.1756 44.7969 52.6302 44.7485 53.9879 44.4946C51.8908 41.7733 49.5027 39.4149 46.8843 37.3226C43.9508 35.7383 40.6657 34.4926 37.2109 33.3799C35.0168 33.6701 32.9802 34.2628 31.0407 35.0368C34.0591 37.4194 37.1987 39.6689 40.7384 41.4347Z" fill="url(#paint43_radial_206_13193)"/>
<path fill-rule="evenodd" clip-rule="evenodd" d="M42.5204 49.768C41.6597 47.0347 41.0536 44.253 40.7384 41.435C37.1866 39.6692 34.0591 37.4197 31.0407 35.0371C27.7799 36.7787 25.0766 38.9436 22.6643 41.3141C22.2158 42.4872 21.9976 43.7208 21.8764 44.9786C25.3555 47.1556 28.7012 49.5986 31.7802 52.598C34.1319 53.4446 36.4836 53.9647 38.8352 54.1945C40.2778 52.8157 41.5142 51.3523 42.5325 49.7801L42.5204 49.768Z" fill="url(#paint44_radial_206_13193)"/>
<path fill-rule="evenodd" clip-rule="evenodd" d="M17.6942 49.707C16.3002 50.2876 10.3604 53.166 8.00866 55.2946C8.22686 57.9795 8.00866 60.7008 7.63287 63.4341C7.93593 63.8332 8.29959 64.2081 8.71174 64.583C9.80273 64.8249 12.7848 64.1597 13.9849 63.5913C14.6758 63.1196 15.2819 62.5149 15.7547 61.7409C16.4457 60.604 17.0518 59.3946 17.5973 58.173C17.9973 55.2946 18.0337 52.4645 17.6821 49.707H17.6942Z" fill="url(#paint45_radial_206_13193)"/>
<path fill-rule="evenodd" clip-rule="evenodd" d="M19.7793 61.3178C18.3731 61.2936 17.0518 61.4629 15.7668 61.7411C15.2819 62.5151 14.6758 63.1198 13.997 63.5915C12.809 64.1599 9.81487 64.8251 8.72388 64.5832C10.421 66.1071 12.8575 67.4133 14.6758 68.2841C16.3244 68.2841 17.8518 68.0664 19.3065 67.6794C21.2581 66.6997 23.125 65.575 24.8584 64.2688C24.3372 63.4826 23.7795 62.7086 23.1371 61.9829C21.9976 61.6927 20.8824 61.4871 19.7914 61.3057L19.7793 61.3178Z" fill="url(#paint46_radial_206_13193)"/>
<path fill-rule="evenodd" clip-rule="evenodd" d="M15.7668 61.7534C17.0518 61.4631 18.3731 61.2938 19.7793 61.3301C18.955 60.3262 18.2276 59.2861 17.6094 58.1855C17.0518 59.4192 16.4578 60.6165 15.7668 61.7534Z" fill="url(#paint47_radial_206_13193)"/>
<path fill-rule="evenodd" clip-rule="evenodd" d="M26.8222 59.0684C25.5251 59.8424 24.2887 60.8099 23.1249 62.0073C23.7795 62.7329 24.325 63.507 24.8463 64.2931C24.8463 64.2931 24.8705 64.281 24.8705 64.2689C25.7918 62.6362 26.4464 60.9067 26.8101 59.0805L26.8222 59.0684Z" fill="url(#paint48_radial_206_13193)"/>
<path fill-rule="evenodd" clip-rule="evenodd" d="M23.1249 61.9952C24.2765 60.7979 25.513 59.8303 26.8222 59.0563C25.7554 56.7584 24.4341 54.6177 22.834 52.6463C21.8764 51.7755 20.8339 50.9531 19.7307 50.1549C19.0519 49.8646 18.3731 49.7316 17.6942 49.6953C18.0336 52.4649 18.0094 55.2829 17.6094 58.1613C18.2276 59.2619 18.9549 60.302 19.7792 61.3058C20.8702 61.4873 21.9855 61.705 23.1249 61.9831V61.9952Z" fill="url(#paint49_radial_206_13193)"/>
<path fill-rule="evenodd" clip-rule="evenodd" d="M62.9582 49.1393C62.7522 48.2685 62.243 46.3092 62.5218 45.8496C63.031 46.8413 63.4067 47.9298 63.6977 49.0667C63.4431 49.0546 63.2007 49.0667 62.9582 49.1393Z" fill="url(#paint50_radial_206_13193)"/>
<path fill-rule="evenodd" clip-rule="evenodd" d="M61.443 52.2596C62.037 51.2679 62.5461 50.2277 62.9583 49.1393C63.2007 49.0667 63.4553 49.0425 63.6977 49.0667C63.6007 50.3366 63.4068 51.5823 63.0916 52.7917C62.5582 52.5861 62.0127 52.3926 61.443 52.2596Z" fill="url(#paint51_radial_206_13193)"/>
<path fill-rule="evenodd" clip-rule="evenodd" d="M61.443 52.2598C62.0248 52.3807 62.5703 52.5742 63.0916 52.7919C62.7158 53.4087 61.5157 54.6544 60.5217 55.4527C60.4611 54.594 60.4611 53.7474 60.5459 52.9008C60.8975 52.7314 61.1763 52.5137 61.443 52.2598Z" fill="url(#paint52_radial_206_13193)"/>
<path fill-rule="evenodd" clip-rule="evenodd" d="M60.546 52.9002C60.4611 53.7468 60.4611 54.5934 60.5217 55.4521C60.0126 55.7665 59.4792 56.0568 58.861 56.3349C58.1821 56.0205 56.0971 54.7627 55.3456 54.1943C55.2001 53.9282 54.897 53.3356 54.8122 52.9364C55.4668 52.622 56.0608 52.2229 56.6184 51.7754C58.0246 52.5373 59.3337 52.8881 60.546 52.9002Z" fill="url(#paint53_radial_206_13193)"/>
<path fill-rule="evenodd" clip-rule="evenodd" d="M57.77 47.1073C57.176 48.728 56.7881 50.2881 56.6184 51.7637C56.0608 52.2232 55.4668 52.6103 54.8122 52.9247C55.2971 51.2799 56.4729 48.3652 57.3094 46.7324C57.4669 46.8534 57.6124 46.9743 57.77 47.1073Z" fill="url(#paint54_radial_206_13193)"/>
<path fill-rule="evenodd" clip-rule="evenodd" d="M57.77 47.1074C57.6124 46.9865 57.4669 46.8655 57.3093 46.7325C57.9882 46.0794 59.1519 45.3175 60.0368 44.9062C59.2367 45.6077 58.4367 46.3213 57.77 47.1074Z" fill="url(#paint55_radial_206_13193)"/>
<path fill-rule="evenodd" clip-rule="evenodd" d="M57.77 47.1074C58.4367 46.3213 59.2368 45.6198 60.0369 44.9062C60.9096 45.1239 61.7339 45.4263 62.5219 45.8375C62.2431 46.2971 62.7522 48.2564 62.9583 49.1272C62.5461 50.2277 62.037 51.2558 61.443 52.2475C61.1885 52.4894 60.8975 52.7071 60.546 52.8885C59.3216 52.8764 58.0246 52.5257 56.6184 51.7637C56.7881 50.2882 57.176 48.7401 57.77 47.1074Z" fill="url(#paint56_radial_206_13193)"/>
<path style="mix-blend-mode:multiply" fill-rule="evenodd" clip-rule="evenodd" d="M6.57825 29.8128C7.23284 30.3329 8.85721 31.8205 10.627 31.9656C13.997 31.893 19.2822 30.8771 21.743 29.6435C23.5613 26.9465 24.1674 22.2055 24.3735 18.5409C23.7917 17.0291 23.2825 16.0616 22.2158 14.707C17.5973 20.1495 11.1968 24.3583 6.57825 29.8128Z" fill="url(#paint57_radial_206_13193)"/>
<path fill-rule="evenodd" clip-rule="evenodd" d="M10.8453 31.2391C9.8149 30.4046 8.8815 29.4733 8.06931 28.4211C6.65103 28.2518 4.67512 27.514 3.87506 27.0303C5.11152 28.6872 6.61466 30.0055 8.34812 31.0456C8.76027 31.1544 10.3968 31.2996 10.8332 31.2391H10.8453Z" fill="url(#paint58_radial_206_13193)"/>
<path fill-rule="evenodd" clip-rule="evenodd" d="M8.08142 28.421C8.8936 29.4611 9.82701 30.4044 10.8574 31.2389C12.6878 31.0454 18.9307 28.8805 19.8884 28.0581C18.8337 26.8003 17.9609 25.2885 17.2336 23.6074C14.3728 25.4699 11.3059 27.0543 8.08142 28.433V28.421Z" fill="url(#paint59_radial_206_13193)"/>
<path fill-rule="evenodd" clip-rule="evenodd" d="M17.2336 23.6081C17.961 25.2892 18.8216 26.801 19.8884 28.0588C21.6946 24.6845 22.5674 22.2294 23.2947 18.3592C23.2705 17.5973 23.1856 16.8353 22.9916 16.0976C22.5189 15.1542 21.9613 14.2471 21.3552 13.3643C20.3248 17.0167 18.8944 20.391 17.2336 23.596V23.6081Z" fill="url(#paint60_radial_206_13193)"/>
<path fill-rule="evenodd" clip-rule="evenodd" d="M8.08144 28.4213C11.3059 27.0425 14.3728 25.4582 17.2336 23.5956C18.8822 20.3907 20.3248 17.0163 21.3552 13.3639C20.2642 12.1665 18.2155 10.5822 16.773 9.75977C14.1667 10.7999 11.0029 12.9527 8.49359 15.0934C6.66315 17.1252 4.11751 21.4308 3.6205 22.9305C3.53565 24.3092 3.6205 25.6759 3.89931 27.0304C4.69937 27.5142 6.67528 28.252 8.09356 28.4213H8.08144Z" fill="url(#paint61_radial_206_13193)"/>
<path style="mix-blend-mode:multiply" fill-rule="evenodd" clip-rule="evenodd" d="M3.40228 39.5966C3.40228 42.3299 3.69321 45.0027 4.23871 47.5667C7.22075 47.0225 9.12392 46.8653 12.009 45.4139C12.1666 42.0517 10.3604 37.4196 7.40258 34.6621L3.58411 35.8353C3.46289 37.0689 3.40228 38.3267 3.40228 39.5845V39.5966Z" fill="url(#paint62_radial_206_13193)"/>
<path fill-rule="evenodd" clip-rule="evenodd" d="M2.26282 45.8857C2.86892 46.3695 3.47503 46.817 4.08114 47.2282C4.25084 47.3129 4.43268 47.3854 4.60239 47.4459C4.31146 47.6031 3.82657 47.7604 3.68111 47.7604C2.95378 47.0589 2.5295 46.3574 2.26282 45.8978V45.8857Z" fill="url(#paint63_radial_206_13193)"/>
<path fill-rule="evenodd" clip-rule="evenodd" d="M4.08112 47.2279C4.35992 45.9943 4.75995 44.8332 5.35394 43.7568C6.91769 43.8778 8.46932 43.9141 9.99671 43.7931C8.80874 45.0509 7.00255 46.2725 4.60237 47.4456C4.43266 47.3851 4.25083 47.3247 4.08112 47.2279Z" fill="url(#paint64_radial_206_13193)"/>
<path fill-rule="evenodd" clip-rule="evenodd" d="M5.35394 43.7569C4.77208 44.8333 4.37205 45.9943 4.08112 47.2279C3.46289 46.8167 2.85679 46.3692 2.2628 45.8855C1.75367 44.5188 1.3294 43.0675 0.953613 41.5678C0.953613 39.7295 1.01422 37.8911 1.15969 36.0528C1.41425 35.8109 2.17795 35.2425 2.6992 35.0127C3.76594 35.0974 4.83269 35.1336 5.89944 35.0974C6.02066 35.2183 6.17825 35.3151 6.38432 35.3997C4.84481 37.105 4.50539 38.7619 4.95391 40.3826C4.73571 41.6646 4.92967 42.753 5.35394 43.7448V43.7569Z" fill="url(#paint65_radial_206_13193)"/>
<path fill-rule="evenodd" clip-rule="evenodd" d="M5.35393 43.7569C4.92966 42.7651 4.7357 41.6767 4.9539 40.3947C4.50538 38.774 4.8448 37.1171 6.38431 35.4118C6.8692 35.4118 7.40257 35.3876 7.99655 35.3271C8.4572 36.3431 10.0937 41.3743 9.9967 43.7932C8.46932 43.9141 6.91769 43.8899 5.35393 43.7569Z" fill="url(#paint66_radial_206_13193)"/>
<path fill-rule="evenodd" clip-rule="evenodd" d="M7.99654 35.3158C7.40256 35.3763 6.86918 35.4005 6.3843 35.4005C6.17822 35.3158 6.03276 35.207 5.89941 35.0981C6.3843 34.9288 6.88131 34.7837 7.40256 34.6748C7.63288 34.8683 7.82683 35.0739 7.99654 35.3158Z" fill="url(#paint67_radial_206_13193)"/>
<path fill-rule="evenodd" clip-rule="evenodd" d="M7.4026 34.6746C6.88135 34.7834 6.38434 34.9286 5.89946 35.0979C4.82059 35.1221 3.75384 35.0979 2.69922 35.0132C3.55989 34.5899 4.42056 34.2029 5.30547 33.8643C6.0328 34.1061 6.73588 34.3843 7.4026 34.6867V34.6746Z" fill="url(#paint68_radial_206_13193)"/>
<path fill-rule="evenodd" clip-rule="evenodd" d="M30.6285 20.452C30.4952 18.5895 30.6285 16.7632 30.9801 14.9854C31.4044 16.6181 32.1923 18.2871 33.0408 19.9077C32.1802 20.0045 31.3801 20.2101 30.6285 20.4641V20.452Z" fill="url(#paint69_radial_206_13193)"/>
<path fill-rule="evenodd" clip-rule="evenodd" d="M30.6285 20.4518C31.3801 20.1979 32.1802 20.0044 33.0408 19.8955C34.2652 21.1049 35.5622 22.2902 37.126 23.3908C36.6169 24.7816 35.9865 26.0757 35.2956 27.3214C33.4409 25.0719 31.9741 22.774 30.6407 20.4518H30.6285Z" fill="url(#paint70_radial_206_13193)"/>
<path fill-rule="evenodd" clip-rule="evenodd" d="M35.2834 27.3331C35.9744 26.0873 36.6048 24.7933 37.1139 23.4024C39.2474 23.1242 41.296 22.6042 43.284 21.8906C45.2115 25.2166 47.2722 28.3974 49.636 31.2879C48.3268 31.8321 47.0055 32.1708 45.6963 32.4127C41.9749 31.3 38.5564 29.4738 35.2834 27.3331Z" fill="url(#paint71_radial_206_13193)"/>
<path fill-rule="evenodd" clip-rule="evenodd" d="M49.6361 31.2764C47.2722 28.3859 45.1994 25.2051 43.2841 21.8791C44.0962 20.9479 44.8963 20.0045 45.7085 19.0732C47.1995 19.2788 49.0421 19.6175 50.6179 20.2222C52.412 21.7824 53.7454 23.3304 54.8728 24.8906C53.5273 27.3216 51.8423 29.4985 49.6361 31.2764Z" fill="url(#paint72_radial_206_13193)"/>
<path fill-rule="evenodd" clip-rule="evenodd" d="M54.8728 24.9027C53.7454 23.3425 52.3999 21.7944 50.6179 20.2343C50.9573 18.4201 50.9331 16.485 50.7997 14.5137C52.5817 17.8759 53.9879 21.3228 54.8849 24.9027H54.8728Z" fill="url(#paint73_radial_206_13193)"/>
<path fill-rule="evenodd" clip-rule="evenodd" d="M50.7877 14.5134C50.921 16.4848 50.9574 18.4078 50.6058 20.234C49.03 19.6293 47.1874 19.2907 45.6964 19.0851C44.9448 16.9202 43.769 14.4772 42.7143 12.9291C42.1203 12.5421 39.2474 11.2238 37.4655 10.873C39.2838 11.0545 41.6233 11.3689 42.8234 11.6713C45.1751 12.3727 48.2056 13.5943 50.7755 14.5255L50.7877 14.5134Z" fill="url(#paint74_radial_206_13193)"/>
<path fill-rule="evenodd" clip-rule="evenodd" d="M42.7264 12.9168C43.781 14.4648 44.9569 16.9079 45.7085 19.0728C44.8963 20.004 44.0962 20.9474 43.284 21.8786C41.296 22.6043 39.2474 23.1123 37.1139 23.3904C35.5622 22.2898 34.253 21.1046 33.0287 19.8952C32.1802 18.2745 31.3922 16.6055 30.968 14.9728C32.265 13.715 35.4168 11.659 37.4654 10.8486C39.2474 11.1994 42.1203 12.5176 42.7143 12.9047L42.7264 12.9168Z" fill="url(#paint75_radial_206_13193)"/>
<g style="mix-blend-mode:screen">
<path fill-rule="evenodd" clip-rule="evenodd" d="M35.6956 22.3504C36.035 21.9755 38.4352 22.3142 38.908 23.2333C39.1019 23.6203 37.2594 24.6484 36.7139 24.5395C36.3502 24.4669 35.3683 22.7254 35.6956 22.3625V22.3504Z" fill="#796AE5"/>
</g>
<path fill-rule="evenodd" clip-rule="evenodd" d="M35.5986 22.3141C35.9138 21.9633 38.3988 22.5438 38.6776 23.1607C38.8352 23.5235 37.1623 24.5757 36.6532 24.4789C36.3138 24.4064 35.2955 22.6527 35.5986 22.3141Z" fill="url(#paint76_radial_206_13193)"/>
<path style="mix-blend-mode:screen" opacity="0.75" fill-rule="evenodd" clip-rule="evenodd" d="M40.7384 41.435C37.1866 39.6692 34.0591 37.4197 31.0407 35.0371C27.7799 36.7787 25.0766 38.9436 22.6643 41.3141C22.2158 42.4872 21.9976 43.7208 21.8764 44.9786C24.0826 46.3574 26.2282 47.845 28.3011 49.514C31.3195 49.6228 39.2353 44.7488 40.7505 41.4471L40.7384 41.435Z" fill="url(#paint77_radial_206_13193)"/>
<path style="mix-blend-mode:screen" fill-rule="evenodd" clip-rule="evenodd" d="M8.08144 28.4213C11.3059 27.0425 14.3728 25.4582 17.2336 23.5956C18.8822 20.3907 20.3248 17.0163 21.3552 13.3639C20.2642 12.1665 18.2155 10.5822 16.773 9.75977C14.1667 10.7999 11.0029 12.9527 8.49359 15.0934C6.66315 17.1252 4.11751 21.4308 3.6205 22.9305C3.53565 24.3092 3.6205 25.6759 3.89931 27.0304C4.69937 27.5142 6.67528 28.252 8.09356 28.4213H8.08144Z" fill="url(#paint78_radial_206_13193)"/>
<path style="mix-blend-mode:screen" fill-rule="evenodd" clip-rule="evenodd" d="M42.7264 12.9168C43.781 14.4648 44.9569 16.9079 45.7085 19.0728C44.8963 20.004 44.0962 20.9474 43.284 21.8786C41.296 22.6043 39.2474 23.1123 37.1139 23.3904C35.5622 22.2898 34.253 21.1046 33.0287 19.8952C32.1802 18.2745 31.3922 16.6055 30.968 14.9728C32.265 13.715 35.4168 11.659 37.4654 10.8486C39.2474 11.1994 42.1203 12.5176 42.7143 12.9047L42.7264 12.9168Z" fill="url(#paint79_radial_206_13193)"/>
</g>
<defs>
<radialGradient id="paint0_radial_206_13193" cx="0" cy="0" r="1" gradientUnits="userSpaceOnUse" gradientTransform="translate(29.6224 21.6007) scale(62.8168 62.6727)">
<stop stop-color="#94FFE1"/>
<stop offset="0.09" stop-color="#87F8DC"/>
<stop offset="0.25" stop-color="#67E8D0"/>
<stop offset="0.47" stop-color="#33CEBD"/>
<stop offset="0.5" stop-color="#2DCBBB"/>
<stop offset="0.96" stop-color="#008A86"/>
</radialGradient>
<radialGradient id="paint1_radial_206_13193" cx="0" cy="0" r="1" gradientUnits="userSpaceOnUse" gradientTransform="translate(46.6176 46.3819) scale(47.0581 46.9501)">
<stop offset="0.04"/>
<stop offset="0.84"/>
<stop offset="0.85" stop-color="#0B1511"/>
<stop offset="0.9" stop-color="#366751"/>
<stop offset="0.93" stop-color="#57A884"/>
<stop offset="0.96" stop-color="#70D7A8"/>
<stop offset="0.99" stop-color="#7FF4BF"/>
<stop offset="1" stop-color="#85FFC8"/>
</radialGradient>
<radialGradient id="paint2_radial_206_13193" cx="0" cy="0" r="1" gradientUnits="userSpaceOnUse" gradientTransform="translate(28.8466 24.4791) scale(64.0533 63.9063)">
<stop offset="0.33" stop-color="white"/>
<stop offset="0.4" stop-color="#F3FAFA"/>
<stop offset="0.52" stop-color="#D6EDEC"/>
<stop offset="0.68" stop-color="#A6D9D6"/>
<stop offset="0.87" stop-color="#64BDB9"/>
<stop offset="1" stop-color="#35AAA4"/>
</radialGradient>
<radialGradient id="paint3_radial_206_13193" cx="0" cy="0" r="1" gradientUnits="userSpaceOnUse" gradientTransform="translate(14.9668 8.16399) scale(58.8771 58.742)">
<stop stop-color="#C4FFE2"/>
<stop offset="1"/>
</radialGradient>
<radialGradient id="paint4_radial_206_13193" cx="0" cy="0" r="1" gradientUnits="userSpaceOnUse" gradientTransform="translate(72.7408 33.5736) scale(19.7833 19.7379)">
<stop stop-color="#AB46DB"/>
<stop offset="1" stop-color="#DA92F7"/>
</radialGradient>
<radialGradient id="paint5_radial_206_13193" cx="0" cy="0" r="1" gradientUnits="userSpaceOnUse" gradientTransform="translate(75.8683 19.5805) scale(15.4921 15.4565)">
<stop stop-color="#B24CED"/>
<stop offset="1" stop-color="#791D9B"/>
</radialGradient>
<radialGradient id="paint6_radial_206_13193" cx="0" cy="0" r="1" gradientUnits="userSpaceOnUse" gradientTransform="translate(69.5163 27.3698) scale(12.9828 12.953)">
<stop stop-color="#B24CED"/>
<stop offset="1" stop-color="#73069B"/>
</radialGradient>
<radialGradient id="paint7_radial_206_13193" cx="0" cy="0" r="1" gradientUnits="userSpaceOnUse" gradientTransform="translate(72.7529 46.1161) scale(10.2432 10.2197)">
<stop stop-color="#D487FF"/>
<stop offset="1" stop-color="#7F34CB"/>
</radialGradient>
<radialGradient id="paint8_radial_206_13193" cx="0" cy="0" r="1" gradientUnits="userSpaceOnUse" gradientTransform="translate(75.3713 44.4954) scale(19.6136 19.5686)">
<stop stop-color="#D487FF"/>
<stop offset="1" stop-color="#7F34CB"/>
</radialGradient>
<radialGradient id="paint9_radial_206_13193" cx="0" cy="0" r="1" gradientUnits="userSpaceOnUse" gradientTransform="translate(73.8197 54.6913) scale(19.6742 19.6291)">
<stop stop-color="#9D41FC"/>
<stop offset="1" stop-color="#6514A9"/>
</radialGradient>
<radialGradient id="paint10_radial_206_13193" cx="0" cy="0" r="1" gradientUnits="userSpaceOnUse" gradientTransform="translate(69.5163 52.2232) scale(15.5163 15.4807)">
<stop stop-color="#9D41FC"/>
<stop offset="1" stop-color="#6514A9"/>
</radialGradient>
<radialGradient id="paint11_radial_206_13193" cx="0" cy="0" r="1" gradientUnits="userSpaceOnUse" gradientTransform="translate(70.5952 49.0429) scale(14.1465 14.1141)">
<stop stop-color="#9D41FC"/>
<stop offset="1" stop-color="#6514A9"/>
</radialGradient>
<radialGradient id="paint12_radial_206_13193" cx="0" cy="0" r="1" gradientUnits="userSpaceOnUse" gradientTransform="translate(31.2953 -0.447414) scale(7.64906 7.63151)">
<stop stop-color="#C799FF"/>
<stop offset="1" stop-color="#7C4BC4"/>
</radialGradient>
<radialGradient id="paint13_radial_206_13193" cx="0" cy="0" r="1" gradientUnits="userSpaceOnUse" gradientTransform="translate(39.9989 4.39031) scale(10.1947 10.1713)">
<stop stop-color="#6D31B5"/>
<stop offset="1" stop-color="#9B5BF5"/>
</radialGradient>
<radialGradient id="paint14_radial_206_13193" cx="0" cy="0" r="1" gradientUnits="userSpaceOnUse" gradientTransform="translate(30.374 12.0705) scale(13.3828 13.3521)">
<stop stop-color="#9B5BF5"/>
<stop offset="1" stop-color="#5617A3"/>
</radialGradient>
<radialGradient id="paint15_radial_206_13193" cx="0" cy="0" r="1" gradientUnits="userSpaceOnUse" gradientTransform="translate(57.6245 48.2084) scale(10.9948 10.9695)">
<stop stop-color="#1A4340"/>
<stop offset="1" stop-color="white"/>
</radialGradient>
<radialGradient id="paint16_radial_206_13193" cx="0" cy="0" r="1" gradientUnits="userSpaceOnUse" gradientTransform="translate(57.9882 31.2885) scale(7.77028 7.75245)">
<stop stop-color="#1A4340"/>
<stop offset="1" stop-color="white"/>
</radialGradient>
<radialGradient id="paint17_radial_206_13193" cx="0" cy="0" r="1" gradientUnits="userSpaceOnUse" gradientTransform="translate(63.5643 33.5618) scale(11.9645 11.9371)">
<stop stop-color="#BA92FF"/>
<stop offset="1" stop-color="#7A5AEF"/>
</radialGradient>
<radialGradient id="paint18_radial_206_13193" cx="0" cy="0" r="1" gradientUnits="userSpaceOnUse" gradientTransform="translate(57.8548 33.7553) scale(6.81264 6.797)">
<stop stop-color="#9969FF"/>
<stop offset="1" stop-color="#6B3FE0"/>
</radialGradient>
<radialGradient id="paint19_radial_206_13193" cx="0" cy="0" r="1" gradientUnits="userSpaceOnUse" gradientTransform="translate(56.8851 31.1549) scale(7.90361 7.88549)">
<stop stop-color="#9969FF"/>
<stop offset="1" stop-color="#613BCE"/>
</radialGradient>
<radialGradient id="paint20_radial_206_13193" cx="0" cy="0" r="1" gradientUnits="userSpaceOnUse" gradientTransform="translate(57.6972 29.498) scale(8.77642 8.75628)">
<stop stop-color="#9969FF"/>
<stop offset="1" stop-color="#6B3FE0"/>
</radialGradient>
<radialGradient id="paint21_radial_206_13193" cx="0" cy="0" r="1" gradientUnits="userSpaceOnUse" gradientTransform="translate(52.2423 63.9184) scale(15.6497 15.6137)">
<stop stop-color="#1A4340"/>
<stop offset="1" stop-color="white"/>
</radialGradient>
<radialGradient id="paint22_radial_206_13193" cx="0" cy="0" r="1" gradientUnits="userSpaceOnUse" gradientTransform="translate(43.6114 62.2133) scale(17.7347 17.694)">
<stop stop-color="#C799FF"/>
<stop offset="1" stop-color="#7C4BC4"/>
</radialGradient>
<radialGradient id="paint23_radial_206_13193" cx="0" cy="0" r="1" gradientUnits="userSpaceOnUse" gradientTransform="translate(45.4539 82.4951) scale(22.9108 22.8582)">
<stop stop-color="#C799FF"/>
<stop offset="1" stop-color="#7C4BC4"/>
</radialGradient>
<radialGradient id="paint24_radial_206_13193" cx="0" cy="0" r="1" gradientUnits="userSpaceOnUse" gradientTransform="translate(33.4894 44.9301) scale(39.2151 39.1251)">
<stop stop-color="#AC70FF"/>
<stop offset="1" stop-color="#6D31B5"/>
</radialGradient>
<radialGradient id="paint25_radial_206_13193" cx="0" cy="0" r="1" gradientUnits="userSpaceOnUse" gradientTransform="translate(44.169 77.2704) scale(19.2257 19.1816)">
<stop stop-color="#9B5BF5"/>
<stop offset="1" stop-color="#5A1DA3"/>
</radialGradient>
<radialGradient id="paint26_radial_206_13193" cx="0" cy="0" r="1" gradientUnits="userSpaceOnUse" gradientTransform="translate(43.6962 56.6619) scale(29.7598 29.6915)">
<stop stop-color="#9B5BF5"/>
<stop offset="1" stop-color="#6D31B5"/>
</radialGradient>
<radialGradient id="paint27_radial_206_13193" cx="0" cy="0" r="1" gradientUnits="userSpaceOnUse" gradientTransform="translate(30.6407 71.5014) scale(8.60671 8.58696)">
<stop stop-color="#1A4340"/>
<stop offset="1" stop-color="white"/>
</radialGradient>
<radialGradient id="paint28_radial_206_13193" cx="0" cy="0" r="1" gradientUnits="userSpaceOnUse" gradientTransform="translate(26.1798 66.652) scale(10.9463 10.9211)">
<stop stop-color="#D487FF"/>
<stop offset="1" stop-color="#7F34CB"/>
</radialGradient>
<radialGradient id="paint29_radial_206_13193" cx="0" cy="0" r="1" gradientUnits="userSpaceOnUse" gradientTransform="translate(28.5315 79.7501) scale(40.9606 40.8667)">
<stop stop-color="#7019BC"/>
<stop offset="1" stop-color="#9D41FC"/>
</radialGradient>
<radialGradient id="paint30_radial_206_13193" cx="0" cy="0" r="1" gradientUnits="userSpaceOnUse" gradientTransform="translate(23.5735 71.6833) scale(15.7588 15.7226)">
<stop stop-color="#9D41FC"/>
<stop offset="1" stop-color="#6514A9"/>
</radialGradient>
<radialGradient id="paint31_radial_206_13193" cx="0" cy="0" r="1" gradientUnits="userSpaceOnUse" gradientTransform="translate(53.8182 7.30535) scale(13.4434 13.4126)">
<stop stop-color="#1A4340"/>
<stop offset="1" stop-color="white"/>
</radialGradient>
<radialGradient id="paint32_radial_206_13193" cx="0" cy="0" r="1" gradientUnits="userSpaceOnUse" gradientTransform="translate(55.1152 3.36254) scale(6.75202 6.73653)">
<stop stop-color="#9B5BF5"/>
<stop offset="1" stop-color="#5617A3"/>
</radialGradient>
<radialGradient id="paint33_radial_206_13193" cx="0" cy="0" r="1" gradientUnits="userSpaceOnUse" gradientTransform="translate(54.3758 2.26144) scale(9.52799 9.50612)">
<stop stop-color="#9B5BF5"/>
<stop offset="1" stop-color="#5617A3"/>
</radialGradient>
<radialGradient id="paint34_radial_206_13193" cx="0" cy="0" r="1" gradientUnits="userSpaceOnUse" gradientTransform="translate(53.9394 5.00729) scale(8.36427 8.34507)">
<stop stop-color="#9B5BF5"/>
<stop offset="1" stop-color="#5617A3"/>
</radialGradient>
<radialGradient id="paint35_radial_206_13193" cx="0" cy="0" r="1" gradientUnits="userSpaceOnUse" gradientTransform="translate(51.4422 6.67621) scale(10.122 10.0987)">
<stop stop-color="#9B5BF5"/>
<stop offset="1" stop-color="#622CA3"/>
</radialGradient>
<radialGradient id="paint36_radial_206_13193" cx="0" cy="0" r="1" gradientUnits="userSpaceOnUse" gradientTransform="translate(53.8424 6.91817) scale(8.40063 8.38135)">
<stop stop-color="#BA82FF"/>
<stop offset="1" stop-color="#7C4BC4"/>
</radialGradient>
<radialGradient id="paint37_radial_206_13193" cx="0" cy="0" r="1" gradientUnits="userSpaceOnUse" gradientTransform="translate(52.4362 0.677045) scale(12.5949 12.566)">
<stop stop-color="#BA82FF"/>
<stop offset="1" stop-color="#7C4BC4"/>
</radialGradient>
<radialGradient id="paint38_radial_206_13193" cx="0" cy="0" r="1" gradientUnits="userSpaceOnUse" gradientTransform="translate(30.5073 32.5578) scale(41.7486 41.6528)">
<stop stop-color="#1A4340"/>
<stop offset="1" stop-color="white"/>
</radialGradient>
<radialGradient id="paint39_radial_206_13193" cx="0" cy="0" r="1" gradientUnits="userSpaceOnUse" gradientTransform="translate(22.131 45.0626) scale(27.0687 27.0066)">
<stop stop-color="#AC70FF"/>
<stop offset="1" stop-color="#6D31B5"/>
</radialGradient>
<radialGradient id="paint40_radial_206_13193" cx="0" cy="0" r="1" gradientUnits="userSpaceOnUse" gradientTransform="translate(39.4292 41.3376) scale(22.9351 22.8824)">
<stop stop-color="#9B5BF5"/>
<stop offset="1" stop-color="#622CA3"/>
</radialGradient>
<radialGradient id="paint41_radial_206_13193" cx="0" cy="0" r="1" gradientUnits="userSpaceOnUse" gradientTransform="translate(31.9499 31.0816) scale(30.5356 30.4656)">
<stop stop-color="#9B5BF5"/>
<stop offset="1" stop-color="#5A1DA3"/>
</radialGradient>
<radialGradient id="paint42_radial_206_13193" cx="0" cy="0" r="1" gradientUnits="userSpaceOnUse" gradientTransform="translate(32.7621 27.4777) scale(25.4686 25.4101)">
<stop stop-color="#BA82FF"/>
<stop offset="1" stop-color="#7C4BC4"/>
</radialGradient>
<radialGradient id="paint43_radial_206_13193" cx="0" cy="0" r="1" gradientUnits="userSpaceOnUse" gradientTransform="translate(53.8909 44.2406) scale(24.2442 24.1886)">
<stop stop-color="#6D31B5"/>
<stop offset="1" stop-color="#9B5BF5"/>
</radialGradient>
<radialGradient id="paint44_radial_206_13193" cx="0" cy="0" r="1" gradientUnits="userSpaceOnUse" gradientTransform="translate(25.5009 38.3509) scale(36.3179 36.2345)">
<stop stop-color="#C799FF"/>
<stop offset="1" stop-color="#7C4BC4"/>
</radialGradient>
<radialGradient id="paint45_radial_206_13193" cx="0" cy="0" r="1" gradientUnits="userSpaceOnUse" gradientTransform="translate(6.56613 53.4563) scale(18.1347 18.0931)">
<stop stop-color="#AB46DB"/>
<stop offset="1" stop-color="#DA92F7"/>
</radialGradient>
<radialGradient id="paint46_radial_206_13193" cx="0" cy="0" r="1" gradientUnits="userSpaceOnUse" gradientTransform="translate(15.6335 57.7137) scale(15.1284 15.0937)">
<stop stop-color="#B24CED"/>
<stop offset="1" stop-color="#791D9B"/>
</radialGradient>
<radialGradient id="paint47_radial_206_13193" cx="0" cy="0" r="1" gradientUnits="userSpaceOnUse" gradientTransform="translate(20.349 57.1212) scale(9.0431 9.02234)">
<stop stop-color="#D173F7"/>
<stop offset="1" stop-color="#933CBC"/>
</radialGradient>
<radialGradient id="paint48_radial_206_13193" cx="0" cy="0" r="1" gradientUnits="userSpaceOnUse" gradientTransform="translate(16.082 56.3592) scale(12.3161 12.2878)">
<stop stop-color="#B24CED"/>
<stop offset="1" stop-color="#73069B"/>
</radialGradient>
<radialGradient id="paint49_radial_206_13193" cx="0" cy="0" r="1" gradientUnits="userSpaceOnUse" gradientTransform="translate(29.5497 58.0404) scale(22.8866 22.834)">
<stop stop-color="#7A10AD"/>
<stop offset="1" stop-color="#B24CED"/>
</radialGradient>
<radialGradient id="paint50_radial_206_13193" cx="0" cy="0" r="1" gradientUnits="userSpaceOnUse" gradientTransform="translate(65.4796 46.9018) scale(9.69767 9.67545)">
<stop stop-color="#9B5BF5"/>
<stop offset="1" stop-color="#5A1DA3"/>
</radialGradient>
<radialGradient id="paint51_radial_206_13193" cx="0" cy="0" r="1" gradientUnits="userSpaceOnUse" gradientTransform="translate(58.2912 49.2602) scale(7.32175 7.30495)">
<stop stop-color="#9B5BF5"/>
<stop offset="1" stop-color="#5A1DA3"/>
</radialGradient>
<radialGradient id="paint52_radial_206_13193" cx="0" cy="0" r="1" gradientUnits="userSpaceOnUse" gradientTransform="translate(58.3518 49.8409) scale(7.8915 7.87339)">
<stop stop-color="#9B5BF5"/>
<stop offset="1" stop-color="#5A1DA3"/>
</radialGradient>
<radialGradient id="paint53_radial_206_13193" cx="0" cy="0" r="1" gradientUnits="userSpaceOnUse" gradientTransform="translate(57.6124 48.9574) scale(9.4795 9.45775)">
<stop stop-color="#AC70FF"/>
<stop offset="1" stop-color="#6D31B5"/>
</radialGradient>
<radialGradient id="paint54_radial_206_13193" cx="0" cy="0" r="1" gradientUnits="userSpaceOnUse" gradientTransform="translate(60.2793 51.6669) scale(10.8129 10.7881)">
<stop stop-color="#9B5BF5"/>
<stop offset="1" stop-color="#5A1DA3"/>
</radialGradient>
<radialGradient id="paint55_radial_206_13193" cx="0" cy="0" r="1" gradientUnits="userSpaceOnUse" gradientTransform="translate(58.7761 45.136) scale(8.6067 8.58695)">
<stop stop-color="#B173FF"/>
<stop offset="1" stop-color="#7C4BC4"/>
</radialGradient>
<radialGradient id="paint56_radial_206_13193" cx="0" cy="0" r="1" gradientUnits="userSpaceOnUse" gradientTransform="translate(58.7034 44.8942) scale(12.4494 12.4208)">
<stop stop-color="#C799FF"/>
<stop offset="1" stop-color="#7C4BC4"/>
</radialGradient>
<radialGradient id="paint57_radial_206_13193" cx="0" cy="0" r="1" gradientUnits="userSpaceOnUse" gradientTransform="translate(12.5302 18.0451) scale(16.1709 16.1338)">
<stop stop-color="#1A4340"/>
<stop offset="1" stop-color="white"/>
</radialGradient>
<radialGradient id="paint58_radial_206_13193" cx="0" cy="0" r="1" gradientUnits="userSpaceOnUse" gradientTransform="translate(5.40245 24.6356) scale(12.1706 12.1427)">
<stop stop-color="#BD6AFF"/>
<stop offset="1" stop-color="#7F34CB"/>
</radialGradient>
<radialGradient id="paint59_radial_206_13193" cx="0" cy="0" r="1" gradientUnits="userSpaceOnUse" gradientTransform="translate(25.0524 35.8227) scale(19.5651 19.5202)">
<stop stop-color="#7019BC"/>
<stop offset="1" stop-color="#9D41FC"/>
</radialGradient>
<radialGradient id="paint60_radial_206_13193" cx="0" cy="0" r="1" gradientUnits="userSpaceOnUse" gradientTransform="translate(-0.719216 14.0657) scale(27.0323 26.9703)">
<stop stop-color="#9D41FC"/>
<stop offset="1" stop-color="#6514A9"/>
</radialGradient>
<radialGradient id="paint61_radial_206_13193" cx="0" cy="0" r="1" gradientUnits="userSpaceOnUse" gradientTransform="translate(9.0997 14.3314) scale(42.7668 42.6687)">
<stop stop-color="#D487FF"/>
<stop offset="1" stop-color="#7F34CB"/>
</radialGradient>
<radialGradient id="paint62_radial_206_13193" cx="0" cy="0" r="1" gradientUnits="userSpaceOnUse" gradientTransform="translate(0.456607 37.4075) scale(14.9829 14.9486)">
<stop stop-color="#1A4340"/>
<stop offset="1" stop-color="white"/>
</radialGradient>
<radialGradient id="paint63_radial_206_13193" cx="0" cy="0" r="1" gradientUnits="userSpaceOnUse" gradientTransform="translate(3.42654 45.015) scale(4.13364 4.12416)">
<stop stop-color="#BA82FF"/>
<stop offset="1" stop-color="#7C4BC4"/>
</radialGradient>
<radialGradient id="paint64_radial_206_13193" cx="0" cy="0" r="1" gradientUnits="userSpaceOnUse" gradientTransform="translate(0.468724 36.597) scale(12.4737 12.445)">
<stop stop-color="#9B5BF5"/>
<stop offset="1" stop-color="#622CA3"/>
</radialGradient>
<radialGradient id="paint65_radial_206_13193" cx="0" cy="0" r="1" gradientUnits="userSpaceOnUse" gradientTransform="translate(0.917248 31.5295) scale(17.9529 17.9117)">
<stop stop-color="#CCA3FF"/>
<stop offset="1" stop-color="#7C4BC4"/>
</radialGradient>
<radialGradient id="paint66_radial_206_13193" cx="0" cy="0" r="1" gradientUnits="userSpaceOnUse" gradientTransform="translate(2.94163 33.6581) scale(16.0982 16.0612)">
<stop stop-color="#9B5BF5"/>
<stop offset="1" stop-color="#622CA3"/>
</radialGradient>
<radialGradient id="paint67_radial_206_13193" cx="0" cy="0" r="1" gradientUnits="userSpaceOnUse" gradientTransform="translate(5.80244 34.9167) scale(5.77013 5.75687)">
<stop stop-color="#9B5BF5"/>
<stop offset="1" stop-color="#6D31B5"/>
</radialGradient>
<radialGradient id="paint68_radial_206_13193" cx="0" cy="0" r="1" gradientUnits="userSpaceOnUse" gradientTransform="translate(4.39632 34.2271) scale(8.40063 8.38134)">
<stop stop-color="#D4B3FF"/>
<stop offset="1" stop-color="#7C4BC4"/>
</radialGradient>
<radialGradient id="paint69_radial_206_13193" cx="0" cy="0" r="1" gradientUnits="userSpaceOnUse" gradientTransform="translate(30.6285 17.1623) scale(28.2445 28.1797)">
<stop stop-color="#C799FF"/>
<stop offset="1" stop-color="#8E56E0"/>
</radialGradient>
<radialGradient id="paint70_radial_206_13193" cx="0" cy="0" r="1" gradientUnits="userSpaceOnUse" gradientTransform="translate(34.4591 16.7752) scale(17.371 17.3311)">
<stop stop-color="#AC70FF"/>
<stop offset="1" stop-color="#6D31B5"/>
</radialGradient>
<radialGradient id="paint71_radial_206_13193" cx="0" cy="0" r="1" gradientUnits="userSpaceOnUse" gradientTransform="translate(40.3747 20.403) scale(54.6708 54.5453)">
<stop stop-color="#9B5BF5"/>
<stop offset="1" stop-color="#622CA3"/>
</radialGradient>
<radialGradient id="paint72_radial_206_13193" cx="0" cy="0" r="1" gradientUnits="userSpaceOnUse" gradientTransform="translate(35.8411 18.142) scale(28.0142 27.9499)">
<stop stop-color="#9B5BF5"/>
<stop offset="1" stop-color="#622CA3"/>
</radialGradient>
<radialGradient id="paint73_radial_206_13193" cx="0" cy="0" r="1" gradientUnits="userSpaceOnUse" gradientTransform="translate(38.3382 24.7938) scale(16.3891 16.3515)">
<stop stop-color="#9B5BF5"/>
<stop offset="1" stop-color="#5A1DA3"/>
</radialGradient>
<radialGradient id="paint74_radial_206_13193" cx="0" cy="0" r="1" gradientUnits="userSpaceOnUse" gradientTransform="translate(34.7743 19.6535) scale(18.8014 18.7583)">
<stop stop-color="#9B5BF5"/>
<stop offset="1" stop-color="#6D31B5"/>
</radialGradient>
<radialGradient id="paint75_radial_206_13193" cx="0" cy="0" r="1" gradientUnits="userSpaceOnUse" gradientTransform="translate(31.3195 19.6412) scale(28.5476 28.4821)">
<stop stop-color="#B980FF"/>
<stop offset="1" stop-color="#883FF2"/>
</radialGradient>
<radialGradient id="paint76_radial_206_13193" cx="0" cy="0" r="1" gradientUnits="userSpaceOnUse" gradientTransform="translate(36.4835 21.7214) scale(2.88507 2.87845)">
<stop stop-color="#6D31B5"/>
<stop offset="1" stop-color="#9B5BF5"/>
</radialGradient>
<radialGradient id="paint77_radial_206_13193" cx="0" cy="0" r="1" gradientUnits="userSpaceOnUse" gradientTransform="translate(23.2341 27.3693) scale(23.3108 23.2573)">
<stop stop-color="white"/>
<stop offset="1"/>
</radialGradient>
<radialGradient id="paint78_radial_206_13193" cx="0" cy="0" r="1" gradientUnits="userSpaceOnUse" gradientTransform="translate(10.0816 5.33325) scale(19.4924 19.4476)">
<stop stop-color="white"/>
<stop offset="1"/>
</radialGradient>
<radialGradient id="paint79_radial_206_13193" cx="0" cy="0" r="1" gradientUnits="userSpaceOnUse" gradientTransform="translate(32.1074 7.89762) scale(15.1163 15.0816)">
<stop stop-color="white"/>
<stop offset="1"/>
</radialGradient>
<clipPath id="clip0_206_13193">
<rect width="81" height="79" fill="white" transform="translate(0.953613 0.0605469)"/>
</clipPath>
</defs>
</svg>
