<svg width="100" height="102" viewBox="0 0 100 102" fill="none" xmlns="http://www.w3.org/2000/svg">
<path d="M87.9615 57.0537C87.9615 76.6471 74.1351 93.0088 55.7109 96.9104C52.9719 97.495 50.1278 97.8037 47.2115 97.8037C38.7711 97.8037 30.9285 95.2355 24.4259 90.8413C23.0859 89.9283 21.8117 88.9496 20.59 87.8921C20.1499 87.5046 19.7164 87.117 19.2894 86.7164C15.8739 83.5044 13.0101 79.7014 10.8622 75.4779C8.05099 69.9474 6.46802 63.6877 6.46802 57.0537C6.46802 50.8598 7.84737 44.9877 10.3236 39.733C16.8329 25.8869 30.9088 16.3037 47.218 16.3037C56.8209 16.3037 65.6291 19.6142 72.5915 25.1775C72.92 25.4403 73.2484 25.703 73.5702 25.9789C74.6014 26.8525 75.5998 27.7786 76.5325 28.7573C76.9529 29.1908 77.3667 29.6243 77.7542 30.0775C77.8791 30.2089 77.9907 30.3403 78.1024 30.4716L78.1746 30.5504C78.8052 31.2861 79.416 32.0546 79.9875 32.8297C85.0057 39.6016 87.9746 47.9828 87.9746 57.0537H87.9615Z" fill="#00AA59"/>
<path opacity="0.57" d="M87.9616 57.0533C87.9616 79.563 69.7147 97.8033 47.205 97.8033C38.7647 97.8033 30.9221 95.2351 24.4194 90.8409C23.0795 89.9279 21.8052 88.9492 20.5835 87.8917C20.8265 87.9771 27.0664 90.1512 42.0817 79.8521C57.4056 69.3493 55.2184 56.3177 63.212 44.1137C69.2878 34.8326 75.2387 31.2595 77.7412 30.0771C77.866 30.2085 77.9777 30.3399 78.0893 30.4712L78.1616 30.5501C78.7922 31.2857 79.403 32.0542 79.9745 32.8293C84.9927 39.6012 87.9616 47.9825 87.9616 57.0533Z" fill="#008243"/>
<path style="mix-blend-mode:color-dodge" d="M79.7313 32.7705C79.1599 31.9955 78.549 31.227 77.9185 30.4913L77.8462 30.4125C77.7608 30.314 77.6755 30.2154 77.5835 30.1104C82.5229 36.8495 85.4458 45.165 85.4458 54.1571C85.4458 73.7504 71.6194 90.1122 53.1952 94.0138H53.1887C50.4497 94.5984 47.6056 94.9071 44.6892 94.9071C36.2489 94.9071 28.4063 92.3388 21.9036 87.9446C20.5637 87.0316 19.2894 86.0529 18.0677 84.9954C17.6277 84.6079 17.1941 84.2204 16.7672 83.8197C15.8279 82.933 14.9346 82.0003 14.0807 81.0282C15.5652 83.0512 17.227 84.9429 19.0464 86.6572C19.4734 87.0579 19.9069 87.4454 20.347 87.8264C21.5687 88.8905 22.8429 89.8692 24.1829 90.7822C30.6855 95.1764 38.5281 97.7446 46.9684 97.7446C49.8848 97.7446 52.7289 97.4359 55.4679 96.8579C73.8921 92.9497 87.7184 76.588 87.7184 56.9946C87.7184 47.9237 84.7496 39.5425 79.7313 32.7705Z" fill="url(#paint0_radial_206_16493)"/>
<path opacity="0.3" d="M72.5782 25.1775C70.1676 29.3944 59.3299 46.5444 40.9451 48.7382C25.8576 50.5313 15.1446 43.7068 10.3103 39.733C16.8195 25.8869 30.8955 16.3037 47.2047 16.3037C56.8076 16.3037 65.6158 19.6142 72.5782 25.1775Z" fill="#00FF1E"/>
<path d="M64.8012 95.7611H59.98C59.98 95.7611 58.3379 87.3799 70.0164 75.3926C76.1381 69.1133 86.2468 68.7783 86.2468 68.7783L86.2665 73.6389L64.8077 95.7611H64.8012Z" fill="#00AA59"/>
<path d="M6.45469 73.1266C6.45469 73.1266 8.22815 73.698 10.1133 75.6422C11.9984 77.5865 13.4303 79.8526 13.4303 79.8526C13.4303 79.8526 20.8722 76.3582 21.3911 64.4169C22.2121 45.6183 13.2464 34.5244 13.2464 34.5244C13.2464 34.5244 9.58123 41.5657 6.45469 42.3079C3.32816 43.0436 6.45469 73.1266 6.45469 73.1266Z" fill="#00AA59"/>
<path d="M6.45471 73.1263C9.75945 73.1263 12.4385 66.2273 12.4385 57.717C12.4385 49.2066 9.75945 42.3076 6.45471 42.3076C3.14997 42.3076 0.470947 49.2066 0.470947 57.717C0.470947 66.2273 3.14997 73.1263 6.45471 73.1263Z" fill="#FFFF00"/>
<path d="M10.9147 58.1639C10.4484 62.7486 8.99678 66.6043 7.30871 68.2923C6.65188 68.9426 5.96877 69.271 5.28566 69.2053C2.82253 68.9557 1.34466 63.6091 1.98835 57.2575C2.63205 50.9125 5.15429 45.9731 7.61742 46.2293C8.30053 46.3015 8.90482 46.7547 9.41715 47.5298C10.7374 49.52 11.3811 53.5792 10.9147 58.1705V58.1639Z" fill="#00AA59"/>
<path d="M10.9146 58.1642C10.4483 62.7489 8.99668 66.6045 7.30861 68.2925C5.98181 66.3023 5.34468 62.23 5.81103 57.6453C6.27738 53.0606 7.71585 49.2115 9.41705 47.5234C10.7373 49.5136 11.381 53.5729 10.9146 58.1642Z" fill="#00540F"/>
<path d="M41.0566 35.4773C32.6623 37.2507 25.4174 35.3196 24.8722 31.1553C24.3336 26.9975 30.6983 22.1829 39.0992 20.4095C47.4936 18.636 54.7385 20.5671 55.2836 24.7315C55.8288 28.8958 49.4575 33.7038 41.0566 35.4773Z" fill="#FFFF00"/>
<path d="M53.688 25.559C53.7274 26.4326 51.2971 28.7578 50.6206 29.5591C48.8668 31.6347 44.9718 33.2899 40.3674 33.6578C35.7695 34.0321 35.1521 32.1733 33.2144 30.3933C32.9714 30.17 32.1963 30.032 31.2636 29.9204C29.2997 29.6839 26.6198 29.546 26.5936 28.9548C26.4359 25.802 33.4378 22.7477 39.8025 22.2354C46.1672 21.7296 53.5303 22.4062 53.688 25.559Z" fill="#00AA59"/>
<path d="M50.6199 29.5591C48.8662 31.6347 44.9711 33.2899 40.3667 33.6577C35.7689 34.0321 35.1515 32.1733 33.2138 30.3932C32.9708 30.1699 32.1957 30.032 31.263 29.9203C33.3123 28.4819 36.4717 27.4178 40.0449 27.1288C44.6427 26.7609 48.6757 27.7725 50.6199 29.5591Z" fill="#00540F"/>
<path d="M9.20685 42.3072C9.20685 42.3072 13.0953 45.1842 14.1659 54.7083C15.2366 64.2324 9.75202 73.1325 9.75202 73.1325C9.75202 73.1325 12.445 74.4133 15.0724 78.7615L17.6997 83.1163C17.6997 83.1163 18.2186 78.1113 17.1283 74.0586C16.0314 70.0059 17.5815 66.7677 16.9247 57.7231C16.2678 48.6785 10.8227 41.4074 9.21342 42.3138L9.20685 42.3072Z" fill="#008243"/>
<path d="M24.9576 34.2018C24.9576 34.2018 25.332 34.2609 24.3467 38.0377C23.3615 41.8145 19.8343 44.1135 19.8343 44.1135C19.8343 44.1135 26.8361 42.4714 29.7919 40.0082C32.7477 37.5451 36.3405 41.1577 46.0288 39.4302C55.7172 37.7028 61.5433 29.3281 61.5433 29.3281C61.5433 29.3281 59.5728 28.8749 58.0161 28.1392C56.4594 27.4036 55.8814 26.0439 55.8814 26.0439C55.8814 26.0439 55.7434 32.1065 44.4393 35.8965C31.6704 40.179 24.9642 34.1953 24.9642 34.1953L24.9576 34.2018Z" fill="#008243"/>
<path d="M59.4875 95.9186C59.4875 95.9186 57.8454 90.5325 63.7044 82.2696C69.5633 74.0066 79.5801 71.4515 80.6704 71.9441C81.7673 72.4368 71.6783 76.5223 66.7127 83.2285C62.2856 89.2057 62.3316 95.7609 62.3316 95.7609L59.4875 95.9186Z" fill="#008243"/>
<path d="M22.4751 71.6157C22.4948 64.8568 25.4243 59.97 29.0171 60.7122C32.61 61.4544 35.5067 67.5301 35.487 74.289C35.4673 81.0478 32.5378 85.9346 28.9449 85.1924C25.352 84.4502 22.4554 78.3745 22.4751 71.6157Z" fill="#FFFF00"/>
<path d="M24.1303 71.5957C24.6492 68.0554 26.2322 65.3164 28.0779 64.3574C28.7872 63.983 29.4966 66.2294 30.2389 66.4396C32.9187 67.1884 34.5477 69.415 33.8317 74.315C33.1158 79.2084 32.275 84.3843 29.5952 83.6355C28.8529 83.4253 26.2847 81.1067 25.733 80.3842C24.3076 78.5056 23.6114 75.1361 24.1303 71.5957Z" fill="#00540F"/>
<path d="M79.8299 88.8732C85.7555 82.7648 88.6363 75.9476 86.2643 73.6465C83.8923 71.3455 77.1657 74.432 71.24 80.5404C65.3144 86.6487 62.4336 93.466 64.8056 95.767C67.1776 98.0681 73.9042 94.9816 79.8299 88.8732Z" fill="#FFFF00"/>
<path d="M72.6371 81.2709C76.1643 78.302 79.8886 76.5417 82.2795 76.5088C83.2056 76.4957 81.8394 78.8472 82.2795 79.3726C83.8756 81.2709 83.2976 84.023 78.4173 88.1348C73.537 92.24 68.3086 96.5423 66.7125 94.644C66.2724 94.1186 66.141 90.8541 66.3118 89.9477C66.7519 87.6028 69.1165 84.2398 72.6437 81.2709H72.6371Z" fill="#00AA59"/>
<path d="M72.6373 81.2708C76.1645 78.3019 79.8887 76.5416 82.2796 76.5088C81.8461 78.8603 79.4684 82.2232 75.9412 85.1921C72.414 88.161 68.7029 89.9213 66.3054 89.9476C66.7455 87.6027 69.1101 84.2397 72.6373 81.2708Z" fill="#00540F"/>
<path d="M74.3385 49.3625C73.8656 43.3722 75.3697 38.3737 77.7015 38.1898C80.0267 38.0059 82.2928 42.7154 82.7657 48.6991C83.2386 54.6895 81.7345 59.688 79.4027 59.8719C77.0775 60.0558 74.8114 55.3463 74.3385 49.3625Z" fill="#FFFF00"/>
<path d="M75.3828 48.961C75.455 45.7097 76.2629 42.9182 77.3599 41.6373C77.7868 41.1447 78.3911 42.9641 78.8771 42.9707C80.6243 43.0101 81.8132 44.6062 81.7147 49.1055C81.6096 53.6049 81.4519 58.38 79.6982 58.3406C79.2121 58.3275 77.4255 56.8759 77.0249 56.3636C75.9871 55.0368 75.3105 52.2124 75.3828 48.961Z" fill="#00AA59"/>
<path d="M75.3828 48.9614C75.455 45.7101 76.2629 42.9185 77.3599 41.6377C78.4042 42.9645 79.0742 45.7955 79.0019 49.0468C78.9297 52.2981 78.1283 55.0897 77.0249 56.3639C75.9871 55.0371 75.3105 52.2127 75.3828 48.9614Z" fill="#00540F"/>
<path opacity="0.58" d="M44.7235 47.7228C58.6341 42.9845 67.7736 32.869 65.1372 25.1291C62.5008 17.3892 49.0869 14.9558 35.1763 19.6941C21.2657 24.4323 12.1262 34.5479 14.7626 42.2878C17.399 50.0277 30.813 52.461 44.7235 47.7228Z" fill="url(#paint1_linear_206_16493)"/>
<path opacity="0.56" d="M76.4009 36.8033C74.8245 36.2778 68.0263 40.4684 69.5042 51.6609C70.8179 61.6251 78.6145 62.9913 79.5209 62.2556C80.4273 61.52 73.4321 60.0092 72.5782 50.4063C71.7243 40.7968 77.6292 37.2171 76.4009 36.8033Z" fill="#00540F"/>
<path d="M42.0487 71.4385C43.5179 71.4385 44.7089 70.2475 44.7089 68.7783C44.7089 67.3092 43.5179 66.1182 42.0487 66.1182C40.5796 66.1182 39.3885 67.3092 39.3885 68.7783C39.3885 70.2475 40.5796 71.4385 42.0487 71.4385Z" fill="#FFFF00"/>
<path d="M45.1687 92.6084C46.6379 92.6084 47.8289 91.4174 47.8289 89.9483C47.8289 88.4791 46.6379 87.2881 45.1687 87.2881C43.6995 87.2881 42.5085 88.4791 42.5085 89.9483C42.5085 91.4174 43.6995 92.6084 45.1687 92.6084Z" fill="#FFFF00"/>
<path d="M74.2598 64.3179C74.2598 65.2507 73.5044 66.006 72.5717 66.006C71.639 66.006 70.8837 65.2507 70.8837 64.3179C70.8837 63.3852 71.639 62.6299 72.5717 62.6299C73.5044 62.6299 74.2598 63.3852 74.2598 64.3179Z" fill="#FFFF00"/>
<path d="M59.2707 45.7955C59.2707 46.7282 58.5154 47.4836 57.5827 47.4836C56.65 47.4836 55.8946 46.7282 55.8946 45.7955C55.8946 44.8628 56.65 44.1074 57.5827 44.1074C58.5154 44.1074 59.2707 44.8628 59.2707 45.7955Z" fill="#FFFF00"/>
<path d="M70.4303 28.1064C70.4303 29.2427 69.5108 30.1689 68.3679 30.1689C67.225 30.1689 66.3054 29.2493 66.3054 28.1064C66.3054 26.9635 67.225 26.0439 68.3679 26.0439C69.5108 26.0439 70.4303 26.9635 70.4303 28.1064Z" fill="#FFFF00"/>
<path d="M71.3562 36.79C71.3562 37.3615 70.8964 37.8213 70.325 37.8213C69.7535 37.8213 69.2938 37.3615 69.2938 36.79C69.2938 36.2186 69.7535 35.7588 70.325 35.7588C70.8964 35.7588 71.3562 36.2186 71.3562 36.79Z" fill="#FFFF00"/>
<path d="M21.0624 56.3836C21.0624 56.9813 20.5763 57.4674 19.9786 57.4674C19.3809 57.4674 18.8948 56.9813 18.8948 56.3836C18.8948 55.7859 19.3809 55.2998 19.9786 55.2998C20.5763 55.2998 21.0624 55.7859 21.0624 56.3836Z" fill="#FFFF00"/>
<path d="M45.4114 56.7448C45.4114 57.2769 44.9779 57.7104 44.4459 57.7104C43.9139 57.7104 43.4803 57.2769 43.4803 56.7448C43.4803 56.2128 43.9139 55.7793 44.4459 55.7793C44.9779 55.7793 45.4114 56.2128 45.4114 56.7448Z" fill="#FFFF00"/>
<path d="M22.7178 59.1951C22.7178 59.4513 22.5142 59.6549 22.258 59.6549C22.0018 59.6549 21.7982 59.4513 21.7982 59.1951C21.7982 58.939 22.0018 58.7354 22.258 58.7354C22.5142 58.7354 22.7178 58.939 22.7178 59.1951Z" fill="#FFFF00"/>
<path d="M26.6067 58.7352C26.6067 58.9913 26.4031 59.195 26.1469 59.195C25.8908 59.195 25.6871 58.9913 25.6871 58.7352C25.6871 58.479 25.8908 58.2754 26.1469 58.2754C26.4031 58.2754 26.6067 58.479 26.6067 58.7352Z" fill="#FFFF00"/>
<path d="M34.0023 52.0819C34.0023 52.338 33.7987 52.5416 33.5425 52.5416C33.2863 52.5416 33.0827 52.338 33.0827 52.0819C33.0827 51.8257 33.2863 51.6221 33.5425 51.6221C33.7987 51.6221 34.0023 51.8257 34.0023 52.0819Z" fill="#FFFF00"/>
<path d="M45.1683 62.6697C45.1683 62.9259 44.9647 63.1295 44.7085 63.1295C44.4523 63.1295 44.2487 62.9259 44.2487 62.6697C44.2487 62.4136 44.4523 62.21 44.7085 62.21C44.9647 62.21 45.1683 62.4136 45.1683 62.6697Z" fill="#FFFF00"/>
<path d="M46.7252 64.7781C46.7252 65.0343 46.5216 65.2379 46.2654 65.2379C46.0093 65.2379 45.8057 65.0343 45.8057 64.7781C45.8057 64.522 46.0093 64.3184 46.2654 64.3184C46.5216 64.3184 46.7252 64.522 46.7252 64.7781Z" fill="#FFFF00"/>
<path d="M49.7597 63.4705C49.7597 63.7267 49.5561 63.9303 49.2999 63.9303C49.0438 63.9303 48.8401 63.7267 48.8401 63.4705C48.8401 63.2144 49.0438 63.0107 49.2999 63.0107C49.5561 63.0107 49.7597 63.2144 49.7597 63.4705Z" fill="#FFFF00"/>
<path d="M51.0344 59.2538C51.0344 60.1011 50.4629 60.7908 49.7601 60.7908C49.0573 60.7908 48.4858 60.1011 48.4858 59.2538C48.4858 58.4065 49.0573 57.7168 49.7601 57.7168C50.4629 57.7168 51.0344 58.4065 51.0344 59.2538Z" fill="#FFFF00"/>
<path opacity="0.56" d="M68.3547 71.0052C66.6009 70.5848 59.3758 80.5162 41.4442 80.2863C40.3144 80.2731 39.2241 80.2075 38.1666 80.0958C38.876 77.7115 39.3095 74.6244 38.9876 70.9395C38.2191 62.2102 32.3667 57.9473 30.994 58.3414C29.7394 58.7027 35.5393 63.0312 36.137 70.3418C36.426 73.869 35.9465 77.1138 35.4079 79.7017C21.6735 77.1663 15.3613 67.2678 15.3613 67.2678C15.0789 68.6866 12.5698 72.7787 10.8423 75.4782C12.9901 79.7017 15.8539 83.5048 19.2695 86.7167C19.6964 87.1174 20.1299 87.5049 20.57 87.8858C21.7917 88.9499 23.066 89.9286 24.4059 90.8416C30.9086 95.2358 38.7512 97.804 47.1915 97.804C50.1078 97.804 52.9519 97.4953 55.6909 96.9173L59.4743 95.9255C59.4743 95.9255 58.3511 87.4392 63.4941 81.3109C68.6371 75.1892 70.0887 71.4256 68.335 71.0052H68.3547Z" fill="#00540F"/>
<path d="M15.0135 82.2686C15.0135 82.2686 19.5653 128.503 63.1791 78.8925C106.97 29.0848 70.8904 23.9023 70.8904 23.9023C70.8904 23.9023 115.108 26.6676 67.1202 76.5082C19.1318 126.349 15.0135 82.2686 15.0135 82.2686Z" fill="#00FF1E"/>
<path d="M47.8288 101.593C52.7913 101.593 56.8143 97.5701 56.8143 92.6076C56.8143 87.645 52.7913 83.6221 47.8288 83.6221C42.8662 83.6221 38.8433 87.645 38.8433 92.6076C38.8433 97.5701 42.8662 101.593 47.8288 101.593Z" fill="url(#paint2_linear_206_16493)"/>
<path style="mix-blend-mode:color-dodge" d="M52.9388 85.2185C54.6466 86.854 55.7172 89.1529 55.7172 91.708C55.7172 96.6737 51.6909 100.694 46.7318 100.694C44.8335 100.694 43.0732 100.102 41.6216 99.0974C43.2374 100.641 45.4181 101.593 47.8287 101.593C52.7943 101.593 56.8142 97.567 56.8142 92.6079C56.8142 89.5405 55.2772 86.8343 52.9323 85.2119L52.9388 85.2185Z" fill="url(#paint3_radial_206_16493)"/>
<path opacity="0.82" d="M51.6258 85.5794C52.3746 87.3594 50.4238 89.8685 47.2776 91.1887C44.1313 92.509 40.972 92.1346 40.2297 90.3611C39.4875 88.5877 41.4317 86.072 44.578 84.7518C47.7242 83.4315 50.8836 83.8059 51.6258 85.5794Z" fill="url(#paint4_linear_206_16493)"/>
<path d="M99.0224 70.0191C99.0224 71.6414 97.7087 72.9551 96.0863 72.9551C94.4639 72.9551 93.1503 71.6414 93.1503 70.0191C93.1503 68.3967 94.4639 67.083 96.0863 67.083C97.7087 67.083 99.0224 68.3967 99.0224 70.0191Z" fill="url(#paint5_linear_206_16493)"/>
<path style="mix-blend-mode:color-dodge" d="M97.7541 67.6016C98.3124 68.1336 98.6606 68.889 98.6606 69.7231C98.6606 71.3455 97.3469 72.6592 95.7245 72.6592C95.1071 72.6592 94.5291 72.4687 94.0562 72.1403C94.5816 72.6461 95.2976 72.9548 96.0858 72.9548C97.7081 72.9548 99.0218 71.6411 99.0218 70.0187C99.0218 69.0203 98.5226 68.1336 97.7541 67.6081V67.6016Z" fill="url(#paint6_radial_206_16493)"/>
<path opacity="0.82" d="M97.3271 67.7197C97.5701 68.2977 96.933 69.1187 95.9083 69.5522C94.8836 69.9858 93.8524 69.861 93.6094 69.2829C93.3664 68.7049 94.0035 67.8839 95.0281 67.4504C96.0528 67.0169 97.084 67.1417 97.3271 67.7197Z" fill="url(#paint7_linear_206_16493)"/>
<path d="M48.3475 11.2588C51.2931 11.2588 53.681 8.8709 53.681 5.92529C53.681 2.97968 51.2931 0.591797 48.3475 0.591797C45.4019 0.591797 43.014 2.97968 43.014 5.92529C43.014 8.8709 45.4019 11.2588 48.3475 11.2588Z" fill="url(#paint8_linear_206_16493)"/>
<path style="mix-blend-mode:color-dodge" d="M51.382 1.53125C52.4 2.50336 53.0306 3.86958 53.0306 5.38687C53.0306 8.33605 50.6397 10.7204 47.6971 10.7204C46.5674 10.7204 45.5296 10.3722 44.6625 9.77452C45.6215 10.6941 46.9155 11.259 48.3474 11.259C51.2966 11.259 53.6809 8.86809 53.6809 5.92547C53.6809 4.10604 52.7679 2.4968 51.3754 1.53782L51.382 1.53125Z" fill="url(#paint9_radial_206_16493)"/>
<path opacity="0.82" d="M50.5998 1.74763C51.0399 2.80514 49.8904 4.29615 48.0185 5.07778C46.153 5.85942 44.2745 5.64266 43.8344 4.58516C43.3943 3.52766 44.5438 2.03664 46.4158 1.25501C48.2878 0.473375 50.1597 0.690131 50.5998 1.74763Z" fill="url(#paint10_linear_206_16493)"/>
<defs>
<radialGradient id="paint0_radial_206_16493" cx="0" cy="0" r="1" gradientUnits="userSpaceOnUse" gradientTransform="translate(50.8963 63.9242) scale(72.6393 72.6393)">
<stop stop-color="white"/>
<stop offset="1"/>
</radialGradient>
<linearGradient id="paint1_linear_206_16493" x1="33.0948" y1="20.2435" x2="47.324" y2="47.0546" gradientUnits="userSpaceOnUse">
<stop stop-color="white"/>
<stop offset="1" stop-color="white"/>
</linearGradient>
<linearGradient id="paint2_linear_206_16493" x1="38.8433" y1="92.6076" x2="56.8208" y2="92.6076" gradientUnits="userSpaceOnUse">
<stop stop-color="#009411"/>
<stop offset="1" stop-color="#FFFF00"/>
</linearGradient>
<radialGradient id="paint3_radial_206_16493" cx="0" cy="0" r="1" gradientUnits="userSpaceOnUse" gradientTransform="translate(49.2212 93.4092) scale(16.9332 16.9332)">
<stop stop-color="white"/>
<stop offset="1"/>
</radialGradient>
<linearGradient id="paint4_linear_206_16493" x1="44.2127" y1="84.8172" x2="48.0222" y2="90.9023" gradientUnits="userSpaceOnUse">
<stop stop-color="white"/>
<stop offset="1" stop-color="white"/>
</linearGradient>
<linearGradient id="paint5_linear_206_16493" x1="93.1568" y1="70.0191" x2="99.0224" y2="70.0191" gradientUnits="userSpaceOnUse">
<stop stop-color="#009411"/>
<stop offset="1" stop-color="#FFFF00"/>
</linearGradient>
<radialGradient id="paint6_radial_206_16493" cx="0" cy="0" r="1" gradientUnits="userSpaceOnUse" gradientTransform="translate(96.539 70.2749) scale(5.53054 5.53055)">
<stop stop-color="white"/>
<stop offset="1"/>
</radialGradient>
<linearGradient id="paint7_linear_206_16493" x1="94.9529" y1="67.4624" x2="96.1943" y2="69.4438" gradientUnits="userSpaceOnUse">
<stop stop-color="white"/>
<stop offset="1" stop-color="white"/>
</linearGradient>
<linearGradient id="paint8_linear_206_16493" x1="43.014" y1="5.92529" x2="53.6876" y2="5.92529" gradientUnits="userSpaceOnUse">
<stop stop-color="#009411"/>
<stop offset="1" stop-color="#FFFF00"/>
</linearGradient>
<radialGradient id="paint9_radial_206_16493" cx="0" cy="0" r="1" gradientUnits="userSpaceOnUse" gradientTransform="translate(49.175 6.39839) scale(10.0496 10.0496)">
<stop stop-color="white"/>
<stop offset="1"/>
</radialGradient>
<linearGradient id="paint10_linear_206_16493" x1="46.2218" y1="1.25713" x2="48.4801" y2="4.87393" gradientUnits="userSpaceOnUse">
<stop stop-color="white"/>
<stop offset="1" stop-color="white"/>
</linearGradient>
</defs>
</svg>
