<svg width="88" height="89" viewBox="0 0 88 89" fill="none" xmlns="http://www.w3.org/2000/svg">
<path d="M86.9702 46.8777L86.965 46.9342C85.8783 62.9882 76.1416 76.3987 62.6104 82.9138C56.1235 86.0455 48.7658 87.5818 41.0637 87.0731C29.0431 86.2767 18.4997 80.6325 11.2139 72.1649L11.2087 72.1572C10.903 71.8027 10.605 71.4456 10.3147 71.0833C8.91715 69.3492 7.65575 67.5046 6.53564 65.5676C6.50995 65.5239 6.48426 65.4699 6.45857 65.4263C6.1657 64.9125 5.8831 64.4038 5.61335 63.8848V63.8771C5.00448 62.7236 4.45727 61.5316 3.95888 60.3216C3.78675 59.8951 3.61462 59.4712 3.45791 59.0396C3.16761 58.2509 2.89272 57.4468 2.64609 56.6324C1.6904 53.5084 1.07897 50.2354 0.868304 46.8751C0.809216 45.9451 0.778387 45.0074 0.775818 44.0646C0.775818 43.8154 0.780956 43.5662 0.783525 43.3144C0.793801 42.6028 0.822061 41.8834 0.868304 41.1641C0.929961 40.2341 1.01988 39.3195 1.14319 38.4075C1.42322 36.2135 1.8728 34.0812 2.46626 32.0157C3.30891 29.1024 4.44957 26.333 5.83429 23.7202C7.35003 20.8891 9.16635 18.2558 11.237 15.8512L11.3295 15.751L12.3468 14.6258L12.5087 14.4511C14.844 11.9591 17.4798 9.7497 20.352 7.88714V7.87943C24.3957 5.23587 28.8993 3.26027 33.7008 2.09392C37.8704 1.08171 42.2635 0.673233 46.7747 0.971243C49.8139 1.1742 52.7504 1.68287 55.5661 2.47414C59.8744 3.67389 63.8975 5.52361 67.5276 7.91283C67.6226 7.96935 67.7125 8.0233 67.7999 8.08753C67.8282 8.10294 67.841 8.11065 67.841 8.11065C73.0202 11.566 77.3927 16.1004 80.64 21.3747C81.8655 23.3477 82.9265 25.4209 83.8179 27.5867C83.8385 27.6303 83.8488 27.6534 83.8488 27.6534C84.2007 28.5038 84.5193 29.367 84.8199 30.2431V30.2508C85.105 31.0986 85.362 31.9489 85.5983 32.8198C86.274 35.3272 86.7235 37.9245 86.9316 40.5784C87.0395 41.9631 87.0832 43.3709 87.0601 44.789C87.055 44.9458 87.055 45.0948 87.0498 45.2515C87.0344 45.7858 87.0061 46.333 86.9702 46.8725V46.8777Z" fill="#FA9F32"/>
<path style="mix-blend-mode:multiply" opacity="0.6" d="M87.0576 44.7944C83.6279 46.5722 79.8231 49.0745 76.8096 52.4476C69.5186 60.6044 62.631 63.4432 59.2887 62.1664C55.9412 60.8896 56.7941 58.8035 53.5905 60.4965C50.3895 62.1895 44.4755 64.7971 40.2186 64.4246C35.8435 64.0418 32.961 60.0469 23.327 59.7797C13.6982 59.5125 13.95 65.072 9.30255 63.5023C7.41173 62.8626 5.29996 61.018 3.45538 59.0398C3.16508 58.2511 2.89019 57.447 2.64356 56.6326C1.68787 53.5087 1.07644 50.2357 0.865776 46.8754C0.786135 45.7013 0.757875 44.5144 0.780997 43.3172C3.04433 45.3134 3.80221 48.1034 10.8928 50.711C16.8145 52.8869 25.8755 48.5247 28.3187 47.4971C30.7619 46.4746 38.5924 48.35 44.6784 50.991C51.9591 54.1509 56.9894 49.0668 59.2424 46.1303C62.3099 42.1252 62.1095 39.6614 66.5899 40.1932C71.0781 40.7327 72.6092 42.7109 75.114 40.7507C77.6291 38.7828 76.6452 35.628 82.9445 33.9068C83.9131 33.6422 84.7917 33.2645 85.5932 32.8252C86.2689 35.3326 86.7185 37.9299 86.9266 40.5837C87.0345 41.9685 87.0781 43.3763 87.055 44.7944H87.0576Z" fill="url(#paint0_radial_206_17012)"/>
<path opacity="0.29" d="M87.0114 45.5033C83.5817 47.2811 79.7769 49.7834 76.7634 53.1565C69.4724 61.3133 62.5848 64.1521 59.2425 62.8753C55.895 61.5959 56.7479 59.5124 53.5443 61.2054C50.3433 62.8984 44.4242 65.5111 40.1698 65.1335C35.7998 64.7507 32.9174 60.7584 23.2834 60.4886C13.652 60.2214 13.9064 65.7834 9.25893 64.2112C7.55565 63.6357 5.66996 62.0737 3.95897 60.3216C3.78685 59.8952 3.61472 59.4713 3.45801 59.0397C5.30259 61.0178 7.41435 62.8624 9.30518 63.5021C13.9526 65.0718 13.7008 59.5124 23.3296 59.7796C32.9662 60.0467 35.8461 64.0416 40.2186 64.4244C44.473 64.7995 50.3921 62.1893 53.5931 60.4963C56.7942 58.8033 55.9438 60.8868 59.2913 62.1662C62.6311 63.443 69.5213 60.6042 76.8122 52.4475C79.8103 49.0846 83.6022 46.59 87.0165 44.8174C87.0217 45.046 87.0139 45.2747 87.0139 45.5033H87.0114Z" fill="url(#paint1_radial_206_17012)"/>
<path style="mix-blend-mode:multiply" opacity="0.75" d="M85.6884 33.1588C84.8483 33.4748 83.8464 34.1453 83.1348 34.3406C76.8329 36.0618 78.12 39.9694 75.6074 41.9347C73.1026 43.8949 71.3274 41.0766 66.8418 40.5346C62.3614 40.0028 62.5643 42.8467 59.4943 46.8544C57.2438 49.7934 52.211 54.8776 44.9303 51.7177C38.8494 49.0818 31.0138 46.8005 28.5706 47.823C26.1249 48.8532 17.0715 53.6162 11.1498 51.4402C4.90703 49.1486 2.75416 45.4363 0.783691 43.4145V43.3169C3.0496 45.3156 3.80747 48.1056 10.8981 50.7106C16.8197 52.8866 25.8757 48.5295 28.3291 47.4916C30.7723 46.4768 38.595 48.3496 44.6811 50.9881C51.9644 54.148 56.9946 49.0638 59.2451 46.1248C62.3151 42.1197 62.1147 39.6585 66.5952 40.1903C71.0833 40.7298 72.6145 42.708 75.1193 40.7478C77.6344 38.7799 76.6505 35.6251 82.9498 33.9038C83.9183 33.6392 84.7969 33.2616 85.5985 32.8223C85.691 33.1562 85.6139 32.8223 85.691 33.1562L85.6884 33.1588Z" fill="url(#paint2_radial_206_17012)"/>
<path opacity="0.5" d="M45.511 28.2234C7.69966 35.2267 11.1961 16.3595 11.1961 16.3595C11.1961 16.3595 11.155 15.7995 11.5019 15.6993C11.5532 15.6838 11.7099 15.7198 11.7099 15.7198C11.7459 16.0204 12.9251 24.9324 27.9001 25.5927C41.2387 26.1836 49.8887 19.4912 49.8887 19.4912C25.9759 25.4463 21.0176 18.9774 19.6406 15.8611C22.3715 18.348 33.642 18.3094 33.642 18.3094C56.2368 14.163 59.854 7.17257 59.8181 6.94906C64.6582 5.75445 67.3531 5.93428 67.6306 9.08138C68.576 16.565 63.8643 24.8168 45.5059 28.2234H45.511Z" fill="#AC6001"/>
<path d="M46.3074 26.9572C8.49607 33.9604 11.2373 15.8537 11.2373 15.8537C11.2373 15.8537 11.2681 15.5198 11.3092 15.4273C11.4582 15.0984 11.9515 14.5358 12.2983 14.4356C12.3471 14.4202 12.5064 14.4536 12.5064 14.4536C12.5449 14.7567 13.7215 23.6688 28.6991 24.3265C42.0377 24.9199 50.6594 18.6489 50.6594 18.6489C26.7466 24.6039 21.0202 18.9803 19.6432 15.864C22.3741 18.3509 34.441 17.0458 34.441 17.0458C57.0358 12.8968 55.6023 2.70017 55.5663 2.47667C60.4064 1.28206 67.2504 4.76826 67.5278 7.91536C68.4707 15.399 64.6633 23.5506 46.3074 26.9572Z" fill="#FADA75"/>
<path d="M78.6338 61.3239C78.6338 61.3239 71.3171 69.0156 55.4892 74.0946C56.1237 73.8095 66.3332 69.1698 71.3197 64.6842C57.6472 74.2873 48.9098 73.6784 42.6182 72.7048C36.9766 71.8313 31.1448 65.3727 22.911 67.7362C20.699 68.3682 19.7844 69.1852 17.3361 69.2725C11.5737 69.4678 8.02331 65.2288 5.61354 63.8852C5.54674 64.9154 8.35472 70.5391 9.75228 72.2732C10.0426 72.6354 10.3406 72.9899 10.6463 73.3445L10.654 73.3522C17.9399 81.8198 28.9817 87.2687 41.0023 88.0652C48.7017 88.5764 57.7885 86.3747 62.6132 82.9116C58.7699 84.0703 42.0864 87.5154 30.2765 81.288C28.306 80.2501 33.4672 81.0516 35.43 81.586C36.92 81.9431 39.3658 82.1615 41.8912 82.2796C48.0646 82.5956 52.8405 81.0157 56.5142 79.3329C54.4667 80.1961 48.4602 82.2103 41.3465 79.6181C42.9779 80.0677 51.0627 81.8044 63.7256 75.5795C63.7384 75.5718 63.7564 75.5667 63.7692 75.5616C73.339 69.9662 79.443 62.593 78.6338 61.3213V61.3239ZM29.6085 76.1602C24.7093 74.5005 22.2302 74.8859 22.2302 74.8859C23.9412 73.0799 26.595 72.2218 29.1821 72.7279C30.1043 72.9026 31.1243 73.2212 32.2623 73.7247C37.9091 76.2475 39.561 76.2064 39.7126 76.1961C39.4788 76.2655 34.3921 77.7761 29.6111 76.1627L29.6085 76.1602Z" fill="#FADA75"/>
<path d="M19.9744 8.13874C19.9744 8.13874 26.6616 14.7104 35.7997 12.3443C44.9353 9.97818 47.3091 5.69043 47.3091 5.69043L32.6629 6.76173L20.3546 7.88954L19.9769 8.13874H19.9744Z" fill="#AC6001"/>
<path d="M42.1558 8.84231C29.6445 15.4474 20.3497 7.88919 20.3497 7.88919V7.88148C20.4396 6.2116 32.044 0.780615 33.6985 2.09597C33.6985 2.09597 34.1892 5.21737 38.2534 5.60787C42.3151 5.99837 54.662 2.22956 42.1558 8.84231Z" fill="#FADA75"/>
<path d="M84.82 30.246V30.2537C84.6839 30.4721 81.7988 35.3276 76.1109 34.2871C70.2997 33.2158 70.5001 30.2254 64.4191 33.0334C58.3536 35.8414 54.6542 44.5094 49.0408 44.363C43.4351 44.2114 36.2443 39.641 33.0792 38.9808C29.9116 38.3205 24.1518 42.1998 18.2044 40.255C12.2545 38.3128 11.6276 35.6796 11.6276 35.6796C11.6276 35.6796 18.6617 41.8812 26.9572 37.1465C30.2815 35.2505 30.3406 34.5183 42.2302 38.1587C54.1172 41.8016 57.2643 29.3443 63.4301 27.7926C69.5984 26.2408 77.0461 29.5883 77.3775 24.6146C77.7063 19.6409 80.6376 21.3776 80.6376 21.3776C81.863 23.3507 82.924 25.4239 83.8155 27.5896C83.8361 27.6333 83.8463 27.6564 83.8463 27.6564C84.1983 28.5067 84.5169 29.37 84.8174 30.246H84.82Z" fill="#FADA75"/>
<path d="M38.3278 44.5376C38.3278 44.5376 31.8974 42.0918 26.9597 43.7823C22.0399 45.4753 13.9217 46.7213 8.57039 44.1316C3.79451 41.8246 1.56971 39.0012 1.14325 38.4104C1.42328 36.2164 1.87286 34.0841 2.46631 32.0186C2.46631 32.0186 5.94995 41.912 14.4432 42.9165C22.9391 43.9236 28.889 40.3063 32.1903 41.596C35.4941 42.8857 36.6784 43.8336 38.3226 44.535L38.3278 44.5376Z" fill="#FADA75"/>
<path style="mix-blend-mode:multiply" d="M86.9705 46.8777L86.9654 46.9342C85.8786 62.9882 76.1419 76.3987 62.6107 82.9138C57.786 86.3743 48.6993 88.576 40.9998 88.0673C28.9792 87.2709 17.9374 81.822 10.6516 73.3543L10.6439 73.3466C10.3382 72.9921 10.0401 72.6376 9.74984 72.2754C8.35227 70.5412 5.54429 64.9176 5.61109 63.8874V63.8797C5.00222 62.7262 4.45502 61.5341 3.95662 60.3241C3.78449 59.8976 3.61237 59.4737 3.45565 59.0421C3.16535 58.2534 2.89046 57.4493 2.64383 56.6349C1.68814 53.511 1.07671 50.238 0.866046 46.8777C0.806957 45.9477 0.776129 45.01 0.77356 44.0671C0.77356 43.8179 0.778698 43.5687 0.781267 43.317C0.791543 42.6053 0.819803 41.886 0.866046 41.1667C0.927703 40.2367 1.01762 39.3221 1.14093 38.4101C1.42096 36.2161 1.87055 34.0838 2.464 32.0183C3.30665 29.1049 4.44731 26.3355 5.83203 23.7228C7.34777 20.8917 9.16409 18.2584 11.2348 15.8538L11.3272 15.7536L12.3446 14.6283L12.5064 14.4536C14.8417 11.9616 17.4776 9.75225 20.3498 7.88968V7.88198C20.4397 6.21209 32.0441 0.781108 33.6986 2.09646C37.8707 1.08169 42.2638 0.673208 46.7751 0.971218C49.8143 1.17417 52.7507 1.68285 55.5664 2.47412C60.4039 1.28207 67.253 4.76057 67.5279 7.91281C67.6229 7.96932 67.7129 8.02327 67.8002 8.0875C67.8285 8.10292 67.8413 8.11062 67.8413 8.11062C73.0205 11.566 77.3931 16.1004 80.6403 21.3747C81.8658 23.3477 82.9268 25.4209 83.8183 27.5866C83.8388 27.6303 83.8491 27.6534 83.8491 27.6534C84.201 28.5038 84.5196 29.367 84.8202 30.243V30.2507C85.1054 31.0985 85.3623 31.9489 85.5986 32.8198C86.2743 35.3272 86.7239 37.9245 86.932 40.5783C87.0399 41.9631 87.0835 43.3709 87.0604 44.789C87.0553 44.9457 87.0553 45.0947 87.0501 45.2515C87.0347 45.7858 87.0065 46.333 86.9705 46.8725V46.8777Z" fill="url(#paint3_linear_206_17012)"/>
<path style="mix-blend-mode:multiply" d="M67.1218 6.70312C67.353 7.1039 67.4891 7.51238 67.5277 7.91572C67.4378 7.54577 67.2939 7.12959 67.1218 6.70312Z" fill="url(#paint4_linear_206_17012)"/>
<g style="mix-blend-mode:multiply">
<path d="M86.9701 46.8773L86.965 46.9339C85.8783 62.9879 76.1416 76.3983 62.6104 82.9135C57.7857 86.374 48.6989 88.5757 40.9995 88.067C34.3353 87.6251 27.9743 85.7548 22.3892 82.7285C24.9917 83.3785 27.6763 83.7998 30.4124 83.9822C38.1118 84.4934 47.1986 82.2918 52.0233 78.8287C65.5545 72.3135 75.2912 58.9031 76.3779 42.8491V42.7925C76.4165 42.253 76.4473 41.7058 76.4601 41.1715C76.4653 41.0148 76.4678 40.8657 76.4704 40.709C76.4935 39.2909 76.4524 37.8831 76.3445 36.4983C76.1364 33.8445 75.6868 31.2446 75.0112 28.7398C74.7748 27.8689 74.5179 27.016 74.2302 26.1682V26.163C73.9322 25.287 73.611 24.4238 73.2617 23.5734C73.2617 23.5734 73.2488 23.5503 73.2308 23.5066C72.3394 21.3435 71.2783 19.2677 70.0529 17.2947C69.1974 15.9099 68.2648 14.5715 67.2501 13.2921H67.2655C67.2655 13.2921 68.1698 10.5201 67.5301 7.91504C67.6251 7.97156 67.7151 8.02551 67.8024 8.08973C67.8307 8.10515 67.8435 8.11286 67.8435 8.11286C73.0227 11.5682 77.3953 16.1026 80.6425 21.3769C81.868 23.3499 82.929 25.4232 83.8205 27.5889C83.841 27.6325 83.8513 27.6557 83.8513 27.6557C84.2033 28.506 84.5218 29.3692 84.8224 30.2453V30.253C85.1076 31.1008 85.3645 31.9511 85.6008 32.822C86.2765 35.3294 86.7261 37.9267 86.9342 40.5806C87.0421 41.9653 87.0857 43.3731 87.0626 44.7913C87.0575 44.948 87.0575 45.097 87.0523 45.2537C87.0369 45.7881 87.0087 46.3353 86.9727 46.8748L86.9701 46.8773Z" fill="url(#paint5_linear_206_17012)"/>
</g>
<path d="M12.5089 14.4539L12.3471 14.6286L11.3297 15.7539L11.2372 15.8541C11.2372 15.8541 11.2681 15.5201 11.3092 15.4225C11.4608 15.0962 11.954 14.531 12.3034 14.4308C12.3548 14.4205 12.5089 14.4514 12.5089 14.4514V14.4539Z" fill="url(#paint6_linear_206_17012)"/>
<g style="mix-blend-mode:lighten" opacity="0.11">
<path d="M15.7435 23.5585C14.9316 25.1924 14.3433 28.8765 13.9888 30.3819C13.0614 34.3074 12.9689 39.5535 17.8218 39.2657C24.1494 38.8906 28.6555 35.2965 30.5541 32.784C32.7712 29.8527 35.6382 25.4879 36.6119 19.0652C37.1437 15.5559 36.4989 12.6092 34.9215 10.7955C32.0107 7.4454 28.2933 9.23347 24.2907 12.3497C19.9875 15.6972 17.6754 19.6664 15.7435 23.5559V23.5585Z" fill="#F7F7F7"/>
</g>
<g style="mix-blend-mode:lighten" opacity="0.11">
<path d="M19.2941 20.8529C17.4443 25.9088 19.163 29.5646 22.5542 30.1734C25.9479 30.7823 29.9145 28.2698 32.1085 23.4605C34.3025 18.6512 33.7065 13.192 29.9685 12.3339C26.2331 11.4758 21.1412 15.797 19.2915 20.8529H19.2941Z" fill="#F7F7F7"/>
</g>
<g style="mix-blend-mode:lighten" opacity="0.21">
<path d="M21.398 19.1475C20.1752 22.2946 21.1154 24.7866 23.2632 25.1437C25.4109 25.5008 28.039 23.6536 29.3981 20.6016C30.7597 17.5495 30.2459 14.3793 27.962 13.9246C25.6807 13.4724 22.6209 16.0004 21.398 19.1475Z" fill="#F7F7F7"/>
</g>
<defs>
<radialGradient id="paint0_radial_206_17012" cx="0" cy="0" r="1" gradientUnits="userSpaceOnUse" gradientTransform="translate(39.8218 22.6584) rotate(3.8) scale(88.1807 88.1807)">
<stop offset="0.07" stop-color="#FAFAFA"/>
<stop offset="0.86" stop-color="#2D1100"/>
</radialGradient>
<radialGradient id="paint1_radial_206_17012" cx="0" cy="0" r="1" gradientUnits="userSpaceOnUse" gradientTransform="translate(40.9757 36.8518) rotate(3.8) scale(74.9284 74.9285)">
<stop offset="0.07" stop-color="#F6E2CA"/>
<stop offset="0.86" stop-color="#F5DCBF"/>
</radialGradient>
<radialGradient id="paint2_radial_206_17012" cx="0" cy="0" r="1" gradientUnits="userSpaceOnUse" gradientTransform="translate(38.7367 24.9665) rotate(3.8) scale(75.2464 75.2464)">
<stop offset="0.07" stop-color="#FAFAFA"/>
<stop offset="0.86" stop-color="#2D1100"/>
</radialGradient>
<linearGradient id="paint3_linear_206_17012" x1="20.3826" y1="28.3191" x2="80.8724" y2="68.3699" gradientUnits="userSpaceOnUse">
<stop offset="0.07" stop-color="#F7EADA"/>
<stop offset="0.15" stop-color="#F6E7D4"/>
<stop offset="0.26" stop-color="#F5E0C3"/>
<stop offset="0.39" stop-color="#F4D5A7"/>
<stop offset="0.53" stop-color="#F2C580"/>
<stop offset="0.68" stop-color="#F0B14F"/>
<stop offset="0.75" stop-color="#EFA735"/>
</linearGradient>
<linearGradient id="paint4_linear_206_17012" x1="67.0507" y1="7.12924" x2="67.7561" y2="7.59577" gradientUnits="userSpaceOnUse">
<stop offset="0.07" stop-color="#F7EADA"/>
<stop offset="0.15" stop-color="#F6E7D4"/>
<stop offset="0.26" stop-color="#F5E0C3"/>
<stop offset="0.39" stop-color="#F4D5A7"/>
<stop offset="0.53" stop-color="#F2C580"/>
<stop offset="0.68" stop-color="#F0B14F"/>
<stop offset="0.75" stop-color="#EFA735"/>
</linearGradient>
<linearGradient id="paint5_linear_206_17012" x1="49.662" y1="48.4358" x2="80.0783" y2="68.5744" gradientUnits="userSpaceOnUse">
<stop offset="0.07" stop-color="#F0E9E1"/>
<stop offset="0.15" stop-color="#EDE5DB"/>
<stop offset="0.27" stop-color="#E7DACA"/>
<stop offset="0.4" stop-color="#DCC9AE"/>
<stop offset="0.54" stop-color="#CEB187"/>
<stop offset="0.69" stop-color="#BB9356"/>
<stop offset="0.75" stop-color="#B58844"/>
</linearGradient>
<linearGradient id="paint6_linear_206_17012" x1="11.6537" y1="15.0308" x2="12.3315" y2="15.408" gradientUnits="userSpaceOnUse">
<stop offset="0.07" stop-color="#F7EADA"/>
<stop offset="0.86" stop-color="#F2C076"/>
</linearGradient>
</defs>
</svg>
