<svg width="36" height="37" viewBox="0 0 36 37" fill="none" xmlns="http://www.w3.org/2000/svg">
<path d="M13.2829 21.2796L20.8207 13.7418H19.8062C19.5299 13.7154 19.2734 13.5869 19.0867 13.3815C18.9 13.1761 18.7965 12.9085 18.7965 12.6309C18.7965 12.3533 18.9 12.0857 19.0867 11.8803C19.2734 11.6749 19.5299 11.5465 19.8062 11.52H22.6874C21.0855 10.3534 19.1196 9.79698 17.1439 9.95093C15.1681 10.1049 13.3123 10.9591 11.9103 12.3598C10.5084 13.7605 9.65259 15.6156 9.49691 17.5912C9.34123 19.5669 9.89593 21.5332 11.0612 23.1361V20.2549C11.0876 19.9786 11.216 19.7221 11.4215 19.5354C11.6269 19.3487 11.8945 19.2453 12.172 19.2453C12.4496 19.2453 12.7172 19.3487 12.9226 19.5354C13.128 19.7221 13.2565 19.9786 13.2829 20.2549V21.2796Z" fill="#E85059"/>
<path d="M24.6151 16.3382C24.5887 16.6145 24.4603 16.8711 24.2548 17.0578C24.0494 17.2445 23.7818 17.3479 23.5043 17.3479C23.2267 17.3479 22.9591 17.2445 22.7537 17.0578C22.5483 16.8711 22.4198 16.6145 22.3934 16.3382V15.3237L14.8556 22.8615H15.8701C16.1464 22.888 16.4029 23.0164 16.5896 23.2218C16.7763 23.4272 16.8798 23.6948 16.8798 23.9724C16.8798 24.25 16.7763 24.5176 16.5896 24.723C16.4029 24.9284 16.1464 25.0569 15.8701 25.0833H12.999C14.602 26.2485 16.5683 26.8032 18.5439 26.6475C20.5195 26.4919 22.3747 25.636 23.7754 24.2341C25.1761 22.8322 26.0303 20.9763 26.1842 19.0006C26.3382 17.0248 25.7818 15.059 24.6151 13.457V16.3382Z" fill="#E85059"/>
<path d="M17.8381 0.542969C14.3267 0.542969 10.8942 1.58422 7.9746 3.53504C5.05499 5.48586 2.77942 8.25865 1.43567 11.5027C0.091921 14.7468 -0.259665 18.3166 0.425373 21.7605C1.11041 25.2044 2.80131 28.3678 5.28423 30.8508C7.76716 33.3337 10.9306 35.0246 14.3745 35.7096C17.8184 36.3947 21.3882 36.0431 24.6323 34.6993C27.8764 33.3556 30.6491 31.08 32.6 28.1604C34.5508 25.2408 35.592 21.8083 35.592 18.2969C35.5894 13.5891 33.718 9.07485 30.3891 5.74593C27.0602 2.41701 22.5459 0.545657 17.8381 0.542969ZM17.8381 28.8579C15.4216 28.8602 13.0781 28.0289 11.2033 26.5042L9.26554 28.442C9.16337 28.5487 9.04048 28.6334 8.90442 28.691C8.76835 28.7485 8.62196 28.7777 8.47422 28.7767C8.3281 28.7769 8.18347 28.7474 8.04916 28.6898C7.91485 28.6322 7.79368 28.5479 7.69305 28.442C7.58937 28.34 7.50703 28.2184 7.45082 28.0843C7.39462 27.9502 7.36567 27.8062 7.36567 27.6608C7.36567 27.5154 7.39462 27.3714 7.45082 27.2373C7.50703 27.1032 7.58937 26.9816 7.69305 26.8796L9.62062 24.9419C7.9523 22.9178 7.09779 20.3448 7.22374 17.7247C7.34969 15.1047 8.44708 12.6255 10.3019 10.7707C12.1566 8.91595 14.6358 7.81857 17.2558 7.69262C19.8759 7.56667 22.4489 8.42118 24.473 10.0895L26.4107 8.15178C26.6193 7.94326 26.9021 7.82611 27.197 7.82611C27.4919 7.82611 27.7747 7.94326 27.9832 8.15178C28.1918 8.36031 28.3089 8.64313 28.3089 8.93803C28.3089 9.23293 28.1918 9.51575 27.9832 9.72427L26.0557 11.662C27.3271 13.2103 28.1314 15.0886 28.3746 17.0772C28.6178 19.0658 28.2898 21.0826 27.4289 22.8917C26.568 24.7007 25.2098 26.2273 23.5132 27.2928C21.8166 28.3583 19.8517 28.9188 17.8483 28.9086L17.8381 28.8579Z" fill="#E85059"/>
</svg>
