<?xml version="1.0" encoding="UTF-8"?>
<svg id="Layer_2" data-name="Layer 2" xmlns="http://www.w3.org/2000/svg" viewBox="0 0 47.48 69.97">
  <defs>
    <style>
      .cls-1 {
        fill: #fff;
        fill-rule: evenodd;
      }
    </style>
  </defs>
  <g id="Layer_1-2" data-name="Layer 1">
    <path class="cls-1" d="m41.73,44.99h4.51c1.1,0,1.55.77,1,1.73l-13.01,22.55c-.55.95-1.44.95-1.99,0l-13.01-22.55c-.55-.95-.1-1.73,1-1.73h4.51c1.1,0,1.99-.9,1.99-2.01v-9.99c0-1.11.9-2.01,2-2.01h8.99c1.11,0,2,.9,2,2.01v9.99c0,1.11.89,2.01,1.99,2.01ZM5.75,24.99H1.23c-1.1,0-1.55-.77-1-1.73L13.24.71c.55-.95,1.44-.95,1.99,0l13.01,22.55c.55.95.1,1.73-1,1.73h-4.51c-1.1,0-1.99.9-1.99,2.01v9.99c0,1.11-.9,2.01-2,2.01h-8.99c-1.11,0-2-.9-2-2.01v-9.99c0-1.11-.89-2.01-1.99-2.01Z"/>
  </g>
</svg>