<svg width="25" height="25" viewBox="0 0 25 25" fill="none" xmlns="http://www.w3.org/2000/svg">
<path d="M13.6786 15.0691C13.4602 14.7542 13.2023 14.4688 12.9111 14.2197C12.3523 16.3361 11.2101 18.0912 9.50895 19.4444C7.33635 21.1727 4.23378 22.2471 0.282227 22.6404V24.3968H12.0789C13.4551 22.2904 14.2482 20.3619 14.4366 18.6621C14.5919 17.261 14.3369 16.0521 13.6786 15.0691Z" fill="#3872F7"/>
<path d="M17.4648 16.6647C17.4648 14.9142 17.1038 13.7511 16.4208 13.3008C15.8021 12.8927 15.0638 13.1902 15.0566 13.1934C14.9847 13.2243 14.9056 13.2349 14.8281 13.2241C14.7505 13.2134 14.6774 13.1816 14.6165 13.1323C14.5557 13.0829 14.5095 13.0179 14.483 12.9442C14.4565 12.8706 14.4506 12.791 14.466 12.7143C14.4796 12.6425 14.7887 10.9021 13.0094 10.1905C11.2048 9.46887 10.1201 10.851 10.0748 10.9101C10.016 10.987 9.93314 11.0419 9.8394 11.0661C9.74567 11.0903 9.64654 11.0822 9.55792 11.0433C9.541 11.0358 7.79636 10.2798 6.56237 10.8841C5.99405 11.1623 5.62161 11.6821 5.42401 12.4732C5.21755 13.299 5.29933 13.9574 5.66704 14.4302C6.15084 15.0523 7.03237 15.2653 7.56686 15.3382C7.57644 15.0062 7.63181 14.6771 7.73139 14.3603C7.96829 13.6224 8.56765 12.6794 10.0779 12.3773C10.2363 12.3466 10.3973 12.3315 10.5587 12.3323C11.7708 12.3323 13.3941 13.1007 14.3922 14.5912C15.1555 15.7309 15.4662 17.1714 15.2903 18.757C15.1342 20.1655 14.6039 21.7038 13.7094 23.3472C14.0961 23.0386 14.4652 22.7084 14.8149 22.3584C16.5735 20.5934 17.4648 18.6778 17.4648 16.6647Z" fill="#3872F7"/>
<path d="M12.2393 4.84961C12.6334 6.03694 13.0517 7.61813 13.226 9.35359C13.2602 9.36626 13.2945 9.37926 13.3291 9.39306C14.607 9.9043 15.0796 10.8283 15.2509 11.5134C15.3102 11.7535 15.3436 11.9992 15.3504 12.2464C15.8888 12.17 16.4367 12.2897 16.8941 12.5838C17.8432 13.2096 18.3244 14.5827 18.3244 16.665C18.3244 18.8891 17.3153 21.0737 15.4064 22.9828C14.8921 23.4952 14.3399 23.968 13.7544 24.3973H21.5502C21.9699 23.8197 23.4482 21.503 24.0628 16.8254C21.5725 10.5218 18.5696 6.06159 12.2393 4.84961Z" fill="#3872F7"/>
<path d="M18.2872 2.41945C16.765 1.86837 15.4243 2.0003 14.7881 2.76365C14.7424 2.81845 14.6838 2.86102 14.6175 2.8875C14.5513 2.91398 14.4795 2.92354 14.4086 2.91532C14.3377 2.90709 14.27 2.88135 14.2116 2.8404C14.1531 2.79946 14.1058 2.7446 14.0739 2.68079C14.0259 2.58623 12.8564 0.34082 10.1624 0.34082C7.47756 0.34082 6.70256 2.19984 6.6951 2.21863C6.65652 2.31507 6.5843 2.39427 6.49182 2.44156C6.39933 2.48885 6.29284 2.50103 6.19207 2.47583C5.64576 2.36377 5.0821 2.36673 4.53699 2.48453C3.44159 2.73766 2.72829 3.49671 2.41728 4.74068C2.10628 5.98466 2.37835 6.99007 3.22589 7.72898C3.49875 7.96263 3.80289 8.15704 4.12949 8.30659C4.15849 7.14762 4.54344 6.18479 5.27795 5.43804C7.10056 3.58493 10.4167 3.7654 10.6157 3.77802C10.964 3.79404 11.3113 3.82763 11.6562 3.87865H11.6567C15.0266 4.37679 17.7243 5.72579 19.904 8.0031C21.5332 9.70527 22.901 11.9068 24.2446 15.0148C24.3063 14.1601 24.3382 13.2757 24.3382 12.3688C24.3382 9.83178 23.6557 7.51619 22.3644 5.67237C21.2897 4.13746 19.8416 2.98224 18.2872 2.41945Z" fill="#3872F7"/>
</svg>
