<svg width="25" height="33" viewBox="0 0 25 33" fill="none" xmlns="http://www.w3.org/2000/svg">
<path fill-rule="evenodd" clip-rule="evenodd" d="M4.95513 9.80983V6.95496C4.95513 6.70476 5.04905 6.49199 5.23688 6.31663C5.3994 6.14127 5.61254 6.05323 5.87557 6.05323C6.12577 6.05323 6.34515 6.14127 6.53298 6.31663C6.6955 6.49199 6.77694 6.70476 6.77694 6.95496V9.80983C6.77694 10.0608 6.6955 10.2794 6.53298 10.4672C6.34515 10.6426 6.12577 10.7306 5.87557 10.7306C5.61254 10.7306 5.3994 10.6426 5.23688 10.4672C5.04905 10.2794 4.95513 10.0608 4.95513 9.80983ZM1.12332 7.6872C1.37388 7.6872 1.5929 7.78112 1.78073 7.96895C1.95609 8.13183 2.04376 8.34461 2.04376 8.60801V13.9421C2.04376 14.193 1.95609 14.4117 1.78073 14.5995C1.5929 14.7624 1.37388 14.8438 1.12332 14.8438C0.87276 14.8438 0.659983 14.7624 0.484626 14.5995C0.296796 14.4117 0.202881 14.193 0.202881 13.9421V8.60801C0.202881 8.34461 0.296796 8.13183 0.484626 7.96895C0.659983 7.78112 0.87276 7.6872 1.12332 7.6872ZM10.2331 0.361823C10.4084 0.173993 10.6212 0.0800781 10.8718 0.0800781C11.122 0.0800781 11.3414 0.173993 11.5292 0.361823C11.7045 0.524707 11.7922 0.737484 11.7922 1.00089V9.80983C11.7922 10.0608 11.7045 10.2794 11.5292 10.4672C11.3414 10.6426 11.122 10.7306 10.8718 10.7306C10.6212 10.7306 10.4084 10.6426 10.2331 10.4672C10.0453 10.2794 9.95134 10.0608 9.95134 9.80983V1.00089C9.95134 0.737484 10.0453 0.524707 10.2331 0.361823ZM5.81908 18.8073C5.58099 18.6943 5.3495 18.6819 5.12425 18.7692C4.87369 18.8572 4.69833 19.0135 4.59818 19.2388C3.94701 20.5536 3.80284 21.9814 4.16603 23.5214C4.21628 23.7599 4.35386 23.9477 4.57947 24.0849C4.77978 24.2104 5.01126 24.2478 5.2743 24.1979C5.51239 24.1356 5.70022 24.0035 5.83779 23.8032C5.95041 23.5779 5.9882 23.3461 5.95041 23.1084C5.68774 22.0063 5.78166 20.9799 6.23216 20.0282C6.34515 19.8023 6.35762 19.5711 6.26994 19.3327C6.18227 19.095 6.03185 18.9196 5.81908 18.8073ZM23.3247 12.289C23.5753 12.289 23.7943 12.383 23.9821 12.5708C24.145 12.7337 24.2264 12.9464 24.2264 13.2099V17.436C24.2264 17.6987 24.145 17.9181 23.9821 18.0934C23.7943 18.2688 23.5753 18.3561 23.3247 18.3561C23.062 18.3561 22.8489 18.2688 22.6864 18.0934C22.4985 17.9181 22.4046 17.6987 22.4046 17.436V13.2099C22.4046 12.9464 22.4985 12.7337 22.6864 12.5708C22.8489 12.383 23.062 12.289 23.3247 12.289ZM22.4046 10.1671V9.80983C22.4046 9.55963 22.4985 9.34686 22.6864 9.1715C22.8489 8.98367 23.062 8.88976 23.3247 8.88976C23.5753 8.88976 23.7943 8.98367 23.9821 9.1715C24.145 9.34686 24.2264 9.55963 24.2264 9.80983V10.1671C24.2264 10.4298 24.145 10.6492 23.9821 10.8246C23.7943 10.9999 23.5753 11.0872 23.3247 11.0872C23.062 11.0872 22.8489 10.9999 22.6864 10.8246C22.4985 10.6492 22.4046 10.4298 22.4046 10.1671ZM17.4646 4.6445C17.6274 4.81986 17.7089 5.03263 17.7089 5.28356V6.74805C17.7089 6.99898 17.6274 7.21763 17.4646 7.40546C17.2767 7.56834 17.0577 7.64978 16.8071 7.64978C16.5441 7.64978 16.3313 7.56834 16.1685 7.40546C15.9806 7.21763 15.8867 6.99898 15.8867 6.74805V5.28356C15.8867 5.03263 15.9806 4.81986 16.1685 4.6445C16.3313 4.45667 16.5441 4.36275 16.8071 4.36275C17.0577 4.36275 17.2767 4.45667 17.4646 4.6445ZM3.86557 14.9752C4.34138 14.3992 4.84251 13.9487 5.36821 13.6229C6.40751 12.934 7.57852 12.6522 8.88086 12.7777C10.8091 12.9655 12.3807 13.7168 13.5953 15.0317C13.833 15.2694 14.0587 15.5453 14.2714 15.8578C14.7722 15.232 15.292 14.725 15.8306 14.3368C15.9432 13.3603 15.7051 12.5084 15.1167 11.782C14.9663 11.5693 14.9101 11.344 14.9476 11.1063C14.9725 10.8678 15.0793 10.6675 15.2671 10.5047C15.4674 10.33 15.6864 10.2611 15.9245 10.2985C16.1872 10.3234 16.3941 10.4364 16.5441 10.6367C17.2327 11.4629 17.615 12.402 17.6898 13.4542C18.0156 13.3661 18.3472 13.3038 18.6854 13.2663C18.9232 13.2414 19.1488 13.3096 19.3616 13.4725C19.5369 13.6354 19.6433 13.8357 19.6811 14.0734C19.706 14.3368 19.6433 14.5621 19.4933 14.7499C19.3179 14.9502 19.111 15.0632 18.8733 15.0882C18.2848 15.1505 17.7338 15.3325 17.2202 15.6326C17.2078 15.6326 17.1953 15.6392 17.1828 15.6516C17.1703 15.6516 17.1579 15.6575 17.1454 15.67C16.6318 15.9833 16.1497 16.4154 15.6989 16.9665C18.5163 18.6195 20.1943 20.1031 20.7329 21.4179C21.4589 23.2213 21.2399 25.0365 20.0755 26.865C18.8982 28.6684 17.3831 29.9451 15.5298 30.6964C11.8861 32.1741 9.49424 32.4184 8.35479 31.4294C7.91639 31.0662 7.47837 30.5401 7.03997 29.8512C6.87709 29.6384 6.66431 29.3566 6.40128 29.0059C5.66243 28.6435 5.0927 28.4175 4.6921 28.3302C3.91583 28.0925 3.28337 27.8107 2.79508 27.4849C1.81815 26.8459 1.3361 25.2369 1.34857 22.6579C1.34857 21.9938 1.38636 21.255 1.46156 20.4413C1.52393 19.7648 1.6681 19.1074 1.89335 18.4691C2.00598 18.081 2.15015 17.7053 2.32551 17.3421C2.70117 16.5027 3.2144 15.714 3.86557 14.9752Z" fill="#E85059"/>
</svg>
