<svg width="27" height="22" viewBox="0 0 27 22" fill="none" xmlns="http://www.w3.org/2000/svg">
<path d="M13.6766 11.5859C12.3072 11.5875 10.9944 12.1322 10.0261 13.1005C9.05778 14.0688 8.5131 15.3816 8.51151 16.751C8.51157 17.0982 8.54621 17.4446 8.61491 17.785C8.81046 18.7426 9.27366 19.6251 9.95073 20.3299C10.6278 21.0348 11.4909 21.5331 12.4399 21.767C13.3889 22.0009 14.3847 21.9607 15.3118 21.6512C16.2388 21.3417 17.0591 20.7756 17.6772 20.0185C18.2954 19.2615 18.6861 18.3446 18.8039 17.3744C18.9218 16.4041 18.7619 15.4204 18.343 14.5374C17.9241 13.6543 17.2632 12.9083 16.4372 12.3858C15.6112 11.8634 14.6539 11.586 13.6766 11.5859ZM15.7056 13.9104L16.5172 14.7219L15.7056 15.5334L14.8941 14.7219L15.7056 13.9104ZM13.1027 13.3076H14.2504V14.4554H13.1027V13.3076ZM11.6475 13.9104L12.459 14.7219L11.6475 15.5334L10.836 14.7219L11.6475 13.9104ZM10.2332 16.1771H11.381V17.3249H10.2332V16.1771ZM11.6475 19.5916L10.836 18.7801L11.6475 17.9685L12.459 18.7801L11.6475 19.5916ZM14.2504 20.1943H13.1027V19.0466H14.2504V20.1943ZM13.6766 18.4727C13.336 18.4727 13.0032 18.3717 12.72 18.1825C12.4369 17.9933 12.2162 17.7244 12.0859 17.4098C11.9556 17.0952 11.9215 16.7491 11.988 16.4151C12.0544 16.0811 12.2184 15.7744 12.4591 15.5336C12.6999 15.2928 13.0067 15.1288 13.3407 15.0624C13.6746 14.996 14.0208 15.03 14.3354 15.1604C14.65 15.2907 14.9189 15.5113 15.1081 15.7945C15.2973 16.0776 15.3982 16.4105 15.3982 16.751C15.3977 17.2074 15.2162 17.6451 14.8934 17.9678C14.5706 18.2906 14.133 18.4722 13.6766 18.4727ZM15.7056 19.5916L14.8941 18.7801L15.7056 17.9685L16.5172 18.7801L15.7056 19.5916ZM17.1199 17.3249H15.9721V16.1771H17.1199V17.3249Z" fill="white"/>
<path d="M22.8593 9.2903C22.4869 9.29141 22.1165 9.34422 21.7586 9.44723L21.4448 8.34316C21.6566 8.28419 21.8718 8.23842 22.0893 8.20609C22.1218 8.20108 22.1541 8.19478 22.1866 8.1904C22.2103 8.18722 22.234 8.18179 22.2577 8.17892C22.1232 6.90965 21.5242 5.73492 20.5758 4.88066C19.6275 4.0264 18.3968 3.55295 17.1204 3.55137C16.0017 3.55002 14.9135 3.9154 14.0223 4.59155L13.3318 3.67466C13.5423 3.51814 13.7623 3.37465 13.9903 3.24498C14.0292 3.22252 14.0676 3.19895 14.1068 3.17737C14.3243 3.0582 14.5486 2.95203 14.7786 2.85943C14.8231 2.84153 14.8681 2.82514 14.9128 2.80826C15.1487 2.71793 15.3899 2.64211 15.635 2.58121C15.6544 2.57652 15.6743 2.57371 15.6938 2.56919C15.932 2.51448 16.1732 2.47381 16.4162 2.4474C16.4427 2.44442 16.4683 2.43675 16.4949 2.43413C16.4032 1.95816 16.1925 1.51318 15.8823 1.1407C15.5721 0.768222 15.1726 0.480386 14.7211 0.304048C14.2696 0.12771 13.7808 0.0686174 13.3003 0.132282C12.8197 0.195947 12.3632 0.380296 11.9732 0.668127C11.5832 0.955959 11.2724 1.33789 11.0699 1.7783C10.8674 2.2187 10.7798 2.70322 10.8152 3.18664C10.8506 3.67007 11.0079 4.13665 11.2724 4.54284C11.5369 4.94904 11.9 5.28163 12.3278 5.50956L11.7869 6.52172C11.6347 6.43967 11.488 6.34794 11.3475 6.2471C11.3024 6.21496 11.2611 6.17862 11.2175 6.14479C11.1261 6.07389 11.0362 6.00149 10.9518 5.92355C10.9043 5.87962 10.8599 5.833 10.8146 5.78696C10.7409 5.71193 10.6694 5.63505 10.602 5.55477C10.5591 5.50356 10.5177 5.45119 10.4774 5.39798C10.415 5.31549 10.3563 5.23045 10.3005 5.14351C10.2651 5.08831 10.2294 5.03324 10.1966 4.97632C10.1425 4.8821 10.0943 4.78458 10.0479 4.68615C10.0227 4.63252 9.99506 4.58019 9.97216 4.52546C9.92025 4.39934 9.87481 4.27066 9.83601 4.13991C9.82673 4.10919 9.81397 4.07998 9.80539 4.04901C9.76237 3.89426 9.72868 3.73707 9.70452 3.57828C8.52583 3.70144 7.42513 4.22542 6.58638 5.06266C5.74763 5.89989 5.22165 6.99964 5.09636 8.1781C5.2556 8.19694 5.41333 8.22364 5.56931 8.25708C5.59922 8.26349 5.62822 8.27315 5.65796 8.28013C5.79345 8.31172 5.92781 8.34724 6.06001 8.38959C6.11616 8.40759 6.17084 8.42952 6.22632 8.44942C6.33045 8.48679 6.43407 8.52567 6.53558 8.56963C6.59579 8.59569 6.65484 8.62427 6.71406 8.65264C6.80863 8.69794 6.90205 8.74562 6.99382 8.79665C7.05236 8.82919 7.11033 8.86281 7.16771 8.89753C7.2583 8.95259 7.34677 9.01126 7.43396 9.07193C7.48713 9.10891 7.54071 9.14517 7.59257 9.18419C7.68462 9.25348 7.77324 9.32773 7.86085 9.40336C7.90302 9.43976 7.94674 9.47395 7.98782 9.51183C8.11392 9.62794 8.23585 9.74945 8.35088 9.87878L7.4934 10.6415C7.04797 10.1406 6.48421 9.7591 5.85352 9.53191C5.22284 9.30473 4.54531 9.23906 3.88273 9.34091C3.22016 9.44275 2.59363 9.70886 2.06028 10.115C1.52694 10.5211 1.10376 11.0542 0.829339 11.6658C0.554919 12.2775 0.437993 12.948 0.489227 13.6164C0.540461 14.2848 0.758225 14.9298 1.12266 15.4924C1.48709 16.055 1.98658 16.5175 2.57559 16.8376C3.1646 17.1576 3.82437 17.3251 4.49472 17.3248H7.39295C7.37561 17.1338 7.36419 16.9422 7.36419 16.7509C7.36419 15.0767 8.02929 13.471 9.21318 12.2871C10.3971 11.1032 12.0028 10.4381 13.677 10.4381C15.3513 10.4381 16.957 11.1032 18.1409 12.2871C19.3248 13.471 19.9899 15.0767 19.9899 16.7509C19.9899 16.9423 19.9784 17.1338 19.9611 17.3248H22.8593C23.9248 17.3248 24.9466 16.9016 25.7 16.1482C26.4533 15.3948 26.8766 14.373 26.8766 13.3076C26.8766 12.2421 26.4533 11.2203 25.7 10.4669C24.9466 9.71355 23.9248 9.2903 22.8593 9.2903Z" fill="white"/>
</svg>
