<svg width="17" height="19" viewBox="0 0 17 19" fill="none" xmlns="http://www.w3.org/2000/svg">
<path d="M16.0469 18.8692L14.1066 16.0098L15.1421 12.2506V7.53547L12.9244 3.55086L12.0669 1.34473H10.6224L12.2695 10.4291L11.1105 14.2577L10.8388 13.4288L11.7559 10.3998L10.3927 2.88143L9.92744 7.46074L10.5762 11.0736L10.582 12.6453L10.0695 11.0819L8.37878 1.66565L6.73377 0.00195312L4.32334 2.89706V6.54732L5.38342 7.86909L5.93343 14.2577L5.37353 13.5841L4.96688 8.86238L3.84123 11.0832L4.51787 12.5547L3.28585 11.0724L4.84477 7.99707L2.56867 5.15887L0.554255 9.13738L1.10805 13.5682L1.45608 16.5847L0.0656738 18.8692H16.0469Z" fill="white"/>
</svg>
