<svg width="23" height="27" viewBox="0 0 23 27" fill="none" xmlns="http://www.w3.org/2000/svg">
<path d="M22.3384 26.8584L19.6619 22.9139L21.0903 17.7283V11.2241L18.0311 5.72755L16.8482 2.68432H14.8556L17.1277 15.2157L15.5289 20.497L15.1541 19.3535L16.4192 15.1753L14.5388 4.8041L13.897 11.121L14.7919 16.1048L14.7999 18.2728L14.0929 16.1163L11.7607 3.127L9.49147 0.832031L6.16642 4.82566V9.861L7.62874 11.6843L8.38745 20.497L7.6151 19.5678L7.05416 13.0545L5.50138 16.1179L6.43476 18.1478L4.73526 16.1031L6.88571 11.8608L3.74595 7.94571L0.967184 13.4338L1.73111 19.5459L2.21119 23.707L0.293213 26.8584H22.3384Z" fill="#B549F2"/>
</svg>
