<svg width="22" height="17" viewBox="0 0 22 17" fill="none" xmlns="http://www.w3.org/2000/svg">
<path d="M19.6335 9.28421C19.5596 9.87549 19.4857 10.4668 19.264 11.0581C19.6335 11.5015 19.6335 11.7972 19.6335 11.7972C19.3379 12.4623 15.4946 12.6102 9.8035 10.4668C5.36889 8.76684 2.41248 6.69736 1.96902 5.5148C1.89511 5.58871 1.89511 5.44089 1.89511 5.36698C1.96902 5.29307 2.19075 5.14525 2.63421 4.99743C2.92985 4.48005 3.2255 3.96268 3.59505 3.44531C1.96902 3.51922 1.00819 3.88877 0.564731 4.70178C0.416911 4.99742 0.269091 5.5148 0.564731 6.17999C1.30383 7.95383 4.7037 10.245 9.21221 11.945C12.0947 13.0536 15.2728 13.7927 17.638 13.7927C19.264 13.7927 20.5205 13.4232 20.9639 12.5363C21.2596 11.8711 21.2596 10.7624 19.6335 9.28421Z" fill="white"/>
<path d="M10.0252 9.87584C14.1642 11.428 16.8249 11.5758 17.7858 11.5758C18.0075 11.5758 18.2292 11.5758 18.377 11.5758C18.7466 10.6889 18.9683 9.65411 18.9683 8.61937C18.9683 4.11085 15.3467 0.489258 10.8382 0.489258C7.29052 0.489258 4.2602 2.78047 3.15155 5.95861C4.03847 6.91944 6.4036 8.47155 10.0252 9.87584Z" fill="white"/>
<path d="M8.99055 12.6108C6.47761 11.6499 4.2603 10.5413 2.70819 9.43262C3.07774 13.5716 6.55152 16.7497 10.7644 16.7497C12.9817 16.7497 14.9773 15.8628 16.3816 14.4585C14.3121 14.2368 11.6513 13.6455 8.99055 12.6108Z" fill="white"/>
</svg>
