<svg width="31" height="23" viewBox="0 0 31 23" fill="none" xmlns="http://www.w3.org/2000/svg">
<path d="M9.51291 12.4234C8.68736 11.1962 8.28574 9.76824 8.28574 8.18408C8.28574 5.48433 9.40135 3.23081 11.164 1.89209C10.5616 0.821109 9.37903 0.0625 7.86181 0.0625C5.27362 0.0625 3.80102 2.18214 3.80102 4.59185C3.80102 5.88594 4.20264 7.00155 5.09512 7.76016C5.56367 8.22871 5.9876 8.80882 5.9876 9.41125C5.9876 9.99136 5.74217 10.5938 4.26957 11.2408C2.14993 12.2003 0.208782 13.4944 0.141846 15.4355C0.208782 16.7296 1.03433 17.7336 2.26149 17.7336H4.20264C4.49269 17.7336 4.78275 17.5551 4.96125 17.2651C5.89835 15.5471 7.66101 14.4984 9.1336 13.7398C9.66909 13.4944 9.80296 12.8473 9.51291 12.4234Z" fill="#B549F2"/>
<path d="M19.397 15.5467C17.8128 14.8327 17.5227 14.1857 17.5227 13.5386C17.5227 12.8246 17.9913 12.1776 18.5268 11.709C19.4639 10.8166 19.9994 9.5894 19.9994 8.18374C19.9994 5.52861 18.4152 3.23047 15.5147 3.23047C12.6364 3.23047 11.0299 5.52861 11.0299 8.18374C11.0299 9.5894 11.5654 10.8389 12.5025 11.709C13.038 12.2445 13.5066 12.8916 13.5066 13.5386C13.5066 14.2526 13.2611 14.8327 11.6324 15.5467C9.26728 16.5508 7.03608 17.6664 6.99146 19.786C6.99146 21.1917 8.04012 22.3742 9.40116 22.3742H21.6505C23.0115 22.3742 24.0602 21.1917 24.0602 19.786C23.9932 17.7333 21.7397 16.5954 19.397 15.5467Z" fill="#B549F2"/>
<path d="M26.6932 11.2408C25.2206 10.5938 24.9752 10.0583 24.9752 9.41125C24.9752 8.7642 25.3768 8.18408 25.8677 7.76016C26.7601 6.93461 27.1617 5.88594 27.1617 4.59185C27.1617 2.18214 25.7561 0.0625 23.101 0.0625C21.5614 0.0625 20.4012 0.821109 19.7542 1.89209C21.5168 3.25312 22.6324 5.48433 22.6324 8.18408C22.6324 9.76824 22.2308 11.1962 21.4052 12.4234C21.1152 12.8919 21.2937 13.472 21.7622 13.7175C23.2348 14.4315 24.9975 15.5471 25.9346 17.2428C26.1131 17.5328 26.4031 17.7113 26.6932 17.7113H28.6343C29.8615 17.7113 30.6871 16.7073 30.6871 15.4132C30.754 13.4944 28.8128 12.2003 26.6932 11.2408Z" fill="#B549F2"/>
</svg>
