<svg width="22" height="11" viewBox="0 0 22 11" fill="none" xmlns="http://www.w3.org/2000/svg">
<path d="M11.2577 10.5141C11.4678 10.4958 11.6667 10.4114 11.8258 10.2729L21.0392 2.30444C21.143 2.22015 21.2287 2.11585 21.2913 1.99775C21.3539 1.87965 21.392 1.75015 21.4035 1.61699C21.415 1.48382 21.3996 1.3497 21.3582 1.22262C21.3168 1.09554 21.2502 0.978089 21.1625 0.877272C21.0747 0.776454 20.9675 0.694329 20.8474 0.635787C20.7272 0.577244 20.5965 0.543482 20.463 0.536512C20.3296 0.529541 20.196 0.549504 20.0704 0.595212C19.9448 0.640921 19.8297 0.711439 19.7319 0.802567L11.1721 8.20294L2.61228 0.802566C2.5145 0.711438 2.39938 0.64092 2.27378 0.595212C2.14817 0.549503 2.01465 0.52954 1.88117 0.536511C1.74769 0.543482 1.61699 0.577244 1.49683 0.635786C1.37667 0.694328 1.26952 0.776453 1.18176 0.877271C1.09401 0.978088 1.02742 1.09554 0.986006 1.22262C0.944586 1.3497 0.929157 1.48382 0.940653 1.61699C0.95215 1.75015 0.990324 1.87964 1.05291 1.99775C1.1155 2.11585 1.20123 2.22015 1.30496 2.30444L10.5184 10.2729C10.6192 10.3606 10.7366 10.4272 10.8636 10.4686C10.9906 10.51 11.1246 10.5255 11.2577 10.5141Z" fill="white"/>
</svg>
