<svg width="34" height="27" viewBox="0 0 34 27" fill="none" xmlns="http://www.w3.org/2000/svg">
<path d="M16.7128 14.2461C15.0228 14.2481 13.4026 14.9203 12.2076 16.1153C11.0126 17.3103 10.3403 18.9305 10.3384 20.6205C10.3385 21.0491 10.3812 21.4766 10.466 21.8967C10.7073 23.0785 11.279 24.1676 12.1146 25.0375C12.9502 25.9074 14.0154 26.5224 15.1866 26.8111C16.3578 27.0997 17.5868 27.0502 18.7309 26.6682C19.8751 26.2863 20.8874 25.5875 21.6503 24.6532C22.4132 23.7189 22.8953 22.5873 23.0408 21.3899C23.1862 20.1925 22.989 18.9784 22.4719 17.8886C21.9549 16.7988 21.1393 15.8781 20.1199 15.2333C19.1005 14.5885 17.919 14.2462 16.7128 14.2461ZM19.217 17.1148L20.2186 18.1163L19.217 19.1179L18.2155 18.1163L19.217 17.1148ZM16.0046 16.3709H17.4211V17.7875H16.0046V16.3709ZM14.2086 17.1148L15.2102 18.1163L14.2086 19.1179L13.2071 18.1163L14.2086 17.1148ZM12.4632 19.9123H13.8797V21.3288H12.4632V19.9123ZM14.2086 24.1263L13.2071 23.1247L14.2086 22.1232L15.2102 23.1247L14.2086 24.1263ZM17.4211 24.8702H16.0046V23.4536H17.4211V24.8702ZM16.7128 22.7454C16.2926 22.7454 15.8818 22.6207 15.5323 22.3873C15.1829 22.1538 14.9106 21.8219 14.7498 21.4337C14.5889 21.0454 14.5469 20.6182 14.6288 20.206C14.7108 19.7938 14.9132 19.4152 15.2104 19.1181C15.5075 18.8209 15.8861 18.6185 16.2983 18.5366C16.7105 18.4546 17.1377 18.4966 17.526 18.6575C17.9142 18.8183 18.2461 19.0906 18.4795 19.4401C18.713 19.7895 18.8376 20.2003 18.8376 20.6205C18.837 21.1839 18.613 21.724 18.2146 22.1223C17.8163 22.5207 17.2762 22.7447 16.7128 22.7454ZM19.217 24.1263L18.2155 23.1247L19.217 22.1232L20.2186 23.1247L19.217 24.1263ZM20.9625 21.3288H19.5459V19.9123H20.9625V21.3288Z" fill="#15AD69"/>
<path d="M28.0452 11.4132C27.5856 11.4145 27.1284 11.4797 26.6867 11.6068L26.2994 10.2442C26.5608 10.1715 26.8265 10.115 27.0949 10.0751C27.135 10.0689 27.1748 10.0611 27.215 10.0557C27.2442 10.0518 27.2734 10.0451 27.3027 10.0415C27.1367 8.47507 26.3974 7.02526 25.227 5.97098C24.0566 4.9167 22.5377 4.33239 20.9625 4.33043C19.5819 4.32877 18.2388 4.7797 17.1389 5.61417L16.2868 4.48259C16.5466 4.28943 16.818 4.11233 17.0995 3.9523C17.1475 3.92459 17.1948 3.89549 17.2433 3.86886C17.5117 3.72178 17.7885 3.59076 18.0724 3.47648C18.1273 3.45439 18.1828 3.43416 18.238 3.41332C18.5291 3.30185 18.8268 3.20827 19.1293 3.13311C19.1533 3.12732 19.1778 3.12386 19.2018 3.11828C19.4958 3.05075 19.7935 3.00057 20.0934 2.96797C20.1262 2.96429 20.1577 2.95483 20.1906 2.95159C20.0774 2.36417 19.8173 1.815 19.4345 1.3553C19.0516 0.895607 18.5586 0.540373 18.0014 0.322745C17.4442 0.105117 16.8409 0.0321875 16.2479 0.11076C15.6548 0.189332 15.0914 0.416846 14.61 0.772074C14.1287 1.1273 13.7452 1.59867 13.4953 2.14219C13.2454 2.68571 13.1373 3.28368 13.181 3.8803C13.2247 4.47692 13.4188 5.05275 13.7452 5.55406C14.0716 6.05538 14.5197 6.46583 15.0477 6.74714L14.3802 7.9963C14.1924 7.89504 14.0112 7.78183 13.8379 7.65737C13.7822 7.61771 13.7313 7.57286 13.6775 7.5311C13.5646 7.4436 13.4536 7.35425 13.3495 7.25806C13.2909 7.20385 13.2361 7.14631 13.1802 7.0895C13.0892 6.9969 13.0009 6.90201 12.9178 6.80293C12.8648 6.73973 12.8138 6.6751 12.764 6.60944C12.687 6.50763 12.6146 6.40267 12.5457 6.29537C12.502 6.22725 12.4579 6.15929 12.4175 6.08904C12.3507 5.97276 12.2912 5.8524 12.234 5.73092C12.2028 5.66474 12.1687 5.60016 12.1405 5.53261C12.0764 5.37696 12.0203 5.21814 11.9725 5.05678C11.961 5.01887 11.9453 4.98282 11.9347 4.9446C11.8816 4.75362 11.84 4.55961 11.8102 4.36364C10.3555 4.51564 8.99706 5.16232 7.96192 6.19559C6.92677 7.22886 6.27764 8.58612 6.123 10.0405C6.31953 10.0638 6.51419 10.0967 6.70669 10.138C6.74361 10.1459 6.7794 10.1578 6.81611 10.1664C6.98331 10.2054 7.14914 10.2493 7.31229 10.3015C7.38159 10.3238 7.44907 10.3508 7.51754 10.3754C7.64607 10.4215 7.77394 10.4695 7.89922 10.5237C7.97353 10.5559 8.04641 10.5912 8.11949 10.6262C8.23621 10.6821 8.3515 10.7409 8.46476 10.8039C8.53701 10.8441 8.60855 10.8856 8.67937 10.9284C8.79117 10.9964 8.90035 11.0688 9.00796 11.1436C9.07358 11.1893 9.1397 11.234 9.20371 11.2822C9.31731 11.3677 9.42668 11.4593 9.5348 11.5527C9.58685 11.5976 9.6408 11.6398 9.69151 11.6865C9.84714 11.8298 9.99761 11.9798 10.1396 12.1394L9.08132 13.0808C8.53159 12.4625 7.83582 11.9917 7.05746 11.7113C6.2791 11.431 5.44292 11.3499 4.62521 11.4756C3.80749 11.6013 3.03425 11.9297 2.37603 12.4309C1.7178 12.9321 1.19553 13.5901 0.856853 14.3449C0.518176 15.0998 0.373872 15.9274 0.437103 16.7523C0.500334 17.5772 0.769087 18.3731 1.21885 19.0675C1.66861 19.7619 2.28507 20.3326 3.01199 20.7276C3.73892 21.1226 4.55317 21.3294 5.38049 21.329H8.95735C8.93595 21.0932 8.92186 20.8568 8.92186 20.6207C8.92186 18.5544 9.74269 16.5727 11.2038 15.1116C12.6649 13.6505 14.6466 12.8297 16.7129 12.8297C18.7792 12.8297 20.7608 13.6505 22.2219 15.1116C23.683 16.5727 24.5038 18.5544 24.5038 20.6207C24.5038 20.8569 24.4898 21.0932 24.4684 21.329H28.0452C29.3601 21.329 30.6212 20.8066 31.551 19.8768C32.4808 18.947 33.0031 17.686 33.0031 16.3711C33.0031 15.0561 32.4808 13.7951 31.551 12.8653C30.6212 11.9355 29.3601 11.4132 28.0452 11.4132Z" fill="#15AD69"/>
</svg>
