<svg width="31" height="25" viewBox="0 0 31 25" fill="none" xmlns="http://www.w3.org/2000/svg">
<path d="M28.0045 13.2542C27.898 14.1059 27.7916 14.9576 27.4722 15.8093C28.0045 16.4481 28.0045 16.8739 28.0045 16.8739C27.5786 17.8321 22.0426 18.045 13.8451 14.9576C7.45737 12.509 3.19891 9.52806 2.56014 7.82468C2.45368 7.93114 2.45368 7.71822 2.45368 7.61175C2.56014 7.50529 2.87952 7.29237 3.51829 7.07945C3.94414 6.33421 4.36999 5.58898 4.90229 4.84375C2.56014 4.95021 1.17614 5.48252 0.537367 6.6536C0.324443 7.07944 0.11152 7.82468 0.537367 8.78283C1.60198 11.3379 6.49922 14.6382 12.9934 17.0868C17.1454 18.6838 21.7232 19.7484 25.13 19.7484C27.4722 19.7484 29.282 19.2161 29.9208 17.9385C30.3466 16.9804 30.3466 15.3835 28.0045 13.2542Z" fill="#15AD69"/>
<path d="M14.1644 14.1066C20.1262 16.3423 23.9588 16.5552 25.3428 16.5552C25.6622 16.5552 25.9816 16.5552 26.1945 16.5552C26.7268 15.2776 27.0462 13.7872 27.0462 12.2967C27.0462 5.80256 21.8296 0.585938 15.3354 0.585938C10.2253 0.585938 5.86035 3.88625 4.26343 8.4641C5.54097 9.8481 8.94774 12.0838 14.1644 14.1066Z" fill="#15AD69"/>
<path d="M12.6738 18.0456C9.05406 16.6616 5.86021 15.0647 3.62451 13.4678C4.15682 19.4296 9.16052 24.0075 15.2288 24.0075C18.4227 24.0075 21.2971 22.7299 23.3199 20.7072C20.339 20.3878 16.5064 19.5361 12.6738 18.0456Z" fill="#15AD69"/>
</svg>
