<svg width="21" height="16" viewBox="0 0 21 16" fill="none" xmlns="http://www.w3.org/2000/svg">
<path d="M20.3465 4.29796C19.801 2.77138 17.8442 1.92116 15.0195 1.95594C14.9591 1.96029 14.8997 1.97314 14.8429 1.99412C13.5362 0.964761 11.9191 0.408825 10.2557 0.417083C8.84391 0.418007 7.46091 0.81622 6.26482 1.56618C5.06874 2.31615 4.10786 3.38758 3.49208 4.65796C3.2539 5.15769 3.071 5.68193 2.94663 6.22136C0.618916 8.0343 -0.397668 9.96724 0.164828 11.5361C0.650279 12.8902 2.21027 13.7179 4.55979 13.8543C4.80616 13.8693 5.05797 13.8768 5.31524 13.8768C7.57835 13.8273 9.81704 13.3976 11.9377 12.6059C14.3241 11.8004 16.5293 10.5347 18.4286 8.88043C20.1515 7.2809 20.8326 5.65273 20.3465 4.29796ZM11.6193 5.87159C11.889 5.87159 12.1526 5.95156 12.3769 6.1014C12.6011 6.25124 12.7759 6.46421 12.8791 6.71338C12.9823 6.96255 13.0093 7.23673 12.9567 7.50124C12.9041 7.76576 12.7742 8.00874 12.5835 8.19944C12.3928 8.39015 12.1498 8.52002 11.8853 8.57264C11.6208 8.62525 11.3466 8.59825 11.0975 8.49504C10.8483 8.39183 10.6353 8.21705 10.4855 7.9928C10.3356 7.76856 10.2557 7.50491 10.2557 7.23521C10.2567 6.87389 10.4008 6.52767 10.6562 6.27218C10.9117 6.01668 11.258 5.87267 11.6193 5.87159ZM6.8466 5.18977C7.1163 5.18977 7.37994 5.26975 7.60419 5.41959C7.82843 5.56942 8.00321 5.78239 8.10642 6.03156C8.20963 6.28073 8.23664 6.55491 8.18402 6.81943C8.1314 7.08395 8.00153 7.32692 7.81083 7.51763C7.62012 7.70834 7.37714 7.83821 7.11263 7.89083C6.84811 7.94344 6.57393 7.91644 6.32476 7.81323C6.07559 7.71002 5.86262 7.53524 5.71278 7.31099C5.56295 7.08674 5.48297 6.8231 5.48297 6.5534C5.48405 6.19208 5.62806 5.84586 5.88356 5.59036C6.13905 5.33487 6.48527 5.19085 6.8466 5.18977ZM17.4999 7.88498C15.7362 9.41394 13.6902 10.5829 11.4775 11.3261C9.29738 12.1588 6.97524 12.5563 4.64229 12.4961C2.89822 12.3904 1.733 11.8715 1.44868 11.0752C1.18005 10.3252 1.68323 9.2752 2.77413 8.18498C2.78846 8.78638 2.87849 9.38357 3.04208 9.96247C3.13112 10.2933 3.24508 10.617 3.38299 10.9306C3.8227 11.0438 4.2727 11.1123 4.72616 11.1352C4.91707 11.1488 5.12161 11.1556 5.32615 11.1556C7.2723 11.1029 9.19618 10.7273 11.0193 10.0443C13.0568 9.36255 14.9419 8.2903 16.5693 6.88749C16.906 6.58327 17.2078 6.24254 17.4692 5.87159C17.3794 5.54627 17.2678 5.22737 17.1352 4.91705C16.8903 4.36848 16.5811 3.85099 16.214 3.37547C17.7454 3.52888 18.7981 4.01978 19.0626 4.75887C19.349 5.55591 18.7783 6.69522 17.4999 7.88498ZM12.3966 13.8897C13.8578 13.3723 15.2646 12.7123 16.5965 11.9193C15.9208 12.9902 14.985 13.8725 13.8762 14.4841C12.7675 15.0957 11.5219 15.4166 10.2557 15.417C9.45877 15.4189 8.6668 15.2922 7.91022 15.042C9.4393 14.8033 10.9417 14.4175 12.3966 13.8897Z" fill="white"/>
</svg>
