<svg width="30" height="22" viewBox="0 0 30 22" fill="none" xmlns="http://www.w3.org/2000/svg">
<path d="M29.4726 6.15916C28.7025 4.00381 25.9398 2.8034 21.9515 2.85249C21.8663 2.85864 21.7824 2.87679 21.7022 2.9064C19.8573 1.45307 17.5742 0.668156 15.2256 0.679816C13.2324 0.68112 11.2797 1.24335 9.59099 2.30221C7.90227 3.36107 6.54562 4.87381 5.6762 6.66743C5.33993 7.37299 5.0817 8.11315 4.90609 8.87476C1.61964 11.4344 0.184345 14.1635 0.978523 16.3785C1.66392 18.2903 3.86644 19.459 7.1837 19.6515C7.53153 19.6727 7.88706 19.6833 8.2503 19.6833C11.4455 19.6134 14.6063 19.0068 17.6004 17.8889C20.9697 16.7517 24.0833 14.9647 26.7647 12.6291C29.1973 10.3707 30.159 8.07192 29.4726 6.15916ZM17.1509 8.38093C17.5316 8.38093 17.9039 8.49385 18.2205 8.7054C18.5371 8.91695 18.7839 9.21764 18.9296 9.56944C19.0753 9.92124 19.1134 10.3083 19.0391 10.6818C18.9649 11.0553 18.7815 11.3983 18.5122 11.6676C18.243 11.9368 17.8999 12.1202 17.5265 12.1945C17.153 12.2688 16.7659 12.2307 16.4141 12.0849C16.0623 11.9392 15.7616 11.6924 15.5501 11.3758C15.3385 11.0592 15.2256 10.687 15.2256 10.3062C15.2271 9.79606 15.4304 9.30724 15.7912 8.94651C16.1519 8.58578 16.6407 8.38245 17.1509 8.38093ZM10.4124 7.41829C10.7932 7.41829 11.1654 7.53121 11.482 7.74276C11.7986 7.95431 12.0454 8.255 12.1911 8.6068C12.3368 8.9586 12.375 9.34571 12.3007 9.71917C12.2264 10.0926 12.043 10.4357 11.7738 10.7049C11.5045 10.9742 11.1615 11.1576 10.788 11.2319C10.4145 11.3061 10.0274 11.268 9.67562 11.1223C9.32382 10.9766 9.02313 10.7298 8.81158 10.4132C8.60002 10.0966 8.48711 9.72435 8.48711 9.34357C8.48863 8.83342 8.69196 8.3446 9.05269 7.98388C9.41342 7.62315 9.90224 7.41981 10.4124 7.41829ZM25.4536 11.2236C22.9634 13.3823 20.0748 15.0328 16.9506 16.082C13.8726 17.2578 10.594 17.819 7.30018 17.7339C4.83774 17.5847 3.19259 16.8522 2.79117 15.7278C2.41189 14.6689 3.12232 13.1864 4.66254 11.6472C4.68278 12.4963 4.80989 13.3394 5.04086 14.1568C5.16657 14.6239 5.32747 15.0809 5.52218 15.5237C6.14301 15.6834 6.77835 15.7802 7.41858 15.8125C7.68812 15.8318 7.97691 15.8414 8.2657 15.8414C11.0134 15.7669 13.7297 15.2367 16.3037 14.2723C19.1804 13.3098 21.842 11.7959 24.1396 9.81526C24.615 9.38574 25.0412 8.90467 25.4103 8.38093C25.2835 7.92163 25.1259 7.47138 24.9386 7.03324C24.5929 6.25872 24.1564 5.52808 23.6381 4.85671C25.8002 5.0733 27.2865 5.7664 27.66 6.8099C28.0643 7.93523 27.2586 9.5438 25.4536 11.2236ZM18.2483 19.7016C20.3114 18.9711 22.2976 18.0392 24.1781 16.9195C23.2241 18.4315 21.9028 19.6773 20.3374 20.5408C18.7719 21.4043 17.0134 21.8574 15.2256 21.8579C14.1005 21.8605 12.9823 21.6818 11.9141 21.3284C14.073 20.9915 16.1942 20.4467 18.2483 19.7016Z" fill="#3872F7"/>
</svg>
